<?xml version="1.0" encoding="utf-8"?>
<svg version="1.1" id="Layer_1"
xmlns="http://www.w3.org/2000/svg"
xmlns:xlink="http://www.w3.org/1999/xlink"
xmlns:author="http://www.sothink.com"
width="327px" height="191px"
xml:space="preserve">
<g id="22" transform="matrix(1, 0, 0, 1, -71.05, -33)">
<path style="fill:none;stroke-width:0.5;stroke-linecap:round;stroke-linejoin:round;stroke-miterlimit:3;stroke:#B2B2B2;stroke-opacity:1" d="M340.9,45.4L341.75 40.4L328.35 39.85L327.55 44.85L340.9 45.4L362.6 46.25L370.35 46.6L369.45 52.25L368.6 57.55L367.8 62.55L360.2 62.25L333.35 73.55L323 73.1L327.55 44.85M369.45,52.25L361.45 51.8L360.4 57L368.6 57.55M362.6,46.25L361.45 51.8" />
<path style="fill:none;stroke-width:0.5;stroke-linecap:butt;stroke-linejoin:round;stroke-miterlimit:3;stroke:#B2B2B2;stroke-opacity:1" d="M252.25,75.85L255.95 74L266.05 80.95L259.5 80.85L252.25 75.85z" />
<path style="fill:none;stroke-width:0.5;stroke-linecap:butt;stroke-linejoin:round;stroke-miterlimit:3;stroke:#B2B2B2;stroke-opacity:1" d="M248.2,77.9L252.35 75.85L259.5 80.85L252.2 80.7L248.2 77.9z" />
<path style="fill:none;stroke-width:0.5;stroke-linecap:butt;stroke-linejoin:round;stroke-miterlimit:3;stroke:#B2B2B2;stroke-opacity:1" d="M309.9,76.9L308.75 81.8L318.25 82.2L319.05 77.35L309.9 76.9z" />
<path style="fill:none;stroke-width:0.5;stroke-linecap:round;stroke-linejoin:round;stroke-miterlimit:3;stroke:#B2B2B2;stroke-opacity:1" d="M324.35,64.6L312.75 64.15" />
<path style="fill:none;stroke-width:0.5;stroke-linecap:round;stroke-linejoin:round;stroke-miterlimit:3;stroke:#B2B2B2;stroke-opacity:1" d="M312.75,64.15L311.3 72.25L302.8 71.85M312.75,64.15L304.6 63.85L302.8 71.85" />
<path style="fill:none;stroke-width:0.5;stroke-linecap:butt;stroke-linejoin:round;stroke-miterlimit:3;stroke:#B2B2B2;stroke-opacity:1" d="M302.8,71.85L296.4 71.75L281.3 74.55L266.05 80.95L255.95 74L248.15 77.9L217.55 56.9L256.8 37.4L259.1 38.1L278.85 34.7L280.25 33.25L329 35.65L324.35 64.6" />
<path style="fill:none;stroke-width:0.5;stroke-linecap:butt;stroke-linejoin:round;stroke-miterlimit:3;stroke:#B2B2B2;stroke-opacity:1" d="M252.2,80.7L245.1 84.25L230.7 74.35L237.75 70.8L252.2 80.7z" />
<path style="fill:none;stroke-width:0.5;stroke-linecap:butt;stroke-linejoin:round;stroke-miterlimit:3;stroke:#B2B2B2;stroke-opacity:1" d="M238.05,87.8L223.6 77.9L230.7 74.35L245.1 84.25L238.05 87.8z" />
<path style="fill:none;stroke-width:0.5;stroke-linecap:round;stroke-linejoin:round;stroke-miterlimit:3;stroke:#B2B2B2;stroke-opacity:1" d="M375.25,46.9L375.9 42L392.25 42.6L389.2 61.85L392.6 61.95L392 65.85" />
<path style="fill:none;stroke-width:0.5;stroke-linecap:round;stroke-linejoin:round;stroke-miterlimit:3;stroke:#B2B2B2;stroke-opacity:1" d="M392,65.85L391.95 66L397.6 68.25L383.7 79.85L374.35 79.5M392,65.85L374.35 79.5" />
<path style="fill:none;stroke-width:0.5;stroke-linecap:butt;stroke-linejoin:round;stroke-miterlimit:3;stroke:#B2B2B2;stroke-opacity:1" d="M374.35,79.5L374.3 79.5L373.75 83.05L332.1 81.45L333.35 73.55L360.2 62.25L367.8 62.55L370.35 46.6L375.25 46.9" />
<path style="fill:none;stroke-width:0.5;stroke-linecap:butt;stroke-linejoin:round;stroke-miterlimit:3;stroke:#B2B2B2;stroke-opacity:1" d="M202.3,79.3L208.75 76.1L230.95 91.35L224.5 94.6" />
<path style="fill:none;stroke-width:0.5;stroke-linecap:butt;stroke-linejoin:round;stroke-miterlimit:3;stroke:#B2B2B2;stroke-opacity:1" d="M195.85,82.55Q199.1 80.95 202.3 79.3M224.5,94.6L218.05 97.8" />
<path style="fill:none;stroke-width:0.5;stroke-linecap:butt;stroke-linejoin:round;stroke-miterlimit:3;stroke:#B2B2B2;stroke-opacity:1" d="M332.75,88.55L333.9 81.55L373.75 83.05L372.9 88.35L344.85 87.25L343.65 94.5L333.1 94.1L333.65 90.45L332.75 88.55z" />
<path style="fill:none;stroke-width:0.5;stroke-linecap:butt;stroke-linejoin:round;stroke-miterlimit:3;stroke:#B2B2B2;stroke-opacity:1" d="M184.95,82.7L211.6 101.05L206.25 103.7L201.85 103.55L177.25 86.6L184.95 82.7z" />
<path style="fill:none;stroke-width:0.5;stroke-linecap:butt;stroke-linejoin:round;stroke-miterlimit:3;stroke:#B2B2B2;stroke-opacity:1" d="M333.1,94.1L343.65 94.5L342.95 99L332.35 98.6L333.1 94.1z" />
<path style="fill:none;stroke-width:0.5;stroke-linecap:butt;stroke-linejoin:round;stroke-miterlimit:3;stroke:#B2B2B2;stroke-opacity:1" d="M298.65,90.4L310 90.8L307.9 104L296.55 103.55L298.65 90.4z" />
<path style="fill:none;stroke-width:0.5;stroke-linecap:butt;stroke-linejoin:round;stroke-miterlimit:3;stroke:#B2B2B2;stroke-opacity:1" d="M332.35,98.6L342.95 99L342.35 102.6L331.8 102.2L332.35 98.6z" />
<path style="fill:none;stroke-width:0.5;stroke-linecap:butt;stroke-linejoin:round;stroke-miterlimit:3;stroke:#B2B2B2;stroke-opacity:1" d="M320.65,106.45L307.55 105.95L310 90.8L323.05 91.3L320.65 106.45z" />
<path style="fill:none;stroke-width:0.5;stroke-linecap:butt;stroke-linejoin:round;stroke-miterlimit:3;stroke:#B2B2B2;stroke-opacity:1" d="M270.35,109.35L249.5 95L256.15 91.7L271.5 102.25L270.35 109.35z" />
<path style="fill:none;stroke-width:0.5;stroke-linecap:butt;stroke-linejoin:round;stroke-miterlimit:3;stroke:#B2B2B2;stroke-opacity:1" d="M331.8,102.2L347.75 102.8L347 107.3L331.05 106.7L331.8 102.2z" />
<path style="fill:none;stroke-width:0.5;stroke-linecap:butt;stroke-linejoin:round;stroke-miterlimit:3;stroke:#B2B2B2;stroke-opacity:1" d="M152.65,117.3Q149.35 117.25 146.75 116.2Q143.05 114.75 142.3 112.1Q141.6 109.5 144.3 107.25Q146.1 105.65 149.15 104.85Q154.75 103.45 159.7 105.35Q163.4 106.8 164.1 109.45Q164.8 112.05 162.15 114.3Q160.7 115.55 158.55 116.3Q155.8 117.3 152.65 117.3z" />
<path style="fill:none;stroke-width:0.5;stroke-linecap:butt;stroke-linejoin:round;stroke-miterlimit:3;stroke:#B2B2B2;stroke-opacity:1" d="M319.9,110.95L299.8 110.2L300.5 105.7L320.65 106.45L319.9 110.95z" />
<path style="fill:none;stroke-width:0.5;stroke-linecap:butt;stroke-linejoin:round;stroke-miterlimit:3;stroke:#B2B2B2;stroke-opacity:1" d="M242.85,98.35Q246.2 96.7 249.5 95L270.35 109.35L269.8 112.65L266.25 114.45L242.85 98.35z" />
<path style="fill:none;stroke-width:0.5;stroke-linecap:butt;stroke-linejoin:round;stroke-miterlimit:3;stroke:#B2B2B2;stroke-opacity:1" d="M234.15,116.05L222.9 108.3L229.55 105L244.45 115.25L234.35 114.85L234.15 116.05z" />
<path style="fill:none;stroke-width:0.5;stroke-linecap:butt;stroke-linejoin:round;stroke-miterlimit:3;stroke:#B2B2B2;stroke-opacity:1" d="M282,89.75L298.65 90.4L294.9 113.6L278.25 112.95L282 89.75z" />
<path style="fill:none;stroke-width:0.5;stroke-linecap:butt;stroke-linejoin:round;stroke-miterlimit:3;stroke:#B2B2B2;stroke-opacity:1" d="M296.55,103.55L307.9 104L307.55 105.95L300.5 105.7L299.2 113.75L294.9 113.6L296.55 103.55z" />
<path style="fill:none;stroke-width:0.5;stroke-linecap:round;stroke-linejoin:round;stroke-miterlimit:3;stroke:#B2B2B2;stroke-opacity:1" d="M346.3,111.8L330.4 111.1" />
<path style="fill:none;stroke-width:0.5;stroke-linecap:round;stroke-linejoin:round;stroke-miterlimit:3;stroke:#B2B2B2;stroke-opacity:1" d="M330.4,111.1L330.35 111.2L330.35 111.1L330.4 111.1z" />
<path style="fill:none;stroke-width:0.5;stroke-linecap:butt;stroke-linejoin:round;stroke-miterlimit:3;stroke:#B2B2B2;stroke-opacity:1" d="M330.4,111.1L331.05 106.7L347 107.3L346.3 111.8" />
<path style="fill:none;stroke-width:0.5;stroke-linecap:butt;stroke-linejoin:round;stroke-miterlimit:3;stroke:#B2B2B2;stroke-opacity:1" d="M164.2,116.1L178 109.15L180.25 110.7L191.5 111.1L190.1 119.75L168.35 118.95L164.2 116.1z" />
<path style="fill:none;stroke-width:0.5;stroke-linecap:butt;stroke-linejoin:round;stroke-miterlimit:3;stroke:#B2B2B2;stroke-opacity:1" d="M244.45,115.25L229.55 105L236.2 101.65L259.6 117.75L248.55 117.3L248.85 115.4L244.45 115.25z" />
<path style="fill:none;stroke-width:0.5;stroke-linecap:butt;stroke-linejoin:round;stroke-miterlimit:3;stroke:#B2B2B2;stroke-opacity:1" d="M236.2,101.65L242.85 98.35L266.25 114.45L259.6 117.75L236.2 101.65z" />
<path style="fill:none;stroke-width:0.5;stroke-linecap:butt;stroke-linejoin:round;stroke-miterlimit:3;stroke:#B2B2B2;stroke-opacity:1" d="M180.85,122L189.7 122.3L188.9 127.2L180.05 126.85L180.85 122z" />
<path style="fill:none;stroke-width:0.5;stroke-linecap:round;stroke-linejoin:round;stroke-miterlimit:3;stroke:#B2B2B2;stroke-opacity:1" d="M210.65,128L199.25 127.2L199.7 124.5L200.15 121.7L233.05 122.9Q233.55 124.45 233.25 126.2Q232.9 128.2 231.7 129.45L210.65 128L210.8 125.05L199.7 124.5" />
<path style="fill:none;stroke-width:0.5;stroke-linecap:butt;stroke-linejoin:round;stroke-miterlimit:3;stroke:#B2B2B2;stroke-opacity:1" d="M180.05,126.85L188.9 127.2L183.2 131.95L179.5 130.5L180.05 126.85z" />
<path style="fill:none;stroke-width:0.5;stroke-linecap:butt;stroke-linejoin:round;stroke-miterlimit:3;stroke:#B2B2B2;stroke-opacity:1" d="M170.05,126.45L180.05 126.85L179.5 130.5L183.2 131.95L180.2 134.45L169.45 130.2L170.05 126.45z" />
<path style="fill:none;stroke-width:0.5;stroke-linecap:round;stroke-linejoin:round;stroke-miterlimit:3;stroke:#B2B2B2;stroke-opacity:1" d="M328.75,128.4L326.3 125.35" />
<path style="fill:none;stroke-width:0.5;stroke-linecap:round;stroke-linejoin:round;stroke-miterlimit:3;stroke:#B2B2B2;stroke-opacity:1" d="M326.3,125.35L325.95 124.9L306.75 124.2L308.4 114.05L299.2 113.75L299.8 110.2L319.9 110.95L319.05 116.2L326.3 125.35z" />
<path style="fill:none;stroke-width:0.5;stroke-linecap:butt;stroke-linejoin:round;stroke-miterlimit:3;stroke:#B2B2B2;stroke-opacity:1" d="M235.8,142.7L192 141.05L192.8 135.9L236.65 137.55L235.8 142.7z" />
<path style="fill:none;stroke-width:0.5;stroke-linecap:butt;stroke-linejoin:round;stroke-miterlimit:3;stroke:#B2B2B2;stroke-opacity:1" d="M136.2,128.95L170.55 142.6L165.7 146.65L142.1 137.3L141.45 137.05L129.15 132.1L131.15 130.4L136.2 128.95z" />
<path style="fill:none;stroke-width:0.5;stroke-linecap:butt;stroke-linejoin:round;stroke-miterlimit:3;stroke:#B2B2B2;stroke-opacity:1" d="M135,134.45L165.7 146.65L161.3 150.35L130.6 138.15L135 134.45z" />
<path style="fill:none;stroke-width:0.5;stroke-linecap:butt;stroke-linejoin:round;stroke-miterlimit:3;stroke:#B2B2B2;stroke-opacity:1" d="M303.15,134.35L334 140.85L333.2 142.5L326.8 147.9L299.7 145.45L303.15 134.35z" />
<path style="fill:none;stroke-width:0.5;stroke-linecap:round;stroke-linejoin:round;stroke-miterlimit:3;stroke:#B2B2B2;stroke-opacity:1" d="M135,134.45L130.6 138.15L137.7 141L130.35 147.2L147.05 153.85L143.5 156.85L119 147.15L112.9 152.25L107.6 150.15L129.1 132.15L135 134.45z" />
<path style="fill:none;stroke-width:0.5;stroke-linecap:butt;stroke-linejoin:round;stroke-miterlimit:3;stroke:#B2B2B2;stroke-opacity:1" d="M135,134.45L142.15 137.25" />
<path style="fill:none;stroke-width:0.5;stroke-linecap:butt;stroke-linejoin:round;stroke-miterlimit:3;stroke:#B2B2B2;stroke-opacity:1" d="M137.7,141L161.3 150.35L153.9 156.55L130.35 147.2L137.7 141z" />
<path style="fill:none;stroke-width:0.5;stroke-linecap:butt;stroke-linejoin:round;stroke-miterlimit:3;stroke:#B2B2B2;stroke-opacity:1" d="M233.5,157.25L175.3 155.05L181.3 150.05L234.3 152.05L233.5 157.25z" />
<path style="fill:none;stroke-width:0.5;stroke-linecap:butt;stroke-linejoin:round;stroke-miterlimit:3;stroke:#B2B2B2;stroke-opacity:1" d="M299.7,145.45L326.8 147.9L314.7 158.05L254.25 153.9L255.85 147.4L235.3 146L236.65 137.55L192.8 135.9L198.6 131L199.25 127.2L303.15 134.35L299.7 145.45z" />
<path style="fill:none;stroke-width:0.5;stroke-linecap:butt;stroke-linejoin:round;stroke-miterlimit:3;stroke:#B2B2B2;stroke-opacity:1" d="M175.3,155.05L233.5 157.25L232.55 163L168.7 160.6L175.3 155.05z" />
<path style="fill:none;stroke-width:0.5;stroke-linecap:butt;stroke-linejoin:round;stroke-miterlimit:3;stroke:#B2B2B2;stroke-opacity:1" d="M163.1,176.2L150.2 171.15L154.4 167.65L167.6 172.9L169.55 172.55L168.9 176.45L163.1 176.2z" />
<path style="fill:none;stroke-width:0.5;stroke-linecap:butt;stroke-linejoin:round;stroke-miterlimit:3;stroke:#B2B2B2;stroke-opacity:1" d="M100.4,170.95L102.9 171.95L102.85 172L91.55 181.5L89.05 180.5L100.3 171L100.4 170.95z" />
<path style="fill:none;stroke-width:0.5;stroke-linecap:butt;stroke-linejoin:round;stroke-miterlimit:3;stroke:#B2B2B2;stroke-opacity:1" d="M114.25,181.45L98.85 175.35L102.85 172L102.9 171.95L118.25 178.05L118.2 178.1L114.25 181.45z" />
<path style="fill:none;stroke-width:0.5;stroke-linecap:butt;stroke-linejoin:round;stroke-miterlimit:3;stroke:#B2B2B2;stroke-opacity:1" d="M150.2,171.15L163.1 176.2L168.9 176.45L168.1 181.4L162.35 181.1L146 174.65L150.2 171.15z" />
<path style="fill:none;stroke-width:0.5;stroke-linecap:butt;stroke-linejoin:round;stroke-miterlimit:3;stroke:#B2B2B2;stroke-opacity:1" d="M85.65,183.35L89.05 180.5L91.5 181.5L93.1 180.15L108.5 186.25L107.6 192.05L85.65 183.35z" />
<path style="fill:none;stroke-width:0.5;stroke-linecap:butt;stroke-linejoin:round;stroke-miterlimit:3;stroke:#B2B2B2;stroke-opacity:1" d="M85.65,183.35L107.6 192.05L106.65 197.85L80.65 187.55L85.65 183.35z" />
<path style="fill:none;stroke-width:0.5;stroke-linecap:butt;stroke-linejoin:round;stroke-miterlimit:3;stroke:#B2B2B2;stroke-opacity:1" d="M131.65,197.1L131.1 200.75L118.7 200.3L123.05 196.65L131.65 197.1z" />
<path style="fill:none;stroke-width:0.5;stroke-linecap:butt;stroke-linejoin:round;stroke-miterlimit:3;stroke:#B2B2B2;stroke-opacity:1" d="M118.7,200.3L131.1 200.75L130.6 204.1L118.2 203.6L118.7 200.3z" />
<path style="fill:none;stroke-width:0.5;stroke-linecap:butt;stroke-linejoin:round;stroke-miterlimit:3;stroke:#B2B2B2;stroke-opacity:1" d="M80.65,187.55L106.65 197.85L106.05 201.6L102.8 202.5L75.65 191.75L80.65 187.55z" />
<path style="fill:none;stroke-width:0.5;stroke-linecap:butt;stroke-linejoin:round;stroke-miterlimit:3;stroke:#B2B2B2;stroke-opacity:1" d="M101.2,214.2L108.15 214.4L107.6 217.95L100.65 217.75L101.2 214.2z" />
<path style="fill:none;stroke-width:0.5;stroke-linecap:round;stroke-linejoin:round;stroke-miterlimit:3;stroke:#B2B2B2;stroke-opacity:1" d="M166.65,190.45L233.05 192.95" />
<path style="fill:none;stroke-width:0.5;stroke-linecap:round;stroke-linejoin:round;stroke-miterlimit:3;stroke:#B2B2B2;stroke-opacity:1" d="M233.05,192.95L233.1 192.95L250.6 199.85L227.05 214.6L208.45 207.25L206.85 206.6L187.5 222.85L184 221.65L136.55 221.6L139.15 204.45L139.15 204.4L130.6 204.1L131.7 197.1L123.05 196.65L123.8 192.5L124.1 190.6L128.6 186.85L136.5 180.2L151.5 186.15M131.7,197.1L132.35 192.95L123.8 192.5M128.6,186.85L143.05 193.3L151.5 186.15M233.05,192.95L208.45 207.25" />
<path style="fill:none;stroke-width:0.5;stroke-linecap:butt;stroke-linejoin:round;stroke-miterlimit:3;stroke:#B2B2B2;stroke-opacity:1" d="M151.5,186.15L151.7 186.2L159.25 179.9L162.35 181.1L168.1 181.4L166.65 190.45" />
<path style="fill:none;stroke-width:0.5;stroke-linecap:butt;stroke-linejoin:round;stroke-miterlimit:3;stroke:#B2B2B2;stroke-opacity:1" d="M127.05,211.3L126.55 214.5L116.3 214.1L116.85 210.9L127.05 211.3z" />
<path style="fill:none;stroke-width:0.5;stroke-linecap:butt;stroke-linejoin:round;stroke-miterlimit:3;stroke:#B2B2B2;stroke-opacity:1" d="M215.85,72.55L238.05 87.8L230.95 91.35L208.75 76.1L215.85 72.55z" />
<path style="fill:none;stroke-width:0.5;stroke-linecap:butt;stroke-linejoin:round;stroke-miterlimit:3;stroke:#B2B2B2;stroke-opacity:1" d="M262.8,88.35L271.2 87.8L273.55 89.45L272.65 95.15L262.8 88.35z" />
<path style="fill:none;stroke-width:0.5;stroke-linecap:butt;stroke-linejoin:round;stroke-miterlimit:3;stroke:#B2B2B2;stroke-opacity:1" d="M218.05,97.8L211.6 101.05L189.4 85.75L195.85 82.55" />
<path style="fill:none;stroke-width:0.5;stroke-linecap:butt;stroke-linejoin:round;stroke-miterlimit:3;stroke:#B2B2B2;stroke-opacity:1" d="M271.5,102.25L256.15 91.7Q259.5 90.05 262.8 88.35L272.65 95.15L271.5 102.25z" />
<path style="fill:none;stroke-width:0.5;stroke-linecap:butt;stroke-linejoin:round;stroke-miterlimit:3;stroke:#B2B2B2;stroke-opacity:1" d="M164.95,100.15L172.1 96.55L186.05 106.15L192.95 102.7L197.25 105.65L196.8 108.45L191.5 111.1L180.25 110.7L164.95 100.15z" />
<path style="fill:none;stroke-width:0.5;stroke-linecap:butt;stroke-linejoin:round;stroke-miterlimit:3;stroke:#B2B2B2;stroke-opacity:1" d="M159.7,105.35Q154.75 103.45 149.15 104.85L147.05 103.45L153.25 100.35L150.65 98.55L157.55 95.1L178 109.15L160.75 117.8L158.55 116.3Q160.7 115.55 162.15 114.3Q164.8 112.05 164.1 109.45Q163.4 106.8 159.7 105.35z" />
<path style="fill:none;stroke-width:0.5;stroke-linecap:butt;stroke-linejoin:round;stroke-miterlimit:3;stroke:#B2B2B2;stroke-opacity:1" d="M278.25,112.95L269.8 112.65L273.55 89.45L282 89.75L278.25 112.95z" />
<path style="fill:none;stroke-width:0.5;stroke-linecap:butt;stroke-linejoin:round;stroke-miterlimit:3;stroke:#B2B2B2;stroke-opacity:1" d="M209.7,114.95L216.25 111.65L230.15 121.2L218.1 120.75L209.7 114.95z" />
<path style="fill:none;stroke-width:0.5;stroke-linecap:butt;stroke-linejoin:round;stroke-miterlimit:3;stroke:#B2B2B2;stroke-opacity:1" d="M233.3,121.3L230.15 121.2L216.25 111.65L222.9 108.3L234.15 116.05L233.3 121.3z" />
<path style="fill:none;stroke-width:0.5;stroke-linecap:butt;stroke-linejoin:round;stroke-miterlimit:3;stroke:#B2B2B2;stroke-opacity:1" d="M233.05,122.9L200.15 121.7L200.45 119.55L209.7 114.95L218.1 120.75L233.3 121.3L233.05 122.9z" />
<path style="fill:none;stroke-width:0.5;stroke-linecap:round;stroke-linejoin:round;stroke-miterlimit:3;stroke:#B2B2B2;stroke-opacity:1" d="M188.9,127.2L180.05 126.85" />
<path style="fill:none;stroke-width:0.5;stroke-linecap:round;stroke-linejoin:round;stroke-miterlimit:3;stroke:#B2B2B2;stroke-opacity:1" d="M180.05,126.85L158.5 126.05Q157.5 124.25 158 122.3Q158.5 120.3 160.45 118.65L190.1 119.75L189.7 122.3L180.85 122L180.05 126.85z" />
<path style="fill:none;stroke-width:0.5;stroke-linecap:butt;stroke-linejoin:round;stroke-miterlimit:3;stroke:#B2B2B2;stroke-opacity:1" d="M330.35,111.1L346.3 111.8L346.7 109.35L359.55 113.5L344.15 128.6L338.45 126.9L329.55 115.85L330.35 111.2L330.35 111.1z" />
<path style="fill:none;stroke-width:0.5;stroke-linecap:butt;stroke-linejoin:round;stroke-miterlimit:3;stroke:#B2B2B2;stroke-opacity:1" d="M169.45,130.2L180.2 134.45L175.35 138.55L145 126.45L147.9 125.65L170.05 126.45L169.45 130.2z" />
<path style="fill:none;stroke-width:0.5;stroke-linecap:butt;stroke-linejoin:round;stroke-miterlimit:3;stroke:#B2B2B2;stroke-opacity:1" d="M328.75,128.4L325.75 132.3L306.1 128.65L306.75 124.2L325.95 124.9L328.75 128.4z" />
<path style="fill:none;stroke-width:0.5;stroke-linecap:butt;stroke-linejoin:round;stroke-miterlimit:3;stroke:#B2B2B2;stroke-opacity:1" d="M145,126.45L175.35 138.55L170.55 142.6L136.2 128.95L145 126.45z" />
<path style="fill:none;stroke-width:0.5;stroke-linecap:butt;stroke-linejoin:round;stroke-miterlimit:3;stroke:#B2B2B2;stroke-opacity:1" d="M234.3,152.05L181.3 150.05L192 141.05L235.8 142.7L234.3 152.05z" />
<path style="fill:none;stroke-width:0.5;stroke-linecap:butt;stroke-linejoin:round;stroke-miterlimit:3;stroke:#B2B2B2;stroke-opacity:1" d="M118.2,178.1L88.4 166.25L107.6 150.15L112.9 152.25L119 147.15L143.55 156.9L136.65 162.65L132.9 162.65L129.05 165.9L130.4 167.9L118.2 178.1z" />
<path style="fill:none;stroke-width:0.5;stroke-linecap:butt;stroke-linejoin:round;stroke-miterlimit:3;stroke:#B2B2B2;stroke-opacity:1" d="M146,174.65L159.25 179.9L155.5 183.05L142.3 177.8L146 174.65z" />
<path style="fill:none;stroke-width:0.5;stroke-linecap:butt;stroke-linejoin:round;stroke-miterlimit:3;stroke:#B2B2B2;stroke-opacity:1" d="M98.85,175.35L114.25 181.45L108.5 186.25L93.1 180.15L98.85 175.35z" />
<path style="fill:none;stroke-width:0.5;stroke-linecap:butt;stroke-linejoin:round;stroke-miterlimit:3;stroke:#B2B2B2;stroke-opacity:1" d="M142.25,177.8L155.5 183.05L151.7 186.2L138.5 181L142.25 177.8z" />
<path style="fill:none;stroke-width:0.5;stroke-linecap:butt;stroke-linejoin:round;stroke-miterlimit:3;stroke:#B2B2B2;stroke-opacity:1" d="M263.55,179.2L275.7 184.2L260.1 193.9L166.65 190.45L169.55 172.55L167.55 172.85L154.4 167.65L161.95 161.3L168.7 160.6L232.55 163L231.05 172.3L248.45 172.95L247.5 178.6L263.55 179.2z" />
<path style="fill:none;stroke-width:0.5;stroke-linecap:butt;stroke-linejoin:round;stroke-miterlimit:3;stroke:#B2B2B2;stroke-opacity:1" d="M71.3,195.4L75.65 191.75L102.75 202.5L101.95 207.55L71.3 195.4z" />
<path style="fill:none;stroke-width:0.5;stroke-linecap:butt;stroke-linejoin:round;stroke-miterlimit:3;stroke:#B2B2B2;stroke-opacity:1" d="M116.9,210.9L117.35 207.6L127.6 207.95L127.1 211.3L116.9 210.9z" />
<path style="fill:none;stroke-width:0.5;stroke-linecap:butt;stroke-linejoin:round;stroke-miterlimit:3;stroke:#B2B2B2;stroke-opacity:1" d="M83.7,200.3L101.95 207.55L101.1 212.65L79.3 204L83.7 200.3z" />
<path style="fill:none;stroke-width:0.5;stroke-linecap:butt;stroke-linejoin:round;stroke-miterlimit:3;stroke:#B2B2B2;stroke-opacity:1" d="M116.3,214.1L126.55 214.5L125.25 221.6L120.45 221.6L115.45 218.75L116.3 214.1z" />
</g>
</svg>
