<?xml version="1.0" encoding="utf-8"?>
<svg version="1.1" id="Layer_1"
xmlns="http://www.w3.org/2000/svg"
xmlns:xlink="http://www.w3.org/1999/xlink"
xmlns:author="http://www.sothink.com"
width="1027px" height="556px"
xml:space="preserve">
<g id="20" transform="matrix(1, 0, 0, 1, -41.05, -80.9)">
<path style="fill:none;stroke-width:8;stroke-linecap:butt;stroke-linejoin:miter;stroke-miterlimit:4;stroke:#FF00FF;stroke-opacity:1" d="M760.3,455.35L674.9 508.8" />
<path style="fill:none;stroke-width:8;stroke-linecap:round;stroke-linejoin:miter;stroke-miterlimit:4;stroke:#FF00FF;stroke-opacity:1" d="M830.7,387.35L831.35 386.75L833.55 382.25M667.25,347.45L753.35 357.35M599,345.15L564.1 342.45M606.4,551.65L630.75 536.5" />
<path style="fill:none;stroke-width:8;stroke-linecap:round;stroke-linejoin:miter;stroke-miterlimit:4;stroke:#FF00FF;stroke-opacity:1" d="M833.55,382.25L749.4 364.5L559.05 351.4L559.05 351.05Q559.4 348.75 559.35 346.6L559.2 344.35L599 347.35L667.25 349.6L757.75 360L811.15 369.8L842.8 378.45L923.85 298.5L1035.35 207.05L1063.3 192.6L1063.2 190.45Q1012.85 125.8 1003 112.65Q996.45 103.8 982.4 98.45L968.75 94.9Q938.95 89.75 906.4 85.35Q889.15 83.35 880.2 90.55Q876.25 94 874.45 98.75Q873.7 101 873.55 103.1L846.5 103.2L845.45 97.95Q844.25 92.65 830.55 91.65L797.25 89.75Q761.7 87.95 739.3 88.1L702.95 89.4L686.9 88.65L684.8 90.8Q651.1 93.7 615.1 99.85Q587.6 104.35 560.25 115.95Q543.55 123.05 536.8 127.4L403.95 203.1Q389.6 211.95 371.75 223.7Q364.55 228.45 358.05 232.85L344.8 242.1Q330.05 252.6 319.95 261.1Q298.1 279.55 258.35 326.6L258.55 328.8L353.2 332.45Q352.45 336.15 353.65 339.45L353.35 340.35L353.1 341.75L325.75 340.8L298.2 348.55L242 346.5Q222.75 368.1 202.05 390Q160.4 434.4 138.3 452.75Q116.15 471.2 89.1 488.1Q75.75 496.3 59.7 505.15L57.4 506.8Q56.25 507.8 55.85 508.95L55.6 509.6L55.8 511.7Q55.8 512.55 56.6 513.05L57.25 513.45L73.4 519.85L45.15 543.1L45.25 545.4L194.5 604.5L237.5 605.85L251.15 613.6L424.55 613.6L481.15 632.3L760.45 457.5L831.6 397.8L833.8 393.15L833.7 391.55L833.95 391L833.55 382.25M753.35,357.35L757.55 357.8L759 358.1L753.35 357.35M564.1,342.45L559.05 342.15L559.05 342.05L564.1 342.45M434.95,614.95L434.2 614.7L434.25 614.7L434.95 614.95L481.05 630.15L538.9 593.95L541.65 592.15L541.7 592.2L538.9 593.95M630.75,536.5L631.9 535.7L631.95 535.7L630.75 536.5" />
<path style="fill:#999999;fill-opacity:1" d="M361.15,332.25L260.1 328.3L260 326.15L361 329.95L361.15 332.25" />
</g>
</svg>
