<?xml version="1.0" encoding="utf-8"?>
<svg version="1.1" id="Layer_1"
xmlns="http://www.w3.org/2000/svg"
xmlns:xlink="http://www.w3.org/1999/xlink"
xmlns:author="http://www.sothink.com"
width="1011px" height="544px"
xml:space="preserve">
<g id="21" transform="matrix(1, 0, 0, 1, -48.35, -86.3)">
<path style="fill:#CCCCCC;fill-opacity:1" d="M454.15,175.3L536.35 128.45Q543 124.15 559.65 117.1Q586.85 105.6 614.1 101.1Q680.3 89.85 737.3 89.45Q759.5 89.35 794.85 91.1L827.9 93Q841.4 93.95 842.65 99.2L843.7 104.5L870.55 104.35Q870.65 102.45 871.5 100.05Q873.25 95.3 877.15 91.9Q885.95 84.75 903.15 86.75Q934.85 90.95 965.05 96.25L978.6 99.75Q992.55 105.05 999.05 113.85Q1009.6 127.9 1058.75 191L1031 205.35L920.35 296.1L839.95 375.45L808.65 366.9L755.45 357.15L665.8 346.85L598.1 344.55L557.6 341.45Q558.95 345.5 558.15 350.4Q557.2 355.8 553.95 359.35L747.85 372.45L831 390.05L828.85 394.65L758.15 454L480.95 627.45L424.8 608.9L252.7 608.9L239.15 601.15L196.6 599.8L48.35 541.05L78.15 516.55L62.15 510.15Q60.55 509.75 59.6 508.95Q57.7 507.45 60.55 505L62.85 503.4Q77.85 495.15 91.95 486.45Q118.9 469.7 140.85 451.4Q162.75 433.1 204.05 389.1Q225.05 366.9 243.75 345.9L355.7 350Q352.9 345.25 354.25 339.85Q355.6 334.7 360.85 330.1L361 329.95L260 326.15Q299.4 279.45 321.05 261.15Q339.05 246.15 372.5 224.05Q389.45 212.95 404.45 203.6L454.15 175.3" />
<path style="fill:#999999;fill-opacity:1" d="M804.55,179.5L800.75 202.55L828.9 203.75L825.4 225.25L830.25 225.4L827.3 244.35L829.75 249.65L818.75 318.15L842.7 348.2L858.55 352.95L839.6 371.35L808.2 362.8L816.45 352.4L790.2 319.35L801.05 251.8L667 246.8L660.5 242.35L637.75 243.8L469.05 328.3L464.05 359.45L448.35 372.55L446.05 386.65L383.1 439.45L364.7 441.35L301.35 494.55L295.9 492.4L262.35 520.55L259.5 536.9L247.7 546.95L238.9 597.05L196.25 595.7L93.95 555.05L119.25 533.65L152.8 547.05L141.05 556.95L200.05 580.4L204.55 552.9L213.45 550.45L220.1 508.9L279.4 459.2L275.75 453.8L286.15 445L296.2 445L324.5 421.15L343.05 428.5L437.8 349L444.7 305.4L459.2 298.25L460.4 290.65L448.75 282.65L430.1 292L375.4 254.65L406.1 239.1L472.85 284.95L484.75 285.4L609.2 223.25L646.7 223.8L688 206.45L728.85 199L770.3 200.5L773.8 178.45L804.55 179.5" />
<path style="fill:#7F7F7F;fill-opacity:1" d="M478.1,181Q480.4 180.1 483.55 180.1L485.15 180.35L485.55 189L483.95 188.9Q480.55 188.9 478.5 189.85L441.4 208.5L440.45 209.2L439.8 210.15L439.4 211.2L439.4 211.75L439 202.95L439.4 201.35L440.05 200.4L441 199.7L477.7 181.3L478.1 181" />
<path style="fill:#7F7F7F;fill-opacity:1" d="M490.7,184.55L491.1 193.2Q490.95 192 489.75 190.75L489.35 190.5L487.2 189.4L485.55 189L485.15 180.35L486.8 180.6L488 181.15L489.35 181.95Q490.7 183.2 490.7 184.55" />
<path style="fill:#7F7F7F;fill-opacity:1" d="M425.85,203.35Q426.1 207.15 429.75 210.15L430.7 210.8L432.9 212.15Q434.65 213 436.4 213.65L440.85 214.6L445.05 215Q452.8 215.4 459.3 212.55L496.25 194.15L500.05 191.7L501 190.75L502.9 188.35Q503.7 187 503.85 185.65L503.95 184.15L504.4 192.8L504.25 194.45Q503.95 195.9 503.3 197Q502.75 198.2 501.4 199.6L500.45 200.4L496.65 202.85L459.7 221.25Q453.75 224.1 445.5 223.8L441.3 223.4L436.8 222.3L433.3 220.95L430.2 218.95Q426.5 215.95 426.25 212.15L425.85 203.35" />
<path style="fill:#FFFFFF;fill-opacity:1" d="M430.7,210.8Q426.1 207.7 425.85 203.5Q425.7 199.3 429.75 195.8L433.55 193.35L469.3 175.45Q476.1 172.1 484.75 172.5Q493.4 172.75 499.1 176.7Q504.65 180.35 503.85 185.65Q503.45 188.75 500.05 191.7L496.25 194.15L460.5 212.05Q453.75 215.4 445.05 215Q436.4 214.9 430.7 210.8M440.45,200.1Q439.4 201.05 439.1 202.4Q438.7 204.3 440.85 205.8Q443.05 207.3 446.3 207.3Q449.55 207.55 452.1 206.2L487.85 188.35L489.2 187.4Q490.85 186.05 490.7 184.55Q490.7 182.9 488.95 181.7Q486.9 180.35 483.55 180.1Q480.15 180.1 477.7 181.3L441.95 199.15L440.45 200.1" />
<path style="fill:#B2B2B2;fill-opacity:1" d="M446.85,207.3Q449.7 207.3 452.1 206.2L487.85 188.35L489.2 187.4Q490.85 186.05 490.7 184.55Q490.7 182.9 488.95 181.7Q486.9 180.35 483.55 180.1L483 180.1Q480 180.1 477.7 181.3L441.95 199.15L440.45 200.1Q439.4 201.05 439.1 202.4Q438.7 204.3 440.85 205.8Q443.05 207.3 446.3 207.3L446.85 207.3M446.85,208.65L446.15 208.65Q442.75 208.65 440.05 206.9Q437.35 205 437.75 202.15Q438.05 200.5 439.65 199.05L441.3 197.95L477.05 180.1Q480 178.7 483 178.7L483.55 178.7Q487.2 179 489.75 180.6Q492.05 182.1 492.05 184.4Q492.35 186.85 490.15 188.45L488.55 189.55L452.8 207.45Q450.2 208.65 446.85 208.65M445.05,215Q436.4 214.9 430.7 210.8Q426.1 207.7 425.85 203.5Q425.7 199.3 429.75 195.8L433.55 193.35L469.3 175.45Q475.55 172.5 483.25 172.5L484.75 172.5Q493.4 172.75 499.1 176.7Q504.65 180.35 503.85 185.65Q503.45 188.75 500.05 191.7L496.25 194.15L460.5 212.05Q454.3 215 446.45 215L445.05 215M446.45,213.65Q454.3 213.65 459.95 210.8L495.7 192.95L499.25 190.65Q502.1 188.2 502.5 185.35Q503.3 181.15 498.3 177.8Q492.85 174.1 484.75 173.85L483.25 173.85Q475.55 173.85 469.85 176.7L434.1 194.55L430.6 196.85Q426.95 199.85 427.2 203.35Q427.45 207 431.55 209.75Q436.95 213.5 445.05 213.65L446.45 213.65" />
<path style="fill:#7F7F7F;fill-opacity:1" d="M925.35,106.3L927.5 107.25L927.95 107.5Q929.15 108.6 929.4 110.05L929.7 118.75Q929.7 117.65 928.35 116.3L927.1 115.5L925.75 114.95L924.15 114.55L876.35 112.8Q873.5 112.65 870.9 113.75L869.55 114.4L868.6 115.1L867.95 116.05L867.55 117.65L867.15 108.85L867.55 107.35L868.2 106.4L868.6 106L869.15 105.6L870.5 104.95Q873.1 103.85 875.95 104L923.75 105.85Q924.55 105.85 925.35 106.3" />
<path style="fill:#7F7F7F;fill-opacity:1" d="M942.55,109.65L942.95 118.35L942.8 119.95Q942.55 121.45 941.9 122.55Q941.35 123.75 940 125.1L937.55 127Q936.6 127.8 934.15 128.9Q927.8 131.75 919.8 131.45L873.65 129.7L869.45 129.3L864.95 128.35L861.45 126.85L858.2 124.85Q854.65 121.85 854.4 118.05L854 109.4Q854.25 113.05 857.8 116.05L861.15 118.05L864.55 119.55L869.05 120.5L873.2 120.9L919.4 122.65Q927.25 123.05 933.75 120.25L937.15 118.35L939.7 116.3L941.45 113.85Q942.3 112.5 942.4 111.15L942.55 109.65" />
<path style="fill:#FFFFFF;fill-opacity:1" d="M929.3,110.6Q929.7 108.7 927.5 107.25Q925.35 105.75 922.1 105.75L875.95 104Q871.35 103.7 868.6 106Q867.55 106.95 867.25 108.3Q866.85 110.2 869.05 111.7Q871.05 113.05 874.45 113.3L920.6 114.95Q923.85 115.2 926.45 113.85L927.95 112.9Q929 111.95 929.3 110.6M942.4,111.15Q942 114.55 938.65 117.25Q935.5 119.95 930.35 121.45Q925.1 122.95 919.4 122.65L873.2 120.9Q864.3 120.65 858.85 116.7Q853.3 113.05 854.15 107.75Q854.55 104.5 857.9 101.8Q859.3 100.45 861.7 99.4Q868.35 95.85 877.15 96.25L923.3 98Q932 98.3 937.7 102.2Q943.25 106 942.4 111.15" />
<path style="fill:#B2B2B2;fill-opacity:1" d="M936.85,103.3Q931.45 99.65 923.3 99.4L875.65 97.6Q868.2 97.6 862.25 100.6Q859.8 101.8 858.75 102.75Q855.9 105.2 855.5 108.05Q854.65 112.25 859.7 115.6Q864.85 119.3 873.2 119.55L920.75 121.3Q931.6 121.3 937.8 116.15Q940.65 113.75 941.05 110.9Q941.9 106.7 936.85 103.3M942.4,111.15Q942 114.55 938.65 117.25Q932.15 122.65 920.75 122.65L873.2 120.9Q864.3 120.65 858.85 116.7Q853.3 113.05 854.15 107.75Q854.55 104.5 857.9 101.8Q859.3 100.45 861.7 99.4Q867.65 96.25 875.65 96.25L923.3 98Q932 98.3 937.7 102.2Q943.25 106 942.4 111.15M922.1,105.75L875.4 104Q871.05 104 868.6 106Q867.55 106.95 867.25 108.3Q866.85 110.2 869.05 111.7Q871.05 113.05 874.45 113.3L920.6 114.95L921.15 115.1Q924.25 115.1 926.45 113.85L927.95 112.9Q929 111.95 929.3 110.6Q929.7 108.7 927.5 107.25Q925.35 105.75 922.1 105.75M928.35,106.15Q931.05 108.05 930.65 110.9Q930.5 112.5 928.75 114L927.1 115.1Q924.15 116.45 921.15 116.45L920.6 116.3L874.45 114.7Q870.8 114.55 868.2 112.8Q865.5 110.9 865.9 108.05Q866.2 106.4 867.8 104.95Q870.5 102.6 875.4 102.6L922.1 104.4Q925.75 104.4 928.35 106.15" />
<path style="fill:#7F7F7F;fill-opacity:1" d="M153.25,495.55Q153.4 497.45 152.3 499.75L150.45 502.2L121.05 526.85L117.65 528.6Q114.3 530.25 108.7 530.9Q103.6 531.6 99.1 530.8Q96.4 530.35 94.65 529.7L94.25 521.05L98.7 522Q102.9 522.65 108.45 522.25Q113.35 521.55 117.25 519.95L120.65 518.05L122.15 516.95L148.95 494.35L150 493.4Q150.85 492.6 151.9 490.95Q152.85 488.8 152.85 487.2L153.25 495.55" />
<path style="fill:#7F7F7F;fill-opacity:1" d="M137,483.95L138.25 484.75Q139.45 485.7 139.75 487.3L140.15 496Q139.85 494.5 138.65 493.4L137.45 492.75L136.1 492.2L134.45 491.8L130.8 491.65Q129.15 491.8 127.4 492.6L125.5 493.7L98.7 516.3L98.3 516.55L97.6 517.5Q97.2 518.3 97.2 519.15L96.8 510.35Q96.8 509.5 97.2 508.7L97.9 507.75L98.3 507.5L125.1 484.9L127 483.8Q128.35 483.25 130.4 483Q132.3 482.85 134.05 483L135.65 483.4L137 483.95" />
<path style="fill:#7F7F7F;fill-opacity:1" d="M91.1,528.35L87.85 526.3Q84.35 523.35 84.1 519.55L83.65 510.75Q83.95 514.4 87.6 517.5L90.7 519.55L94.25 521.05L94.65 529.7L91.1 528.35" />
<path style="fill:#FFFFFF;fill-opacity:1" d="M139.6,486.65Q139.05 484.75 136.35 483.65Q133.5 482.55 130.4 483Q127.55 483.1 125.1 484.9L98.3 507.5Q96.55 508.85 96.95 511Q97.6 513.05 100.2 514Q103.05 515.05 106.15 514.65Q109.4 514.25 111.45 512.65L138.25 490.15Q140.15 488.55 139.6 486.65M148.95,494.35L122.15 516.95Q117.1 521.15 108.45 522.25Q99.4 523.05 92.6 520.35Q85.45 517.5 83.95 512.5Q82.45 507.5 87.6 503.15L114.4 480.7Q119.55 476.5 128.2 475.4Q136.6 474.3 143.95 477.15Q151.1 480.15 152.6 485.15Q154.1 490.3 148.95 494.35" />
<path style="fill:#B2B2B2;fill-opacity:1" d="M128.35,476.75Q119.95 477.55 115.35 481.75L88.4 504.25Q84.6 507.5 85.05 511.4Q85.85 516.15 93 519.15Q98.05 521.05 104.1 521.05L108.2 520.9Q116.6 519.8 121.3 515.9L148.15 493.4Q152.45 489.6 151.25 485.4Q149.9 480.95 143.5 478.5Q138.5 476.5 132.4 476.5L128.35 476.75M132.4,475.15Q138.9 475.15 143.95 477.15Q151.1 480.15 152.6 485.15Q154.1 490.3 148.95 494.35L122.15 516.95Q117.1 521.15 108.45 522.25L104.1 522.4Q97.75 522.4 92.6 520.35Q85.45 517.5 83.95 512.5Q82.45 507.5 87.6 503.15L114.4 480.7Q119.55 476.5 128.2 475.4L132.4 475.15M130.4,483Q127.55 483.1 125.1 484.9L98.3 507.5Q96.55 508.85 96.95 511Q97.6 513.05 100.2 514Q102.2 514.8 104.65 514.8L106.15 514.65Q109.4 514.25 111.45 512.65L138.25 490.15Q140.15 488.55 139.6 486.65Q139.05 484.75 136.35 483.65Q134.3 482.85 132 482.85L130.4 483M132,481.5Q134.7 481.5 136.9 482.3Q140.55 483.8 140.95 486.75Q141.35 489.2 139.05 491.1L112.25 513.7Q109.95 515.6 106.4 516L104.65 516.15Q102.2 516.15 99.65 515.2Q96.4 513.85 95.6 511.4Q94.9 508.55 97.5 506.4L124.3 483.95Q126.6 482.05 130.25 481.65L132 481.5" />
<path style="fill:#9F9F9F;fill-opacity:1" d="M78.45,516.3L76.85 517.6L60.3 511.05L59.65 510.65Q58.85 510.1 58.85 509.3L58.7 507.35L59.5 508.5L60.3 508.9Q60.75 509.3 61.25 509.3L78.45 516.3" />
<path style="fill:#9F9F9F;fill-opacity:1" d="M375.05,259.15L374.8 254.8L429.5 292.2L429.75 296.65L375.05 259.15" />
<path style="fill:#9F9F9F;fill-opacity:1" d="M165.3,459.15L164.9 450.35L197.4 463.05L197.7 471.9L165.3 459.15" />
<path style="fill:#9F9F9F;fill-opacity:1" d="M849.1,132L848.7 123.2L851 109.55L851.3 118.2L849.1 132" />
<path style="fill:#9F9F9F;fill-opacity:1" d="M979.9,176.4L979.5 167.6L987.8 115.5L988.2 124.3L979.9 176.4" />
<path style="fill:#9F9F9F;fill-opacity:1" d="M986.95,178.85L988.75 167.9L989.15 176.7L987.35 187.5L986.95 178.85" />
<path style="fill:#9F9F9F;fill-opacity:1" d="M597.95,219.9L515.1 162.9L514.65 154.2L597.55 211.1L597.95 219.9" />
<path style="fill:#7F7F7F;fill-opacity:1" d="M964.6,216.35L1002.25 184.95L1002.65 193.6L965.05 225.15L939.55 224.2L935.8 248.05L859.8 245.2L853.05 286.65L852.65 278L859.4 236.4L935.4 239.4L939.15 215.4L964.6 216.35" />
<path style="fill:#9F9F9F;fill-opacity:1" d="M333.9,275.8L333.5 267L340.55 271.9L340.95 280.7L333.9 275.8" />
<path style="fill:#9F9F9F;fill-opacity:1" d="M324.15,289.1L323.75 280.3L329.45 284.05L329.7 292.85L324.15 289.1" />
<path style="fill:#7F7F7F;fill-opacity:1" d="M310.9,310.2L310.6 301.4Q310.9 306.8 315.9 310.9Q318.2 312.75 320.35 313.7L322.95 314.8Q323.9 315.35 325.25 315.6Q328.35 316.7 331.35 317.1Q343.8 319 354.9 315.1L357.45 314L357.6 316.85L360.85 319.15L407.55 295.7L407.95 304.5L377.65 319.7L381.45 322.25L381.85 330.9L370.6 323.2L361.25 327.95L355.3 323.75Q343.9 327.8 331.6 325.9L325.65 324.4L323.2 323.6Q321.45 322.95 320.65 322.4Q318.2 321.15 316.3 319.7Q311.3 315.75 310.9 310.2" />
<path style="fill:#7F7F7F;fill-opacity:1" d="M816.65,105.05L804.05 183.45L773.45 182.25L769.75 204.45L728.35 202.85L687.6 210.4L646.3 227.75L608.8 227.05L608.35 218.4L645.9 218.95L687.2 201.6L728.05 194.15L769.35 195.65L773 173.6L803.65 174.65L816.35 96.4L816.65 105.05M788.6,230.75L761.55 229.85L761.8 221.65L787.8 222.6L790.15 209.25L790.15 220L788.6 230.75" />
<path style="fill:#7F7F7F;fill-opacity:1" d="M828.7,207.95L800.65 206.9L800.25 198.1L828.25 199.3L828.7 207.95" />
<path style="fill:#7F7F7F;fill-opacity:1" d="M829.75,220.95L830.05 229.75L825.3 229.5L824.9 220.7L829.75 220.95" />
<path style="fill:#7F7F7F;fill-opacity:1" d="M826.65,239.95L829.1 245.05L829.5 253.85L827.05 248.75L826.65 239.95" />
<path style="fill:#7F7F7F;fill-opacity:1" d="M405.8,243.45L405.55 234.65L472.15 280.55L484.05 280.95L608.5 218.65L608.9 227.45L484.45 289.75L472.55 289.35L405.8 243.45" />
<path style="fill:#9F9F9F;fill-opacity:1" d="M800.4,247.35L800.8 256.15L789.95 323.6L789.55 314.8L800.4 247.35" />
<path style="fill:#9F9F9F;fill-opacity:1" d="M458.5,293.8L459.7 286.25L460.1 295.05L458.9 302.6L444.55 309.8L440.75 333.2L440.35 324.4L444.1 301L458.5 293.8" />
<path style="fill:#7F7F7F;fill-opacity:1" d="M118.9,538.1L118.6 529.3L152.2 542.55L152.45 551.35L118.9 538.1" />
<path style="fill:#7F7F7F;fill-opacity:1" d="M1058.05,193.35L1030.3 207.7L919.65 298.4L839.25 377.75L807.8 369.25L754.75 359.5L664.95 349.2L597.25 346.9L557.75 343.9L557.85 346.2Q558.15 351.9 555.55 356.4L553.4 359.5L553 350.7L555.15 347.55Q556.4 345.55 556.8 343.1L556.8 341.6L557.05 341.6L556.65 332.95L560.15 311.15L599.45 312.65L599.7 317.9L628.55 319L628.8 327.65L599.05 326.6L598.75 321.3L560.55 319.95L557.45 338.9L557.6 341.75L597.25 344.75L664.95 347.05L756.8 357.75L754.9 357.3L754.45 348.5L807.7 358.4L815.8 347.85L816.2 356.65L810.65 363.8L839.1 371.55L854.95 356.25L842.5 352.6L818.4 322.65L818 313.85L842.1 343.8L857.5 348.4L899.2 307.5L899.65 315.9L919.55 296.25L1030.15 205.55L1057.9 191.2L1058.05 193.35" />
<path style="fill:#9F9F9F;fill-opacity:1" d="M864.85,304.9L864.4 296.25L867.25 278.5L867.65 287.2L864.85 304.9" />
<path style="fill:#7F7F7F;fill-opacity:1" d="M761.1,317.8L656.6 313.85L628.95 327.8L628.55 319L656.15 305.2L760.7 309L761.1 317.8" />
<path style="fill:#7F7F7F;fill-opacity:1" d="M618.8,408.1L563.15 404.15L551.65 475.55L551.25 466.75L564.1 386.55L564.5 395.65L618.4 399.3L618.8 408.1" />
<path style="fill:#7F7F7F;fill-opacity:1" d="M437.5,353.25L342.7 432.9L324.15 425.55L314.55 433.55L314.55 433.7L296 449.4L285.85 449.4L278.65 455.35L279.05 463.5L235.35 500.3L234.9 491.5L275.4 457.5L275 449.4L285.45 440.6L295.6 440.6L314.15 425.05L314.15 424.9L323.75 416.75L342.3 424.1L437.1 344.6L440.35 324.4L440.75 333.2L437.5 353.25" />
<path style="fill:#7F7F7F;fill-opacity:1" d="M140.25,552.6L199.3 576L203.9 548.5L212.7 546.1L219.35 504.65L234.9 491.5L235.35 500.3L219.75 513.3L213.1 554.75L204.2 557.2L199.7 584.8L140.7 561.4L140.25 552.6" />
<path style="fill:#7F7F7F;fill-opacity:1" d="M830.05,381.55L830.45 390.25L830.15 390.75L830.3 392.4L828.15 397L757.45 456.3L480.3 629.75L424.1 611.2L252 611.2L238.45 603.5L195.8 602.15L48.45 543.65L48.5 541.1L93.35 558.85L93.3 555.3L195.65 595.9L197.3 595.9L197 590.75L216.9 590.35L219.35 579.95L219.75 588.75L218.8 596.6L237.2 597.15L237.2 593.2L239 593.05L245.6 555.3L245.5 551.75L246.3 551.75L247.1 547.15L247.25 551.75L302.35 553.65L302.75 562.45L245.9 560.55L245.9 559.6L239.95 593.6L251.7 600.25L264.7 600.25L271.1 563.3L271.5 572.1L265.1 608.9L295.7 609.05L295.3 600.25L423.8 600.4L433.3 603.65L485.7 559.6L540.4 581.3L604.15 541.35L604.6 549.75L629.9 533.9L398.9 525.5L398.5 516.7L629.9 525.25L672.15 498.95L672.55 507.2L757.3 454.15L777.9 436.8L614.45 425.55L614.05 416.9L777.75 428.15L827.85 386.05L830.05 381.55M486.1,568.3L433.7 612.3L480.15 627.6L540.4 589.95L486.1 568.3" />
<path style="fill:#9F9F9F;fill-opacity:1" d="M595.8,483.8L598.35 468.5L598.75 477.3L596.2 492.6L595.8 483.8" />
</g>
</svg>
