<?xml version="1.0" encoding="utf-8"?>
<svg version="1.1" id="Layer_1"
xmlns="http://www.w3.org/2000/svg"
xmlns:xlink="http://www.w3.org/1999/xlink"
xmlns:author="http://www.sothink.com"
width="1007px" height="543px"
xml:space="preserve">
<g id="50" transform="matrix(1, 0, 0, 1, -20.35, -56.05)">
<path style="fill:#C4C4C4;fill-opacity:1" d="M695.75,71.3L647.3 112.05L646.6 96.7L695.15 56.05L695.75 71.3" />
<path style="fill:#C4C4C4;fill-opacity:1" d="M711.9,78.65L712.6 94L677.1 123.75L676.4 108.4L711.9 78.65" />
<path style="fill:#8F8F8F;fill-opacity:1" d="M677.1,123.75L647.3 112.05L646.6 96.7L676.4 108.4L677.1 123.75" />
<path style="fill:#8E8E8E;fill-opacity:1" d="M903.25,120.15L903.85 135.4L893.1 131.2L892.4 115.85L903.25 120.15" />
<path style="fill:#C4C4C4;fill-opacity:1" d="M915.1,126.05L903.85 135.4L903.25 120.15L914.4 110.75L915.1 126.05" />
<path style="fill:#C4C4C4;fill-opacity:1" d="M696.05,133.3L709.9 121.75L710.6 137L696.75 148.55L696.05 133.3" />
<path style="fill:#B8B8B8;fill-opacity:1" d="M696.25,133.3L738.5 128.1L739.2 143.3L696.95 148.55L696.25 133.3" />
<path style="fill:#B8B8B8;fill-opacity:1" d="M696.75,148.55L655.65 153.65L654.95 138.3L696.05 133.3L696.75 148.55" />
<path style="fill:#C4C4C4;fill-opacity:1" d="M654.95,138.3L655.65 153.65L648.9 159.25L648.2 144L654.95 138.3" />
<path style="fill:#B8B8B8;fill-opacity:1" d="M741,138.9L741.7 154.15L681.2 161.55L680.5 146.35L741 138.9" />
<path style="fill:#C5C5C5;fill-opacity:1" d="M680.5,146.35L681.2 161.55L672.7 168.7L672 153.45L680.5 146.35" />
<path style="fill:#8E8E8E;fill-opacity:1" d="M672.7,168.7L648.9 159.25L648.2 144L672 153.45L672.7 168.7" />
<path style="fill:#C4C4C4;fill-opacity:1" d="M672,153.45L672.7 168.7L669 171.8L668.3 156.55L672 153.45" />
<path style="fill:#808080;fill-opacity:1" d="M688.15,156.55L688.85 171.9L685.85 160.95L685.15 145.75L688.15 156.55" />
<path style="fill:#B8B8B8;fill-opacity:1" d="M688.15,156.55L743.5 149.85L744.2 165.1L688.85 171.9L688.15 156.55" />
<path style="fill:#C5C5C5;fill-opacity:1" d="M669,171.8L654.85 183.55L654.15 168.3L668.3 156.55L669 171.8" />
<path style="fill:#898989;fill-opacity:1" d="M496.5,169.1L508.45 175.1L509.05 190.35L497.1 184.35L496.5 169.1" />
<path style="fill:#808080;fill-opacity:1" d="M691.05,167.3L691.75 182.55L688.85 171.9L688.15 156.55L691.05 167.3" />
<path style="fill:#B8B8B8;fill-opacity:1" d="M691.05,167.3L746.1 160.45L746.7 175.8L691.75 182.55L691.05 167.3" />
<path style="fill:#B8B8B8;fill-opacity:1" d="M742.2,187.45L741.5 172.1L748.6 171.3L749.2 186.55L742.2 187.45" />
<path style="fill:#B8B8B8;fill-opacity:1" d="M772.45,172L773.1 187.35L768.95 187.85L768.25 172.5L772.45 172" />
<path style="fill:#808080;fill-opacity:1" d="M747.8,97L768.25 172.5L768.95 187.85L748.5 112.25L747.8 97" />
<path style="fill:#808080;fill-opacity:1" d="M693.95,177.9L694.65 193.25L691.75 182.55L691.05 167.3L693.95 177.9" />
<path style="fill:#B8B8B8;fill-opacity:1" d="M741.5,172.1L742.2 187.45L694.65 193.25L693.95 177.9L741.5 172.1" />
<path style="fill:#808080;fill-opacity:1" d="M512.25,189.25L512.95 204.5L509.05 190.35L508.45 175.1L512.25 189.25" />
<path style="fill:#808080;fill-opacity:1" d="M775.6,183.45L776.2 198.7L773.1 187.35L772.45 172L775.6 183.45" />
<path style="fill:#B8B8B8;fill-opacity:1" d="M895.5,178.5L920.4 175.4L921.1 190.75L896.1 193.75L895.5 178.5" />
<path style="fill:#808080;fill-opacity:1" d="M879.9,133.9L879.2 118.65L895.5 178.5L896.1 193.75L879.9 133.9" />
<path style="fill:#A8A8A8;fill-opacity:1" d="M952.3,140.3L952.9 155.65L941.35 191.85L940.65 176.6L952.3 140.3" />
<path style="fill:#A9A9A9;fill-opacity:1" d="M940.65,176.6L941.35 191.85L921.1 190.75L920.4 175.4L940.65 176.6" />
<path style="fill:#B8B8B8;fill-opacity:1" d="M561.2,193.85L583.35 191.15L584.05 206.5L561.9 209.2L561.2 193.85" />
<path style="fill:#C5C5C5;fill-opacity:1" d="M654.15,168.3L654.85 183.55L626.75 207L626.05 191.65L654.15 168.3" />
<path style="fill:#C4C4C4;fill-opacity:1" d="M648.2,144L648.9 159.25L589.85 208.8L589.25 193.55L648.2 144" />
<path style="fill:#8E8E8E;fill-opacity:1" d="M589.25,193.55L589.85 208.8L584.05 206.5L583.35 191.15L589.25 193.55" />
<path style="fill:#B8B8B8;fill-opacity:1" d="M895.5,178.5L896.1 193.75L874.55 196.35L873.85 181.15L895.5 178.5" />
<path style="fill:#808080;fill-opacity:1" d="M854.8,111.45L873.85 181.15L874.55 196.35L855.5 126.65L854.8 111.45" />
<path style="fill:#AFAFAF;fill-opacity:1" d="M981.35,148.95L981.95 164.3L969.05 193.45L968.35 178.1L981.35 148.95" />
<path style="fill:#A9A9A9;fill-opacity:1" d="M968.35,178.1L969.05 193.45L941.35 191.85L940.65 176.6L968.35 178.1" />
<path style="fill:#808080;fill-opacity:1" d="M827.05,103.1L849.1 184.15L849.8 199.5L827.75 118.45L827.05 103.1" />
<path style="fill:#B8B8B8;fill-opacity:1" d="M873.85,181.15L874.55 196.35L849.8 199.5L849.1 184.15L873.85 181.15" />
<path style="fill:#A3A3A3;fill-opacity:1" d="M1018.25,177L1018.95 192.25L1012.25 191.35L1011.55 176.1L1018.25 177" />
<path style="fill:#B4B4B4;fill-opacity:1" d="M1026.5,162.35L1027.2 177.6L1018.95 192.25L1018.25 177L1026.5 162.35" />
<path style="fill:#808080;fill-opacity:1" d="M800.75,98.3L825 187.15L825.7 202.4L801.45 113.55L800.75 98.3" />
<path style="fill:#8E8E8E;fill-opacity:1" d="M821,185.55L825 187.15L825.7 202.4L821.7 200.8L821 185.55" />
<path style="fill:#B8B8B8;fill-opacity:1" d="M849.1,184.15L849.8 199.5L825.7 202.4L825 187.15L849.1 184.15" />
<path style="fill:#C4C4C4;fill-opacity:1" d="M731.45,191.65L743.5 181.55L744.2 196.75L732.15 206.9L731.45 191.65" />
<path style="fill:#8E8E8E;fill-opacity:1" d="M790.3,189.25L791.05 204.6L776.2 198.7L775.6 183.45L790.3 189.25" />
<path style="fill:#B8B8B8;fill-opacity:1" d="M821,185.55L821.7 200.8L791.05 204.6L790.3 189.25L821 185.55" />
<path style="fill:#A9A9A9;fill-opacity:1" d="M1010.65,195.75L969.05 193.45L968.35 178.1L1009.95 180.55L1010.65 195.75" />
<path style="fill:#ACACAC;fill-opacity:1" d="M1011.55,176.1L1012.25 191.35L1010.65 195.75L1009.95 180.55L1011.55 176.1" />
<path style="fill:#808080;fill-opacity:1" d="M698.65,195.45L699.35 210.8L694.65 193.25L693.95 177.9L698.65 195.45" />
<path style="fill:#B8B8B8;fill-opacity:1" d="M731.45,191.65L732.15 206.9L699.35 210.8L698.65 195.45L731.45 191.65" />
<path style="fill:#B8B8B8;fill-opacity:1" d="M679.75,213.2L679.05 197.85L698.5 195.55L699.2 211L679.75 213.2" />
<path style="fill:#808080;fill-opacity:1" d="M679.5,197.75L680.2 213.1L669 171.8L668.3 156.55L679.5 197.75" />
<path style="fill:#8E8E8E;fill-opacity:1" d="M549.25,203.9L549.95 219.25L512.95 204.5L512.25 189.25L549.25 203.9" />
<path style="fill:#C4C4C4;fill-opacity:1" d="M561.2,193.85L561.9 209.2L549.95 219.25L549.25 203.9L561.2 193.85" />
<path style="fill:#808080;fill-opacity:1" d="M663.45,215.1L654.85 183.65L654.15 168.3L662.75 199.9L663.45 215.1" />
<path style="fill:#B8B8B8;fill-opacity:1" d="M679.5,197.75L680.2 213.1L663.45 215.1L662.75 199.9L679.5 197.75" />
<path style="fill:#808080;fill-opacity:1" d="M628.85,203.1L629.45 218.35L626.75 207L626.05 191.65L628.85 203.1" />
<path style="fill:#B8B8B8;fill-opacity:1" d="M663.45,215.1L629.65 219.15L629.05 203.9L662.75 199.9L663.45 215.1" />
<path style="fill:#8E8E8E;fill-opacity:1" d="M617.55,204.4L618.25 219.75L590.15 208.6L589.45 193.25L617.55 204.4" />
<path style="fill:#B8B8B8;fill-opacity:1" d="M628.85,203.1L629.45 218.35L618.25 219.75L617.55 204.4L628.85 203.1" />
<path style="fill:#808080;fill-opacity:1" d="M629.25,215.6L629.95 230.85L627.85 223.25L627.15 208L629.25 215.6" />
<path style="fill:#B8B8B8;fill-opacity:1" d="M648.1,213.3L648.8 228.55L629.95 230.85L629.25 215.6L648.1 213.3" />
<path style="fill:#808080;fill-opacity:1" d="M909.35,207.4L910.05 222.65L907.65 208.3L906.95 193.05L909.35 207.4" />
<path style="fill:#C4C4C4;fill-opacity:1" d="M536,215L536.7 230.25L523.55 241.3L522.95 225.95L536 215" />
<path style="fill:#A3A3A3;fill-opacity:1" d="M1006.45,197.55L1007.05 212.8L1005.45 220.35L1004.75 205.1L1006.45 197.55" />
<path style="fill:#8E8E8E;fill-opacity:1" d="M471.6,208.4L523.75 229.15L524.45 244.4L472.3 223.75L471.6 208.4" />
<path style="fill:#C4C4C4;fill-opacity:1" d="M749.8,226.05L737.35 236.4L736.75 221.15L749.1 210.7L749.8 226.05" />
<path style="fill:#8E8E8E;fill-opacity:1" d="M928.9,215.1L929.6 230.45L910.05 222.65L909.35 207.4L928.9 215.1" />
<path style="fill:#8E8E8E;fill-opacity:1" d="M595.65,230.05L596.4 245.3L575.4 237L574.7 221.75L595.65 230.05" />
<path style="fill:#C4C4C4;fill-opacity:1" d="M616.55,212.6L617.25 227.85L596.4 245.3L595.65 230.05L616.55 212.6" />
<path style="fill:#808080;fill-opacity:1" d="M911.45,221.85L912.15 237.2L910.05 222.65L909.35 207.4L911.45 221.85" />
<path style="fill:#ACACAC;fill-opacity:1" d="M975.25,196.95L975.95 212.2L967.2 234.9L966.6 219.65L975.25 196.95" />
<path style="fill:#C4C4C4;fill-opacity:1" d="M525.25,234.4L525.9 249.6L518.45 255.85L517.75 240.6L525.25 234.4" />
<path style="fill:#8E8E8E;fill-opacity:1" d="M518.45,255.85L461.1 233.05L460.4 217.85L517.75 240.6L518.45 255.85" />
<path style="fill:#ADADAD;fill-opacity:1" d="M956.1,195.35L956.8 210.6L945.95 236.9L945.25 221.65L956.1 195.35" />
<path style="fill:#8E8E8E;fill-opacity:1" d="M945.25,221.65L945.95 236.9L929.6 230.45L928.9 215.1L945.25 221.65" />
<path style="fill:#8E8E8E;fill-opacity:1" d="M513.15,260.35L455.8 237.6L455.1 222.35L512.45 245.1L513.15 260.35" />
<path style="fill:#C4C4C4;fill-opacity:1" d="M517.75,240.6L518.45 255.85L513.15 260.35L512.45 245.1L517.75 240.6" />
<path style="fill:#808080;fill-opacity:1" d="M881.2,230.65L881.9 246L872.85 212.5L872.15 197.25L881.2 230.65" />
<path style="fill:#ACACAC;fill-opacity:1" d="M966.6,219.65L967.2 234.9L963.8 244L963.1 228.75L966.6 219.65" />
<path style="fill:#8E8E8E;fill-opacity:1" d="M963.1,228.75L963.8 244L945.95 236.9L945.25 221.65L963.1 228.75" />
<path style="fill:#808080;fill-opacity:1" d="M839.65,201.2L848.8 235L849.5 250.2L840.35 216.55L839.65 201.2" />
<path style="fill:#8E8E8E;fill-opacity:1" d="M398.6,256.35L399.3 271.6L394.5 269.7L393.9 254.35L398.6 256.35" />
<path style="fill:#C4C4C4;fill-opacity:1" d="M512.45,245.1L513.15 260.35L503.3 268.55L502.6 253.35L512.45 245.1" />
<path style="fill:#8E8E8E;fill-opacity:1" d="M1000.1,247.9L967.2 234.9L966.6 219.65L999.4 232.65L1000.1 247.9" />
<path style="fill:#BABABA;fill-opacity:1" d="M1015.95,226.05L1000.1 247.9L999.4 232.65L1015.25 210.8L1015.95 226.05" />
<path style="fill:#808080;fill-opacity:1" d="M715.6,208.8L725.45 244.9L726.15 260.15L716.3 224.05L715.6 208.8" />
<path style="fill:#B8B8B8;fill-opacity:1" d="M725.45,244.9L726.15 260.15L701.65 263.15L700.95 247.8L725.45 244.9" />
<path style="fill:#808080;fill-opacity:1" d="M688.15,212.1L697.95 248.2L698.55 263.55L688.85 227.35L688.15 212.1" />
<path style="fill:#B9B9B9;fill-opacity:1" d="M700.95,247.8L701.65 263.15L698.55 263.55L697.95 248.2L700.95 247.8" />
<path style="fill:#8E8E8E;fill-opacity:1" d="M994.2,256.15L963.8 244L963.1 228.75L993.5 240.8L994.2 256.15" />
<path style="fill:#BABABA;fill-opacity:1" d="M999.4,232.65L1000.1 247.9L994.2 256.15L993.5 240.8L999.4 232.65" />
<path style="fill:#808080;fill-opacity:1" d="M821.2,203.5L833.35 248L834.05 263.25L821.9 218.75L821.2 203.5" />
<path style="fill:#8E8E8E;fill-opacity:1" d="M501.2,279.2L421.1 247.4L420.4 232.05L500.6 263.95L501.2 279.2" />
<path style="fill:#C4C4C4;fill-opacity:1" d="M504.6,260.55L505.2 275.9L501.2 279.2L500.6 263.95L504.6 260.55" />
<path style="fill:#B8B8B8;fill-opacity:1" d="M745.8,253.75L746.5 269.1L746.2 269.1L745.6 253.85L745.8 253.75" />
<path style="fill:#808080;fill-opacity:1" d="M746.2,269.1L737.35 236.4L736.75 221.15L745.6 253.85L746.2 269.1" />
<path style="fill:#808080;fill-opacity:1" d="M621.95,235.6L621.25 220.35L632.2 261.05L632.9 276.3L621.95 235.6" />
<path style="fill:#8E8E8E;fill-opacity:1" d="M632.2,261.05L632.9 276.3L589.85 259.25L589.15 244L632.2 261.05" />
<path style="fill:#808080;fill-opacity:1" d="M700.85,259.05L701.55 274.4L698.55 263.55L697.95 248.2L700.85 259.05" />
<path style="fill:#8E8E8E;fill-opacity:1" d="M701.05,259.15L701.75 274.5L701.55 274.4L700.85 259.05L701.05 259.15" />
<path style="fill:#B8B8B8;fill-opacity:1" d="M746.2,269.1L701.75 274.5L701.05 259.15L745.6 253.85L746.2 269.1" />
<path style="fill:#B8B8B8;fill-opacity:1" d="M700.85,259.05L701.55 274.4L680.4 276.9L679.7 261.65L700.85 259.05" />
<path style="fill:#808080;fill-opacity:1" d="M667.1,214.7L679.7 261.65L680.4 276.9L667.8 229.95L667.1 214.7" />
<path style="fill:#B8B8B8;fill-opacity:1" d="M679.7,261.65L680.4 276.9L661.85 279.2L661.15 263.85L679.7 261.65" />
<path style="fill:#808080;fill-opacity:1" d="M661.85,279.2L649.2 232.25L648.5 217.05L661.15 263.85L661.85 279.2" />
<path style="fill:#8E8E8E;fill-opacity:1" d="M912.15,237.2L911.45 221.85L982.35 250.2L982.95 265.45L912.15 237.2" />
<path style="fill:#C5C5C5;fill-opacity:1" d="M982.35,250.2L993.5 240.8L994.2 256.15L982.95 265.45L982.35 250.2" />
<path style="fill:#8E8E8E;fill-opacity:1" d="M373.45,277.9L374.15 293.15L370.15 291.65L369.45 276.3L373.45 277.9" />
<path style="fill:#8E8E8E;fill-opacity:1" d="M644.5,265.95L645.2 281.2L632.9 276.3L632.2 261.05L644.5 265.95" />
<path style="fill:#B8B8B8;fill-opacity:1" d="M661.85,279.2L645.2 281.2L644.5 265.95L661.15 263.85L661.85 279.2" />
<path style="fill:#8E8E8E;fill-opacity:1" d="M512.15,273.2L512.85 288.55L502 284.2L501.3 269L512.15 273.2" />
<path style="fill:#C4C4C4;fill-opacity:1" d="M523.35,263.75L523.95 279.1L512.85 288.55L512.15 273.2L523.35 263.75" />
<path style="fill:#C4C4C4;fill-opacity:1" d="M834.05,263.25L820.2 274.9L819.5 259.65L833.35 248L834.05 263.25" />
<path style="fill:#C4C4C4;fill-opacity:1" d="M849.5,250.2L820.2 274.9L819.5 259.65L848.8 235L849.5 250.2" />
<path style="fill:#C4C4C4;fill-opacity:1" d="M501.2,279.2L487.95 290.35L487.25 275.1L500.6 263.95L501.2 279.2" />
<path style="fill:#8E8E8E;fill-opacity:1" d="M487.95,290.35L407.75 258.55L407.15 243.3L487.25 275.1L487.95 290.35" />
<path style="fill:#8E8E8E;fill-opacity:1" d="M610.5,285.4L574.7 271.3L574 256.05L609.8 270.2L610.5 285.4" />
<path style="fill:#B8B8B8;fill-opacity:1" d="M644.5,265.95L645.2 281.2L610.5 285.4L609.8 270.2L644.5 265.95" />
<path style="fill:#C4C4C4;fill-opacity:1" d="M819.5,259.65L820.2 274.9L817.1 277.5L816.5 262.25L819.5 259.65" />
<path style="fill:#B8B8B8;fill-opacity:1" d="M816.5,262.25L817.1 277.5L789.7 280.8L789.1 265.55L816.5 262.25" />
<path style="fill:#808080;fill-opacity:1" d="M774.9,213.1L789.1 265.55L789.7 280.8L775.5 228.35L774.9 213.1" />
<path style="fill:#8E8E8E;fill-opacity:1" d="M778.8,266.85L779.4 282.1L746.5 269.1L745.8 253.75L778.8 266.85" />
<path style="fill:#B8B8B8;fill-opacity:1" d="M789.1,265.55L789.7 280.8L779.4 282.1L778.8 266.85L789.1 265.55" />
<path style="fill:#C4C4C4;fill-opacity:1" d="M834.55,270L881.2 230.65L881.9 246L835.25 285.2L834.55 270" />
<path style="fill:#8D8D8D;fill-opacity:1" d="M835.25,285.2L817.1 277.5L816.5 262.25L834.55 270L835.25 285.2" />
<path style="fill:#C4C4C4;fill-opacity:1" d="M487.25,275.1L487.95 290.35L474.65 301.55L474.05 286.2L487.25 275.1" />
<path style="fill:#8E8E8E;fill-opacity:1" d="M474.65,301.55L399.3 271.6L398.6 256.35L474.05 286.2L474.65 301.55" />
<path style="fill:#8E8E8E;fill-opacity:1" d="M447.75,324.05L372.85 294.25L372.15 279L447.15 308.8L447.75 324.05" />
<path style="fill:#8E8E8E;fill-opacity:1" d="M378.45,292.85L379.15 308.1L363.5 301.85L362.8 286.65L378.45 292.85" />
<path style="fill:#8E8E8E;fill-opacity:1" d="M589.75,300.35L545.35 282.8L544.75 267.55L589.05 285.1L589.75 300.35" />
<path style="fill:#C4C4C4;fill-opacity:1" d="M378.45,292.85L379.15 308.1L374.15 312.3L373.55 297.05L378.45 292.85" />
<path style="fill:#8E8E8E;fill-opacity:1" d="M343.45,302.65L344.05 317.9L340.85 316.6L340.15 301.35L343.45 302.65" />
<path style="fill:#8E8E8E;fill-opacity:1" d="M461.2,312.8L385.9 282.9L385.2 267.55L460.6 297.55L461.2 312.8" />
<path style="fill:#C4C4C4;fill-opacity:1" d="M474.05,286.2L474.65 301.55L461.2 312.8L460.6 297.55L474.05 286.2" />
<path style="fill:#C5C5C5;fill-opacity:1" d="M982.35,250.2L982.95 265.45L951.9 291.45L951.3 276.2L982.35 250.2" />
<path style="fill:#8F8F8F;fill-opacity:1" d="M951.9,291.45L867.35 258.35L866.65 243.1L951.3 276.2L951.9 291.45" />
<path style="fill:#8E8E8E;fill-opacity:1" d="M575.3,296.65L576 311.9L518.45 289.05L517.75 273.8L575.3 296.65" />
<path style="fill:#C4C4C4;fill-opacity:1" d="M589.75,300.35L576 311.9L575.3 296.65L589.05 285.1L589.75 300.35" />
<path style="fill:#C4C4C4;fill-opacity:1" d="M575.3,296.65L576 311.9L572.4 315L571.7 299.75L575.3 296.65" />
<path style="fill:#C4C4C4;fill-opacity:1" d="M460.6,297.55L461.2 312.8L447.75 324.05L447.15 308.8L460.6 297.55" />
<path style="fill:#8E8E8E;fill-opacity:1" d="M562.3,307.7L563 322.95L505.3 300.05L504.6 284.8L562.3 307.7" />
<path style="fill:#C4C4C4;fill-opacity:1" d="M571.7,299.75L572.4 315L563 322.95L562.3 307.7L571.7 299.75" />
<path style="fill:#8E8E8E;fill-opacity:1" d="M421,330.95L374.15 312.3L373.55 297.05L420.4 315.6L421 330.95" />
<path style="fill:#808080;fill-opacity:1" d="M421.4,318.1L422.1 333.45L421 330.95L420.4 315.6L421.4 318.1" />
<path style="fill:#B8B8B8;fill-opacity:1" d="M421.4,318.1L422.1 333.45L399.1 336.15L398.4 320.9L421.4 318.1" />
<path style="fill:#C4C4C4;fill-opacity:1" d="M447.15,308.8L447.75 324.05L434.9 334.95L434.2 319.6L447.15 308.8" />
<path style="fill:#B8B8B8;fill-opacity:1" d="M434.2,319.6L434.9 334.95L428 335.75L427.3 320.5L434.2 319.6" />
<path style="fill:#8E8E8E;fill-opacity:1" d="M427.3,320.5L428 335.75L422.1 333.45L421.4 318.1L427.3 320.5" />
<path style="fill:#8E8E8E;fill-opacity:1" d="M393.2,325.35L393.8 340.6L341.75 319.9L341.05 304.7L393.2 325.35" />
<path style="fill:#C4C4C4;fill-opacity:1" d="M398.4,320.9L399.1 336.15L393.8 340.6L393.2 325.35L398.4 320.9" />
<path style="fill:#C4C4C4;fill-opacity:1" d="M562.3,307.7L563 322.95L548.55 335.05L547.95 319.8L562.3 307.7" />
<path style="fill:#8E8E8E;fill-opacity:1" d="M548.55,335.05L491 312.2L490.3 296.85L547.95 319.8L548.55 335.05" />
<path style="fill:#8E8E8E;fill-opacity:1" d="M452.45,329.05L453.15 344.4L452.75 344.2L452.05 328.95L452.45 329.05" />
<path style="fill:#C4C4C4;fill-opacity:1" d="M547.95,319.8L548.55 335.05L536.2 345.5L535.5 330.15L547.95 319.8" />
<path style="fill:#8E8E8E;fill-opacity:1" d="M536.2,345.5L478.55 322.55L477.85 307.3L535.5 330.15L536.2 345.5" />
<path style="fill:#C4C4C4;fill-opacity:1" d="M375.95,339.15L392.7 325.15L393.4 340.4L376.55 354.5L375.95 339.15" />
<path style="fill:#8E8E8E;fill-opacity:1" d="M325.1,319L375.95 339.15L376.55 354.5L325.8 334.25L325.1 319" />
<path style="fill:#8E8E8E;fill-opacity:1" d="M722.25,315.4L747.4 325.45L748.1 340.7L722.85 330.65L722.25 315.4" />
<path style="fill:#C4C4C4;fill-opacity:1" d="M786.1,292.95L786.8 308.2L748.1 340.7L747.4 325.45L786.1 292.95" />
<path style="fill:#C4C4C4;fill-opacity:1" d="M376.75,339.6L377.45 354.8L372.15 359.25L371.55 344L376.75 339.6" />
<path style="fill:#C6C6C6;fill-opacity:1" d="M722.85,330.65L700.05 346.8L699.45 331.55L722.25 315.4L722.85 330.65" />
<path style="fill:#8E8E8E;fill-opacity:1" d="M510.25,367.35L453.15 344.4L452.45 329.05L509.65 352L510.25 367.35" />
<path style="fill:#808080;fill-opacity:1" d="M453.15,344.4L452.45 329.05L456.6 344L457.3 359.25L453.15 344.4" />
<path style="fill:#8E8E8E;fill-opacity:1" d="M522.95,356.6L465.3 333.65L464.6 318.4L522.25 341.4L522.95 356.6" />
<path style="fill:#C4C4C4;fill-opacity:1" d="M522.25,341.4L535.5 330.15L536.2 345.5L522.95 356.6L522.25 341.4" />
<path style="fill:#B9B9B9;fill-opacity:1" d="M373.65,351.7L374.25 366.95L367.75 367.75L367.15 352.5L373.65 351.7" />
<path style="fill:#8E8E8E;fill-opacity:1" d="M311.45,330.45L367.15 352.5L367.75 367.75L312.15 345.7L311.45 330.45" />
<path style="fill:#C4C4C4;fill-opacity:1" d="M522.25,341.4L522.95 356.6L510.25 367.35L509.65 352L522.25 341.4" />
<path style="fill:#C7C7C7;fill-opacity:1" d="M704.5,334.25L705.2 349.5L684.75 363.65L684 348.4L704.5 334.25" />
<path style="fill:#C7C7C7;fill-opacity:1" d="M690.15,351.2L690.85 366.45L685.15 370.25L684.4 355L690.15 351.2" />
<path style="fill:#C4C4C4;fill-opacity:1" d="M380.85,361.45L381.55 376.7L368.05 388L367.45 372.75L380.85 361.45" />
<path style="fill:#8E8E8E;fill-opacity:1" d="M295.2,344.1L367.45 372.75L368.05 388L295.95 359.35L295.2 344.1" />
<path style="fill:#C4C4C4;fill-opacity:1" d="M513.25,366.85L513.85 382.1L510.65 384.8L510.05 369.55L513.25 366.85" />
<path style="fill:#8E8E8E;fill-opacity:1" d="M510.65,384.8L453.75 362.25L453.05 346.9L510.05 369.55L510.65 384.8" />
<path style="fill:#808080;fill-opacity:1" d="M410.45,375L411.15 390.2L408.95 382.3L408.25 367.05L410.45 375" />
<path style="fill:#C4C4C4;fill-opacity:1" d="M367.45,372.75L368.05 388L354.9 399.05L354.2 383.8L367.45 372.75" />
<path style="fill:#8E8E8E;fill-opacity:1" d="M282,355.1L354.2 383.8L354.9 399.05L282.7 370.45L282 355.1" />
<path style="fill:#8E8E8E;fill-opacity:1" d="M377.15,385.6L377.85 400.95L366.95 396.55L366.2 381.3L377.15 385.6" />
<path style="fill:#C4C4C4;fill-opacity:1" d="M385.2,379L385.9 394.25L377.85 400.95L377.15 385.6L385.2 379" />
<path style="fill:#8E8E8E;fill-opacity:1" d="M554.05,383.1L554.75 398.35L513.85 382.1L513.25 366.85L554.05 383.1" />
<path style="fill:#C4C4C4;fill-opacity:1" d="M558.15,379.7L558.85 394.95L554.75 398.35L554.05 383.1L558.15 379.7" />
<path style="fill:#8E8E8E;fill-opacity:1" d="M487.65,386.6L488.35 401.85L432.3 379.6L431.6 364.35L487.65 386.6" />
<path style="fill:#C4C4C4;fill-opacity:1" d="M501.1,391L488.35 401.85L487.65 386.6L500.4 375.8L501.1 391" />
<path style="fill:#C4C4C4;fill-opacity:1" d="M354.2,383.8L354.9 399.05L341.55 410.3L340.85 394.95L354.2 383.8" />
<path style="fill:#8E8E8E;fill-opacity:1" d="M268.75,366.35L340.85 394.95L341.55 410.3L269.35 381.6L268.75 366.35" />
<path style="fill:#8E8E8E;fill-opacity:1" d="M410.45,375L472.3 399.55L473.05 414.9L411.15 390.2L410.45 375" />
<path style="fill:#C4C4C4;fill-opacity:1" d="M487.65,386.6L488.35 401.85L473.05 414.9L472.3 399.55L487.65 386.6" />
<path style="fill:#C4C4C4;fill-opacity:1" d="M327.5,406.15L340.85 394.95L341.55 410.3L328.2 421.5L327.5 406.15" />
<path style="fill:#8E8E8E;fill-opacity:1" d="M327.5,406.15L328.2 421.5L256 392.85L255.3 377.6L327.5 406.15" />
<path style="fill:#8E8E8E;fill-opacity:1" d="M384.8,382.9L434.9 402.85L435.6 418.1L385.4 398.25L384.8 382.9" />
<path style="fill:#C4C4C4;fill-opacity:1" d="M599.1,394.85L599.8 410.2L594.85 414.3L594.15 399.05L599.1 394.85" />
<path style="fill:#888888;fill-opacity:1" d="M558.15,379.7L594.15 399.05L594.85 414.3L558.85 394.95L558.15 379.7" />
<path style="fill:#C4C4C4;fill-opacity:1" d="M327.5,406.15L328.2 421.5L315.9 431.75L315.2 416.5L327.5 406.15" />
<path style="fill:#8E8E8E;fill-opacity:1" d="M243.1,387.8L315.2 416.5L315.9 431.75L243.8 403.15L243.1 387.8" />
<path style="fill:#8E8E8E;fill-opacity:1" d="M372.65,393.15L422.9 413L423.5 428.35L373.35 408.35L372.65 393.15" />
<path style="fill:#C4C4C4;fill-opacity:1" d="M434.9,402.85L435.6 418.1L423.5 428.35L422.9 413L434.9 402.85" />
<path style="fill:#878787;fill-opacity:1" d="M618.05,405.25L618.75 420.5L599.8 410.2L599.1 394.85L618.05 405.25" />
<path style="fill:#C6C6C6;fill-opacity:1" d="M631.45,395.45L632.2 410.8L618.75 420.5L618.05 405.25L631.45 395.45" />
<path style="fill:#C4C4C4;fill-opacity:1" d="M315.2,416.5L315.9 431.75L309.15 437.45L308.45 422.2L315.2 416.5" />
<path style="fill:#C3C3C3;fill-opacity:1" d="M308.45,422.2L309.15 437.45L298.05 440.95L297.45 425.7L308.45 422.2" />
<path style="fill:#8E8E8E;fill-opacity:1" d="M229.95,398.85L297.45 425.7L298.05 440.95L230.55 414.2L229.95 398.85" />
<path style="fill:#C4C4C4;fill-opacity:1" d="M472.3,399.55L473.05 414.9L446.45 437.35L445.75 422.1L472.3 399.55" />
<path style="fill:#8E8E8E;fill-opacity:1" d="M445.75,422.1L446.45 437.35L423.5 428.35L422.9 413L445.75 422.1" />
<path style="fill:#C4C4C4;fill-opacity:1" d="M433.8,432.35L445.75 422.1L446.45 437.35L434.4 447.6L433.8 432.35" />
<path style="fill:#8E8E8E;fill-opacity:1" d="M360.5,403.25L433.8 432.35L434.4 447.6L361.2 418.5L360.5 403.25" />
<path style="fill:#888888;fill-opacity:1" d="M683.8,438.45L632.2 410.8L631.45 395.45Q657.35 409.35 683.1 423.2L683.8 438.45" />
<path style="fill:#C7C7C7;fill-opacity:1" d="M742.8,399.35L683.8 438.45L683.1 423.2L742.2 384.1L742.8 399.35" />
<path style="fill:#808080;fill-opacity:1" d="M328.3,439.15L329 454.5L327.1 447.1L326.5 431.85L328.3 439.15" />
<path style="fill:#C4C4C4;fill-opacity:1" d="M273.05,446.4L297.55 425.7L298.15 440.95L273.65 461.7L273.05 446.4" />
<path style="fill:#8E8E8E;fill-opacity:1" d="M347.65,414L421.1 443.15L421.7 458.4L348.35 429.35L347.65 414" />
<path style="fill:#C4C4C4;fill-opacity:1" d="M433.8,432.35L434.4 447.6L421.7 458.4L421.1 443.15L433.8 432.35" />
<path style="fill:#8E8E8E;fill-opacity:1" d="M227.15,473.55L149.5 442.75L148.8 427.4L226.45 458.3L227.15 473.55" />
<path style="fill:#C6C6C6;fill-opacity:1" d="M194.85,453.5L195.45 468.85L182.4 474.45L181.7 459.2L194.85 453.5" />
<path style="fill:#C1C1C1;fill-opacity:1" d="M273.65,461.7L227.15 473.55L226.45 458.3L273.05 446.4L273.65 461.7" />
<path style="fill:#8E8E8E;fill-opacity:1" d="M214.3,461.4L215 476.65L195.45 468.85L194.85 453.5L214.3 461.4" />
<path style="fill:#C1C1C1;fill-opacity:1" d="M226.45,458.3L227.15 473.55L215 476.65L214.3 461.4L226.45 458.3" />
<path style="fill:#C4C4C4;fill-opacity:1" d="M421.7,458.4L408.55 469.55L407.85 454.3L421.1 443.15L421.7 458.4" />
<path style="fill:#8E8E8E;fill-opacity:1" d="M334.45,425.1L407.85 454.3L408.55 469.55L335.15 440.45L334.45 425.1" />
<path style="fill:#C4C4C4;fill-opacity:1" d="M407.85,454.3L408.55 469.55L395.3 480.8L394.7 465.55L407.85 454.3" />
<path style="fill:#8E8E8E;fill-opacity:1" d="M328.3,439.15L394.7 465.55L395.3 480.8L329 454.5L328.3 439.15" />
<path style="fill:#808080;fill-opacity:1" d="M297.15,469.95L297.85 485.2L296.85 481.5L296.15 466.25L297.15 469.95" />
<path style="fill:#C7C7C7;fill-opacity:1" d="M127.65,483.7L181.7 459.2L182.4 474.45L128.25 499.05L127.65 483.7" />
<path style="fill:#8E8E8E;fill-opacity:1" d="M127.65,483.7L128.25 499.05L97.25 486.7L96.55 471.45L127.65 483.7" />
<path style="fill:#8E8E8E;fill-opacity:1" d="M314.8,450.6L381.15 476.95L381.85 492.2L315.5 465.85L314.8 450.6" />
<path style="fill:#C4C4C4;fill-opacity:1" d="M394.7,465.55L395.3 480.8L381.85 492.2L381.15 476.95L394.7 465.55" />
<path style="fill:#8E8E8E;fill-opacity:1" d="M271.15,502.55L251.1 494.5L250.4 479.25L270.45 487.2L271.15 502.55" />
<path style="fill:#C4C4C4;fill-opacity:1" d="M289.5,471.25L290.2 486.5L271.15 502.55L270.45 487.2L289.5 471.25" />
<path style="fill:#8E8E8E;fill-opacity:1" d="M298.25,464.45L354.4 486.7L355 502.05L298.95 479.65L298.25 464.45" />
<path style="fill:#808080;fill-opacity:1" d="M280.8,490.1L281.5 505.35L278.9 501.15L278.15 485.8L280.8 490.1" />
<path style="fill:#C4C4C4;fill-opacity:1" d="M354.4,486.7L355 502.05L347.65 508.15L346.95 492.9L354.4 486.7" />
<path style="fill:#8E8E8E;fill-opacity:1" d="M294.5,472.15L346.95 492.9L347.65 508.15L295.2 487.4L294.5 472.15" />
<path style="fill:#C4C4C4;fill-opacity:1" d="M381.15,476.95L381.85 492.2L361.8 509.25L361.1 493.9L381.15 476.95" />
<path style="fill:#8E8E8E;fill-opacity:1" d="M361.1,493.9L361.8 509.25L351.4 505.05L350.7 489.8L361.1 493.9" />
<path style="fill:#838383;fill-opacity:1" d="M153.2,505.05L153.9 520.3L134.65 506.55L133.95 491.3L153.2 505.05" />
<path style="fill:#C6C6C6;fill-opacity:1" d="M153.2,505.05L223 474.55L223.7 489.8L153.9 520.3L153.2 505.05" />
<path style="fill:#C6C6C6;fill-opacity:1" d="M259.9,504.05L209.3 525.8L208.6 510.45L259.2 488.8L259.9 504.05" />
<path style="fill:#C4C4C4;fill-opacity:1" d="M328.6,508.35L346.95 492.9L347.65 508.25L329.3 523.6L328.6 508.35" />
<path style="fill:#8E8E8E;fill-opacity:1" d="M310.55,510.55L311.25 525.9L274.55 511.05L273.85 495.8L310.55 510.55" />
<path style="fill:#B9B9B9;fill-opacity:1" d="M328.6,508.35L329.3 523.6L311.25 525.9L310.55 510.55L328.6 508.35" />
<path style="fill:#C6C6C6;fill-opacity:1" d="M275.55,512.15L221.7 535.65L221 520.4L274.85 496.9L275.55 512.15" />
<path style="fill:#818181;fill-opacity:1" d="M221,520.4L221.7 535.65L209.3 525.8L208.6 510.45L221 520.4" />
<path style="fill:#8E8E8E;fill-opacity:1" d="M83.3,583.35L84.05 598.6L21.05 573.65L20.35 558.4L83.3 583.35" />
<path style="fill:#C7C7C7;fill-opacity:1" d="M83.3,583.35L221 520.4L221.7 535.65Q152.9 567.1 84.05 598.6L83.3 583.35" />
</g>
</svg>
