<?xml version="1.0" encoding="utf-8"?>
<svg version="1.1" id="Layer_1"
xmlns="http://www.w3.org/2000/svg"
xmlns:xlink="http://www.w3.org/1999/xlink"
xmlns:author="http://www.sothink.com"
width="1012px" height="598px"
xml:space="preserve">
<g id="47" transform="matrix(1, 0, 0, 1, -17.75, -4.05)">
<path style="fill:none;stroke-width:5;stroke-linecap:butt;stroke-linejoin:miter;stroke-miterlimit:4;stroke:#00FEB5;stroke-opacity:1" d="M1026.5,162.35L912.15 128.5L915.1 126.05L914.4 110.75L903.65 106.5L892.4 115.85L892.7 122.65L803.75 96.2L800.75 98.3L784.1 91.65L747.8 97L748.5 112.25L748.8 113.15L735.35 114.75L733.75 107.9L725.45 108.9L709.9 121.95L709.9 121.75L689.25 113.55L720.25 87.95L719.6 72.7L716.1 71.4L716 67.3L644.3 28.8L639.1 33.2L635.6 31.8L630.95 35.6L625.35 33.3L611.1 45.35L592.45 38L598.6 32.8L543.75 11.05L538.5 15.45Q524.65 9.65 508.75 7.45Q477.15 3.2 458.8 18.55L434 39.45L430.6 38.1L390.7 71.6L396 73.7L359.2 104.6L349.3 100.6L329 117.55L490.9 181.95L496.8 176.7L497.1 184.35L509.05 190.35L511.05 197.55L505 202.7L492.4 197.65L483.05 198.9L478.35 202.8L324.9 141.8L208.6 239.5Q211.8 237.9 218.3 235.9Q228.85 232.55 236.05 232.85Q247.4 233.25 255 235.5Q259.5 236.8 273.85 242.6Q277.55 244.1 297.75 254.55Q310.45 261.15 322.8 263.35Q349.1 267.95 368.05 267.35Q381.25 266.85 389.4 264.05L383.55 269L379.35 268.05L369.45 276.3L369.55 277.4Q358.5 277.6 341.15 274.4Q329 272.2 316.4 276.6L305.35 281.8L309.25 283.4L303.25 288.45L298.35 286.55Q293.7 289.15 289.7 292.55L286.8 295.15Q284.9 297.25 282.6 300.45Q280.6 303.25 280.5 303.65L286.7 306.2L281.3 310.7L277.35 309.2L268.25 319.7L259.5 327.45L264.25 329.35L257.6 334.85L251.4 332.45Q246.1 332.55 242.75 335.25Q235.15 341.7 248.8 358.25Q253.4 363.95 268.05 366.85L255.3 377.6L224.3 398.85L195.05 386.1L95.85 471.45L96.55 478.45L72.4 499.05L92.25 506.85L56.95 536.55L49.75 533.75L20.35 558.4L21.05 573.65L84.05 598.6Q152.9 567.1 221.7 535.65L275.55 512.15L275.55 511.45L311.25 525.9L326.8 523.6L342.65 508.25L342.65 508.15L344.65 505.05L358.4 509.25L380.15 492.2L501.1 391L500.7 382.4L502 381.3L510.65 384.8L513.85 382.1L554.75 398.35L558.85 394.95L594.85 414.3L599.8 410.2L618.75 420.5L632.2 410.8L683.8 438.45L742.8 399.35L742.2 384.1L691.85 358.75L705.2 349.5L704.9 343.4L722.85 330.65L748.1 340.7L786.8 308.2L786.1 292.95L730.75 271L746.2 269.1L746.5 269.1L779.4 282.1L817.1 277.5L835.25 285.2L867.35 258.25L867.35 258.35L951.9 291.45L994.2 256.15L1015.95 226.05L1015.25 210.8L1014.15 205.7L1006.75 205.2L1006.65 203.5L1008.35 195.65L1010.65 195.75L1012.25 191.35L1018.95 192.25L1027.2 177.6L1026.5 162.35M744.1,188.45L743.8 188.65L743.8 187.25L744.1 188.45M748.9,178.3L748.8 176.8L749.1 178.2L748.9 178.3M449.05,218.05L459.7 209.2L467.1 212.2L456.6 221.05L449.05 218.05M571.9,99.5L571.7 98.3M536.3,222.15L536.3 221.75L536.7 221.85L536.3 222.15M326.5,438.65L326.8 438.45L326.8 439.75L326.5 438.65M525.6,241.4L525.45 240.2L525.8 241.2L525.6 241.4M381.15,367.25L381.45 368.25L381.15 368.45L381.15 367.25M452.35,335.55L452.45 336.75L452.15 335.75L452.35 335.55M453.35,353.5L453.35 354L453.05 353.8L453.35 353.5" />
<path style="fill:none;stroke-width:5;stroke-linecap:butt;stroke-linejoin:miter;stroke-miterlimit:4;stroke:#00FEB5;stroke-opacity:1" d="M218.6,329.65Q216.6 331.35 210.8 331.45Q194.75 331.55 149.1 329.65L103.5 327.65L197.05 249.1L219.5 326.35Q220.3 328.15 218.6 329.65z" />
<path style="fill:none;stroke-width:5;stroke-linecap:butt;stroke-linejoin:miter;stroke-miterlimit:4;stroke:#00FEB5;stroke-opacity:1" d="M183.3,383.2L84.15 343.9L95.05 334.75L139.1 336.45L215.7 339.15Q224.8 339.4 226.75 343.9Q231.05 352.9 230.35 359.25Q229.75 364.95 225 368.85Q219.9 373.15 207.05 376.8Q191.45 380.7 183.3 383.2z" />
<path style="fill:none;stroke-width:5;stroke-linecap:butt;stroke-linejoin:miter;stroke-miterlimit:4;stroke:#00FEB5;stroke-opacity:1" d="M257.8,317.8L253.8 321.4Q244.1 329.65 237.75 328.85Q234.55 328.35 233.15 325.95L211.4 248.6L212.1 247.7L214.3 245.6Q222.4 239 234.65 239.3Q244.8 239.5 258.2 244.2Q265.05 246.6 270.45 249.3L304.25 266.85L304.65 268.15Q303.65 270.5 297.55 275.6Q292.7 279.6 283.3 286.3L280.6 288.45Q275.05 293.05 268.85 302.95Q262.15 313.6 257.8 317.8z" />
<path style="fill:#999999;fill-opacity:1" d="M543.75,11.05L598.6 32.8L592.45 38L611.1 45.35L625.35 33.3L630.95 35.6L635.6 31.8L645.6 35.7L567.7 100.8L571.5 104.6Q573.9 109 568.9 114.05L490.9 181.95L329 117.55L349.3 100.6L359.2 104.6L396 73.7L390.7 71.6L430.6 38.1L434 39.45L458.8 18.55Q477.15 3.2 508.75 7.45Q524.65 9.65 538.5 15.45L543.75 11.05" />
</g>
</svg>
