<?xml version="1.0" encoding="utf-8"?>
<svg version="1.1" id="Layer_1"
xmlns="http://www.w3.org/2000/svg"
xmlns:xlink="http://www.w3.org/1999/xlink"
xmlns:author="http://www.sothink.com"
width="197px" height="121px"
xml:space="preserve">
<g id="48" transform="matrix(1, 0, 0, 1, 0, 0)">
<path style="fill:#9DAD92;fill-opacity:1" d="M172.25,45L154.45 59.9Q152.45 61.4 146.85 62.15Q136.2 63.6 119 60.6Q112.85 59.5 106.5 56.2Q96.45 51 94.6 50.25L85.2 46.7Q81.4 45.6 75.75 45.4Q72.15 45.25 66.9 46.9Q63.65 47.9 62.05 48.7L120.05 0L196.85 30.5L191.3 35.2L187.25 33.6L181.95 38L186 39.65L177.25 47L172.25 45" />
<path style="fill:#9DAD92;fill-opacity:1" d="M63.15,94.55L9.65 92.65L56.3 53.5L67.5 92L67.6 92.55Q67.6 93.2 67.05 93.65Q66.05 94.5 63.15 94.55" />
<path style="fill:#9DAD92;fill-opacity:1" d="M109.25,73.1L112.25 70.6L110.3 69.8L115.8 67.2Q122.1 65 128.15 66.1Q138.05 67.9 143.6 67.5Q146.4 67.3 147.35 66.65L142.25 70.9L144.3 71.7L139.1 75.9L137.45 75.25L127.65 83.4L129.3 84L128.15 85L128.55 85.2L95.6 112.8L89.85 111.8Q84.1 110.35 82.1 107.9Q75.3 99.65 79.1 96.45Q80.75 95.1 83.4 95.05L86.5 96.25L89.8 93.5L87.45 92.55L91.8 88.7L96.35 83.45L98.3 84.2L101 81.95L97.9 80.7L98.95 79.1L101.05 76.45L102.5 75.15Q104.5 73.45 106.8 72.15L109.25 73.1" />
<path style="fill:#9DAD92;fill-opacity:1" d="M65.6,98.4Q70.15 98.5 71.1 100.75Q73.25 105.25 72.9 108.4Q72.6 111.25 70.25 113.2Q67.7 115.35 61.3 117.15Q53.5 119.1 49.45 120.35L0 100.75L5.45 96.2L65.6 98.4" />
<path style="fill:#9DAD92;fill-opacity:1" d="M109.95,63Q109.45 64.15 106.4 66.7L99.3 72.05L97.95 73.1Q95.2 75.4 92.1 80.35Q88.75 85.65 86.6 87.75L84.6 89.55Q79.75 93.65 76.6 93.25Q75 93 74.3 91.8L63.45 53.25L63.8 52.8L64.9 51.75Q68.95 48.45 75.05 48.6Q80.1 48.7 86.8 51.05Q90.2 52.25 92.9 53.6L109.75 62.35L109.95 63" />
</g>
</svg>
