<?xml version="1.0" encoding="utf-8"?>
<svg version="1.1" id="Layer_1"
xmlns="http://www.w3.org/2000/svg"
xmlns:xlink="http://www.w3.org/1999/xlink"
xmlns:author="http://www.sothink.com"
width="468px" height="199px"
xml:space="preserve">
<g id="49" transform="matrix(1, 0, 0, 1, 0, 0)">
<path style="fill:#DADADA;fill-opacity:1" d="M450.3,45.25L416.45 43.3L360.4 50.1L357.6 52.4L343.55 54.1L330.85 49.9L272.45 57.05L250.05 74.7L240.85 75.65L235.2 80.3L225.75 80.5L190.5 111.2L191.5 118.6L189.75 120.1L217.4 131.1L213.5 134.4L185.6 123.3L179.2 128.7L164.9 130.35L128.6 162.85L128.6 167.4L111.55 179.55L112.05 181.4L102.6 189.35L103.9 191.45L100.45 194.3L97.2 193.25L95.4 189.8L93.25 190.75L61.85 178.3L15.5 198.65L0 192.5L12.2 182.25L27.65 188.4L61.15 173.35L70.8 177.25L100.2 169.75L112.4 159.45L117.85 157.65L154.05 127.3L153.6 125.7L151 124.6L149.35 118.65L159.8 109.3L162.75 107.2L174 105.8L177 107L180.5 106.55L215.7 77.05L214.7 73.45L226 63.95L224.85 59.8L231.45 54.3L212.95 47L219.45 41.55L237.9 48.9L243.9 43.85L254.8 42.5L271.9 49.1L277.45 48.45L281.15 48.45L328.75 42.7L334.85 37.65L333.7 33L337.35 32.55L330 0.95L338 0L346.95 33.15L349.05 32.95L350.55 38.55L358.05 41.55L373.35 39.7L375.35 40.5L422.85 34.65L467.4 37.15L465.7 45.55L450.3 45.25" />
</g>
</svg>
