<?xml version="1.0" encoding="utf-8"?>
<svg version="1.1" id="Layer_1"
xmlns="http://www.w3.org/2000/svg"
xmlns:xlink="http://www.w3.org/1999/xlink"
xmlns:author="http://www.sothink.com"
width="534px" height="295px"
xml:space="preserve">
<g id="51" transform="matrix(1, 0, 0, 1, -335.4, -46.7)">
<path style="fill:none;stroke-width:0.5;stroke-linecap:butt;stroke-linejoin:round;stroke-miterlimit:3;stroke:#B2B2B2;stroke-opacity:1" d="M497.05,200.65L505.95 193.2L533.35 204L524.45 211.45L497.05 200.65z" />
<path style="fill:none;stroke-width:0.5;stroke-linecap:butt;stroke-linejoin:round;stroke-miterlimit:3;stroke:#B2B2B2;stroke-opacity:1" d="M497.05,200.65L524.45 211.5L521.65 213.85L522.75 217.95L519.3 218.4L489.85 206.7L497.05 200.65z" />
<path style="fill:none;stroke-width:0.5;stroke-linecap:butt;stroke-linejoin:round;stroke-miterlimit:3;stroke:#B2B2B2;stroke-opacity:1" d="M526.15,221.35L526.6 223.1L519.45 229.1L481.25 213.9L489.85 206.7L519.3 218.4L522.75 217.95L523.4 220.3L526.15 221.35z" />
<path style="fill:none;stroke-width:0.5;stroke-linecap:butt;stroke-linejoin:round;stroke-miterlimit:3;stroke:#B2B2B2;stroke-opacity:1" d="M512.45,234.95L474.25 219.8L481.25 213.9L519.45 229.1L512.45 234.95z" />
<path style="fill:none;stroke-width:0.5;stroke-linecap:butt;stroke-linejoin:round;stroke-miterlimit:3;stroke:#B2B2B2;stroke-opacity:1" d="M523.05,230.1L528.85 232.4L524.65 235.95L518.85 233.6L523.05 230.1z" />
<path style="fill:none;stroke-width:0.5;stroke-linecap:butt;stroke-linejoin:round;stroke-miterlimit:3;stroke:#B2B2B2;stroke-opacity:1" d="M560.3,218.95L589.9 230.7L583.15 236.45L553.5 224.65L560.3 218.95z" />
<path style="fill:none;stroke-width:0.5;stroke-linecap:butt;stroke-linejoin:round;stroke-miterlimit:3;stroke:#B2B2B2;stroke-opacity:1" d="M505.4,240.85L467.2 225.7L474.25 219.8L512.45 234.95L505.4 240.85z" />
<path style="fill:none;stroke-width:0.5;stroke-linecap:butt;stroke-linejoin:round;stroke-miterlimit:3;stroke:#B2B2B2;stroke-opacity:1" d="M541.1,226.05L553.5 224.65L583.15 236.45L575.05 243.3L542.25 230.3L541.1 226.05z" />
<path style="fill:none;stroke-width:0.5;stroke-linecap:butt;stroke-linejoin:round;stroke-miterlimit:3;stroke:#B2B2B2;stroke-opacity:1" d="M467.2,225.7L505.4 240.85L498.3 246.8L460.1 231.65L467.2 225.7z" />
<path style="fill:none;stroke-width:0.5;stroke-linecap:butt;stroke-linejoin:round;stroke-miterlimit:3;stroke:#B2B2B2;stroke-opacity:1" d="M528.65,234.5L555.25 245.05L548.85 250.4L522.25 239.85L528.65 234.5z" />
<path style="fill:none;stroke-width:0.5;stroke-linecap:butt;stroke-linejoin:round;stroke-miterlimit:3;stroke:#B2B2B2;stroke-opacity:1" d="M453.6,237.1L491.8 252.25L488.25 255.25L482.4 257.15L446.65 242.95L453.6 237.1z" />
<path style="fill:none;stroke-width:0.5;stroke-linecap:butt;stroke-linejoin:round;stroke-miterlimit:3;stroke:#B2B2B2;stroke-opacity:1" d="M538.3,226.4L541.1 226.05L542.25 230.3L575.05 243.3L561 255.25L548.85 250.4L555.25 245.05L528.65 234.5L538.3 226.4z" />
<path style="fill:none;stroke-width:0.5;stroke-linecap:butt;stroke-linejoin:round;stroke-miterlimit:3;stroke:#B2B2B2;stroke-opacity:1" d="M554.6,260.65L515.85 245.25L522.25 239.85L561 255.25L554.6 260.65z" />
<path style="fill:none;stroke-width:0.5;stroke-linecap:butt;stroke-linejoin:round;stroke-miterlimit:3;stroke:#B2B2B2;stroke-opacity:1" d="M547.85,266.35L509.05 250.95L515.85 245.25L554.6 260.65L547.85 266.35z" />
<path style="fill:none;stroke-width:0.5;stroke-linecap:butt;stroke-linejoin:round;stroke-miterlimit:3;stroke:#B2B2B2;stroke-opacity:1" d="M413.7,249.55L462.05 269.95M420.85,243.6L473.45 264.7" />
<path style="fill:none;stroke-width:0.5;stroke-linecap:butt;stroke-linejoin:round;stroke-miterlimit:3;stroke:#B2B2B2;stroke-opacity:1" d="M469.45,268.1L444.8 274.4L403.65 258.05L429.65 236.2L482.45 257.15L469.45 268.1z" />
<path style="fill:none;stroke-width:0.5;stroke-linecap:butt;stroke-linejoin:round;stroke-miterlimit:3;stroke:#B2B2B2;stroke-opacity:1" d="M540.9,272.3L502 256.85L509.05 250.95L547.85 266.35L540.9 272.3z" />
<path style="fill:none;stroke-width:0.5;stroke-linecap:butt;stroke-linejoin:round;stroke-miterlimit:3;stroke:#B2B2B2;stroke-opacity:1" d="M533.9,278.25L498.8 264.3L497.8 260.4L502 256.85L540.9 272.3L533.9 278.25z" />
<path style="fill:none;stroke-width:0.5;stroke-linecap:butt;stroke-linejoin:round;stroke-miterlimit:3;stroke:#B2B2B2;stroke-opacity:1" d="M428.05,271.9L392.45 287.9L376 281.35L403.65 258.05L444.8 274.4L438.35 276.05L428.05 271.9z" />
<path style="fill:none;stroke-width:0.5;stroke-linecap:butt;stroke-linejoin:round;stroke-miterlimit:3;stroke:#B2B2B2;stroke-opacity:1" d="M526.75,284.3L491.6 270.3L498.8 264.3L533.9 278.25L526.75 284.3z" />
<path style="fill:none;stroke-width:0.5;stroke-linecap:butt;stroke-linejoin:round;stroke-miterlimit:3;stroke:#B2B2B2;stroke-opacity:1" d="M467.6,277.05L478.2 281.25L468.1 289.75L457.5 285.5L467.6 277.05z" />
<path style="fill:none;stroke-width:0.5;stroke-linecap:butt;stroke-linejoin:round;stroke-miterlimit:3;stroke:#B2B2B2;stroke-opacity:1" d="M482.85,277.65L512.55 289.45L508.65 292.75L480.9 281.7L482.25 280.6L481.75 278.6L482.85 277.65z" />
<path style="fill:none;stroke-width:0.5;stroke-linecap:butt;stroke-linejoin:round;stroke-miterlimit:3;stroke:#B2B2B2;stroke-opacity:1" d="M512.55,289.45L482.85 277.65L491.6 270.3L526.75 284.3L516.15 293.3L510.65 291.1L512.55 289.45z" />
<path style="fill:none;stroke-width:0.5;stroke-linecap:butt;stroke-linejoin:round;stroke-miterlimit:3;stroke:#B2B2B2;stroke-opacity:1" d="M443,283L406.05 299.15L395.8 291.9Q412.3 284.65 428.75 277.35L443 283z" />
<path style="fill:none;stroke-width:0.5;stroke-linecap:butt;stroke-linejoin:round;stroke-miterlimit:3;stroke:#B2B2B2;stroke-opacity:1" d="M480.9,281.7L508.65 292.75L498.95 300.9L489.35 302.1L469.9 294.3L473.6 291.25L472.2 289L480.9 281.7z" />
<path style="fill:none;stroke-width:0.5;stroke-linecap:butt;stroke-linejoin:round;stroke-miterlimit:3;stroke:#B2B2B2;stroke-opacity:1" d="M466.2,293.2L470.45 294.85L441.95 307.3L435.35 302.05L464.4 289.6L466.2 293.2z" />
<path style="fill:none;stroke-width:0.5;stroke-linecap:butt;stroke-linejoin:round;stroke-miterlimit:3;stroke:#B2B2B2;stroke-opacity:1" d="M441.95,307.3L369 340.65L335.65 327.4L351.2 314.35L355.05 315.85L376.6 297.75L379.55 298.95L395.8 291.9L406.05 299.15L443 283L462.2 290.55L435.35 302.05L441.95 307.3z" />
<path style="fill:none;stroke-width:0.5;stroke-linecap:butt;stroke-linejoin:round;stroke-miterlimit:3;stroke:#B2B2B2;stroke-opacity:1" d="M460.1,231.65L498.3 246.8L491.8 252.25L453.6 237.1L460.1 231.65z" />
<path style="fill:none;stroke-width:0.5;stroke-linecap:butt;stroke-linejoin:round;stroke-miterlimit:3;stroke:#B2B2B2;stroke-opacity:1" d="M698,208.7L687.15 216.2L690.4 217.65L687.35 219.7L717.95 235.1L686.7 255.8L659.35 241.15L652.2 246.3L642.2 240.8L639.55 243L620.5 232.75L618.35 234.55L596.7 225.95L595 227.4L564.85 215.4L566.7 213.85L564.55 205.95L594.75 218.1L636.85 182.7L613.35 173.35L618.95 168.25L628.9 167.25L647.85 174.75L696 168.85L741.25 186.85L720.75 204L707.4 198.7L695.3 207.25L698 208.7z" />
<path style="fill:none;stroke-width:0.5;stroke-linecap:butt;stroke-linejoin:round;stroke-miterlimit:3;stroke:#B2B2B2;stroke-opacity:1" d="M629.6,188.8L599.1 176.7L603 173.45L613.35 173.35L636.85 182.7L629.6 188.8z" />
<path style="fill:none;stroke-width:0.5;stroke-linecap:butt;stroke-linejoin:round;stroke-miterlimit:3;stroke:#B2B2B2;stroke-opacity:1" d="M599.1,176.7L629.6 188.8L622.7 194.65L592.15 182.5L599.1 176.7z" />
<path style="fill:none;stroke-width:0.5;stroke-linecap:butt;stroke-linejoin:round;stroke-miterlimit:3;stroke:#B2B2B2;stroke-opacity:1" d="M592.15,182.5L622.7 194.65L615.05 201.05L584.55 188.9L592.15 182.5z" />
<path style="fill:none;stroke-width:0.5;stroke-linecap:butt;stroke-linejoin:round;stroke-miterlimit:3;stroke:#B2B2B2;stroke-opacity:1" d="M584.55,188.9L615.05 201.05L608.5 206.55L578 194.4L584.55 188.9z" />
<path style="fill:none;stroke-width:0.5;stroke-linecap:butt;stroke-linejoin:round;stroke-miterlimit:3;stroke:#B2B2B2;stroke-opacity:1" d="M570.95,200.3L578 194.4L608.5 206.55L601.5 212.45L570.95 200.3z" />
<path style="fill:none;stroke-width:0.5;stroke-linecap:butt;stroke-linejoin:round;stroke-miterlimit:3;stroke:#B2B2B2;stroke-opacity:1" d="M564.3,205.9L570.95 200.3L601.5 212.45L594.75 218.1L564.55 205.95L564.3 205.9z" />
<path style="fill:none;stroke-width:0.5;stroke-linecap:butt;stroke-linejoin:round;stroke-miterlimit:3;stroke:#B2B2B2;stroke-opacity:1" d="M580.7,137L585.65 136.35L608.75 145.55L601.85 151.35L602.3 153.05L574.65 142.05L580.7 137z" />
<path style="fill:none;stroke-width:0.5;stroke-linecap:butt;stroke-linejoin:round;stroke-miterlimit:3;stroke:#B2B2B2;stroke-opacity:1" d="M568.75,147.05L574.65 142.05L602.3 153.05L603.05 155.8L599.1 159.1L568.75 147.05z" />
<path style="fill:none;stroke-width:0.5;stroke-linecap:butt;stroke-linejoin:round;stroke-miterlimit:3;stroke:#B2B2B2;stroke-opacity:1" d="M596.25,161.5L565.9 149.4L568.75 147.05L599.1 159.1L596.25 161.5z" />
<path style="fill:none;stroke-width:0.5;stroke-linecap:butt;stroke-linejoin:round;stroke-miterlimit:3;stroke:#B2B2B2;stroke-opacity:1" d="M552.25,150.6L557.6 152.75L559.9 150.8L565 150.15L565.9 149.4L596.25 161.5L591.05 165.85L592.1 169.7L590 171.45L547.55 154.6L552.25 150.6z" />
<path style="fill:none;stroke-width:0.5;stroke-linecap:butt;stroke-linejoin:round;stroke-miterlimit:3;stroke:#B2B2B2;stroke-opacity:1" d="M547.55,154.6L590 171.45L582.95 177.4L540.5 160.5L547.55 154.6z" />
<path style="fill:none;stroke-width:0.5;stroke-linecap:butt;stroke-linejoin:round;stroke-miterlimit:3;stroke:#B2B2B2;stroke-opacity:1" d="M540.5,160.5L582.95 177.4L575.9 183.3L533.5 166.4L540.5 160.5z" />
<path style="fill:none;stroke-width:0.5;stroke-linecap:butt;stroke-linejoin:round;stroke-miterlimit:3;stroke:#B2B2B2;stroke-opacity:1" d="M536,167.45L575.9 183.3L568.8 189.25L528.9 173.4L536 167.45z" />
<path style="fill:none;stroke-width:0.5;stroke-linecap:butt;stroke-linejoin:round;stroke-miterlimit:3;stroke:#B2B2B2;stroke-opacity:1" d="M528.9,173.4L568.8 189.25L561.7 195.2L521.95 179.45L522.7 178.85L520.55 178L525.8 173.65L528 174.15L528.9 173.4z" />
<path style="fill:none;stroke-width:0.5;stroke-linecap:butt;stroke-linejoin:round;stroke-miterlimit:3;stroke:#B2B2B2;stroke-opacity:1" d="M517.05,183.5L521.95 179.45L561.7 195.2L554.85 200.95L551.2 201.4L548.05 200.2L547.5 198.85L522.7 189L525.35 186.8L517.05 183.5z" />
<path style="fill:none;stroke-width:0.5;stroke-linecap:butt;stroke-linejoin:round;stroke-miterlimit:3;stroke:#B2B2B2;stroke-opacity:1" d="M525.35,186.8L522.7 189L547.5 198.85L548.05 200.2L535.9 201.65L533.1 204L505.5 193L506.75 191.95L505.05 191.3L515.25 182.75L525.35 186.8z" />
<path style="fill:none;stroke-width:0.5;stroke-linecap:butt;stroke-linejoin:round;stroke-miterlimit:3;stroke:#B2B2B2;stroke-opacity:1" d="M806.5,141.5L805.25 133.9L816.45 134.35L816.9 145.65" />
<path style="fill:none;stroke-width:0.5;stroke-linecap:butt;stroke-linejoin:round;stroke-miterlimit:3;stroke:#B2B2B2;stroke-opacity:1" d="M831.25,135.15L825.55 149.05L816.9 145.65L816.45 134.35L831.25 135.15z" />
<path style="fill:none;stroke-width:0.5;stroke-linecap:butt;stroke-linejoin:round;stroke-miterlimit:3;stroke:#B2B2B2;stroke-opacity:1" d="M841.4,135.95L835 152.8L825.55 149.05L831.25 135.15L841.4 135.95z" />
<path style="fill:none;stroke-width:0.5;stroke-linecap:butt;stroke-linejoin:round;stroke-miterlimit:3;stroke:#B2B2B2;stroke-opacity:1" d="M862.6,143.3L854.2 154.9L836.8 148L841.4 135.95L857.9 136.3L857.05 140.3L862 140.6L862.6 143.3z" />
<path style="fill:none;stroke-width:0.5;stroke-linecap:butt;stroke-linejoin:round;stroke-miterlimit:3;stroke:#B2B2B2;stroke-opacity:1" d="M703.9,142.25L709.1 161.35L694.55 163.15L689.35 144L703.9 142.25z" />
<path style="fill:none;stroke-width:0.5;stroke-linecap:butt;stroke-linejoin:round;stroke-miterlimit:3;stroke:#B2B2B2;stroke-opacity:1" d="M851.1,159.2L835 152.8L836.8 148L854.2 154.9L851.1 159.2z" />
<path style="fill:none;stroke-width:0.5;stroke-linecap:butt;stroke-linejoin:round;stroke-miterlimit:3;stroke:#B2B2B2;stroke-opacity:1" d="M659.75,169.95L636.9 160.9L652.6 148.55L653.9 148.35L659.75 169.95z" />
<path style="fill:none;stroke-width:0.5;stroke-linecap:butt;stroke-linejoin:round;stroke-miterlimit:3;stroke:#B2B2B2;stroke-opacity:1" d="M721.65,143.3L715.1 148.8L719.75 166.1L696.2 168.95L694.55 163.15L709.1 161.35L703.9 142.25L714.5 140.95L721.65 143.3z" />
<path style="fill:none;stroke-width:0.5;stroke-linecap:butt;stroke-linejoin:round;stroke-miterlimit:3;stroke:#B2B2B2;stroke-opacity:1" d="M678.2,145.4L689.35 144L696.1 168.9L684.9 170.25L678.2 145.4z" />
<path style="fill:none;stroke-width:0.5;stroke-linecap:butt;stroke-linejoin:round;stroke-miterlimit:3;stroke:#B2B2B2;stroke-opacity:1" d="M668.35,146.6L678.2 145.4L684.9 170.25L675.05 171.45L668.35 146.6z" />
<path style="fill:none;stroke-width:0.5;stroke-linecap:butt;stroke-linejoin:round;stroke-miterlimit:3;stroke:#B2B2B2;stroke-opacity:1" d="M816.7,145.55L851.1 159.2L845.15 164.2L807.65 149.2L806.5 141.5" />
<path style="fill:none;stroke-width:0.5;stroke-linecap:butt;stroke-linejoin:round;stroke-miterlimit:3;stroke:#B2B2B2;stroke-opacity:1" d="M653.9,148.35L668.35 146.6L675.05 171.45L666.2 172.5L659.75 169.95L653.9 148.35z" />
<path style="fill:none;stroke-width:0.5;stroke-linecap:round;stroke-linejoin:round;stroke-miterlimit:3;stroke:#B2B2B2;stroke-opacity:1" d="M758.95,169.15L766.25 163" />
<path style="fill:none;stroke-width:0.5;stroke-linecap:round;stroke-linejoin:round;stroke-miterlimit:3;stroke:#B2B2B2;stroke-opacity:1" d="M766.25,163L759.85 139.45L769.6 138.25L774.45 156.1L766.25 163z" />
<path style="fill:none;stroke-width:0.5;stroke-linecap:butt;stroke-linejoin:round;stroke-miterlimit:3;stroke:#B2B2B2;stroke-opacity:1" d="M628.85,167.2L636.9 160.9L666.2 172.5L647.85 174.75L628.9 167.25L628.85 167.2z" />
<path style="fill:none;stroke-width:0.5;stroke-linecap:butt;stroke-linejoin:round;stroke-miterlimit:3;stroke:#B2B2B2;stroke-opacity:1" d="M759.85,139.45L766.25 163L757.3 170.55L742.8 172.3L735.25 144.5L743.05 143.55L746 141.1L759.85 139.45z" />
<path style="fill:none;stroke-width:0.5;stroke-linecap:butt;stroke-linejoin:round;stroke-miterlimit:3;stroke:#B2B2B2;stroke-opacity:1" d="M715.1,148.8L721.65 143.3L728.05 145.4L735.25 144.5L742.8 172.3L737.35 173L719.9 166.05L719.75 166.1L715.1 148.8z" />
<path style="fill:none;stroke-width:0.5;stroke-linecap:butt;stroke-linejoin:round;stroke-miterlimit:3;stroke:#B2B2B2;stroke-opacity:1" d="M786.8,136.15L791.6 153.85L766.9 174.65L757.3 170.55L774.45 156.1L769.6 138.25L786.8 136.15z" />
<path style="fill:none;stroke-width:0.5;stroke-linecap:butt;stroke-linejoin:round;stroke-miterlimit:3;stroke:#B2B2B2;stroke-opacity:1" d="M828.7,177.95L783.9 160.4L791.6 153.85L786.8 136.15L805.25 133.9L807.65 149.2L845.15 164.2L828.7 177.95z" />
<path style="fill:none;stroke-width:0.5;stroke-linecap:butt;stroke-linejoin:round;stroke-miterlimit:3;stroke:#B2B2B2;stroke-opacity:1" d="M671.75,104.95L716.05 99.5L717.35 105.2L685.3 109.15L680.8 112.95L668.2 107.95L671.75 104.95z" />
<path style="fill:none;stroke-width:0.5;stroke-linecap:butt;stroke-linejoin:round;stroke-miterlimit:3;stroke:#B2B2B2;stroke-opacity:1" d="M689.35,114.6L687.75 108.85L717.35 105.25L718.7 111L689.35 114.6z" />
<path style="fill:none;stroke-width:0.5;stroke-linecap:butt;stroke-linejoin:round;stroke-miterlimit:3;stroke:#B2B2B2;stroke-opacity:1" d="M689.35,114.6L718.75 111L720 116.7L690.9 120.25L689.35 114.6z" />
<path style="fill:none;stroke-width:0.5;stroke-linecap:butt;stroke-linejoin:round;stroke-miterlimit:3;stroke:#B2B2B2;stroke-opacity:1" d="M692.4,125.9L690.9 120.25L720 116.7L721.35 122.4L692.4 125.9z" />
<path style="fill:none;stroke-width:0.5;stroke-linecap:butt;stroke-linejoin:round;stroke-miterlimit:3;stroke:#B2B2B2;stroke-opacity:1" d="M812.35,124.6L799.15 126.2L790.5 94.5L810.9 100.55L812.35 124.6z" />
<path style="fill:none;stroke-width:0.5;stroke-linecap:butt;stroke-linejoin:round;stroke-miterlimit:3;stroke:#B2B2B2;stroke-opacity:1" d="M810.9,100.55L829.25 106L823.1 125.2L812.35 124.6L810.9 100.55z" />
<path style="fill:none;stroke-width:0.5;stroke-linecap:butt;stroke-linejoin:round;stroke-miterlimit:3;stroke:#B2B2B2;stroke-opacity:1" d="M790.5,94.5L799.15 126.2L787.7 127.6L777.65 90.65L790.5 94.5z" />
<path style="fill:none;stroke-width:0.5;stroke-linecap:butt;stroke-linejoin:round;stroke-miterlimit:3;stroke:#B2B2B2;stroke-opacity:1" d="M829.25,106L844.65 110.55L837.75 126L823.1 125.2L829.25 106z" />
<path style="fill:none;stroke-width:0.5;stroke-linecap:butt;stroke-linejoin:round;stroke-miterlimit:3;stroke:#B2B2B2;stroke-opacity:1" d="M774.6,129.2L762.9 86.3L777.65 90.65L787.7 127.6L774.6 129.2z" />
<path style="fill:none;stroke-width:0.5;stroke-linecap:butt;stroke-linejoin:round;stroke-miterlimit:3;stroke:#B2B2B2;stroke-opacity:1" d="M762.9,86.3L774.6 129.2L761.85 130.75L749 83.7L750.55 82.65L762.9 86.3z" />
<path style="fill:none;stroke-width:0.5;stroke-linecap:butt;stroke-linejoin:round;stroke-miterlimit:3;stroke:#B2B2B2;stroke-opacity:1" d="M749,83.7L761.85 130.75L759.75 129.95L743.5 131.9L735.65 128.8L734 122.8L731.8 123.05L720.95 83L740.2 80.25L749 83.7z" />
<path style="fill:none;stroke-width:0.5;stroke-linecap:round;stroke-linejoin:round;stroke-miterlimit:3;stroke:#B2B2B2;stroke-opacity:1" d="M724.55,96.2L751.5 92.85" />
<path style="fill:none;stroke-width:0.5;stroke-linecap:round;stroke-linejoin:round;stroke-miterlimit:3;stroke:#B2B2B2;stroke-opacity:1" d="M726.55,103.55L753.5 100.15" />
<path style="fill:none;stroke-width:0.5;stroke-linecap:round;stroke-linejoin:round;stroke-miterlimit:3;stroke:#B2B2B2;stroke-opacity:1" d="M728.95,112.55L755.95 109.15" />
<path style="fill:none;stroke-width:0.5;stroke-linecap:round;stroke-linejoin:round;stroke-miterlimit:3;stroke:#B2B2B2;stroke-opacity:1" d="M734,122.8L758.85 119.8" />
<path style="fill:none;stroke-width:0.5;stroke-linecap:butt;stroke-linejoin:round;stroke-miterlimit:3;stroke:#B2B2B2;stroke-opacity:1" d="M844.65,110.55L868.55 117.65L864.2 125.4L860.65 124.95L859.8 127.25L837.75 126L844.65 110.55z" />
<path style="fill:none;stroke-width:0.5;stroke-linecap:butt;stroke-linejoin:round;stroke-miterlimit:3;stroke:#B2B2B2;stroke-opacity:1" d="M692.4,125.9L717.6 122.85L718.65 127.8L712.3 133.15L694.95 135.2L692.4 125.9z" />
<path style="fill:none;stroke-width:0.5;stroke-linecap:butt;stroke-linejoin:round;stroke-miterlimit:3;stroke:#B2B2B2;stroke-opacity:1" d="M706,70.2L683.15 89.1L667.35 82.9L693.05 61.35L704.1 67.35L702.4 68.75L706 70.2z" />
<path style="fill:none;stroke-width:0.5;stroke-linecap:butt;stroke-linejoin:round;stroke-miterlimit:3;stroke:#B2B2B2;stroke-opacity:1" d="M803.5,88.05L809.2 90.3L803.25 95.3L797.55 93.05L803.5 88.05z" />
<path style="fill:none;stroke-width:0.5;stroke-linecap:butt;stroke-linejoin:round;stroke-miterlimit:3;stroke:#B2B2B2;stroke-opacity:1" d="M713.5,88.8L716.05 99.5L693.65 102.25L709.15 89.35L713.5 88.8z" />
<path style="fill:none;stroke-width:0.5;stroke-linecap:butt;stroke-linejoin:round;stroke-miterlimit:3;stroke:#B2B2B2;stroke-opacity:1" d="M685.3,109.15L687.75 108.85L694.95 135.2L684.75 136.45L678.8 114.6L685.3 109.15z" />
<path style="fill:none;stroke-width:0.5;stroke-linecap:butt;stroke-linejoin:round;stroke-miterlimit:3;stroke:#B2B2B2;stroke-opacity:1" d="M693.55,102.25L671.75 104.95L636.95 134.15L633.85 132.95L622.1 134.35L615.8 139.65L596.2 131.9L594.15 124.4L587.8 121.25L626 88Q628.65 85.35 627.4 83L625.4 81L666.15 46.95L693.05 61.35L667.35 82.9L700.85 96.15L693.55 102.25z" />
<path style="fill:none;stroke-width:0.5;stroke-linecap:butt;stroke-linejoin:round;stroke-miterlimit:3;stroke:#B2B2B2;stroke-opacity:1" d="M671.35,120.8L678.8 114.6L684.75 136.45L675.9 137.5L671.35 120.8z" />
<path style="fill:none;stroke-width:0.5;stroke-linecap:butt;stroke-linejoin:round;stroke-miterlimit:3;stroke:#B2B2B2;stroke-opacity:1" d="M656.45,133.2L671.35 120.8L675.9 137.5L658.05 139.65L656.45 133.2z" />
<path style="fill:none;stroke-width:0.5;stroke-linecap:butt;stroke-linejoin:round;stroke-miterlimit:3;stroke:#B2B2B2;stroke-opacity:1" d="M656.45,133.2L658.2 139.5L651.95 139.95L637.1 134.05L668.2 107.95L680.8 112.95L656.45 133.2z" />
<path style="fill:none;stroke-width:0.5;stroke-linecap:butt;stroke-linejoin:round;stroke-miterlimit:3;stroke:#B2B2B2;stroke-opacity:1" d="M668.15,144.65L658.15 145.9L657.05 141.8L667 140.6L668.15 144.65z" />
<path style="fill:none;stroke-width:0.5;stroke-linecap:butt;stroke-linejoin:round;stroke-miterlimit:3;stroke:#B2B2B2;stroke-opacity:1" d="M629.3,149.1L640.3 139.85L651.4 144.25L640.4 153.5L629.3 149.1z" />
<path style="fill:none;stroke-width:0.5;stroke-linecap:butt;stroke-linejoin:round;stroke-miterlimit:3;stroke:#B2B2B2;stroke-opacity:1" d="M596.4,169.2L602.25 171.5L596.15 176.45L590.35 174.1L596.4 169.2z" />
</g>
</svg>
