<?xml version="1.0" encoding="utf-8"?>
<svg version="1.1" id="Layer_1"
xmlns="http://www.w3.org/2000/svg"
xmlns:xlink="http://www.w3.org/1999/xlink"
xmlns:author="http://www.sothink.com"
width="470px" height="180px"
xml:space="preserve">
<g id="17" transform="matrix(1, 0, 0, 1, -83.4, -55.3)">
<path style="fill:none;stroke-width:0.5;stroke-linecap:butt;stroke-linejoin:round;stroke-miterlimit:3;stroke:#B5B5B5;stroke-opacity:1" d="M428.1,88.35L479.2 101.05L475.45 103.75L424.35 91L428.1 88.35z" />
<path style="fill:none;stroke-width:0.5;stroke-linecap:butt;stroke-linejoin:round;stroke-miterlimit:3;stroke:#B5B5B5;stroke-opacity:1" d="M309.3,105.4L299.5 112.4L274.55 106.15L284.35 99.15L309.3 105.4z" />
<path style="fill:none;stroke-width:0.5;stroke-linecap:butt;stroke-linejoin:round;stroke-miterlimit:3;stroke:#B5B5B5;stroke-opacity:1" d="M317.45,107.4L307.65 114.4L299.9 112.5L309.75 105.5L317.45 107.4z" />
<path style="fill:none;stroke-width:0.5;stroke-linecap:butt;stroke-linejoin:round;stroke-miterlimit:3;stroke:#B5B5B5;stroke-opacity:1" d="M266.4,107.95L260.85 111.85L270.2 114.2L265.15 117.8L242.35 112.1L252.9 104.55L266.4 107.95z" />
<path style="fill:none;stroke-width:0.5;stroke-linecap:butt;stroke-linejoin:round;stroke-miterlimit:3;stroke:#B5B5B5;stroke-opacity:1" d="M451.25,121L400.15 108.25L409.9 101.3L461 114.05L451.25 121z" />
<path style="fill:none;stroke-width:0.5;stroke-linecap:butt;stroke-linejoin:round;stroke-miterlimit:3;stroke:#B5B5B5;stroke-opacity:1" d="M302.15,116.9L291.65 124.4L280.65 121.65L285.95 117.9L285.9 117.85L291.1 114.15L302.15 116.9z" />
<path style="fill:none;stroke-width:0.5;stroke-linecap:butt;stroke-linejoin:round;stroke-miterlimit:3;stroke:#B5B5B5;stroke-opacity:1" d="M314.05,119.9L325.1 122.65L314.6 130.15L303.55 127.35L314.05 119.9z" />
<path style="fill:none;stroke-width:0.5;stroke-linecap:butt;stroke-linejoin:round;stroke-miterlimit:3;stroke:#B5B5B5;stroke-opacity:1" d="M389.45,125.4L379.65 132.35L369.7 129.9L379.5 122.9L389.45 125.4z" />
<path style="fill:none;stroke-width:0.5;stroke-linecap:butt;stroke-linejoin:round;stroke-miterlimit:3;stroke:#B5B5B5;stroke-opacity:1" d="M389.7,115.75L440.8 128.45L430.9 135.5L379.85 122.75L389.7 115.75z" />
<path style="fill:none;stroke-width:0.5;stroke-linecap:butt;stroke-linejoin:round;stroke-miterlimit:3;stroke:#B5B5B5;stroke-opacity:1" d="M336.6,125.5L326.1 133L315.05 130.25L325.55 122.75L336.6 125.5z" />
<path style="fill:none;stroke-width:0.5;stroke-linecap:butt;stroke-linejoin:round;stroke-miterlimit:3;stroke:#B5B5B5;stroke-opacity:1" d="M373.9,134.8L363.35 142.3L355.2 140.25L365.7 132.75L373.9 134.8z" />
<path style="fill:none;stroke-width:0.5;stroke-linecap:butt;stroke-linejoin:round;stroke-miterlimit:3;stroke:#B5B5B5;stroke-opacity:1" d="M363,159.35L388.55 165.7L384.65 168.5L359.15 162.1L363 159.35z" />
<path style="fill:none;stroke-width:0.5;stroke-linecap:butt;stroke-linejoin:round;stroke-miterlimit:3;stroke:#B5B5B5;stroke-opacity:1" d="M225.75,156.5L208.6 168.75L201.55 167L218.7 154.75L225.75 156.5z" />
<path style="fill:none;stroke-width:0.5;stroke-linecap:butt;stroke-linejoin:round;stroke-miterlimit:3;stroke:#B5B5B5;stroke-opacity:1" d="M183.05,168.8L98.15 177.6L109.85 146.55L129.4 132.45L218.3 154.6L200.85 167.05L208.35 168.95L197.9 176.4L188.55 177.35L183.05 168.8z" />
<path style="fill:none;stroke-width:0.5;stroke-linecap:butt;stroke-linejoin:round;stroke-miterlimit:3;stroke:#B5B5B5;stroke-opacity:1" d="M134.4,174L139.8 182.5L130.6 183.45L125.25 175L134.4 174z" />
<path style="fill:none;stroke-width:0.5;stroke-linecap:butt;stroke-linejoin:round;stroke-miterlimit:3;stroke:#B5B5B5;stroke-opacity:1" d="M260.15,181.9L250.35 188.95L238.85 186.05L248.7 179.05L260.15 181.9z" />
<path style="fill:none;stroke-width:0.5;stroke-linecap:butt;stroke-linejoin:round;stroke-miterlimit:3;stroke:#B5B5B5;stroke-opacity:1" d="M269.5,184L286.65 171.75L293.95 173.55L276.8 185.8L269.5 184z" />
<path style="fill:none;stroke-width:0.5;stroke-linecap:butt;stroke-linejoin:round;stroke-miterlimit:3;stroke:#B5B5B5;stroke-opacity:1" d="M301.7,175.5L284.55 187.75L277.2 185.9L294.4 173.65L301.7 175.5z" />
<path style="fill:none;stroke-width:0.5;stroke-linecap:butt;stroke-linejoin:round;stroke-miterlimit:3;stroke:#B5B5B5;stroke-opacity:1" d="M105.65,177.1L110.95 185.5L94.65 187.2L97.9 177.85L105.65 177.1z" />
<path style="fill:none;stroke-width:0.5;stroke-linecap:butt;stroke-linejoin:round;stroke-miterlimit:3;stroke:#B5B5B5;stroke-opacity:1" d="M351.45,192.15L347.25 195.2L339.85 193.35L344.05 190.35L351.45 192.15z" />
<path style="fill:none;stroke-width:0.5;stroke-linecap:butt;stroke-linejoin:round;stroke-miterlimit:3;stroke:#B5B5B5;stroke-opacity:1" d="M332.6,183.2L315.45 195.45L308.15 193.65L325.35 181.4L332.6 183.2z" />
<path style="fill:none;stroke-width:0.5;stroke-linecap:butt;stroke-linejoin:round;stroke-miterlimit:3;stroke:#B5B5B5;stroke-opacity:1" d="M340.35,185.15L323.2 197.4L315.9 195.55L333.05 183.3L340.35 185.15z" />
<path style="fill:none;stroke-width:0.5;stroke-linecap:butt;stroke-linejoin:round;stroke-miterlimit:3;stroke:#B5B5B5;stroke-opacity:1" d="M123.1,188.25L129.85 198.95L119.9 198.3L113.9 189.2L123.1 188.25z" />
<path style="fill:none;stroke-width:0.5;stroke-linecap:butt;stroke-linejoin:round;stroke-miterlimit:3;stroke:#B5B5B5;stroke-opacity:1" d="M142,186.35L151.05 200.45L140.95 199.75L133.05 187.3L142 186.35z" />
<path style="fill:none;stroke-width:0.5;stroke-linecap:butt;stroke-linejoin:round;stroke-miterlimit:3;stroke:#B5B5B5;stroke-opacity:1" d="M188.3,183.35L173.4 193.85L142.9 186.25L182.7 181.95L188.3 183.35z" />
<path style="fill:none;stroke-width:0.5;stroke-linecap:butt;stroke-linejoin:round;stroke-miterlimit:3;stroke:#B5B5B5;stroke-opacity:1" d="M295.45,196.45L285.5 203.55L278.65 201.85L288.6 194.75L295.45 196.45z" />
<path style="fill:none;stroke-width:0.5;stroke-linecap:butt;stroke-linejoin:round;stroke-miterlimit:3;stroke:#B5B5B5;stroke-opacity:1" d="M317.65,202L307.7 209.1L300.75 207.35L310.7 200.25L317.65 202z" />
<path style="fill:none;stroke-width:0.5;stroke-linecap:butt;stroke-linejoin:round;stroke-miterlimit:3;stroke:#B5B5B5;stroke-opacity:1" d="M455.25,81.65L451.55 84.3L443.4 82.25L447.15 79.6L455.25 81.65z" />
<path style="fill:none;stroke-width:0.5;stroke-linecap:butt;stroke-linejoin:round;stroke-miterlimit:3;stroke:#B5B5B5;stroke-opacity:1" d="M436.05,82.65L487.15 95.35L483.4 98.05L432.35 85.3L436.05 82.65z" />
<path style="fill:none;stroke-width:0.5;stroke-linecap:butt;stroke-linejoin:round;stroke-miterlimit:3;stroke:#B5B5B5;stroke-opacity:1" d="M432.1,85.5L483.15 98.2L479.45 100.9L428.35 88.15L432.1 85.5z" />
<path style="fill:none;stroke-width:0.5;stroke-linecap:butt;stroke-linejoin:round;stroke-miterlimit:3;stroke:#B5B5B5;stroke-opacity:1" d="M424.1,91.15L475.2 103.9L471.35 106.65L420.25 93.9Q422.2 92.55 424.1 91.15z" />
<path style="fill:none;stroke-width:0.5;stroke-linecap:butt;stroke-linejoin:round;stroke-miterlimit:3;stroke:#B5B5B5;stroke-opacity:1" d="M461.25,113.85L410.15 101.1L420 94.1L471.1 106.8L461.25 113.85z" />
<path style="fill:none;stroke-width:0.5;stroke-linecap:butt;stroke-linejoin:round;stroke-miterlimit:3;stroke:#B5B5B5;stroke-opacity:1" d="M552.45,96.15Q552.5 105.6 539.05 115.7L487.9 102.95L503.35 91.95L443.9 77.1L474.1 55.55L484.1 58Q522.25 67.55 538.85 78.1Q552.4 86.75 552.45 96.15z" />
<path style="fill:none;stroke-width:0.5;stroke-linecap:butt;stroke-linejoin:round;stroke-miterlimit:3;stroke:#B5B5B5;stroke-opacity:1" d="M317.85,107.55L325.7 109.5L315.9 116.5L308.05 114.55L317.85 107.55z" />
<path style="fill:none;stroke-width:0.5;stroke-linecap:butt;stroke-linejoin:round;stroke-miterlimit:3;stroke:#B5B5B5;stroke-opacity:1" d="M333.95,111.55L324.15 118.55L316.3 116.6L326.1 109.6L333.95 111.55z" />
<path style="fill:none;stroke-width:0.5;stroke-linecap:butt;stroke-linejoin:round;stroke-miterlimit:3;stroke:#B5B5B5;stroke-opacity:1" d="M342.2,113.6L332.4 120.6L324.55 118.65L334.35 111.65L342.2 113.6z" />
<path style="fill:none;stroke-width:0.5;stroke-linecap:butt;stroke-linejoin:round;stroke-miterlimit:3;stroke:#B5B5B5;stroke-opacity:1" d="M270.65,114.3L285.3 117.95L280.25 121.55L265.6 117.9L270.65 114.3z" />
<path style="fill:none;stroke-width:0.5;stroke-linecap:butt;stroke-linejoin:round;stroke-miterlimit:3;stroke:#B5B5B5;stroke-opacity:1" d="M350.45,115.65L345.6 119.1L345.5 119.1L340.5 122.6L332.8 120.7L342.6 113.7L350.45 115.65z" />
<path style="fill:none;stroke-width:0.5;stroke-linecap:butt;stroke-linejoin:round;stroke-miterlimit:3;stroke:#B5B5B5;stroke-opacity:1" d="M525.75,125.25L474.65 112.5L484.45 105.5L535.55 118.25L525.75 125.25z" />
<path style="fill:none;stroke-width:0.5;stroke-linecap:butt;stroke-linejoin:round;stroke-miterlimit:3;stroke:#B5B5B5;stroke-opacity:1" d="M313.6,119.75L303.1 127.25L292.1 124.5L302.6 117L313.6 119.75z" />
<path style="fill:none;stroke-width:0.5;stroke-linecap:butt;stroke-linejoin:round;stroke-miterlimit:3;stroke:#B5B5B5;stroke-opacity:1" d="M399.9,108.45L451 121.15L441.05 128.3L389.95 115.55L399.9 108.45z" />
<path style="fill:none;stroke-width:0.5;stroke-linecap:butt;stroke-linejoin:round;stroke-miterlimit:3;stroke:#B5B5B5;stroke-opacity:1" d="M345.65,119.35L365.65 124.35L360.95 127.7L340.95 122.75L345.65 119.35z" />
<path style="fill:none;stroke-width:0.5;stroke-linecap:butt;stroke-linejoin:round;stroke-miterlimit:3;stroke:#B5B5B5;stroke-opacity:1" d="M515.7,132.4L464.6 119.65L474.4 112.7L525.5 125.4L515.7 132.4z" />
<path style="fill:none;stroke-width:0.5;stroke-linecap:butt;stroke-linejoin:round;stroke-miterlimit:3;stroke:#B5B5B5;stroke-opacity:1" d="M399.75,127.95L389.95 134.95L380.05 132.5L389.9 125.5L399.75 127.95z" />
<path style="fill:none;stroke-width:0.5;stroke-linecap:butt;stroke-linejoin:round;stroke-miterlimit:3;stroke:#B5B5B5;stroke-opacity:1" d="M339.55,131.5L334.5 135.1L326.5 133.1L331.55 129.5L339.55 131.5z" />
<path style="fill:none;stroke-width:0.5;stroke-linecap:butt;stroke-linejoin:round;stroke-miterlimit:3;stroke:#B5B5B5;stroke-opacity:1" d="M400.2,128.05L410.1 130.5L400.3 137.5L390.4 135.05L400.2 128.05z" />
<path style="fill:none;stroke-width:0.5;stroke-linecap:butt;stroke-linejoin:round;stroke-miterlimit:3;stroke:#B5B5B5;stroke-opacity:1" d="M351.5,134.45L346.4 138.05L334.95 135.2L340 131.6L351.5 134.45z" />
<path style="fill:none;stroke-width:0.5;stroke-linecap:butt;stroke-linejoin:round;stroke-miterlimit:3;stroke:#B5B5B5;stroke-opacity:1" d="M359.8,136.55L354.75 140.15L346.85 138.15L351.9 134.55L359.8 136.55z" />
<path style="fill:none;stroke-width:0.5;stroke-linecap:butt;stroke-linejoin:round;stroke-miterlimit:3;stroke:#B5B5B5;stroke-opacity:1" d="M505.65,139.6L454.55 126.85L464.35 119.85L515.45 132.6L505.65 139.6z" />
<path style="fill:none;stroke-width:0.5;stroke-linecap:butt;stroke-linejoin:round;stroke-miterlimit:3;stroke:#B5B5B5;stroke-opacity:1" d="M420.2,133.1L410.45 140.05L400.7 137.65L410.5 130.65L420.2 133.1z" />
<path style="fill:none;stroke-width:0.5;stroke-linecap:butt;stroke-linejoin:round;stroke-miterlimit:3;stroke:#B5B5B5;stroke-opacity:1" d="M430.7,135.7L420.9 142.65L411 140.2L420.75 133.2L430.7 135.7z" />
<path style="fill:none;stroke-width:0.5;stroke-linecap:butt;stroke-linejoin:round;stroke-miterlimit:3;stroke:#B5B5B5;stroke-opacity:1" d="M382.5,136.95L372 144.45L363.8 142.4L374.3 134.9L382.5 136.95z" />
<path style="fill:none;stroke-width:0.5;stroke-linecap:round;stroke-linejoin:round;stroke-miterlimit:3;stroke:#B5B5B5;stroke-opacity:1" d="M495.55,146.75L444.45 134.05L447.95 131.6" />
<path style="fill:none;stroke-width:0.5;stroke-linecap:round;stroke-linejoin:round;stroke-miterlimit:3;stroke:#B5B5B5;stroke-opacity:1" d="M447.95,131.6L451.35 129.15L454.3 127.05L505.4 139.75L502.4 141.9L499.05 144.3L447.95 131.6M502.4,141.9L451.35 129.15" />
<path style="fill:none;stroke-width:0.5;stroke-linecap:butt;stroke-linejoin:round;stroke-miterlimit:3;stroke:#B5B5B5;stroke-opacity:1" d="M499.05,144.3L495.55 146.75" />
<path style="fill:none;stroke-width:0.5;stroke-linecap:butt;stroke-linejoin:round;stroke-miterlimit:3;stroke:#B5B5B5;stroke-opacity:1" d="M391.1,139.1L380.6 146.6L372.4 144.55L382.9 137.05L391.1 139.1z" />
<path style="fill:none;stroke-width:0.5;stroke-linecap:butt;stroke-linejoin:round;stroke-miterlimit:3;stroke:#B5B5B5;stroke-opacity:1" d="M399.7,141.25L389.2 148.7L381 146.7L391.5 139.2L399.7 141.25z" />
<path style="fill:none;stroke-width:0.5;stroke-linecap:butt;stroke-linejoin:round;stroke-miterlimit:3;stroke:#B5B5B5;stroke-opacity:1" d="M389.6,148.85L400.15 141.35L408.3 143.35L397.8 150.85L389.6 148.85z" />
<path style="fill:none;stroke-width:0.5;stroke-linecap:butt;stroke-linejoin:round;stroke-miterlimit:3;stroke:#B5B5B5;stroke-opacity:1" d="M416.9,145.5L406.4 153L398.25 151L408.75 143.5L416.9 145.5z" />
<path style="fill:none;stroke-width:0.5;stroke-linecap:butt;stroke-linejoin:round;stroke-miterlimit:3;stroke:#B5B5B5;stroke-opacity:1" d="M444.2,134.2L495.3 146.95L485.5 153.95L434.4 141.2L444.2 134.2z" />
<path style="fill:none;stroke-width:0.5;stroke-linecap:butt;stroke-linejoin:round;stroke-miterlimit:3;stroke:#B5B5B5;stroke-opacity:1" d="M414.8,155.1L434 141.4L463 148.65L443.8 162.35L414.8 155.1z" />
<path style="fill:none;stroke-width:0.5;stroke-linecap:butt;stroke-linejoin:round;stroke-miterlimit:3;stroke:#B5B5B5;stroke-opacity:1" d="M396.8,159.8L392.95 162.6L367.4 156.2L371.3 153.45L396.8 159.8z" />
<path style="fill:none;stroke-width:0.5;stroke-linecap:butt;stroke-linejoin:round;stroke-miterlimit:3;stroke:#B5B5B5;stroke-opacity:1" d="M392.7,162.75L388.8 165.55L363.25 159.15L367.15 156.4L392.7 162.75z" />
<path style="fill:none;stroke-width:0.5;stroke-linecap:butt;stroke-linejoin:round;stroke-miterlimit:3;stroke:#B5B5B5;stroke-opacity:1" d="M443.45,162.55L434.55 168.9L405.6 161.7L414.5 155.35L443.45 162.55z" />
<path style="fill:none;stroke-width:0.5;stroke-linecap:butt;stroke-linejoin:round;stroke-miterlimit:3;stroke:#B5B5B5;stroke-opacity:1" d="M358.9,162.3L384.4 168.65L380.55 171.45L355 165.05L358.9 162.3z" />
<path style="fill:none;stroke-width:0.5;stroke-linecap:butt;stroke-linejoin:round;stroke-miterlimit:3;stroke:#B5B5B5;stroke-opacity:1" d="M354.75,165.25L380.3 171.6L376.4 174.4L350.85 168L354.75 165.25z" />
<path style="fill:none;stroke-width:0.5;stroke-linecap:butt;stroke-linejoin:round;stroke-miterlimit:3;stroke:#B5B5B5;stroke-opacity:1" d="M350.6,168.2L376.15 174.55L372.25 177.35L346.7 170.95L350.6 168.2z" />
<path style="fill:none;stroke-width:0.5;stroke-linecap:butt;stroke-linejoin:round;stroke-miterlimit:3;stroke:#B5B5B5;stroke-opacity:1" d="M395.05,175.4L391.35 178.05L384.9 176.45L388.65 173.8L395.05 175.4z" />
<path style="fill:none;stroke-width:0.5;stroke-linecap:butt;stroke-linejoin:round;stroke-miterlimit:3;stroke:#B5B5B5;stroke-opacity:1" d="M182.65,168.95L188.05 177.4L178.85 178.4L173.5 169.95L182.65 168.95z" />
<path style="fill:none;stroke-width:0.5;stroke-linecap:butt;stroke-linejoin:round;stroke-miterlimit:3;stroke:#B5B5B5;stroke-opacity:1" d="M346.5,171.15L372 177.5L368.15 180.3L342.6 173.9L346.5 171.15z" />
<path style="fill:none;stroke-width:0.5;stroke-linecap:butt;stroke-linejoin:round;stroke-miterlimit:3;stroke:#B5B5B5;stroke-opacity:1" d="M434.25,169.15L417.9 180.8L388.95 173.55L405.25 161.9L434.25 169.15z" />
<path style="fill:none;stroke-width:0.5;stroke-linecap:butt;stroke-linejoin:round;stroke-miterlimit:3;stroke:#B5B5B5;stroke-opacity:1" d="M173,170L178.35 178.5L169.2 179.45L163.85 170.95L173 170z" />
<path style="fill:none;stroke-width:0.5;stroke-linecap:butt;stroke-linejoin:round;stroke-miterlimit:3;stroke:#B5B5B5;stroke-opacity:1" d="M168.7,179.5L159.55 180.45L154.2 171.95L163.35 171L168.7 179.5z" />
<path style="fill:none;stroke-width:0.5;stroke-linecap:butt;stroke-linejoin:round;stroke-miterlimit:3;stroke:#B5B5B5;stroke-opacity:1" d="M153.7,172L159.05 180.5L149.9 181.45L144.55 172.95L153.7 172z" />
<path style="fill:none;stroke-width:0.5;stroke-linecap:butt;stroke-linejoin:round;stroke-miterlimit:3;stroke:#B5B5B5;stroke-opacity:1" d="M342.35,174.1L367.9 180.45L364 183.25L338.45 176.85L342.35 174.1z" />
<path style="fill:none;stroke-width:0.5;stroke-linecap:butt;stroke-linejoin:round;stroke-miterlimit:3;stroke:#B5B5B5;stroke-opacity:1" d="M402.25,177.15L417.6 181L413.9 183.65L398.55 179.85L402.25 177.15z" />
<path style="fill:none;stroke-width:0.5;stroke-linecap:butt;stroke-linejoin:round;stroke-miterlimit:3;stroke:#B5B5B5;stroke-opacity:1" d="M144.05,173L149.45 181.5L140.25 182.45L134.9 173.95L144.05 173z" />
<path style="fill:none;stroke-width:0.5;stroke-linecap:butt;stroke-linejoin:round;stroke-miterlimit:3;stroke:#B5B5B5;stroke-opacity:1" d="M236.15,159.1L286.15 171.6L269.05 183.9L236.55 175.75L226.45 183L208.75 178.6L236.15 159.1z" />
<path style="fill:none;stroke-width:0.5;stroke-linecap:butt;stroke-linejoin:round;stroke-miterlimit:3;stroke:#B5B5B5;stroke-opacity:1" d="M115.75,175.95L124.8 175.05L130.15 183.5L121.1 184.45L115.75 175.95z" />
<path style="fill:none;stroke-width:0.5;stroke-linecap:butt;stroke-linejoin:round;stroke-miterlimit:3;stroke:#B5B5B5;stroke-opacity:1" d="M236.75,176.05L248.2 178.95L238.4 185.95L226.9 183.1L236.75 176.05z" />
<path style="fill:none;stroke-width:0.5;stroke-linecap:butt;stroke-linejoin:round;stroke-miterlimit:3;stroke:#B5B5B5;stroke-opacity:1" d="M115.25,176.05L120.65 184.55L111.45 185.45L106.1 177L115.25 176.05z" />
<path style="fill:none;stroke-width:0.5;stroke-linecap:butt;stroke-linejoin:round;stroke-miterlimit:3;stroke:#B5B5B5;stroke-opacity:1" d="M330.6,182.45L334.8 179.45L360.35 185.8L356.15 188.8L330.6 182.45z" />
<path style="fill:none;stroke-width:0.5;stroke-linecap:butt;stroke-linejoin:round;stroke-miterlimit:3;stroke:#B5B5B5;stroke-opacity:1" d="M380.55,179.55L409.5 186.75L405.6 189.55L376.65 182.35L380.55 179.55z" />
<path style="fill:none;stroke-width:0.5;stroke-linecap:butt;stroke-linejoin:round;stroke-miterlimit:3;stroke:#B5B5B5;stroke-opacity:1" d="M309.45,177.4L292.25 189.65L284.95 187.85L302.15 175.6L309.45 177.4z" />
<path style="fill:none;stroke-width:0.5;stroke-linecap:butt;stroke-linejoin:round;stroke-miterlimit:3;stroke:#B5B5B5;stroke-opacity:1" d="M355.9,189L351.7 192L344.3 190.15L348.5 187.15L355.9 189z" />
<path style="fill:none;stroke-width:0.5;stroke-linecap:butt;stroke-linejoin:round;stroke-miterlimit:3;stroke:#B5B5B5;stroke-opacity:1" d="M376.4,182.5L405.35 189.75L401.45 192.55L372.45 185.3L376.4 182.5z" />
<path style="fill:none;stroke-width:0.5;stroke-linecap:butt;stroke-linejoin:round;stroke-miterlimit:3;stroke:#B5B5B5;stroke-opacity:1" d="M389.5,189.8L385.25 192.8L368 188.5L372.2 185.5L389.5 189.8z" />
<path style="fill:none;stroke-width:0.5;stroke-linecap:butt;stroke-linejoin:round;stroke-miterlimit:3;stroke:#B5B5B5;stroke-opacity:1" d="M317.6,179.45L324.9 181.25L307.7 193.5L300.4 191.7L317.6 179.45z" />
<path style="fill:none;stroke-width:0.5;stroke-linecap:butt;stroke-linejoin:round;stroke-miterlimit:3;stroke:#B5B5B5;stroke-opacity:1" d="M385,193L380.8 196L363.5 191.7L367.75 188.7L385 193z" />
<path style="fill:none;stroke-width:0.5;stroke-linecap:butt;stroke-linejoin:round;stroke-miterlimit:3;stroke:#B5B5B5;stroke-opacity:1" d="M198.5,193.15L194.25 196.15L186.85 194.3L191.1 191.3L198.5 193.15z" />
<path style="fill:none;stroke-width:0.5;stroke-linecap:butt;stroke-linejoin:round;stroke-miterlimit:3;stroke:#B5B5B5;stroke-opacity:1" d="M281.4,192.95L288.2 194.65L283.3 198.1L276.5 196.4L281.4 192.95z" />
<path style="fill:none;stroke-width:0.5;stroke-linecap:butt;stroke-linejoin:round;stroke-miterlimit:3;stroke:#B5B5B5;stroke-opacity:1" d="M363.25,191.9L380.55 196.2L376.3 199.2L359.05 194.9L363.25 191.9z" />
<path style="fill:none;stroke-width:0.5;stroke-linecap:butt;stroke-linejoin:round;stroke-miterlimit:3;stroke:#B5B5B5;stroke-opacity:1" d="M103.8,193.35L106.55 197.4L91.3 196.35L92.15 194.2L103.8 193.35z" />
<path style="fill:none;stroke-width:0.5;stroke-linecap:butt;stroke-linejoin:round;stroke-miterlimit:3;stroke:#B5B5B5;stroke-opacity:1" d="M348.1,187.05L330.9 199.3L323.6 197.5L340.8 185.25L348.1 187.05z" />
<path style="fill:none;stroke-width:0.5;stroke-linecap:butt;stroke-linejoin:round;stroke-miterlimit:3;stroke:#B5B5B5;stroke-opacity:1" d="M113.4,189.3L119.25 198.25L107.1 197.45L104.15 193.1L92.15 194L93.15 191.4L113.4 189.3z" />
<path style="fill:none;stroke-width:0.5;stroke-linecap:butt;stroke-linejoin:round;stroke-miterlimit:3;stroke:#B5B5B5;stroke-opacity:1" d="M194,196.3L189.8 199.35L182.4 197.5L186.6 194.5L194 196.3z" />
<path style="fill:none;stroke-width:0.5;stroke-linecap:butt;stroke-linejoin:round;stroke-miterlimit:3;stroke:#B5B5B5;stroke-opacity:1" d="M132.55,187.35L140.4 199.7L130.4 199L123.55 188.2L132.55 187.35M143.1,186.8L162.7 201" />
<path style="fill:none;stroke-width:0.5;stroke-linecap:butt;stroke-linejoin:round;stroke-miterlimit:3;stroke:#B5B5B5;stroke-opacity:1" d="M346.9,195.35L338.65 201.25L331.35 199.4L339.6 193.55L346.9 195.35z" />
<path style="fill:none;stroke-width:0.5;stroke-linecap:butt;stroke-linejoin:round;stroke-miterlimit:3;stroke:#B5B5B5;stroke-opacity:1" d="M371.85,202.4L354.55 198.1L358.8 195.1L376.05 199.4L371.85 202.4z" />
<path style="fill:none;stroke-width:0.5;stroke-linecap:butt;stroke-linejoin:round;stroke-miterlimit:3;stroke:#B5B5B5;stroke-opacity:1" d="M173.15,194.05L163.15 201.25L151.55 200.45L142.6 186.45L173.15 194.05z" />
<path style="fill:none;stroke-width:0.5;stroke-linecap:butt;stroke-linejoin:round;stroke-miterlimit:3;stroke:#B5B5B5;stroke-opacity:1" d="M177.9,200.7L182.15 197.7L189.5 199.5L185.3 202.55L177.9 200.7z" />
<path style="fill:none;stroke-width:0.5;stroke-linecap:butt;stroke-linejoin:round;stroke-miterlimit:3;stroke:#B5B5B5;stroke-opacity:1" d="M285.95,203.65L295.9 196.55L302.85 198.3L292.9 205.4L285.95 203.65z" />
<path style="fill:none;stroke-width:0.5;stroke-linecap:butt;stroke-linejoin:round;stroke-miterlimit:3;stroke:#B5B5B5;stroke-opacity:1" d="M310.25,200.15L300.3 207.25L293.35 205.5L303.3 198.4L310.25 200.15z" />
<path style="fill:none;stroke-width:0.5;stroke-linecap:butt;stroke-linejoin:round;stroke-miterlimit:3;stroke:#B5B5B5;stroke-opacity:1" d="M318.1,202.1L325.05 203.85L315.1 210.95L308.15 209.2L318.1 202.1z" />
<path style="fill:none;stroke-width:0.5;stroke-linecap:butt;stroke-linejoin:round;stroke-miterlimit:3;stroke:#B5B5B5;stroke-opacity:1" d="M354.3,198.25L371.6 202.6L358.3 212.05L341.05 207.75L354.3 198.25z" />
<path style="fill:none;stroke-width:0.5;stroke-linecap:butt;stroke-linejoin:round;stroke-miterlimit:3;stroke:#B5B5B5;stroke-opacity:1" d="M332.3,205.65L322.35 212.75L315.5 211.05L325.5 203.95L332.3 205.65z" />
<path style="fill:none;stroke-width:0.5;stroke-linecap:butt;stroke-linejoin:round;stroke-miterlimit:3;stroke:#B5B5B5;stroke-opacity:1" d="M191.3,191.1L202.55 183.1L270.7 200.1L246.05 217.65L185.75 202.6L199.15 193.05L191.3 191.1z" />
<path style="fill:none;stroke-width:0.5;stroke-linecap:butt;stroke-linejoin:round;stroke-miterlimit:3;stroke:#B5B5B5;stroke-opacity:1" d="M278.4,202.05L330.3 215L305.8 232.45L253.9 219.5L278.4 202.05z" />
<path style="fill:none;stroke-width:0.5;stroke-linecap:butt;stroke-linejoin:round;stroke-miterlimit:3;stroke:#B5B5B5;stroke-opacity:1" d="M90.2,199.5L162.5 204.4L151.95 234.55L83.65 217.4L90.2 199.5z" />
<path style="fill:#B5B5B5;fill-opacity:1" d="M491.25,138.9L491.45 138.85L491.6 138.9L491.7 139.1L491.6 139.25L491.45 139.35L491.25 139.25L491.2 139.1L491.25 138.9M493.1,139.3L493.2 139.5L493.1 139.65L492.95 139.75L492.75 139.65L492.7 139.5L492.75 139.3L492.95 139.25L493.1 139.3M496.1,140.1L496.2 140.3L496.1 140.45L495.95 140.55L495.75 140.45L495.7 140.3L495.75 140.1L495.95 140.05L496.1 140.1M494.25,139.7L494.45 139.65L494.6 139.7L494.7 139.9L494.6 140.05L494.45 140.15L494.25 140.05L494.2 139.9L494.25 139.7M488.7,138.3L488.6 138.45L488.45 138.55L488.25 138.45L488.2 138.3L488.25 138.1L488.45 138.05L488.6 138.1L488.7 138.3M489.75,138.5L489.95 138.45L490.1 138.5L490.2 138.7L490.1 138.85L489.95 138.95L489.75 138.85L489.7 138.7L489.75 138.5M486.75,137.7L486.95 137.65L487.1 137.7L487.2 137.9L487.1 138.05L486.95 138.15L486.75 138.05L486.7 137.9L486.75 137.7M502.1,141.7L502.2 141.9L502.1 142.05L501.95 142.15L501.75 142.05L501.7 141.9L501.75 141.7L501.95 141.65L502.1 141.7M497.25,140.5L497.45 140.45L497.6 140.5L497.7 140.7L497.6 140.85L497.45 140.95L497.25 140.85L497.2 140.7L497.25 140.5M498.75,140.9L498.95 140.85L499.1 140.9L499.2 141.1L499.1 141.25L498.95 141.35L498.75 141.25L498.7 141.1L498.75 140.9M500.25,141.3L500.45 141.25L500.6 141.3L500.7 141.5L500.6 141.65L500.45 141.75L500.25 141.65L500.2 141.5L500.25 141.3M459.75,131.05L459.95 131L460.1 131.05L460.2 131.25L460.1 131.4L459.95 131.5L459.75 131.4L459.7 131.25L459.75 131.05M458.25,130.65L458.45 130.6L458.6 130.65L458.7 130.85L458.6 131L458.45 131.1L458.25 131L458.2 130.85L458.25 130.65M456.75,130.35L456.95 130.3L457.1 130.35L457.2 130.55L457.1 130.7L456.95 130.8L456.75 130.7L456.7 130.55L456.75 130.35M464.6,132.05L464.7 132.25L464.6 132.4L464.45 132.5L464.25 132.4L464.2 132.25L464.25 132.05L464.45 132L464.6 132.05M461.45,131.3L461.6 131.35L461.7 131.55L461.6 131.7L461.45 131.8L461.25 131.7L461.2 131.55L461.25 131.35L461.45 131.3M463.1,131.75L463.2 131.95L463.1 132.1L462.95 132.2L462.75 132.1L462.7 131.95L462.75 131.75L462.95 131.7L463.1 131.75M452.25,129.25L452.45 129.2L452.6 129.25L452.7 129.45L452.6 129.6L452.45 129.7L452.25 129.6L452.2 129.45L452.25 129.25M453.95,129.5L454.1 129.55L454.2 129.75L454.1 129.9L453.95 130L453.75 129.9L453.7 129.75L453.75 129.55L453.95 129.5M455.45,130.4L455.25 130.3L455.2 130.15L455.25 129.95L455.45 129.9L455.6 129.95L455.7 130.15L455.6 130.3L455.45 130.4M476.25,134.95L476.45 134.9L476.6 134.95L476.7 135.15L476.6 135.3L476.45 135.4L476.25 135.3L476.2 135.15L476.25 134.95M477.95,135.8L477.75 135.7L477.7 135.55L477.75 135.35L477.95 135.3L478.1 135.35L478.2 135.55L478.1 135.7L477.95 135.8M479.25,135.75L479.45 135.7L479.6 135.75L479.7 135.95L479.6 136.1L479.45 136.2L479.25 136.1L479.2 135.95L479.25 135.75M481.1,136.1L481.2 136.3L481.1 136.45L480.95 136.55L480.75 136.45L480.7 136.3L480.75 136.1L480.95 136.05L481.1 136.1M466.2,132.65L466.1 132.8L465.95 132.9L465.75 132.8L465.7 132.65L465.75 132.45L465.95 132.4L466.1 132.45L466.2 132.65M467.45,132.8L467.6 132.85L467.7 133.05L467.6 133.2L467.45 133.3L467.25 133.2L467.2 133.05L467.25 132.85L467.45 132.8M470.25,133.55L470.45 133.5L470.6 133.55L470.7 133.75L470.6 133.9L470.45 134L470.25 133.9L470.2 133.75L470.25 133.55M468.75,133.15L468.95 133.1L469.1 133.15L469.2 133.35L469.1 133.5L468.95 133.6L468.75 133.5L468.7 133.35L468.75 133.15M473.25,134.25L473.45 134.2L473.6 134.25L473.7 134.45L473.6 134.6L473.45 134.7L473.25 134.6L473.2 134.45L473.25 134.25M472.1,134.3L471.95 134.4L471.75 134.3L471.7 134.15L471.75 133.95L471.95 133.9L472.1 133.95L472.2 134.15L472.1 134.3M475.1,134.65L475.2 134.85L475.1 135L474.95 135.1L474.75 135L474.7 134.85L474.75 134.65L474.95 134.6L475.1 134.65M485.6,137.3L485.7 137.5L485.6 137.65L485.45 137.75L485.25 137.65L485.2 137.5L485.25 137.3L485.45 137.25L485.6 137.3M483.75,136.9L483.95 136.85L484.1 136.9L484.2 137.1L484.1 137.25L483.95 137.35L483.75 137.25L483.7 137.1L483.75 136.9M482.6,136.5L482.7 136.7L482.6 136.85L482.45 136.95L482.25 136.85L482.2 136.7L482.25 136.5L482.45 136.45L482.6 136.5" />
<path style="fill:#B5B5B5;fill-opacity:1" d="M403.7,113.7L403.85 113.75L403.95 113.95L403.85 114.1L403.7 114.2L403.5 114.1L403.45 113.95L403.5 113.75L403.7 113.7M404.95,114.15L405.15 114.1L405.3 114.15L405.4 114.35L405.3 114.5L405.15 114.6L404.95 114.5L404.9 114.35L404.95 114.15M400.5,113.05L400.7 113L400.85 113.05L400.95 113.25L400.85 113.4L400.7 113.5L400.5 113.4L400.45 113.25L400.5 113.05M402.35,113.45L402.45 113.65L402.35 113.8L402.2 113.9L402 113.8L401.95 113.65L402 113.45L402.2 113.4L402.35 113.45M399,112.65L399.2 112.6L399.35 112.65L399.45 112.85L399.35 113L399.2 113.1L399 113L398.95 112.85L399 112.65M397.5,112.35L397.7 112.3L397.85 112.35L397.95 112.55L397.85 112.7L397.7 112.8L397.5 112.7L397.45 112.55L397.5 112.35M396,111.95L396.2 111.9L396.35 111.95L396.45 112.15L396.35 112.3L396.2 112.4L396 112.3L395.95 112.15L396 111.95M445.9,124.55L445.8 124.7L445.65 124.8L445.45 124.7L445.4 124.55L445.45 124.35L445.65 124.3L445.8 124.35L445.9 124.55M427.9,119.75L427.8 119.9L427.65 120L427.45 119.9L427.4 119.75L427.45 119.55L427.65 119.5L427.8 119.55L427.9 119.75M428.95,119.95L429.15 119.9L429.3 119.95L429.4 120.15L429.3 120.3L429.15 120.4L428.95 120.3L428.9 120.15L428.95 119.95M425.95,119.15L426.15 119.1L426.3 119.15L426.4 119.35L426.3 119.5L426.15 119.6L425.95 119.5L425.9 119.35L425.95 119.15M430.45,120.35L430.65 120.3L430.8 120.35L430.9 120.55L430.8 120.7L430.65 120.8L430.45 120.7L430.4 120.55L430.45 120.35M432.3,120.75L432.4 120.95L432.3 121.1L432.15 121.2L431.95 121.1L431.9 120.95L431.95 120.75L432.15 120.7L432.3 120.75M435.3,121.55L435.4 121.75L435.3 121.9L435.15 122L434.95 121.9L434.9 121.75L434.95 121.55L435.15 121.5L435.3 121.55M433.45,121.15L433.65 121.1L433.8 121.15L433.9 121.35L433.8 121.5L433.65 121.6L433.45 121.5L433.4 121.35L433.45 121.15M436.45,121.95L436.65 121.9L436.8 121.95L436.9 122.15L436.8 122.3L436.65 122.4L436.45 122.3L436.4 122.15L436.45 121.95M438.4,122.55L438.3 122.7L438.15 122.8L437.95 122.7L437.9 122.55L437.95 122.35L438.15 122.3L438.3 122.35L438.4 122.55M439.45,122.75L439.65 122.7L439.8 122.75L439.9 122.95L439.8 123.1L439.65 123.2L439.45 123.1L439.4 122.95L439.45 122.75M440.95,123.15L441.15 123.1L441.3 123.15L441.4 123.35L441.3 123.5L441.15 123.6L440.95 123.5L440.9 123.35L440.95 123.15M442.65,123.5L442.8 123.55L442.9 123.75L442.8 123.9L442.65 124L442.45 123.9L442.4 123.75L442.45 123.55L442.65 123.5M410.95,115.55L411.15 115.5L411.3 115.55L411.4 115.75L411.3 115.9L411.15 116L410.95 115.9L410.9 115.75L410.95 115.55M412.4,116.15L412.45 115.95L412.65 115.9L412.8 115.95L412.9 116.15L412.8 116.3L412.65 116.4L412.45 116.3L412.4 116.15M414.3,116.25L414.4 116.45L414.3 116.6L414.15 116.7L413.95 116.6L413.9 116.45L413.95 116.25L414.15 116.2L414.3 116.25M406.65,114.4L406.8 114.45L406.9 114.65L406.8 114.8L406.65 114.9L406.45 114.8L406.4 114.65L406.45 114.45L406.65 114.4M409.45,115.25L409.65 115.2L409.8 115.25L409.9 115.45L409.8 115.6L409.65 115.7L409.45 115.6L409.4 115.45L409.45 115.25M407.95,114.85L408.15 114.8L408.3 114.85L408.4 115.05L408.3 115.2L408.15 115.3L407.95 115.2L407.9 115.05L407.95 114.85M415.45,116.65L415.65 116.6L415.8 116.65L415.9 116.85L415.8 117L415.65 117.1L415.45 117L415.4 116.85L415.45 116.65M416.9,117.25L416.95 117.05L417.15 117L417.3 117.05L417.4 117.25L417.3 117.4L417.15 117.5L416.95 117.4L416.9 117.25M418.8,117.35L418.9 117.55L418.8 117.7L418.65 117.8L418.45 117.7L418.4 117.55L418.45 117.35L418.65 117.3L418.8 117.35M419.95,117.75L420.15 117.7L420.3 117.75L420.4 117.95L420.3 118.1L420.15 118.2L419.95 118.1L419.9 117.95L419.95 117.75M424.45,118.85L424.65 118.8L424.8 118.85L424.9 119.05L424.8 119.2L424.65 119.3L424.45 119.2L424.4 119.05L424.45 118.85M422.95,118.45L423.15 118.4L423.3 118.45L423.4 118.65L423.3 118.8L423.15 118.9L422.95 118.8L422.9 118.65L422.95 118.45M421.8,118.05L421.9 118.25L421.8 118.4L421.65 118.5L421.45 118.4L421.4 118.25L421.45 118.05L421.65 118L421.8 118.05M444.3,124.3L444.15 124.4L443.95 124.3L443.9 124.15L443.95 123.95L444.15 123.9L444.3 123.95L444.4 124.15L444.3 124.3" />
</g>
</svg>
