<?xml version="1.0" encoding="utf-8"?>
<svg version="1.1" id="Layer_1"
xmlns="http://www.w3.org/2000/svg"
xmlns:xlink="http://www.w3.org/1999/xlink"
xmlns:author="http://www.sothink.com"
width="487px" height="187px"
xml:space="preserve">
<g id="16" transform="matrix(1, 0, 0, 1, -66.5, -55.05)">
<path style="fill:#AAACAE;fill-opacity:1" d="M487.9,105L539.5 117.85L536.2 120.2L484.7 107.35L385 178.5L391.75 180.2L395.8 177.3L402.45 178.95L398.4 181.85L414.3 185.8L410.2 188.75L380.8 181.4L341 209.8L358.7 214.2L364.65 223.6L337.25 226.55L330.95 216.95L322.7 214.9L332.95 207.6L281.6 194.8L276.5 198.45L283.65 200.25L244.95 227.85L241.7 226.85L237.9 226.1L271.55 202.1L202.75 184.95L171.9 206.85L153.55 205.65L151.85 202.55L163.55 203.35L188.95 185.25L183.45 183.85L93.3 193.3L94.6 189.35L198.4 178.5L226.35 158.55L236.25 161L208.75 180.6L250.65 191.05L260.85 183.8L292.8 191.75L310.05 179.45L317.7 181.35L300.4 193.7L339.15 203.3L360.95 187.75L335.05 181.3L338.45 178.9L364.4 185.35L417.55 147.45L365.95 134.6L360.5 138.5L331.9 131.35L337.35 127.45L291.35 116L285.9 119.9L261.55 113.8L267.1 109.85L242.05 103.6L261.3 89.9L290.1 97.05L274.5 108.2L361.35 129.85L366.3 126.3L374.45 128.35L369.5 131.9L421.35 144.8L487.85 97.35L436.6 84.55L444.1 79.2L503.3 94L487.9 105" />
<path style="fill:#E7E8E9;fill-opacity:1" d="M83.8,219.5L66.5 215.2L84.45 167.05L110.1 148.4L91.55 198.55L152.1 202.5L153.9 205.75L90.4 201.6L83.8 219.5M213.15,235.75Q211.1 232.5 215.15 229.6Q219.2 226.7 227 225.9Q234.75 225.1 241.7 226.85Q248.65 228.6 250.75 231.85Q252.8 235.1 248.75 238Q244.7 240.9 236.9 241.7Q229.15 242.5 222.2 240.75Q215.25 239.05 213.15 235.75" />
<path style="fill:#97999B;fill-opacity:1" d="M503.8,96.2L493.05 103.9L539.5 115.45L541.3 114.05L541.45 113.95L546.25 109.6L547.5 108.2L547.5 108.15L548.5 106.95L548.7 106.75L549.7 105.35L549.8 105.15L550.45 104.2L551.7 101.7L552.5 99.25L552.6 98.65L552.7 98.35Q551.3 90.05 539.3 82.4L533.45 79.05L533.3 78.95L529.65 77.2L509.85 69.45L498.35 66L497.95 65.85L474.5 59.85L449.05 78L503.8 91.7L503.8 96.2M553.4,96.65L553.4 100.65L553.35 101.1L553.35 101.4L553.05 103.6L552.15 106.3L550.95 108.65L549.1 111.4L549.05 111.45L546.65 114.25L539.75 120.2L536.65 119.45L536.65 122.45L486.1 158.5L463.9 153L414.5 188.25L410.65 187.3L410.6 191L402.05 197.1L390.35 194.2L358.9 216.65L340.75 212.1L340.8 207.6L354.35 197.9L354.6 197.75L358.8 194.7L359.05 194.55L376.4 182.15L376.65 182L380.8 179L384.65 179.95L384.65 176.25L405.35 161.5L405.55 161.4L434.3 140.85L434.3 140.95L434.4 140.9L474.4 112.3L474.65 112.15L484.75 104.95L487.65 105.7L487.65 102.8L498.4 95.1L456.4 84.65L456.35 85.85L455.05 86.75L488.3 95.05L488.25 99.6L421.5 147.25L418.05 146.4L418 149.75L407 157.6L292.25 129L291.8 128.85L265.75 122.4L265.3 122.25L242.05 116.45L242.1 111.95L253.15 104.05L267.5 107.6L267.5 112.15L266.7 112.7L285.9 117.5L290.15 114.5L274.25 110.55L274.3 106L284.6 98.65L351.6 115.35L351.55 119.85L351.15 120.15L366.8 124.05L366.75 128.55L361.55 132.3L356.65 131.1L356.65 132.85L354.65 134.55L360.5 136.1L366 132.2L369.45 133.1L369.45 129.7L379.8 122.35L379.9 122.4L424.1 90.8L424.35 90.65L428.1 87.95L428.35 87.8L432.1 85.1L432.35 84.95L436.35 82.1L443.15 83.8L443.15 82.1L443.9 81.55L443.65 81.45L443.65 76.9L474.35 55.05L484.8 57.6Q523.1 67.2 539.75 77.75Q553.85 86.75 553.4 96.65M501.1,142.9L454.7 131.3L449.6 134.95L496 146.5L501.1 142.9M511.15,135.7L464.75 124.15L459.65 127.75L506.1 139.35L511.15 135.7M521.2,128.55L474.8 116.95L469.75 120.6L516.15 132.15L521.2 128.55M531.25,121.35L484.85 109.8L479.8 113.4L526.2 125L531.25 121.35M395.1,116.45L441.5 128.05L446.75 124.3L400.35 112.7L395.1 116.45M385,123.65L411.25 130.2L411.25 130.25L431.35 135.25L436.5 131.6L390.1 120L385 123.65M372.45,144.2L378.2 140.05L374.75 139.2L368.95 143.3L372.45 144.2M366.1,137.05L360.35 141.15L363.8 142.05L369.6 137.9L366.1 137.05M381.05,146.35L386.8 142.2L383.35 141.35L377.55 145.45L381.05 146.35M395.55,135.95L400.75 137.25L405.8 133.65L400.6 132.35L395.55 135.95M385.2,133.4L390.4 134.7L395.5 131.05L390.3 129.8L385.2 133.4M389.65,148.45L395.4 144.35L391.95 143.5L386.15 147.6L389.65 148.45M400.55,145.65L394.75 149.75L398.25 150.6L404 146.5L400.55 145.65M346.15,118.75L343.05 118L337.95 121.6L340.95 122.35L345.95 118.85L346.05 118.85L346.15 118.75M329.65,114.65L326.55 113.9L321.45 117.5L324.6 118.3L329.65 114.65M332.85,120.35L337.9 116.7L334.8 115.95L329.7 119.55L332.85 120.35M336.95,130.25L343.8 131.95L343.8 130.15L351.6 132.3L354.05 130.4L337.7 126.35L337.7 129.7L336.95 130.25M335.25,134.6L332 133.8L331.65 134L334.95 134.85L335.25 134.6M325.95,127.05L320.15 131.15L326.55 132.75L332.3 128.6L325.95 127.05M352,139.1L355.2 139.9L355.55 139.65L352.35 138.85Q352.2 139 352 139.1M338.25,176.7L371.55 152.9L397.95 159.5L397.9 164.05L364.6 187.8L361.5 187.05L361.45 190.05L347.85 199.75L347.75 199.75L339.25 205.8L300.15 196.05L300.2 191.5L317.85 178.9L330.65 182.1L335.1 178.9L338.2 179.7L338.25 176.7M333.45,187.6L321.05 196.5L323.65 197.15L336.05 188.25L333.45 187.6M341.2,189.55L328.75 198.4L331.35 199.05L343.8 190.2L341.2 189.55M325.75,185.65L313.3 194.55L315.9 195.2L328.35 186.3L325.75 185.65M396,179.75L392.8 182L398.25 183.35L398.3 180.3L396 179.75M456.75,117.15L410.3 105.6L405.3 109.15L451.7 120.75L456.75 117.15M466.85,109.95L420.45 98.35L415.3 102.05L461.7 113.6L466.85 109.95M410.9,139.8L415.95 136.2L410.9 134.95L405.85 138.55L410.9 139.8M421.35,142.4L426.4 138.8L421.15 137.5L416.1 141.1L421.35 142.4M439.55,142.1L485.95 153.7L491.05 150.05L444.65 138.5L439.55 142.1M439.2,165.7L414.9 159.6L410.7 162.6L435 168.65L439.2 165.7M412.65,148.65L409.15 147.75L403.35 151.9L406.85 152.75L412.65 148.65M405.7,166.2L394.1 174.5L418.35 180.55L429.95 172.25L405.7 166.2M444.25,162.1L458.7 151.75L434.45 145.7L419.95 156.05L444.25 162.1M346.15,208.7L358.75 211.8L367.3 205.7L354.75 202.55L346.15 208.7M342.6,198.45L340 197.8L336.5 200.35L339.1 201L342.6 198.45M333.4,209.85L327.9 213.8L331.45 214.65L331.4 219.2L306.4 237.05L253.65 223.9L253.65 219.35L278.65 201.5L278.75 201.4L276.2 200.8L276.25 196.25L281.65 192.4L333.45 205.3L333.4 209.85M325.9,208.25L320.65 211.95L322.8 212.5L328 208.75L325.9 208.25M201.3,166.8L214.05 157.75L129.8 136.75L110.25 150.85L100.35 177.2L125.6 174.5L125.6 174.55L183.45 168.45L183.5 168.55L189 177.1L198.35 176.15L204.05 172.05L201.25 171.35L201.3 166.8M173.4,174.25L167 174.95L169.65 179.2L176.1 178.5L173.4 174.25M179.3,178.15L185.75 177.45L183.05 173.25L176.65 173.95L179.3 178.15M163.8,175.3L157.35 175.95L160 180.2L166.45 179.5L163.8 175.3M183.1,186.25L156.05 189.2L173.85 193.6L183.95 186.45L183.1 186.25M189.35,187.55L163.8 205.75L163.5 205.75L163.5 208.5L152.75 239.2L83.5 221.8L83.55 217.25L90.25 199.05L91.15 199.1L91.15 196.3L93.15 190.95L93.3 190.95L94.35 190.85L94.4 187.2L97.9 177.45L98.1 177.4L109.8 146.25L129.65 131.9L226.95 156.15L226.9 160.7L198.65 180.85L186 182.2L189.4 183.05L189.35 187.55M199.6,192.8L199.6 197.35L190.9 203.55L246.5 217.4L266.4 203.2L202.95 187.4L196.45 192L199.6 192.8M209.05,168.5L221.5 159.6L219.1 159.05L206.7 167.9L209.05 168.5M208.55,178.4L208.65 178.3L236.4 158.55L310.55 177.1L310.55 181.65L292.85 194.25L269.75 188.5L269.7 188.5L261 186.3L250.95 193.5L250.85 193.5L250.35 193.35L250.05 193.3L208.5 182.95L208.55 178.4M232.05,184L238.85 185.7L243.95 182.05L237.15 180.35L232.05 184M237,175.5L269.5 183.65L281.95 174.75L236.55 163.4L213.9 179.5L226.9 182.75L237 175.5M313.15,110.55L310.15 109.8L305.05 113.4L308.1 114.15L313.15 110.55M316.35,116.25L321.4 112.6L318.3 111.8L313.2 115.45L316.35 116.25M285.8,122.6L292.1 124.15L297.85 120.05L291.5 118.45L286.4 122.1L286.4 122.15L285.8 122.6M303.55,127L309.35 122.9L303 121.3L297.2 125.45L303.55 127M314.45,124.15L308.7 128.3L315.05 129.9L320.85 125.75L314.45 124.15M265.95,117.3L261.3 116.15L261.3 111.6L262.1 111.05L253.3 108.85L247.45 113.05L265.6 117.55L265.95 117.3M270.75,118.85L280.7 121.3L281 121.05L271.05 118.6L270.75 118.85M255.9,185.05L249.1 183.35L244 187L250.8 188.7L255.9 185.05M281.65,197.35L283.75 197.85L283.9 197.75L281.8 197.25L281.65 197.35M294.8,177.95L282.35 186.85L285 187.5L297.45 178.6L294.8 177.95M292.7,189.4L305.15 180.55L302.55 179.9L290.1 188.75L292.7 189.4M96.7,186.75L108.7 185.5L106.05 181.35L98.3 182.15L96.7 186.75M115.7,180.35L109.25 181L111.9 185.2L118.35 184.55L115.7 180.35M107.55,197.2L116.6 197.8L113.85 193.6L105.65 194.45L107.55 197.2M140.7,182.2L147.15 181.55L144.5 177.3L138.05 178L140.7 182.2M134.85,178.3L128.4 179L131.05 183.2L137.5 182.55L134.85 178.3M127.85,183.55L125.2 179.3L118.9 180L121.55 184.2L127.85 183.55M126.7,192.25L130.85 198.75L137.8 199.25L132.95 191.6L126.7 192.25M150.35,181.2L156.8 180.55L154.15 176.3L147.7 176.95L150.35 181.2M136.2,191.3L141.4 199.5L148.4 199.95L142.45 190.6L136.2 191.3M117.15,193.2L120.35 198.05L127.25 198.5L123.5 192.55L117.15 193.2M161.4,208.55L90.6 203.8L85.6 217.55L152.4 234.3L161.4 208.55M318.5,206.4L313.25 210.1L315.55 210.7L320.8 206.95L318.5 206.4M305.85,208.3L308.15 208.85L313.4 205.1L311.1 204.55L305.85 208.3M296.3,200.85L291.1 204.6L293.35 205.15L298.6 201.4L296.3 200.85M300.75,207L306 203.25L303.7 202.7L298.45 206.45L300.75 207M285.95,203.3L291.2 199.55L289.05 199.05L283.9 202.7L283.8 202.75L285.95 203.3M271.8,204.3L246.65 222.25L177.65 205.05L177.7 200.5L202.8 182.55L271.85 199.75L271.8 204.3M259.05,220.45L306.25 232.2L326.05 218.1L278.8 206.35L259.05 220.45M163.6,201L168.85 197.2L146.55 191.65L152 200.2L163.6 201" />
</g>
</svg>
