<?xml version="1.0" encoding="utf-8"?>
<svg version="1.1" id="Layer_1"
xmlns="http://www.w3.org/2000/svg"
xmlns:xlink="http://www.w3.org/1999/xlink"
xmlns:author="http://www.sothink.com"
width="493px" height="220px"
xml:space="preserve">
<g id="15" transform="matrix(1, 0, 0, 1, -63.5, -52.2)">
<path style="fill:#373535;fill-opacity:0.2" d="M484.8,87.6Q523.1 97.2 539.75 107.75Q553.85 116.75 553.4 126.65L553.4 130.65L553.35 131.1L553.3 132.1L553.05 133.6L552.15 136.3L550.95 138.65L549.1 141.4L549.05 141.45L546.45 144.45L542.75 147.85L542.65 147.95L539.75 150.2L537.15 149.55L536.65 149.9L536.65 152.45L486.1 188.5L463.9 183L414.5 218.25L411.8 217.6L410.65 218.4L410.6 221L402.05 227.1L390.35 224.2L359.85 245.95L364.65 253.6L337.25 256.55L331.45 247.65L331.4 249.2L306.4 267.05L253.65 253.9L253.65 251.65L245 257.85Q250 259.75 251.1 262.6Q252.25 265.45 248.75 268Q244.7 270.9 236.9 271.7Q229.15 272.5 222.2 270.75Q215.25 269.05 213.15 265.75Q211.1 262.5 215.15 259.6Q218.65 257.15 225.1 256.15Q231.5 255.2 237.9 256.1L244.2 251.65L177.65 235.05L177.65 232.75L171.9 236.85L163.5 236.3L163.5 238.5L152.75 269.2L83.5 251.8L83.55 249.45L66.5 245.2L84.45 197.05L108.6 179.45L109.8 176.25L129.65 161.9L226.95 186.15L226.9 188.7L233.8 190.4L236.4 188.55L310.55 207.1L310.55 209.55L315.3 210.75L317.85 208.9L330.65 212.1L335.1 208.9L337.55 209.55L338.2 209.05L338.25 206.7L371.55 182.9L397.95 189.5L397.95 191.45L404.3 186.9L292.25 159L291.8 158.85L265.75 152.4L265.3 152.25L242.05 146.45L242.1 141.95L250.75 135.75L242.05 133.6L261.3 119.9L290.1 127.05L287.05 129.25L351.6 145.35L351.55 149.85L351.15 150.15L366.8 154.05L366.75 156.4L372.2 157.8L379.8 152.35L379.9 152.4L424.1 120.8L424.35 120.65L428.1 117.95L428.35 117.8L432.1 115.1L432.35 114.95L436.35 112.1L439.05 112.8L443.65 109.5L443.65 106.9L474.35 85.05L484.8 87.6M349.9,195.4L340.4 202.2Q339.15 203.05 336.8 203.3L332.25 203.05L281.8 190.45Q279.7 189.95 279.05 188.9Q278.4 187.9 279.65 187.05L302.25 170.9Q303.5 170.05 305.9 169.8L310.4 170.05L360.85 182.65Q363 183.2 363.6 184.2Q364.25 185.2 363 186.05L349.95 195.4L349.9 195.4" />
<linearGradient
id="LinearGradID_4" gradientUnits="userSpaceOnUse" gradientTransform="matrix(0.300873, 0, 0, 0.117645, 309.95, 148.55)" spreadMethod ="pad" x1="-819.2" y1="0" x2="819.2" y2="0" >
<stop  offset="0" style="stop-color:#2F94C8;stop-opacity:1" />
<stop  offset="0.317647" style="stop-color:#5C4995;stop-opacity:1" />
<stop  offset="0.678431" style="stop-color:#E870A6;stop-opacity:1" />
<stop  offset="1" style="stop-color:#E86E26;stop-opacity:1" />
</linearGradient>
<path style="fill:none;stroke-width:6;stroke-linecap:butt;stroke-linejoin:round;stroke-miterlimit:3;stroke:url(#LinearGradID_4) " d="M253.65,221.65L253.65 223.9L306.4 237.05L331.4 219.2L331.45 217.65L337.25 226.55L364.65 223.6L359.85 215.95L390.35 194.2L402.05 197.1L410.6 191L410.65 188.4L411.8 187.6L414.5 188.25L463.9 153L486.1 158.5L536.65 122.45L536.65 119.9L537.15 119.55L539.75 120.2L546.65 114.25L549.05 111.45L549.1 111.4L550.95 108.65L552.15 106.3L553.05 103.6L553.3 102.1L553.4 96.65L553.45 96.1Q553.45 86.5 539.75 77.75M474.15,55.2L443.65 76.9L443.65 79.5L439.05 82.8L436.35 82.1L432.35 84.95L432.1 85.1L428.35 87.8L428.1 87.95L424.35 90.65L424.1 90.8L379.9 122.4L379.8 122.35L372.2 127.8L366.75 126.4L366.8 124.05L351.15 120.15L351.55 119.85L351.6 115.35L287.05 99.25L290.1 97.05L261.3 89.9L242.05 103.6L250.75 105.75L242.1 111.95L242.05 116.45L265.3 122.25L265.75 122.4L291.8 128.85L292.25 129L404.3 156.9L397.95 161.45L397.95 159.5L371.55 152.9L338.25 176.7L338.2 179.05L337.55 179.55L335.1 178.9L330.65 182.1L317.85 178.9L315.3 180.75L310.55 179.55L310.55 177.1L236.4 158.55L233.8 160.4L226.9 158.7L226.95 156.15L129.65 131.9L109.8 146.25L108.6 149.45L84.45 167.05L66.5 215.2L83.55 219.45L83.5 221.8L152.75 239.2L163.5 208.5L163.5 206.3L171.9 206.85L177.65 202.75L177.65 205.05L244.2 221.65L237.9 226.1Q231.5 225.2 225.1 226.15Q218.65 227.15 215.15 229.6Q211.1 232.5 213.15 235.75Q215.25 239.05 222.2 240.75Q229.15 242.5 236.9 241.7Q244.7 240.9 248.75 238Q252.25 235.45 251.1 232.6Q250 229.75 245 227.85M244.95,227.85L244.9 227.8L245 227.85M553.3,97.55L553.25 97.85L553.3 97.45L553.3 97.55M553.1,98.75L553.05 99L553.1 98.7L553.1 98.75M551.1,102.95L551.25 102.65M550.6,103.9L550.75 103.65L550.7 103.65L550.6 103.9M544.45,111.35L544.2 111.6M541.45,113.95L542.1 113.4M545.75,110.05L546.1 109.7M552.6,98.65L552.55 99.05M332.25,173.05L336.8 173.3Q339.15 173.05 340.4 172.2L349.9 165.4L349.95 165.4L363 156.05Q364.25 155.2 363.6 154.2Q363 153.2 360.85 152.65L310.4 140.05L305.9 139.8Q303.5 140.05 302.25 140.9L279.65 157.05Q278.4 157.9 279.05 158.9Q279.7 159.95 281.8 160.45L303.95 166M346.15,208.7L358.75 211.8M328.75,198.4L331.35 199.05M336.5,200.35L339.1 201M185.75,177.45L179.3 178.15M279.6,176.45L269.5 183.65M297.4,178.6L297.45 178.6L296.25 179.45M305.15,180.55L292.7 189.4M156.8,180.55L150.35 181.2M127.85,183.55L121.55 184.2M124.6,174.65L124.4 174.65M85.6,217.55L152.4 234.3M298.45,206.45L300.75 207M315.55,210.7L320.8 206.95M146.55,191.65L152 200.2M117.15,193.2L120.35 198.05M315.9,195.2L328.35 186.3" />
<linearGradient
id="LinearGradID_5" gradientUnits="userSpaceOnUse" gradientTransform="matrix(0.300873, 0, 0, 0.117645, 309.95, 148.55)" spreadMethod ="pad" x1="-819.2" y1="0" x2="819.2" y2="0" >
<stop  offset="0" style="stop-color:#2F94C8;stop-opacity:1" />
<stop  offset="0.317647" style="stop-color:#5C4995;stop-opacity:1" />
<stop  offset="0.678431" style="stop-color:#E870A6;stop-opacity:1" />
<stop  offset="1" style="stop-color:#E86E26;stop-opacity:1" />
</linearGradient>
<path style="fill:none;stroke-width:6;stroke-linecap:round;stroke-linejoin:round;stroke-miterlimit:3;stroke:url(#LinearGradID_5) " d="M539.75,77.75Q523.8 67.6 474.15 55.2M303.95,166L314.25 158.65M285,187.5L296.25 179.45M124.4,174.65L123.55 174.75M115.45,175.6L123.55 174.75" />
<linearGradient
id="LinearGradID_6" gradientUnits="userSpaceOnUse" gradientTransform="matrix(0.300873, 0, 0, 0.117645, 309.95, 148.55)" spreadMethod ="pad" x1="-819.2" y1="0" x2="819.2" y2="0" >
<stop  offset="0" style="stop-color:#2F94C8;stop-opacity:1" />
<stop  offset="0.317647" style="stop-color:#5C4995;stop-opacity:1" />
<stop  offset="0.678431" style="stop-color:#E870A6;stop-opacity:1" />
<stop  offset="1" style="stop-color:#E86E26;stop-opacity:1" />
</linearGradient>
<path style="fill:none;stroke-width:6;stroke-linecap:round;stroke-linejoin:round;stroke-miterlimit:3;stroke:url(#LinearGradID_6) " d="M245,227.85L244.95 227.85M296.25,179.45L297.4 178.6M303.95,166L332.25 173.05" />
<linearGradient
id="LinearGradID_7" gradientUnits="userSpaceOnUse" gradientTransform="matrix(0.300873, 0, 0, 0.117645, 309.95, 148.55)" spreadMethod ="pad" x1="-819.2" y1="0" x2="819.2" y2="0" >
<stop  offset="0" style="stop-color:#2F94C8;stop-opacity:1" />
<stop  offset="0.317647" style="stop-color:#5C4995;stop-opacity:1" />
<stop  offset="0.678431" style="stop-color:#E870A6;stop-opacity:1" />
<stop  offset="1" style="stop-color:#E86E26;stop-opacity:1" />
</linearGradient>
<path style="fill:none;stroke-width:6;stroke-linecap:butt;stroke-linejoin:round;stroke-miterlimit:3;stroke:url(#LinearGradID_7) " d="M245,227.85L253.65 221.65M123.55,174.75L124.6 174.65" />
<path style="fill:#97999B;fill-opacity:1" d="M338.7,147.15L328.4 154.45L332.2 155.4L330 157L353.5 162.85L349.95 165.4L326.4 159.55L324.2 161.1L320.45 160.15L310.15 167.5L303.95 166L314.25 158.65L310.5 157.7L312.7 156.1L289.2 150.25L292.8 147.7L316.25 153.55L318.45 152L322.25 152.95Q327.4 149.3 332.5 145.6L338.7 147.15" />
<path style="fill:#97999B;fill-opacity:1" d="M363.6,154.2Q364.25 155.2 363 156.05L353.5 162.85L330 157L332.2 155.4L328.4 154.45L338.7 147.15L332.5 145.6Q327.4 149.3 322.25 152.95L318.45 152L316.25 153.55L292.8 147.7L289.2 150.25L312.7 156.1L310.5 157.7L314.25 158.65L303.95 166L281.8 160.45Q279.7 159.95 279.05 158.9Q278.4 157.9 279.65 157.05L302.25 140.9Q303.5 140.05 305.9 139.8L310.4 140.05L360.85 152.65Q363 153.2 363.6 154.2M324.2,161.1L326.4 159.55L349.9 165.4L340.4 172.2Q339.15 173.05 336.8 173.3L332.25 173.05L310.15 167.5L320.45 160.15L324.2 161.1" />
<path style="fill:#97999B;fill-opacity:1" d="M487.9,105L539.5 117.85L536.2 120.2L484.7 107.35L385 178.5L391.75 180.2L395.8 177.3L402.45 178.95L398.4 181.85L414.3 185.8L410.2 188.75L380.8 181.4L341 209.8L358.7 214.2L364.65 223.6L337.25 226.55L330.95 216.95L322.7 214.9L332.95 207.6L281.6 194.8L276.5 198.45L283.65 200.25L244.95 227.85L241.7 226.85L237.9 226.1L271.55 202.1L202.75 184.95L171.9 206.85L153.55 205.65L151.85 202.55L163.55 203.35L188.95 185.25L183.45 183.85L93.3 193.3L94.6 189.35L198.4 178.5L226.35 158.55L236.25 161L208.75 180.6L250.65 191.05L260.85 183.8L292.8 191.75L310.05 179.45L317.7 181.35L300.4 193.7L339.15 203.3L360.95 187.75L335.05 181.3L338.45 178.9L364.4 185.35L417.55 147.45L365.95 134.6L360.5 138.5L331.9 131.35L337.35 127.45L291.35 116L285.9 119.9L261.55 113.8L267.1 109.85L242.05 103.6L261.3 89.9L290.1 97.05L274.5 108.2L361.35 129.85L366.3 126.3L374.45 128.35L369.5 131.9L421.35 144.8L487.85 97.35L436.6 84.55L444.1 79.2L503.3 94L487.9 105" />
<path style="fill:#97999B;fill-opacity:1" d="M83.8,219.5L66.5 215.2L84.45 167.05L110.1 148.4L91.55 198.55L152.1 202.5L153.9 205.75L90.4 201.6L83.8 219.5M213.15,235.75Q211.1 232.5 215.15 229.6Q219.2 226.7 227 225.9Q234.75 225.1 241.7 226.85Q248.65 228.6 250.75 231.85Q252.8 235.1 248.75 238Q244.7 240.9 236.9 241.7Q229.15 242.5 222.2 240.75Q215.25 239.05 213.15 235.75" />
<path style="fill:#A1A1A1;fill-opacity:1" d="M338.7,147.15L328.4 154.45L332.2 155.4L330 157L353.5 162.85L349.95 165.4L326.4 159.55L324.2 161.1L320.45 160.15L310.15 167.5L303.95 166L314.25 158.65L310.5 157.7L312.7 156.1L289.2 150.25L292.8 147.7L316.25 153.55L318.45 152L322.25 152.95Q327.4 149.3 332.5 145.6L338.7 147.15" />
</g>
</svg>
