<?xml version="1.0" encoding="utf-8"?>
<svg version="1.1" id="Layer_1"
xmlns="http://www.w3.org/2000/svg"
xmlns:xlink="http://www.w3.org/1999/xlink"
xmlns:author="http://www.sothink.com"
width="947px" height="541px"
xml:space="preserve">
<g id="0" transform="matrix(1, 0, 0, 1, -100, -74.3)">
<path style="fill:none;stroke-width:8;stroke-linecap:butt;stroke-linejoin:round;stroke-miterlimit:3;stroke:#00C2FF;stroke-opacity:1" d="M263.75,307.35L264.25 307.45L263.7 307.4L263.75 307.35M253.55,314.4L253.2 314.6L253.3 309.5L254.6 308.6L254.6 313.25L255.05 313.35L253.55 314.4M233,332.95L231.2 332.45L233 331.2L233 332.95M235.05,337.2L254.25 341.95L254.8 342.15L235 337.2L235.05 337.2M263.45,336.15L265.3 336.6L263.35 336.2L263.45 336.15M261,295.6L244.6 307.3M455.95,349.4L439.95 360.75L430.45 358.4L446.35 346.95L455.95 349.4M521.25,314.3L513.3 312.35L517.3 309.5L517.3 313.25L521.2 314.25L521.25 314.3M508.05,303L513 304.15M856.4,131.85L847.2 132.8L847.25 132.75L856.45 131.8L856.4 131.85M698.35,244.8L704.8 240.2M605.85,294L605.1 294.5L605.8 293.95L605.85 294M556.2,282.3L553.25 281.65L553.35 276.15L547.65 274.75L551.95 271.65L566.15 275.2L556.2 282.3M585.35,308.6L587.05 307.4M613.2,342.65L674.45 357.85L674.25 358.05L613.3 342.9L607.2 333.1L607.25 333.05L613.2 342.65M797.7,173.8L799.45 172.5M817.35,159.7L819.6 158.1M834.45,252.15L825.4 258.65L825.4 261.3L807.05 256.8L818.95 248.35L834.45 252.15M727.65,223.75L730 222.05M724.2,231.05L727.65 231.85L724.2 234.3L724.2 231.05M775.2,254.35L776.6 253.35M728.25,172.15L747 158.8M719.55,273.05L717.55 270.1L717.6 270.05L719.65 273L719.55 273.05M736.6,309.1L736.5 309.05L736.6 309L736.6 309.1M787.35,337.8L787.3 338.05L787.15 337.85L787.35 337.8M683.3,410.1L683.2 410L683.3 410L683.3 410.1M622.4,380.15L622.4 379.15L623.45 379.45L622.4 380.15M565.25,465.9L574.65 459.2M516.45,357.8L517.6 356.95L517.65 356.95L516.45 357.8M389.4,375.4L384.75 374.35L389.4 370.95L389.4 375.4M395.15,460.95L410.65 449.9M419.75,451.5L419.75 448.05L423.4 448.9L419.75 451.5M435.15,531.45L434.8 531.35L441.55 526.5L441.9 526.6L435.15 531.45M447.6,519.9L447.55 519.85L450.1 518.05L447.6 519.9M350.4,390.4L366.05 379.3M246.7,364.6L250.85 365.6L265.35 355.2M265.4,542.35L262.65 542.65M323.7,511.95L320.6 514.15L293.75 516.9L265.4 537.05M330.05,505.35L332.2 505.9M201.4,353.3L213.3 344.85M336.85,354.15L351.55 343.65M929,155.2L942.55 145.55M887.65,190.9L887.65 195.9L884.65 195.15L887.55 193.1L887.55 190.75L887.8 190.75L887.65 190.9M943.4,166.65L965.2 151.15" />
<path style="fill:none;stroke-width:8;stroke-linecap:round;stroke-linejoin:round;stroke-miterlimit:3;stroke:#00C2FF;stroke-opacity:1" d="M350.5,531.95L352.05 534.45M244.05,331.35L252.8 325.15M230.9,324.25L232.45 323.25M264.5,344.55L283.25 349.2M349.1,357.55L359.8 349.95M425.05,353.8L542.15 270.3M526.05,350.95L481.7 339.9M516.05,357.65L472.15 346.75M534.65,323.65L527.65 321.95M526.55,313.4L525.9 312.35M807.85,166.5L772.1 157.6M688.5,190.6L631.65 176.4M654.4,257.3L635.6 259.3L579.05 245.2M567.8,324.55L573.6 323.85M547.65,318.7L555.25 317.85M563.6,316.4L560.2 311.75M659.15,264.85L637.95 267.1M669.9,346.25L668.7 347.2M781.8,185.05L788.15 180.6M748.25,201.1L764.25 189.8M713.2,234.2L714.05 233.65M181.05,311.85L179 308.6M191.1,322.45L185 320.9M164.65,337.4L172.55 331.8M607.1,364.85L605.85 365.7M522.15,406.7L517.4 399.5M507.3,364.35L465.25 353.85M434.45,404.15L408.1 397.6M423.35,440.85L434.55 432.85M386.55,470.85L391.55 470.4M380.05,373.4L379.3 373.2M384.3,366.3L359.15 360.1M384.85,399L379.45 397.65M444.15,426.05L355.05 403.8M313.35,371.1L302.85 378.55M252.55,352.05L238 362.4M307.3,523.6L296.7 524.65M381.05,526.1L373.6 531.45M388.7,557.3L366.75 572.95L352.95 569.5M453.4,586.9L429.35 588.5L378.05 575.75M349.65,553.1L345.3 552.05M343.7,567.15L323.05 562.05M493.95,547.25L484 554.3M971.45,181.75L994.5 187.5M995.25,179.6L954.9 169.55" />
<path style="fill:none;stroke-width:8;stroke-linecap:round;stroke-linejoin:round;stroke-miterlimit:3;stroke:#00C2FF;stroke-opacity:1" d="M352.05,534.45L352.6 535.3L450.05 559.55L450.75 559.8L469.25 564.35L483.4 563.05L504.2 548.3L504.25 542.1L529.3 548.35L611.85 489.5L611.85 481.75L569.5 471.15L610.85 441.65L610.85 433.95L604.95 432.55L632.05 413.2L632.05 410.85L633.15 411.1L633.05 418.3L646.3 421.6L665.4 419.55L669.65 426.25L688.4 424.3L688.5 417.35L691.75 417L702.1 419.55L735.1 416.1L803.65 367.25L803.65 359.5L793.55 345.1L800.4 344.4L800.5 336.7L795.5 328.8L785.65 329.85L779.15 319.15L767.75 316.35L780.75 307.05L780.8 302.55L798.65 306.95L844.95 273.95L844.95 271.2L900.1 284.95L981.45 227L981.55 219.25L969.45 216.2L988.05 202.95L988.75 203.75L993.15 200.75L1002.8 203.1L1015.25 194.25L1015.25 192.65L1007.1 190.75L1011.35 187.65L1011.35 186.15L1028.75 184.55L1042.2 174.95L1042.2 167.25L1039.15 161.5L1014.55 155.4L1031.2 143.55L1031.3 135.8L800.8 78.3L776.7 95.9L776.7 95.95L776.1 95.9L760.45 97.7L704.65 137.5L704.55 140.05L676.75 133.1L595.35 191.2L595.3 198.85L619.85 205.05L567.55 242.35L560.45 240.5L534.4 259.2L375.2 219.45L270.05 294.4L270.15 289.75L210.85 275.1L171.65 302.75L171.1 310.7L172.6 311.1L170.35 310.55L166.05 310.8L134.2 302.9L117.5 306.45L104 315L125.4 320.35L128.65 325.9L136.25 327.85L133.2 329.95L133.15 341.55L148.05 345.3L152.1 342.4L187.35 351.2L192.45 347.55L192.35 354.95L196.2 360.1L213.35 364.35L214.05 364.6L291.1 383.75L291.8 384L347.6 397.85L342.95 401.2L342.85 408.9L351.4 411.05L338.6 420.1L338.6 423.8L318.3 418.75L174.55 521.25L174.55 525.9L138.15 552.15L138.05 559.9L343.95 611.15L380.9 584.65L429.1 596.55L453.85 594.9L463.75 587.85L463.75 580.15L462.45 578.05L463.5 577.25L472.85 579.65L485.85 570.3L485.85 568.65L479.6 567.15L482.95 564.8L482.95 563.3L469 564.55L352.7 535.5L352.05 534.45M252.8,325.15L255.7 323.05L255.75 323.1L252.8 325.15M232.45,323.25L233.95 322.1L233.95 322.15L232.45 323.25M336.05,343.8L337.2 342.95L337.25 342.95L336.05 343.8L325.15 351.55L296.6 344.5L293.65 343.75L293.7 343.7L296.6 344.5M283.25,349.2L284.45 349.5L284.75 349.6L283.25 349.2M359.8,349.95L360.85 349.15L360.9 349.15L359.8 349.95M542.15,270.3L543.2 269.5L543.25 269.5L542.15 270.3M481.7,339.9L481.1 339.75L481.15 339.75L481.7 339.9M472.15,346.75L471.55 346.6L471.6 346.6L472.15 346.75M527.65,321.95L526.05 321.55L526 321.5L527.65 321.95M525.9,312.35L523.85 309.25L523.9 309.2L525.9 312.35M1019.1,143.85L1022.05 141.65L1022.1 141.7L1019.1 143.85L1005.95 153.2L787.25 98.65L784.6 98L784.65 98L787.25 98.65M772.1,157.6L769.35 156.9L769.4 156.85L772.1 157.6M631.65,176.4L628.8 175.75L628.85 175.7L631.65 176.4M579.05,245.2L576.2 244.55L576.25 244.5L579.05 245.2M573.6,323.85L575.7 323.6L575.6 323.65L573.6 323.85M555.25,317.85L557.8 317.5L557.8 317.55L555.25 317.85M560.2,311.75L558.95 310.2L559 310.2L560.2 311.75M637.95,267.1L635.7 267.35L635.75 267.3L637.95 267.1M668.7,347.2L667.45 348.05L667.4 348.05L668.7 347.2M788.15,180.6L789.15 179.8L789.2 179.8L788.15 180.6M764.25,189.8L765.25 189L765.3 189L764.25 189.8M714.05,233.65L715.05 232.9L715.1 232.9L714.05 233.65M179,308.6L177.7 306.6L177.75 306.6L179 308.6M185,320.9L185 320.95L180.5 319.85L180.5 319.8L185 320.9M172.55,331.8L173.7 330.95L173.75 330.95L172.55 331.8M195,337.4L196.1 336.55L196.15 336.55L195 337.4L187.1 342.95L176 340.25L173.4 339.6L173.45 339.55L176 340.25M605.85,365.7L604.6 366.6L604.55 366.6L605.85 365.7M517.4,399.5L516.3 397.85L516.35 397.85L517.4 399.5M412.7,373.4L409.85 372.7L409.9 372.65L412.7 373.4L419.75 375.15L430.45 367.55L431.5 366.8L431.55 366.8L430.45 367.55M465.25,353.85L462.4 353.15L462.45 353.1L465.25 353.85M408.1,397.6L406.75 397.25L406.85 397.25L408.1 397.6M434.55,432.85L435.7 432L435.75 432L434.55 432.85M391.55,470.4L393.6 470.2L393.5 470.25L391.55 470.4M379.3,373.2L376.85 372.55L376.85 372.5L379.3 373.2M359.15,360.1L357.85 359.75L357.9 359.75L359.15 360.1M379.45,397.65L376.05 396.85L376.15 396.8L379.45 397.65M355.05,403.8L352.1 403.05L352.15 403L355.05 403.8M261.65,368.3L259.6 367.8L259.6 367.75L261.65 368.3L263.7 368.8L274.85 360.85L276.7 359.55L276.7 359.6L274.85 360.85M302.85,378.55L300.3 377.95L300.35 377.9L302.85 378.55M238,362.4L235.1 361.7L235.15 361.65L238 362.4M358.25,487.3L360.75 485.4L360.8 485.45L358.25 487.3L347.25 495.15L258.1 472.9L255.15 472.2L255.2 472.15L258.1 472.9M296.7,524.65L294.15 524.9L294.2 524.85L296.7 524.65M373.6,531.45L372.55 532.15L372.5 532.15L373.6 531.45M352.95,569.5L352.45 569.35L352.5 569.35L352.95 569.5M378.05,575.75L375.45 575.15L375.5 575.1L378.05 575.75M345.3,552.05L344.2 551.75L344.3 551.75L345.3 552.05M323.05,562.05L321.9 561.75L322 561.75L323.05 562.05M484,554.3L482.95 555.05L482.9 555.05L484 554.3M994.5,187.5L995.05 187.65L995 187.65L994.5 187.5M954.9,169.55L952.15 168.9L952.2 168.85L954.9 169.55" />
<path style="fill:none;stroke-width:8;stroke-linecap:butt;stroke-linejoin:round;stroke-miterlimit:3;stroke:#00C2FF;stroke-opacity:1" d="M172.6,311.1L175.1 311.7" />
<path style="fill:#999999;fill-opacity:1" d="M1017.4,193.45L1004.9 202.3L995.2 199.9L990.8 202.95L987.55 198.9L861.65 167.5L814.55 201L817.65 205.75L817.65 207.3L797.25 221.9L783.4 223.3L718.7 269.5L724.45 277.95L724.45 279.55L709.1 290.5L659.8 295.7L608 332.7L614.15 342.55L683.85 359.9L683.85 361.4L664.65 375.1L595 357.75L569 360.45L516.8 397.7L529.65 417L529.65 418.55L514.45 429.25L492.35 431L424.95 479.05L427.15 483.7L427.15 485.25L407.1 499.6L394.15 501.05L350.45 532.15L352.7 535.75L469.4 564.9L483.4 563.6L483.4 565.15L480 567.55L486.3 569.05L486.3 570.7L473.2 580.05L463.85 577.65L458.25 581.65L453.15 573.65L360 550.45L337.95 552.75L325.2 561.75L296.65 564.75L272.6 558.8L265.4 546.9L265.4 545.35L293.6 525.2L320.55 522.4L364 491.45L361 487.1L361 485.6L380.8 471.5L393.65 470.3L461.05 422.2L446.85 399.15L328.35 369.65L311.2 371L279.25 363.1L275.05 357.4L220.5 343.8L208.25 344.9L199.85 342.8L199.85 341.25L204 338.3L170.25 329.85L145.55 329.95L127.95 325.55L124.7 319.95L103.2 314.55L116.7 306L133.45 302.4L165.4 310.3L169.75 310.05L174.75 311.35L179.95 319.4L237 333.6L237 335.25L234.6 336.85L325.05 359.35L331.6 354.7L336.45 362.25L455.7 391.9L484.35 388.85L535.75 352.15L529.4 341.25L507.8 335.8L492.1 336.5L470.15 331.15L470.15 329.6L499.8 308.45L521.9 313.9L526.6 321.1L548 326.4L576.3 323.25L624 289.25L621.1 279.15L621.1 277.6L636.25 266.8L686.55 261.45L752.45 214.2L749.8 209.85L749.8 208.3L770.2 193.7L783.1 192.35L826.8 161.15L821.35 152.65L821.35 151.05L848.4 131.8L858 130.8L860.15 129.25L817.2 118.55L817.2 117.05L821.55 113.9L915.05 137.2L915.05 138.8L908.6 143.3L909.95 145.7L909.95 147.2L897.55 156.15L902.1 163.1L997.05 186.8L1013.45 185.3L1013.45 186.8L1009.2 189.9L1017.4 191.85L1017.4 193.45" />
<path style="fill:#999999;fill-opacity:1" d="M1017.4,193.45L1004.9 202.3L995.2 199.9L990.8 202.95L987.55 198.9L861.65 167.5L814.55 201L817.65 205.75L817.65 207.3L797.25 221.9L783.4 223.3L718.7 269.5L724.45 277.95L724.45 279.55L709.1 290.5L659.8 295.7L608 332.7L614.15 342.55L683.85 359.9L683.85 361.4L664.65 375.1L595 357.75L569 360.45L516.8 397.7L529.65 417L529.65 418.55L514.45 429.25L492.35 431L424.95 479.05L427.15 483.7L427.15 485.25L407.1 499.6L394.15 501.05L350.45 532.15L352.7 535.75L469.4 564.9L483.4 563.6L483.4 565.15L480 567.55L486.3 569.05L486.3 570.7L473.2 580.05L463.85 577.65L458.25 581.65L453.15 573.65L360 550.45L337.95 552.75L325.2 561.75L296.65 564.75L272.6 558.8L265.4 546.9L265.4 545.35L293.6 525.2L320.55 522.4L364 491.45L361 487.1L361 485.6L380.8 471.5L393.65 470.3L461.05 422.2L446.85 399.15L328.35 369.65L311.2 371L279.25 363.1L275.05 357.4L220.5 343.8L208.25 344.9L199.85 342.8L199.85 341.25L204 338.3L171.3 330.15L184.45 320.5L237 333.6L237 335.25L234.6 336.85L325.05 359.35L331.6 354.7L336.45 362.25L455.7 391.9L484.35 388.85L535.75 352.15L529.4 341.25L507.8 335.8L492.1 336.5L470.15 331.15L470.15 329.6L499.8 308.45L521.9 313.9L526.6 321.1L548 326.4L576.3 323.25L624 289.25L621.1 279.15L621.1 277.6L636.25 266.8L686.55 261.45L752.45 214.2L749.8 209.85L749.8 208.3L770.2 193.7L783.1 192.35L826.8 161.15L821.35 152.65L821.35 151.05L848.4 131.8L858 130.8L860.15 129.25L817.2 118.55L817.2 117.05L821.55 113.9L915.05 137.2L915.05 138.8L908.6 143.3L909.95 145.7L909.95 147.2L897.55 156.15L902.1 163.1L997.05 186.8L1013.45 185.3L1013.45 186.8L1009.2 189.9L1017.4 191.85L1017.4 193.45" />
<path style="fill:#7F7F7F;fill-opacity:1" d="M991.65,193.45L991.55 201.1L971.4 215.45L983.55 218.5L983.45 226.25L901.85 284.4L846.55 270.65L846.55 273.35L800.05 306.5L782.2 302.1L782.1 306.6L769.1 315.95L780.5 318.75L787.05 329.45L796.9 328.45L801.9 336.35L801.8 344.05L794.95 344.75L805.15 359.2L805.05 366.95L736.3 416L703.2 419.45L692.85 416.9L689.55 417.25L689.45 424.2L670.65 426.2L666.4 419.45L647.2 421.5L633.95 418.2L634.05 410.95L632.95 410.7L632.95 413.1L605.75 432.45L611.7 433.9L611.7 441.65L570.2 471.25L612.7 481.85L612.7 489.6L529.9 548.65L504.75 542.35L504.65 548.6L483.85 563.35L469.65 564.75L451 560.15L450.35 559.9L352.6 535.55L349.6 530.8L349.7 523.1L362.95 513.55L367.05 514.65L367.15 510.6L393.4 491.9L393.4 491.35L394.25 491.3L394.35 491.2L394.6 491.2L407.1 489.85L424.15 477.7L424.1 477.6L424.15 469.55L424.6 469.6L438.85 459.4L439.3 459.15L454.4 448.3L454.85 448L464.6 441.05L465.05 440.8L475.75 433.05L476.25 432.8L484.6 426.75L485 426.5Q488.7 423.9 492.35 421.25L514.5 419.45L524.65 412.25L526.85 412.85L515.95 396.35L516.05 388.6L528.45 379.7L528.9 379.45L543.6 368.9L544 368.65L558.45 358.25L561.85 359.1L561.85 355.9L569.1 350.7L595.35 348L664.8 365.25L675.5 357.6L614.05 342.3L607.15 331.25L607.25 323.5L614.4 318.4L617.2 319.1L617.2 316.35L659.85 286L681.65 283.65L681.9 283.65L709.45 280.75L713.95 281.85L714 277.35L720.8 272.4L717.75 268.1L717.85 260.35L765.6 226.25Q765.85 226.15 766.05 226L783.45 213.6L797.25 212.15L814.05 200.15L813.7 199.65L813.8 191.9L829.7 180.55L830.15 180.25L841 172.45L843.45 173.05L843.55 170.65L861.85 157.65L988.25 189.2L991.65 193.45M774.8,228.15L845.15 245.7L845.1 253.35L836.1 259.9L901.6 276.25L943 246.65L807.85 213L797.75 220.2L783.95 221.6L774.8 228.15M816.35,206.95L951.5 240.6L974.3 224.4L884.45 201.95L877.45 206.95L823.4 193.45L818.05 197.2L818.5 197.8L818.4 205.5L816.35 206.95M764.4,235.5L809.9 246.85L811.75 245.45L766.3 234.15L764.4 235.5M885.8,174.05L888.2 172.35L885.8 171.75L885.8 174.05M876.6,177.55L853.65 171.85L852.65 172.55L875.6 178.3L876.6 177.55M880.2,190.4L841.25 180.7L838.8 182.4L877.75 192.1L880.2 190.4M886.4,194.3L889.35 195.05L889.35 190.05L889.55 189.9L889.3 189.9L889.3 192.25L886.4 194.3M898.05,183.85L907.5 177.2L896.85 174.6L887.5 181.2L898.05 183.85M926.2,198.8L968.35 209.35L985.95 196.75L943.75 186.2L926.2 198.8M935.1,184.1L916.15 179.35L898.55 191.9L917.4 196.6L935.1 184.1M646.2,304.1L708.75 319.65L708.65 327.4L677.15 349.85L684.25 351.65L789.25 345.85L788.65 345L788.75 337.35L786.35 337.6L779.65 326.65L767.5 323.65L763 326.8L755.4 324.95L755.4 320.6L737.8 316.25L737.8 308.55L740.8 306.4L681.7 291.7L660.3 294L646.2 304.1M636.6,310.9L691.9 324.7L693 323.9L637.75 310.15L636.6 310.9M611.4,328.85L614.9 334.4L641 340.85L649.1 335.15L614.65 326.55L611.4 328.85M595.2,356.05L573.45 358.35L605.4 366.35L613.4 360.55L595.2 356.05M623.25,378.9L623.25 379.95L624.35 379.15L623.25 378.9M614.05,380.3L558.7 366.5L552.75 370.75L608.1 384.6L614.05 380.3M614.05,368.45L633.5 373.3L633.45 381.05L611 397.1L642.6 405L642.6 412.15L647.4 413.45L667.1 411.3L671.35 418L684.25 416.65L684.35 409.7L693 408.75L703.4 411.4L711.7 410.45L688.7 379.35L622.05 362.75L614.05 368.45M683.5,330.7L628.15 316.95L626.4 318.25L681.7 332L683.5 330.7M684,359.7L673.4 367.45L689.45 371.45L717.85 409.85L735.8 408L800.55 361.75L794.75 353.6L684.35 359.7L684 359.6L684 359.7M676.45,341.95L657.75 337.25L649.75 343.05L668.45 347.7L676.45 341.95M523.35,398.4L581 412.75L581 420.5L579.95 421.25L602 426.7L623.75 411.2L529.15 387.6L520.4 393.9L523.35 398.4M530.35,408.85L571.2 419.05L571.8 418.6L529.9 408.15L530.35 408.85M495.5,429.05L555.4 444.05L555.3 451.75L543.35 460.25L565.95 465.95L602.5 439.8L524.9 420.5L515.05 427.45L495.5 429.05M500.4,482.55L439.55 467.3L433.25 471.8L494.2 486.95L500.4 482.55M510.35,469.95L455.1 456.2L447.95 461.3L503.2 475.05L510.35 469.95M520.45,462.75L465.2 448.95L463.6 450.15L518.85 463.9L520.45 462.75M546.2,449.9L485.3 434.7L484.95 434.95L545.9 450.15L546.2 449.9M537.4,456.2L476.45 440.95L473.7 442.9L534.65 458.15L537.4 456.2M427.9,483.4L411.05 495.35L464.7 508.7L464.6 516.45L456.55 522.25L529.65 540.4L603.5 487.7L530.5 469.55L494.45 495.2L427.9 478.6L427.9 483.4M433.15,524.5L378.45 510.9L376.2 512.45L430.95 526.15L433.15 524.5M442.2,526.8L441.85 526.75L435.05 531.6L435.4 531.65L442.2 526.8M440.75,540.75L431.75 547.15L450.75 551.9L467.85 539.75L444.05 533.85L440.75 536.25L440.75 540.75M431.55,538.9L406.15 532.5L397.55 538.65L422.95 545L431.55 538.9M483.4,555.4L495.55 546.7L476.5 541.95L459.5 554.1L469.8 556.65L483.4 555.4M455.55,514.6L394.6 499.35L386.95 504.9L447.9 520.1L455.55 514.6M826.9,260.7L826.9 258.05L836 251.5L820.45 247.7L808.55 256.2L826.9 260.7M815.15,265.95L782.55 257.8L776.85 261.85L740.3 252.8L733.75 257.45L802.85 274.7L815.15 265.95M801.4,252.85L756 241.55L748.7 246.75L776.6 253.7L782.25 249.55L799.85 253.95L801.4 252.85M801.55,297L724.9 277.85L723.1 279.15L799.8 298.25Q800.7 297.65 801.55 297M803.1,282.85L725.25 263.5L722.25 265.6L725.15 269.8L810.05 290.95L837.45 271.5L823.85 268.1L803.1 282.85M704.75,289.35L749.95 300.55L749.9 308.3L747 310.4L760.45 313.7L773 304.7L709.25 288.8L704.75 289.35M389.8,528.45L381.25 534.55L388.8 536.4L397.4 530.3L389.8 528.45M354.65,527.9L372.55 532.45L381.15 526.3L363.2 521.8L354.65 527.9" />
<path style="fill:#7F7F7F;fill-opacity:1" d="M1033.35,142.55L1016.7 154.45L1041.35 160.55L1044.4 166.35L1044.4 174.05L1030.9 183.65L997.15 186.8L901.85 163.1L896.5 154.85L896.6 147.1L907.75 139.2L907.75 135.4L862.45 124.1L862.45 127.9L858.45 130.7L848.85 131.75L825.45 148.5L828.15 152.8L828.15 160.55L784.9 191.75L784.9 192.25L783.8 192.35L783.45 192.45L783.3 192.35L770.95 193.7L754.3 205.75L754.3 205.95L754.05 205.85L753.95 213.95L753.45 213.85L729.05 231.2L725.4 230.35L725.4 234.1L687 261.45L636.65 266.7L623.6 276.05L624.95 280.9L625.1 281L625.1 288.75L625 288.75L625 289.15L624.6 289L576.75 323.15L548.1 326.45L526.4 321.05L521.75 313.8L517.85 312.8L517.85 309.05L513.75 311.95L500.05 308.55L479 323.6L484.7 325.05L484.7 328.75L488.6 325.95L492.35 326.9L508.25 326.3L529.65 331.55L529.9 331.55L530 331.65L530.6 331.85L530.65 332.75L533.3 337.35L533.3 337.25L537.05 343.75L536.95 351.55L484.75 388.85L455.8 392L447.6 389.95L462.4 413.75L462.35 421.5L423.8 448.95L420 448L420 451.75L394 470.2L381.25 471.5L365.15 482.85L365.35 483.05L365.25 490.8L320.95 522.4L294.05 525.1L269.3 542.9L269.2 545.6L270.75 545.45L273.1 549.15L296.9 555.1L325.2 552.15L337.9 543.15L360.25 540.75L453.75 564.05L464.1 580.55L464.1 588.25L454.15 595.35L429.35 597.05L381 585.05L343.9 611.65L137.35 560.2L137.45 552.5L174 526.15L174 521.45L276.85 448.1L277.3 447.85L318.15 418.6L338.55 423.7L338.55 419.95L351.4 410.9L342.8 408.75L342.9 401L347.6 397.7L291.65 383.75L290.9 383.5L213.6 364.3L212.85 364.05L195.7 359.8L191.85 354.6L191.95 347.2L186.85 350.85L151.5 342.05L147.4 344.9L132.45 341.2L132.55 329.55L145.8 320.35L170.7 320.25L206.4 329.2L206.3 336.6L208.2 335.3L220.75 334.2L237.95 338.45L237.95 339.2L238.25 338.95L250.15 341.95L250.6 341.6L275.25 347.7L275.6 347.55L276 347.9L276.6 348L276.6 348.25L280.15 353.5L311.45 361.4L328.3 360.05L328.3 360.8L328.6 360.55L328.6 360.05L329.3 359.95L329.3 360.65L336.2 362.35L336.25 362.15L336.1 362.1L336.1 361.85L331.7 354.95L325.3 359.45L284.95 349.4L284.25 349.15L254.65 341.85L253.9 341.6L232.65 336.35L232.65 330.8L230.8 332.1L179.7 319.35L174.5 311.25L170.5 310.25L171.05 302.25L210.4 274.55L269.9 289.25L269.8 293.9L375.3 218.7L535 258.55L561.1 239.85L568.25 241.65L599.2 219.55L599.6 219.3L620.7 204.25L596.05 198.05L596.1 190.4L677.8 132.1L705.7 139.05L705.75 136.5L761.8 96.55L777.45 94.75L778.1 94.85L778.1 94.75L802.25 77.1L1033.45 134.8L1033.35 142.55M1024.25,140.65L802.25 85.25L786 96.9L1008.05 152.2L1024.25 140.65M1040.4,168.45L975.8 152.4L954.05 167.95L997.3 178.75L1030.4 175.7L1040.4 168.45M780.15,149.15L818.8 158.75L821.1 157.15L782.45 147.55L780.15 149.15M821.1,143.15L847.2 124.5L816.8 116.95L816.8 112.7L777.25 102.85L762.2 104.55L714.8 138.35L759.85 149.6L776.3 137.85L821.1 149L821.1 143.15M760.5,163.2L799.1 172.9L800.9 171.6L762.2 162L760.5 163.2M738.65,173.05L783.2 184.2L790.6 178.9L746.05 167.8L738.65 173.05M729.5,171.25L748.25 157.85L678.05 140.3L629.7 174.85L749.45 204.65L749.55 200.35L766.65 188.2L729.5 178.9L729.5 171.25M716.25,232.2L625.1 209.45L623.25 210.8L714.35 233.5L716.25 232.2M744.7,211.65L621.2 180.85L605.3 192.15L654.2 204.4L664.95 196.7L739.6 215.3L744.7 211.65M731.2,221.35L665.25 204.9L662.85 206.55L728.8 223.05L731.2 221.35M810.3,164.8L771.75 155.2L770.7 155.95L809.3 165.55L810.3 164.8M930.85,154.25L944.45 144.55L920.4 138.55L900.95 152.4L902.65 155.1L915.45 158.35L923.65 152.5L930.85 154.25M953.2,146.7L931.35 162.25L945.3 165.75L967.15 150.2L953.2 146.7M608.35,221.4L699.5 244.1L705.95 239.5L614.75 216.8L608.35 221.4M592.4,232.8L678.4 254.3L686.5 253.45L691 250.25L599.85 227.45L592.4 232.8M655.45,256.7L583.9 238.85L576.9 243.85L636.5 258.65L655.45 256.7M620.85,277.5L546.3 258.9L543.65 260.7L621.6 280.15L620.85 277.5M574.8,277.35L615.15 287.45L615.95 286.85L575.55 276.85L574.8 277.35M564.6,316.35L576.3 315.15L577.7 314.15L559.65 309.75L564.6 316.35M587.8,306.9L542.75 295.7L541.05 296.9L586.1 308.1L587.8 306.9M565.5,283.95L605.9 294L606.65 293.5L566.3 283.4L565.5 283.95M597.4,300.05L552.45 288.8L551.25 289.65L596.3 300.9L597.4 300.05M627.85,264.7L561.35 248.1L554.7 252.8L621.2 269.45L627.85 264.7M548.25,274.2L553.95 275.55L553.85 281.1L556.85 281.75L566.9 274.6L552.6 271.05L548.25 274.2M513.5,303.7L544.7 281.4L539.75 280.25L508.55 302.5L513.5 303.7M527.2,313.05L548.25 318.3L558.45 317.1L558.05 316.45L525.15 308.3L524.4 308.8L527.2 313.05M470.55,329.6L455.1 340.6L460.1 341.85L475.5 330.8L470.55 329.6M462.75,352.8L507.8 364.05L508.5 363.55L463.45 352.3L462.75 352.8M481.55,339.4L526.6 350.6L532.8 346.1L532.3 345.15L517.5 347.3L503.3 343.75L502.35 343.55L482.65 338.65L481.55 339.4M471.95,346.3L517 357.5L518.15 356.65L473.1 345.45L471.95 346.3M430.7,358.1L440.25 360.45L456.3 349.1L446.7 346.6L430.7 358.1M428.65,377.05L455.95 383.85L484.25 380.8L485.55 379.85L440.5 368.65L428.65 377.05M446.6,397.6L410.9 388.7L410.2 389.2L447.1 398.4L446.6 397.6M421.85,364.05L410.05 372.45L420 374.9L431.8 366.5L421.85 364.05M543.85,268.95L375.55 226.95L263.45 306.9L263.95 307L263.85 314.75L262 316.1L345.2 336.85L348.6 334.45L425.25 353.5L543.85 268.95M436,431.95L360.05 413L347.65 421.85L423.55 440.8L436 431.95M456.2,417.5L398.5 403.15L388.45 410.3L353.8 401.6L352.1 402.9L444.5 425.9L456.2 417.5M453,408L407.6 396.7L406.9 397.1L453.4 408.65L453 408M337.1,342.6L336.7 342.9L305.1 335.05L293.45 343.4L325.05 351.2L337.2 342.6L337.1 342.6M348.85,342.6L335.7 352.05L336.8 353.85L351.55 343.3L348.85 342.6M336.55,362.45L353.25 366.6L353.45 366.5L349.35 365.5L348.7 365.25L336.7 362.25L336.55 362.45M349.1,357.25L360.9 348.85L356.95 347.8L345.2 356.2L349.1 357.25M296.85,332.5L285.85 329.8L273.7 338.45L284.7 341.2L296.85 332.5M311.6,369.5L300.15 377.75L302.7 378.3L315.6 369.15L311.6 369.5M302.8,367.35L283.5 362.6L272.1 370.65L291.4 375.5L302.8 367.35M345.3,372.3L328.7 368.2L311.45 380.55L328.05 384.6L345.3 372.3M350.4,390.2L367.7 377.9L353.95 374.5L336.7 386.8L350.4 390.2M405.3,356.75L405.3 357.25L405.8 356.8L405.3 356.75M357.85,359.45L384.4 366L396.1 357.6L369.7 350.95L357.85 359.45M376.9,372.3L376.8 376.8L381.5 373.5L376.9 372.3M382,381.45L364.75 393.8L367.45 394.45L384.7 382.15L382 381.45M385,398.8L402.25 386.5L393.4 384.35L376.15 396.7L385 398.8M389.5,370.65L384.8 374.05L389.5 375.2L389.5 370.65M231.9,287.8L210.4 282.55L209.95 282.6L183.1 301.55L183.35 301.55L177.15 306.15L180.45 311.45L196.45 315.35L234.1 288.4L232 287.8L231.9 287.8M228.9,312.35L242.1 315.7L244.2 314.15L244.2 306.85L260.7 295.1L242.85 290.7L205.2 317.55L217.35 320.6L228.9 312.35M229.15,320.6L226.1 322.75L230.55 323.85L233.6 321.7L229.15 320.6M252.95,309.05L252.9 314.15L253.25 314L254.75 312.85L254.25 312.8L254.25 308.1L252.95 309.05M197.2,335.05L183.45 331.55L172.8 339.2L186.6 342.6L197.2 335.05M213.35,356.05L229.5 344.5L225.75 343.65L209.6 355.1L213.35 356.05M196.7,351.9L200.95 353L215.25 342.8L208.7 343.3L196.7 351.9M174.75,329.45L170.35 328.35L145.95 328.45L141.6 331.4L164.05 337L174.75 329.45M274.75,327.5L263.1 335.8L265.05 336.25L276.7 327.9L274.75 327.5M266.05,325.3L264.1 324.75L252.45 333.1L254.4 333.6L266.05 325.3M250.85,349.85L234.7 361.4L237.65 362.1L253.8 350.6L250.85 349.85M275.15,356.15L259.25 367.55L263.45 368.55L277.1 358.75L275.15 356.15M262.6,352.75L246.35 364.3L250.5 365.3L266.75 353.75L262.6 352.75M243.7,331L255.45 322.65L253.5 322.15L241.85 330.45L243.7 331M225.95,359.2L242.1 347.65L238.2 346.7L222.05 358.25L225.95 359.2M239.7,483.05L332.1 506.1L338.75 501.3L246.35 478.3L239.7 483.05M254.85,472.25L347.25 495.3L360.85 485.6L360.75 485.4L360.75 477.7L361.7 477L277.55 456L254.85 472.25M146.55,554.25L343.65 603.5L372.3 582.85L312.55 567.95L309.05 561.9L296.75 563.2L272.35 557.15L270.05 553.6L261.55 554.45L175.95 533.1L146.55 554.25M265.15,542.65L265.15 537.35L293.5 517.15L320.45 514.3L323.6 512.1L231.2 489.1L183.2 523.35L261.9 542.95L265.15 542.65M380.75,463.4L393.55 462.2L410.8 449.9L318.4 426.85L285.95 450L370.1 470.95L380.75 463.4M347.6,550.2L339.85 551.05L349.6 553.4L347.6 550.2M325.75,560.2L317.65 561.05L343.65 567.55L351.4 562L330.5 556.8L325.75 560.2M352.4,569.75L366.8 573.3L390.4 556.5L376.05 552.85L352.4 569.75M453.75,587.35L459.85 582.9L453 572.05L399.15 558.6L375.55 575.5L429.6 588.95L453.75 587.35" />
</g>
</svg>
