<?xml version="1.0" encoding="utf-8"?>
<svg version="1.1" id="Layer_1"
xmlns="http://www.w3.org/2000/svg"
xmlns:xlink="http://www.w3.org/1999/xlink"
xmlns:author="http://www.sothink.com"
width="536px" height="310px"
xml:space="preserve">
<g id="79" transform="matrix(1, 0, 0, 1, 0.25, 0.25)">
<path style="fill:none;stroke-width:0.5;stroke-linecap:butt;stroke-linejoin:round;stroke-miterlimit:3;stroke:#B2B2B2;stroke-opacity:1" d="M45.15,116.05L63.8 120.7L36.95 139.85L27.55 137.55L24.55 132.75L22.4 132.25L45.15 116.05z" />
<path style="fill:none;stroke-width:0.5;stroke-linecap:butt;stroke-linejoin:round;stroke-miterlimit:3;stroke:#B2B2B2;stroke-opacity:1" d="M79.45,124.6L65.05 134.85L69.5 135.95L63.8 140.05L56.05 138.1L49.25 142.95L37.4 140L64.25 120.8L79.45 124.6M27.15,137.45L54 118.25" />
<path style="fill:none;stroke-width:0.5;stroke-linecap:butt;stroke-linejoin:round;stroke-miterlimit:3;stroke:#B2B2B2;stroke-opacity:1" d="M63.5,140.25L57 144.85L49.7 143.05L56.2 138.4L63.5 140.25z" />
<path style="fill:none;stroke-width:0.5;stroke-linecap:butt;stroke-linejoin:round;stroke-miterlimit:3;stroke:#B2B2B2;stroke-opacity:1" d="M21.6,142.95L28.9 144.75L17.9 152.6L0 148.15L7.25 143L21.6 142.95z" />
<path style="fill:none;stroke-width:0.5;stroke-linecap:butt;stroke-linejoin:round;stroke-miterlimit:3;stroke:#B2B2B2;stroke-opacity:1" d="M42.1,148.05L31.15 155.9L18.35 152.7L29.35 144.9L42.1 148.05z" />
<path style="fill:none;stroke-width:0.5;stroke-linecap:butt;stroke-linejoin:round;stroke-miterlimit:3;stroke:#B2B2B2;stroke-opacity:1" d="M171.55,162.3L126.45 151.1L124.45 152.5L70.8 139.15L76.65 134.95L71.65 133.7L142.3 83.3L246.05 109.15L171.55 162.3z" />
<path style="fill:none;stroke-width:0.5;stroke-linecap:butt;stroke-linejoin:round;stroke-miterlimit:3;stroke:#B2B2B2;stroke-opacity:1" d="M76.6,140.6L76.35 140.75L70.55 139.3L58.95 147.6L64.75 149.05L64.5 149.2L58.25 147.65L70.1 139.2L70.35 139.05L76.6 140.6z" />
<path style="fill:none;stroke-width:0.5;stroke-linecap:butt;stroke-linejoin:round;stroke-miterlimit:3;stroke:#B2B2B2;stroke-opacity:1" d="M82.6,142.35L71.05 150.6L65.2 149.15L76.8 140.9L82.6 142.35z" />
<path style="fill:none;stroke-width:0.5;stroke-linecap:butt;stroke-linejoin:round;stroke-miterlimit:3;stroke:#B2B2B2;stroke-opacity:1" d="M71.45,150.7L83.05 142.45L88.9 143.9L77.3 152.15L71.45 150.7z" />
<path style="fill:none;stroke-width:0.5;stroke-linecap:butt;stroke-linejoin:round;stroke-miterlimit:3;stroke:#B2B2B2;stroke-opacity:1" d="M88.85,155.05L77.75 152.25L89.3 144L100.45 146.8L88.85 155.05z" />
<path style="fill:none;stroke-width:0.5;stroke-linecap:butt;stroke-linejoin:round;stroke-miterlimit:3;stroke:#B2B2B2;stroke-opacity:1" d="M124.2,152.7L112.6 160.95L89.3 155.15L100.9 146.9L124.2 152.7z" />
<path style="fill:none;stroke-width:0.5;stroke-linecap:butt;stroke-linejoin:round;stroke-miterlimit:3;stroke:#B2B2B2;stroke-opacity:1" d="M126.65,151.35L132.9 152.95L119.5 162.5L116.85 158.35L126.65 151.35z" />
<path style="fill:none;stroke-width:0.5;stroke-linecap:butt;stroke-linejoin:round;stroke-miterlimit:3;stroke:#B2B2B2;stroke-opacity:1" d="M119.75,162.75L131.4 154.4L138.45 156.15L126.75 164.5L119.75 162.75z" />
<path style="fill:none;stroke-width:0.5;stroke-linecap:butt;stroke-linejoin:round;stroke-miterlimit:3;stroke:#B2B2B2;stroke-opacity:1" d="M159.15,161.35L147.5 169.65L127.2 164.6L138.85 156.3L159.15 161.35z" />
<path style="fill:none;stroke-width:0.5;stroke-linecap:butt;stroke-linejoin:round;stroke-miterlimit:3;stroke:#B2B2B2;stroke-opacity:1" d="M44.2,151.8L51.2 151.15L53.8 151.85L39.6 162L36.95 161.35L34.85 158.45L44.2 151.8z" />
<path style="fill:none;stroke-width:0.5;stroke-linecap:butt;stroke-linejoin:round;stroke-miterlimit:3;stroke:#B2B2B2;stroke-opacity:1" d="M40,162.1L54.25 151.95L61.1 153.65L46.9 163.8L40 162.1z" />
<path style="fill:none;stroke-width:0.5;stroke-linecap:butt;stroke-linejoin:round;stroke-miterlimit:3;stroke:#B2B2B2;stroke-opacity:1" d="M61.55,153.75L47.3 163.9L54.3 165.65L54.05 165.85L46.65 164L61.35 153.45L68.8 155.3L68.55 155.5L61.55 153.75z" />
<path style="fill:none;stroke-width:0.5;stroke-linecap:butt;stroke-linejoin:round;stroke-miterlimit:3;stroke:#B2B2B2;stroke-opacity:1" d="M75.45,157.2L61.2 167.35L54.75 165.75L69 155.6L75.45 157.2z" />
<path style="fill:none;stroke-width:0.5;stroke-linecap:butt;stroke-linejoin:round;stroke-miterlimit:3;stroke:#B2B2B2;stroke-opacity:1" d="M83,159.1L68.75 169.25L61.65 167.5L75.85 157.3L83 159.1z" />
<path style="fill:none;stroke-width:0.5;stroke-linecap:round;stroke-linejoin:round;stroke-miterlimit:3;stroke:#B2B2B2;stroke-opacity:1" d="M104.35,167.15L85.6 162.45L85.55 162.4L83.3 159.3L69.2 169.35L93.55 175.55L104.35 167.15L104.55 167.2L115.65 166.4L142.45 173L127.25 184.05L93.55 175.55" />
<path style="fill:none;stroke-width:0.5;stroke-linecap:butt;stroke-linejoin:round;stroke-miterlimit:3;stroke:#B2B2B2;stroke-opacity:1" d="M68.55,155.5L54.3 165.65L47.3 163.9L61.55 153.75L68.55 155.5z" />
<path style="fill:none;stroke-width:0.5;stroke-linecap:butt;stroke-linejoin:round;stroke-miterlimit:3;stroke:#B2B2B2;stroke-opacity:1" d="M76.35,140.75L64.75 149.05L58.95 147.6L70.55 139.3L76.35 140.75z" />
<path style="fill:none;stroke-width:0.5;stroke-linecap:butt;stroke-linejoin:round;stroke-miterlimit:3;stroke:#B2B2B2;stroke-opacity:1" d="M88.85,155.05L77.75 152.25L89.3 144L100.45 146.8L88.85 155.05z" />
<path style="fill:none;stroke-width:0.5;stroke-linecap:butt;stroke-linejoin:round;stroke-miterlimit:3;stroke:#B2B2B2;stroke-opacity:1" d="M89.05,155.35L77.45 152.45L89.55 143.8L101.15 146.7L89.05 155.35z" />
<path style="fill:none;stroke-width:0.5;stroke-linecap:butt;stroke-linejoin:round;stroke-miterlimit:3;stroke:#B2B2B2;stroke-opacity:1" d="M152.4,175.8L137.55 186.4L131.25 184.85L146.15 174.2L152.4 175.8z" />
<path style="fill:none;stroke-width:0.5;stroke-linecap:butt;stroke-linejoin:round;stroke-miterlimit:3;stroke:#B2B2B2;stroke-opacity:1" d="M162.7,178.35L147.85 188.95L137.95 186.5L152.85 175.9L162.7 178.35z" />
<path style="fill:none;stroke-width:0.5;stroke-linecap:butt;stroke-linejoin:round;stroke-miterlimit:3;stroke:#B2B2B2;stroke-opacity:1" d="M209,146.4L210.85 146.85L220.2 146.45L221.2 146.7L214.95 151.15L205.6 148.8L209 146.4z" />
<path style="fill:none;stroke-width:0.5;stroke-linecap:butt;stroke-linejoin:round;stroke-miterlimit:3;stroke:#B2B2B2;stroke-opacity:1" d="M217.55,151.8L215.4 151.25L221.6 146.85L232.35 149.5L217.55 151.8z" />
<path style="fill:none;stroke-width:0.5;stroke-linecap:butt;stroke-linejoin:round;stroke-miterlimit:3;stroke:#B2B2B2;stroke-opacity:1" d="M232.75,149.65L234.4 152.7L225.85 153.85L218.1 151.95L232.75 149.65z" />
<path style="fill:none;stroke-width:0.5;stroke-linecap:butt;stroke-linejoin:round;stroke-miterlimit:3;stroke:#B2B2B2;stroke-opacity:1" d="M199.75,153L230.9 160.75L225.5 164.65L194.3 156.85L199.75 153z" />
<path style="fill:none;stroke-width:0.5;stroke-linecap:butt;stroke-linejoin:round;stroke-miterlimit:3;stroke:#B2B2B2;stroke-opacity:1" d="M205.35,149L225.8 154.1L234.5 152.9L236.75 156.6L231.15 160.6L199.95 152.8L205.35 149z" />
<path style="fill:none;stroke-width:0.5;stroke-linecap:butt;stroke-linejoin:round;stroke-miterlimit:3;stroke:#B2B2B2;stroke-opacity:1" d="M184.4,153.55L198.2 143.7L205.85 145.6L192.05 155.45L184.4 153.55z" />
<path style="fill:none;stroke-width:0.5;stroke-linecap:butt;stroke-linejoin:round;stroke-miterlimit:3;stroke:#B2B2B2;stroke-opacity:1" d="M194.05,157.05L225.25 164.8L220.1 168.5L188.9 160.7L194.05 157.05z" />
<path style="fill:none;stroke-width:0.5;stroke-linecap:butt;stroke-linejoin:round;stroke-miterlimit:3;stroke:#B2B2B2;stroke-opacity:1" d="M188.65,160.9L219.85 168.65L216.45 171.1L185.25 163.3L188.65 160.9z" />
<path style="fill:none;stroke-width:0.5;stroke-linecap:butt;stroke-linejoin:round;stroke-miterlimit:3;stroke:#B2B2B2;stroke-opacity:1" d="M162.9,162.25L169.15 163.85L157.5 172.15L151.2 170.6L162.9 162.25z" />
<path style="fill:none;stroke-width:0.5;stroke-linecap:butt;stroke-linejoin:round;stroke-miterlimit:3;stroke:#B2B2B2;stroke-opacity:1" d="M185,163.5L216.2 171.25L212 174.25L180.8 166.5L185 163.5z" />
<path style="fill:none;stroke-width:0.5;stroke-linecap:butt;stroke-linejoin:round;stroke-miterlimit:3;stroke:#B2B2B2;stroke-opacity:1" d="M180.1,166.55L168.45 174.9L157.95 172.25L169.6 163.95L180.1 166.55z" />
<path style="fill:none;stroke-width:0.5;stroke-linecap:butt;stroke-linejoin:round;stroke-miterlimit:3;stroke:#B2B2B2;stroke-opacity:1" d="M189.6,180.15L168.9 175L180.55 166.7L211.75 174.45L206.25 178.35L189.6 180.15z" />
<path style="fill:none;stroke-width:0.5;stroke-linecap:butt;stroke-linejoin:round;stroke-miterlimit:3;stroke:#B2B2B2;stroke-opacity:1" d="M295.45,106.65L286.8 112.85L243 101.9L251.65 95.75L295.45 106.65z" />
<path style="fill:none;stroke-width:0.5;stroke-linecap:butt;stroke-linejoin:round;stroke-miterlimit:3;stroke:#B2B2B2;stroke-opacity:1" d="M288.45,119.5L236.5 106.55L242.75 102.1L286.65 113.05L288.45 119.5z" />
<path style="fill:none;stroke-width:0.5;stroke-linecap:butt;stroke-linejoin:round;stroke-miterlimit:3;stroke:#B2B2B2;stroke-opacity:1" d="M288.45,119.7L283.25 123.45L254.8 116.35L260 112.65L288.45 119.7z" />
<path style="fill:none;stroke-width:0.5;stroke-linecap:butt;stroke-linejoin:round;stroke-miterlimit:3;stroke:#B2B2B2;stroke-opacity:1" d="M283,123.6L277.8 127.3L249.35 120.25L254.55 116.5L283 123.6z" />
<path style="fill:none;stroke-width:0.5;stroke-linecap:butt;stroke-linejoin:round;stroke-miterlimit:3;stroke:#B2B2B2;stroke-opacity:1" d="M272.15,131.35L240.95 123.6L246.35 119.7L277.55 127.5L272.15 131.35z" />
<path style="fill:none;stroke-width:0.5;stroke-linecap:butt;stroke-linejoin:round;stroke-miterlimit:3;stroke:#B2B2B2;stroke-opacity:1" d="M246.55,116.55L223.45 133L215.85 131.15L238.95 114.65L246.55 116.55z" />
<path style="fill:none;stroke-width:0.5;stroke-linecap:butt;stroke-linejoin:round;stroke-miterlimit:3;stroke:#B2B2B2;stroke-opacity:1" d="M266.15,135.6L235 127.85L240.7 123.75L271.9 131.55L266.15 135.6z" />
<path style="fill:none;stroke-width:0.5;stroke-linecap:butt;stroke-linejoin:round;stroke-miterlimit:3;stroke:#B2B2B2;stroke-opacity:1" d="M250.1,135.85L230.6 130.95L234.7 128L265.9 135.8L260.4 139.75L253.5 140.45L250.1 135.85z" />
<path style="fill:none;stroke-width:0.5;stroke-linecap:butt;stroke-linejoin:round;stroke-miterlimit:3;stroke:#B2B2B2;stroke-opacity:1" d="M249.65,135.95L253 140.5L243.9 141.6L231.5 138.5L228.75 134.25L226.7 133.75L230.35 131.15L249.65 135.95z" />
<path style="fill:none;stroke-width:0.5;stroke-linecap:butt;stroke-linejoin:round;stroke-miterlimit:3;stroke:#B2B2B2;stroke-opacity:1" d="M187.7,189.5L158 182.1L163.15 178.45L184.15 183.7L187.7 189.5z" />
<path style="fill:none;stroke-width:0.5;stroke-linecap:butt;stroke-linejoin:round;stroke-miterlimit:3;stroke:#B2B2B2;stroke-opacity:1" d="M191.4,195.6L156.1 186.75L161.15 183.15L187.9 189.8L191.4 195.6z" />
<path style="fill:none;stroke-width:0.5;stroke-linecap:butt;stroke-linejoin:round;stroke-miterlimit:3;stroke:#B2B2B2;stroke-opacity:1" d="M182.85,204.9L123.8 190.15L129.55 186.05L149.95 191.15L155.85 186.95L191.55 195.85L192.85 197.75L182.85 204.9z" />
<path style="fill:none;stroke-width:0.5;stroke-linecap:butt;stroke-linejoin:round;stroke-miterlimit:3;stroke:#B2B2B2;stroke-opacity:1" d="M170.55,213.65L121.25 201.35L133.25 192.75L182.6 205.05L170.55 213.65z" />
<path style="fill:none;stroke-width:0.5;stroke-linecap:butt;stroke-linejoin:round;stroke-miterlimit:3;stroke:#B2B2B2;stroke-opacity:1" d="M139.1,231.4L84.9 217.9L108.75 200.9L167.8 215.6L152.9 226.25L145.35 226.95L139.1 231.4z" />
<path style="fill:none;stroke-width:0.5;stroke-linecap:butt;stroke-linejoin:round;stroke-miterlimit:3;stroke:#B2B2B2;stroke-opacity:1" d="M66.6,230.95L84.65 218.1L138.85 231.6L133.6 235.35L135.75 238.45L125.65 245.7" />
<path style="fill:none;stroke-width:0.5;stroke-linecap:butt;stroke-linejoin:round;stroke-miterlimit:3;stroke:#B2B2B2;stroke-opacity:1" d="M126.8,244.9L116.75 252.05L57.7 237.35L68.2 229.75" />
<path style="fill:none;stroke-width:0.5;stroke-linecap:butt;stroke-linejoin:round;stroke-miterlimit:3;stroke:#B2B2B2;stroke-opacity:1" d="M75.45,273.75L24.45 261.05L57.45 237.5L116.5 252.25L109.9 256.9L94.05 258.55L77.35 270.45L79.2 273.35L75.45 273.75z" />
<path style="fill:none;stroke-width:0.5;stroke-linecap:butt;stroke-linejoin:round;stroke-miterlimit:3;stroke:#B2B2B2;stroke-opacity:1" d="M126.35,273.4L133.25 272.7L142.2 274.9L137.5 278.25L127.9 275.85L126.35 273.4z" />
<path style="fill:none;stroke-width:0.5;stroke-linecap:butt;stroke-linejoin:round;stroke-miterlimit:3;stroke:#B2B2B2;stroke-opacity:1" d="M125.85,273.45L127.45 276L137.2 278.45Q135.15 279.95 133.05 281.4L116.05 277.15L120.5 274L125.85 273.45z" />
<path style="fill:none;stroke-width:0.5;stroke-linecap:butt;stroke-linejoin:round;stroke-miterlimit:3;stroke:#B2B2B2;stroke-opacity:1" d="M115.8,277.35L132.85 281.6L123.55 288.2L105.7 283.75L103.7 280.3L113 279.35L115.8 277.35z" />
<path style="fill:none;stroke-width:0.5;stroke-linecap:butt;stroke-linejoin:round;stroke-miterlimit:3;stroke:#B2B2B2;stroke-opacity:1" d="M155.8,278.3L137.15 291.6L124 288.3L142.6 275L155.8 278.3z" />
<path style="fill:none;stroke-width:0.5;stroke-linecap:butt;stroke-linejoin:round;stroke-miterlimit:3;stroke:#B2B2B2;stroke-opacity:1" d="M156.2,278.4L187.9 286.3L193.9 295.85L188.3 299.85L174.1 300.8L137.6 291.7L156.2 278.4z" />
<path style="fill:none;stroke-width:0.5;stroke-linecap:butt;stroke-linejoin:round;stroke-miterlimit:3;stroke:#B2B2B2;stroke-opacity:1" d="M81.65,277.55L95.95 281.15L103.25 280.35L105.3 283.9L145.1 293.85L123.55 309.35L2.9 279.25L24.95 263.4L75.3 276L80.3 275.45L81.65 277.55z" />
<path style="fill:none;stroke-width:0.5;stroke-linecap:butt;stroke-linejoin:round;stroke-miterlimit:3;stroke:#B2B2B2;stroke-opacity:1" d="M242.4,219.25L201.9 209.1L206.8 205.6L247.35 215.7L242.4 219.25z" />
<path style="fill:none;stroke-width:0.5;stroke-linecap:butt;stroke-linejoin:round;stroke-miterlimit:3;stroke:#B2B2B2;stroke-opacity:1" d="M235.8,223.95L195.3 213.85L201.65 209.3L242.15 219.4L235.8 223.95z" />
<path style="fill:none;stroke-width:0.5;stroke-linecap:butt;stroke-linejoin:round;stroke-miterlimit:3;stroke:#B2B2B2;stroke-opacity:1" d="M226.5,227.35L189.3 218.1L195.05 214L232.25 223.3L226.5 227.35z" />
<path style="fill:none;stroke-width:0.5;stroke-linecap:butt;stroke-linejoin:round;stroke-miterlimit:3;stroke:#B2B2B2;stroke-opacity:1" d="M217.35,233.9L180.15 224.65L189.05 218.25L226.25 227.55L217.35 233.9z" />
<path style="fill:none;stroke-width:0.5;stroke-linecap:butt;stroke-linejoin:round;stroke-miterlimit:3;stroke:#B2B2B2;stroke-opacity:1" d="M230.1,197.25L280.45 209.8L254.2 228.5L236.25 224.05L248 215.65L207.05 205.4L211.25 202.4L224.3 201.35L230.1 197.25z" />
<path style="fill:none;stroke-width:0.5;stroke-linecap:butt;stroke-linejoin:round;stroke-miterlimit:3;stroke:#B2B2B2;stroke-opacity:1" d="M212.05,240.9L171.5 230.8L179.9 224.8L220.4 234.9L212.05 240.9z" />
<path style="fill:none;stroke-width:0.5;stroke-linecap:butt;stroke-linejoin:round;stroke-miterlimit:3;stroke:#B2B2B2;stroke-opacity:1" d="M184.75,260.35L144.25 250.25L153.45 243.65L194 253.8L184.75 260.35z" />
<path style="fill:none;stroke-width:0.5;stroke-linecap:butt;stroke-linejoin:round;stroke-miterlimit:3;stroke:#B2B2B2;stroke-opacity:1" d="M174.8,263.95L137.95 254.75L144 250.45L180.85 259.65L174.8 263.95z" />
<path style="fill:none;stroke-width:0.5;stroke-linecap:butt;stroke-linejoin:round;stroke-miterlimit:3;stroke:#B2B2B2;stroke-opacity:1" d="M150.25,260.65L140.45 267.6L129.2 264.8L127.55 262.15L135 256.85L150.25 260.65z" />
<path style="fill:none;stroke-width:0.5;stroke-linecap:butt;stroke-linejoin:round;stroke-miterlimit:3;stroke:#B2B2B2;stroke-opacity:1" d="M159.8,263.05L150.05 270L140.9 267.75L150.65 260.75L159.8 263.05z" />
<path style="fill:none;stroke-width:0.5;stroke-linecap:butt;stroke-linejoin:round;stroke-miterlimit:3;stroke:#B2B2B2;stroke-opacity:1" d="M233.4,226.1L281.05 237.95L232.85 272.35L185.2 260.45L194.65 253.7L154 243.55L161.1 242.75L173.05 234.25L171.5 231.05L212.2 241.2L233.4 226.1z" />
<path style="fill:none;stroke-width:0.5;stroke-linecap:butt;stroke-linejoin:round;stroke-miterlimit:3;stroke:#B2B2B2;stroke-opacity:1" d="M170.15,275L150.45 270.1L160.25 263.15L179.9 268.05L170.15 275z" />
<path style="fill:none;stroke-width:0.5;stroke-linecap:butt;stroke-linejoin:round;stroke-miterlimit:3;stroke:#B2B2B2;stroke-opacity:1" d="M201.65,268.7L217.55 272.65L205.65 281.1L197.7 281.9L186.9 279.2L201.65 268.7z" />
<path style="fill:none;stroke-width:0.5;stroke-linecap:butt;stroke-linejoin:round;stroke-miterlimit:3;stroke:#B2B2B2;stroke-opacity:1" d="M201.25,268.6L186.5 279.1L170.6 275.15L180.6 268L177.85 267.3Q180.25 265.65 182.6 263.95L201.25 268.6z" />
<path style="fill:none;stroke-width:0.5;stroke-linecap:butt;stroke-linejoin:round;stroke-miterlimit:3;stroke:#B2B2B2;stroke-opacity:1" d="M286.85,163.2L277.4 169.9L252.5 163.7L256.4 160.95L271.45 159.35L286.85 163.2z" />
<path style="fill:none;stroke-width:0.5;stroke-linecap:butt;stroke-linejoin:round;stroke-miterlimit:3;stroke:#B2B2B2;stroke-opacity:1" d="M279.05,180.65L241.75 171.4L250 165.5L287.25 174.8L279.05 180.65z" />
<path style="fill:none;stroke-width:0.5;stroke-linecap:butt;stroke-linejoin:round;stroke-miterlimit:3;stroke:#B2B2B2;stroke-opacity:1" d="M274.65,183.8L237.4 174.5L241.5 171.55L278.75 180.85L274.65 183.8z" />
<path style="fill:none;stroke-width:0.5;stroke-linecap:butt;stroke-linejoin:round;stroke-miterlimit:3;stroke:#B2B2B2;stroke-opacity:1" d="M270.1,187.05L232.85 177.75L237.15 174.7L274.4 183.95L270.1 187.05z" />
<path style="fill:none;stroke-width:0.5;stroke-linecap:butt;stroke-linejoin:round;stroke-miterlimit:3;stroke:#B2B2B2;stroke-opacity:1" d="M343.1,195.6L335.05 196.4L328.95 194.9L323.9 195.45L326.3 199.3L316.2 200.35L313.75 196.4L302.15 197.6L294.95 195.85L299.35 192.7L276 186.85L294 174.05L277.85 170.05L287.3 163.3L312.65 169.55" />
<path style="fill:none;stroke-width:0.5;stroke-linecap:butt;stroke-linejoin:round;stroke-miterlimit:3;stroke:#B2B2B2;stroke-opacity:1" d="M257.35,200.95L233.25 194.95L229.4 189.1L262.4 197.35L257.35 200.95z" />
<path style="fill:none;stroke-width:0.5;stroke-linecap:butt;stroke-linejoin:round;stroke-miterlimit:3;stroke:#B2B2B2;stroke-opacity:1" d="M232.6,177.9L292.95 192.95L275.45 205.45L257.8 201.05L263.1 197.25L229.2 188.8L225.4 183.05L232.6 177.9z" />
<path style="fill:none;stroke-width:0.5;stroke-linecap:butt;stroke-linejoin:round;stroke-miterlimit:3;stroke:#B2B2B2;stroke-opacity:1" d="M362.45,131.25L323.05 121.45L338.6 119.8L380.75 130.35L368.6 139L356.05 135.85L362.45 131.25z" />
<path style="fill:none;stroke-width:0.5;stroke-linecap:butt;stroke-linejoin:round;stroke-miterlimit:3;stroke:#B2B2B2;stroke-opacity:1" d="M296.5,132.35L333.75 141.6L328.35 145.45L291.1 136.15L296.5 132.35z" />
<path style="fill:none;stroke-width:0.5;stroke-linecap:butt;stroke-linejoin:round;stroke-miterlimit:3;stroke:#B2B2B2;stroke-opacity:1" d="M322.3,149.75L285.1 140.45L290.85 136.35L328.1 145.65L322.3 149.75z" />
<path style="fill:none;stroke-width:0.5;stroke-linecap:butt;stroke-linejoin:round;stroke-miterlimit:3;stroke:#B2B2B2;stroke-opacity:1" d="M279.05,144.8L282.95 142L307.85 148.2L298.4 154.95L283 151.1L279.05 144.8z" />
<path style="fill:none;stroke-width:0.5;stroke-linecap:butt;stroke-linejoin:round;stroke-miterlimit:3;stroke:#B2B2B2;stroke-opacity:1" d="M323.95,152.25L314.5 158.95L298.8 155.05L308.25 148.3L323.95 152.25z" />
<path style="fill:none;stroke-width:0.5;stroke-linecap:butt;stroke-linejoin:round;stroke-miterlimit:3;stroke:#B2B2B2;stroke-opacity:1" d="M322.35,121.5L361.8 131.35L355.35 135.9L368.35 139.15L365.7 141.05L370.15 142.15L372.8 140.3L380 142.05L383.9 148.5L389.75 147.9L392.4 152.15L385.25 152.85L388.7 157.7L323.8 161.3L314.95 159.1L338.2 142.5L296.75 132.15L309.8 122.85L322.35 121.5z" />
<path style="fill:none;stroke-width:0.5;stroke-linecap:butt;stroke-linejoin:round;stroke-miterlimit:3;stroke:#B2B2B2;stroke-opacity:1" d="M312.5,169.6L323.9 161.5L388.85 157.9L394.35 165.75L354.15 194.45L342.35 195.75" />
<path style="fill:none;stroke-width:0.5;stroke-linecap:butt;stroke-linejoin:round;stroke-miterlimit:3;stroke:#B2B2B2;stroke-opacity:1" d="M443.8,63.05L437.6 67.45L410.05 60.6L416.2 56.2L443.8 63.05z" />
<path style="fill:none;stroke-width:0.5;stroke-linecap:butt;stroke-linejoin:round;stroke-miterlimit:3;stroke:#B2B2B2;stroke-opacity:1" d="M409.8,60.75L441.2 68.6L437.35 71.35L405.95 63.5L409.8 60.75z" />
<path style="fill:none;stroke-width:0.5;stroke-linecap:butt;stroke-linejoin:round;stroke-miterlimit:3;stroke:#B2B2B2;stroke-opacity:1" d="M405.7,63.7L437.55 71.6L441.65 68.7L499.15 83.05L481 96L396.8 75L402.75 70.75L400.55 67.35L405.7 63.7z" />
<path style="fill:none;stroke-width:0.5;stroke-linecap:butt;stroke-linejoin:round;stroke-miterlimit:3;stroke:#B2B2B2;stroke-opacity:1" d="M372.1,87.65L403.55 95.5L397.7 99.65L366.3 91.8L372.1 87.65z" />
<path style="fill:none;stroke-width:0.5;stroke-linecap:butt;stroke-linejoin:round;stroke-miterlimit:3;stroke:#B2B2B2;stroke-opacity:1" d="M405.55,107.5L393.6 116L348.2 104.7L356.8 98.6L378.3 103.95L381.7 101.55L405.55 107.5z" />
<path style="fill:none;stroke-width:0.5;stroke-linecap:round;stroke-linejoin:round;stroke-miterlimit:3;stroke:#B2B2B2;stroke-opacity:1" d="M360.8,95.75L366.05 92L397.45 99.8L391.85 103.85L381.55 101.25L381.5 101.25L378.1 103.65L357.05 98.4L360.8 95.75L381.5 101.25" />
<path style="fill:none;stroke-width:0.5;stroke-linecap:butt;stroke-linejoin:round;stroke-miterlimit:3;stroke:#B2B2B2;stroke-opacity:1" d="M396.55,75.2L480.75 96.2L451.7 116.95L408.45 106.15L418.5 98.95L372.4 87.45L382.5 80.25L390.6 79.45L396.55 75.2z" />
<path style="fill:none;stroke-width:0.5;stroke-linecap:butt;stroke-linejoin:round;stroke-miterlimit:3;stroke:#B2B2B2;stroke-opacity:1" d="M405.95,107.6L418.65 110.75L397.85 125.6L347.9 113.15L344.1 107.65L347.95 104.9L393.75 116.3L405.95 107.6z" />
<path style="fill:none;stroke-width:0.5;stroke-linecap:butt;stroke-linejoin:round;stroke-miterlimit:3;stroke:#B2B2B2;stroke-opacity:1" d="M391.8,129.9L342 117.5L347.8 113.35L397.6 125.8L391.8 129.9z" />
<path style="fill:none;stroke-width:0.5;stroke-linecap:butt;stroke-linejoin:round;stroke-miterlimit:3;stroke:#B2B2B2;stroke-opacity:1" d="M378.05,35.45L368.35 42.35L337.15 34.6L369.75 11.35L378.65 10.3L404.45 16.75L401.85 18.6L428.05 25.1L426.05 26.55L420.4 27.15L404.4 38.55L407.05 42.7L378.05 35.45z" />
<path style="fill:none;stroke-width:0.5;stroke-linecap:butt;stroke-linejoin:round;stroke-miterlimit:3;stroke:#B2B2B2;stroke-opacity:1" d="M514.35,43.9L379.05 10.15L393.3 0L528.6 33.7L514.35 43.9z" />
<path style="fill:none;stroke-width:0.5;stroke-linecap:butt;stroke-linejoin:round;stroke-miterlimit:3;stroke:#B2B2B2;stroke-opacity:1" d="M407.25,42.95L408.05 44.2L403.05 47.75L375.6 40.95L381.7 36.6L407.25 42.95z" />
<path style="fill:none;stroke-width:0.5;stroke-linecap:butt;stroke-linejoin:round;stroke-miterlimit:3;stroke:#B2B2B2;stroke-opacity:1" d="M397.45,51.75L370.05 44.9L375.35 41.1L402.8 47.95L397.45 51.75z" />
<path style="fill:none;stroke-width:0.5;stroke-linecap:butt;stroke-linejoin:round;stroke-miterlimit:3;stroke:#B2B2B2;stroke-opacity:1" d="M391.45,56.05L364.05 49.2L369.8 45.1L397.2 51.9L391.45 56.05z" />
<path style="fill:none;stroke-width:0.5;stroke-linecap:butt;stroke-linejoin:round;stroke-miterlimit:3;stroke:#B2B2B2;stroke-opacity:1" d="M360.3,48.5L391.2 56.2L382.1 62.7L351.2 55L360.3 48.5z" />
<path style="fill:none;stroke-width:0.5;stroke-linecap:butt;stroke-linejoin:round;stroke-miterlimit:3;stroke:#B2B2B2;stroke-opacity:1" d="M364.15,75.25L287.1 56L320.25 32.35L366.3 43.8L350.5 55.1L381.55 62.8L374.4 63.55L362.3 72.2L364.15 75.25z" />
<path style="fill:none;stroke-width:0.5;stroke-linecap:butt;stroke-linejoin:round;stroke-miterlimit:3;stroke:#B2B2B2;stroke-opacity:1" d="M356.45,81L312.55 70.05L306.2 74.6L272.75 66.25L286.85 56.2L364.2 75.5L356.45 81z" />
<path style="fill:none;stroke-width:0.5;stroke-linecap:butt;stroke-linejoin:round;stroke-miterlimit:3;stroke:#B2B2B2;stroke-opacity:1" d="M350.1,85.55L306.65 74.7L312.75 70.35L356.2 81.15L350.1 85.55z" />
<path style="fill:none;stroke-width:0.5;stroke-linecap:butt;stroke-linejoin:round;stroke-miterlimit:3;stroke:#B2B2B2;stroke-opacity:1" d="M341.6,91.7L283.3 77.2L289.15 73L347.45 87.55L341.6 91.7z" />
<path style="fill:none;stroke-width:0.5;stroke-linecap:butt;stroke-linejoin:round;stroke-miterlimit:3;stroke:#B2B2B2;stroke-opacity:1" d="M283.05,77.35L341.35 91.9L332.85 97.95L274.55 83.45L283.05 77.35z" />
<path style="fill:none;stroke-width:0.5;stroke-linecap:butt;stroke-linejoin:round;stroke-miterlimit:3;stroke:#B2B2B2;stroke-opacity:1" d="M274.3,83.6L332.6 98.15L325.2 103.45L320.45 103.95L265.15 90.15L274.3 83.6z" />
<path style="fill:none;stroke-width:0.5;stroke-linecap:butt;stroke-linejoin:round;stroke-miterlimit:3;stroke:#B2B2B2;stroke-opacity:1" d="M295.8,106.5L256.1 96.6L264.9 90.3L319.75 104L295.8 106.5z" />
<path style="fill:none;stroke-width:0.5;stroke-linecap:butt;stroke-linejoin:round;stroke-miterlimit:3;stroke:#B2B2B2;stroke-opacity:1" d="M462.4,31.2L456.85 35.15L455.9 33.4L459.85 30.55L462.4 31.2z" />
<path style="fill:none;stroke-width:0.5;stroke-linecap:butt;stroke-linejoin:round;stroke-miterlimit:3;stroke:#B2B2B2;stroke-opacity:1" d="M464.55,48.65L482.15 36.1L495 39.35L477.45 51.85L464.55 48.65z" />
<path style="fill:none;stroke-width:0.5;stroke-linecap:butt;stroke-linejoin:round;stroke-miterlimit:3;stroke:#B2B2B2;stroke-opacity:1" d="M508.05,59.5L477.9 51.95L495.45 39.45L533.5 48.95L535.25 52.15L527.5 57.7L508.05 59.5z" />
<path style="fill:none;stroke-width:0.5;stroke-linecap:butt;stroke-linejoin:round;stroke-miterlimit:3;stroke:#B2B2B2;stroke-opacity:1" d="M481.7,36L468.95 45.1L464.7 44.05L459.9 47.5L452.35 45.6L449.3 40.95L462.8 31.3L481.7 36z" />
<path style="fill:none;stroke-width:0.5;stroke-linecap:butt;stroke-linejoin:round;stroke-miterlimit:3;stroke:#B2B2B2;stroke-opacity:1" d="M460.3,47.6L464.9 44.35L468.7 45.3Q466.45 46.95 464.15 48.55L460.3 47.6z" />
<path style="fill:none;stroke-width:0.5;stroke-linecap:butt;stroke-linejoin:round;stroke-miterlimit:3;stroke:#B2B2B2;stroke-opacity:1" d="M441.7,55.55L436.4 59.3L418.2 54.8L423.5 51L441.7 55.55z" />
<path style="fill:none;stroke-width:0.5;stroke-linecap:butt;stroke-linejoin:round;stroke-miterlimit:3;stroke:#B2B2B2;stroke-opacity:1" d="M448.5,52.45L438.25 59.8L436.8 59.45L442.35 55.45L423.75 50.8L428.45 47.45L448.5 52.45z" />
<path style="fill:none;stroke-width:0.5;stroke-linecap:butt;stroke-linejoin:round;stroke-miterlimit:3;stroke:#B2B2B2;stroke-opacity:1" d="M448.95,52.6L459.85 55.3L449.6 62.6L438.7 59.9L448.95 52.6z" />
<path style="fill:none;stroke-width:0.5;stroke-linecap:butt;stroke-linejoin:round;stroke-miterlimit:3;stroke:#B2B2B2;stroke-opacity:1" d="M476.1,59.35L461 70.1L445.2 66.15L460.25 55.4L476.1 59.35z" />
<path style="fill:none;stroke-width:0.5;stroke-linecap:butt;stroke-linejoin:round;stroke-miterlimit:3;stroke:#B2B2B2;stroke-opacity:1" d="M504.1,68.2L490.95 77.6L461.45 70.2L476.5 59.45L502.25 65.85L504.1 68.2z" />
<path style="fill:none;stroke-width:0.5;stroke-linecap:butt;stroke-linejoin:round;stroke-miterlimit:3;stroke:#B2B2B2;stroke-opacity:1" d="M150.55,170.65L162.7 162L169.85 163.75L157.65 172.45L150.55 170.65z" />
</g>
</svg>
