<?xml version="1.0" encoding="utf-8"?>
<svg version="1.1" id="Layer_1"
xmlns="http://www.w3.org/2000/svg"
xmlns:xlink="http://www.w3.org/1999/xlink"
xmlns:author="http://www.sothink.com"
width="514px" height="341px"
xml:space="preserve">
<g id="42" transform="matrix(1, 0, 0, 1, -104.5, -56)">
<path style="fill:none;stroke-width:3;stroke-linecap:round;stroke-linejoin:round;stroke-miterlimit:3;stroke:#D74949;stroke-opacity:1" d="M221.5,355.75L375.85 394.55L464.6 353.25L464.65 346.9L465.15 347.05L474.5 341.15L481.15 342.8L539.85 317.6L539.9 309.15L497.6 298.65L526.6 277.95L559.5 286.2L598.85 257.75L598.95 248.6L523.75 215.3L523.75 213.3L524.2 213.5L527.5 211.5L533.5 214.5L616.75 155L616.5 144.5L506.5 65.5L484.7 64.5L476.6 63.6L485.35 174.2L485.15 174.25L485.15 173.65L478 84.6M475.95,87.1L442.85 77.35L442.85 77.5L442.7 77.45L433.35 74.75L402.75 96.85L402.6 105.35L438.35 114.75L388.35 150.2L358.75 142.7L326.45 166.1L326.25 174.6L373.5 186.5L239.25 282.25L226.6 278.7L220.5 283.1Q218.4 283.95 214.95 284.3Q208.15 285 200.1 282.95L198.6 284.7L169.6 277.35L106.45 322.85L106 332L110.75 332.65L110.5 340.5Q144.75 353.8 184.75 355.75M476.6,63.6L457.6 57.5L442.7 68.35L442.85 77.35L442.7 77.45M464.55,178.1L465.4 177.75Q465.85 177.6 466.25 177.4L466.3 177.4L465.4 177.75M463.65,178.4L461.25 179.6Q461 179.75 460.85 179.85L460.9 179.8L461.25 179.6M455.35,184.15L455.55 183.95L455.9 183.5M453.25,188.3L453.15 188.9M454.15,185.75L453.9 186.35M324.3,279.5L353 274.75M141.2,326.1L144.45 323.7L143.3 323.4M144.45,323.7L197.65 336.85L192.9 340.4L191.15 341.75L178.75 339.35M184.8,356.7L215.55 360.15L216.05 359.8L216.65 359.35L219.85 356.95L220.65 356.55L216.05 359.8" />
<path style="fill:#898A8B;fill-opacity:1" d="M531.45,191.4L531.45 193.4L531.3 194.3L531.3 194.45L530.95 195.6L530.9 195.65L530.45 196.65L530.4 196.8L528.7 198.95L527.45 200.1L525.1 201.8L524.05 202.4L524 202.5L532.85 205.8L532.85 207.55L523.75 214.05L509.95 207.4L505.45 208.15L498.5 208.8L494.95 208.95L488.85 208.9L488.8 208.85L384.1 283.55L388.05 295.75L388 297.45L373.5 307.85L481.45 334.75L481.45 336.4L465 346.85L369.15 322.95L369.15 321.25L372.85 318.65L299.7 300.2L299.7 298.5L325.4 280.15L355.65 275.2L459.55 201.15Q453.5 197.05 453.5 192.35L453.55 190.65Q453.6 186.4 458.8 182.6Q463.15 179.5 470.15 177.5Q476.9 175.6 485.1 174.95L476.45 65.5L476.45 63.8L505.65 66.5L513.1 177.3Q525.3 180.6 529.6 186.35Q531.5 188.8 531.45 191.4" />
<path style="fill:#D0D1D3;fill-opacity:1" d="M507.15,95.7L548.65 97.35L548.6 105.7L507.7 104.15L507.75 104.75L562.3 107.15L562.25 115.5L508.3 113.15L508.4 114.15L575.75 116.8L575.7 125.2L509 122.6L509.1 123.9L589.6 126.85L589.55 135.25L509.65 132.3L509.8 134.45L604.8 137.75L604.75 146.15L510.35 142.85L510.4 143.25L613.8 147.2L615.85 145.75L615.8 154.15L532.3 213.7L521.6 209.65L521.7 201.2L532.4 205.3L535.55 203.1L529.95 202.8L530 195.65L529.05 194.2L529.05 194.15L527.75 192.7L524.9 190.35L524.55 190.2L520.6 188L512.6 185.15L505.1 74.35L505.15 65.95L507.15 95.7M511.75,163.4L587 166.35L602.6 155.2L510.95 151.7L511.75 163.4M524.95,182L528.15 184.6L529.2 185.85L557.9 187.1L575.85 174.25L512.3 171.8L512.65 176.8L515.25 177.55L515.35 177.6L518.5 178.7L518.7 178.75L524.65 181.8L524.95 182M546.55,195.15L546.85 195L530.95 194.3L530.95 194.45L546.55 195.15M443.15,68.85L470.9 77.35L476.75 77.4L476.7 85.8L470.85 85.75L443.1 77.3L443.15 68.85M476.05,73.45L473.8 75.1L453.35 70L453.4 61.6L473.85 66.7L476.1 65.05L476.05 73.45M326.95,166.4L383.3 180.45L383.25 188.8L326.9 174.75L326.95 166.4M389.35,150.65L395.1 152.05L395.15 146.5L405.25 146.9L405.3 139.3L482.2 142.05L482.1 150.05L482.85 150.1L482.8 158.45L408.85 155.5L418.45 157.85L483.7 160.55L483.65 167L484.2 167L484.1 174.2L484.9 174.4L484.8 182.8L484.7 182.75L484.7 182.85L472.5 184.65L470.1 185.25L464.5 187.15L463.45 187.6Q462.25 188.1 460.7 188.9L458.25 190.45L455.85 192.5L455.5 192.9L454.95 193.55L454.6 193.95L453.45 196.1L453.15 197.25L453 198.55L453.05 189.9L453.2 188.85L453.25 188.7L453.3 188.4L453.6 187.5L454.65 185.55L454.9 185.25L455 185.15L455.85 184.15L455.9 184.1L458.35 182.1L458.7 181.85Q459.3 181.4 460.7 180.6L463.55 179.15L463.6 179.15L466.15 178.15L389.3 159L389.35 150.65M373.6,187.35L450.7 206.55L460.3 199.7L460.2 208.15L355.15 283.1L324.9 288.05L299.2 306.35L239.45 291.5L239.55 283.1L299.25 298L316.2 285.9L265.2 273.15L265.25 264.8L324.95 279.65L353.5 274.95L286.15 258.2L286.2 249.8L363.2 269L364.5 268.05L296.05 251L296.1 242.6L373.25 261.85L384.2 254L315.7 236.95L315.8 228.6L392.95 247.8L403.85 240L335.4 222.95L335.45 214.55L412.55 233.8L413.85 232.85L345.4 215.75L345.45 207.4L422.6 226.6L423.9 225.7L355.4 208.65L355.45 200.25L432.65 219.5L442 212.8L373.55 195.7L373.6 187.35M448.1,111.65L479.9 112.8L479.85 121.15L444.1 119.9L444.15 116.1L403 105.85L403.05 97.5L419.75 101.65L479.2 103.8L479.15 112.25L448.1 111.05L448.1 111.65M481.2,141.1L417.95 138.6L418 130.2L481.25 132.7L481.2 141.1M480.55,130.6L431.9 128.65L432 120.2L480.65 122.2L480.55 130.6M412.5,260.75L489.85 280L491.15 279.1L422.45 262L422.55 253.55L485.7 269.3L487 268.4L432.5 254.85L432.6 246.45L495.75 262.2L495.7 270.6L494.4 271.5L499.9 272.85L509.95 265.75L558.9 277.95L597.6 250.25L597.5 258.6L558.85 286.35L526.1 278.15L488.6 304.9L488.65 296.55L517.4 276L509.9 274.1L439.9 324L481 334.25L539.35 309.15L539.3 317.55L480.95 342.6L431.25 330.2L431.2 330.2L371.2 315.25L371.25 306.9L431.3 321.8L461 300.55L392.35 283.45L392.45 275.05L469.75 294.35L471.05 293.4L402.4 276.3L402.45 267.9L479.8 287.2L481.1 286.3L412.45 269.1L412.5 260.75M383.2,281.7L387.5 295.25L387.45 303.65L383.15 290.05L383.2 281.7M374.05,325.25L368.6 329.15L368.7 320.7L374.1 316.85L374.05 325.25M464.45,353L376.2 394.05L294.5 373.65L294.5 373.7L293.95 373.6L294 373.55L220.1 355.15L214.45 359.15L184.45 355.45L184.55 347.05L214.5 350.8L220.15 346.75L376.25 385.65L464.55 344.65L464.45 353M523.3,211.85L523.25 220.25L519.45 222.5L519.5 214.15L523.3 211.85M127.65,316.9L127.7 308.55L129.4 310.95L207.7 330.5L207.65 338.9L145 323.3L133.05 331.8L133.1 323.45L136.35 321.1L129.35 319.35L127.65 316.9M123.8,335.95L129.15 337.5L136.4 339.25L143.6 340.6L168.35 343.8L168.6 343.8L172.45 344.1L172.9 344.1L173.75 344.2L173.75 338.9L179.3 334.95L179.25 343.3L177.75 344.4L178.8 344.45L183.3 341.25L183.2 349.65L178.75 352.8L170.6 352.35L170.3 352.3L168.65 352.15L168.1 352.15L161.35 351.5L161.05 351.45L160.95 351.45L156.7 350.95L156.5 350.95L152.1 350.35L151.9 350.35L151.75 350.3L143.6 349.05L143.5 348.95L136.3 347.6L129.4 346L129.1 345.9L123.7 344.4L117.7 342.25L117.5 342.2L117.15 342L111.45 339.4L111.5 332.5L107.25 331.45L107.3 323.1L118.6 325.9L118.55 334.2L123.2 335.8L123.8 335.95" />
</g>
</svg>
