<?xml version="1.0" encoding="utf-8"?>
<svg version="1.1" id="Layer_1"
xmlns="http://www.w3.org/2000/svg"
xmlns:xlink="http://www.w3.org/1999/xlink"
xmlns:author="http://www.sothink.com"
width="510px" height="329px"
xml:space="preserve">
<g id="43" transform="matrix(1, 0, 0, 1, -107.65, -58.4)">
<path style="fill:none;stroke-width:1.75;stroke-linecap:butt;stroke-linejoin:round;stroke-miterlimit:3;stroke:#B2B2B2;stroke-opacity:1" d="M476.7,67.4L477.35 79.05L471.6 79.1L444.25 70L453.55 63L474.2 68.4L476.7 67.4z" />
<path style="fill:none;stroke-width:1.75;stroke-linecap:butt;stroke-linejoin:round;stroke-miterlimit:3;stroke:#B2B2B2;stroke-opacity:1" d="M505.85,67.25L549.45 98.7L508.7 97.25L505.85 67.25z" />
<path style="fill:none;stroke-width:1.75;stroke-linecap:butt;stroke-linejoin:round;stroke-miterlimit:3;stroke:#B2B2B2;stroke-opacity:1" d="M435.5,76.3L470.3 87.35L478.45 86.95L479.8 104.55L422.55 102.85L404.75 98.35Q420.15 87.3 435.5 76.3z" />
<path style="fill:none;stroke-width:1.75;stroke-linecap:butt;stroke-linejoin:round;stroke-miterlimit:3;stroke:#B2B2B2;stroke-opacity:1" d="M563,108.65L509.3 106.2L508.75 97.6L549.7 98.95L563 108.65z" />
<path style="fill:none;stroke-width:1.75;stroke-linecap:butt;stroke-linejoin:round;stroke-miterlimit:3;stroke:#B2B2B2;stroke-opacity:1" d="M422.25,102.95L480.05 104.9L480.6 113.65L444.55 112.4L448.7 109.4L422.25 102.95z" />
<path style="fill:none;stroke-width:1.75;stroke-linecap:butt;stroke-linejoin:round;stroke-miterlimit:3;stroke:#B2B2B2;stroke-opacity:1" d="M576.35,118.1L509.95 115.5L509.35 106.6L563.35 108.9L576.35 118.1z" />
<path style="fill:none;stroke-width:1.75;stroke-linecap:butt;stroke-linejoin:round;stroke-miterlimit:3;stroke:#B2B2B2;stroke-opacity:1" d="M444.75,112.45L480.55 113.8L481.15 122.75L432.9 120.8L444.75 112.45z" />
<path style="fill:none;stroke-width:1.75;stroke-linecap:butt;stroke-linejoin:round;stroke-miterlimit:3;stroke:#B2B2B2;stroke-opacity:1" d="M590.25,128.05L510.6 125.2L510 115.9L576.65 118.35L590.25 128.05z" />
<path style="fill:none;stroke-width:1.75;stroke-linecap:butt;stroke-linejoin:round;stroke-miterlimit:3;stroke:#B2B2B2;stroke-opacity:1" d="M432.65,121.05L481.25 123.1L481.85 133.05L419.25 130.55L432.65 121.05z" />
<path style="fill:none;stroke-width:1.75;stroke-linecap:butt;stroke-linejoin:round;stroke-miterlimit:3;stroke:#B2B2B2;stroke-opacity:1" d="M605.2,138.95L511.35 135.65L510.65 125.6L590.5 128.25L605.2 138.95z" />
<path style="fill:none;stroke-width:1.75;stroke-linecap:butt;stroke-linejoin:round;stroke-miterlimit:3;stroke:#B2B2B2;stroke-opacity:1" d="M419.15,130.65L482.05 133.4L482.95 142.25L406.95 139.4L419.15 130.65z" />
<path style="fill:none;stroke-width:1.75;stroke-linecap:butt;stroke-linejoin:round;stroke-miterlimit:3;stroke:#B2B2B2;stroke-opacity:1" d="M614,148.85L511.9 144.4L511.35 136L605.55 139.1L616.55 147.05L614 148.85z" />
<path style="fill:none;stroke-width:1.75;stroke-linecap:butt;stroke-linejoin:round;stroke-miterlimit:3;stroke:#B2B2B2;stroke-opacity:1" d="M406.85,139.4L482.95 142.6L483.55 150.1L397 146.5L406.85 139.4z" />
<path style="fill:none;stroke-width:1.75;stroke-linecap:butt;stroke-linejoin:round;stroke-miterlimit:3;stroke:#B2B2B2;stroke-opacity:1" d="M484.2,160.35L420.75 157.75L391.35 150.45L397 146.5L483.45 150.5L484.2 160.35z" />
<path style="fill:none;stroke-width:1.75;stroke-linecap:butt;stroke-linejoin:round;stroke-miterlimit:3;stroke:#B2B2B2;stroke-opacity:1" d="M587.15,167.2L513.15 164.3L511.95 144.75L613.9 148.9L587.15 167.2z" />
<path style="fill:none;stroke-width:1.75;stroke-linecap:butt;stroke-linejoin:round;stroke-miterlimit:3;stroke:#B2B2B2;stroke-opacity:1" d="M547.1,195.8L530.95 195.05Q533.2 190.75 530.4 186.75L557.75 188.15L547.1 195.8z" />
<path style="fill:none;stroke-width:1.75;stroke-linecap:butt;stroke-linejoin:round;stroke-miterlimit:3;stroke:#B2B2B2;stroke-opacity:1" d="M526.75,199.55Q529.3 197.7 530.8 195.1L546.55 196.15L532.95 206.05L522.2 202.05Q525.05 200.75 526.75 199.55z" />
<path style="fill:none;stroke-width:1.75;stroke-linecap:butt;stroke-linejoin:round;stroke-miterlimit:3;stroke:#B2B2B2;stroke-opacity:1" d="M452.3,165.6L422.65 158.25L484.3 160.75L484.75 166.75L452.3 165.6z" />
<path style="fill:none;stroke-width:1.75;stroke-linecap:butt;stroke-linejoin:round;stroke-miterlimit:3;stroke:#B2B2B2;stroke-opacity:1" d="M484.8,167.15L485.8 174.65L452.6 165.95L484.8 167.15z" />
<path style="fill:none;stroke-width:1.75;stroke-linecap:butt;stroke-linejoin:round;stroke-miterlimit:3;stroke:#B2B2B2;stroke-opacity:1" d="M558.3,187.75L530.4 186.55Q526.05 180.9 514.15 177.7L513.25 164.7L586.65 167.55L558.3 187.75z" />
<path style="fill:none;stroke-width:1.75;stroke-linecap:butt;stroke-linejoin:round;stroke-miterlimit:3;stroke:#B2B2B2;stroke-opacity:1" d="M453.1,192.2Q453.95 196.95 460.6 201L450.55 207.55L373.45 188.6L384.75 180.85L328.6 166.6L359.55 144.25L484.85 176Q476.35 176.7 469.45 178.5Q461.85 180.45 457.9 183.25Q452.25 187.3 453.1 192.2z" />
<path style="fill:none;stroke-width:1.75;stroke-linecap:butt;stroke-linejoin:round;stroke-miterlimit:3;stroke:#B2B2B2;stroke-opacity:1" d="M335.2,215.85L412.05 235L392.85 248.7L316.05 229.55L335.2 215.85z" />
<path style="fill:none;stroke-width:1.75;stroke-linecap:butt;stroke-linejoin:round;stroke-miterlimit:3;stroke:#B2B2B2;stroke-opacity:1" d="M315.65,229.85L392.4 249L373.25 262.7L296.5 243.55L315.65 229.85z" />
<path style="fill:none;stroke-width:1.75;stroke-linecap:butt;stroke-linejoin:round;stroke-miterlimit:3;stroke:#B2B2B2;stroke-opacity:1" d="M286.35,250.9L362.75 270.15L355.1 275.65L325.25 280.5L265.9 265.45L286.35 250.9z" />
<path style="fill:none;stroke-width:1.75;stroke-linecap:butt;stroke-linejoin:round;stroke-miterlimit:3;stroke:#B2B2B2;stroke-opacity:1" d="M432.5,220.4L355.65 201.25L373.25 188.7L450.1 207.85L432.5 220.4z" />
<path style="fill:none;stroke-width:1.75;stroke-linecap:butt;stroke-linejoin:round;stroke-miterlimit:3;stroke:#B2B2B2;stroke-opacity:1" d="M355.2,201.6L432.05 220.75L422.5 227.55L345.65 208.4L355.2 201.6z" />
<path style="fill:none;stroke-width:1.75;stroke-linecap:butt;stroke-linejoin:round;stroke-miterlimit:3;stroke:#B2B2B2;stroke-opacity:1" d="M345.1,208.8L422.05 227.9L412.5 234.7L335.55 215.6L345.1 208.8z" />
<path style="fill:none;stroke-width:1.75;stroke-linecap:butt;stroke-linejoin:round;stroke-miterlimit:3;stroke:#B2B2B2;stroke-opacity:1" d="M430.75,322.55L508.75 266.9L524.55 270.9L487.15 297.6L539.1 310.15L480.1 334.9L430.75 322.55z" />
<path style="fill:none;stroke-width:1.75;stroke-linecap:butt;stroke-linejoin:round;stroke-miterlimit:3;stroke:#B2B2B2;stroke-opacity:1" d="M597.95,251L518.85 215.5L524.1 212.7L509.6 205.85Q497.5 208.3 487.6 207.8L432.2 247.3L495.75 263.2L485.75 270.35L499.05 273.7L509.05 266.55L557.95 278.75L575.15 266.45L575.3 266.3L597.95 251z" />
<path style="fill:none;stroke-width:1.75;stroke-linecap:butt;stroke-linejoin:round;stroke-miterlimit:3;stroke:#B2B2B2;stroke-opacity:1" d="M422.15,254.75L499.1 274L489.55 280.85L412.65 261.55L422.15 254.75z" />
<path style="fill:none;stroke-width:1.75;stroke-linecap:butt;stroke-linejoin:round;stroke-miterlimit:3;stroke:#B2B2B2;stroke-opacity:1" d="M486.1,270.25L422.7 254.4L432.25 247.6L495.65 263.45L486.1 270.25z" />
<path style="fill:none;stroke-width:1.75;stroke-linecap:butt;stroke-linejoin:round;stroke-miterlimit:3;stroke:#B2B2B2;stroke-opacity:1" d="M296.2,243.8L372.8 263L363.25 269.85L286.65 250.6L296.2 243.8z" />
<path style="fill:none;stroke-width:1.75;stroke-linecap:butt;stroke-linejoin:round;stroke-miterlimit:3;stroke:#B2B2B2;stroke-opacity:1" d="M412.35,261.95L489.1 281.15L479.55 287.95L402.8 268.75L412.35 261.95z" />
<path style="fill:none;stroke-width:1.75;stroke-linecap:butt;stroke-linejoin:round;stroke-miterlimit:3;stroke:#B2B2B2;stroke-opacity:1" d="M402.4,268.95L479.1 288.3L469.55 295.1L392.85 275.75L402.4 268.95z" />
<path style="fill:none;stroke-width:1.75;stroke-linecap:butt;stroke-linejoin:round;stroke-miterlimit:3;stroke:#B2B2B2;stroke-opacity:1" d="M265.5,265.8L324.6 280.75L299.4 298.75L240.3 283.75L265.5 265.8z" />
<path style="fill:none;stroke-width:1.75;stroke-linecap:butt;stroke-linejoin:round;stroke-miterlimit:3;stroke:#B2B2B2;stroke-opacity:1" d="M227.55,280.65L374.6 317.85L368.2 321.75L465.55 345.65L376.35 386.25L220.5 347.4L214.8 351.45L184.45 348L208.9 331.35L129.8 311.85L127.95 309.6L170.8 278.9L199.6 286.4L201.1 285.1Q209.1 287 216.35 286.2Q219.95 285.8 222.1 285L227.55 280.65z" />
<path style="fill:none;stroke-width:1.75;stroke-linecap:butt;stroke-linejoin:round;stroke-miterlimit:3;stroke:#B2B2B2;stroke-opacity:1" d="M133.2,324.45L180.8 335.9L173.8 339.9L184.8 342.1L179.45 345.4L162.1 343.9Q144.55 341.9 131.65 338.65Q120 335.8 112.9 331.9L120.75 326.2L108.5 323.95L127.8 309.6L129.75 312.1L145.15 315.95L133.2 324.45z" />
<path style="fill:none;stroke-width:1.75;stroke-linecap:butt;stroke-linejoin:round;stroke-miterlimit:3;stroke:#B2B2B2;stroke-opacity:1" d="M392.55,275.9L469.1 295.45L431.15 322.5L370.8 308.05L387.95 296.25L383.1 282.75L392.55 275.9z" />
<path style="fill:none;stroke-width:1.75;stroke-linecap:butt;stroke-linejoin:round;stroke-miterlimit:3;stroke:#B2B2B2;stroke-opacity:1" d="M459,59.25L476.6 64.8L476.65 67.25L474.3 68.25L453.75 62.95L459 59.25z" />
</g>
</svg>
