<?xml version="1.0" encoding="utf-8"?>
<svg version="1.1" id="Layer_1"
xmlns="http://www.w3.org/2000/svg"
xmlns:xlink="http://www.w3.org/1999/xlink"
xmlns:author="http://www.sothink.com"
width="501px" height="334px"
xml:space="preserve">
<g id="41" transform="matrix(1, 0, 0, 1, -22.8, 0)">
<path style="fill:#292929;fill-opacity:1" d="M523.55,95.4L440.85 154.4L435.65 152.4L432.4 154.75L431.95 154.55L431.95 156.55L505.55 190.6L505.45 198.9L467.15 226.35L434.7 218.25L406.2 238.6L447.85 248.95L447.8 257.25L390 282.1L383.4 280.45L374.2 286.3L373.7 286.15L373.65 292.4L286.25 333.05L205.3 312.85L163.5 301.8Q121.2 290.7 118.65 290.45L124.3 283.8L90.15 283.05L94.6 277.35L67.1 282.3Q59.6 283.75 48.45 282Q34.55 279.75 31.45 273.4L29.6 268.55Q28.75 266.1 28.5 266.2L23.05 264.2L22.8 257.3L82.2 218.3L110.9 225.45L112.4 224.35Q120.35 226.35 127.35 225.45Q130.9 225.05 133.1 224.1L138.7 220.1L150.9 223.15L188.45 196.35L184.65 195.4L187.5 192.8Q188.5 192.1 192.45 190.35L191.55 194.15L284.6 127.6L237.4 115.85L237.45 107.55L269.65 84.55L299.25 91.95L348.85 56.6L312.8 47.6L312.85 39.3L344 17.1L378.8 27.95L386.85 27.75L393.9 115.5L393.9 116.1L394.1 116.05L385.55 7.6L385.55 5.95L413.95 8.55L413.95 8.05L523.6 87.1L523.55 95.4M385.85,19.4L385.8 27.7L380 27.65L352.5 19.3L352.55 10.95L367.9 0L385.1 5.4L385.85 19.4" />
</g>
</svg>
