<?xml version="1.0" encoding="utf-8"?>
<svg version="1.1" id="Layer_1"
xmlns="http://www.w3.org/2000/svg"
xmlns:xlink="http://www.w3.org/1999/xlink"
xmlns:author="http://www.sothink.com"
width="918px" height="526px"
xml:space="preserve">
<g id="10" transform="matrix(1, 0, 0, 1, -67.55, -48.15)">
<path style="fill:#4E85C8;fill-opacity:1" d="M250.15,89.55L250.15 108.2L247.35 108.2L247.35 105.5Q245.2 108.6 241.4 108.6L238.3 108Q236.9 107.4 236.2 106.4Q235.5 105.5 235.2 104.1L235.05 89.55L238.2 89.55L238.2 99.9Q238.2 102.5 238.4 103.25Q238.7 104.55 239.65 105.2Q240.55 105.9 242.05 105.9Q243.6 105.9 244.7 105.2Q246 104.45 246.5 103.2Q247 102 247 99.55L247 89.55L250.15 89.55M257.95,89.55L257.95 92.2Q259.95 89.15 263.9 89.15Q265.6 89.15 267 89.75Q268.4 90.35 269.1 91.35Q269.8 92.25 270.1 93.65L270.25 108.2L267.1 108.2L267.1 96.85Q267.1 94.85 266.75 94Q266.4 93.1 265.45 92.45Q264.55 91.9 263.2 91.9Q261.15 91.9 259.75 93.15Q258.25 94.45 258.25 98.05L258.25 108.2L255.1 108.2L255.1 89.55L257.95 89.55M277.7,90.35Q279.5 89.15 281.85 89.15Q283.65 89.15 284.85 89.85Q286.1 90.5 287 91.7L287 82.45L290.15 82.45L290.15 108.2L287.2 108.2L287.2 105.85Q285.5 108.6 282 108.6Q279.8 108.6 277.9 107.4Q275.95 106.15 275 104Q273.95 101.75 273.95 98.9Q273.95 96.05 274.9 93.85Q275.8 91.6 277.7 90.35M277.2,98.9Q277.2 102.55 278.7 104.25Q280.3 106.05 282.3 106.05Q284.4 106.05 285.8 104.35Q287.25 102.7 287.25 99.15Q287.25 95.4 285.8 93.55Q284.3 91.75 282.15 91.75Q280.05 91.75 278.6 93.5Q277.2 95.3 277.2 98.9M162.1,93.1Q160.95 92.4 159.8 92.4Q158.75 92.4 157.95 93.05Q157.1 93.65 156.75 94.75Q156.25 96.4 156.25 98.45L156.25 108.2L153.05 108.2L153.05 89.55L155.9 89.55L155.9 92.4Q157 90.45 157.9 89.75Q158.9 89.15 159.95 89.15Q161.5 89.15 163.2 90.15L162.1 93.1M176.2,88.45Q177.75 85.15 180.75 83.6Q183.7 82 187.55 82Q190.35 82 192.6 82.9Q194.9 83.8 196.15 85.45Q197.4 87 198.1 89.65L195 90.5Q194.5 88.55 193.55 87.4Q192.7 86.25 191.1 85.6Q189.6 84.95 187.55 84.95Q185.1 84.95 183.5 85.65Q181.85 86.35 180.75 87.5Q179.8 88.6 179.15 90.05Q178.15 92.5 178.15 95.25Q178.15 98.7 179.35 101Q180.55 103.35 182.8 104.45Q185.1 105.6 187.6 105.6Q189.8 105.6 191.95 104.75L195.15 102.9L195.15 98.1L187.55 98.1L187.55 95.1L198.5 95.1L198.5 104.65Q195.8 106.75 193.3 107.65Q190.65 108.6 187.8 108.6Q184 108.6 180.9 107.05Q177.85 105.4 176.2 102.35Q174.65 99.35 174.65 95.45Q174.65 91.65 176.2 88.45M209.95,89.15Q211.5 89.15 213.2 90.15L212.1 93.1Q210.95 92.4 209.8 92.4Q208.75 92.4 207.95 93.05Q207.1 93.65 206.75 94.75Q206.25 96.4 206.25 98.45L206.25 108.2L203.05 108.2L203.05 89.55L205.9 89.55L205.9 92.4Q207 90.45 207.9 89.75Q208.9 89.15 209.95 89.15M222.65,89.15Q226.55 89.15 228.95 91.65Q231.4 94.2 231.4 98.65Q231.4 102.2 230.35 104.3Q229.2 106.4 227.2 107.5Q225 108.6 222.65 108.6Q218.75 108.6 216.35 106.15Q213.9 103.55 213.9 98.9Q213.9 93.7 216.8 91.2Q219.25 89.15 222.65 89.15M218.75,93.55Q217.15 95.3 217.15 98.9Q217.15 102.4 218.75 104.25Q220.35 106.05 222.65 106.05Q225.05 106.05 226.6 104.25Q228.15 102.5 228.15 98.8Q228.15 95.3 226.6 93.55Q225.05 91.75 222.65 91.75Q220.35 91.75 218.75 93.55M87.8,97.35Q87.8 101.4 86.95 103.5Q86.05 105.85 83.75 107.25Q81.6 108.6 77.75 108.6Q74.1 108.6 71.85 107.4Q69.55 106.2 68.55 103.8Q67.55 101.4 67.55 97.35L67.55 82.45L70.95 82.45L70.95 97.35Q70.95 100.75 71.6 102.25Q72.2 103.85 73.75 104.75Q75.3 105.6 77.45 105.6Q81.2 105.6 82.8 103.9Q84.4 102.25 84.4 97.35L84.4 82.45L87.8 82.45L87.8 97.35M98.25,89.85Q99.45 89.15 101.35 89.15Q103.75 89.15 105.55 90.35Q107.4 91.6 108.3 93.85Q109.25 96.05 109.25 98.75Q109.25 101.6 108.25 103.9Q107.25 106.15 105.25 107.45Q103.25 108.6 101.1 108.6Q99.65 108.6 98.3 108Q97.1 107.35 96.2 106.3L96.2 115.35L93.05 115.35L93.05 89.55L95.95 89.55L95.95 92Q96.95 90.55 98.25 89.85M97.45,93.5Q95.9 95.45 95.9 99Q95.9 102.55 97.35 104.3Q98.85 106.05 100.9 106.05Q103 106.05 104.5 104.25Q106 102.45 106 98.75Q106 95.05 104.55 93.4Q103.05 91.6 101.05 91.6Q99.05 91.6 97.45 93.5M117.5,93.5Q115.95 95.45 115.95 99Q115.95 102.55 117.4 104.3Q118.9 106.05 120.95 106.05Q123.05 106.05 124.55 104.25Q126.05 102.45 126.05 98.75Q126.05 95.05 124.6 93.4Q123.1 91.6 121.1 91.6Q119.1 91.6 117.5 93.5M116,89.55L116 92Q117 90.55 118.3 89.85Q119.5 89.15 121.4 89.15Q123.8 89.15 125.6 90.35Q127.45 91.6 128.35 93.85Q129.3 96.05 129.3 98.75Q129.3 101.6 128.3 103.9Q127.3 106.15 125.3 107.45Q123.3 108.6 121.15 108.6Q119.7 108.6 118.35 108Q117.15 107.35 116.25 106.3L116.25 115.35L113.1 115.35L113.1 89.55L116 89.55M135.5,97.1L145.9 97.1Q145.65 94.75 144.7 93.55Q143.2 91.75 140.8 91.75Q138.55 91.75 137.15 93.2Q135.65 94.65 135.5 97.1M140.75,89.15Q144.5 89.15 146.9 91.7Q149.25 94.3 149.25 98.85L149.25 99.7L135.3 99.7Q135.55 102.8 137.05 104.4Q138.65 106.05 140.95 106.05Q142.7 106.05 143.95 105.15Q145.2 104.15 145.9 102.2L149.15 102.6Q148.4 105.45 146.3 107.05Q144.25 108.6 140.95 108.6Q136.8 108.6 134.45 106.1Q132.05 103.65 132.05 99.05Q132.05 94.3 134.45 91.75Q136.9 89.15 140.75 89.15" />
<path style="fill:none;stroke-width:1.5;stroke-linecap:butt;stroke-linejoin:miter;stroke-miterlimit:10;stroke:#AFAFAF;stroke-opacity:1" d="M679.55,184.9L741.5 202.65L756.75 195L689.9 175.85L679.55 184.9M809.1,263.4L638.3 214.4L622.45 222.35L793.25 271.35L809.1 263.4M715.5,310.25L519.85 254.15L490.3 268.95L685.95 325.05L715.5 310.25M749.1,293.45L564.9 240.65L543.3 246.95L733.15 301.4L749.1 293.45M732.25,301.85L542.05 247.35L521.4 253.4L520.75 253.7L716.4 309.8Q724.35 305.85 732.25 301.85M717.65,374.15L774.8 390.55L816.8 369.5L759.65 353.1L717.65 374.15M825.9,255L655.1 206L639.2 213.95L810 262.95L825.9 255M876.9,229.45L758.6 195.55L742.4 203.65L678.9 185.4L655.9 205.5L826.8 254.55L876.9 229.45M818.8,370.1L776.75 391.1L833.9 407.5L875.95 386.45L818.8 370.1M935.05,403.4L877.9 387L850.85 400.55L908 416.95L935.05 403.4M930.7,526.65L738.2 471.45L645.25 517.95L837.8 573.15L930.7 526.65M687.25,444.35L734.35 420.8L700.5 411.05L653.4 434.65L687.25 444.35M698.55,410.5L664.5 400.75L617.4 424.35L651.4 434.1L698.55 410.5M983.55,176.1L539.75 48.9L434 101.8L877.8 229.05L983.55 176.1M617.85,155.2L433.1 102.25L402.85 117.4L587.55 170.35L617.85 155.2M586.7,170.75L401.95 117.85L370.95 133.35L555.7 186.3L586.7 170.75M337.25,150.2L521.95 203.15L554.8 186.75L370.1 133.8L337.25 150.2M476.1,226.1L291.4 173.15L275.5 181.1L460.25 234.05L476.1 226.1M442.5,278.1L397.3 265.15L382 272.8L427.15 285.75Q434.85 281.95 442.5 278.1M482.15,282.95L470.2 281.8Q457.4 281.15 452.3 283.55Q446.65 286.15 448.7 288.95Q449.9 290.6 456.4 294.05L458.15 294.95Q460.4 296.2 480.75 305.1L520.95 285L494.2 277.35L482.8 283.05L482.15 282.95M442.9,242.75L258.15 189.75L242.15 197.8L426.9 250.75L442.9 242.75M459.3,234.5L274.6 181.55L259.05 189.3L443.8 242.3L459.3 234.5M388.65,254.6L391.15 254.4L224.5 206.6L208.65 214.55L374.9 262.2L388.65 254.6M374.05,262.7L207.75 215L191.65 223.05L358.95 271L374.05 262.7M362.85,309.45L420.25 325.95L436.65 317.7L379.2 301.25L362.85 309.45M377.6,300.6L361.65 283.05L177.35 230.2L122.65 257.6L339.35 319.75L377.6 300.6M421.2,326.9L361.9 309.9L284.35 348.75L401.2 382.25L496.05 334.75L438.5 318.25L421.2 326.9M485.9,368.55L532.55 345.2L497.9 335.3L451.3 358.65L485.9 368.55M426,251.2L241.25 198.2L225.4 206.15L393.05 254.25L426 251.2M521.1,203.6L336.35 150.65L309.3 164.15L494.05 217.15Q507.6 210.4 521.1 203.6M522.9,285.55L482.4 305.8L506.65 316.3L551.65 293.8L522.9 285.55M559.65,338.4L613.4 311.5L585 303.35L534.9 328.45L555.25 337.15L559.65 338.4M522.45,379.05L569.1 355.7L534.4 345.75L487.8 369.1L522.45 379.05M486.9,369.55L439.85 393.1L558.7 427.15L630.8 391.1L619.25 387.8L609.25 367.2L570.9 356.25L523.4 380L486.9 369.55M533.3,327.8L583.15 302.85L553.5 294.35L508.2 317L533.3 327.8M615.25,312.05L561.5 338.95L590.65 347.3L644.45 320.4L615.25 312.05M493.15,217.6L308.4 164.65L292.3 172.7L477.05 225.65L493.15 217.6" />
<path style="fill:none;stroke-width:1.5;stroke-linecap:round;stroke-linejoin:miter;stroke-miterlimit:10;stroke:#AFAFAF;stroke-opacity:1" d="M780.35,277.8L607.35 228.2L586.55 234.3M660.5,357.4L684.1 343.5L631.55 328.3M844,452L842.3 451.55" />
<path style="fill:none;stroke-width:1.5;stroke-linecap:round;stroke-linejoin:miter;stroke-miterlimit:10;stroke:#AFAFAF;stroke-opacity:1" d="M586.55,234.3L624.05 246.1L607.45 252.15L607.4 252.15M631.55,328.3Q612.05 338.1 592.5 347.85L628.05 358.05L658.85 357.25L684.85 364.75L728.4 343.8L646.25 320.95L631.55 328.3M842.3,451.55L795.35 475.05L797.35 475.6L844.05 452.25L857.4 456.05L886.95 479.45L858.75 493.55L796.9 475.8L797.35 475.6M842.3,451.55L788 436.4L787.5 436.25L740.4 459.85L741.3 460.1L795.35 475.05M787.5,436.25L786.35 435.95L786.1 435.85Q762.7 447.7 739.25 459.5L740.4 459.85L740.35 459.85L741.3 460.1M786.1,435.85L736.25 421.3L689.1 444.9L739.25 459.5M586.55,234.3L566.15 240.3L607.4 252.15" />
<path style="fill:none;stroke-width:1.5;stroke-linecap:butt;stroke-linejoin:miter;stroke-miterlimit:10;stroke:#AFAFAF;stroke-opacity:1" d="M607.45,252.15L750 293L780.35 277.8M797.35,475.6L798 475.75M607.4,252.15L606.65 252.35" />
</g>
</svg>
