<?xml version="1.0" encoding="utf-8"?>
<svg version="1.1" id="Layer_1"
xmlns="http://www.w3.org/2000/svg"
xmlns:xlink="http://www.w3.org/1999/xlink"
xmlns:author="http://www.sothink.com"
width="883px" height="559px"
xml:space="preserve">
<g id="9" transform="matrix(1, 0, 0, 1, -110.7, -41.25)">
<path style="fill:none;stroke-width:12;stroke-linecap:butt;stroke-linejoin:miter;stroke-miterlimit:10;stroke:#4E85C8;stroke-opacity:1" d="M986.8,175.95L539.3 47.65Q364.4 135.2 189.45 222.7L188 232.2L176.9 229Q148.7 243.15 120.45 257.25L117.45 276.85L313.1 332.9L282.15 348.4L279.2 367.95L399.75 402.55L447.95 378.4L459.6 381.75L437.6 392.75L434.65 412.35L557.2 447.45L631.1 410.5L631.1 410.4L638.3 412.45L615.2 424L612.25 443.6L725.85 476.2L643.1 517.6L640.1 537.2L836.35 593.45L931.05 546.05L931.05 545.9L957.3 532.75L958.5 524.9L924.6 515.2L969.95 492.5L971.15 484.7L918.3 452.2L832.7 427.7L847.45 420.3L906.55 437.25L935.35 422.85L938.35 403.25L759.25 351.9L715.5 373.85L712.55 393.25L683.6 384.9L726.7 363.35L726.75 363.2L735.05 359.05L736.2 351.2L728.9 349.1L729.7 343.75L702.95 336.1L780.65 297.2L780.7 297.05L791.6 291.6L791.75 291.65L983.85 195.5L986.8 175.95M394.5,139.7L556.25 186.05Q558.8 184.8 561.3 183.5M495.7,216.35L494.6 216.9M507.2,316.05L502.8 314.2M554.95,336.55L555.8 336.9M557.75,315.55L533.85 327.55M619,333.15L591.2 347.05M588,324.25L560.2 338.15M750.55,292.75L754.95 290.55M791.4,382.25Q783.4 386.3 775.35 390.3M640.9,430.7L651.95 433.85L673.15 423.25M685.4,364.5L701.05 356.65M712.6,451.25L724.05 454.5M813.25,466.25L810.55 467.6L809.95 467.9L809.8 468L808.9 468.45L808.45 468.65L807.6 469.1L795.65 475.05M781.05,454.2L759.9 464.8L748.85 461.6M800.3,397.45L834.45 407.25L850.55 399.2M668.75,524.3L838.35 572.9M671.05,209.45L827.35 254.3M363.85,307.5L339.9 319.5M473.85,301.6L475.6 302.35M474.8,364.95L486.45 368.3M457.5,108.15L689.15 174.55M426.35,123.75L588.1 170.1" />
<path style="fill:#AAACAE;fill-opacity:1" d="M499.95,283.25L737.9 351.45L736.75 359.3L728.35 363.5L494.3 296.35L482.75 302.15L480.65 301.85L480.45 301.85L473.25 301.1L472.95 301.1L468.1 300.85L467.9 300.85L462.7 300.85L458.35 301.2L453.8 302.1L453.55 302.2L452.05 302.8L459.1 306.75Q462.3 308.4 482.8 317.4L556.3 348.95L629.85 370.05L653.6 376.05L920 452.45L972.85 484.95L971.65 492.75L926.3 515.45L960.2 525.15L959 533L932.65 546.2L844.9 521.05L846.1 513.2L883.05 494.7L858.7 475.45L620.75 407.2L610.75 386.65L379.3 320.3L363.05 302.5L177.4 249.25L178.6 241.4L192.05 234.7L361.2 283.2L391.25 266.65L428.45 263.3L620.95 166.9L691 187L689.8 194.85L655.2 225.05L632 236.65L795.45 283.5L794.3 291.35L782.25 297.35L607.6 247.25L521.15 272.6L499.95 283.25" />
<path style="fill:#97999B;fill-opacity:1" d="M983.85,195.5L791.75 291.65L781.95 288.8L780.65 297.2L702.95 336.1L729.7 343.75L726.7 363.35L683.35 385.05L656.45 377.3L625.7 378.05L615.75 375.2L621.7 387.35L634.1 390.9L631.1 410.5L557.2 447.45L434.65 412.35L437.6 392.75L459.6 381.75L447.95 378.4L399.75 402.55L279.2 367.95L282.15 348.4L313.1 332.9L117.45 276.85L120.45 257.25Q148.7 243.15 176.9 229L188 232.2L189.45 222.7Q364.4 135.2 539.3 47.65L986.8 175.95L983.85 195.5M740,222.95L676.45 204.75L671.05 209.45L827.35 254.3L851.5 242.2L756.15 214.85L740 222.95M754.95,290.55L604.9 247.5L598.95 249.25L750.55 292.75L754.95 290.55M685.4,364.5L701.05 356.65L643.85 340.25L616.05 354.2L628.6 357.8L659.4 357L685.4 364.5M715.5,373.85L759.25 351.9L938.35 403.25L935.35 422.85L906.55 437.25L847.45 420.3L832.45 427.8L712.5 393.4L715.5 373.85M690.05,323L517.4 273.5L513.85 275.3L686.5 324.8L690.05 323M741.15,380.5L775.35 390.3Q783.4 386.3 791.4 382.25L757.25 372.45L741.15 380.5M670.95,190.45L617.25 175.05L425.35 271.1L425.3 271.05L424.85 271.25L423.15 271.4L445.8 277.95L442.85 297.5Q434.3 301.8 425.7 306.05L376.8 292.05L378.65 279.65L367.05 286.05L380.15 300.4L500.5 334.9L455.05 314.95L455 314.9L447.85 311.05L446 309.8L444.95 308.9L444.45 308.35L444.2 308L443.75 307.1L443.65 306.2L446.65 286.6L446.65 286.75Q446.8 284.7 451 282.75Q456.05 280.45 468.05 280.8L482.05 281.95L486.4 279.8L488.1 268.65L520.2 252.55L607.25 227.05L618.95 230.4L620.25 222L654.25 205L670.95 190.45M958.15,188.85L537.3 68.2L457.5 108.15L878.35 228.8L958.15 188.85M909.65,416.15L875.45 406.35L874.4 406.9L908.55 416.7L909.65 416.15M820.45,482.15L859.3 493.3L870.5 487.7L854.95 475.4L841.6 471.55L820.45 482.15M889.8,479.5L886.8 499.1L869.25 507.9L934.05 526.5L931.05 546.05L836.35 593.45L640.1 537.2L643.1 517.6L725.85 476.2L612.25 443.6L615.2 424L664.15 399.5L859.45 455.55L889.8 479.5M850.55,399.2L816.35 389.4L800.3 397.45L834.45 407.25L850.55 399.2M905.3,539.4L735.75 490.75L668.75 524.3L838.35 572.9L905.3 539.4M733.8,440.65L712.6 451.25L724.05 454.5L745.2 443.9L733.8 440.65M759.9,464.8L781.05 454.2L770 451L748.85 461.6L759.9 464.8M795.65,475.05L816.8 464.45L806.25 461.4L785.05 472L795.65 475.05M698.1,430.4L676.9 441L687.8 444.1L708.95 433.5L698.1 430.4M673.15,423.25L662.1 420.1L640.9 430.7L651.95 433.85L673.15 423.25M561.3,183.5L399.55 137.2L394.5 139.7L556.25 186.05L561.3 183.5M592.45,167.9L430.65 121.6L426.35 123.75L588.1 170.1L592.45 167.9M332.8,170.5L494.6 216.9L495.7 216.35L333.9 169.95L332.8 170.5M360.75,156.55L522.5 202.9L529.4 199.45L367.65 153.1L360.75 156.55M359.2,302.4L174.9 249.55L146.15 263.95L339.9 319.5L363.85 307.5L359.2 302.4M476.85,302.9L481.3 304.85L495.55 297.75L491.8 296.65L480.4 302.35L477.8 302L477.7 302L476.45 301.85L476.35 301.85L474.1 301.6L473.85 301.6L476.55 302.8L476.85 302.9M418.75,346.25L359.5 329.25L307.9 355.1L401.75 382L470.65 347.5L436.05 337.6L418.75 346.25M557.75,315.55L551.05 313.65L528.2 325.1L533.85 327.55L557.75 315.55M555.8,336.9L560.2 338.15L588 324.25L582.6 322.7L554.95 336.55L555.8 336.9M520.45,304.9L502.3 313.95L507.2 316.05L526.25 306.55L520.45 304.9M495.5,354.65L474.8 364.95L486.45 368.3L507.1 357.95L495.5 354.65M523,378.8L543.7 368.45L531.95 365.1L511.3 375.45L523 378.8M612.8,331.35L585 345.3L591.2 347.05L619 333.15L612.8 331.35M568.5,375.55L520.95 399.35L484.45 388.85L463.35 399.4L559.25 426.9L613.3 399.85L606.8 386.55L568.5 375.55" />
</g>
</svg>
