<?xml version="1.0" encoding="utf-8"?>
<svg version="1.1" id="Layer_1"
xmlns="http://www.w3.org/2000/svg"
xmlns:xlink="http://www.w3.org/1999/xlink"
xmlns:author="http://www.sothink.com"
width="674px" height="319px"
xml:space="preserve">
<g id="36" transform="matrix(1, 0, 0, 1, 0, 0)">
<path style="fill:#97999B;fill-opacity:1" d="M673.1,45.7Q642.35 67.7 611.55 89.65L609.5 89.15L609.5 91.1L608 92.2L595.5 93.5L584.85 90.85L581.65 93.15L587.4 94.55L591.9 101.7L591.9 106.9L588.8 109.15L571.35 104.8L571.35 106.6L560 114.65L523.6 105.6L523.65 100.4L541.15 87.9L554.7 86.5L559.9 82.8L559.95 78.05L561.3 77.1L554 75.3L549.35 76.05L548.05 73.85L536.6 70.95L531.25 74.75L530.4 74.55L530.4 75.35L528.65 76.65L520.9 77.45L517.95 79.55L519.55 82.05L519.5 87.25L501.6 100L498.9 100.3L499.15 100.75L499.1 105.95L496.8 107.65L482.2 109.4L479.75 105.7L479.75 102.05L475.55 101L478.6 104.45L478.55 109.65L477.9 113.2L476.85 113.95L476.8 118.5L465 126.95L464.05 126.7L464.05 127.6L422.25 157.4L411.8 158.5L411.65 158.55L393.65 160.4L393.6 164.8L393.55 164.85L393.55 164.95L393.5 165.1L393.35 165.25L393.3 165.35L393.15 165.5L393.1 165.5L393.05 165.55L393.1 165.6L393.25 166.1L393.25 171.35L393.2 171.45L393.2 171.55L393.15 171.7L393.1 171.7L393 171.9L392.95 171.9L392.75 172.1L392.7 172.1L392.5 172.2L392.4 172.3L392.15 172.4L392.1 172.45L391.65 172.6L391.6 172.6L391.2 172.75L391.15 172.75L390.7 172.85L390.65 172.9L390.5 172.9L390.4 172.95L390.35 172.9L390.35 172.95L383.45 173.7L379.5 167.45L379.55 162.25L382.25 160.35L387.45 159.8L346.35 149.55L345.25 148.25L325.3 143.3L322.2 143.45L322.15 143.55L322 143.5L321.5 143.5L321.5 143.35L274.15 131.55L273.85 131.15L273.85 133.65L269.55 137.25L263.7 135.7L263.65 131.95L269.25 133.35L273.1 130L270.35 126.1L270.4 120.9L275.3 120.3L291.55 108.75L300.4 110.95L301.95 109.85L329.45 116.7L329.4 121.9L324.65 125.35L329.2 126.45L330.35 125.65L336.95 127.3L338.1 126.5L346.95 128.7L362.85 117.35L376.9 120.85L376.9 126.05L363.95 135.3L397.9 143.75L400.25 142.1L400.5 141.85L405.55 138.3L388.6 134.05L388.6 128.85L409.25 114.15L440.2 121.85L445.8 117.85L446.75 118.1L446.75 117.15L462.2 106.15L453.7 104.15L453.7 104.1L383.45 86.95L383.45 84.65L381.05 86.35L345.35 77.45L345.35 75.9L343.75 77.05L317.35 70.45L316.15 71.3L327.6 74.2L327.55 79.4L296.55 101.5L275.7 96.3L273.3 98L289.35 102L289.35 107.2L267.85 122.5L265.65 119.25L265.65 115L255.7 99.05L255.75 93.85L257.5 92.55L257.55 88.05L294.95 61.35L309.45 59.8L314.05 60.95L308.75 52.55L294.4 48.95L292.5 45.95L292.55 40.75L296.2 38.15L339.65 49L339.6 54.2L325.95 63.95L333 65.7L334.1 64.9L334.3 64.95L334.35 61.1Q341.35 56.15 348.3 51.15L406 65.55L406.85 64.95L410.85 65.95L416.7 61.8L431.15 65.4L431.1 70.6L428.5 74.25L428.75 74.35L428.85 74.45L431.4 74.1L431.65 74.2Q436.75 76.3 436.7 78.5L436.65 83.95L436.6 84.25L436.6 84.35L436.55 84.45L436.4 84.9L436.4 85L436.35 85.05L436 85.7L436 85.8L435.95 85.85L435.35 86.7L435.35 86.75L434.35 87.9L434.3 87.9L433.7 88.5L433.25 88.85L433.25 90.4L445.05 93.35L445.05 88.4L444.5 88.25L444.55 83.05L444.6 82.95L445.55 81.4L445.75 80.95L444.5 79.65L444.1 79.4L443.85 79.2L443.85 78.1L442.65 78.4L442.5 78.3L439.2 76.5L439.05 76.45L437.75 75.85L437.6 75.8L437.15 75.6L437.1 75.55L436.25 75.2L435.9 75.1L435.9 69.9L439.35 67.4L445.35 68.95L445.3 69.65L450.9 71.05L450.85 72.8L461.35 75.4L461.35 76.6L462.9 75.45L477.1 79L477.05 84.2L475.7 85.2L485.9 87.75L485.95 84.6L512.45 65.7L513.3 65.9L513.3 65.15L471.2 54.65L471.25 49.45L532.8 5.55L673.15 40.5L673.1 45.7M576.7,83.3L595.65 88.05L595.95 88L574.45 82.65L572.7 83.95L575 84.5L576.7 83.3M575.2,90.05L562.2 86.8L560.65 87.9L568.3 89.8L568.25 95L566.35 96.35L570.2 97.3L570.2 99L588.65 103.6L589 103.3L586.9 99.9L575.45 97.05L575.5 91.85L579 89.4L576.85 88.85L575.2 90.05M512.6,71.2L506.05 75.9L515.05 78.15L515.1 75.95L519.35 72.9L512.6 71.2M504.4,92.35L511.7 87.15L495.85 83.2L492.1 85.85L496.05 86.85L496.05 90.25L504.4 92.35M549.8,70.55L554.05 69.8L611.4 84.1L666.95 44.45L532.95 11.05L477.4 50.7L548.6 68.45L549.8 70.55M554.8,91.9L541.5 93.3L529.8 101.65L559.85 109.15L565.15 105.35L561.5 104.4L561.5 100.65L560.15 100.3L560.2 95.1L562.1 93.75L554.8 91.9M424.95,69.5L426 69.6L425 69.35L424.95 69.5M420.2,69.1L421.2 69.2L421.75 69.2L422.05 68.6L421.2 68.4L420.2 69.1M423.3,78.2L422.3 78L422.15 78L421.8 77.95L421.7 77.9L420.75 77.8L416.9 80.5L417.75 82.95L417.7 88.15L415.8 89.55L418.9 90.3L427.3 84.3L432.7 83.6L433.05 83.35L433.1 83.25L433.35 83.1L434.75 81.55Q433.25 80.35 431.2 79.6L428.65 79.9L427.75 79.5L423.4 78.25L423.3 78.2M415.4,74.55L415 74.55L414.2 74.65L414 74.65L409.05 75.25L407.15 75.45L407.1 75.45L406.3 75.55L406.15 75.6L406.15 76.5L405.7 76.65L407 76.6L407.25 76.55L415 76.25L417.5 74.45L416.15 74.45L415.4 74.55M407,82.05L400.4 82.45L400.35 85.7L403.05 86.35L407.35 83.25L407 82.05M409.2,82.4L409.2 87.6L408.9 87.8L409.95 88.05L415.7 84L414.9 81.65L409.1 81.95L409.2 82.4M430.65,89.3L427.65 89.7L424.75 91.75L427.65 92.5L430.15 90.7L430.15 89.9L430.65 89.55L430.65 89.3M451.2,89.45L481 96.9L494.5 95.35L469.5 89.15L469.55 83.95L470.9 82.95L463.1 81L451.2 89.45M465.8,98.55L465.8 99.65L466.9 98.85L465.8 98.55M348.6,58.4L348.65 56.75L348.45 56.7L345.65 58.7L348.6 58.4M346.6,64.05L343.05 64.4L340.9 65.95L343.8 66.65L344.5 66.15L346.55 66.7L346.6 64.05M333.45,52.95L315.05 48.35L311.6 50.85L314.8 55.95L325.5 58.65L333.45 52.95M389.15,69.6L390.05 69.8L392.9 67.75L392 67.55L389.15 69.6M385.95,66.05L383.1 68.05L383.25 68.1L386.1 66.1L385.95 66.05M399.5,69.4L398.8 69.25L395.95 71.25L396.65 71.45L399.5 69.4M368.8,72.9L372.3 70.4L376.9 71.55L376.9 68.55L369.2 66.65L368.55 67.1L368 66.95L368 70.1L365.35 72.05L368.8 72.9M372.45,75.95L369.55 78L370.2 78.15L373.1 76.1L372.45 75.95M398.1,82.3L392.55 80.95L389.65 83L395.2 84.4L398.1 82.3M390,77.1L391.9 75.75L390 75.3L390 77.1M381.15,145.05L373.15 150.75L375.45 151.35L383.45 145.6L381.15 145.05M401.55,130.45L412.65 133.2L418.55 129L444.95 135.6L452.3 130.35L409.4 119.65L397.65 128.05L401.6 129L401.55 130.45M389.3,147.1L381.3 152.8L384.2 153.5L392.2 147.8L389.3 147.1M338.3,132L328.9 138.7L331.9 139.45L341.25 132.75L338.3 132M327.55,131.55L319.4 137.35L321.95 138L331.25 131.35L330.5 131.15L329.35 132L327.55 131.55M350.25,145.05L367.25 149.3L375.25 143.6L358.25 139.35L350.25 145.05M345.45,142.8L370.7 124.8L363.05 122.85L337.75 140.9L345.45 142.8M391.15,155.25L408.25 153.45L406.6 150.85L406.6 148.9L400.7 147.4L390.05 154.95L391.15 155.25M386.3,165.35L382.6 165.75L382.4 165.85L383.9 168.2L387 167.85L386.3 166.7L386.3 165.35M468.45,104.7L468.45 107.35L467 108.4L474.2 110.2L476.8 108.35L475 106.3L468.45 104.7M462.5,112.05L462.5 111.6L462 111.95L462.5 112.05M409.45,144.1L409.45 149.1L411.9 153.05L421.95 152L427 148.4L406.5 143.25L406.4 143.35L409.45 144.1M417.1,135.7L437.65 140.8L439.25 139.65L418.7 134.55L417.1 135.7M309.2,46.9L296.35 43.7L296.1 43.9L308.9 47.1L309.2 46.9M270.45,84.45L301.6 92.25L321.4 78.1L310.3 75.35L294.85 86.4L274.8 81.4L270.45 84.45M297.85,66.5L295.3 66.75L291 69.85L301.15 72.35L305.4 69.35L299.1 67.8L297.85 66.5M295.45,76.45L285.3 73.9L280.45 77.35L290.65 79.85L295.45 76.45M315.05,118.6L296.7 131.7L304.95 133.75L323.25 120.65L315.05 118.6M291.7,114.25L275.65 125.75L274.45 125.85L274.65 126.2L277.9 127L294.7 115L291.7 114.25M290.85,130.25L309.2 117.15L302.1 115.4L283.8 128.45L290.85 130.25M318.95,129.4L310.8 135.2L313.55 135.9L321.7 130.1L318.95 129.4M278.85,106.25L270.25 112.35L272.15 112.2L273.85 112.6L281.75 106.95L278.85 106.25M268.5,105.9L271.75 105.65L274.4 103.75L272.25 103.25L268.5 105.9" />
<path style="fill:#97999B;fill-opacity:1" d="M565.7,122.35L545.3 136.95L510.25 128.2L510 128.35L519.6 130.75L519.55 135.5L536.2 139.65L541.2 136.05L558.7 140.4L564.55 136.25L571.4 137.95L571.35 143.15L545.15 161.85L527.7 157.5L522.25 161.4L483.55 151.7L479.15 154.85L478.3 154.65L478.25 155.5L472.2 159.8L472.2 163.3L514.85 173.95L517.4 172.1L526.65 174.45L526.65 175.05L536.7 177.55L537.7 179.15L537.7 182L539.85 185.45L542.6 186.15L543.6 187.75L543.55 192.95L535.45 198.7L531.35 199.15L519.95 207.3L519.95 209.8L510.9 216.25L506.15 216.75L503.9 216.2L492.4 217.45L490.3 218.9L484.55 219.5L465.4 214.75L465.4 212.6L449.1 208.5L442.9 212.95L442.9 213.95L434.05 220.25L405.8 213.25L405.8 214.85L387.15 228.15L368 223.35L365.6 225.05L356.45 222.75L348.65 228.35L353.8 229.65L353.8 234.85L350.25 237.35L355.15 238.6L355.15 243.8L312.4 274.3L308.9 273.4L306.9 274.8L309.05 275.35L309 280.55L283 299.15L282.95 304.35L270.65 313.15L265.25 311.8L256.5 318.05L242.75 314.6L238.15 317.85L207.65 310.25L207.65 305.85L199.9 303.9L195.3 307.2L164.8 299.6L164.8 295.15L144.55 290.1L144.6 284.9L192.85 250.5L212.35 255.35L212.35 254.4L211.5 254.2L211.55 249L217.6 244.65L210.7 242.95L210.75 237.75Q220.95 230.5 231.1 223.2L233.5 223.8L238.45 220.25L256.65 224.8L257.25 224.4L257.25 221.35L269.75 212.4L247.2 206.8L247.25 201.6L247.55 201.4L242.05 201.65L218.55 195.8L218.55 194.6L217.3 195.5L163.55 182.1L163.55 181.15L153.55 188.35L143.9 185.95L143.9 182.45L132.55 190.55L105.65 183.85L32.1 191.45L32.1 186.25L33.25 185.45L33.05 185.1L26.3 183.4L24 179.75L15.25 180.7L13.5 178.05L13.55 172.85L19.1 172.25L10.25 158.75L1.75 159.7L0 157.05L0.05 151.85L5.3 151.3L4.55 150.25L4.6 145.05L20.15 143.3L19.95 143L20 137.8L27.15 137L30.75 142.5L66.4 138.45L65.9 137.6L65.95 132.4L72.4 131.7L76.1 137.55L95.75 135.5L116.15 167.9L122.45 170L131.15 171.4L131.35 171.4Q138.05 172.05 145.55 171.5L149.05 171.1L149 176.3L147.9 177.9L149.2 176.95L153.3 172L153.3 171L155.45 169.9L159.55 166.95L166.7 168.75L165.95 167.7L166 162.5L177.95 153.95L177.35 153.25L177.35 148.05L180.35 145.95L192.2 144.7L193.6 146.55L193.6 144.55L214.05 142.35L214.45 143.4L214.4 148.6L208.65 152.7L208.65 152.8L208.5 152.8L208.2 153.05L208.1 152.9L197 154.8L195.85 153.1L195.8 154.85L187.6 160.75L247 175.55L247 176.5L247.15 176.5L247.1 181.75L244.95 183.25L239.1 184.45L230.7 182.35L223.9 183.2L225.35 183.55L225.35 185.75L228.05 183.8L256.6 190.95L256.6 194.9L260.75 191.95L270.95 194.5L280.65 193.5L282 192.55L251.35 184.9L251.4 179.7L252.15 179.9L252.15 179.6L264.85 170.6L283.85 175.3L283.85 175.8L284.65 175.25L308.4 181.15L308.35 184.65L311.85 185.55L312 185.45L312 183.45L319.7 177.95L325.45 179.4L325.45 178.3L330.9 174.45L337.4 176.05L337.35 178.75L340.3 176.65L340.3 173.25L339.3 174L312.15 168.1L312.15 168.15L311.85 168.05L300 165.1L298.5 163L298.5 162.2L288.75 159.8L288.3 159.65L279.3 157.4L276.65 159.3L245.35 151.5L245.35 150.9L241.25 149.9L232.15 150.3L232.15 152.95L222.8 153.9L222.85 148.7L223.4 148.3L222.35 146.55L222.4 141.35L227.35 140.8L229.3 144.15L229.35 140.85L231.9 139L232 139L262 135.85L307.55 147.2L309.75 150.1L322 153.15L329.4 152.4L336.2 154.05L336.2 159.3L335.15 160L337.4 160.6L344.55 155.5L369.55 161.75L372.85 167L372.8 172.2L333.9 200L330.1 200.25L327.25 202.3L322.9 202.75L319.7 201.95L321.05 204.05L321 209.25L307 219.2L307 219.7L306.3 219.7L306.25 219.75L292.5 220.35L291.9 220.8L295.55 226.5L295.7 226.55L295.7 226.7L295.75 226.85L295.7 232.05L295.35 231.95L250.65 263.85L247.75 264.15L267.8 269.15L286.8 255.6L286.8 252.6L309.6 236.4L309.85 236.15L314.55 232.8L314.6 231L317.2 229.15L319.95 229.8L319.95 227.2L328.9 220.8L328.9 219.3L358.9 197.9L360.55 198.35L360.55 196.75L370.45 189.65L371.15 189.85L371.15 189.2L387.3 177.65L423.8 173.85L425.65 174.3L433.15 168.9L433.2 164.95L460.1 145.75L460.95 145.95L460.95 145.1L465.35 142L465.65 141.75L491.1 123.65L493.4 124.2L493.4 121.95L498.25 118.55L504.9 117.5Q509.4 114.35 513.85 111.15L513.85 107.4L517.15 105.05L565.75 117.15L565.7 122.35M536.35,145.15L508.15 138.15L498.1 145.3L476.3 139.85L471.55 143.25L522.1 155.85L527.5 151.95L544.95 156.3L565.2 141.9L564.7 141.75L558.85 145.95L541.35 141.6L536.35 145.15M559.55,121.1L517.3 110.55L515.45 111.9L515.4 115.65L506.75 121.85L545.15 131.4L559.55 121.1M503.1,132.1L491.25 129.15L482 135.8L493.85 138.75L503.1 132.1M525.2,179.55L517.55 177.65L515.05 179.45L480.9 170.95L472.35 177.1L437.1 168.3L437.05 171.8L425.8 179.8L423.65 179.3L393.8 182.4L398.9 190.5L468.45 207.85L468.45 210L484.65 214.05L490 213.5L492.05 212L504.05 210.7L506.3 211.3L510.55 210.85L518.25 205.35L518.3 202.85L531 193.75L535.1 193.3L539.1 190.45L535.8 185.2L535.8 182.8L525.2 180.15L525.2 179.55M355.4,163.7L354.15 163.4L353.4 163.9L355.4 163.7M360.35,168.65L352.3 169.45L364.5 172.5L369.95 168.6L369 167.1L364.15 165.9L360.35 168.65M344.7,161.05L337.6 166.15L329.45 164.1L327 165.8L339.1 168.45L348.25 161.95L344.7 161.05M329.3,157.85L323.3 158.45L323.3 160.2L318.1 163.9L320.95 164.5L330.05 158L329.3 157.85M329.8,194.85L331.25 194.75L316.5 191.05L311.7 194.45L323.05 197.3L326.95 196.9L329.8 194.85M380.95,196.55L375.75 200.25L433.9 214.75L441.1 209.6L441.1 208.6L443.25 207.05L398.35 195.85L390.1 182.8L387.65 183.05L377.3 190.45L380.95 191.35L380.95 196.55M466.7,164.75L466.75 162.9L449.85 158.7L447.9 160.1L466.65 164.8L466.7 164.75M472.2,171.55L473.75 170.45L468.5 169.15L466.95 170.25L472.2 171.55M399.65,213.55L359.05 203.45L356.65 205.15L369.4 208.35L369.4 213.55L364.55 217L387 222.6L399.65 213.55M355.95,217.45L343.7 214.4L342 215.65L354.25 218.7L355.95 217.45M349.4,210.35L361.7 213.4L363.2 212.3L350.95 209.25L349.4 210.35M335.65,220.15L335.65 221.65L346.35 224.35L348.55 222.75L336.3 219.7L335.65 220.15M347.6,233.6L347 233.4L346.75 233.6L347.4 233.75L347.6 233.6M339.75,249.1L310.05 241.7L307.1 243.8L336.85 251.2L339.75 249.1M331.15,255.3L301.4 247.85L294.75 252.6L324.5 260L331.15 255.3M226,146.4L226.2 146.8L226.2 148.1L227.85 147.95L226.9 146.3L226 146.4M232.45,144.85L241.15 144.45L242.75 143.3L232.25 144.45L232.2 144.45L232.45 144.85M190.6,152.9L192.7 151.4L191.8 150.2L183.35 151.1L190.6 152.9M184.9,156.95L182.5 156.35L181.1 157.4L183.5 158L184.9 156.95M188.9,166.55L187.65 167.45L191.15 167.55L191.6 167.2L188.9 166.55M184.45,172.75L186.8 173.35L186.8 174.95L196.85 177.45L197.9 176.7L204.1 178.25Q205.55 177.95 206.95 178.25Q208.45 178.6 208.35 179.3L217.2 181.5L216.3 178.7L216.3 177.3L214.85 176.9L214.85 176.3L213.35 175.9L211.3 177.4L211.05 177.4L210.05 177.5L208.1 177.5L207.8 177.45L207.6 177.45L207.5 177.4L207.2 177.4L206.95 177.3L206.7 177.25L206.65 177.25L206.05 177.05L206 177.05L205.6 176.85L205.45 176.8L205.3 176.65L205.2 176.6L205.1 176.45L191.15 173L184.45 172.75M199.6,169.6Q199.85 169.5 200.05 169.35L197.45 168.7L197.05 169L199.6 169.6M171.9,170.95L172.35 170.65L171.9 170.5L171.9 170.95M170.75,164.75L175.15 165.85L176 165.25L171.6 164.15L170.75 164.75M173,175.8L169.75 178.15L176.9 179.9L180.6 177.25L180.05 177.15L180.05 176.55L175.1 176.35L173 175.8M184.8,179.95L182.8 181.4L192.2 183.75L194.25 182.3L184.8 179.95M198.1,185.2L208.25 187.7L211.3 185.55L207.75 184.65L207.75 184.4L207.7 184.25L207.5 184.05L207.15 183.85L207.1 183.8L206.65 183.65L205.4 183.5L204.85 183.55L204.7 183.6L204.25 183.7L204.1 183.7L201.15 183L198.1 185.2M206.6,171.7L206.7 171.75L207.8 172L207.85 172L208.75 172.05L208.8 172.1L209.7 172.05L210.75 172L205.9 170.8L205.5 171.1L205.6 171.1L205.65 171.15L205.65 171.2L205.7 171.2L205.85 171.35L206 171.45L206.4 171.65L206.6 171.7M219.7,176.75L223.75 177.75L230.55 176.95L222.3 174.9L219.7 176.75M214.1,189.2L217.15 189.95L219.55 188.25L219.55 187.6L217.2 187L214.1 189.2M224.7,191.85L242.2 196.2L249.05 195.9L250.45 194.9L228.2 189.35L224.7 191.85M249.25,143.55L250.75 142.45L249.25 142.6L249.25 143.55M255.2,143.55L257.75 141.75L250.9 142.45L255.2 143.55M278.85,186.3L286.1 181.1L284.3 180.65L277.05 185.85L278.85 186.3M276.45,153.8L285.65 147.25L265.1 142.1L255.95 148.65L276.45 153.8M316.35,157.25L309.6 162L311.95 162.6L318.65 157.8L316.35 157.25M309.6,155.55L302.9 160.35L303.75 160.55L310.45 155.75L309.6 155.55M294.45,155.7L299.65 157L306.15 152.35L301 151.05L294.45 155.7M288.6,154.25L295.15 149.6L291.5 148.7L285 153.35L288.6 154.25M300.8,184.75L293.55 189.95L294.9 190.3L302.2 185.1L300.8 184.75M287.65,188.45L294.95 183.3L292 182.55L284.7 187.75L287.65 188.45M296.55,194.75L295.95 195.2L296.55 195.35L296.55 194.75M309.45,190.4L306.35 189.65L302.7 192.2L305.85 193L309.45 190.4M71.95,137.2L69.7 137.45L70.2 138.25L70.2 143.45L30.35 148L26.7 142.5L23.85 142.8L24.05 143.15L24 148.35L8.55 150.05L9.25 151.1L9.25 153.4L10.7 153.25L23 172.05L23 174.4L24.45 174.25L26.85 178.05L33.55 179.75L36.15 183.85L36.15 185.6L105.75 178.4L117.35 181.3L124.75 176L119.95 174.8L115.6 173.2L95.3 141L75.65 143.05L71.95 137.2M123.2,182.75L132.4 185.05L143.55 177.05L143.05 177.1L131.4 176.9L123.2 182.75M154.4,176.6L149.95 181.95L153.35 182.8L161.75 176.85L155.7 175.3L154.4 176.05L154.4 176.6M317.55,206.05L300.85 201.9L298.75 203.4L280.75 198.95L270.85 200L268.7 199.45L261.25 204.8L281.75 209.9L291.15 203.2L298.15 204.95L298.1 208.5L309.95 211.45L317.55 206.05M291.3,208.75L285.15 213.1L285.8 213.3L291.95 208.9L291.3 208.75M290.35,224.55L280.95 222.2L280.25 222.7L267.65 219.55Q265.55 221.1 263.4 222.6L282.65 227.4L286.95 224.35L290.85 225.35L290.35 224.55M285.2,233.55L260.85 227.45L260.3 227.85L284.65 233.9L285.2 233.55M254.1,229.65L238.6 225.75L233.65 229.3L231.3 228.75L225.2 233.1L270.15 244.3L278.95 238L254.1 231.8L254.1 229.65M264.45,248.35L219.5 237.15L216.9 239L261.85 250.2L264.45 248.35M256.15,254.25L223.5 246.1L216.05 251.4L216.05 252.65L242.65 259.25L250.3 258.45L256.15 254.25M273.65,270.6L300.7 277.35L300.75 274L277.15 268.15L273.65 270.6M318.8,264.05L289.05 256.65L288.25 257.25L288.25 260.2L288.05 260.35L314.7 267L318.8 264.05M170.15,295.45L195.15 301.65L199.7 298.4L213.05 301.7L213 306.1L238 312.35L242.55 309.05L256.35 312.5L265.1 306.25L270.45 307.6L276.8 303.05L276.85 297.9Q287.75 290.15 298.6 282.35L193.05 256L150.75 286.2L170.2 291.05L170.15 295.45" />
<path style="fill:#97999B;fill-opacity:1" d="M272.85,21.35L269 24.1L272.9 25.1L276.75 22.35L272.85 21.35M280.6,14.65L284.45 11.9L284.5 7.4L294.85 0L305.15 2.55L305.15 7.75L273.1 30.6L273 30.7L289.1 34.75L289.05 39.95L283.3 44.05L284.2 45.5L284.15 50.7L280.45 51.05L274.15 55.6L274.25 55.75L274.2 60.95L248.05 79.6L243.25 78.35L243.2 83.05L236.75 87.65L227.1 88.95L223.5 91.5L224.85 93.65L224.85 93.7L225.8 95.2L231.8 96.7L242.75 112.05L242.7 117.25L239.3 119.65L232.9 120.65L219.05 130.55L219 132.75L213.85 136.45L171 140.95L169.6 138.75L169.6 140.9L158.25 142.1L153 145.85L151.4 145.45L146.25 149.1L144.35 148.65L139.3 152.25L137.55 151.85L133 155.05L137.85 155.3Q141 156.05 140.95 158.1L140.95 158.35L140.9 158.5L140.9 158.55L140.95 158.35L140.95 163.35L140.9 163.5L140.9 163.7L140.85 163.75L140.85 163.9L140.75 164.15L140.75 164.2L140.45 164.75L140.25 165L140.15 165.2L139.9 165.45L139.8 165.6L139.25 166.1L139.2 166.1L138.65 166.55L136.3 167.85L133.9 168.7L133.65 168.75L132.8 169L130.6 169.35L129.05 169.45L128 169.45L127.2 169.35L127.15 169.35L126 169.2L125.7 169.1L125.6 169.1L124.9 168.85L124.7 168.8L123.85 168.35L123.8 168.3L123.4 168L122.95 167.55L122.8 167.3L122.65 166.85L122.6 166.75L122.6 161.1L122.65 161.25L122.65 160.95L120.4 162.5L115.75 161.35L105.35 144.9L105.4 139.7L116.65 131.65L119.7 131.2L123.95 128.1L138.75 131.8L148.95 124.5L165.1 128.55L166.55 130.85L166.6 128.65L166.8 128.5L144.3 122.9L144.35 117.7L179.35 92.7L174.85 91.6L174.9 86.4L191.1 74.85L191.4 74.6L193.75 72.95L201.9 75L209.65 69.45L223.45 72.9L223.5 68.35L220.2 67.5L220.2 64.95L200.6 60.05L197.35 62.4L185.75 59.55L185.8 54.3L191.1 50.55L245 44.75L257.65 47.9L260 46.2L255.25 45L250.6 36.8L250.6 31.55L251.45 31L247.85 32L247.7 32.05L244.8 32.5L244.75 32.5L243.55 32.6L243.3 32.6L243 32.65L240.55 32.6L240.1 32.55L239.95 32.55L238.6 32.35L238.5 32.3L238.45 32.3L237.95 32.2L237.9 32.2L237.4 32.1L236.35 31.8L236 31.65L235.2 31.4L234.2 30.95L234.05 30.9L233.9 30.8L233.7 30.75L232.45 30.15L228.55 27.85L228.45 27.75L228.3 27.65L228.2 27.6L224.1 24.4L221.9 22.5Q221.1 21.65 221.1 20.95L221.15 15.8Q221.15 15.3 221.45 14.8L221.5 14.75L227 14.35L228.75 16.75L256.4 23.65L256.35 27.45L257.3 26.8L260.05 27.5L260.05 24.85L273.05 15.6L280.6 14.65M246.8,26.75L246.4 26.65L246.1 26.9L246.8 26.75M255.8,39.65L266.2 42.25L266.2 46.65L275.5 48.95L280.1 45.65L280.35 45.65L280.4 40.5L282.9 38.65L257.5 32.35L253.3 35.3L255.8 39.65M288.85,13.7L298.95 6.5L295.05 5.55L287.05 11.2L287.05 13.25L288.85 13.7M271.35,57.3L271.25 57.15L271.25 53.4L261.35 50.95L257.85 53.45L244.85 50.2L240.05 50.7L270.1 58.2L271.35 57.3M264.35,62.3L230.6 53.9L228.1 54.15L263.45 62.95L264.35 62.3M227.95,21.7L226.6 19.8L225.65 19.9L227.95 21.7M236.4,26.3L237.75 26.7L238.3 26.8L240.55 25.2L234.4 23.65L232.9 24.75L234.75 25.6L236.4 26.3M117,137.05L108.25 143.3L116.3 156L120.25 157L130.7 149.5L132.3 149.9L137.4 146.3L139.1 146.75L144.2 143.1L146.1 143.6L151.25 139.9L152.85 140.3L157.9 136.7L165.85 135.85L164.6 133.9L149.15 130.05L138.9 137.35L124.15 133.65L120.05 136.6L117 137.05M223.65,62.9L224.6 63.1L227.25 61.25L230.8 62.1L236.3 61.7L219.55 57.5L214.3 58L223.7 60.35L223.65 62.9M205.4,78.1L227 83.5L236.4 82.25L237.05 81.8L209.8 75L205.4 78.1M221.1,93.8L220.6 93.1L220.65 87.9L221.15 87.55L191.6 80.15L181.05 87.65L210.3 94.95L221.1 93.8M192.8,55.8L197.15 56.9L199.75 55.05L192.8 55.8M175.55,133.1L169.45 132.25L171.45 135.45L176.65 134.9L175.55 133.1M178.6,131.75L180.35 134.5L213.5 131.05L214.05 130.65L200.55 127.3L178.6 129.6L178.6 131.75M200.65,121.8L217.45 126L226.9 119.25L215.65 116.45L215.5 116.4L215.45 116.35L207.45 104.45L180.3 97.7L150.5 118.95L173.45 124.65L200.65 121.8M225.5,100.6L214.55 101.7L217.85 106.75L238.25 111.8L231.3 102.05L225.5 100.6M214.4,108.6L216.05 111.05L216.8 111.25L215.05 108.55L214.4 108.6M210,100.35L208.6 100L210.95 103.5L211.9 103.45L210 100.35M131.7,155.25L130.9 155.05L130.15 155.6L131.7 155.25M129,164L132.45 163.6L135.65 162.6L138.2 161.2L138.45 161L138.25 160.95L138.1 160.85L136.1 160.45L134.55 160.4L133 160.5L129.9 161.1L127.9 161.8L125.35 163.2L125.1 163.4L125.3 163.5L125.45 163.55L127.4 163.95L129 164M122.65,161.55L122.7 161.6L122.7 161.7L122.7 161.65L122.7 161.6L122.65 161.5L122.65 161.55" />
</g>
</svg>
