<?xml version="1.0" encoding="utf-8"?>
<svg version="1.1" id="Layer_1"
xmlns="http://www.w3.org/2000/svg"
xmlns:xlink="http://www.w3.org/1999/xlink"
xmlns:author="http://www.sothink.com"
width="162px" height="70px"
xml:space="preserve">
<g id="33" transform="matrix(1, 0, 0, 1, 0, 0)">
<path style="fill:#FFCC00;fill-opacity:1" d="M126.65,19.7L124.25 21.4L88.7 25.15L86.6 25.7L75 26.65L72.75 28.25L74.35 29.9L77.1 30.65L77.1 31.65L61.5 42.8L62.2 43.7L74.7 46.8L85.65 47.15L99.7 50.7Q100.15 51.15 101.55 51.5L105.6 51.6L107.65 50.05L110.2 50.7L110.2 51.25L112.6 51.95L112.55 53L111.3 53.9L112.05 55.9L117.95 57.35L125.4 56.6L133.6 58.65L139 57.55L142.35 58.4L134.4 67.45L122.7 64.5L119.5 64.1L92.45 57.45L91.45 58.15L79.2 55.15L79.2 54.1L79.8 53.7L54.1 47.65L50.15 50.55L48.1 51.6L43.9 57.6L27.45 69.35L23.25 68.35L23.25 67.3L39.95 55.4L42.45 51.95L42.4 51.95L41.85 52.05L41.6 52.05L41.25 52.1L41.1 52.15L40.9 52.15L38.7 52.3L38.4 52.35L37.6 52.4L36 52.4L35.65 52.45L32.9 52.45L32.55 52.4L30.85 52.4L30 52.35L26.85 52.2L26.05 52.15L25.75 52.1L24.4 52L24.1 51.95L24 51.95L22.25 51.7L22 51.7L20.4 51.45L20.25 51.4L20.15 51.4L18.35 51.05L18.25 51L18.05 51L14.2 50L13.85 49.85L13.8 49.85L12.95 49.55L12.7 49.5L11.45 49.05L11.4 49L11.2 48.9L10.85 48.8L10.5 48.65L10.5 48.6L10.35 48.55L0 32.15L0 31.1L7.3 30.2L10.5 35.6L14.8 36.7L25.3 29.2L26.8 29.6L31.95 26L33.7 26.45L38.75 22.8L40.65 23.3L45.8 19.6L47.4 20L52.55 16.3L63.75 15.15L65.25 14.35L65.85 15.15L108.15 10.7L112.65 7.45L112 6.75L112 5.7L120.05 0L161.8 10.05L156.4 16.55L126.65 19.7" />
</g>
</svg>
