<?xml version="1.0" encoding="utf-8"?>
<svg version="1.1" id="Layer_1"
xmlns="http://www.w3.org/2000/svg"
xmlns:xlink="http://www.w3.org/1999/xlink"
xmlns:author="http://www.sothink.com"
width="199px" height="106px"
xml:space="preserve">
<g id="35" transform="matrix(1, 0, 0, 1, 0, 0)">
<path style="fill:#006600;fill-opacity:1" d="M183.8,12.15L182.4 13.15L184.35 15.4L184.35 16.45L176.5 22.05L162.85 23.5L136.05 42.7L136.75 44.85L136.75 45.9L126.85 53.05L120.05 54.15L55.6 100.05L55.9 100.45L58.35 101.05L58.3 102.1L53.15 105.8L0 94.55L7.4 88.45L12.6 89.75L43.75 86.55L97.65 48.1L95.95 45.8L95.95 44.75L99.4 42.35L99.7 39.85L97.1 36.4L52.1 25.3L52.15 24.25L54.15 22.85L52.9 20.55L52.9 19.5Q57.55 16.35 58.1 13.45L58 13.05L57.8 12.65L57.6 12.4L57.5 12.3L57.35 12.1L57.2 12L57 11.8L56.6 11.55L56.45 11.4L55.6 10.85L55.15 10.65L54.95 10.5L54.35 10.2L54.15 10.15L53.95 10.05L53.85 9.95L53.6 9.9L53.55 9.85L53.35 9.75L53.3 9.75L53.15 9.65L53.1 9.65L53 9.6L52.95 9.6L50.35 9.95L46.7 8.7L46.65 8.65L43.15 7.9L42.95 7.9L42.7 7.85L42.1 7.85L36.75 11.7L20.5 12.65L8.35 9.6L13.2 4.75L23.3 7.25L26.4 6.1L25.3 5.45L25.3 4.4L26.65 3.85L27.95 4.65L31.95 4.1L37.95 3.55L49.2 4.3L50.15 3.1L57.9 4.3Q58.8 4.55 62.25 6.35Q66.55 8.65 67.8 10.3Q68.45 11.25 68.45 12.45L68.4 13.9L68.3 14.55L68.15 15.05L68.1 15.3L67.5 16.8L67.35 17L67.1 17.5L67.1 17.55L67.05 17.55L72.15 18.85L72.15 19.9L68.25 22.85L102.55 31.4L123.05 29.15L140.4 16.75L137 11.4L137 10.4L142.25 6.6L150.1 5.75L158.15 0L198.4 10L198.4 11.05L193.5 14.55L183.8 12.15" />
</g>
</svg>
