<?xml version="1.0" encoding="utf-8"?>
<svg version="1.1" id="Layer_1"
xmlns="http://www.w3.org/2000/svg"
xmlns:xlink="http://www.w3.org/1999/xlink"
xmlns:author="http://www.sothink.com"
width="282px" height="114px"
xml:space="preserve">
<g id="34" transform="matrix(1, 0, 0, 1, 0, 0)">
<path style="fill:#FF0000;fill-opacity:1" d="M273.9,14.9L237.65 18.65L179.85 59.95L180.05 60.25L180.05 61.25L165.35 71.75L165.55 72.35L165.55 73.4L137.6 93.3L138.15 94.85L138.15 95.9L118.1 110.2L43.2 91.6L12.8 113.35L2.8 110.85L2.8 109.8L5.75 107.65L0 106.25L0 105.2L3.7 102.55L10.8 104.3L14.35 101.8L19.95 103.2L41.35 87.95L54.55 91.25L56.1 90.15L92.75 99.25L100.65 98.4L145 66.8L140.7 60.2L137.7 59.4L137.7 58.35L142.5 54.95L156.5 54.2L170.4 44.2L168.8 41.95L133.1 33L131 34.55L120.95 35.5L90.1 27.8L98.05 18.75L173.3 37.4L177.4 36.9L180.1 34.9L183.6 34.5L221.85 7.2L221.2 6.1L228.55 0L281.7 11.25L275.9 15.4L273.9 14.9" />
</g>
</svg>
