<?xml version="1.0" encoding="utf-8"?>
<svg version="1.1" id="Layer_1"
xmlns="http://www.w3.org/2000/svg"
xmlns:xlink="http://www.w3.org/1999/xlink"
xmlns:author="http://www.sothink.com"
width="299px" height="129px"
xml:space="preserve">
<g id="109" transform="matrix(1, 0, 0, 1, -441.75, -271.75)">
<path style="fill:none;stroke-width:0.5;stroke-linecap:butt;stroke-linejoin:round;stroke-miterlimit:3;stroke:#B2B2B2;stroke-opacity:1" d="M605.9,278.8L599.6 283.3L572.3 276.5L578.6 272L605.9 278.8z" />
<path style="fill:none;stroke-width:0.5;stroke-linecap:butt;stroke-linejoin:round;stroke-miterlimit:3;stroke:#B2B2B2;stroke-opacity:1" d="M565,307.95L537.7 301.15L571.9 276.75L599.15 283.55L565 307.95z" />
<path style="fill:none;stroke-width:0.5;stroke-linecap:butt;stroke-linejoin:round;stroke-miterlimit:3;stroke:#B2B2B2;stroke-opacity:1" d="M541.1,310.85L535.85 302.5L537.3 301.5L564.05 308.2L541.2 310.9L541.1 310.85z" />
<path style="fill:none;stroke-width:0.5;stroke-linecap:butt;stroke-linejoin:round;stroke-miterlimit:3;stroke:#B2B2B2;stroke-opacity:1" d="M535.1,302.65L540.35 311L532.25 312L527 303.6L535.1 302.65z" />
<path style="fill:none;stroke-width:0.5;stroke-linecap:butt;stroke-linejoin:round;stroke-miterlimit:3;stroke:#B2B2B2;stroke-opacity:1" d="M526.25,303.7L531.5 312.1L499.4 315.95L483.05 311.85L488.25 308.1L526.25 303.7z" />
<path style="fill:none;stroke-width:0.5;stroke-linecap:butt;stroke-linejoin:round;stroke-miterlimit:3;stroke:#B2B2B2;stroke-opacity:1" d="M498.8,316.2L484 326.65L467.95 322.65L482.65 312.1L498.8 316.2z" />
<path style="fill:none;stroke-width:0.5;stroke-linecap:butt;stroke-linejoin:round;stroke-miterlimit:3;stroke:#B2B2B2;stroke-opacity:1" d="M467.5,323L483.55 327L480.6 329.1L464.45 325.1L467.5 323z" />
<path style="fill:none;stroke-width:0.5;stroke-linecap:butt;stroke-linejoin:round;stroke-miterlimit:3;stroke:#B2B2B2;stroke-opacity:1" d="M464,325.35L480.15 329.45L470.9 336L454.85 332L464 325.35z" />
<path style="fill:none;stroke-width:0.5;stroke-linecap:butt;stroke-linejoin:round;stroke-miterlimit:3;stroke:#B2B2B2;stroke-opacity:1" d="M470.5,336.35L469.7 336.9L473.7 343.2L456.95 344.85L453.55 339.4L461.2 334.05L470.5 336.35z" />
<path style="fill:none;stroke-width:0.5;stroke-linecap:butt;stroke-linejoin:round;stroke-miterlimit:3;stroke:#B2B2B2;stroke-opacity:1" d="M457.2,345.15L473.9 343.55L477.7 349.65L461.05 351.35L457.2 345.15z" />
<path style="fill:none;stroke-width:0.5;stroke-linecap:butt;stroke-linejoin:round;stroke-miterlimit:3;stroke:#B2B2B2;stroke-opacity:1" d="M461.3,351.7L477.85 350L481 354.95L473.55 360.3L459.15 356.75L462.85 354.1L461.3 351.7z" />
<path style="fill:none;stroke-width:0.5;stroke-linecap:butt;stroke-linejoin:round;stroke-miterlimit:3;stroke:#B2B2B2;stroke-opacity:1" d="M458.75,357L473.1 360.55L465.05 366.4L450.6 362.75L458.75 357z" />
<path style="fill:none;stroke-width:0.5;stroke-linecap:butt;stroke-linejoin:round;stroke-miterlimit:3;stroke:#B2B2B2;stroke-opacity:1" d="M442,368.95L450.15 363.1L464.6 366.65L456.35 372.55L442 368.95z" />
<path style="fill:none;stroke-width:0.5;stroke-linecap:butt;stroke-linejoin:round;stroke-miterlimit:3;stroke:#B2B2B2;stroke-opacity:1" d="M653.4,287.95L659.75 298.1L628.75 290.35L637.6 284.05L653.4 287.95z" />
<path style="fill:none;stroke-width:0.5;stroke-linecap:butt;stroke-linejoin:round;stroke-miterlimit:3;stroke:#B2B2B2;stroke-opacity:1" d="M659.85,298.5L651.55 304.45L620 296.65L628.3 290.7L659.85 298.5z" />
<path style="fill:none;stroke-width:0.5;stroke-linecap:butt;stroke-linejoin:round;stroke-miterlimit:3;stroke:#B2B2B2;stroke-opacity:1" d="M627.15,307L619.05 312.7L603 308.7L611.05 303L627.15 307z" />
<path style="fill:none;stroke-width:0.5;stroke-linecap:butt;stroke-linejoin:round;stroke-miterlimit:3;stroke:#B2B2B2;stroke-opacity:1" d="M611.5,302.65L619.55 296.9L677.3 311.35L669.2 317.1L611.5 302.65z" />
<path style="fill:none;stroke-width:0.5;stroke-linecap:butt;stroke-linejoin:round;stroke-miterlimit:3;stroke:#B2B2B2;stroke-opacity:1" d="M602.55,309.05L621.95 313.8L595.1 316.8L593.9 315.25L602.55 309.05z" />
<path style="fill:none;stroke-width:0.5;stroke-linecap:butt;stroke-linejoin:round;stroke-miterlimit:3;stroke:#B2B2B2;stroke-opacity:1" d="M619.8,312.85L627.8 307.15L668.8 317.35L660.8 323.05L619.8 312.85z" />
<path style="fill:none;stroke-width:0.5;stroke-linecap:butt;stroke-linejoin:round;stroke-miterlimit:3;stroke:#B2B2B2;stroke-opacity:1" d="M629.25,320.2L624.75 323.4L612.7 324.6L609.05 319.25L620.4 317.95L629.25 320.2z" />
<path style="fill:none;stroke-width:0.5;stroke-linecap:butt;stroke-linejoin:round;stroke-miterlimit:3;stroke:#B2B2B2;stroke-opacity:1" d="M608.2,319.4L611.85 324.7L600.35 325.85L597.3 320.5L608.2 319.4z" />
<path style="fill:none;stroke-width:0.5;stroke-linecap:butt;stroke-linejoin:round;stroke-miterlimit:3;stroke:#B2B2B2;stroke-opacity:1" d="M655,326.55L645 333.8L624.75 328.7L639.7 327.15L644.2 323.9L655 326.55z" />
<path style="fill:none;stroke-width:0.5;stroke-linecap:butt;stroke-linejoin:round;stroke-miterlimit:3;stroke:#B2B2B2;stroke-opacity:1" d="M724.65,337.1L651.7 344.55L647 337.2L719.95 329.45L724.65 337.1z" />
<path style="fill:none;stroke-width:0.5;stroke-linecap:butt;stroke-linejoin:round;stroke-miterlimit:3;stroke:#B2B2B2;stroke-opacity:1" d="M600.6,326.2L625.2 323.75L630 320.35L643.45 323.75L639.2 326.8L622.55 328.6L645.25 334.2L655.7 326.7L681.35 333.2L646 336.9L650.85 344.65L644.75 345.35L607.35 336L600.6 326.2z" />
<path style="fill:none;stroke-width:0.5;stroke-linecap:butt;stroke-linejoin:round;stroke-miterlimit:3;stroke:#B2B2B2;stroke-opacity:1" d="M740.25,361.5L690.65 396.95L660.05 400.1L657.5 396L654.35 396.35L628.85 356.9L591.35 347.55L607.05 336.35L644.55 345.7L724.9 337.45L740.25 361.5z" />
<path style="fill:none;stroke-width:0.5;stroke-linecap:butt;stroke-linejoin:round;stroke-miterlimit:3;stroke:#B2B2B2;stroke-opacity:1" d="M545.85,352.75L551.05 361.25L535 357.25L540.5 353.25L545.85 352.75z" />
<path style="fill:none;stroke-width:0.5;stroke-linecap:butt;stroke-linejoin:round;stroke-miterlimit:3;stroke:#B2B2B2;stroke-opacity:1" d="M576.4,349.5L581.55 357.75L592.8 360.55L587.2 364.65L579.55 362.7L575.05 366L560 362.25L553.5 351.9L576.4 349.5z" />
<path style="fill:none;stroke-width:0.5;stroke-linecap:butt;stroke-linejoin:round;stroke-miterlimit:3;stroke:#B2B2B2;stroke-opacity:1" d="M590.75,347.8L628.15 357.15L630.1 360.15L610.75 362.15L619.9 376.8L598.9 371.5L603 368.55L587.85 364.8L594 360.45L582.35 357.6L577.15 349.4L590.75 347.8z" />
<path style="fill:none;stroke-width:0.5;stroke-linecap:butt;stroke-linejoin:round;stroke-miterlimit:3;stroke:#B2B2B2;stroke-opacity:1" d="M552.1,362.95L541.55 370.5L522.9 365.8L534.55 357.5L551.4 361.75L552.1 362.95z" />
<path style="fill:none;stroke-width:0.5;stroke-linecap:butt;stroke-linejoin:round;stroke-miterlimit:3;stroke:#B2B2B2;stroke-opacity:1" d="M496.15,384.95L522.5 366.15L544.15 371.5L536.8 376.8L546.7 379.35L535.85 387.05L513.55 389.3L496.15 384.95z" />
</g>
</svg>
