<?xml version="1.0" encoding="utf-8"?>
<svg version="1.1" id="Layer_1"
xmlns="http://www.w3.org/2000/svg"
xmlns:xlink="http://www.w3.org/1999/xlink"
xmlns:author="http://www.sothink.com"
width="308px" height="160px"
xml:space="preserve">
<g id="80" transform="matrix(1, 0, 0, 1, -437.5, -261.75)">
<path style="fill:none;stroke-width:8;stroke-linecap:butt;stroke-linejoin:round;stroke-miterlimit:3;stroke:#00C2FF;stroke-opacity:1" d="M578.5,271.85L535.5 302.6L488.45 308.05L488.3 308.05L454.3 332.3L454.2 338.85L453.3 339.55L453.3 347.3L459.15 356.6L441.6 369.15L441.5 376.8L456.4 380.5L441.85 390.9L441.85 392.5L454.75 409.6L485.9 417.4L505.5 416.1L520.3 405.65L520.3 404.1L515.85 397.15L536.6 395.15L536.75 395.15L547.95 387.05L586.75 396.7L607.65 381.8L621.3 385.2L621.4 377.6L616.5 369.8L630.35 368.25L653.7 404.45L656.8 404.1L659.35 408.2L690.95 404.85L740.85 369.3L740.95 361.6L720.4 329.2L682.5 333.2L664.75 328.8L678.45 319.15L678.45 311.4L660.2 306.95L660.55 306.65L661.05 306.85L661.15 299.1L661.05 298.95L661.05 298.7L660.8 298.6L658.95 295.75L678.25 293.6L691.2 284.45L691.2 282.95L686.05 274.75L650.1 265.75L608.15 270.25L598.75 276.9L578.5 271.85M653.35,336.35L653.35 336.3L655.7 336.05L653.35 336.35M644.75,345.45L645.15 345.4L645.25 345.4L644.75 345.45M607.7,373.75L614.3 375.4M594.1,366.4L595.5 366.8M575.3,366.1L575.35 366.05L575.4 366.05L575.3 366.1" />
<path style="fill:none;stroke-width:8;stroke-linecap:round;stroke-linejoin:round;stroke-miterlimit:3;stroke:#00C2FF;stroke-opacity:1" d="M690.55,396.9L735.55 364.8M607.45,336.05L607.05 335.45" />
<path style="fill:none;stroke-width:8;stroke-linecap:round;stroke-linejoin:round;stroke-miterlimit:3;stroke:#00C2FF;stroke-opacity:1" d="M735.55,364.8L736.6 364.05L736.65 364.05L735.55 364.8M607.05,335.45L605.7 333.6L605.75 333.6L607.05 335.45" />
</g>
</svg>
