<?xml version="1.0" encoding="utf-8"?>
<svg version="1.1" id="Layer_1"
xmlns="http://www.w3.org/2000/svg"
xmlns:xlink="http://www.w3.org/1999/xlink"
xmlns:author="http://www.sothink.com"
width="301px" height="153px"
xml:space="preserve">
<g id="0" transform="matrix(1, 0, 0, 1, -440.8, -265.3)">
<path style="fill:#999999;fill-opacity:1" d="M691.3,284.1L678.3 293.25L654.85 295.8L638.5 291.75L595.15 322.6L608 342.5L608 344L591.85 355.55L554.95 359.55L560.75 368.75L576.2 372.55L580.8 369.35L603.5 375.05L603.5 376.55L601.05 378.35L607.65 380.05L607.65 381.6L586.5 396.7L538.4 384.75L538.4 383.1L544.25 379.05L542.75 378.6L542.8 377.1L552.95 369.85L547.25 360.4L541.35 361L498.25 391.8L514.6 395.85L519.85 404.1L519.85 405.65L505 416.2L485.35 417.45L454.05 409.65L441.15 392.45L441.15 390.85L481.85 361.85L471.25 344.85L471.25 343.35L500.4 322.4L566.2 314.6L605.9 286.3L591.95 282.8L591.95 281.2L608 269.8L650.1 265.3L686.1 274.3L691.3 282.55L691.3 284.1" />
<path style="fill:#7F7F7F;fill-opacity:1" d="M607.05,278.65L607 286.4L566.1 315.45L566.1 315.95L565.35 316.05L565.25 316.15L565 316.05L499.55 323.85L473.95 342.15L481.95 355L481.85 362.7L456.6 380.65L440.8 376.75L440.9 369L458.5 356.4L456.3 352.95L456.1 352.6L452.65 347.05L452.65 339.35L453.55 338.65L453.65 332.05L463.35 325.15L463.75 324.9L487.75 307.7L487.9 307.7L535.1 302.3L578.25 271.4L607.05 278.65M541.2,310.85L543.15 310.6L540.6 310L541.1 310.8L541.2 310.85M545.6,303.15L565 307.9L591.2 289.25L571.8 284.45L545.6 303.15M456.95,344.8L468.95 343.6L461.15 341.65L456.9 344.7L456.95 344.8M462.75,333.9L470.9 335.95L472.1 335.1L464 333.05L462.75 333.9M526.15,311.35L495.7 314.95L499.4 315.9L526.9 312.55L526.15 311.35M535,310.35L531.6 310.8L532.25 311.95L535.75 311.55L535 310.35M482.55,319.8L475.85 324.55L484 326.6L490.7 321.85L482.55 319.8M477,357.8L467.6 358.7L473.55 360.25L477 357.8" />
<path style="fill:#7F7F7F;fill-opacity:1" d="M552.95,362.95L552.95 370.7Q549.1 373.4 545.3 376.15L545.3 378.5L547.9 379.1L547.85 386.85L536.35 395.1L536.2 395.1L513.4 397.3L494.95 392.7L495.05 385L521.75 365.85L522.15 365.6L533.8 357.25L534.25 357L540 352.95L546.45 352.25L552.1 361.45L552.15 361.45L552.95 362.95M535.85,387L538.75 385L536.7 384.45L536.8 377.35L522.4 373.75L504.15 386.85L513.55 389.25L535.85 387M545.1,367.8L534.5 365.2L530.9 367.75L541.55 370.45L545.1 367.8" />
<path style="fill:#7F7F7F;fill-opacity:1" d="M724.8,345.1L644.55 353.35L607.05 344L599.35 349.55L628.85 356.85L654.35 396.3L657.5 395.95L660.05 400.05L690.65 396.9L736.85 363.9L724.8 345.1M719.95,337.15L651.6 344.35L651.7 344.5L720.2 337.55L719.95 337.15M741.2,361.45L741.1 369.15L691.05 404.85L659.35 408.2L656.8 404.1L653.65 404.45L630.3 368.15L616.35 369.7L621.25 377.5L621.2 385.15L597.65 379.3L597.7 375.4L579.8 370.85L575.3 374.1L559.2 370.1L552.4 359.3L552.5 351.6L590.5 347.4L590.85 347.4L602.9 338.65L599.7 334L599.5 333.65L599.5 333.55L596.2 327.85L596.2 324.7L594.4 324.9L592.9 322.85L592.95 315.1L601.9 308.75L602.3 308.5L610.3 302.7L610.75 302.45L637.25 283.5L654.1 287.75L660.8 298.3L661.05 298.35L661.05 298.6L661.15 298.8L661.05 306.55L660.55 306.35L660.2 306.6L678.45 311.1L678.45 318.85L664.8 328.55L682.55 332.95L720.65 328.95L741.2 361.45M560,362.2L575.05 365.95L579.55 362.65L579.8 362.7L576.3 357.2L558.05 359.05L560 362.2M607.35,335.95L644.75 345.3L646.25 345.1L645.9 344.6L646 341.4L645.25 341.9L622.45 336.3L622.55 331.7L605.55 333.4L607.35 335.95M581.75,356.5L582.35 357.55L594 360.4L593.9 366.3L603 368.5L603 372.5L614.15 375.3L610.75 369.85L610.75 362.1L615.4 361.7L590.65 355.5L581.75 356.5M653.3,295.65L637.5 291.75L636.75 292.35L653.9 296.6L653.3 295.65M651.8,304.25L628.25 298.35L628 298.55L651.55 304.4L651.8 304.25M644.15,331.6L642.2 332.95L645 333.75L646.95 332.3L644.15 331.6M659.6,335.45L655.7 334.4L653.3 336.1L659.6 335.45" />
</g>
</svg>
