<?xml version="1.0" encoding="utf-8"?>
<!DOCTYPE svg PUBLIC "-//W3C//DTD SVG 1.1//EN" "http://www.w3.org/Graphics/SVG/1.1/DTD/svg11.dtd">
<svg version="1.1" xmlns="http://www.w3.org/2000/svg" xmlns:xlink="http://www.w3.org/1999/xlink" xml:space="preserve">
<g class="level" id="level0">
  <g class="shadow">
    <path d="M411.688171,73.0727158 L401.925293,70.5940323 L407.357758,66.7420731 L407.357758,63.5664825 L312.814026,39.9250946 L304.399292,46.2151985 L304.19516,46.1941566 L304.052917,46.1941566 L297.149017,46.9110756 L290.409332,51.7252617 L290.392456,53.0426064 L280.119995,60.40065 L277.991608,60.6377411 L274.417908,63.1774902 L274.417908,64.1202087 L260.550232,60.6782837 L255.485107,64.3039322 L255.321899,64.4065628 L225.80864,85.548233 L225.80864,88.682251 L234.693054,90.8951035 L214.370682,105.419762 L214.370682,106.774574 L210.571335,109.476486 L148.431061,94.0475922 L152.914963,90.8340302 L152.914963,87.6584473 L92.9695663,72.6621628 L45.9939423,96.5698929 L45.9530106,99.7454834 L44.1965904,100.626617 L44.1965904,100.749268 L39.6410561,101.383568 L39.6410561,104.559151 L41.2956619,108.411118 L61.7602692,113.532188 L68.9092407,108.411118 L68.9164047,107.462242 L71.9728699,108.226372 L12.0054874,151.126038 L8.14525604,160.488068 L8.10432529,161.122879 L36.6577682,168.252548 L43.1114426,163.663651 L43.1114426,163.134567 L45.6439972,163.765778 L47.0330696,162.783035 L47.0330696,159.15686 L43.2751617,158.214142 L44.4534416,157.387924 L44.8888359,157.497742 L54.9786491,157.45668 L55.4073944,157.57933 L60.7789764,153.625244 L58.9406967,153.175186 L56.8169289,149.876434 L55.4943695,149.53157 L60.3292542,146.004456 L60.2274399,146.004456 L71.1957169,138.219452 L71.3584213,138.199432 L80.1410217,140.350189 L80.1819534,140.350189 L80.3651123,140.431793 L83.7966003,137.994156 L83.653862,137.952591 L119.308189,112.408318 L120.768883,112.89122 L85.4921417,138.116806 L85.4921417,141.292404 L153.137543,158.214142 L162.08284,151.80191 L167.577209,153.175186 L170.211578,151.289749 L170.211578,152.335098 L167.332138,154.424271 L167.148468,154.526398 L160.245071,159.463745 L155.48642,158.296249 L146.010056,165.077469 L132.815674,161.799255 L124.033585,168.109375 L123.992661,171.284958 L127.05629,172.042923 L122.378471,175.382736 L122.338051,178.558319 L123.297867,178.804138 L118.089493,182.532425 L118.069542,185.216888 L107.816002,182.67662 L95.2140961,191.690201 L95.0513992,191.792831 L92.0691223,193.943588 L91.8854446,194.045715 L79.2226562,203.141922 L79.1817245,204.392029 L74.8313522,203.326157 L67.4378204,208.571411 L67.4291229,209.916977 L57.0154457,217.349426 L54.9377251,217.56395 L47.7273521,222.727097 L47.5436783,222.829208 L44.7046547,224.877853 L44.664238,228.053436 L49.1164207,229.159866 L41.3754921,234.690964 L41.3345604,237.866547 L125.707123,258.967682 L136.818146,250.998428 L156.506607,255.915253 L171.293686,254.89093 L182.54744,246.859604 L182.54744,245.220993 L184.242462,245.631027 L231.463165,211.849625 L231.483627,208.674042 L213.121811,204.085144 L233.362839,189.60051 L233.404282,186.424927 L230.789871,185.769592 L239.306931,179.705795 L239.34787,177.555038 L255.932281,181.734421 L278.236206,179.459473 L308.197113,158.011429 L308.218109,154.835846 L302.111298,145.5354 L290.938385,142.728806 L301.620667,135.106979 L307.461914,136.561859 L329.295624,120.950783 L329.295624,119.537476 L354.744019,125.90918 L406.315063,88.9916992 L406.315063,87.4552231 L407.86734,87.8652573 L415.403625,82.4768219 L415.403625,79.3012314 L411.688171,73.0727158 M211.121872,124.226944 L208.099167,123.468979 L205.566101,125.27179 L205.566101,122.834167 L203.340012,122.280441 L208.467026,118.613739 L208.467026,117.507828 L217.371918,119.740692 L211.121872,124.226944 M149.947525,193.666473 L149.412369,194.050339 L149.420547,193.532532 L149.947525,193.666473 M94.213356,210.04425 L94.3151703,210.064774 L94.213356,210.146881 L94.213356,210.04425 M235.732697,165.916519 L235.732697,165.71228 L235.936844,165.7323 L235.732697,165.916519" />
  </g>
  <g class="outline">
    <path d="M415.579132,46.0663719 L411.841675,39.8378525 C411.619629,39.4688721 411.261993,39.2020149 410.845551,39.0952721 L404.559174,37.489006 L407.080475,35.6882401 C407.511261,35.3808441 407.766571,34.884079 407.766571,34.353447 L407.766571,31.1983871 C407.766571,30.4460602 407.255951,29.7907219 406.527924,29.6080284 L312.290649,6.04926586 C311.813812,5.93072033 311.309357,6.03233051 310.915894,6.32792473 L303.024567,12.2541809 C303.010223,12.2552071 302.994873,12.2562332 302.98056,12.2582855 L296.097107,12.9957333 C295.818268,13.0254974 295.552734,13.1271076 295.324036,13.2892742 L288.625305,18.0629177 C288.200134,18.3651829 287.944824,18.8527088 287.937164,19.3761559 L287.928467,20.0007019 L278.902832,26.4591293 L277.001617,26.6602993 C276.723297,26.6900635 276.457245,26.7906475 276.228058,26.9533272 L272.654327,29.4930763 C272.540222,29.5736465 272.438416,29.6680717 272.350922,29.7722511 L260.207428,26.7408676 C259.743378,26.6243763 259.253265,26.7188015 258.86441,26.9969482 L224.204178,51.7853012 C223.773911,52.092701 223.5186,52.5899773 223.5186,53.1200981 L223.5186,56.2335854 C223.5186,56.9869423 224.029724,57.6422806 224.75827,57.8244591 L230.181015,59.1782379 L212.827621,71.596283 C212.397858,71.9047012 212.142548,72.4009552 212.142548,72.9305573 L212.142548,73.102478 L209.152084,73.8455658 L152.045715,60.4719772 L154.158234,58.9329376 C154.643768,58.5788422 154.897018,57.9850845 154.816696,57.3882523 L154.44986,54.6432266 C154.353668,53.92939 153.805725,53.3623199 153.098145,53.2442856 L153.034698,53.2335091 L93.1276703,38.6611214 C92.7490692,38.5682335 92.3499985,38.615448 92.0026016,38.7924957 L45.1702309,62.6591721 C44.6253471,62.9368057 44.2805099,63.49617 44.2764168,64.1094284 L44.2615814,66.3705215 L43.6466026,66.6727829 L39.3468819,67.2911758 C38.5426025,67.4076691 37.9450226,68.0984116 37.9450226,68.913353 L37.9450226,72.0684052 C37.9450226,72.2911301 37.9905548,72.5118027 38.0790672,72.7170715 L39.7326508,76.5680084 C39.934742,77.0380859 40.3430214,77.3870544 40.8377647,77.5102158 L59.9823685,82.3013077 L11.0569305,117.279457 C10.8057203,117.459076 10.6102791,117.705917 10.4936275,117.992271 L6.67432499,127.33429 C6.60730267,127.497482 6.56739521,127.670425 6.55562782,127.846954 L6.51469707,128.461243 C6.46199989,129.253082 6.98232555,129.968979 7.74874401,130.160904 L36.1998596,137.289551 C36.6608391,137.405533 37.1504669,137.313675 37.5393028,137.037582 L43.9730225,132.469727 C44.0032082,132.448166 44.0318604,132.42662 44.0594902,132.403519 L45.1651154,132.681152 C45.6255798,132.796112 46.1141853,132.704254 46.5035362,132.430206 L47.8926048,131.446945 C48.3264656,131.14006 48.5843277,130.640732 48.5843277,130.108047 L48.5843277,126.610184 L54.6773033,126.585037 L54.8870697,126.638412 C55.3480453,126.754395 55.8376732,126.661499 56.2260017,126.386429 C59.2568817,124.238754 61.0455322,122.934753 61.6927414,122.401047 C62.168045,122.008972 62.3839569,121.38237 62.2499084,120.77887 C62.11586,120.176384 61.6559067,119.70015 61.0598602,119.547737 L59.8457718,119.236748 L58.2960472,116.805794 L61.1550217,114.690445 C61.2660446,114.608337 61.3642807,114.513908 61.4487,114.410759 L71.4285126,107.351395 L79.5557251,109.342033 C80.069397,109.546799 80.6526489,109.478027 81.1049347,109.156776 L83.6528397,107.34626 L83.6528397,108.701065 C83.6528397,109.4534 84.1634445,110.109245 84.8914871,110.291428 L150.701172,126.744125 L145.279449,130.650482 L132.860184,127.555984 C132.396652,127.440521 131.904465,127.53392 131.515625,127.813599 L122.753487,134.100113 C122.327812,134.40596 122.074043,134.897079 122.070465,135.422577 L122.050507,138.556091 C122.045906,139.182175 122.395859,139.743088 122.932045,140.022263 L121.089165,141.324203 C120.653763,141.631607 120.395905,142.130936 120.395905,142.664139 L120.395905,145.839722 C120.395905,145.868454 120.396927,145.897705 120.39846,145.925415 L116.853905,148.459518 C116.430786,148.762299 116.176514,149.248291 116.168327,149.768661 L116.1586,150.39064 L107.942368,148.347137 C107.48037,148.233215 106.988693,148.326096 106.59935,148.603729 L90.9680939,159.797318 L90.8652573,159.854782 C90.8110199,159.885071 90.7588348,159.918427 90.7076721,159.953827 L78.0648346,169.030014 C77.8678589,169.171143 77.7077179,169.352295 77.5915833,169.558594 L75.0549316,168.93457 C74.5954895,168.821152 74.1094437,168.913528 73.7226486,169.187057 L66.3495789,174.41127 C65.9228821,174.713531 65.665535,175.20311 65.6578598,175.727081 L65.6486511,176.371643 L56.4920464,182.905502 L54.6854858,183.069717 C54.3969269,183.095901 54.1196251,183.199051 53.8837662,183.367874 L43.6716728,190.681793 C43.2454872,190.98764 42.9912071,191.479797 42.987114,192.004776 L42.9666481,195.159836 C42.9615326,195.915756 43.4726486,196.576736 44.204277,196.760452 L45.1753464,197.003708 L40.3445549,200.452316 C39.9168358,200.75766 39.6615334,201.250305 39.6574402,201.776321 L39.6374855,204.931381 C39.63237,205.688324 40.1439972,206.349319 40.8761368,206.531494 L124.962692,227.572067 C125.093674,227.604385 125.226181,227.620819 125.358185,227.620819 C125.695343,227.620819 126.028412,227.51561 126.308273,227.315475 L136.784882,219.805527 L155.660873,224.519638 C155.825623,224.560699 155.997528,224.575058 156.165863,224.564804 L170.932465,223.561005 C171.23381,223.539459 171.523392,223.43631 171.770004,223.260284 L182.982834,215.250504 C183.295441,215.027267 183.515945,214.704987 183.612656,214.341644 C183.987167,214.373474 184.366791,214.264679 184.678879,214.040924 L231.736374,180.36113 C232.159988,180.05835 232.41478,179.570831 232.421432,179.048401 L232.462372,175.872818 C232.472595,175.112793 231.959442,174.445145 231.223206,174.26091 L216.346603,170.551102 L233.656509,158.174622 C234.083206,157.868759 234.337997,157.376617 234.342087,156.85112 L234.362045,153.69606 C234.365631,153.198792 234.14563,152.743073 233.786469,152.436707 L239.557114,148.321487 C239.979202,148.020752 240.234512,147.536301 240.244736,147.016968 L240.24678,146.92511 L254.798004,150.583084 C254.980652,150.629791 255.171478,150.642609 255.359772,150.624146 L277.581299,148.370743 C277.864227,148.34201 278.134369,148.239883 278.36615,148.073608 L308.226288,126.706146 C308.649902,126.403885 308.904175,125.915848 308.911346,125.393417 L308.952789,122.217834 C308.956879,121.889908 308.861725,121.567116 308.682129,121.293587 L302.575348,112.013672 C302.350739,111.672401 302.00589,111.427101 301.610413,111.327026 L293.929352,109.387192 L301.076782,104.282547 L306.16748,105.554726 C306.631012,105.671219 307.121674,105.57782 307.510498,105.299675 L329.26236,89.7501831 C329.508972,89.5736465 329.697754,89.3360443 329.814423,89.0650787 L353.30838,94.9230881 C353.770874,95.0380402 354.262054,94.9446411 354.651398,94.6664886 L406.059235,57.8726959 C406.340118,57.6720428 406.546326,57.3903046 406.655304,57.0716171 C406.985809,57.0680237 407.312225,56.9648743 407.587494,56.768837 L415.124268,51.4014397 C415.555573,51.0940437 415.812408,50.5957413 415.812408,50.0651093 L415.812408,46.9095345 C415.813446,46.6139412 415.732605,46.3214264 415.579132,46.0663719 C415.579132,46.0663719 415.732605,46.3214264 415.579132,46.0663719 L415.579132,46.0663719" />
  </g>
  <g class="background">
    <path d="M361.237396,29.0618057 L309.931366,16.217308 L303.743195,20.6219711 L303.743195,21.2567806 L323.268463,26.1325474 L327.945251,22.7932568 L339.015869,25.5387936 L338.545685,25.9277878 L334.542725,26.3373089 L329.232513,30.1477051 L319.959747,31.1104393 L293.285522,24.4323673 L290.691559,20.3145733 L278.192017,29.2665672 L278.192017,29.902401 L288.751495,28.7138634 L325.616821,37.9327164 L306.275757,51.8020401 L301.271545,52.5394859 L293.632935,57.9684639 L293.632935,58.5832634 L293.857544,60.6524277 L265.85614,80.8108215 L242.490601,83.289505 L216.245117,76.6925201 L214.693344,74.0296097 L210.833115,76.7751389 L148.538834,61.3077545 L100.480606,73.3947983 L101.281296,73.6590881 L82.2216339,75.9350586 L46.4173965,66.9414978 L44.4568405,67.9252777 L44.4568405,68.5806046 L72.2336273,75.5250244 L12.26828,118.424171 L8.40804672,127.786194 L8.36711502,128.421005 L36.9205551,135.55069 L43.3742371,130.961777 L43.3742371,130.305939 L20.4584198,124.590088 L23.4811172,122.398277 L23.4811172,121.762955 L21.4182358,121.250801 L25.9323273,118.034676 L36.6340485,120.69809 L37.9617233,122.992027 L45.1516266,124.795364 L55.2409363,124.754318 L55.6696777,124.876953 L61.0412521,120.922874 L59.2034912,120.472305 L57.079216,117.174065 L55.0367889,116.641365 L53.2593994,116.743492 L40.2087936,113.507355 L33.3667908,114.982239 L31.0179062,114.387978 L79.4025574,79.7659836 L108.885117,76.1736908 L183.199081,100.743942 L211.384659,81.0971756 L237.915619,87.7352295 L239.855743,90.7465973 L217.491455,106.726135 L205.910751,108.037315 L198.741821,106.234505 L196.842133,103.284203 L193.676712,102.014069 L185.38475,100.498123 L172.43544,109.71698 L172.43544,110.372307 L178.317627,112.257233 L183.811493,113.199951 L190.694427,112.64624 L197.884338,114.429039 L200.457306,118.915802 L178.093018,134.89534 L167.737686,135.202225 L160.895157,140.077484 L160.895157,140.712799 L166.553253,149.255798 L139.817627,168.410416 L132.914246,169.722107 L124.622284,175.683258 L124.581863,176.297546 L125.929489,178.326157 L108.813492,190.576904 L106.036377,191.006943 L70.6204681,182.116028 L67.7405167,177.17868 L55.1391144,186.172241 L55.1391144,186.828079 L64.1053925,185.885376 L90.7586517,192.564468 L93.1689301,196.087982 L88.2056274,199.63205 L88.2056274,200.307404 L88.9618149,201.496445 L88.0224686,202.15126 L76.8091125,199.365189 L80.8734894,196.476974 L80.8734894,195.800598 L59.8977661,190.576904 L52.2586517,196.046936 L52.2586517,196.722794 L100.828003,208.871414 L111.530228,207.417053 L121.252197,200.451614 L121.252197,199.815765 L118.781021,195.882721 L137.714325,182.341827 L144.821854,181.521759 L152.440506,176.133835 L152.440506,175.499023 L150.826843,172.937729 L179.379257,152.492966 L189.755585,151.693939 L196.943954,146.571823 L196.943954,145.937027 L192.123917,138.520996 L213.16153,123.483658 L225.558777,122.111412 L255.317108,129.568481 L264.160614,123.238358 L264.160614,122.603035 L234.402283,115.145943 L231.420502,110.372307 L252.355286,95.3970718 L271.186798,93.4100266 L279.295074,87.6125717 L279.295074,86.9777603 L277.742798,84.4775314 L305.969299,64.2780762 L313.260498,63.4995651 L320.797302,58.1321678 L320.797302,57.4768372 L318.754395,55.1002808 L338.157349,41.2104263 L349.329773,40.411396 L359.154053,33.3848724 L359.154053,32.7495499 L358.500183,31.6636505 L361.237396,29.6766014 L361.237396,29.0618057 L361.237396,29.0618057 L361.237396,29.0618057" class="walkway"/>
    <path d="M415.667419,46.5988579 L415.667419,49.7744446 L408.131165,55.1618576 L406.578857,54.7523346 L406.578857,56.2888107 L355.007812,93.2057648 L329.559418,86.8340683 L329.559418,88.2478943 L307.725708,103.858452 L301.88446,102.40358 L291.202179,110.024879 L302.375092,112.83149 L308.481903,122.132446 L308.460907,125.308029 L278.498962,146.757614 L256.195557,149.032043 L239.610626,144.852661 L239.570221,147.003418 L231.052643,153.067215 L233.667053,153.723068 L233.626129,156.898651 L213.386124,171.382263 L231.747955,175.971146 L231.727478,179.146744 L184.506775,212.927628 L182.811752,212.518097 L182.811752,214.156708 L171.557983,222.188034 L156.77092,223.212357 L137.082458,218.295532 L125.971436,226.264786 L41.5988693,205.163651 L41.639801,201.988068 L49.3807297,196.45697 L44.9285431,195.35054 L44.9689636,192.174957 L47.807991,190.126328 L47.9916611,190.0242 L55.2015228,184.860535 L64.3105469,183.91832 L91.1075668,190.596909 L93.8238068,194.653122 L93.7833862,197.78714 L89.5757523,200.799026 L89.5552902,203.216125 C89.2692947,203.420883 88.9899445,203.618454 88.7177582,203.809875 L101.013199,206.903351 L106.629852,206.002197 L106.629852,206.062759 L106.772598,206.104324 L106.772598,206.002197 L111.592636,205.448471 L119.864639,199.529404 L119.129425,198.402451 L119.0271,198.197693 L118.986679,198.197693 L118.476074,197.316544 L118.496552,194.162003 L126.21701,188.630905 L127.503754,188.938293 L127.503754,187.70871 L137.429337,180.620605 L137.450317,180.395309 L137.777237,180.374786 L137.797195,180.333221 L137.919479,180.333221 L144.884781,179.595779 L151.032501,175.212143 L150.521896,174.37207 L150.521896,171.237534 L166.657104,159.683182 L168.331146,160.093216 L168.351624,158.45462 L179.442169,150.525925 L189.817474,149.726898 L195.536453,145.650665 L191.798492,139.975357 L191.839432,136.799774 L209.159576,124.364792 L210.466782,124.713242 L210.466782,123.463127 L213.224457,121.517136 L225.743988,120.144363 L253.664551,127.150879 L253.623108,128.851059 L260.813019,123.708435 L234.506653,117.132484 L234.424774,117.153015 L234.404327,117.132484 L234.118317,117.050377 L234.118317,116.661385 L231.17749,111.867722 L231.054687,111.867722 L231.054687,111.72403 L231.03421,111.682976 L231.054687,108.528435 L231.279297,108.548958 L233.87323,106.705086 L235.159973,107.033012 L235.200928,105.762878 L247.41449,96.994606 L247.597656,96.8924866 L252.418213,93.4505539 L271.229767,91.4635086 L271.372498,91.4635086 L277.90802,86.7309189 L277.417389,85.9108505 L277.458832,82.756813 L279.542175,81.2608795 L279.705383,81.1587601 L288.528412,74.8080978 L289.978363,75.1970901 L290.019806,73.7627411 L306.032227,62.3115387 L313.323944,61.5325241 L319.083344,57.4357758 L318.348114,56.5956917 L318.389069,53.4616737 L324.78186,48.8722649 L324.945068,48.7701416 L329.008911,45.8408813 L330.601624,46.2504044 L330.601624,44.6939163 L338.200317,39.2649345 L349.392181,38.4453812 L350.597046,37.5847702 L350.780731,37.4826469 L356.948914,33.0163994 L357.132599,32.9142761 L358.174255,32.1563034 L358.215698,30.2298088 L340.077484,25.7030067 L340.03656,26.95261 L338.790222,27.8748035 L334.807709,28.2843246 L329.456604,32.1152458 L320.041107,33.0990219 L309.420227,30.4361076 L309.11377,30.3334694 L293.285004,26.3999119 L290.629669,22.2000084 L290.670593,19.0244217 L297.410767,14.2102375 L304.314178,13.4933186 L304.456909,13.4933186 L304.660553,13.5143585 L313.075806,7.22476959 L407.619507,30.8661575 L407.619507,34.0417442 L402.187042,37.8937073 L411.949951,40.3723869 L415.667419,46.5988579 M307.41925,20.1303406 L323.350311,24.1454964 L326.0466,22.2200279 L310.11554,18.2248859 L307.41925,20.1303406 M77.5238571,196.94809 L60.1428375,192.584991 L56.180275,195.371063 L55.8942795,195.616882 L76.0733948,200.635834 L76.1138153,197.952377 L77.5238571,196.94809 M236.200134,133.030426 L235.996002,133.010422 L235.996002,133.214661 L236.200134,133.030426" class="wall"/>
    <path d="M326.63855,39.3665504 L306.826782,53.5432739 L306.826782,53.7069817 L306.499847,53.7480354 L306.479889,53.7685623 L306.377563,53.7685623 L301.537079,54.4644432 L294.327209,59.6275902 L294.327209,62.4752502 L294.245331,62.5163116 L294.245331,62.6594849 L294.1026,62.6184311 L283.338959,70.3213348 L281.787201,69.9318237 L281.787201,71.5298843 L266.101715,82.7568207 L242.592926,85.2560272 L216.245621,78.6385117 L214.632965,75.8934937 L214.632965,72.7179031 L234.954834,58.1932411 L226.070404,55.9803886 L226.070404,52.8468857 L255.583679,31.7047043 L255.746887,31.6020699 L260.811981,27.9764194 L274.679657,31.4178352 L274.679657,30.4756279 L278.253387,27.9353638 L288.93515,26.7478561 L326.678986,36.1914787 L326.63855,39.3665504" class="wall"/>
    <path d="M85.7544174,105.414948 L141.10437,65.8350677 L203.868332,81.5277405 L203.868332,80.4623718 L205.542892,79.2743454 L211.649673,79.1311722 L238.243073,85.7892303 L240.469177,89.2722092 L240.428223,92.4267578 L217.756973,108.692657 L206.03302,110.024368 L198.741821,108.180496 L196.822189,105.210182 L193.676697,104.411156 L193.676697,102.014069 L191.103729,103.857941 L185.589401,102.464645 L176.09256,109.245865 L178.359589,109.819611 L178.319168,112.257233 L180.85173,110.433891 L184.01767,111.232918 L190.900604,110.639168 L198.192322,112.483032 L201.072281,117.481453 L201.072281,120.636002 L178.359589,136.861359 L168.004745,137.189285 L162.694565,140.979156 L167.208145,147.801422 L167.187683,150.977005 L152.421066,161.527573 L149.684372,160.831177 L149.643448,163.514618 L140.06424,170.37796 L133.181305,171.66861 L126.37973,176.543869 L126.5634,176.81073 L126.624786,176.851273 L126.624786,176.953384 L126.685669,177.014969 L126.665726,180.190552 L126.461578,180.128983 L109.101028,192.564468 L106.180145,192.973984 L70.6214905,184.103592 L67.6801453,179.043594 L67.7011185,175.868011 L75.0941391,170.622742 L79.4450226,171.688629 L79.4854431,170.438507 L92.1487427,161.342316 L92.3324203,161.240189 L95.3141937,159.089432 L95.4774017,158.986801 L108.0793,149.973221 L118.331818,152.513489 L118.352798,149.829529 L123.561172,146.100739 L122.600845,145.854919 L122.641769,142.679337 L127.319077,139.340042 L124.255447,138.581558 L124.296371,135.40596 L133.078979,129.096359 L146.272842,132.374588 L155.749207,125.593369 L160.508377,126.760864 L167.411774,121.82402 L167.595444,121.721901 L170.474884,119.632721 L170.474884,118.587364 L167.840515,120.472809 L162.346649,119.099525 L153.401352,125.511765 L85.7564697,108.590019 L85.7564697,105.414429 M94.4761353,177.342392 L94.4761353,177.444519 L94.5779572,177.362915 L94.4761353,177.342392 M208.729309,85.9113693 L203.60228,89.5785904 L205.828369,90.1317978 L205.828369,92.5694275 L208.360931,90.7666092 L211.383636,91.5245819 L217.633682,87.0383224 L208.72879,84.8054581 L208.729309,85.9113693" class="wall"/>
    <path d="M153.175201,58.1321678 L137.284561,69.5223007 L107.526749,73.0258102 L120.128647,76.2014008 L120.087723,79.3354187 L83.9161377,105.250725 L84.0593948,105.291779 L80.6279068,107.729408 L80.4442368,107.647812 L80.4038162,107.647812 L71.6212082,105.497055 L71.4580002,105.517067 L60.4897232,113.302078 L60.5920486,113.302078 L55.6497192,116.907204 L55.0777206,116.784546 L53.3008347,116.887184 L40.2696762,113.650017 L33.4276733,115.104385 L30.179863,114.305351 L30.200325,111.129768 L38.9824219,104.819649 L39.1660919,104.717529 L45.8044662,99.9644089 L45.9676743,99.8417587 L73.5408401,80.1134033 L73.7449799,79.9907532 L77.114563,77.5531235 L77.277771,77.4504929 L79.3611221,75.9550705 L81.0771179,75.7503128 L69.1899567,72.8000107 L69.1700058,75.7097702 L62.0210266,80.8308334 L41.5564194,75.7097702 L39.9018173,71.8578033 L39.9018173,68.6822205 L48.1328888,67.5352478 L46.2127457,67.0436172 L46.2541885,63.8680344 L93.2293091,39.9603004 L153.174698,54.9565811 L153.174698,58.1321678" class="wall"/>
    <path d="M45.23349,124.323746 L43.5384674,125.511765 L47.2963791,126.453964 L47.2963791,130.080139 L45.9073029,131.0634 L19.6213989,124.50798 L19.6623306,121.33239 L20.5812149,120.635994 L20.6221428,117.993607 L25.973259,114.162682 L36.879631,116.907707 L38.187355,119.223198 L45.2125168,120.964951 L45.23349,124.323746" class="wall"/>
  </g>
  <g class="ceilings">
    <path class="unit" d="M69.3584671,185.254349 L73.9063263,186.368469 L67.483345,190.965576 L62.935997,189.850433 L69.3584671,185.254349" id="1001" />
    <path class="unit" d="M69.1149292,185.220474 L62.6924667,189.816559 L59.706604,189.084244 L55.7496758,191.905731 L47.9739532,189.955124 L55.0901871,184.836105 L63.9070663,183.92981 L69.1149292,185.220474" id="1002" />
    <path class="unit" d="M87.0285568,189.642593 L80.6060867,194.273575 L72.7940445,192.323471 L79.251297,187.725327 L87.0285568,189.642593" id="1003" />
    <path class="unit" d="M78.939209,187.622177 L72.5167465,192.252121 L67.7954407,191.068207 L74.2184219,186.438263 L78.939209,187.622177" id="1004" />
    <path class="unit" d="M55.5757217,192.010437 L52.0347443,194.587128 L51.9313965,194.551208 L52.799118,193.926147 L45.0924683,192.010941 L47.8005142,190.059814 L55.5757217,192.010437" id="1005" />
    <path class="unit" d="M90.464653,190.58223 L93.1031113,194.481918 L87.8266983,198.243042 L88.8683701,199.879593 L87.7919083,200.680161 L76.231163,197.790421 L87.3749313,189.817062 L90.464653,190.58223" id="1006" />
    <path class="unit" d="M166.420929,159.766022 L195.512085,167.042465 L191.241531,170.108231 L162.15036,162.829208 L166.420929,159.766022" id="1007" />
    <path class="unit" d="M186.799072,173.276108 L157.707916,165.997604 L161.977951,162.934921 L191.068604,170.211884 L186.799072,173.276108" id="1008" />
    <path class="unit" d="M188.569305,173.832397 L182.94548,177.871674 L151.841064,170.107697 L157.46489,166.069443 L188.569305,173.832397" id="1009" />
    <path class="unit" d="M137.538513,180.310333 L166.594879,187.587799 L161.040649,191.556763 L131.984787,184.314713 L137.538513,180.310333" id="1010" />
    <path class="unit" d="M131.879395,184.488159 L158.124374,191.069748 L153.889114,194.099594 L127.645172,187.552902 L131.879395,184.488159" id="1011" />
    <path class="unit" d="M147.223633,198.103973 L121.743027,191.730743 L126.012558,188.70192 L151.493164,195.07312 L147.223633,198.103973" id="1012" />
    <path class="unit" d="M121.56958,191.870331 L147.050186,198.242538 L143.161819,201.028625 L119.104561,195.004852 L118.548935,194.064697 L121.56958,191.870331" id="1013" />
    <path class="unit" d="M119.174133,195.14444 L166.629669,207.017487 L163.886826,209.001968 L121.187393,198.312332 L119.174133,195.14444" id="1014" />
    <path class="unit" d="M151.736694,170.281158 L183.119446,178.151367 L197.83847,167.635696 L230.922379,175.888214 L184.056747,209.45459 L148.925308,200.644241 L167.151031,187.622696 L137.99028,180.310333 L144.794937,179.577499 L152.432007,174.111572 L150.557907,171.116623 L151.736694,170.281158" id="1015" />
    <path class="unit" d="M121.083534,198.452423 L163.991211,209.175934 L166.942276,207.087265 L172.114838,208.376389 L162.255264,215.443451 L114.175026,203.394913 L121.083534,198.452423" id="1016" />
    <path class="unit" d="M114.070656,203.604797 L162.463486,215.722626 L172.495483,208.514435 L182.008194,210.916656 L171.038879,218.75145 L156.492798,219.761902 L107.787865,207.575317 L106.537956,206.008041 L111.502281,205.450211 L114.070656,203.604797" id="1017" />
    <path class="unit" d="M125.456924,222.686035 L41.7254448,201.759903 L51.6883736,194.622025 L100.567261,206.842484 L106.156281,205.973145 L107.440979,207.609177 L136.393494,214.852264 L125.456924,222.686035" id="1018" />
    <path class="unit" d="M191.728607,110.947273 L187.909821,113.697433 L179.126709,111.504593 L180.584839,110.460258 L183.570709,111.191551 L190.444427,110.634743 L191.728607,110.947273" id="1019" />
    <path class="unit" d="M197.490555,112.375465 L199.08786,115.299591 L191.728104,115.961601 L177.737625,112.479645 L178.953262,111.609283 L188.013672,113.871918 L192.040695,111.017067 L197.490555,112.375465" id="1020" />
    <path class="unit" d="M199.226517,115.508972 L200.372055,117.320518 L195.199493,121.011337 L173.53717,115.614182 L177.634293,112.688515 L191.728104,116.205879 L199.226517,115.508972" id="1021" />
    <path class="unit" d="M191.52037,123.657318 L171.697861,118.678398 L172.461212,118.155975 L170.621902,117.702835 L173.363724,115.718864 L195.026566,121.150406 L191.52037,123.657318" id="1022" />
    <path class="unit" d="M187.388474,126.616348 L167.566467,121.671806 L171.523407,118.816963 L191.34642,123.76149 L187.388474,126.616348" id="1023" />
    <path class="unit" d="M167.358749,121.776497 L187.21553,126.756439 L182.806839,129.889435 L162.984833,124.909485 L167.358749,121.776497" id="1024" />
    <path class="unit" d="M155.554977,125.676697 L160.276291,126.86113 L162.811401,125.049591 L182.632889,129.994629 L177.807724,133.441696 L167.636566,133.753708 L150.313873,129.40242 L155.554977,125.676697" id="1025" />
    <path class="unit" d="M150.139908,129.541489 L167.358749,133.825562 L160.554596,138.699783 L166.490509,147.648178 L164.477249,149.110764 L126.742142,139.674316 L130.769165,136.819992 L124.415771,135.218338 L132.886276,129.159164 L146.043304,132.467163 L150.139908,129.541489" id="1026" />
    <path class="unit" d="M126.568192,139.8134 L164.303299,149.250351 L160.519302,151.932251 L122.784698,142.530716 L126.568192,139.8134" id="1026_1_" />
    <path class="unit" d="M126.811203,143.678192 L160.345856,152.070297 L156.249771,154.994431 L122.749397,146.638763 L126.811203,143.678192" id="1027" />
    <path class="unit" d="M122.575951,146.743439 L156.076324,155.13504 L152.015015,158.025803 L118.48037,149.668594 L122.575951,146.743439" id="1028" />
    <path class="unit" d="M116.257858,152.070801 L112.717392,154.61261 L104.24688,152.523422 L107.787857,149.981628 L116.257858,152.070801" id="1029" />
    <path class="unit" d="M116.605766,152.209885 L148.855209,160.288956 L141.39209,165.650192 L100.393814,155.378281 L104.143028,152.696899 L112.89135,154.890244 L116.605766,152.209885" id="1030" />
    <path class="unit" d="M100.219353,155.518387 L141.218658,165.754883 L139.552277,166.939819 L132.747635,168.26178 L95.463768,158.930542 L100.219353,155.518387" id="1031" />
    <path class="unit" d="M95.2555313,159.034195 L132.505112,168.36647 L129.518738,170.491562 L92.2691574,161.194702 L95.2555313,159.034195" id="1032" />
    <path class="unit" d="M125.770554,176.58461 L85.0153046,166.381989 L92.0967484,161.297348 L129.34581,170.629608 L124.242844,174.25116 L125.770554,176.58461" id="1033" />
    <path class="unit" d="M120.596977,180.519196 L79.5986938,170.24678 L84.8408356,166.520035 L125.83963,176.756531 L120.596977,180.519196" id="1034" />
    <path class="unit" d="M85.8819962,173.381302 L74.3923721,181.598419 L70.5387878,180.623367 L67.6920929,175.714752 L74.8431168,170.596252 L85.8819962,173.381302" id="1035" />
    <path class="unit" d="M105.912743,189.537888 L82.5154877,183.687592 L87.2373047,180.310837 L112.162788,186.542953 L108.552231,189.15506 L105.912743,189.537888" id="1036" />
    <path class="unit" d="M116.327957,183.548523 L93.7288361,177.90863 L97.8249359,174.981934 L120.424561,180.622864 L116.327957,183.548523" id="1037" />
    <path class="unit" d="M112.370514,186.403366 L89.7360916,180.761414 L93.5548859,178.012283 L116.15451,183.687592 L112.370514,186.403366" id="1038" />
    <path class="unit" d="M93.6930237,175.365784 L82.2028809,183.582901 L74.7730179,181.73851 L86.264183,173.519867 L93.6930237,175.365784" id="1039" />
    <path class="unit" d="M213.008224,121.428047 L223.839386,120.279533 L223.250504,124.458405 L221.236237,125.886078 L210.544739,123.204681 L213.008224,121.428047" id="1040" />
    <path class="unit" d="M232.102707,121.846802 L225.088791,126.860611 L221.548325,125.95433 L223.560059,124.492264 L224.186279,120.243095 L225.261719,120.139435 L232.102707,121.846802" id="1041" />
    <path class="unit" d="M239.079773,123.587524 L232.066376,128.601852 L225.401398,126.929886 L232.413773,121.916077 L239.079773,123.587524" id="1042" />
    <path class="unit" d="M239.392365,123.657318 L246.229767,125.363647 L239.218414,130.377975 L232.378464,128.671646 L239.392365,123.657318" id="1043" />
    <path class="unit" d="M208.94693,124.457886 L235.191406,131.003555 L231.303024,133.789627 L205.092834,127.243958 L208.94693,124.457886" id="1044" />
    <path class="unit" d="M204.919907,127.347626 L231.130096,133.928711 L227.277023,136.678864 L201.03154,130.133194 L204.919907,127.347626" id="1045" />
    <path class="unit" d="M200.858597,130.238403 L227.103577,136.819473 L223.110825,139.673813 L196.866364,133.092209 L200.858597,130.238403" id="1046" />
    <path class="unit" d="M252.826691,127.06897 L234.42804,140.230621 L228.213806,138.699783 L246.612976,125.502731 L252.826691,127.06897" id="1047" />
    <path class="unit" d="M196.692917,133.232819 L222.903107,139.779526 L218.11171,143.226578 L198.394089,138.28154 L193.394974,138.908646 L191.867767,136.679367 L196.692917,133.232819" id="1048" />
    <path class="unit" d="M307.745361,122.020775 L277.925629,143.365143 L255.915924,145.559006 L236.857773,140.788452 L282.612671,108.022125 L301.705078,112.792175 L307.745361,122.020775" id="1049" />
    <path class="unit" d="M198.324005,138.420609 L218.216614,143.40004 L223.214706,139.84726 L238.801956,143.748993 L227.172653,152.070282 L196.901169,144.481308 L193.464569,139.048233 L198.324005,138.420609" id="1050" />
    <path class="unit" d="M179.33493,150.538437 L189.576172,149.73735 L204.816544,153.568283 L198.671387,157.95549 L196.033432,157.328888 L192.319016,159.975906 L172.948776,155.100647 L179.33493,150.538437" id="1051" />
    <path class="unit" d="M172.774323,155.239731 L192.145065,160.079575 L187.875015,163.14328 L168.469482,158.303436 L172.774323,155.239731" id="1052" />
    <path class="unit" d="M205.302094,153.497971 L189.819214,149.633179 L196.831589,144.655289 L232.83075,153.637039 L211.342377,169.028473 L190.825592,163.874557 L205.302094,153.497971" id="1053" />
    <path class="unit" d="M276.571838,71.4618225 L248.800171,64.4973984 L253.174072,61.3633804 L280.98053,68.3278046 L276.571838,71.4618225" id="1054" />
    <path class="unit" d="M272.371399,74.4906464 L244.5634,67.5267258 L248.626236,64.6359634 L276.397919,71.5998764 L272.371399,74.4906464" id="1055" />
    <path class="unit" d="M244.390472,67.6652908 L272.198456,74.5953293 L268.13562,77.4850769 L240.364471,70.555542 L244.390472,67.6652908" id="1056" />
    <path class="unit" d="M214.674606,72.644722 L236.336945,57.1496239 L251.055969,60.8409576 L227.068802,78.0069809 L216.202332,75.2917252 L214.674606,72.644722" id="1057" />
    <path class="unit" d="M240.189987,70.6602325 L267.96167,77.6241455 L265.531952,79.3653793 L262.233978,79.7143478 L236.544647,73.2723389 L240.189987,70.6602325" id="1058" />
    <path class="unit" d="M236.371719,73.4103851 L261.747955,79.7482147 L252.272095,80.7581635 L232.865021,75.9178009 L236.371719,73.4103851" id="1059" />
    <path class="unit" d="M230.887589,75.5693512 L251.785553,80.7930603 L242.343445,81.8024902 L227.380371,78.0767746 L230.887589,75.5693512" id="1060" />
    <path class="unit" d="M220.680084,84.3791962 L203.948318,80.2003326 L205.337387,79.2257996 L211.099854,79.0867233 L223.666458,82.2207413 L220.680084,84.3791962" id="1061" />
    <path class="unit" d="M231.962509,84.3094025 L228.942886,86.4683685 L220.95842,84.4484787 C221.976044,83.752594 222.982407,83.0444031 223.979065,82.3244019 L231.962509,84.3094025" id="1062" />
    <path class="unit" d="M237.586319,85.7719803 L239.740784,89.149765 L233.941483,93.2937241 L215.299805,88.6273422 L220.85405,84.6578598 L229.151627,86.7121353 L232.3452,84.4489899 L237.586319,85.7719803" id="1063" />
    <path class="unit" d="M233.768555,93.4328003 L229.949768,96.148056 L211.30809,91.4826965 L215.126373,88.7664108 L233.768555,93.4328003" id="1064" />
    <path class="unit" d="M208.113998,90.8566055 L229.775299,96.2542877 L225.818359,99.1091309 L204.155533,93.7119675 L208.113998,90.8566055" id="1065" />
    <path class="unit" d="M205.023773,90.0894012 L190.652145,100.362328 L185.444794,99.0737228 L199.81694,88.7664108 L205.023773,90.0894012" id="1066" />
    <path class="unit" d="M221.652191,102.068153 L200.025177,96.67099 L203.982605,93.8161469 L225.644424,99.2481995 L221.652191,102.068153" id="1067" />
    <path class="unit" d="M206.274185,102.346809 L201.829681,105.549599 L198.636093,104.749031 L196.727722,101.788467 L193.741348,101.022285 L195.61647,99.699295 L206.274185,102.346809" id="1068" />
    <path class="unit" d="M195.859482,99.6310425 L199.851715,96.7756805 L221.478226,102.207741 L217.209198,105.272484 L211.654968,105.86367 L209.953293,103.147385 L195.859482,99.6310425" id="1069" />
    <path class="unit" d="M209.675995,103.252075 L211.34288,105.898567 L205.753342,106.560059 L202.178085,105.689697 L206.656372,102.485886 L209.675995,103.252075" id="1070" />
    <path class="unit" d="M177.529907,109.763359 L167.393539,117.005936 L162.221481,115.682945 L172.322556,108.440887 L177.529907,109.763359" id="1071" />
    <path class="unit" d="M140.905533,65.9245605 L207.940552,82.6738815 L152.951813,122.020775 L85.9178162,105.271965 L140.905533,65.9245605" id="1072" />
    <path class="unit" d="M339.266754,23.7572136 L338.225586,24.4885025 L334.232849,24.9062347 L332.219086,26.3334007 L323.297302,24.1046391 L327.809875,20.9013405 L339.266754,23.7572136" id="1073" />
    <path class="unit" d="M297.261566,14.2514954 L304.065216,13.5202065 L309.481293,14.8780937 L303.336639,19.2653084 L315.451996,22.3295345 L308.959961,26.9610252 L293.235565,23.0264378 L290.666687,18.9527798 L297.261566,14.2514954" id="1074" />
    <path class="unit" d="M315.764587,22.3988132 L332.045105,26.4724731 L328.921112,28.7007217 L319.791107,29.6757698 L309.272034,27.0287666 L315.764587,22.3988132" id="1075" />
    <path class="unit" d="M278.02948,27.8657684 L288.443146,26.7167492 L293.303101,27.9355621 L286.083527,33.0889626 L274.731506,30.2336044 L278.02948,27.8657684" id="1076" />
    <path class="unit" d="M293.582977,28.0053558 L298.650635,29.2585526 L291.429535,34.411953 L286.396149,33.1582413 L293.582977,28.0053558" id="1077" />
    <path class="unit" d="M309.09964,31.8696365 L305.280823,34.6208191 L300.454651,33.4020042 L304.273956,30.6862297 L309.09964,31.8696365" id="1078" />
    <path class="unit" d="M315.313354,33.4374123 L311.460297,36.1526718 L305.592438,34.690609 L309.411743,31.9743233 L315.313354,33.4374123" id="1079" />
    <path class="unit" d="M303.996155,30.616951 L296.775543,35.7703514 L291.742157,34.5166435 L298.928986,29.3288574 L303.996155,30.616951" id="1080" />
    <path class="unit" d="M398.247192,36.9188576 L304.309753,13.4155178 L312.847809,7.32145023 L406.786804,30.8253021 L398.247192,36.9188576" id="1081" />
    <path class="unit" d="M315.591156,33.507206 L320.241852,34.6557159 L315.208466,38.277771 L310.55777,37.0933418 L315.591156,33.507206" id="1082" />
    <path class="unit" d="M325.832428,36.117775 L320.799042,39.7393188 L315.555878,38.4158173 L320.588745,34.8291702 L325.832428,36.117775" id="1083" />
    <path class="unit" d="M320.625061,39.8440094 L312.396545,45.7286949 L255.708191,31.556591 L260.602417,28.0397377 L297.886292,37.3714867 L301.218506,35.0041656 L320.625061,39.8440094" id="1084" />
    <path class="unit" d="M363.775757,46.4599876 L337.252472,39.8091164 L337.982056,39.2872047 L349.193848,38.4517403 L350.443756,37.5454597 L369.536713,42.3165359 L363.775757,46.4599876" id="1085" />
    <path class="unit" d="M399.184509,49.5242081 L350.617737,37.3714867 L356.83197,32.9493752 L405.398743,45.0677147 L399.184509,49.5242081" id="1086" />
    <path class="unit" d="M306.009918,50.3252945 L249.287247,36.117775 L255.535767,31.6607666 L312.224152,45.8677711 L306.009918,50.3252945" id="1087" />
    <path class="unit" d="M357.179352,51.195652 L330.656586,44.5452957 L337.080048,39.948185 L363.601837,46.5646744 L357.179352,51.195652" id="1088" />
    <path class="unit" d="M414.945221,46.4948807 L407.65451,51.6831779 L399.566193,49.6627693 L405.919586,45.1010704 L357.0755,32.8790665 L359.157806,31.3821068 L358.186737,29.8841209 L361.102509,27.7954597 L411.299866,40.3310204 L414.945221,46.4948807" id="1089" />
    <path class="unit" d="M354.229309,56.0005989 L324.825531,48.6538506 L328.713409,45.8682823 L358.117157,53.2150345 L354.229309,56.0005989" id="1090" />
    <path class="unit" d="M300.941711,51.0909615 L293.304138,56.5574036 L293.548187,59.0997238 L271.121979,53.4931793 L260.360413,61.1878662 L226.200546,52.6572037 L249.112793,36.2563362 L305.661987,50.3945732 L300.941711,51.0909615" id="1091" />
    <path class="unit" d="M293.511871,59.2736893 L290.214935,61.6066284 L267.962189,56.0698776 L271.260651,53.7020454 L293.511871,59.2736893" id="1092" />
    <path class="unit" d="M286.951752,63.9395676 L264.734833,58.3684349 L267.788239,56.1750832 L290.039948,61.7462158 L286.951752,63.9395676" id="1093" />
    <path class="unit" d="M282.924744,66.8298187 L260.672516,61.2935867 L264.561401,58.5075035 L286.779358,64.0786362 L282.924744,66.8298187" id="1094" />
    <path class="unit" d="M309.828705,69.7549744 L305.177979,73.0978622 L294.450165,70.3815689 L299.066071,67.0746078 L309.828705,69.7549744" id="1095" />
    <path class="unit" d="M371.031158,44.3708115 L405.746124,53.0769844 L376.239014,74.177597 L316.459381,59.2398224 L320.798492,56.1417236 L318.403046,53.3556442 L324.685852,48.8637428 L354.401703,56.2802849 L371.031158,44.3708115" id="1096" />
    <path class="unit" d="M294.311035,70.5904388 L315.903259,75.9876022 L311.703308,78.9825439 L290.111084,73.5853806 L294.311035,70.5904388" id="1097" />
    <path class="unit" d="M354.541382,89.7065659 L314.72345,79.7482147 L319.09787,76.6152267 L305.558655,73.237442 L310.347992,69.7898712 L299.309631,67.0386887 L305.906555,62.3030167 L313.196228,61.5712204 L316.28595,59.3429718 L376.065063,74.3156433 L354.541382,89.7065659" id="1098" />
    <path class="unit" d="M288.305023,74.9078598 L314.932709,81.5587311 L311.009552,84.3448105 L284.383392,77.6934204 L288.305023,74.9078598" id="1099" />
    <path class="unit" d="M284.139343,77.7632217 L312.743958,84.901619 L308.161804,88.1752243 L279.55719,81.0373383 L284.139343,77.7632217" id="1100" />
    <path class="unit" d="M279.45285,81.2108002 L308.370575,88.4533691 L317.188477,82.1155396 L328.747162,85.0057983 L307.259827,100.396713 L271.224854,91.378006 L279.314697,85.598526 L277.439575,82.6733704 L279.45285,81.2108002" id="1101" />
    <path class="unit" d="M276.051025,103.914078 L247.480194,96.7756805 L251.542023,93.8510437 L280.112335,101.024338 L276.051025,103.914078" id="1102" />
    <path class="unit" d="M289.624023,107.361656 L276.432709,104.053665 L280.66745,101.023827 L251.785034,93.816658 L252.305878,93.4333115 L270.982849,91.4832077 L301.253815,99.0398483 L289.624023,107.361656" id="1103" />
    <path class="unit" d="M247.376846,96.9501648 L273.587036,103.531242 L269.593781,106.385582 L243.384094,99.8044968 L247.376846,96.9501648" id="1104" />
    <path class="unit" d="M269.420319,106.490776 L265.565735,109.276344 L239.321259,102.695259 L243.210648,99.9451065 L269.420319,106.490776" id="1105" />
    <path class="unit" d="M261.539703,112.166084 L235.295258,105.585518 L239.183624,102.834854 L265.393799,109.381035 L261.539703,112.166084" id="1106" />
    <path class="unit" d="M245.709946,112.096291 L231.163849,108.44088 L233.594086,106.699127 L248.140182,110.354546 L245.709946,112.096291" id="1107" />
    <path class="unit" d="M231.198654,108.614334 L245.363068,112.166084 L234.254608,113.628143 L231.198654,108.614334" id="1108" />
    <path class="unit" d="M234.566696,113.733353 L245.397858,112.30619 L241.129349,115.370926 L234.566696,113.733353" id="1109" />
    <path class="unit" d="M255.117767,112.096291 L248.104874,117.110619 L241.439392,115.438667 L248.452789,110.424339 L255.117767,112.096291" id="1110" />
    <path class="unit" d="M262.269318,113.906807 L255.256927,118.921646 L248.418015,117.180412 L255.430389,112.166084 L262.269318,113.906807" id="1111" />
    <path class="unit" d="M280.252014,107.430931 L261.852325,120.593086 L255.638092,119.060722 L274.037262,105.89856 L280.252014,107.430931" id="1112" />
    <path class="unit" d="M136.739868,66.0985336 L81.9946518,72.6103363 L46.446743,63.7301865 L92.9987411,40.0523643 L152.396179,54.8859634 L136.739868,66.0985336" id="1113" />
    <path class="unit" d="M68.3868866,72.5056381 L61.5822372,77.3454819 L41.5862808,72.3660507 L39.9894905,68.6752319 L48.390419,67.4913101 L68.3868866,72.5056381" id="1114" />
    <path class="unit" d="M119.313301,76.1266708 L107.093071,84.8667145 L77.2728348,77.4147644 L79.2513046,75.9870834 L105.981812,72.7843018 L119.313301,76.1266708" id="1115" />
    <path class="unit" d="M103.552094,87.4090347 L73.6975784,79.957077 L77.0993958,77.519455 L106.919113,85.0063019 L103.552094,87.4090347" id="1116" />
    <path class="unit" d="M73.5241394,80.0617676 L103.379677,87.5481033 L96.6103287,92.3884659 L66.7900925,84.9016113 L73.5241394,80.0617676" id="1117" />
    <path class="unit" d="M66.7542801,105.167274 L60.1240921,109.937836 L39.1560478,104.679749 L45.7867432,99.9445953 L66.7542801,105.167274" id="1118" />
    <path class="unit" d="M66.6166458,85.0411987 L96.4358597,92.4926376 L91.7145538,95.9058304 L81.0573502,93.2239304 L78.3150253,95.1740341 L59.1177216,90.4034653 L66.6166458,85.0411987" id="1119" />
    <path class="unit" d="M58.9432564,90.5076447 L78.4183731,95.3823853 L81.1606979,93.4328003 L91.5406036,96.0094986 L82.9309311,102.172333 L53.1112099,94.6865082 L58.9432564,90.5076447" id="1120" />
    <path class="unit" d="M80.0156784,104.262527 L71.1634903,102.033768 L66.9282379,105.063095 L45.960701,99.8055191 L52.938797,94.8260956 L82.7585144,102.278046 L80.0156784,104.262527" id="1121" />
    <path class="unit" d="M53.042141,113.454697 L39.9894867,110.181602 L33.1505585,111.679077 L30.3734436,110.982681 L38.982605,104.819336 L59.9501419,110.042526 L55.2283249,113.455208 L54.8466492,113.350517 L53.042141,113.454697" id="1122" />
    <path class="unit" d="M21.7642784,121.603043 L19.7162323,121.08062 L23.4306507,118.434639 L20.6883259,117.772118 L25.6869316,114.187523 L36.1712112,116.799637 L36.5528831,117.495514 L21.7642784,121.603043" id="1123" />
    <path class="unit" d="M45.4741402,127.592926 L22.1454411,121.743141 L36.7253036,117.738251 L37.5587425,119.165413 L44.6406975,120.942055 L39.5029297,124.633392 L46.9665565,126.513184 L45.4741402,127.592926" id="1124" />
  </g>
</g>
</svg>
