<?xml version="1.0" encoding="utf-8"?>
<!DOCTYPE svg PUBLIC "-//W3C//DTD SVG 1.1//EN" "http://www.w3.org/Graphics/SVG/1.1/DTD/svg11.dtd">
<svg version="1.1" xmlns="http://www.w3.org/2000/svg" xmlns:xlink="http://www.w3.org/1999/xlink" xml:space="preserve">
  <g class="level" id="level2">
    <g class="shadow">
      <path d="M126.709318,66.7632431 L111.191938,68.3957321 L103.96249,66.5996877 L109.522305,62.6416455 L109.522305,59.4788881 L102.089326,57.6424686 L102.232159,57.5407549 L102.435698,57.6225345 L102.476003,54.4597772 L102.435698,54.3780014 L102.435698,54.2757768 L102.333676,54.2558428 L101.572572,53.0542216 L109.461607,52.1950439 L114.756156,48.4608663 L114.756156,47.8286221 L112.637622,44.4619342 L97.9757085,40.7890874 L80.8295063,42.6255108 L76.9816605,45.364045 L68.713102,43.2781999 L51.1389056,55.8878209 L31.9144699,58.0917341 L31.8537657,58.0917341 L22.0793288,65.1103092 L21.9155783,65.2120229 L17.965199,68.0277315 L17.9248982,70.7212892 L17.5581209,71.0069994 L17.5581209,74.1493079 L18.9629963,76.4135342 L19.0451255,76.5571594 L19.940899,77.9647583 L12.7726718,83.1065348 L12.7318626,86.2692922 L18.8237327,87.775532 L12.8746965,92.0223572 L12.8746965,92.676064 L18.1284377,99.6941321 L30.8763728,102.877845 L38.8791581,102.367756 L44.9276694,98.0621579 L44.9276694,97.4299137 L43.1146973,94.5758694 L51.5862816,93.7570669 L51.6474976,93.7570669 L56.2263467,90.4660248 L72.0732749,94.4097521 L80.6086244,88.3040192 L86.2056771,89.6968001 L86.2260785,86.5749325 L84.2299761,83.3922411 L89.9117092,82.7589752 L99.4213925,97.5725094 L100.704861,97.4299137 L101.743466,99.1027778 L114.65362,97.735554 L135.038076,83.1673587 L135.078879,80.0255571 L126.709318,66.7632431 L126.709318,66.7632431 L126.709318,66.7632431" />
    </g>
    <g class="outline">
      <path d="M31.2227457,76.1487759 C31.0896032,76.1487759 30.9564627,76.1324215 30.826891,76.0991981 L18.1396601,72.9159997 C17.778495,72.8250173 17.459669,72.6134165 17.2352153,72.3154426 L11.9809637,65.3377574 C11.7682427,65.0546014 11.6524455,64.7096037 11.6524455,64.3548925 L11.6524455,63.7016925 C11.6524455,63.1752448 11.906486,62.6810028 12.3339675,62.3738261 L15.3850044,60.1888253 L12.7461459,59.5325565 C12.0120811,59.3505995 11.5004291,58.684621 11.5101215,57.9266463 L11.5509311,54.8058004 C11.557563,54.2860012 11.8105829,53.8009581 12.2319433,53.4988897 L18.1304781,49.2725133 L16.565425,46.7793142 C16.4021863,46.5186464 16.3149558,46.2181144 16.3149558,45.9099121 L16.3149558,42.7471586 C16.3149558,42.3617781 16.4511573,41.992245 16.6929554,41.7019335 L16.7225427,39.7643149 C16.7307041,39.2450228 16.9837245,38.7610012 17.4055947,38.4599584 L31.2533518,28.5643361 C31.519125,28.374202 31.8364214,28.2684016 32.162389,28.2612461 L50.8165108,26.0966902 L67.9877069,13.7937351 C68.3759102,13.5156913 68.8661361,13.4221577 69.3293288,13.5376687 L76.8515771,15.4175351 L80.0704422,13.1364466 C80.29745,12.9759581 80.5616957,12.8757803 80.8376716,12.8466468 L97.9226539,11.0102244 C98.1129297,10.98978 98.3057587,11.0030689 98.4914421,11.0500911 L113.133966,14.7229355 C113.541045,14.8251581 113.89303,15.0817353 114.11799,15.43798 L116.215104,18.7842249 C116.377319,19.0438691 116.464039,19.3454247 116.464039,19.6526024 L116.464039,20.2644026 C116.464039,20.7944242 116.207452,21.2912243 115.774866,21.5973803 L110.501231,25.331558 C110.275757,25.4905139 110.014064,25.5896696 109.740641,25.6198242 L104.225716,26.2352032 L104.225716,26.2633145 L104.199702,28.2520472 L110.028348,29.6754916 C110.757825,29.8543797 111.272026,30.5091141 111.272026,31.2619805 L111.272026,34.4247359 C111.272026,34.9552684 111.014412,35.453092 110.581319,35.7587363 L107.918484,37.6380909 L111.405674,38.504424 L126.557307,36.9020916 C127.17353,36.8376918 127.772411,37.1264689 128.103994,37.6503586 L136.473548,50.8717789 C136.642909,51.1390913 136.731162,51.4503586 136.727083,51.7672489 L136.685767,54.9095574 C136.678621,55.4293566 136.424588,55.9154253 136.001692,56.2180006 L115.678455,70.7243581 C115.450427,70.886888 115.183636,70.9886017 114.905108,71.0182454 L102.034745,72.3854692 C101.415456,72.4539595 100.809943,72.1564924 100.479893,71.6249325 L99.9845686,70.8270935 L99.7448109,70.8541792 C99.1301136,70.9252275 98.5281662,70.637981 98.1925117,70.1171563 L89.2296739,56.1950016 L87.1703123,56.4255147 L87.7860293,57.4068471 C87.9528447,57.673134 88.0395644,57.982358 88.0354856,58.2966902 L87.9941613,61.3986237 C87.9870235,61.897467 87.7538976,62.365645 87.3600822,62.6697567 C86.9652472,62.9743793 86.4535923,63.0812013 85.9715315,62.9605791 L81.140167,61.7548674 L73.2388965,67.3985562 C72.851713,67.6755783 72.3620007,67.7680893 71.9008474,67.6536009 L56.8328827,63.8984675 L52.8845437,66.7596673 C52.6121367,66.9574678 52.2846396,67.0663371 51.9484713,67.0699129 L46.2269472,67.6219138 L46.6018868,68.208156 C46.769718,68.4718926 46.8589869,68.777026 46.8589869,69.0893149 L46.8589869,69.72207 C46.8589869,70.2520896 46.6018868,70.7499113 46.1687942,71.0550486 L40.1417079,75.3192498 C39.8973617,75.492511 39.608632,75.5947316 39.3097015,75.6146657 L31.3273216,76.1457109 C31.2946723,76.1472473 31.2584541,76.1487759 31.2227457,76.1487759 L31.2227457,76.1487759" />
    </g>
    <g class="background">
      <path class="walkway" d="M126.709318,38.1982651 L111.191938,39.8302472 L103.96249,38.0352225 L109.522305,34.0761547 L109.522305,30.913912 L102.089326,29.0774886 L102.232159,28.9757768 L102.435698,29.0570437 L102.476003,25.8948011 L102.435698,25.8130234 L102.435698,25.7108008 L102.333676,25.6903559 L101.572572,24.4897544 L109.461607,23.6300659 L114.756156,19.8958892 L114.756156,19.2636441 L112.637622,15.8969552 L97.9757085,12.2246222 L80.8295063,14.0605328 L76.9816605,16.799066 L68.713102,14.7137337 L51.1389056,27.3233557 L31.9144699,29.5267561 L31.8537657,29.5267561 L22.0793288,36.5448223 L21.9155783,36.6475557 L17.965199,39.4627535 L17.9248982,42.1563112 L17.5581209,42.4420213 L17.5581209,45.5843338 L18.9629963,47.849067 L19.0451255,47.9921775 L19.940899,49.3992655 L12.7726718,54.541046 L12.7318626,57.7037994 L18.8237327,59.210554 L12.8746965,63.45789 L12.8746965,64.1105791 L18.1284377,71.1296689 L30.8763728,74.3123603 L38.8791581,73.8022708 L44.9276694,69.4966651 L44.9276694,68.8644209 L43.1146973,66.0108875 L51.5862816,65.191578 L51.6474976,65.191578 L56.2263467,61.900532 L72.0732749,65.8452888 L80.6086244,59.739045 L86.2056771,61.1313112 L86.2260785,58.0104653 L84.2299761,54.8272669 L89.9117092,54.1945119 L99.4213925,69.0075314 L100.704861,68.8644209 L101.743466,70.5377998 L114.65362,69.170576 L135.038076,54.6023768 L135.078879,51.4605791 L126.709318,38.1982651 L126.709318,38.1982651 L126.709318,38.1982651" />
      <path class="wall" d="M80.4423228,17.6720439 L80.4224273,20.8348003 L63.7644117,32.6895115 L63.7644117,32.893444 L63.4588495,32.933823 L63.4180388,32.9747108 L63.3165259,32.933823 L36.6596188,36.1170233 L26.2337566,43.584355 L29.4924127,48.8288669 L29.4510922,51.9706646 L19.1670447,59.2948878 L12.7318626,57.7037994 L12.7726723,54.5410421 L19.940899,49.3987547 L19.0446156,47.9916667 L18.9629963,47.8485562 L17.5581219,45.583823 L17.5581219,42.4415105 L17.9243884,42.1558004 L17.965198,39.4622426 L21.9155783,36.6465321 L22.0788171,36.5443114 L31.8537657,29.5267561 L31.9144699,29.5267561 L51.1389095,27.3228449 L68.713102,14.7132229 L80.4423228,17.6720439" />
      <path class="wall" d="M58.4086462,52.0723784 L58.4086462,55.2351357 C57.3634055,55.9701114 56.3248006,56.7107101 55.2933334,57.4589791 L55.2933334,58.4183341 L56.3518377,58.6631544 L56.3314324,61.8259118 L51.6474976,65.1925997 L51.5867914,65.1925997 L42.3005392,66.0906238 L34.7869622,64.2138214 L34.827261,61.0715129 L45.7015189,53.2571343 L45.8642477,53.1549137 L50.6093985,49.7478468 L50.7925327,49.6456223 L53.1344982,47.9937139 L55.7611146,47.707489 L58.0622733,51.4621116 L58.0826787,51.4621116 L58.4086462,52.0723784" />
      <path class="wall" d="M135.078879,51.4605791 L135.037563,54.6018699 L114.65362,69.170069 L101.742439,70.5377998 L100.704348,68.8644248 L99.4208788,69.0075353 L89.9111955,54.1945119 L84.2289487,54.8272669 L86.2250589,58.0104692 L86.2046496,61.1313112 L76.6128391,58.7444233 L76.6332483,57.1528241 L69.3430984,55.2959557 L67.5102309,56.6222897 L60.9531315,54.9903115 L58.1831719,50.5835107 L58.2239825,47.4412021 L73.7010696,45.7269335 L73.8433892,45.7269335 L78.7507552,42.156822 L77.4473986,40.2595786 L77.366291,40.1164681 L77.366291,40.0760891 L76.022116,37.7495123 L76.022116,36.4635554 L75.2885673,36.5448223 L74.677435,35.7081328 L74.6983502,32.5453774 L78.3431702,29.9545551 L78.505899,29.8528453 L81.7645552,27.4858894 L81.9476932,27.3841777 L92.7403317,19.651066 L99.6029894,21.3852668 L102.332142,25.6903559 L102.434165,25.7108008 L102.434165,25.8130214 L102.47447,25.8942883 L102.434165,29.0570437 L102.230626,28.9757768 L102.088306,29.0774886 L109.520771,30.913912 L109.520771,34.0766674 L103.96147,38.0352225 L111.19091,39.8307541 L126.708298,38.1987759 L135.078879,51.4605791" />
    </g>
    <g class="ceilings">
      <path class="unit" d="M80.1734846,17.1144287 L77.6075743,18.9508511 L66.4884545,16.1760285 L69.0543687,14.339607 L80.1734846,17.1144287" id="3001"/>
      <path class="unit" d="M63.5154846,29.010022 L52.3968786,26.2351993 L66.3257451,16.2782433 L77.4244596,19.053066 L63.5154846,29.010022" id="3002"/>
      <path class="unit" d="M53.7813311,30.1932454 L51.6434111,26.7861786 L52.2336243,26.3783118 L63.1282855,29.1122446 L53.8221417,30.2142012 L53.7813311,30.1932454" id="3003"/>
      <path class="unit" d="M51.3373312,26.8475172 L53.475761,30.2545841 L50.1768041,30.6629617 L48.0388841,27.2349392 L51.3373312,26.8475172" id="3004"/>
      <path class="unit" d="M47.7333218,27.2758192 L49.8717517,30.703331 L36.797848,32.2744853 L30.1387221,30.6016192 L32.2562367,29.0713528 L47.7333218,27.2758192" id="3005"/>
      <path class="unit" d="M36.5535076,32.3767137 L30.5259134,36.6414257 L23.9897273,35.0089367 L29.9765108,30.7033368 L36.5535076,32.3767137" id="3006"/>
      <path class="unit" d="M23.8060911,35.1515286 L30.3422772,36.7835068 L29.1409414,37.6406392 L22.5634348,36.0086629 L23.8060911,35.1515286" id="3007"/>
      <path class="unit" d="M22.3802947,36.1103767 L28.9583112,37.7837535 L25.1910631,40.4563536 L18.6538573,38.8243754 L22.3802947,36.1103767" id="3008"/>
      <path class="unit" d="M25.0273126,40.598961 L24.701345,40.8238512 L26.3306731,43.3942286 L19.5083084,44.0673626 L18.1233286,41.8430045 L21.2391504,39.6595401 L25.0273126,40.598961" id="3009"/>
      <path class="unit" d="M19.6108527,44.1905273 L26.4123022,43.5373274 L27.9600109,46.0269508 L21.1784559,46.7205258 L19.6108527,44.1905273" id="3010"/>
      <path class="unit" d="M21.2804855,46.8631293 L28.0207209,46.1695504 L29.3041859,48.1894633 L26.2699845,50.3724169 L20.4051172,48.9239282 L21.9120153,47.8424184 L21.2804855,46.8631293" id="3011"/>
      <path class="unit" d="M20.2418727,49.0256497 L26.0863346,50.4741384 L22.8072732,52.862048 L16.9225124,51.3726734 L20.2418727,49.0256497" id="3012"/>
      <path class="unit" d="M13.4200101,53.9021532 L16.7393704,51.5147544 L22.6241312,52.9637539 L19.264472,55.370576 L13.4200101,53.9021532" id="3013"/>
      <path class="unit" d="M99.5193365,20.8491055 L102.105142,24.99115 L89.4791225,21.8283946 L93.0836456,19.2580171 L99.5193365,20.8491055" id="3014"/>
      <path class="unit" d="M102.145945,25.1536818 L98.7658768,27.5819704 L85.9164298,24.3987701 L89.2964982,21.9704814 L102.145945,25.1536818" id="3015"/>
      <path class="unit" d="M88.828207,28.622602 L85.5282343,30.948668 L78.9915325,29.3166918 L82.2705979,26.9906238 L88.828207,28.622602" id="3016"/>
      <path class="unit" d="M82.4537438,26.8475172 L85.7328013,24.5010063 L109.252976,30.3971837 L105.954016,32.7436946 L82.4537438,26.8475172" id="3017"/>
      <path class="unit" d="M78.808916,29.4587728 L86.7101864,31.396906 L75.7742008,32.6215282 L75.2860142,31.989284 L78.808916,29.4587728" id="3018"/>
      <path class="unit" d="M85.8342947,31.0094822 L89.0929509,28.6834162 L105.791263,32.8459036 L102.532615,35.1719716 L85.8342947,31.0094822" id="3019"/>
      <path class="unit" d="M89.6831836,34.0092027 L87.850316,35.3150918 L82.94295,35.8047363 L81.4559416,33.6217808 L86.0786683,33.0917592 L89.6831836,34.0092027" id="3020"/>
      <path class="unit" d="M81.1100669,33.6825989 L82.5960478,35.8451095 L77.9121169,36.3143091 L76.6699724,34.1313536 L81.1100669,33.6825989" id="3021"/>
      <path class="unit" d="M100.17075,36.6000251 L96.0984497,39.5588481 L87.8508064,37.4776024 L93.9401244,36.8453582 L95.772992,35.5190242 L100.17075,36.6000251" id="3022"/>
      <path class="unit" d="M128.538099,40.9051161 L98.8270967,43.945204 L96.9126078,40.9465168 L126.62361,37.7837594 L128.538099,40.9051161" id="3023"/>
      <path class="unit" d="M78.0146534,36.4574293 L88.0344582,35.4576953 L89.989244,34.0700286 L95.4674375,35.4576953 L93.7360867,36.7027624 L86.9545288,37.4372292 L96.1999743,39.7229182 L100.456425,36.6623854 L110.902698,39.3145425 L96.5050228,40.8248728 L98.4802178,43.9876302 L95.9959288,44.2728295 L80.7637018,40.4573869 L78.0146534,36.4574293" id="3024"/>
      <path class="unit" d="M134.89167,50.8620653 L114.690351,65.3285546 L102.227061,66.6139988 L101.188456,64.9411307 L99.9055004,65.0837304 L89.519941,48.9857776 L74.2469033,45.1698203 L80.6412698,40.5994641 L95.9143075,44.4154214 L128.63911,41.0487335 L134.89167,50.8620653" id="3025"/>
      <path class="unit" d="M55.7157076,47.2919617 L57.8337321,50.7603633 L51.2970343,49.1283851 L53.5374907,47.4958961 L55.7157076,47.2919617" id="3026"/>
      <path class="unit" d="M68.1586049,45.965113 L70.2557143,49.3318008 L74.8376263,50.4741345 L72.5568691,52.1475133 L69.4410502,51.3517137 L67.6081827,52.6984887 L61.4785638,51.1682242 L58.8315459,46.9444021 L68.1586049,45.965113" id="3027"/>
      <path class="unit" d="M74.0030513,45.271538 L89.2352783,49.0874953 L90.0295409,50.3121155 L82.1486719,51.12836 L85.8751054,57.1063151 L77.3218998,54.9438065 L78.9915325,53.7401381 L72.8216129,52.2098697 L75.3257974,50.4347811 L70.5811564,49.2714917 L68.4631319,45.9257595 L74.0030513,45.271538" id="3028"/>
      <path class="unit" d="M58.2612087,51.4539266 L53.9644536,54.5343935 L46.3687454,52.6167052 L51.1133863,49.2295724 L57.9760518,50.9642821 L58.2612087,51.4539266" id="3029"/>
      <path class="unit" d="M35.4746057,60.4315945 L46.2060321,52.7598156 L55.0239893,54.9427731 L52.0300887,57.1052817 L56.0625982,58.1453947 L51.6434149,61.2877072 L42.5612121,62.2056615 L35.4746057,60.4315945" id="3030"/>
    </g>
  </g>
</svg>