<?xml version="1.0" encoding="utf-8"?>
<!DOCTYPE svg PUBLIC "-//W3C//DTD SVG 1.1//EN" "http://www.w3.org/Graphics/SVG/1.1/DTD/svg11.dtd">
<svg version="1.1" xmlns="http://www.w3.org/2000/svg" xmlns:xlink="http://www.w3.org/1999/xlink" xml:space="preserve">
<g class="level" id="level1">
  <g class="shadow">
    <path d="M391.463497,92.9942648 L396.980807,89.0706632 L396.980807,85.9236932 L395.733295,83.5528426 L385.659521,81.0596354 L392.463759,76.1955775 L392.505223,73.0276172 L298.013227,49.4430037 L288.143191,56.6579462 L288.143191,56.6983904 L287.878025,56.6579462 L281.481775,57.3936215 L258.573525,73.7228485 L258.553561,74.7646713 L247.150371,71.9238487 L213.759337,95.7536878 L213.739373,98.8806917 L223.81417,101.414855 L215.189599,107.566472 L215.026813,107.668351 L202.377647,116.701747 L199.455183,115.96556 L188.788112,123.609518 L123.516668,107.321755 L80.3984168,138.058853 L80.4398811,136.158487 L56.1218448,130.150216 L40.0388214,141.472038 L39.8146071,144.739829 L39.5074642,144.660477 L37.7291071,144.762355 L24.6709281,141.532961 L17.8252257,143.004823 L12.3079162,146.499409 L21.0952735,148.706947 L22.4236664,150.995885 L25.5370711,151.774564 L24.3033805,152.63106 L24.2629401,157.39324 L30.3730352,158.905035 L32.0484995,157.740343 L46.4965,161.337319 L48.5809762,159.845491 L48.5395119,162.870104 L50.1131071,164.995218 L57.1221073,166.732784 L57.4287382,166.834662 L89.0219639,174.682889 L89.3291068,174.784768 L112.195892,180.486891 L110.275225,181.835885 L110.233761,185.003845 L113.749011,185.881843 L108.496868,189.582234 L108.496868,191.115019 L100.159474,189.029837 L83.4636998,200.985969 L83.279926,201.087847 L41.2443575,231.067761 L41.2443575,232.988094 L26.3059522,243.759061 L26.2649998,246.906543 L110.683216,267.936003 L125.845835,257.063674 L145.606895,261.968688 L155.743633,261.273969 L159.809181,258.371712 L159.809181,255.224742 L159.265026,254.355959 L159.707312,254.039573 L163.529705,255.020473 L168.883205,251.19875 L168.883205,250.524509 L166.308836,249.911702 L167.698657,248.93029 L167.698657,248.297005 L176.383633,242.165865 L176.424074,239.611224 L186.703121,242.185832 L220.543611,218.049845 L220.543611,214.881885 L203.173659,210.549746 L220.13511,198.449756 L220.13511,195.281795 L217.703051,194.689979 L228.820086,186.780317 L228.820086,185.799929 L229.269539,185.902319 L229.229098,188.865499 L234.644027,190.214493 L242.491527,189.376427 L244.22842,192.135849 L251.91211,191.31775 L251.953062,188.476927 L253.30142,188.33358 L257.532824,189.376427 L271.06042,187.965999 L299.159384,167.917439 L299.200848,164.749479 L295.031895,158.843087 L297.831503,158.556905 L297.872967,155.409423 L295.829443,152.180541 L291.803312,152.589079 L289.126562,148.215983 L284.466693,147.071258 L289.779753,143.249535 L289.821217,141.410091 L297.116883,143.208579 L316.121348,129.658741 L316.121348,128.554972 L338.721435,134.1757 L372.072542,110.407809 L372.112983,107.239848 L367.148018,105.992221 L374.802018,100.541466 L375.076399,100.88345 L376.875233,99.6368462 L380.839423,100.617747 L385.948232,97.0002924 L385.948232,96.3465295 L382.596792,95.5499319 L384.333685,94.2823382 L384.333685,93.6690195 M185.353734,149.175893 L185.433079,149.195859 L185.353734,149.175893 L185.353734,149.175893 L185.353734,149.175893 M181.348089,180.486376 L181.359862,180.47716 L183.545184,183.785907 L181.348089,180.486376 L181.348089,180.486376 L181.348089,180.486376" />
  </g>
  <g class="outline">
    <path d="M397.525963,48.7385539 L396.278963,46.3881814 C396.061404,45.9775957 395.679011,45.6791276 395.228535,45.567522 L388.627011,43.9302989 L392.533868,41.1488626 C392.959261,40.8468108 393.214189,40.3599443 393.221356,39.837241 L393.262308,36.6692808 C393.272035,35.9110796 392.759618,35.2460537 392.022987,35.0622629 L297.81667,11.5605876 C297.347253,11.4423267 296.848146,11.5406215 296.457051,11.8262908 L287.001658,18.7325258 L280.743096,19.4523308 C280.468204,19.4840718 280.206108,19.5849264 279.98087,19.7451675 L257.174997,36.012961 C257.030128,36.1158634 256.905735,36.2402678 256.802842,36.3805427 L247.117604,33.9595207 C246.652794,33.8427956 246.161366,33.9369948 245.771294,34.2149849 L212.503117,57.9634234 C212.076188,58.2685469 211.821771,58.7589971 211.817676,59.2832362 L211.7972,62.4097281 C211.792081,63.1628098 212.301938,63.8211803 213.031914,64.0054832 L219.640605,65.6749592 L201.763354,78.4256406 L199.600557,77.8624932 C199.130116,77.7391127 198.629985,77.832288 198.235307,78.1164214 L188.203509,85.3180531 L123.871927,69.2540171 C123.408141,69.137292 122.917225,69.2309793 122.527153,69.5089693 L81.8051278,98.5376823 C81.5870564,98.2719791 81.2855445,98.0743656 80.9333541,97.9873337 L56.6972225,92.0000529 C56.2370201,91.8858876 55.7501987,91.978039 55.3626867,92.2514215 L39.3421155,103.552766 C38.9402703,103.835876 38.6868774,104.28537 38.6530917,104.776332 L38.533306,106.510314 L38.1478417,106.53284 L25.3717226,103.363344 C25.1311273,103.303958 24.880294,103.299862 24.6381631,103.351569 L17.8129368,104.802954 C17.6230201,104.842886 17.4418058,104.917119 17.2779963,105.021045 L11.7606869,108.515119 C11.2083416,108.865806 10.9175798,109.510866 11.0214964,110.15695 C11.125925,110.802522 11.6045559,111.324201 12.2388059,111.482906 L20.3181988,113.503069 L21.2990083,115.177665 C21.5196393,115.55395 21.881044,115.827332 22.3038774,115.935866 L22.9340321,116.097131 L22.9135559,120.741049 C22.9104845,121.493107 23.4203417,122.150454 24.1498059,122.333221 L30.2394249,123.866005 C30.7047463,123.983243 31.1992463,123.889555 31.5903415,123.609517 L32.6315558,122.864627 L46.3050441,126.278836 C46.5717465,126.34539 46.848687,126.34283 47.1102703,126.274741 C47.1205084,126.610069 47.2336393,126.935159 47.4353298,127.203934 L49.0084131,129.308057 C49.2341631,129.610621 49.5581988,129.825641 49.9247226,129.916257 L56.8543772,131.633344 L57.0627225,131.708089 C57.1144248,131.72652 57.1656153,131.74239 57.2188534,131.755189 L88.6303532,139.563996 L88.8397222,139.638741 C88.8909127,139.657171 88.943127,139.673042 88.9958532,139.68584 L108.751793,144.589831 C108.69446,144.754679 108.662721,144.929767 108.660162,145.108438 L108.61921,148.255408 C108.609483,149.012586 109.120876,149.6771 109.85546,149.862426 L109.901531,149.873689 L107.573388,151.519615 C107.29696,151.715693 107.092198,151.989076 106.979067,152.299319 L100.615067,150.715338 C100.150769,150.600661 99.6603643,150.693325 99.2708048,150.970803 L40.5210351,192.868454 C40.0910351,193.175625 39.8355946,193.671195 39.8355946,194.200041 L39.8355946,195.263878 L25.6374041,205.504458 C25.2176422,205.807022 24.965785,206.291328 24.9586184,206.808912 L24.9181779,209.976872 C24.9084517,210.735586 25.4213803,211.401123 26.1580112,211.585426 L110.31055,232.533486 C110.440574,232.565227 110.573669,232.581097 110.705229,232.581097 C111.043086,232.581097 111.37736,232.476147 111.657372,232.27495 L126.146836,221.882321 L145.11393,226.565659 C145.278252,226.606103 145.446668,226.620438 145.615085,226.609687 L155.730835,225.935446 C156.032859,225.914968 156.323621,225.811554 156.570359,225.636466 L160.616454,222.754175 C161.047478,222.447004 161.302918,221.951434 161.302918,221.422075 L161.302918,219.223753 L162.980942,219.653792 C163.449335,219.774613 163.948442,219.680414 164.341585,219.397816 L169.654644,215.576093 C170.082085,215.268922 170.334966,214.774888 170.334966,214.248601 L170.334966,213.57436 C170.334966,212.928788 169.95718,212.355402 169.389478,212.091747 L177.145859,206.590308 C177.574323,206.286721 177.831299,205.795758 177.835395,205.270495 L177.838978,204.811786 L186.06324,206.863691 C186.527537,206.980928 187.018454,206.88724 187.408014,206.608738 L221.14612,182.554664 C221.576631,182.248005 221.832072,181.751923 221.832072,181.223077 L221.832072,178.055116 C221.832072,177.305106 221.321703,176.650832 220.594798,176.469088 L206.721156,172.995493 L220.738132,162.995019 C221.168132,162.688359 221.423572,162.19279 221.423572,161.663943 L221.423572,158.517485 C221.423572,158.083861 221.254644,157.684027 220.971048,157.387606 L227.380103,152.810757 C227.583329,153.24694 227.975448,153.584317 228.466876,153.706161 L233.882317,155.055667 C234.067627,155.101231 234.259591,155.114542 234.452067,155.094576 L241.247603,154.365044 L242.440341,156.245444 C242.772055,156.769171 243.372519,157.062008 243.989876,156.995966 L251.653602,156.198857 C252.476745,156.113361 253.1069,155.424273 253.118674,154.596446 L253.136591,153.343187 L256.691257,154.219137 C256.874007,154.264189 257.064436,154.278012 257.252305,154.258046 L270.739971,152.847105 C271.021007,152.817924 271.288733,152.716558 271.518578,152.552733 L299.535637,132.585574 C299.966661,132.278403 300.222102,131.782833 300.222102,131.253986 L300.222102,128.086026 C300.222102,127.750186 300.118697,127.422024 299.925197,127.147106 L297.397923,123.542962 L297.42403,123.540403 C298.250244,123.455931 298.882447,122.764795 298.893197,121.934921 L298.934149,118.787951 C298.938244,118.471052 298.849685,118.159785 298.680756,117.892034 L296.637232,114.66264 C296.305006,114.137889 295.701471,113.846588 295.082578,113.911606 L292.088447,114.230552 L289.970697,110.744158 C289.745971,110.374016 289.383542,110.108313 288.963268,110.005411 L287.757732,109.708991 L290.17853,107.977056 C290.542494,107.716985 290.78053,107.321246 290.84503,106.885574 L296.152459,108.194124 C296.614709,108.308289 297.10409,108.214602 297.491602,107.938148 L316.414673,94.4497435 C316.58053,94.3314826 316.721304,94.1845523 316.830339,94.0191917 L337.610602,99.20066 C338.074388,99.3173851 338.565305,99.2236978 338.954352,98.9457078 L372.203077,75.258703 C372.627446,74.9561393 372.882886,74.4697847 372.890053,73.9475934 L372.930493,70.7796331 C372.940219,70.0224559 372.429339,69.3584538 371.695779,69.1731272 L370.180029,68.7912108 L374.03416,66.0450994 C374.417065,66.0932229 374.81891,66.0067029 375.159327,65.7737647 L376.356672,64.9572009 L379.594469,65.7450954 C380.05416,65.8572129 380.541493,65.7640376 380.927981,65.4896312 L386.016314,61.8721771 C386.44785,61.5655177 386.703802,61.069436 386.703802,60.5395655 L386.703802,59.8852906 C386.703802,59.3861372 386.478564,58.9315237 386.114088,58.627936 L390.7371,58.2025038 C391.024791,58.1763942 391.301219,58.0740038 391.536695,57.9055715 L397.034041,53.981458 C397.464041,53.6742866 397.718969,53.1792289 397.718969,52.6503823 L397.718969,49.5034123 C397.716928,49.2371987 397.651377,48.9740553 397.525963,48.7385539 C397.525963,48.7385539 397.651377,48.9740553 397.525963,48.7385539 L397.525963,48.7385539" />
  </g>
  <g class="background">
    <path class="walkway" d="M391.463497,56.2079384 L396.980807,52.2843368 L396.980807,49.1368548 L395.733295,46.7660042 L385.659521,44.273309 L392.463759,39.4087394 L392.505223,36.2407791 L298.013227,12.6561653 L288.143191,19.8705956 L288.143191,19.9110398 L287.878025,19.8705956 L281.481775,20.6067828 L258.573518,36.9354979 L258.553042,37.9778326 L247.150363,35.13701 L213.75933,58.9663374 L213.738853,62.0933413 L223.813651,64.6275046 L215.189591,70.779122 L215.026806,70.8815124 L202.377639,79.9143964 L199.455175,79.1787211 L188.788104,86.8221675 L123.516668,70.5344091 L80.3984168,101.271507 L80.4398811,99.371141 L56.1218448,93.3623579 L40.0388214,104.684692 L39.8146071,107.952995 L39.5074642,107.87313 L37.7291071,107.975009 L24.6709281,104.745614 L17.8252257,106.217477 L12.3079162,109.712063 L21.0952735,111.9196 L22.4236664,114.208539 L25.5370711,114.987218 L24.3033805,115.843714 L24.2629401,120.605893 L30.3730352,122.1182 L32.0484995,120.953509 L46.4965,124.549973 L48.5809762,123.058656 L48.5395119,126.082758 L50.1131071,128.208383 L57.1221073,129.945437 L57.4287382,130.047828 L89.0219639,137.895543 L89.3291068,137.997421 L112.195892,143.700057 L110.275225,145.048539 L110.233761,148.216499 L113.749011,149.095521 L108.496868,152.794888 L108.496868,154.327672 L100.159474,152.242491 L83.4636998,164.198623 L83.279926,164.300501 L41.2448676,194.282469 L41.2448676,196.202801 L26.3059522,206.972746 L26.2649998,210.119716 L110.683216,231.149176 L125.845835,220.276848 L145.606895,225.181862 L155.743633,224.487142 L159.809181,221.585397 L159.809181,218.437915 L159.265026,217.569133 L159.707312,217.252746 L163.529705,218.234158 L168.883205,214.412435 L168.883205,213.737682 L166.308836,213.124876 L167.698657,212.143975 L167.698657,211.510178 L176.383633,205.379039 L176.424074,202.824398 L186.703121,205.399517 L220.543611,181.263019 L220.543611,178.095059 L203.173659,173.762407 L220.13511,161.663442 L220.13511,158.495481 L217.703051,157.903153 L228.820086,149.993491 L228.820086,149.013103 L229.269539,149.114982 L229.229098,152.078673 L234.644027,153.427155 L242.491527,152.589089 L244.22842,155.348511 L251.91211,154.530924 L251.953062,151.690101 L253.30142,151.546755 L257.532824,152.589089 L271.06042,151.179173 L299.159384,131.130102 L299.200848,127.962142 L295.031895,122.055749 L297.831503,121.769568 L297.872967,118.622598 L295.829443,115.393204 L291.803312,115.802253 L289.126562,111.428134 L284.466693,110.284433 L289.779753,106.462198 L289.821217,104.622753 L297.116883,106.421242 L316.121348,92.8714034 L316.121348,91.7681464 L338.722455,97.3883574 L372.073563,73.619954 L372.114003,70.4519937 L367.149039,69.2053902 L374.803039,63.7536112 L375.07742,64.0961072 L376.876253,62.8489916 L380.840444,63.830404 L385.949253,60.2134618 L385.949253,59.5591869 L382.597812,58.7620773 L384.334705,57.4944836 L384.334705,56.8816768 M185.353734,112.389571 L185.433079,112.409025 L185.353734,112.389571 L185.353734,112.389571 L185.353734,112.389571 M181.348089,143.699545 L181.359862,143.69033 L183.545184,146.999589 L181.348089,143.699545 L181.348089,143.699545 L181.348089,143.699545" />
    <path class="wall" d="M375.42245,60.2139627 L375.380986,63.3399428 L367.145974,69.2058911 L372.110939,70.4524946 L372.070498,73.6204549 L338.720414,97.3888583 L316.119306,91.7686473 L316.119306,92.8719043 L297.11433,106.422255 L289.819175,104.623255 L289.777711,106.462699 L284.464652,110.284934 L289.124009,111.429148 L291.800759,115.802755 L295.827402,115.393705 L297.870414,118.6231 L297.82895,121.77007 L295.029343,122.056251 L299.198807,127.962643 L299.157343,131.130604 L271.059402,151.179675 L257.531295,152.589591 L253.300914,151.547256 L251.952045,151.691115 L251.911093,154.531426 L244.227402,155.349013 L242.490509,152.589591 L234.643009,153.428169 L229.228081,152.079175 L229.268521,149.115484 L228.819069,149.013605 L228.819069,149.994505 L217.702034,157.903655 L220.134093,158.495984 L220.134093,161.663944 L203.172641,173.763422 L220.543105,178.096074 L220.543105,181.264034 L186.702616,205.400532 L176.423568,202.825413 L176.382616,205.380054 L167.881413,211.408803 L162.078461,211.981165 L154.455687,210.100253 L154.189496,209.997863 L114.238402,200.045512 L113.01239,198.104189 L113.053342,194.956707 L118.468783,191.053584 L120.143735,191.503078 L120.1852,189.847936 L130.9137,182.203978 L130.9137,181.979743 L131.260771,181.959265 L131.301724,181.918821 L131.403593,181.918821 L136.51189,181.366424 L143.480962,176.400488 L143.459974,176.359532 L143.480962,173.069215 L143.664224,173.089693 L149.488164,168.919842 L149.671938,168.817964 L155.843974,164.383434 L156.026724,164.261078 L160.01139,161.419743 L160.195676,161.317864 L164.568879,158.149904 L164.772617,158.048026 L168.185486,155.575297 L168.348783,155.472906 C169.357236,154.764364 170.358522,154.049167 171.352641,153.327315 L180.405676,152.591127 L184.554152,149.648426 L185.452545,149.893651 L180.998462,143.149193 L181.038902,139.981233 L186.106759,136.343813 L186.290533,136.241934 L192.298759,131.929249 L192.462057,131.82737 L198.367902,127.576631 L199.7567,127.924247 L199.7567,126.616209 L202.720116,124.491607 L213.448616,123.387838 L241.832713,130.438444 L246.206427,127.31144 L221.091355,121.05692 L218.271784,116.540478 L218.312736,113.372518 L221.234689,111.287849 L222.378796,111.574542 L222.378796,110.450295 L239.809664,98.0456934 L248.719878,97.0847592 L248.822259,97.0847592 L260.081605,95.9001019 L261.921391,96.3495959 L261.941355,94.5096397 L264.720998,92.4864047 L263.473998,90.7288727 L263.51495,87.5609125 L283.030296,73.6225022 C283.098891,73.5948568 283.16032,73.5610679 283.21407,73.5206237 L290.325963,68.4522972 L295.966129,67.8594566 L302.832308,62.9549546 L302.689486,62.7506857 L302.730439,59.5827255 L309.228558,54.9434146 L309.412332,54.821058 L313.846963,51.6326197 L314.848248,51.8778448 L314.888689,50.8969444 L322.367617,45.5828806 L374.028022,58.4789565 L375.42245,60.2139627" />
    <path class="wall" d="M392.46478,39.408228 L385.660542,44.2727976 L395.734316,46.7654928 L396.981828,49.1363434 L396.981828,52.2838254 L391.464519,56.207427 L377.670733,57.4949868 L338.720925,47.807827 L336.53458,44.4355979 L336.575532,41.2676377 L341.132509,38.0387551 L341.132509,36.4849802 L322.618449,31.8666595 L322.618449,33.4199224 L320.983425,34.5646476 L317.059164,34.9936635 L307.495244,41.8405125 L308.598399,43.5980444 L308.598399,46.7660047 L290.922328,59.5192454 L290.922328,59.7230024 L290.471852,59.7639585 L290.329031,59.8049147 L290.268114,59.7639585 L285.220733,60.315843 L278.415471,65.240823 L278.415471,65.3227353 L278.313602,65.2817792 L278.27265,68.5930859 L278.068912,68.5516178 L268.096495,75.6442035 L266.605316,75.296076 L266.605316,76.8288608 L250.910828,88.0083608 L230.332768,90.1539524 L224.99872,93.9756756 L225.551065,95.9579545 L225.61147,95.9989106 L225.61147,99.1668709 L225.57103,99.1668709 L225.57103,99.3301836 L225.407732,99.2687494 L205.851435,113.227638 L194.142125,114.576632 L185.273887,112.369094 L183.373185,109.405915 L181.779113,108.996865 L181.779113,107.46408 L180.104161,108.649762 L174.504947,107.259812 L165.900851,113.411429 L168.231042,114.003758 L168.231042,115.516064 L169.824089,114.371851 L171.356732,114.760423 L177.854851,114.515198 L186.601256,116.66079 L186.703637,116.66079 L186.744078,116.701746 L186.98928,116.783658 L187.010268,117.151752 L188.092435,119.03164 L188.092435,118.991196 L189.625078,121.647716 L189.584637,124.836154 L168.249983,140.082091 L156.417817,141.369651 L153.066376,140.531585 L159.115555,150.259701 L159.094567,153.427661 L143.339162,164.648117 L141.786555,164.259546 L141.786555,165.79233 L131.159924,173.333386 L125.948733,173.86428 L119.368709,178.503591 L119.450614,178.585504 L119.409662,181.753464 L101.304102,194.669506 L90.3099241,195.772763 L80.1941743,203.048627 L80.1532219,204.151884 L80.7864481,204.091474 L81.7472933,205.603269 L91.4739954,208.035042 L103.040996,206.829394 L108.231198,203.150506 L117.366138,202.170117 L155.57983,211.693964 L159.81021,218.438422 L159.81021,221.585904 L155.744151,224.487649 L145.607413,225.182368 L125.846865,220.277354 L110.683734,231.149683 L26.2649998,210.119702 L26.3059522,206.972732 L41.2443566,196.202282 L41.2443566,194.281949 L83.279415,164.299981 L83.4631888,164.198103 L100.158963,152.241971 L108.496357,154.326641 L108.496357,152.793856 L113.7485,149.094489 L110.23325,148.21598 L110.274714,145.048019 L112.195381,143.699025 L89.3285958,137.996902 L89.021453,137.895023 L57.4282272,130.046796 L57.1215963,129.944406 L50.1125961,128.207352 L48.5390009,126.081727 L48.5804652,123.057625 L46.495989,124.548942 L32.0479885,120.952478 L30.3725243,122.117169 L24.2624291,120.604862 L24.3028696,115.842683 L29.7183103,112.082394 L39.8949765,112.041438 L54.4863097,115.699848 L54.4448454,118.72395 L55.2219168,118.192544 L60.3512028,117.74305 L67.3806792,119.480615 L67.3806792,119.787275 L67.5035363,119.685396 L72.3671437,120.911522 L72.5504056,120.768687 L82.6252031,123.261894 L82.7680245,123.200972 L82.9313221,123.344318 L83.1765245,123.385275 L83.1765245,123.487665 L84.6277745,125.633257 L97.4197628,128.862139 L104.306418,128.310255 L104.306418,128.616914 L104.428763,128.515036 L104.428763,128.310767 L104.714918,128.269811 L104.714918,128.55548 L107.535513,129.250199 L107.555989,129.168799 L107.494561,129.148321 L107.494561,129.04593 L105.696239,126.226097 L103.080406,128.065542 L86.5893937,123.957637 L86.3027271,123.855247 L74.2053937,120.871589 L73.8987628,120.769711 L65.2132752,118.624119 L65.2132752,116.355147 L64.4571919,116.886553 L43.5719896,111.67488 L41.4470729,108.364085 L39.812561,107.955547 L40.0367752,104.685197 L56.1197987,93.3628624 L80.4378349,99.3716455 L80.3963707,101.272012 L123.514622,70.5349137 L188.785037,86.8226729 L199.452108,79.1792265 L202.374573,79.9149018 L215.024252,70.8820178 L215.187037,70.7796274 L223.811609,64.62801 L213.736811,62.0938467 L213.756775,58.9668429 L247.147809,35.1375154 L258.550999,37.978338 L258.570963,36.9360034 L281.479213,20.6067763 L287.875463,19.8705891 L288.14063,19.9110333 L288.14063,19.8705891 L298.010666,12.6561588 L392.503679,36.2402611 L392.46478,39.408228" />
  </g>
  <g class="ceilings">
    <path class="unit" d="M55.9918208,93.2707156 L68.9706542,96.5077893 L50.2851072,109.836464 L43.7429644,108.235078 L41.6554168,104.894078 L40.1586072,104.545951 L55.9918208,93.2707156 L55.9918208,93.2707156 L55.9918208,93.2707156" id="2001" />
    <path class="unit" d="M79.8629617,99.221652 L69.8408907,106.35673 L72.9384265,107.12261 L68.9706528,109.97572 L63.5772241,108.618535 L58.8451762,111.994347 L50.5978786,109.940907 L69.2839372,96.5774186 L79.8629617,99.221652 M42.9644874,107.302481 L61.9644874,94.3024807" id="2002" />
    <path class="unit" d="M68.7628198,110.114971 L64.2391175,113.31672 L59.1584626,112.063973 L63.6826771,108.827923 L68.7628198,110.114971 L68.7628198,110.114971 L68.7628198,110.114971" id="2003" />
    <path class="unit" d="M39.6016553,111.993834 L44.6823102,113.246069 L37.0267745,118.709623 L24.5695726,115.612824 L29.6149059,112.028647 L39.6016553,111.993834 L39.6016553,111.993834 L39.6016553,111.993834" id="2004" />
    <path class="unit" d="M53.8689541,115.544221 L46.2482278,121.007775 L37.3400609,118.780271 L44.9955966,113.351019 L53.8689541,115.544221 L53.8689541,115.544221 L53.8689541,115.544221" id="2005" />
    <path class="unit" d="M143.959576,125.461756 L112.573159,117.66626 L111.180778,118.641017 L73.8429554,109.348573 L77.9146459,106.425838 L74.4342055,105.556031 L123.603171,70.4765535 L195.808363,88.4691135 L143.959576,125.461756 L143.959576,125.461756 L143.959576,125.461756" id="2006" />
    <path class="unit" d="M82.0554523,111.576076 L74.0170117,117.318644 L69.9458331,116.309586 L78.0190831,110.567019 L82.0554523,111.576076 L82.0554523,111.576076 L82.0554523,111.576076" id="2007" />
    <path class="unit" d="M74.2949781,117.388276 L82.368228,111.645708 L86.4388948,112.65579 L78.3656448,118.397334 L74.2949781,117.388276 L74.2949781,117.388276 L74.2949781,117.388276" id="2008" />
    <path class="unit" d="M86.405104,120.415446 L78.6794373,118.466956 L86.7173657,112.724901 L94.4773302,114.673903 L86.405104,120.415446 L86.405104,120.415446 L86.405104,120.415446" id="2009" />
    <path class="unit" d="M111.006738,118.780271 L102.933488,124.522839 L86.7173691,120.485584 L94.7906191,114.74404 L111.006738,118.780271 L111.006738,118.780271 L111.006738,118.780271" id="2010" />
    <path class="unit" d="M112.711889,117.840327 L117.061544,118.954335 L107.735151,125.601011 L105.89127,122.712576 L112.711889,117.840327 L112.711889,117.840327 L112.711889,117.840327" id="2011" />
    <path class="unit" d="M107.909712,125.775071 L116.01726,119.963389 L120.923867,121.181324 L112.78151,126.993517 L107.909712,125.775071 L107.909712,125.775071 L107.909712,125.775071" id="2012" />
    <path class="unit" d="M135.329892,124.800318 L127.222345,130.577698 L113.094285,127.062635 L121.202856,121.285766 L135.329892,124.800318 L135.329892,124.800318 L135.329892,124.800318" id="2013" />
    <path class="unit" d="M55.33044,118.15415 L60.2027493,117.701584 L62.0113088,118.187938 L52.1289873,125.25339 L50.2845944,124.800313 L48.8231063,122.782709 L55.33044,118.15415 L55.33044,118.15415 L55.33044,118.15415" id="2014" />
    <path class="unit" d="M52.4074643,125.323019 L62.3245948,118.258591 L67.0919637,119.441713 L57.2096411,126.505628 L52.4074643,125.323019 L52.4074643,125.323019 L52.4074643,125.323019" id="2015" />
    <path class="unit" d="M77.0787141,121.912392 L67.1615836,128.976821 L62.6726907,127.863837 L72.5893096,120.798385 L77.0787141,121.912392 L77.0787141,121.912392 L77.0787141,121.912392" id="2016" />
    <path class="unit" d="M82.3339317,123.234769 L72.4162886,130.299709 L67.4753836,129.081263 L77.3577052,121.982022 L82.3339317,123.234769 L82.3339317,123.234769 L82.3339317,123.234769" id="2017" />
    <path class="unit" d="M72.2770488,120.728761 L62.3594057,127.793701 L57.487608,126.575767 L67.4047385,119.510827 L72.2770488,120.728761 L72.2770488,120.728761 L72.2770488,120.728761" id="2018" />
    <path class="unit" d="M77.705285,110.462587 L69.6320351,116.238943 L65.595154,115.229885 L73.668404,109.453017 L77.705285,110.462587 L77.705285,110.462587 L77.705285,110.462587" id="2019" />
    <path class="unit" d="M86.405104,120.415446 L78.6794373,118.466956 L86.7173657,112.724901 L94.4773302,114.673903 L86.405104,120.415446 L86.405104,120.415446 L86.405104,120.415446" id="2020" />
    <path class="unit" d="M130.632141,134.858129 L120.297296,142.236384 L115.913344,141.1577 L126.282487,133.745144 L130.632141,134.858129 L130.632141,134.858129 L130.632141,134.858129" id="2021" />
    <path class="unit" d="M137.800854,136.632557 L127.46601,144.010812 L120.575772,142.304987 L130.945938,134.927756 L137.800854,136.632557 L137.800854,136.632557 L137.800854,136.632557" id="2022" />
    <path class="unit" d="M170.023211,114.395915 L171.310652,114.708717 L177.817985,114.430727 L178.514175,114.605303 L174.164009,117.702614 L167.656675,116.066927 L170.023211,114.395915 L170.023211,114.395915 L170.023211,114.395915" id="2023" />
    <path class="unit" d="M175.973588,118.15415 L174.477291,117.770697 L178.791624,114.708711 L186.273112,116.552763 L175.973588,118.15415 L175.973588,118.15415 L175.973588,118.15415" id="2024" />
    <path class="unit" d="M186.552105,116.657719 L187.700307,118.780273 L181.749414,119.579942 L176.355474,118.258082 L186.552105,116.657719 L186.552105,116.657719 L186.552105,116.657719" id="2025" />
    <path class="unit" d="M163.585503,118.989658 L185.265182,124.383074 L181.506265,127.09898 L159.792801,121.669215 L163.585503,118.989658 L163.585503,118.989658 L163.585503,118.989658" id="2026" />
    <path class="unit" d="M167.483137,116.205152 L181.715625,119.75554 L187.769922,118.919522 L189.336351,121.494642 L185.438708,124.27915 L163.725244,118.849897 L167.483137,116.205152 L167.483137,116.205152 L167.483137,116.205152" id="2027" />
    <path class="unit" d="M152.903068,119.371575 L162.507425,112.516023 L167.830723,113.838908 L158.226366,120.69446 L152.903068,119.371575 L152.903068,119.371575 L152.903068,119.371575" id="2028" />
    <path class="unit" d="M159.618241,121.807441 L181.331705,127.20137 L177.74786,129.777001 L156.033884,124.34826 L159.618241,121.807441 L159.618241,121.807441 L159.618241,121.807441" id="2029" />
    <path class="unit" d="M155.860346,124.488027 L177.57381,129.881955 L175.208298,131.586244 L153.494323,126.157503 L155.860346,124.488027 L155.860346,124.488027 L155.860346,124.488027" id="2030" />
    <path class="unit" d="M137.939586,125.427455 L142.289753,126.540439 L134.181694,132.318843 L129.797741,131.239136 L137.939586,125.427455 L137.939586,125.427455 L137.939586,125.427455" id="2031" />
    <path class="unit" d="M153.320272,126.297264 L175.033736,131.69068 L172.111272,133.778422 L150.397296,128.385005 L153.320272,126.297264 L153.320272,126.297264 L153.320272,126.297264" id="2032" />
    <path class="unit" d="M149.910469,128.419816 L141.802409,134.232009 L134.495481,132.387445 L142.603028,126.610065 L149.910469,128.419816 L149.910469,128.419816 L149.910469,128.419816" id="2033" />
    <path class="unit" d="M156.521208,137.886838 L142.114672,134.302149 L150.222731,128.52528 L171.936707,133.918697 L168.108683,136.633067 L156.521208,137.886838 L156.521208,137.886838 L156.521208,137.886838" id="2033_1_" />
    <path class="unit" d="M230.188924,86.7284828 L224.168412,91.0442399 L193.686019,83.4228076 L199.70653,79.1423753 L230.188924,86.7284828 L230.188924,86.7284828 L230.188924,86.7284828" id="2034" />
    <path class="unit" d="M225.316612,95.6733115 L189.161803,86.6593691 L193.511457,83.5625704 L224.064494,91.1840027 L225.316612,95.6733115 L225.316612,95.6733115 L225.316612,95.6733115" id="2035" />
    <path class="unit" d="M225.316612,95.811533 L221.697957,98.4219772 L201.897992,93.4801028 L205.516647,90.9049831 L225.316612,95.811533 L225.316612,95.811533 L225.316612,95.811533" id="2036" />
    <path class="unit" d="M221.523395,98.5264201 L217.905253,101.10154 L198.104776,96.1949901 L201.723943,93.584034 L221.523395,98.5264201 L221.523395,98.5264201 L221.523395,98.5264201" id="2037" />
    <path class="unit" d="M213.9728,103.920862 L192.259336,98.5264215 L196.017229,95.8115391 L217.730693,101.24028 L213.9728,103.920862 L213.9728,103.920862 L213.9728,103.920862" id="2038" />
    <path class="unit" d="M196.156459,93.6188471 L180.080602,105.068146 L174.790578,103.780586 L190.866948,92.2964751 L196.156459,93.6188471 L196.156459,93.6188471 L196.156459,93.6188471" id="2039" />
    <path class="unit" d="M209.797186,106.877898 L188.11802,101.48397 L192.085282,98.63086 L213.798747,104.059089 L209.797186,106.877898 L209.797186,106.877898 L209.797186,106.877898" id="2040" />
    <path class="unit" d="M198.626405,107.05196 L185.055298,103.641846 L187.908655,101.588406 L209.622631,107.017147 L205.795119,109.76633 L200.992429,110.253197 L198.626405,107.05196 L198.626405,107.05196 L198.626405,107.05196" id="2041" />
    <path class="unit" d="M198.313635,107.12261 L200.64485,110.289546 L194.312076,111.055426 L185.682385,108.897548 L183.768373,105.939488 L182.342207,105.590848 L184.882278,103.781097 L198.313635,107.12261 L198.313635,107.12261 L198.313635,107.12261" id="2042" />
    <path class="unit" d="M155.199469,144.394262 L134.529266,139.242999 L138.113623,136.702692 L152.729016,140.357519 L155.199469,144.394262 L155.199469,144.394262 L155.199469,144.394262" id="2043" />
    <path class="unit" d="M157.774865,148.639365 L133.207022,142.479566 L136.72176,139.97356 L155.338712,144.602119 L157.774865,148.639365 L157.774865,148.639365 L157.774865,148.639365" id="2044" />
    <path class="unit" d="M151.825003,155.112495 L110.728778,144.845805 L114.729825,141.992696 L128.927504,145.542572 L133.033492,142.619325 L157.879302,148.813947 L158.783837,150.13632 L151.825003,155.112495 L151.825003,155.112495 L151.825003,155.112495" id="2045" />
    <path class="unit" d="M143.263908,161.202676 L108.953491,152.6413 L117.305217,146.655555 L151.650445,155.217444 L143.263908,161.202676 L143.263908,161.202676 L143.263908,161.202676" id="2046" />
    <path class="unit" d="M121.375879,173.557101 L83.6551546,164.16073 L100.253666,152.328491 L141.34938,162.559344 L130.979213,169.971899 L125.725023,170.45979 L121.375879,173.557101 L121.375879,173.557101 L121.375879,173.557101" id="2047" />
    <path class="unit" d="M117.549396,176.305782 L121.201833,173.695853 L83.4816166,164.298965 L64.725942,177.697261 L105.821656,187.929134 L119.044157,178.463658 L117.549396,176.305782 Z M117.549396,176.305782" id="2048" />
    <path class="unit" d="M77.0787141,203.03327 L41.5857979,194.193391 L64.5518923,177.802219 L105.647606,188.068396 L101.053773,191.30547 L90.0227371,192.452755 L78.4009637,200.736653 L79.6889161,202.754256 L77.0787141,203.03327 L77.0787141,203.03327 L77.0787141,203.03327" id="2049" />
    <path class="unit" d="M112.502522,202.789574 L117.305213,202.302708 L123.53407,203.834469 L120.262487,206.165387 L113.581106,204.494375 L112.502522,202.789574 L112.502522,202.789574 L112.502522,202.789574" id="2050" />
    <path class="unit" d="M112.154431,202.824383 L113.268335,204.599322 L120.054145,206.304634 C119.103026,207.000377 118.140133,207.685369 117.164954,208.357563 L105.334323,205.400527 L108.431859,203.207836 L112.154431,202.824383 L112.154431,202.824383 L112.154431,202.824383" id="2051" />
    <path class="unit" d="M105.160271,205.538255 L117.026223,208.495803 L110.554212,213.090062 L98.1313071,209.992751 L96.7389261,207.591183 L103.21145,206.929741 L105.160271,205.538255 L105.160271,205.538255 L105.160271,205.538255" id="2052" />
    <path class="unit" d="M132.998678,206.199693 L120.019844,215.4563 L110.868011,213.160195 L123.812547,203.903075 L132.998678,206.199693 L132.998678,206.199693 L132.998678,206.199693" id="2053" />
    <path class="unit" d="M133.277157,206.269827 L155.339228,211.76717 L159.514835,218.414869 L155.617192,221.198353 L145.734871,221.859795 L120.33262,215.526946 L133.277157,206.269827 L133.277157,206.269827 L133.277157,206.269827" id="2054" />
    <path class="unit" d="M81.3940753,205.677507 L91.3465274,208.184025 L96.4266701,207.627021 L97.8533487,210.098215 L125.551492,217.022368 L110.554218,227.810736 L26.5875004,206.860616 L41.9333817,195.82907 L76.9742882,204.599323 L80.4537048,204.215871 L81.3940753,205.677507 L81.3940753,205.677507 L81.3940753,205.677507" id="2055" />
    <path class="unit" d="M193.268293,165.100172 L165.082304,158.035744 L168.49159,155.598851 L196.712388,162.62949 L193.268293,165.100172 L193.268293,165.100172 L193.268293,165.100172" id="2056" />
    <path class="unit" d="M188.674975,168.371538 L160.488475,161.341923 L164.908773,158.174987 L193.094762,165.205626 L188.674975,168.371538 L188.674975,168.371538 L188.674975,168.371538" id="2057" />
    <path class="unit" d="M182.202445,170.737786 L156.312862,164.299475 L160.314421,161.446366 L186.203493,167.919489 L182.202445,170.737786 L182.202445,170.737786 L182.202445,170.737786" id="2058" />
    <path class="unit" d="M175.833849,175.297235 L149.944777,168.858924 L156.139336,164.404428 L182.02892,170.878064 L175.833849,175.297235 L175.833849,175.297235 L175.833849,175.297235" id="2059" />
    <path class="unit" d="M184.707198,149.788195 L219.749128,158.522612 L201.480271,171.538485 L188.988259,168.441686 L197.165938,162.595192 L168.666664,155.460626 L171.58964,153.372885 L180.671855,152.641305 L184.707198,149.788195 L184.707198,149.788195 L184.707198,149.788195" id="2060" />
    <path class="unit" d="M172.145566,180.168968 L143.925281,173.139352 L149.770722,168.962846 L177.957222,175.992974 L172.145566,180.168968 L172.145566,180.168968 L172.145566,180.168968" id="2061" />
    <path class="unit" d="M153.146742,193.706016 L124.960753,186.676913 L131.363658,182.083166 L159.583943,189.148106 L153.146742,193.706016 L153.146742,193.706016 L153.146742,193.706016" id="2062" />
    <path class="unit" d="M146.221186,196.212016 L120.57527,189.80903 L124.786199,186.815646 L150.432115,193.219144 L146.221186,196.212016 L146.221186,196.212016 L146.221186,196.212016" id="2063" />
    <path class="unit" d="M129.135842,193.915403 L122.315734,198.751815 L114.486151,196.802813 L113.337949,194.958761 L118.523032,191.269634 L129.135842,193.915403 L129.135842,193.915403 L129.135842,193.915403" id="2064" />
    <path class="unit" d="M135.782417,195.585903 L128.996608,200.423339 L122.629025,198.856766 L129.414322,193.984517 L135.782417,195.585903 L135.782417,195.585903 L135.782417,195.585903" id="2065" />
    <path class="unit" d="M187.00463,169.867461 L220.166843,178.115011 L186.621725,202.057992 L153.460023,193.77563 L160.036975,189.077957 L131.746047,182.012505 L136.687464,181.456525 L145.003869,175.539381 L143.925797,173.312389 L172.250512,180.376817 L187.00463,169.867461 L187.00463,169.867461 L187.00463,169.867461" id="2066" />
    <path class="unit" d="M142.985429,203.902564 L129.275596,200.491938 L136.095703,195.655526 L149.770727,199.065128 L142.985429,203.902564 L142.985429,203.902564 L142.985429,203.902564" id="2067" />
    <path class="unit" d="M164.908257,199.518208 L175.973589,202.267391 L167.69097,208.148186 L162.158304,208.705702 L154.641494,206.826325 L164.908257,199.518208 L164.908257,199.518208 L164.908257,199.518208" id="2068" />
    <path class="unit" d="M164.629277,199.448574 L154.364051,206.756179 L143.298206,204.007508 L150.257551,199.030309 L148.344051,198.543442 C149.457956,197.778074 150.559063,197.00093 151.64942,196.212012 L164.629277,199.448574 L164.629277,199.448574 L164.629277,199.448574" id="2069" />
    <path class="unit" d="M224.202709,126.088385 L217.625757,130.75227 L200.296757,126.436001 L203.011388,124.521811 L213.484959,123.407292 L224.202709,126.088385 L224.202709,126.088385 L224.202709,126.088385" id="2070" />
    <path class="unit" d="M218.774969,138.233939 L192.815768,131.795628 L198.557291,127.689259 L224.481685,134.162383 L218.774969,138.233939 L218.774969,138.233939 L218.774969,138.233939" id="2071" />
    <path class="unit" d="M215.712758,140.426632 L189.788364,133.953509 L192.641209,131.90058 L218.565603,138.373192 L215.712758,140.426632 L215.712758,140.426632 L215.712758,140.426632" id="2072" />
    <path class="unit" d="M212.545613,142.688437 L186.621732,136.215313 L189.61484,134.092759 L215.539233,140.53107 L212.545613,142.688437 L212.545613,142.688437 L212.545613,142.688437" id="2073" />
    <path class="unit" d="M203.672248,152.36383 L186.899689,148.187324 L184.220891,144.115256 L207.187499,149.857312 L203.672248,152.36383 L203.672248,152.36383 L203.672248,152.36383" id="2074" />
    <path class="unit" d="M186.447171,136.320266 L228.448447,146.79532 L216.269209,155.494923 L203.985542,152.432425 L207.673304,149.788192 L184.081148,143.906373 L181.436136,139.903931 L186.447171,136.320266 L186.447171,136.320266 L186.447171,136.320266" id="2075" />
    <path class="unit" d="M276.817296,103.850212 L249.396604,97.0299851 L260.219295,95.8811644 L289.553486,103.224607 L281.097843,109.244652 L272.363212,107.052473 L276.817296,103.850212 L276.817296,103.850212 L276.817296,103.850212" id="2076" />
    <path class="unit" d="M230.918897,104.616601 L256.843291,111.0544 L253.084886,113.733958 L227.159981,107.260322 L230.918897,104.616601 L230.918897,104.616601 L230.918897,104.616601" id="2077" />
    <path class="unit" d="M248.874463,116.727345 L222.984879,110.25371 L226.986439,107.4006 L252.911344,113.873212 L248.874463,116.727345 L248.874463,116.727345 L248.874463,116.727345" id="2078" />
    <path class="unit" d="M218.774969,113.281394 L221.489088,111.332392 L238.818089,115.648661 L232.24216,120.346846 L221.523899,117.666776 L218.774969,113.281394 L218.774969,113.281394 L218.774969,113.281394" id="2079" />
    <path class="unit" d="M250.023171,118.466956 L243.445707,123.130329 L232.5191,120.414935 L239.096052,115.716749 L250.023171,118.466956 L250.023171,118.466956 L250.023171,118.466956" id="2080" />
    <path class="unit" d="M248.908769,97.0647909 L276.36478,103.920855 L271.875375,107.087791 L280.923291,109.349084 L279.079411,110.671456 L282.176434,111.437337 L284.020827,110.149777 L289.031863,111.367711 L291.746494,115.857532 L295.81716,115.439779 L297.662065,118.397327 L292.685327,118.884705 L295.08616,122.260006 L249.919267,124.766012 L243.760029,123.234763 L259.940826,111.681026 L231.093457,104.477346 L240.175671,98.004735 L248.908769,97.0647909 L248.908769,97.0647909 L248.908769,97.0647909" id="2081" />
    <path class="unit" d="M295.189565,122.400284 L249.988365,124.904754 L242.117314,130.497317 L224.516495,126.157504 L217.939546,130.85569 L229.17944,133.640196 L216.652114,142.549184 L232.902013,146.620741 L229.840817,148.812927 L234.851338,150.03086 L242.924601,149.196376 L244.629753,151.945557 L251.658195,151.215 L249.988365,148.534422 L253.503102,148.151989 L257.747312,149.196376 L262.774721,148.696704 L262.827961,148.743809 L271.040449,147.838674 L299.018103,127.863837 L295.189565,122.400284 Z M295.189565,122.400284" id="2082" />
    <path class="unit" d="M333.432419,56.3825159 L329.11655,59.4445019 L309.944181,54.6772029 L314.224217,51.6152169 L333.432419,56.3825159 L333.432419,56.3825159 L333.432419,56.3825159" id="2083" />
    <path class="unit" d="M309.770665,54.7821497 L331.623878,60.2457034 L328.943545,62.1604046 L307.09082,56.6958303 L309.770665,54.7821497 L309.770665,54.7821497 L309.770665,54.7821497" id="2084" />
    <path class="unit" d="M306.916789,56.8345674 L329.082777,62.3329338 L331.936134,60.3148183 L371.953779,70.302494 L359.321505,79.3154121 L300.722743,64.6991774 L304.86354,61.7416296 L303.332433,59.3753865 L306.916789,56.8345674 L306.916789,56.8345674 L306.916789,56.8345674" id="2085" />
    <path class="unit" d="M283.532453,73.5047567 L305.420988,78.9688226 L301.350321,81.8567448 L279.496594,76.3926789 L283.532453,73.5047567 L283.532453,73.5047567 L283.532453,73.5047567" id="2086" />
    <path class="unit" d="M306.812871,87.3202947 L298.495443,93.2364141 L266.899657,85.3718043 L272.884848,81.1261846 L287.847312,84.8491009 L290.213336,83.1786009 L306.812871,87.3202947 L306.812871,87.3202947 L306.812871,87.3202947" id="2087" />
    <path class="unit" d="M275.668572,79.1418631 L279.322036,76.5319308 L301.174738,81.9606719 L297.277607,84.7789688 L290.109405,82.9702417 L290.074595,82.9702417 L287.708059,84.6407417 L273.058881,80.985915 L275.668572,79.1418631 L290.074596,82.9707536" id="2088" />
    <path class="unit" d="M300.549193,64.838941 L359.148466,79.4556883 L338.930788,93.8973475 L308.830789,86.3803537 L315.824944,81.3693656 L283.741825,73.3644813 L290.770789,68.3534932 L296.407372,67.7970011 L300.549193,64.838941 L300.549193,64.838941 L300.549193,64.838941" id="2089" />
    <path class="unit" d="M307.09082,87.3904366 L315.929879,89.5826159 L301.453725,99.9179066 L266.691809,91.2526035 L264.046285,87.423713 L266.726107,85.5100358 L298.599857,93.4447826 L307.09082,87.3904366 L307.09082,87.3904366 L307.09082,87.3904366" id="2090" />
    <path class="unit" d="M297.242808,102.911292 L262.584295,94.2808019 L266.621688,91.3923675 L301.279689,100.057671 L297.242808,102.911292 L297.242808,102.911292 L297.242808,102.911292" id="2091" />
    <path class="unit" d="M287.673776,37.1725324 L280.922776,41.9751557 L259.209312,36.5807156 L281.897442,20.3989309 L288.09149,19.6673512 L306.047062,24.15666 L304.237478,25.4447317 L322.471014,29.9688532 L321.078633,30.9784229 L317.147204,31.3956639 L306.012251,39.3298991 L307.856132,42.2188453 L287.673776,37.1725324 L287.673776,37.1725324 L287.673776,37.1725324" id="2092" />
    <path class="unit" d="M382.531784,43.053327 L288.369459,19.5634244 L298.287102,12.4989962 L392.448912,35.9545988 L382.531784,43.053327 L382.531784,43.053327 L382.531784,43.053327" id="2093" />
    <path class="unit" d="M307.99587,42.3923965 L308.551799,43.2627153 L305.072382,45.7323726 L285.968624,41.0003976 L290.213851,37.9732243 L307.99587,42.3923965 L307.99587,42.3923965 L307.99587,42.3923965" id="2094" />
    <path class="unit" d="M301.175264,48.517391 L282.1063,43.7495803 L285.794574,41.1053473 L304.898348,45.8726462 L301.175264,48.517391 L301.175264,48.517391 L301.175264,48.517391" id="2095" />
    <path class="unit" d="M297.000166,51.5102638 L277.93069,46.7429649 L281.93225,43.8893434 L301.001725,48.6218297 L297.000166,51.5102638 L297.000166,51.5102638 L297.000166,51.5102638" id="2096" />
    <path class="unit" d="M275.32048,46.2550749 L296.825599,51.6147023 L290.492313,56.1388238 L268.988218,50.7791963 L275.32048,46.2550749 L275.32048,46.2550749 L275.32048,46.2550749" id="2097" />
    <path class="unit" d="M278.000294,64.8737541 L224.37624,51.4754507 L247.447787,35.0151636 L279.495584,42.9842114 L268.49987,50.8493329 L290.109418,56.2084486 L285.133704,56.7306398 L276.711847,62.7511977 L278.000294,64.8737541 L278.000294,64.8737541 L278.000294,64.8737541" id="2098" />
    <path class="unit" d="M272.641697,68.8756851 L242.089163,61.2537406 L237.670401,64.4217009 L214.390508,58.6100195 L224.20321,51.614705 L278.035629,65.047307 L272.641697,68.8756851 L272.641697,68.8756851 L272.641697,68.8756851" id="2099" />
    <path class="unit" d="M268.22191,72.0421082 L237.983185,64.4908133 L242.227899,61.4631281 L272.467136,68.9801219 L268.22191,72.0421082 L268.22191,72.0421082 L268.22191,72.0421082" id="2100" />
    <path class="unit" d="M262.306339,76.3230521 L221.732767,66.2309389 L225.804457,63.3082038 L266.37803,73.4341059 L262.306339,76.3230521 L262.306339,76.3230521 L262.306339,76.3230521" id="2101" />
    <path class="unit" d="M221.558201,66.3358871 L262.132286,76.4617892 L256.216714,80.67362 L215.64263,70.5815068 L221.558201,66.3358871 L221.558201,66.3358871 L221.558201,66.3358871" id="2102" />
    <path class="unit" d="M215.4691,70.6854341 L256.042161,80.8123604 L250.892399,84.5009759 L247.586518,84.8496154 L209.100494,75.2438562 L215.4691,70.6854341 L215.4691,70.6854341 L215.4691,70.6854341" id="2103" />
    <path class="unit" d="M230.431566,86.624555 L202.802019,79.7341906 L208.927471,75.3493203 L247.099698,84.8844299 L230.431566,86.624555 L230.431566,86.624555 L230.431566,86.624555" id="2104" />
    <path class="unit" d="M346.377479,34.2144727 L342.514134,36.963144 L341.853777,35.7457217 L344.602705,33.761907 L346.377479,34.2144727 L346.377479,34.2144727 L346.377479,34.2144727" id="2105" />
    <path class="unit" d="M347.873763,46.3595144 L360.12262,37.6245859 L369.065596,39.8869027 L356.852061,48.587018 L347.873763,46.3595144 L347.873763,46.3595144 L347.873763,46.3595144" id="2106" />
    <path class="unit" d="M378.147319,53.9113208 L357.164855,48.6561314 L369.378903,39.9565278 L395.859224,46.5683904 L397.077046,48.7953823 L391.683106,52.6585736 L378.147319,53.9113208 L378.147319,53.9113208 L378.147319,53.9113208" id="2107" />
    <path class="unit" d="M359.809355,37.5549596 L350.93651,43.888832 L347.979236,43.1577643 L344.638546,45.5588201 L339.382819,44.2364476 L337.260462,40.9998858 L346.655962,34.2835848 L359.809355,37.5549596 L359.809355,37.5549596 L359.809355,37.5549596" id="2108" />
    <path class="unit" d="M344.916001,45.6294692 L348.117454,43.3676644 L350.762465,44.0280827 C349.71818,44.7939632 348.66212,45.5480688 347.595823,46.2903995 L344.916001,45.6294692 L344.916001,45.6294692 L344.916001,45.6294692" id="2109" />
    <path class="unit" d="M331.971972,51.1616245 L328.283186,53.7720687 L315.617127,50.6404571 L319.304889,47.9952002 L331.971972,51.1616245 L331.971972,51.1616245 L331.971972,51.1616245" id="2110" />
    <path class="unit" d="M336.703998,49.0047712 L329.570093,54.1201973 L328.560617,53.8759961 L332.422938,51.092 L319.478402,47.8559502 L322.75,45.5250337 L336.703998,49.0047712 L336.703998,49.0047712 L336.703998,49.0047712" id="2111" />
    <path class="unit" d="M337.016283,49.108699 L344.602712,50.9880755 L337.468807,56.0692011 L329.883402,54.1898246 L337.016283,49.108699 L337.016283,49.108699 L337.016283,49.108699" id="2112" />
    <path class="unit" d="M355.911705,53.8068814 L345.402817,61.2890655 L334.407614,58.5393703 L344.881185,51.0577009 L355.911705,53.8068814 L355.911705,53.8068814 L355.911705,53.8068814" id="2113" />
    <path class="unit" d="M375.398392,59.9666929 L366.247071,66.5089301 L345.716619,61.3581791 L356.190702,53.875998 L374.111976,58.3299819 L375.398392,59.9666929 L375.398392,59.9666929 L375.398392,59.9666929" id="2114" />
    <path class="unit" d="M97.02662,128.796101 L84.1430014,125.566195 L84.1087038,125.531894 L82.5422752,123.374015 L72.7295725,130.368306 L89.4934302,134.637475 L97.02662,128.796101 L97.02662,128.796101 L97.02662,128.796101" id="2115" />
    <path class="unit" d="M97.331204,128.872383 L105.055847,128.315379 L123.708121,132.909638 L113.129097,140.600184 L89.8379419,134.723997 L97.331204,128.872383 L97.331204,128.872383 L97.331204,128.872383" id="2116" />
  </g>
</g>
</svg>
