<?xml version="1.0" encoding="utf-8"?>
<svg version="1.1" id="Layer_1"
xmlns="http://www.w3.org/2000/svg"
xmlns:xlink="http://www.w3.org/1999/xlink"
xmlns:author="http://www.sothink.com"
width="1070px" height="568px"
xml:space="preserve">
<g id="23" transform="matrix(1, 0, 0, 1, -6.85, -86.9)">
<path style="fill:#4E4E4E;fill-opacity:1" d="M1068.8,226.05L1032.85 251.8L1037.85 258.35L1037.85 266.55L1008.9 268.85L970.85 296.05L957.05 292.65L957.75 293.6L957.65 301.8L957.15 301.85L958.75 304.45L958.75 306.2L944.5 316.3L942.05 316.6L942.05 321.45L936.15 325.65L921.5 322.05L921.5 319L917.3 317.95L917.3 320.7L905.35 329.25L934.35 336.5L934.25 344.55L922.95 352.65L895.75 345.9L895.75 349.95L874.4 365.2L874.35 371.6L871.3 373.75L866.6 374.1L782.3 353.1L778.05 355.95L893 384.65L892.9 392.75L869.4 409.5L841.95 402.7L833.5 408.7L801.85 400.8L798.5 403.25L798.45 407.2L791.35 412.2L758.8 404.15L753.3 408L753.3 408.55L752.4 408.65L772.5 413.65L772.4 416.5L821.2 428.7L826.05 425.2L840.6 428.9L840.6 429.9L856.3 433.75L857.9 436.25L857.8 440.75L861.25 446.1L865.6 447.2L867.15 449.7L867.05 457.9L815.9 494.4L808.5 495.1L804.6 494.2L802.1 490.25L787.15 491.8L787.15 496.1L783.65 498.5L774.65 499.5L744.6 492.05L744.6 487.5L714.35 479.95L712.85 481L712.75 487.95L692.95 502.1L679.1 498.7L679.1 496.35L652.05 489.55L652.05 491.5L624.05 511.45L596.65 504.6L596.6 511.95L582.5 522L577.1 520.65L567.35 527.65L577.55 530.2L577.5 538.35L513 584.35L509.4 583.45L496.75 592.55L501.4 593.7L503.4 592.25L506.45 593L508.85 591.25L510.8 593.35L510.8 594.95L497.8 604.2L492.6 604.3L492.15 603.45L462.9 624.4L462.85 632.55L443.55 646.25L435.1 644.2L421.4 654L399.85 648.6L392.7 653.7L344.85 641.8L344.85 634.85L332.75 631.8L325.5 636.95L277.65 625L277.75 618.1L246.1 610.2L246.1 602.15L265.3 588.4L257.3 586.35L257.4 578.2L275.35 565.45L291.75 569.55L321.7 548.1L334.9 551.45L342.45 546.05L342.9 545.8L356.5 536L329.5 529.3L329.6 521.1L371.4 491.25L424.35 504.45L424.35 498.95L437.6 489.45L433.95 488.55L425.6 494.5L414.85 491.8L414.9 483.8L400.05 480.1L396.15 482.8L377.8 478.25L377.8 474.55L371.95 473.15L364.95 478.05L349.7 474.3L349.7 466.15L355.8 461.75L351.25 460.65L351.3 452.5L392.85 422.8L405.95 426.05L421.4 415L490.9 432.4L506.05 421.55L460.25 410.15L459.5 409.9L404.15 396.15L404.15 391.3L399.05 390.05L399.05 386.3L397.8 386.55L391.85 385.05L389.1 387.1L387.9 386.75L387.9 387.9L383.1 391.4L369.25 387.9L365.4 381.9L355.55 382.9L356.15 383.8L356.05 391.95L347.75 389.9L342.45 393.65L342.45 393.75L342.15 393.75L341.7 394.1L341.55 393.8L322.9 395.8L321.8 394.2L321.8 395.9L311.05 397.05L308.15 399.1L301.45 397.4L301.45 403.95L289.6 412.3L288.05 411.95L288.05 413.45L273.35 423.95L270.85 423.35L270.85 425.75L267.35 428.25L275.8 430.35L275.7 438.5L263.75 447L258.4 445.7L256.3 447.2L244.1 444.15L239.25 447.65L230.75 445.5L224.4 450.05L210.9 446.75L211 438.6L212.45 437.5L209.6 432.95L209.6 434L207.8 434.2L207.8 434.8L207.5 434.8L207.45 436.9L204 437.25L204 442.65L201.5 444.4L190.65 441.75L186.95 435.9L186.45 436.25L185.2 436.35L185.2 438.25L183.1 438.4L183.1 440L136.1 444.85L136 446.55L98.5 450.6L97.9 451.35L83.8 454.45L77 452.75L70.6 453.4L68.4 454.9L58.85 452.6L54.45 445.7L54.45 444.05L59.4 440.55L59.3 440.55L57.25 437.35L35.7 439.65L33.05 435.45L33.1 427.35L49.55 425.6L35.65 404.4L14.55 406.75L11.85 402.6L11.95 394.45L19.55 393.65L15.1 386.75L15.2 378.55L49.2 374.9L49.2 368.9L60.4 367.65L66.05 376.25L110.8 371.4L117.35 381.45L153.15 377.6L155.1 380.55L167.4 379.2L177.3 394.35L177.3 397.75L181.7 397.3L173 383.6L173.05 375.45L175.3 375.15L175.3 368.8L198.7 352.1L207.6 354.35L224.3 342.4L245.65 347.8L245.75 340.1L300.55 300.95L283.7 296.85L283.75 288.7L299.75 277.2L300.2 276.95L316.7 265.25L351.4 273.9L351.4 266.9L359.5 261.25L310.6 249.05L310.7 240.85L318.95 234.95L379.4 228.4Q380.05 226.05 383.15 223.75L387.2 221.6L383.7 218.8L383.7 217.2L402.35 211.9L405.6 209.65L405.6 206.95L415.35 199.95L417.7 200.6L417.7 198.35L425.05 193.05L425.5 192.8L458.05 169.55L458.5 169.3L467.6 162.75L470.2 163.35L470.2 160.85L474.3 158L653.3 202.55L653.2 210.75L613.9 238.8L565.9 226.8L548.6 239.15L547.05 238.8L547.05 240.95L543.55 243.4L548.25 244.55L548.15 252.7L523.65 270.1L512.55 267.35L507.95 270.55L501.85 269.05L501.95 265.35L499.45 264.75L495.55 267.5L491.65 266.55L491.55 269.6L517 275.95L516.9 284.1L500.25 296.05L493.95 294.4L469.4 312L466.35 311.2L466.35 311.4L472.35 312.9L472.25 321.05L471.45 321.7L476.9 323.05L476.9 331.2L454.4 347.15L462.85 346.35L492.9 324.95L534.7 335.35L534.6 343.5L526.9 348.95L531 350.05L547.25 338.45L579.25 346.45L588.05 340.2L605.55 344.5L605.55 352.65L594.45 360.55L594.9 360.7L611.3 364.75L611.3 369.4L635.5 375.5L643.05 370.15L637.3 368.7L637.3 364.4L628.35 362.05L628.35 354L656.4 333.9L680.1 339.8L680.2 336.5L684.4 333.45L590.2 310.05L590.3 301.85L661.9 250.75L720.65 265.35L724.7 262.6L748.2 268.4L748.2 272.25L770.8 277.9L770.7 286.1L768.1 287.95L773.85 289.4L785.4 281.05L785.85 280.8L793.3 275.5L773.75 270.55L773.75 262.5L789.9 250.9L717.8 232.95L717.85 224.8L738.25 210.3L754.1 214.2L762.1 208.55L762.1 203.45L769.35 198.25L774.75 199.6L831.8 158.85L1068.9 218L1068.8 226.05M753.65,350.75L753.65 353.1L756.1 351.4L753.65 350.75M852,266.45L852 268.25L855.4 267.25L852 266.45M703.05,413.9L703.05 412.85L699.55 413.1L701 415.35L703.05 413.9M472.7,220.25L472.6 221.95L474.4 220.7L472.7 220.25M395.8,286.15L395.75 292L401.9 287.6L395.8 286.15M349.15,313L348.9 313.1L346.4 312.45L350.05 317.95L351.5 317.75L349.15 313.8L349.15 313M438.25,356.5L438.35 353.65L436.65 353.8L438.25 356.5M275.85,355.8L278.65 360.35L278.75 356.5L275.85 355.8M282.35,374.25L284.95 374L282.35 369.95L282.35 374.25M544.35,402.6L532.15 411.3L534.35 411.85L546.55 403.15L544.35 402.6M541.5,430.4L522.75 425.65L522.65 432.15L524 432.5L524 434.65L524.55 434.8L526.35 433.45L526.8 433.2L528.75 431.75L536.3 433.65L540.5 430.7L542.5 431.15L542.5 429.7L541.5 430.4" />
<path style="fill:none;stroke-width:8;stroke-linecap:butt;stroke-linejoin:miter;stroke-miterlimit:4;stroke:#9B8863;stroke-opacity:1" d="M1072.7,157.6L834.55 98.25L777.25 139.2L771.9 137.85L764.6 143.05L764.5 148.25L756.55 153.9L740.5 149.9L720.15 164.5L720.05 172.7L792.5 190.7L776.3 202.35L776.2 210.55L795.9 215.4L776.3 229.35L770.55 227.95L773.25 226.05L773.3 217.85L750.5 212.2L750.5 208.25L726.9 202.45L722.9 205.25L663.85 190.55L591.95 241.95L591.9 250.1L686.55 273.65L682.2 276.7L682.2 280.1L658.45 274.1L630.1 294.25L630.1 302.45L639.15 304.75L639.15 309.05L645 310.45L637.45 315.9L613.05 309.75L613.1 305.1L596.5 301.05L596.1 300.85L607.2 292.95L607.3 284.75L589.75 280.4L580.85 286.7L548.7 278.7L532.45 290.35L528.2 289.25L536 283.7L536.1 275.55L494 265.05L463.85 286.65L455.45 287.5L478.05 271.35L478.1 263.2L472.5 261.85L473.4 261.2L473.45 253.05L467.4 251.55L467.4 251.3L470.45 252.1L495.2 234.45L501.45 236.05L518.3 224.1L518.3 215.9L492.8 209.5L492.8 206.4L496.75 207.4L500.7 204.65L503.2 205.25L503.05 208.95L509.25 210.45L513.85 207.25L525 210L549.6 192.55L549.6 184.35L545.05 183.15L548.5 180.75L548.5 178.5L550.1 178.9L567.4 166.55L615.7 178.5L655.2 150.35L655.2 142.15L500.2 103.6L504.95 100.25L504.95 98.6L475.1 91.2L403.1 142.55L384.4 147.9L384.4 149.5L387.95 152.25Q385.65 153.25 383.85 154.5Q379.85 157.5 379.9 160.65L379.85 162.3Q379.85 165.4 382.8 167.8L319.4 174.65L311.05 180.65L311 188.85L360.1 201.05L352 206.75L352 213.75L317.1 205.1L284 228.65L283.9 236.85L300.85 241.05L245.85 280.35L245.75 288.05L224.3 282.7L207.5 294.65L198.55 292.4L175.1 309.15L175.05 315.6L172.8 315.8L172.75 324L181.5 337.8L177.05 338.35L177.05 334.8L167.15 319.6L154.8 320.95L152.85 317.95L116.9 321.9L110.25 311.8L65.35 316.7L59.7 308.05L48.45 309.2L48.35 315.25L14.2 318.95L14.15 327.15L18.6 334.1L11 334.95L10.9 343.15L13.65 347.3L34.8 344.95L48.65 366.2L32.2 368L32.15 376.15L34.9 380.35L54.15 378.2L58.1 384.35L67.7 386.7L69.9 385.15L76.3 384.5L83.2 386.25L97 383.15L97 390.4L97.35 391.45L135.7 387.35L135.7 385.6L182.9 380.75L182.9 379.15L185 378.95L185.1 370.75L183.05 368.2L185.9 367.9L185.9 375.3L190.55 382.4L201.4 385.15L203.9 383.35L204 377.9L207.35 377.5L207.35 375.55L207.7 375.45L207.75 367.3L206.9 365.95L208.4 365.8L208.4 371.85L212.4 378.2L210.9 379.25L210.85 387.4L224.35 390.8L230.8 386.25L239.3 388.35L244.2 384.85L256.4 387.9L258.5 386.4L263.95 387.75L275.95 379.15L275.95 371L267.55 368.85L271.1 366.35L271.1 363.9L273.6 364.55L288.35 354L288.35 352.5L289.9 352.9L301.8 344.45L301.8 337.95L308.55 339.6L311.4 337.55L322.25 336.45L322.25 334.7L323.35 336.3L342.15 334.3L342.3 334.55L342.75 334.25L343 334.25L343 334.1L348.3 330.3L356.7 332.4L356.7 324.25L350.9 314.9L365.05 313.4L365.05 320.6L369.9 328.35L383.75 331.8L388.65 328.35L388.7 327.25L389.8 327.45L392.65 325.5L398.55 327L399.8 326.75L399.8 330.45L405 331.8L404.95 336.6L507.35 362.15L492.05 373L422.25 355.65L406.75 366.65L393.7 363.45L351.8 393.25L351.8 401.45L356.45 402.55L350.35 406.95L350.25 415.1L365.6 418.95L372.6 413.95L378.5 415.45L378.5 419.05L397 423.7L400.75 420.95L415.7 424.7L415.7 432.75L426.55 435.4L434.9 429.45L438.55 430.4L425.3 439.9L425.25 445.4L372.1 432.1L330.05 462.15L330.05 470.35L357.1 477.1L335.45 492.6L322.15 489.3L292.05 510.8L275.5 506.7L257.55 519.55L257.5 527.7L265.5 529.75L246.25 543.55L246.15 551.7L278 559.65L277.95 566.6L326 578.55L333.2 573.45L345.45 576.4L345.35 583.4L393.45 595.4L400.6 590.2L422.3 595.6L436.1 585.8L444.5 587.9L463.95 574.05L463.95 565.85L494.4 544.1L494.45 537.1L499.05 537L512.1 527.7L512.1 526.05L510.9 524.9L514.3 525.75L579.15 479.5L579.2 471.3L568.9 468.8L578.75 461.8L584.1 463.1L598.25 452.95L598.25 445.65L625.8 452.5L653.95 432.45L653.95 430.45L681.2 437.25L681.2 439.6L695.05 443.05L715 428.9L715.1 421.9L716.6 420.8L746.95 428.4L746.95 433L777.1 440.45L786.2 439.5L789.7 437.05L789.7 432.75L804.8 431.15L807.3 435.1L811.1 436.05L818.55 435.35L870 398.6L870.1 390.4L868.5 387.95L864.2 386.85L860.65 381.45L860.8 376.95L859.25 374.45L843.35 370.5L843.35 369.5L828.8 365.85L824 369.35L803.75 364.3L803.6 364.3L774.9 357.15L774.9 354.2L754.8 349.2L755.75 349.1L755.75 348.5L761.1 344.6L793.95 352.8L801.1 347.7L801.1 343.75L804.4 341.3L836.25 349.25L844.7 343.2L872.3 350.15L895.9 333.2L896 325.05L790.85 298.9L794.95 295.9L869.55 314.5L874.2 314.15L877.15 311.95L877.35 305.5L898.8 290.25L898.8 286.15L926.1 293L937.5 284.8L937.5 276.65L908.5 269.4L920.45 260.8L920.45 258.05L924.7 259.15L924.6 262.15L939.35 265.85L945.25 261.6L945.4 253.45L943.2 250.05Q949.15 248.65 952.4 244.55L952.65 244.3L955.05 242.55L960.95 241.85L960.95 238.3L962.15 237.55L962.15 235.95L960.95 234.15L960.95 233.7L960.35 232.6L974.25 236.05L1012.4 208.8L1041.55 206.45L1041.6 198.2L1036.5 191.6L1072.7 165.8L1072.7 157.6M691.45,415.65L681.7 413.2L681.95 412.95L691.45 415.3L691.45 415.65M471.1,103.6L469.5 103.2L471.1 102L471.1 103.6M418.3,140.9L417.05 140.55L418.3 139.75L418.3 140.9M410.65,153.05L411.15 153.85M413.8,173.9L413.8 169.85L418 170.95L413.8 173.9M464.85,196.45L468.25 194L468.25 197.2L464.85 196.45M351.9,258.65L350.4 258.8L346.6 253.3L349.2 253.95L349.45 253.85L349.45 254.65L351.9 258.65M439.55,299.05L439.7 299.2L431.65 306.1L431.3 306.1L439.55 299.05M547.55,335.75L559.05 338.6L552.75 343.1L550.4 342.55L535.45 353.15L533.3 352.7L547.55 342.55L547.55 335.75M523.8,367.1L542.75 371.8L543.7 371.1L543.7 372.5L541.75 372.05L537.4 375.05L529.85 373.15L525.6 376.2L525.15 376.05L525.15 373.95L523.8 373.55L523.8 367.1M621.45,321.35L619.55 322.65L621.35 321.35L621.45 321.35M20,327.65L20.7 328.75M316.25,319.15L316.25 319.95L315.75 319.25L316.25 319.15M296.25,333.15L296.25 333.4L298 336.1L293.75 335.05L296.25 333.15M278.65,301.4L275.9 296.8L278.7 297.55L278.65 301.4M254.65,366.45L250.8 365.5L254.65 361.8L254.65 366.45M476.45,421.75L471.95 424.9L471.95 423.65L475.1 421.45L476.45 421.75" />
<path style="fill:#AAACAE;fill-opacity:1" d="M767.65,264.05L775.05 258.75L777.8 259.35L790 258.1L835.95 225.35L830.7 217.15L829.95 216.15L829.95 214.55L851.2 199.4L855.8 198.1L907.8 211.05L907.8 212.7L901.95 216.9L895.85 215.35L892.8 217.45L894.8 220.65L946.95 233.65L956.8 232.55L958.6 235.45L958.6 237L944.3 247.15L937.5 247.95L934.9 243.9L876.85 229.35L853.6 231.75L812.45 261.15L814.95 265.05L814.85 266.7L798.75 278.2L788.85 279.2L698.95 343.4L699.7 343.6L705.1 351.6L705.1 353.25L686.8 366.3L632.4 372L624.85 370.1L613.8 371.45L526.9 433.5L529.25 436.1L529.25 437.75L516.8 446.65L517.75 447.95L517.75 449.6L511.5 454.05L507.75 453.15L465.45 483.2L468.85 488.6L468.85 490.15L446.3 506.3L447.55 510.35L502.1 523.95L504.1 522.55L507.2 523.3L509.55 521.6L511.5 523.65L511.5 525.25L498.55 534.5L493.35 534.55L490.7 530.45L406.55 509.4L406.55 507.75L484.75 451.95L475 437.35L475 435.7L483.35 429.75L507.85 427.1L574.5 379.5L573.8 378.65L570.75 377.85L569.65 376.35L569.75 374.75L578.25 376.85L603.95 358.45L602.4 356.3L602.4 354.65L606.4 351.75L603.1 347.85L538.65 331.75L520.35 333.55L502.05 329L498.15 322.35L431.55 305.8L430.15 305.95L443.6 294.3L445.05 296.65L508.45 312.5L526.05 310.65L556.6 318.2L556.6 319.85L553.95 321.75L555.75 324.25L613.45 338.7L665.95 333.95L673.2 335.7L682.6 334.7L772.2 270.75L769.85 266.25L767.55 265.6L767.65 264.05" />
<path style="fill:#9B8863;fill-opacity:1" d="M160.25,202.2L162.95 202.2L162.95 205.4L160.25 205.4L160.25 202.2M155,209.75Q155.6 210.5 155.85 211.6L156 214.15L156 217.8Q156 221.65 156.15 222.65Q156.35 223.65 156.85 224.6L154 224.6Q153.55 223.75 153.45 222.6L150.5 224.45L147.45 224.95Q144.8 224.95 143.35 223.65Q141.95 222.35 141.95 220.35Q141.95 219.15 142.5 218.15Q143 217.15 143.9 216.55Q144.75 215.95 145.85 215.65L148.3 215.25Q151.65 214.85 153.2 214.3L153.25 213.6Q153.25 211.9 152.45 211.25Q151.4 210.3 149.3 210.3Q147.4 210.3 146.45 211Q145.55 211.65 145.1 213.4L142.4 213Q142.75 211.3 143.6 210.25Q144.45 209.15 146.05 208.6Q147.6 208 149.7 208Q151.8 208 153.1 208.5Q154.4 209 155 209.75M145.25,218.95Q144.85 219.55 144.85 220.25Q144.85 221.35 145.7 222.1Q146.5 222.8 148.15 222.8L150.95 222.15Q152.2 221.4 152.75 220.2Q153.2 219.3 153.2 217.45L153.2 216.45L148.7 217.5L146.35 218.05Q145.6 218.35 145.25 218.95M140.15,208.4L140.15 210.5L137.4 210.5L137.4 220Q137.4 221.2 137.55 221.5L138 222.05L138.95 222.25L140.15 222.15L140.55 224.55L138.5 224.8L136.15 224.35Q135.35 223.85 135 223.1Q134.65 222.35 134.65 219.85L134.65 210.5L132.65 210.5L132.65 208.4L134.65 208.4L134.65 204.35L137.4 202.7L137.4 208.4L140.15 208.4M123.9,208Q125.8 208 127.25 208.55Q128.7 209.1 129.35 210.05Q130.05 211 130.3 212.55L127.65 212.95Q127.45 211.7 126.6 211Q125.7 210.3 124.1 210.3Q122.2 210.3 121.4 210.9Q120.6 211.55 120.6 212.35Q120.6 212.9 120.9 213.35L121.95 214.05L124.4 214.75L128.45 216.05Q129.6 216.55 130.25 217.5Q130.95 218.45 130.95 219.85Q130.95 221.2 130.15 222.45Q129.3 223.65 127.8 224.3Q126.3 224.95 124.4 224.95Q121.25 224.95 119.6 223.65Q117.9 222.35 117.45 219.75L120.2 219.35Q120.4 220.95 121.45 221.85Q122.5 222.7 124.4 222.7Q126.25 222.7 127.2 221.95Q128.1 221.15 128.1 220.15Q128.1 219.2 127.3 218.65L124.5 217.75L120.3 216.4Q119.15 215.85 118.55 214.9Q117.9 213.9 117.9 212.7Q117.9 211.6 118.4 210.7Q118.9 209.75 119.75 209.15Q120.4 208.7 121.5 208.35L123.9 208M160.25,208.4L162.95 208.4L162.95 224.6L160.25 224.6L160.25 208.4M113.4,209.95Q114 210.8 114.25 211.95L114.4 214.65L114.4 224.6L111.65 224.6L111.65 214.75Q111.65 213.05 111.3 212.25Q111 211.4 110.2 210.9Q109.35 210.4 108.25 210.4Q106.5 210.4 105.25 211.5Q103.95 212.65 103.95 215.75L103.95 224.6L101.2 224.6L101.2 208.4L103.7 208.4L103.7 210.7Q105.45 208 108.85 208Q110.3 208 111.55 208.55Q112.75 209.05 113.4 209.95M98.9,208.4L93.8 224.6L90.95 224.6L87.75 212.15L84.45 224.6L81.6 224.6L76.65 208.4L79.5 208.4L83 221.25L83.85 217.9L86.45 208.4L89.25 208.4L92.5 220.9L96.2 208.4L98.9 208.4M67.85,208Q71.2 208 73.3 210.2Q75.45 212.4 75.45 216.25Q75.45 219.4 74.5 221.2Q73.55 223 71.75 223.95Q69.95 224.95 67.85 224.95Q64.45 224.95 62.35 222.8Q60.25 220.6 60.25 216.5Q60.25 212 62.75 209.8Q64.85 208 67.85 208M67.85,222.7Q69.9 222.7 71.25 221.15Q72.6 219.6 72.6 216.4Q72.6 213.4 71.25 211.85Q69.85 210.3 67.85 210.3Q65.8 210.3 64.4 211.85Q63.05 213.4 63.05 216.5Q63.05 219.6 64.4 221.15Q65.8 222.7 67.85 222.7M56.65,207.95Q57.5 210.3 57.5 213.3Q57.5 215.85 56.9 217.8Q56.3 219.8 55.4 221.05L53.35 223.1Q52.25 223.85 50.7 224.2L47.1 224.6L39 224.6L39 202.2L46.7 202.2L50.7 202.55Q52.65 203 54 204.15Q55.75 205.65 56.65 207.95M41.95,204.85L41.95 221.95L46.75 221.95L50.25 221.55Q51.5 221.15 52.25 220.4Q53.3 219.35 53.9 217.55Q54.45 215.8 54.45 213.25Q54.45 209.75 53.3 207.85Q52.15 205.95 50.5 205.3L46.7 204.85L41.95 204.85M186.25,208.55Q187.7 209.1 188.35 210.05Q189.05 211 189.3 212.55L186.65 212.95Q186.45 211.7 185.6 211Q184.7 210.3 183.1 210.3Q181.2 210.3 180.4 210.9Q179.6 211.55 179.6 212.35Q179.6 212.9 179.9 213.35L180.95 214.05L183.4 214.75Q186.3 215.55 187.45 216.05Q188.6 216.55 189.25 217.5Q189.95 218.45 189.95 219.85Q189.95 221.2 189.15 222.45Q188.3 223.65 186.8 224.3Q185.3 224.95 183.4 224.95Q180.25 224.95 178.6 223.65Q176.9 222.35 176.45 219.75L179.2 219.35Q179.4 220.95 180.45 221.85Q181.5 222.7 183.4 222.7Q185.25 222.7 186.2 221.95Q187.1 221.15 187.1 220.15Q187.1 219.2 186.3 218.65L183.5 217.75Q180.45 216.95 179.3 216.4Q178.15 215.85 177.55 214.9Q176.9 213.9 176.9 212.7Q176.9 211.6 177.4 210.7Q177.9 209.75 178.75 209.15Q179.4 208.7 180.5 208.35L182.9 208L186.25 208.55M175.95,208.9L175 211.45Q174 210.85 173 210.85Q172.1 210.85 171.35 211.4Q170.65 211.95 170.35 212.9Q169.9 214.35 169.9 216.1L169.9 224.6L167.15 224.6L167.15 208.4L169.6 208.4L169.6 210.85Q170.55 209.1 171.35 208.55Q172.15 208 173.1 208Q174.5 208 175.95 208.9" />
</g>
</svg>
