<?xml version="1.0" encoding="utf-8"?>
<svg version="1.1" id="Layer_1"
xmlns="http://www.w3.org/2000/svg"
xmlns:xlink="http://www.w3.org/1999/xlink"
xmlns:author="http://www.sothink.com"
width="674px" height="311px"
xml:space="preserve">
<g id="29" transform="matrix(1, 0, 0, 1, -76.4, -35.75)">
<path style="fill:none;stroke-width:0.25;stroke-linecap:butt;stroke-linejoin:round;stroke-miterlimit:3;stroke:#666666;stroke-opacity:1" d="M672.8,122.65L652.95 117.7L658.85 113.5L675.9 117.7L678.65 121.95L672.8 122.65M658.35,113.35L652.45 117.55L644.2 115.5L650.1 111.3L658.35 113.35M659.05,133.55L638.05 128.3L645 123.4L664.8 128.35L668.8 134.65L665.4 137.05L657.05 134.95L659.05 133.55M657,154.3L633.1 148.35L630.15 150.45L586.6 139.6L596.25 132.75L663.65 149.55L657 154.3M687.55,118.15L630.7 103.95L626.3 104.5L625.15 102.55L556.55 85.45L543.8 82.35L527 78.1L539.45 69.25L549.6 71.8L558.65 65.3L555.25 64.45L559.35 61.55L562.75 62.4L599.15 36.4L749.55 73.9L724.15 92.05L729.8 99.45L711.8 100.9L687.55 118.15M597.85,96.05L609.5 98.95L607.9 100.1L611.1 100.9L597.6 110.5L597.9 110.9L562.7 102.15L576.1 92.6L595.8 97.5L597.85 96.05M565.45,117.4L592.15 124.05L586.9 127.75L560.25 121.1L565.45 117.4M559.45,121.2L586.65 127.95L576.85 134.95L549.4 128.1L545.6 122.4L552.65 117.35L561.7 119.6L559.45 121.2M542.25,107.95L559.25 112.15L544.95 122.35L548.9 128.25L576.6 135.15L572.15 138.3L564.55 139.1L562.65 138.65L557.6 142.25L559.2 142.65L561.05 146.25L556.05 149.8L554.45 147.15L531.05 141.3L523.45 146.7L445.55 127.3L490.7 95.1L528.2 104.45L530.8 102.6L544.8 106.1L542.25 107.95M526.6,147.5L523.95 146.85L526 145.35L528.65 146.05L526.6 147.5M529.75,145.3L528.95 145.85L526.3 145.15L531.25 141.6L553.95 147.3L555.6 150.1L550.8 153.55L533.15 149.15L536.25 146.9L529.75 145.3M520.95,149.2L528.7 151.15L530.65 149.75L539.2 151.9L539.55 152.5L536 155.05L518.8 150.75L520.95 149.2M509,153.35L504.95 152.35L506.05 151.55L510.1 152.55L509 153.35M509.9,148.8L511.55 149.2L509.1 150.95L507.45 150.55L509.9 148.8M506.3,151.35L507.15 150.75L515.75 152.9L518.5 150.95L545.1 157.6L540.2 161.1L509.5 153.45L510.85 152.5L506.3 151.35M506.95,150.45L502.95 149.45L505.4 147.7L509.4 148.7L506.95 150.45M512,149.35L518 150.85L515.55 152.55L509.55 151.1L512 149.35M492.65,152.1L484.6 150.05L487.25 148.2L495.3 150.2L492.65 152.1M492.1,159.1L481.95 166.35L475.65 164.75L478.2 162.9L480.7 163.55L488.25 158.15L492.1 159.1M495.8,150.3L539.9 161.3L530.1 168.3L488 157.8L480.5 163.2L469.9 160.55L484.3 150.3L492.85 152.4L495.8 150.3M492.6,159.25L529.8 168.5L525 171.95L487.75 162.7L492.6 159.25M493.05,186.75L487.9 187.3L484.35 181.65L491.65 176.45L476.7 172.7L479.4 170.8L514.4 179.5L503.45 187.3L497.7 187.95L493.05 186.75M524.75,184.55L547.35 190.2L514.65 192.95L513.4 192.65L524.75 184.55M514.7,179.3L479.7 170.55L484.4 167.2L519.4 175.95L514.7 179.3M524.7,172.15L519.7 175.75L482.45 166.45L487.45 162.9L524.7 172.15M548.5,155.15L545.4 157.4L536.5 155.15L540.05 152.6L541.45 152.45L547.8 154.05L548.5 155.15M538.2,174.95L579.4 185.25L574.65 188.65L533.4 178.35L538.2 174.95M533.15,178.6L576.95 189.5L573 192.3L548.7 186.25L547.9 186.85L528.35 182L533.15 178.6M551.9,187.35L548.05 190.05L525.05 184.35L528.1 182.2L548.1 187.2L548.95 186.6L551.9 187.35M547.15,197.8L514.15 201.25L518.35 198.25L517.5 196.9L543.55 194.15L547.2 195.55L560.3 198.8L559.7 199.25L548.9 196.55L547.15 197.8M645.45,110.15L649.6 111.15L643.7 115.4L639.65 114.35L637.95 111.75L640.15 110.2L644.05 111.15L645.45 110.15M644.5,123.25L637.55 128.2L635.8 127.75L633.7 129.25L609.6 123.25L613.2 120.65L627.85 119.1L644.5 123.25M601.85,117.1L596.85 120.7L570.15 114.05L579.35 107.5L598.7 112.3L601.85 117.1M592.4,123.85L565.75 117.2L569.9 114.25L596.55 120.9L592.4 123.85M586.7,139.9L639.05 152.95L625.1 162.9L617.55 161.05L614.6 163.15L574.9 153.2L574.8 150.65L578.15 150.3L588.55 142.9L586.7 139.9M596.3,161.8L566.9 154.45L571.8 151L574.25 150.75L574.3 153.35L599.35 159.6L596.3 161.8M599.85,159.75L621.9 165.2L621.15 165.75L625.4 166.75L623.85 167.85L621.35 168.05L596.8 161.9L599.85 159.75M610.55,186.1L622.05 189L622.8 188.4L625.05 189L622.8 190.6L609.05 187.2L610.55 186.1M609.3,123.45L652.8 134.3L643.2 141.15L599.65 130.3L609.3 123.45M408.85,88.8L417.15 90.85L411.95 94.55L389.1 88.85L390.25 88L385.1 79.85L390.85 79.25L393.2 77.6L416.45 83.35L408.85 88.8M418,81.85L341.15 62.65L345.9 59.3L340.1 57.85L345.35 54.15L353.75 56.25L360.15 51.65L351.75 49.55L352.2 49.25L360.6 51.35L367.45 46.45L365.3 45.95L366.45 45.1L360.2 43.5L360.9 43.05L365.45 44.2L366.8 43.25L367.6 43.45L366.3 44.4L369.25 45.15L373.8 41.95L372.15 41.5L375.7 39L368.95 37.3L370.95 35.85L484.25 64.1L459.7 81.6L429.05 73.95L418 81.85M373,42L369.05 44.8L367.1 44.35L368.4 43.4L366.6 42.95L365.25 43.85L361.15 42.85L366.7 38.9L372.95 40.45L371.35 41.6L373 42M364.5,46L366.65 46.55L360.4 51L352.5 49.05L359.95 43.75L365.7 45.15L364.5 46M351.45,49.75L359.35 51.75L353.55 55.9L345.65 53.95L351.45 49.75M339.85,58.1L345.1 59.4L340.65 62.55L335.4 61.25L339.85 58.1M333.35,62.7L345.35 65.65L333.85 73.9L331.6 73.3L327.5 66.85L333.35 62.7M330.95,80.5L321.75 87.1L317.5 86.05L302 97.1L293.7 95L296.2 93.25L286.85 90.9L284.4 92.7L275.3 90.4L285.1 83.45L325.4 79.1L330.95 80.5M333.75,90.5L350.25 94.6L345.35 98.1L317.05 91.05L320.65 88.5L330.15 90.85L333.75 90.5M333.05,87.2L348.1 86.8L349.4 88.85L352.5 89.65L353.95 91.95L350.55 94.4L333.8 90.25L330.15 90.6L324.65 89.2L325.8 88.4L329.9 89.4L333.05 87.2M329.7,89.1L326.1 88.2L335.4 81.5L346.5 84.3L347.95 86.6L332.7 86.95L329.7 89.1M354.2,78.95L334.35 74L345.85 65.8L368.95 71.55L359.3 78.45L354.2 78.95M373.85,93.45L375.2 95.6L386.35 98.35L384.2 99.9L367.15 95.65L369.6 93.9L373.85 93.45M382.7,92.55L387.9 88.85L411.65 94.75L402.1 101.6L395 99.8L392.1 101.9L389.2 101.15L391.65 99.4L375.65 95.45L374.4 93.4L382.7 92.55M365.95,84.45L360.05 88.65L367.9 90.45L373.6 86.3L365.95 84.45M390.5,79.05L384.95 79.6L383.7 77.6L387.15 77.6L388.7 76.5L392.7 77.45L390.5 79.05M387.15,118.1L349 108.6L354.15 104.95L392.25 114.45L387.15 118.1M392.55,114.25L354.4 104.75L359.1 101.4L397.25 110.9L392.55 114.25M376.75,105.5L359.4 101.2L363.7 98.1L381.05 102.45L376.75 105.5M377.75,120.95L343.6 112.45L348.75 108.8L382.85 117.3L377.75 120.95M368.7,134.5L362.75 138.75L371.65 141L352.75 154.45L346.95 155.1L343.45 149.45L349.2 148.85L362.35 139.45L360.15 138.9L366.9 134.05L368.7 134.5M367.45,128.3L333.3 119.8L338.1 116.4L372.2 124.9L367.45 128.3M395.4,145.6L366.05 166.55L353.45 163.4L382.8 142.45L395.4 145.6M372.5,124.7L338.4 116.2L343.3 112.65L377.45 121.2L372.5 124.7M329.6,109.35L301.3 102.3L306.7 98.45L335 105.5L329.6 109.35M324.7,112.85L293.1 105L297.75 101.7L329.3 109.55L324.7 112.85M335.4,136.75L339.95 136.25L347.65 130.75L350.1 131.4L352.3 129.8L356.45 130.85L344.15 139.65L337.65 140.3L335.4 136.75M337.8,140.55L344.55 139.85L356.95 131L360.65 131.9L345.15 142.95L339.7 143.55L337.8 140.55M330.8,129.45L336.45 125.4L348.7 128.45L346 130.35L347.15 130.65L339.55 136.05L335.25 136.5L330.8 129.45M350.1,127.4L335.75 123.85L333.4 120.1L353.35 125.05L350.1 127.4M361.6,139.55L348.8 148.65L343.3 149.25L339.85 143.75L345.55 143.2L361.15 132.05L364.9 132.95L364.25 133.4L366.4 133.95L359.35 139L361.6 139.55M348.05,167.2L351.35 164.85L356.65 166.15L353.35 168.55L348.05 167.2M351.95,163L348.5 157.55L363 156.1L352.95 163.25L351.95 163M359.95,172.2L340.9 185.8L333.8 184.05L326.8 182.3L345.85 168.7L359.95 172.2M343,168L345.35 168.55L332.1 178L323.45 175.85L333 169.05L343 168M329.5,179.9L323.5 178.4L325.85 176.75L331.8 178.2L329.5 179.9M353.05,188.8L372.05 175.25L380.65 177.35L361.6 190.95L353.05 188.8M360.45,172.35L371.55 175.1L352.55 188.7L341.4 185.9L360.45 172.35M392.25,173.05L388.15 172.05L417.5 151.1L437.95 156.2L443.6 152.15L453.75 154.7L422.95 176.7L403.55 171.9L392.25 173.05M366.55,166.65L395.9 145.7L408.5 148.85L379.15 169.8L366.55 166.65M372.95,193.8L388.25 182.9L399.45 185.7L384.15 196.6L372.95 193.8M387.85,182.7L372.45 193.65L362.1 191.1L381.15 177.5L385.4 178.55L387.85 182.7M400,185.75L411.5 184.6L416 185.7L401.55 196L405.75 197.05L400.65 200.7L384.65 196.7L400 185.75M379.65,169.9L398.7 156.35L406.7 158.35L387.65 171.9L379.65 169.9M442.85,166.95L445.95 164.75L447.45 165.15L444.35 167.35L451.15 169.05L431.75 182.9L422.7 180.65L421.15 178.45L438.7 165.95L442.85 166.95M419.45,181.8L414.6 180.45L412.2 182.2L417.25 183.5L419.45 181.8M409.25,197.95L418.75 191.15L420.3 191.55L425.2 188.05L433.05 189.95L413.5 203.9L401.15 200.8L406.25 197.2L409.25 197.95M432.1,195.95L446.25 194.5L447.55 193.6L452.55 194.85L455.15 197.9L452.15 200.05L442.85 201.05L429.6 197.75L432.1 195.95M428.35,196.05L423.6 199.45L421.25 198.85L433.55 190.1L447.05 193.45L445.85 194.3L431.75 195.75L430.55 196.6L428.35 196.05M428.55,196.35L424.05 199.55L425.8 200L430.3 196.8L428.55 196.35M457.45,167.65L454.65 169.65L445.15 167.25L447.95 165.25L457.45 167.65M450.15,187.5L469.6 173.65L479.7 176.15L470.6 182.65L474.4 188.7L473 188.85L471.7 188.55L459.45 189.8L450.15 187.5M480.5,176.05L474.2 174.5L476.4 172.9L490.9 176.5L483.75 181.6L487.35 187.35L475 188.65L471.2 182.7L480.5 176.05M449.65,187.35L432.25 183.05L451.65 169.15L469.1 173.5L449.65 187.35M335.3,105.3L307 98.25L316.75 91.25L345.05 98.3L335.3 105.3M471.5,210.35L506.5 206.7L513.75 201.55L547.5 198L549.1 196.9L559.4 199.45L558.35 200.2L578.6 205.25L573.9 208.55L579.05 209.85L580.85 208.6L589.5 210.8L595.55 206.5L603.8 208.55L603.15 209L614.15 211.75L615 213.15L613.75 214.05L617.3 219.65L620.05 220.35L620.9 221.7L588.5 244.85L584.2 245.3L582.15 244.8L580.5 242.15L568.15 243.45L569.85 246.15L567.9 247.55L562.6 248.1L544.15 243.5L547.15 241.35L523.85 235.55L521.1 237.5L509 234.45L514.25 230.75L504.5 228.3L502 230.1L476.2 223.65L467.1 209.25L471.5 210.35M453.55,202.25L447 206.9L424.6 201.35L429.3 197.95L442.75 201.3L452.15 200.3L453.55 202.25M454.6,217.15L450.35 220.2L446.8 219.3L451.05 216.25L454.6 217.15M451.3,216.05L455.85 212.85L459.4 213.7L454.9 216.95L451.3 216.05M456.1,212.6L459.75 210.05L463.3 210.95L459.7 213.5L456.1 212.6M433.8,214.55L434.75 215.65L432.4 217.3L416.1 213.25L415.1 213.95L404.75 211.35L405.75 210.65L410.55 211.85L413.25 209.95L431.6 214.5L432.15 214.15L433.8 214.55M436.75,214.2L418.1 209.55L418.8 209.05L415.05 208.1L419 205.3L441.4 210.9L436.75 214.2M424.3,201.55L446.7 207.1L441.7 210.7L419.3 205.1L424.3 201.55M416.3,213.6L432.1 217.5L420.8 225.6L386.15 216.95L396.5 209.55L401.7 210.85L400.3 211.9L403.05 212.55L404.45 211.55L415.35 214.25L416.3 213.6M413.1,243.3L432.95 248.25L431.95 249L425.5 247.4L422.3 249.7L408.85 246.35L413.1 243.3M416.5,240.9L439.45 246.6L435.05 249.75L432.45 249.15L433.75 248.2L413.4 243.1L416.5 240.9M423.45,235.95L475.55 248.95L466.15 255.65L437.5 248.5L440.25 246.5L416.8 240.65L423.45 235.95M431.35,230.3L483.45 243.3L475.85 248.7L423.75 235.75L431.35 230.3M428.3,267.25L398.4 259.8L397.4 258.35L401.5 255.4L433.65 263.4L428.3 267.25M439.65,262.4L436.25 261.55L433.95 263.2L401.8 255.2L405.65 252.45L441.2 261.3L439.65 262.4M441.5,261.1L405.8 252.2L403.75 250L405.35 248.85L444.85 258.7L441.5 261.1M408.7,292.65L364.7 281.65L375.15 274.2L419.15 285.2L408.7 292.65M428.1,278.8L384.05 267.85L388.1 264.95L432.15 275.9L428.1 278.8M432.45,275.7L388.4 264.75L391.85 262.25L435.9 273.25L432.45 275.7M405.65,248.65L408.55 246.55L448.1 256.4L445.15 258.5L405.65 248.65M419.45,285L375.45 274L383.8 268.05L427.8 279L419.45 285M400.9,205.95L385.4 217L420.55 225.8L401.3 239.5L374.3 232.75L365.9 238.75L367.95 239.25L360.15 244.85L344.85 241.05L339.5 244.85L333.6 243.35L338.95 239.55L323.15 235.65L320.7 237.35L309.95 234.7L312.4 232.95L305.25 231.15L300.8 234.35L292 232.15L301.35 225.55L293 223.45L319 204.9L327.3 207L337.15 199.95L381.55 211.05L391.85 203.7L400.9 205.95M373,240.65L389.45 244.75L390.5 246.55L381.9 247.5L381.55 246.9L368.7 243.7L373 240.65M374.5,233.1L401 239.7L397.55 242.2L371.05 235.6L374.5 233.1M377.45,237.45L397.25 242.4L391.65 246.4L391.05 246.5L389.95 244.6L373.25 240.45L377.45 237.45M332,294.35L287.35 283.2L292.1 279.8L336.8 290.95L332 294.35M363.65,288.4L401.45 297.8L395.3 302.2L357.5 292.8L363.65 288.4M346.45,284.05L279.15 267.25L287.9 261L355.2 277.8L346.45 284.05M355.45,277.6L288.2 260.8L296.8 254.65L364.1 271.45L355.45 277.6M337.05,290.75L292.4 279.6L301.5 273.1L346.15 284.25L337.05 290.75M371.55,260.6L376.05 260.2L377.3 262.05L375.2 263.5L369.5 262.1L371.55 260.6M364.75,281.95L408.45 292.85L401.75 297.6L363.95 288.2L367.2 285.85L364.75 281.95M364.4,271.25L297.1 254.45L305.3 248.6L372.6 265.4L364.4 271.25M382.3,314.2L357.3 332L362.7 333.35L350.95 341.7L345.55 340.4L336.8 346.6L323.05 343.2L318.45 346.45L288.95 339.1L293.5 335.85L280.2 332.5L275.6 335.8L246.1 328.4L250.65 325.15L225.85 318.95L243.55 306.35L233.05 303.7L243.9 295.95L254.4 298.6L273.55 284.9L380.65 311.65L382.3 314.2M326.95,297.95L282.3 286.8L287.05 283.4L331.7 294.55L326.95 297.95M589.3,210.45L580.6 208.3L578.85 209.55L574.7 208.5L579.1 205.35L591.95 208.55L589.3 210.45M504.7,228.6L513.5 230.8L511.25 232.4L502.5 230.2L504.7 228.6M267.05,88.35L274.85 90.3L277.4 88.45L276.15 88.15L275.5 88.6L269 87L267.05 88.35M275.3,88.25L269.3 86.75L271.95 84.85L284.3 83.55L277.7 88.25L275.95 87.8L275.3 88.25M287.1,91.25L295.4 93.3L293.2 94.9L284.9 92.8L287.1 91.25M200.7,161.2L211.35 153.6L243.35 161.6L247.55 168.35L236.2 169.6L230.85 173.35L234.35 179.2L229.55 182.6L225.7 181.65L219.45 186.1L223.4 187.05L219.2 190.05L215 189L209.35 193.05L213.65 194.1L212.25 195.1L188.35 189.15L179.15 174.55L182.8 174.15L180.5 170.15L195.05 159.8L200.7 161.2M166.8,178.5L174.65 177.65L180.65 186.85L172.85 187.7L174.35 190L161.3 191.45L156.5 194.85L161.25 202.1L158.9 201.6L139.75 203.6L116.2 210.1L113.9 211.7L110.3 212.1L106.6 211.15L105.15 208.95L91.45 210.45L90 208.25L103.7 206.75L91.35 188L77.9 189.45L76.5 187.25L84.6 186.35L78.55 177.15L102.65 174.5L100.3 170.95L106.35 170.25L109.95 175.8L138.5 172.65L142.7 179.1L165.55 176.6L166.8 178.5M187.9,189.55L211.95 195.55L210.4 196.65L183.8 199.5L177.3 189.55L187.15 188.45L187.9 189.55M217.75,193.45L214.05 193.95L210.15 192.95L215.2 189.35L219.05 190.3L220.05 191.85L217.75 193.45M230.45,184.1L227.05 186.55L223.85 186.9L220.25 186L225.9 181.95L229.4 182.85L230.45 184.1M307.25,117.65L301.35 121.85L260.1 111.6L270.35 104.35L320.35 116.4L307.25 117.65M295.35,135.5L292.05 129.85L305.65 128.45L315.05 130.8L321.8 141.5L297.05 135.3L295.35 135.5M296.95,135.55L322 141.8L324.15 145.2L322.25 146.6L298.8 140.75L295.5 135.7L296.95 135.55M298.3,140.9L321.95 146.8L319.9 148.3L313.7 149.25L296.95 145.05L292.05 137.8L296 137.35L298.3 140.9M296.55,145.35L313.55 149.6L298.9 160.1L282.3 155.95L254.05 158.95L225.45 151.8L261 126.6L288.4 133.4L296.55 145.35M304.7,127.65L290.8 129.1L249.9 118.85L259.8 111.8L301.2 122.1L304.7 127.65M264.85,164.75L278.05 167.95L294.45 166.35M277.25,168L257.65 169.95L264.75 164.85L277.25 168M262.35,176.15L269.25 175.45L273.65 181.85L266.2 182.8L264.7 183.9L259.15 182.55L257.35 179.7L262.35 176.15M251.8,187.7L253.6 186.45L254.95 186.25L259.65 187.4L256.75 189.45L252.05 188.3L251.8 187.7M251.75,188.5L256.45 189.7L252.7 192.35L251.1 191.95L249.8 192.9L246.7 192.1L246.45 191.5L250.4 188.7L251.75 188.5M276.5,174.7L283.6 173.9L286.15 177.85L284.8 178.5L286 180.5L280.65 181.05L276.5 174.7M280.1,181.1L274.35 181.7L270.3 175.35L275.95 174.75L280.1 181.1M284.15,173.85L290.9 173.15L294.55 179L289.85 177.85L286.45 180.3L285.45 178.55L286.8 177.95L284.15 173.85M316.8,173.95L314.75 170.95L332.2 169.1L322.85 175.8L321.95 175.95L318.5 175.1L319.25 174.55L316.8 173.95M314.95,175.95L313.65 176.85L314.85 177.2L312.35 179L304.25 176.95L301.3 172.35L314.2 171L316.3 174.1L318.45 174.65L316.2 176.25L314.95 175.95M161.65,191.5L176.95 189.8L183.45 199.75L161.9 202.05L157.1 194.75L161.65 191.5M142.1,215.7L140.95 213.95L145.25 210.9L164.9 208.85L165.75 209.05L167.65 211.95L153.95 213.35L154.25 214.4L142.1 215.7M131,216.9L141.55 215.75L140.35 214.1L132.5 214.95L130.85 216.6L131 216.9M238.55,200.95L240.15 201.35L236.9 203.65L231.4 202.25L234.95 199.75L236.3 199.55L239.4 200.3L238.55 200.95M231.5,215.05L223.75 213.15L220.65 215.35L215.25 214L211.15 216.95L209.45 216.5L214.6 212.85L210.3 206.1L212.95 204.2L214.6 204.65L217 204.4L221.85 205.65L224.6 205.25L243.35 209.95L236.3 214.95L232.85 214.1L231.5 215.05M209.7,206.05L214 212.8L208.95 216.4L203.55 215.05L206.65 212.8L201.9 205.4L212.25 204.25L209.7 206.05M199.1,207.45L199.85 208.65L194.95 209.15L193.25 206.35L199 205.75L200.05 207.35L199.1 207.45M195.9,209.3L197.75 212.45L196.5 213.3L190.35 211.75L187.5 207.4L188.35 206.85L192.7 206.4L194.5 209.45L195.9 209.3M184.15,207.3L185.5 209.05L183.7 209.25L184.2 210.2L177.5 210.9L175.4 207.75L176.15 207.7L177.6 208L178.25 207.55L183.05 207.1L184.15 207.3M167.05,208.65L174.85 207.8L176.95 210.95L168.2 211.85L166.3 209L167.05 208.65" />
<path style="fill:none;stroke-width:0.25;stroke-linecap:round;stroke-linejoin:round;stroke-miterlimit:3;stroke:#666666;stroke-opacity:1" d="M531.15,173.65L534.2 174.4L531 176.75L527.9 175.95L531.15 173.65M635.95,115.75L633.05 115L629.85 117.25L632.85 118.05L635.95 115.75M605.9,121.2L609.3 118.9L606.4 118.35L603.2 120.55L605.9 121.2M572.55,143.55L575.45 144.3L572.35 146.85L569.15 145.75L572.55 143.55M605.25,186.25L597.9 184.35L592.55 188.25M332.9,146.6L334.95 150.15L331.3 150.3L329.4 146.5L332.9 146.6M432.5,188L428.05 186.95L430.5 185.15L434.6 186.25L432.5 188M448.1,214.15L443.95 213.15L446.2 211.45L450.4 212.5L448.1 214.15M399.3,249.6L396.95 251.35L392.8 250.35L395.15 248.55L399.3 249.6M241.7,195.85L246.05 197.15M276.85,161.95L272.4 160.85L270.85 160.45L268.2 162.4M265.4,164.35L264.85 164.75M294.45,166.35L290.05 165.2" />
<path style="fill:none;stroke-width:0.25;stroke-linecap:round;stroke-linejoin:round;stroke-miterlimit:3;stroke:#666666;stroke-opacity:1" d="M558.3,160.65L637.25 180.3L625.35 188.75L622.6 188.1L621.85 188.65L610.35 185.8L608.55 187.05L605.25 186.25M368.4,243.9L360.8 249.35L349.1 246.4L345.55 248.9L371.25 255.35L372.65 255.15L370.5 252L376 248.1L381.3 247.55L381.05 247.05L381.45 247.8L376.35 248.35L371.15 252.05L373.35 255.3L372.85 255.4M357.2,293L392.75 301.85L389.15 304.4" />
<path style="fill:none;stroke-width:0.25;stroke-linecap:round;stroke-linejoin:round;stroke-miterlimit:3;stroke:#666666;stroke-opacity:1" d="M605.25,186.25L599.85 190.05L592.55 188.25M467.25,210.25L475.7 223.8L501.7 230.3L495.8 234.45L522.25 241.05L510.2 249.7L502.3 247.75L503.85 246.6L433.15 229L446.5 219.5L450.55 220.5L464.1 210.85L460.35 209.9L466.45 209.15L467.25 210.25L464.1 210.85M372.85,255.4L375.9 259.95L371.2 260.4L369 261.95L352.3 257.8L353.9 256.65L339.7 253.1L345.25 249.15L346.1 249.35L346.9 249.55L371.2 255.6L371.6 255.55L372.8 255.35L372.85 255.4L371.6 255.55M389.15,304.4L384.8 307.5L377.65 305.75M389.15,304.4L381.8 302.55L377.65 305.75M241.7,195.85L241.4 195.1L245.05 192.5L246.4 192.3L251.1 193.5L246.05 197.15L242.3 199.8L240.7 199.4L239.75 200.05L236.55 199.25L236.35 198.75L240 196.1L241.7 195.85M268.2,162.4L270.9 160.5L272.4 160.85M268.2,162.4L265.4 164.35L257.45 169.9L250.65 168.3L246.3 161.7L255.5 160.7L254.35 159.1L282 156.2L298.1 160.5L298.15 160.5L299.5 162.65L294.7 166.3L290.05 165.2" />
<path style="fill:none;stroke-width:0.25;stroke-linecap:butt;stroke-linejoin:round;stroke-miterlimit:3;stroke:#666666;stroke-opacity:1" d="M592.55,188.25L538.5 174.75L558.3 160.65M346.1,249.35L344.75 249L348.85 246.05L360.6 249L367.9 243.8L368.4 243.9M377.65,305.75L353.55 299.7L352.5 296.35L357.2 293M290.05,165.2L276.85 161.95" />
<path style="fill:none;stroke-width:0.25;stroke-linecap:butt;stroke-linejoin:round;stroke-miterlimit:3;stroke:#666666;stroke-opacity:1" d="M456.2,189L475.65 175.15" />
</g>
</svg>
