<?xml version="1.0" encoding="utf-8"?>
<svg version="1.1" id="Layer_1"
xmlns="http://www.w3.org/2000/svg"
xmlns:xlink="http://www.w3.org/1999/xlink"
xmlns:author="http://www.sothink.com"
width="1055px" height="495px"
xml:space="preserve">
<g id="28" transform="matrix(1, 0, 0, 1, -13.95, -97.1)">
<path style="fill:#97999B;fill-opacity:1" d="M625,368L625.4 368.05L625.7 368.6L625.7 368.15L631.95 369.95L642.4 368.85L642.4 369L687.05 364.3L703.6 352.45L703.6 351.4L700.1 351.65L697.15 350.95L697.15 342.8L768.5 293.5L893.15 323.2L893.1 331.35L869.65 348.15L842.2 341.25L833.85 347.3L802.25 339.4L798.9 341.8L798.9 345.7L791.8 350.8L759.25 342.65L753.85 346.5L753.85 347.1L752.95 347.2L772.95 352.2L772.95 355.1L801.45 362.2L801.55 362.2L821.65 367.2L826.5 363.75L840.95 367.35L840.95 368.4L856.65 372.3L858.2 374.8L858.15 379.25L861.6 384.65L865.9 385.75L867.45 388.15L867.35 396.3L816.3 432.8L808.9 433.5L805.05 432.55L802.55 428.65L787.55 430.2L787.55 434.5L784.1 436.95L775.05 437.85L745.1 430.45L745.2 425.9L714.95 418.3L713.45 419.4L713.4 426.35L693.6 440.45L679.8 437L679.8 434.65L652.75 427.95L652.75 429.9L624.75 449.8L597.5 443L597.4 450.3L583.4 460.35L578 459.05L568.25 466L578.5 468.5L578.4 476.65L514 522.6L510.5 521.65L497.6 530.85L492.35 529.55L494.4 532.65L494.3 540.8L464 562.45L464 570.6L444.7 584.35L436.3 582.2L422.65 592L401.05 586.6L393.95 591.75L346.2 579.9L346.3 572.9L334.1 569.95L326.95 575.05L279.2 563.15L279.3 556.25L247.65 548.4L247.7 540.25L266.85 526.55L258.9 524.55L258.95 516.4L276.8 503.65L293.2 507.75L323.15 486.4L336.35 489.7L357.85 474.3L330.95 467.55L330.95 459.45L372.75 429.6L425.55 442.8L425.6 437.3L434.75 430.75L435.55 431L436 431.05L436 430.6L439.6 428.1L435.15 426.9L426.85 432.85L416.05 430.2L416.05 422.25L401.2 418.5L397.45 421.2L379.1 416.6L379.1 413L373.25 411.5L366.3 416.55L351.05 412.7L351.1 404.55L357.2 400.2L352.6 399.1L352.6 390.95L394.2 361.35L407.15 364.55L422.55 353.6L491.95 370.9L507.15 360.1L405.35 334.7L405.45 329.95L400.3 328.6L400.3 324.9L399.05 325.15L393.15 323.65L390.35 325.65L389.25 325.4L389.2 326.5L384.35 329.95L370.6 326.5L365.75 318.85L365.75 310.7L432.15 303.65L438.65 305.3L438.65 303.05L442.4 300.4L439.45 295.7L439.5 292.35L437.55 292.5L411.95 251.9L412 243.8L417.55 239.8L415.85 237.05L415.6 237.05L415.6 236.75L415.55 236.6L415.6 228.5L416.15 228.65L464.05 194.4L468.5 195.5L468.5 193.6L458.25 191.25L458.25 180.95L470.4 183.75L479.5 177.3L479.4 186.75L478.5 187.45L493.45 185.9L500.8 180.65L496.9 174.55L496.65 174.25L494.4 170.65L494.45 164.4L473.75 159.15L473.75 161.35L458.05 172.6L449.35 173.45L413.35 164.55L406.75 154.15L406.85 146L416.6 139L418.9 139.55L418.9 137.35L459.2 108.65L459.6 108.25L468.75 101.8L471.35 102.5L471.35 100L475.4 97.1L654 141.55L654 149.7L614.75 177.65L566.75 165.8L549.55 178.05L548 177.65L548 179.85L544.55 182.3L549.1 183.45L549.1 191.6L524.65 208.95L513.55 206.2L509 209.4L502.9 207.9L503 204.25L500.5 203.6L496.65 206.35L492.65 205.35L492.65 208.45L518 214.8L518 222.95L501.25 234.8L495 233.25L470.45 250.75L467.4 249.95L467.4 250.2L473.45 251.7L473.35 259.8L472.5 260.45L478.05 261.75L478 269.9L455.55 285.9L463.9 285.05L493.9 263.65L535.65 274.05L535.6 282.15L527.9 287.65L532.05 288.75L548.15 277.15L580.15 285.15L588.95 278.9L606.4 283.2L606.3 291.3L595.3 299.2L595.7 299.35L612.15 303.45L612.1 308.05L636.3 314.15L643.85 308.75L638.05 307.35L638.1 303.05L629.15 300.75L629.15 292.65L657.2 272.65L680.8 278.6L680.8 275.2L685.1 272.15L591.05 248.8L591.15 240.65L662.6 189.65L721.2 204.25L725.25 201.45L748.7 207.2L748.7 211.15L771.3 216.75L771.25 224.9L768.55 226.75L774.25 228.15L793.75 214.35L774.2 209.5L774.25 201.35L790.35 189.8L718.4 171.9L718.45 163.75L738.7 149.2L754.65 153.2L762.55 147.6L762.65 142.4L769.9 137.25L775.2 138.6L832.1 97.95L1068.8 156.9L1068.7 165L1032.75 190.65L1037.8 197.2L1037.75 205.4L1008.85 207.75L970.9 234.8L957.1 231.35L957.8 232.45L957.8 240.6L947.4 241.75L894.85 228.7L892.05 224.25L892.15 216.15L893.1 215.4L881.6 212.55L874.15 213.45L872.2 210.2L852.3 205.25L852.3 207.2L834.55 219.9L837.65 224.65L837.6 232.8L790.7 266.25L778.2 267.5L775.7 266.85L773.1 268.75L773.8 270.2L773.75 278.35L757.1 290.15L754.2 289.45L754.2 292.25L683.4 342.8L673.6 343.85L666.25 341.8L635 345.25L632.95 344.8L613.8 346.75L555.8 332.25L553.1 328.6L553.15 325.4L526.45 318.75L508.85 320.55L502.05 318.9L501.35 318.65L454.55 307.05L454.55 309.3L499.1 320.4L503 327.05L520.95 331.5L539.15 329.7L539.9 329.9L539.9 327.1L547.75 329.2L551.35 326.55L551.35 331.15L548.35 333.45L547.3 333L547.3 339.85L533.15 349.95L535.25 350.4L550.1 339.85L552.55 340.4L560.2 334.95L603.95 345.85L608.25 350.95L608.2 359.1L605.75 360.8L605.75 365.8L578.9 385.05L576.4 384.4L576.4 386.85L508.55 435.15L492.9 436.95L492.75 436.95L484.05 437.85L479.7 441L486.55 451.15L486.5 459.35L482.65 462.1L479.45 461.3L479.45 464.35L416.05 509.55L447.25 517.35L445.85 512.8L445.95 504.7L465.3 490.85L464.85 490.15L464.6 490.05L464.6 489.75L464.55 489.6L464.6 481.5L465.15 481.65L481.5 470L481.95 469.6L508.05 451L516.05 452.95L516.05 445.3L522.7 440.6L523.15 440.2L525.95 438.25L525.95 432.25L533.7 426.75L534.15 426.35L569.75 401.05L571.7 401.5L571.75 399.65L600.15 379.4L600.55 379L613.25 370L613.25 369.55L614.05 369.5L614.2 369.3L614.35 369.4L624.6 368.15L624.6 367.85L625 368M1027.8,185.4L1059.1 163.05L832.4 106.55L775.45 147.2L770.15 145.85L769.1 146.65L769.05 151.75L754.9 161.9L739 157.9L728.1 165.7L873.05 201.85L874.85 204.85L881.75 204L970.6 226.2L1008.35 199.25L1008.5 199.25L1030.7 197.45L1027.75 193.55L1027.8 185.4M795.55,221.9L828.85 230.2L832.95 227.25L831.7 225.2L801.45 217.7L795.55 221.9M770.35,235.75L759.65 233.1L752.4 238.35L754.65 241.75L797.55 252.45L804.35 247.65L770.35 239.1L770.35 235.75M743.4,214.5L725.5 210.05L721.5 212.9L662.9 198.3L600.75 242.6L714.1 270.85L717.3 268.55L717.6 268.4L725.95 262.4L762.55 271.55L765.05 275.7L769.5 272.5L767.45 272L767.45 263.9L775.35 258.25L778.35 258.95L786.1 258.2L753.8 250.15L747.7 240.9L747.7 232.8L761.6 222.95L743.4 218.4L743.4 214.5M734.1,275.85L756.85 281.55L759.8 279.45L734.1 273.05L734.1 275.85M666.2,287.9L652.8 284.6L638.85 294.6L646.95 296.65L658.7 288.2L724.5 304.6L731.35 299.75L670.8 284.6L666.2 287.9M710.25,342.3L727.15 340.85L716.1 338.15L710.25 342.3M656.5,331L658.5 334.3L666.55 333.45L673.85 335.3L682.85 334.3L691.5 328.15L664.4 321.4L664.3 325.45L656.5 331M654.7,323.45L646.95 321.55L646.95 324.85L635.95 332.65L638.35 336.4L652.8 334.95L651.95 333.5L652.05 325.4L654.7 323.45M687.5,372.75L632.8 378.45L632.1 378.3L640.25 391.15L680.55 401.2L684.45 398.4L699.7 402.2L699.65 410.1L710.4 412.8L714.7 409.75L751.15 418.8L751.15 423.35L775.3 429.35L783.6 428.5L783.95 428.25L783.95 422.1L803.25 420.05L805.85 424.2L809.05 424.95L815.8 424.25L860.4 392.45L855.15 384.25L855.25 380.5L838.6 376.35L838.6 375.4L826.7 372.45L817.35 379.15L803.75 375.75L801 377.7L792.9 375.65L792.95 368.6L768.65 362.6L768.65 361.05L754.1 357.45L751.7 359.15L698.85 364.7L687.5 372.75M746,316.8L833.5 338.6L841.95 332.65L847.1 333.9L849.95 331.95L867.9 336.4L869.1 335.55L873.4 336.55L883.45 329.4L768.5 300.75L746 316.8M949.6,233L925.75 227.05L924.95 227.6L947.55 233.25L949.6 233M916.5,224.75L912 223.65L911.2 224.2L915.75 225.25L916.5 224.75M827.2,202.05L796.3 194.4L783.9 203.3L830 214.8L830 214.25L845.15 203.45L830.4 199.8L827.2 202.05M703.8,424.4L670.85 416.2L670.85 408L671.65 407.55L639.35 399.5L624.9 376.6L621.25 377.05L621.25 379.25L600.05 394.35L593.75 392.75L581.4 401.6L683.45 427L683.45 429.35L693.4 431.85L703.8 424.4M690.25,412.15L680.8 409.8L680.55 410.05L690.25 412.45L690.25 412.15M494.95,193.7L508.05 196.9L508 200.55L508.75 200.8L513.3 197.55L524.4 200.35L530.9 195.75L502.15 188.55L494.95 193.7M505.9,179.1L505.9 180.9L534.85 188.15L534.95 180.35L538.4 177.9L510.4 170.95L506.75 173.55L502.65 174L505.9 179.1M566.55,157.1L614.45 169.1L644.3 147.75L483.05 107.55L483.05 110.6L480.1 112.7L480.1 115.25L473.05 120.25L470.15 119.5L470.15 122.25L459.45 129.9L458.75 129.75L458.75 130.4L448.75 137.6L436.55 134.45L436.45 141.35L549.25 169.45L566.55 157.1M462.4,119L458.45 118.05L455.25 120.3L459.2 121.25L462.4 119M449.15,128.45L445.25 127.4L444.5 127.9L448.5 128.9L449.15 128.45M417.7,157.05L427.25 150.25L416.95 147.65L411.3 151.65L414.2 156.1L417.7 157.05M426.85,159.3L449.55 164.95L457.5 164.15L464.15 159.4L436.4 152.5L426.85 159.3M434.2,248.8L421.7 245.65L416.45 249.4L419.9 254.9L426.6 254.2L434.2 248.8M433.8,259.8L441.15 254.6L439.2 254.05L430.75 260.15L433.8 259.8M438.2,283.95L447.25 282.95L468.35 267.95L462.8 266.55L462.9 263.8L462.25 264.25L462.25 267.65L441.65 282.35L437.5 282.8L438.2 283.95M431.85,273.9L432.5 274.85L441.1 273.9L457.6 262.15L457.6 258.8L461.1 256.2L460.3 256.05L435.95 273.5L431.85 273.9M450,295L445.45 295.45L446 296.3L447.55 296.7L450 295M386.9,316.95L372.7 318.45L384.1 321.35L386.05 319.9L386.15 317.95L387.15 317.25L386.9 316.95M401.75,315.4L396.7 315.95L399.1 316.55L400.5 316.35L401.75 315.4M366.9,394.1L366.85 402.2L360.75 406.5L366.05 407.85L373 402.85L384.2 405.65L384.2 409.35L397.15 412.55L401 409.9L425.7 416L425.6 423.95L426.55 424.25L434.9 418.3L458.85 424.25L467.8 417.85L467.8 414.75L480.95 405.35L523.15 415.9L544.7 400.5L498.2 388.85L498.3 380.75L514.1 369.5L508.3 368.05L492.3 379.55L422.85 362.2L407.5 373.25L394.4 369.95L362.3 392.9L366.9 394.1M446.85,315.95L425.6 331.2L428.75 331.95L450.05 316.7L446.85 315.95M461.1,340L482.45 324.85L477.45 323.6L456.1 338.75L461.1 340M478.05,344.25L498.7 329.55L498.3 328.75L491.55 327.1L470.3 342.3L478.05 344.25M468.05,301.85L505.5 275.15L494.15 272.3L456.7 299L468.05 301.85M459.2,319.05L437.9 334.25L446.95 336.5L468.2 321.25L459.2 319.05M436.4,313.35L415.3 328.45L415.05 328.5L416.4 328.9L437.7 313.65L436.4 313.35M416.3,313.9L409.8 318.5L415 319.75L424.45 313.05L416.3 313.9M580.35,293.8L548.4 285.85L512.15 311.7L526.65 310.25L557 317.75L596.7 289.35L589.2 287.5L580.35 293.8M519,294.05L497.65 309.2L501.8 310.25L523.15 295.05L519 294.05M514.65,277.4L477.2 304.15L488.55 306.95L525.95 280.2L514.65 277.4M560.5,343.6L552.75 349.1L550.45 348.45L536.05 358.7L542.2 360.25L564.25 344.55L560.5 343.6M502.65,335.55L487.3 346.55L496.35 348.85L511.8 337.8L502.65 335.55M525.05,371.05L525.05 373.15L525.5 373.3L529.7 370.25L537.3 372.15L541.5 369.15L543.45 369.65L543.45 368.2L542.55 368.95L523.7 364.25L523.7 370.65L525.05 371.05M523.45,354.3L523.55 347.9L536.85 338.45L521.1 340L505.55 351.1L522.15 355.25L523.45 354.3M521.5,380.9L521.5 378.7L515.55 377.2L507.85 382.75L553.65 394.15L562.85 387.6L546.5 383.55L545.05 384.55L528 380.35L525.8 381.9L521.5 380.9M614.05,338.2L632.2 336.35L631.4 335.15L631.5 327.05L637.25 322.9L629.85 321.1L607.95 336.75L614.05 338.2M579.9,329.7L598.75 334.4L620.7 318.85L601.8 314.05L579.9 329.7M590.35,309L588 310.6L581.55 309.05L559.65 324.7L570.75 327.45L592.65 311.8L590.35 311.25L590.35 309M602.8,354.15L595.35 352.3L593.35 353.7L583.65 354.7L588.1 355.8L602.65 354.25L602.8 354.15M590.85,364L594.6 364.95L596.8 363.4L590.85 364M574.65,347.1L573.5 346.8L572.8 347.3L574.65 347.1M293.5,516.4L277.1 512.25L268.5 518.35L276.55 520.4L276.5 528.55L257.35 542.2L287.65 549.8L287.65 556.65L326.65 566.45L333.85 561.3L354.65 566.5L354.65 573.4L393.65 583.1L400.85 578L422.35 583.3L436 573.65L444.45 575.65L454.3 568.6L454.35 560.5L488.45 536.2L323.4 495.1L293.5 516.4M643.1,427.85L570.05 409.65L566.6 412.05L639.7 430.3L643.1 427.85M630.8,436.7L557.7 418.5L555.8 419.8L584.05 426.85L584.05 431.05L624.5 441.15L630.8 436.7M507.15,426.85L508.05 426.7L508.4 426.45L506.75 426.05L507.15 426.85M491.1,471.95L551.5 487.05L556.15 483.75L495.7 468.65L491.1 471.95M525.8,505.3L469.85 491.3L469.85 493.3L523.85 506.7L525.8 505.3M514.95,513.05L464.3 500.45L463.05 501.35L513.75 513.9L514.95 513.05M501.25,519.4L454.15 507.65L450.25 510.45L497.35 522.2L501.25 519.4M542.6,493.35L482.2 478.25L474.3 483.9L534.7 499L542.6 493.35M475.3,418.25L472.2 420.45L472.2 421.7L476.65 418.55L475.3 418.25M449.05,445.05L472.65 451L475.45 449.05L435.55 439.1L435.2 439.25L449.05 442.7L449.05 445.05M442.65,481.8L345.8 457.65L340.55 461.4L437.4 485.55L442.65 481.8M456.55,471.85L359.7 447.7L354.7 451.3L451.5 475.45L456.55 471.85M469.85,462.4L373 438.25L368.65 441.4L465.45 465.55L469.85 462.4M361.35,480.7L422.7 496L428.5 491.85L367.05 476.55L361.35 480.7" />
<path style="fill:none;stroke-width:0.25;stroke-linecap:round;stroke-linejoin:round;stroke-miterlimit:3;stroke:#B5B5B5;stroke-opacity:1" d="M625,368L624.6 367.85" />
<path style="fill:#97999B;fill-opacity:1" d="M942.15,261.1L936.2 265.35L921.6 261.65L921.7 258.7L917.55 257.6L917.45 260.3L905.6 268.85L934.4 276.05L934.4 284.15L923.1 292.3L895.95 285.5L895.95 289.55L874.65 304.7L874.55 311.15L871.5 313.3L866.9 313.65L780.75 292.15L780.85 284L789.05 278.15L798.95 277.05L811.5 268.2L811.55 260.3L812.1 260.5L827.6 249.4L832.05 250.55L832.05 246.25L853.85 230.7L877.35 228.2L935.85 242.75L942.25 253L942.15 261.1M936,256.65L937.7 255.4L934.95 251.2L904 243.45Q902.85 244.3 901.65 245.1L926.05 251.2L926.05 254.15L936 256.65M924.8,282.2L827.8 258.05L821.25 262.75L880.9 277.6L885.5 274.3L922.85 283.6L924.8 282.2M793.4,286.2L791.85 286.35L793.4 286.75L793.4 286.2M815.85,273.9L801.95 283.75L856.6 297.45L861.2 294.15L873 297.05L886.35 287.5L815.85 270L815.85 273.9M892.45,242.8L894.8 241.1L877.2 236.7L861.9 238.35L886.45 244.45L889.7 242.1L892.45 242.8M848.2,243.5L841.65 248.2L901.3 263.05L907.85 258.35L848.2 243.5" />
<path style="fill:#97999B;fill-opacity:1" d="M398.8,178.55L404.75 174.25L404.45 174.2L341.45 181L334.65 185.85L340.4 187.3L344.25 184.5L358.85 188.2L358.8 191.85L367.95 194.2L392.15 176.95L398.8 178.55M360.8,200.9L312.05 188.8L312.1 180.7L320.4 174.75L404.6 165.65L414.45 168.2L414.45 173.25L419.85 169.35L438.25 173.95L442.8 181.05L447.65 182.3L450.05 186.25L450.05 194.35L403.65 227.5L397.1 225.85L397 232.8L376.7 234.75L371.05 238.75L373.25 242.2L373.25 242.95L388.4 246.8L402.85 269.65L402.8 277.75L395.75 282.85L385.65 284.3L364.8 299.25L364.7 305.25L357.2 310.65L298.85 316.75L286.55 313.7L283.85 309.5L283.85 314L265.4 315.95L261 319.1L263.1 322.6L263.05 330.75L257 335.05L257 338.4L251.3 342.45L245.9 343.1L240.7 346.75L240.7 350.5L236.8 353.25L230.6 354.1L225.3 357.95L148.95 366L148.95 366.25L148.2 366.05L147.9 366.15L147.85 366L143.75 365.15L114.3 368.2L77.7 378.35L74.15 380.85L67.8 381.55L61.3 379.9L59.2 376.7L37.8 379.05L35.05 374.9L35.15 366.8L51.45 365L37.7 343.9L16.7 346.2L13.95 342.1L14.05 333.95L21.6 333.1L17.15 326.2L17.25 318.1L51.15 314.4L51.25 308.4L62.4 307.2L68.05 315.8L112.65 310.95L119.25 321L154.95 317.05L156.9 320.05L169.15 318.7L179 333.8L179 337.3L183.4 336.75L174.7 323.1L174.8 314.95L177 314.7L177.05 308.3L200.35 291.65L209.25 293.95L225.9 282.05L247.25 287.35L247.35 279.7L301.95 240.7L285.15 236.5L285.25 228.35L318.15 205L352.75 213.6L352.75 206.65L360.8 200.9M375.75,197.5L368.3 202.7L411.05 213.35L419.5 207.35L383.65 198.4L375.65 204.15L375.75 197.5M384.1,198.1L420 207L426.8 202.15L391 193.2L384.1 198.1M310.95,218.9L366.9 232.9L374.35 227.6L318.45 213.65L310.95 218.9M335.35,286.2L361.6 292.75L376.35 282.15L358.55 277.75L345.95 259.05L303.45 248.45L256.95 281.65L292.8 290.65L335.35 286.2M277.4,295.35L280.15 299.85L280.25 296.05L277.4 295.35M295.4,298.85L295.4 302.45L286.15 303.45L287.35 305.35L298.5 308.1L309.95 299.95L330.2 304.95L356.65 302.2L358.85 300.65L335.1 294.7L295.4 298.85M294.85,230.3L350.4 244.2L367.3 242.45L366.6 241.4L301.95 225.3L294.85 230.3M372.85,251.5L356.2 253.2L356.85 254.4L359.5 254.05L392 262.2L387.6 255.15L372.85 251.5M352.9,257.45L350.5 253.45L350.5 252.65L350.25 252.75L347.7 252.1L351.45 257.6L352.9 257.45M356.75,265.55L359.35 269.3L360.5 269.65L357.75 265.4L356.75 265.55M265.05,307.55L278.05 306.15L276.15 303.15L226.15 290.65L209.5 302.55L200.65 300.35L181.35 314.1L181.6 314.65L181.6 322.75L180.65 322.85L190.25 338.1L223.1 346.3L223.1 344.2L231.95 337.85L238.5 339.5L238.8 339.25L238.9 333.3L248.65 326.35L254.7 327.85L258.65 324.95L256.65 321.5L256.7 313.4L264.9 307.55L265.05 307.55M154.25,325.65L118.5 329.55L111.95 319.5L67.35 324.4L61.7 315.75L55.9 316.35L55.9 322.4L23.25 326L27.8 332.8L27.7 336.45L38.35 335.35L57.65 364.65L57.65 368.35L59.9 368.1L62.15 371.55L67.95 373.05L73.6 372.4L77.2 369.9L114 359.75L141.8 356.85L140.1 354.2L140.15 346.05L147.7 340.75L165.75 338.7L165.75 334.9L172.9 334.1L168.45 327.3L156.2 328.65L154.25 325.65M177.15,354.35L172.05 346.55L148.2 349.2L144.7 351.6L148.6 357.55L177.3 354.5L177.15 354.35M188.3,344.75L177.9 345.9L183.15 353.9L208.4 351.2L189.5 346.45L188.3 344.75M440,186.25L429.85 186.45L441.95 189.5L440 186.25" />
<path style="fill:#97999B;fill-opacity:1" d="M187.85,365.85L189.5 364.75L207.4 362.85L209.5 366.05L209.4 374.2L209.1 374.3L209.1 376.25L205.75 376.6L205.65 382L203.15 383.8L192.4 381.1L187.75 374.05L187.85 365.85M196.85,372.5L193.65 372.85L197.6 373.8L196.85 372.5" />
<path style="fill:#97999B;fill-opacity:1" d="M173.95,366.55L182.05 365.75L184.4 366.25L187 369.5L186.9 377.65L184.8 377.85L184.8 379.45L137.9 384.3L137.9 386L99.85 390.05L99.45 389.05L99.55 380.9L102.35 378.1L115.25 376.7L122.3 371.7L153.7 368.5L155.25 368.9L156.65 368.25L171.3 366.6L173.15 367.1L173.95 366.55" />
<path style="fill:#97999B;fill-opacity:1" d="M223.5,369.6L216.15 370.35L218.7 374.35L218.65 379.05L222.3 380L226.6 376.95L223.4 372L223.5 369.6M231.3,361.25L235.05 360.85L242.65 362.8L246.85 362.15L256.3 364.5L256.4 358.75L262.5 354.35L264.35 354.05L264.35 353L270.45 348.7L272.25 348.4L272.35 347.4L278.35 343L280.15 342.8L280.25 341.7L286.7 337.1L288.5 336.85L288.5 335.75L291.65 333.55L294.45 333.15L299.4 334.35L297.65 331.7L297.75 323.55L305.8 317.85L316.5 316.7L317.5 318.3L317.5 316.6L351.1 313.1L357.45 323.3L357.45 331.45L349.1 329.35L343.85 333.1L343.85 333.25L343.6 333.25L343.15 333.55L343 333.3L324.3 335.3L323.2 333.7L323.2 335.45L312.45 336.55L309.6 338.55L302.9 336.9L302.9 343.4L291.1 351.75L289.55 351.4L289.55 352.85L274.9 363.35L272.4 362.7L272.4 365.15L268.9 367.65L277.25 369.75L277.25 377.85L265.3 386.4L259.9 385.05L257.8 386.55L245.7 383.5L240.85 387L232.4 384.9L226 389.45L212.55 386.1L212.65 377.95L214.1 376.95L210.15 370.6L210.2 362.5L228.1 360.5L228.25 360.45L228.5 360.5L229.35 360.35L229.35 360.7L231.3 361.25M231.15,376.95L232.15 376.25L240.6 378.35L245.45 374.9L257.55 377.85L259.7 376.4L265.05 377.7L267.55 375.9L246.8 370.7L242.5 371.3L234.8 369.35L231.05 369.75L228.5 369.1L228 369.45L231.15 374.45L231.15 376.95M339.1,322.85L333.25 323.5L334.65 325.65L340.55 325.05L339.1 322.85M344.1,322.4L344.1 324.1L346.9 322.05L344.1 322.4M317.2,327.55L315.8 325.25L306.35 326.3L303.3 328.4L309.3 329.95L311.95 328.1L317.2 327.55M324.95,326.7L328.7 326.3L327.3 324.1L323.55 324.5L324.95 326.7" />
<path style="fill:#97999B;fill-opacity:1" d="M419.35,276.45L419.35 281.3L413.4 281.3L413.4 276.45L419.35 276.45" />
<path style="fill:#97999B;fill-opacity:1" d="M413.45,276.35L413.45 281.45L410.4 275.35L410.4 270.25L413.45 276.35" />
<path style="fill:#97999B;fill-opacity:1" d="M575.5,332.6L575.5 337.2L572 340.1L572 335.5L575.5 332.6" />
<path style="fill:#97999B;fill-opacity:1" d="M564.8,333.8L572 335.75L572 339.9L564.8 337.95L564.8 333.8" />
<path style="fill:#97999B;fill-opacity:1" d="M599.75,378.75L596.05 381.3L596.05 377.15L599.75 374.55L599.75 378.75" />
<path style="fill:#97999B;fill-opacity:1" d="M596.1,381.35L589.35 379.7L589.35 375.55L596.1 377.25L596.1 381.35" />
<path style="fill:#97999B;fill-opacity:1" d="M516.15,440.05L516.1 435.25L519.65 432.55L519.65 437.15L516.15 440.05" />
<path style="fill:#97999B;fill-opacity:1" d="M509.55,438.35L509.45 433.6L516.15 435.25L516.25 439.95L509.55 438.35" />
<path style="fill:#97999B;fill-opacity:1" d="M795,273.2L790.3 277.25L790.3 271.9L795.05 268.05L795 273.2" />
<path style="fill:#97999B;fill-opacity:1" d="M790.35,272.05L790.35 277.3L784.95 275.4L784.95 270.15L790.35 272.05" />
<path style="fill:#97999B;fill-opacity:1" d="M889.45,228.45L884.1 232.1L884.1 227.05L889.7 223.3L889.45 228.45" />
<path style="fill:#97999B;fill-opacity:1" d="M884.65,231.75L879.9 230.9L879.9 225.65L884.7 226.65L884.65 231.75" />
<path style="fill:#97999B;fill-opacity:1" d="M848,232.95L842.65 237.15L842.65 231.7L848 228.3L848 232.95" />
<path style="fill:#97999B;fill-opacity:1" d="M842.75,231.9L842.75 237.15L838.3 236.2L838.3 230.95L842.75 231.9" />
<path style="fill:#97999B;fill-opacity:1" d="M730.75,320.05L725.55 323.8L725.55 318.7L730.8 314.9L730.75 320.05" />
<path style="fill:#97999B;fill-opacity:1" d="M725.55,323.85L720.6 322.6L720.6 317.35L725.55 318.6L725.55 323.85" />
</g>
</svg>
