<?xml version="1.0" encoding="utf-8"?>
<svg version="1.1" id="Layer_1"
xmlns="http://www.w3.org/2000/svg"
xmlns:xlink="http://www.w3.org/1999/xlink"
xmlns:author="http://www.sothink.com"
width="544px" height="305px"
xml:space="preserve">
<g id="77" transform="matrix(1, 0, 0, 1, -79.5, -53.85)">
<path style="fill:none;stroke-width:8;stroke-linecap:round;stroke-linejoin:round;stroke-miterlimit:3;stroke:#6A2A4D;stroke-opacity:1" d="M567.5,93.6L534.65 84.5L532.15 86.25L523.55 84.15L523.6 81.75L456.2 61.55L445.25 57.85L418.2 77.1L408.85 79.3L385.8 95.75L311.7 77.3L285.85 95.75L285.8 100.3L314.05 107.35L285.7 127.55L269.35 123.5L269.25 123.5L268.85 123.4L268.65 123.4L267.65 123.2L267.6 123.2L265.95 123.05L265.8 123L263.4 123.1L262.85 123.2L261.35 123.55Q259.25 124.35 258.25 125.7L258.25 125.75L257.85 126.35L257.8 126.5L257.5 127.2L257.5 127.25L257.35 127.7L252.45 159.7L252.45 164.25L279.95 171.1L279.95 174.5L282.9 175.2L261.9 190.2L261.8 190.2L228 214.3L227.95 218.85L258.25 226.4L252.7 230.35L252.45 230.5L249.8 232.4L244.8 231.15L242.25 233L233.95 230.95L228.05 235.15L228.05 237.3L210.05 232.8L207.7 234.5L228 239.6L228 239.7L231.55 240.55L219.9 248.9L211.15 246.75L211.75 246.3L211.8 241.75L190.55 236.45L178.9 244.75L178.9 249.3L185.7 251L172.4 260.5L167 259.15L154.8 267.85L154.8 270.1L152.4 269.55L86.1 316.85L86.1 321.35L87.15 321.65L83.5 324.25L83.5 328.8L85.75 332.4L85.85 332.5L142.2 346.6L151.15 345.65L159.4 339.7L169.4 342.2L169.35 344.6L208.55 354.35L220.5 345.85L220.5 343.35L233.05 334.4L239.15 335.95L330.1 347.45L330.15 347.4L330.15 347.45L330.35 347.5L372.45 317.45L372.45 312.9L364.4 311.75L364.4 308.85L346.45 306.2L333.7 303L333.7 301.6L332 301.15L332 298.35L329.65 297.75L332.8 295.5L332.85 290.95L322.15 288.3L324.2 286.8L324.2 284.65L328.9 285.8L346.05 273.55L346.1 271.45L348.65 272.1L331.5 284.35L331.45 288.9L368.2 297.25L371.75 294.7L371.75 293.4L391.95 278.95L392 274.45L362.55 267.1L397.3 242.3L397.35 237.75L392.8 236.6L396.25 234.15L396.3 229.6L382.4 226.15L421.4 198.3L421.45 194.35L425.55 195.35L437.35 186.95L437.35 182.4L423.35 178.9L424.25 178.25L424.3 175.85L438.15 179.3L446.75 173.15L459.1 176.2L460.6 175.15L468.3 177.05L462.1 181.45L462.1 186L527.5 202.3L531.45 199.5L535.05 200.4L575.6 171.5L575.65 166.95L569.8 165.5L617.4 131.55L617.45 127L611.55 125.5L619.45 119.9L619.45 115.35L616.1 110L567.45 97.85L567.5 93.6z" />
<path style="fill:#999998;fill-opacity:1" d="M502.1,112.3L439.5 156.95L437.35 156.4L297.2 256.35L325.9 263.5L329.15 261.15L357.5 268.25L351.25 272.7L299.35 259.75L290.95 260.85L246.75 292.35L240.25 290.75L236.4 293.5L221.4 295.1L199 311.05L203.35 317.8L197.75 321.8L199.4 322.25L197.95 323.3L214.45 327.4L221.5 322.35L231.7 324.85L224.65 329.95L235.55 332.65L220.15 343.6L214.75 342.25L228.2 332.65L194.9 324.35L169.75 342.3L156.8 339.05L187.4 317.25L182.7 309.85L267.45 249.4L207.7 234.5L210.05 232.8L271.9 247.8L347.45 193.9L325.05 188.3L330.2 184.6L352.45 190.15L414.4 145.95L404.75 143.55L410.35 139.55L406.6 138.6L412.35 134.5L407.6 133.3L438.45 111.3L473 119.9L523.25 84.05L534.7 86.9L503.25 109.35L502.1 112.3" />
<path style="fill:#999998;fill-opacity:1" d="M567.45,97.85L616.1 110L619.45 115.35L619.45 119.9L611.55 125.5L617.45 127L617.4 131.55L569.8 165.5L575.65 166.95L575.6 171.5L535.05 200.4L531.45 199.5L527.5 202.3L462.1 186L462.1 181.45L468.3 177.05L460.6 175.15L459.1 176.2L446.75 173.15L438.15 179.3L424.3 175.85L424.25 178.25L423.35 178.9L437.35 182.4L437.35 186.95L425.55 195.35L421.45 194.35L421.4 198.3L382.4 226.15L396.3 229.6L396.25 234.15L392.8 236.6L397.35 237.75L397.3 242.3L362.55 267.1L392 274.45L391.95 278.95L371.75 293.4L371.75 294.7L368.2 297.25L331.45 288.9L331.5 284.35L352.45 269.35L329.25 263.55L327.95 264.5L346.1 269.05L346.05 273.55L328.9 285.8L324.2 284.65L324.2 286.8L322.15 288.3L332.85 290.95L332.8 295.5L329.65 297.75L332 298.35L332 301.15L333.7 301.6L333.7 303L346.45 306.2L364.4 308.85L364.4 311.75L372.45 312.9L372.45 317.45L330.35 347.5L330.15 347.45L330.15 347.4L330.1 347.45L239.15 335.95L228.5 333.3L228.5 334.9L219.75 341.1L220.5 341.3L220.5 345.85L208.55 354.35L169.35 344.6L169.4 340.05L181.1 331.7L181.35 331.55L194.8 321.95L197.4 322.55L197.4 319.55L201.1 316.95L198.7 313.3L198.75 308.75L221.25 292.7L236.25 291.15L240.2 288.3L246.7 289.95L258.3 281.65L258.55 281.5L290.75 258.45L296.85 257.7L296.9 254.1L315.65 240.7L315.9 240.55L339.65 223.6L339.9 223.45L348.1 217.6L349.85 218L349.85 216.3L353.65 213.6L353.9 213.45L372.15 200.4L372.4 200.25L377.55 196.55L377.8 196.4L413.4 171L415.9 171.6L415.9 169.2L437.25 153.95L439.45 154.5L501.85 109.95L503.05 107.05L534.65 84.5L567.5 93.6L567.45 97.85M615.6,114.65L562.35 101.4L562.4 97L534.75 89.3L503.45 111.65L502.25 114.6L439.6 159.35L437.4 158.8L429.9 164.15L458.95 171.4L460.45 170.3L473.7 173.6L473.65 178.15L467.5 182.55L527.35 197.5L531.3 194.65L534.9 195.55L570.2 170.4L564.4 168.95L564.45 164.4L612.05 130.45L606.15 128.95L606.15 124.4L616.95 116.75L615.6 114.65M441.6,171.85L424.9 167.7L421.3 170.3L438 174.45L441.6 171.85M412.9,176.3L418.25 177.6L418.9 177.15L413.55 175.8L412.9 176.3M416.05,197.2L392 191.2L391.55 191.5L415.6 197.5L416.05 197.2M407.65,180.05L431.7 186L431.95 185.85L407.9 179.85L407.65 180.05M426.7,189.55L402.65 183.6L401.35 184.55L425.35 190.5L426.7 189.55M410.65,201.05L386.6 195.05L382.9 197.65L406.95 203.65L410.65 201.05M315.4,245.85L367.3 258.8L367.95 258.3L316.05 245.35L315.4 245.85M377.5,201.5L401.55 207.5L402 207.2L377.95 201.2L377.5 201.5M359,214.7L362.9 215.7L362.85 219.3L379.3 223.4L384.85 219.45L360.8 213.45L359 214.7M345,224.7L387.65 235.35L390.85 233.05L348.25 222.4L345 224.7M331.55,234.35L361.6 241.85L361.55 246.35L355.8 250.5L372.95 254.75L391.95 241.2L340.05 228.25L331.55 234.35M356.2,245.3L326.55 237.9L321.05 241.8L350.65 249.2L356.2 245.3M396.6,211.05L372.55 205.05L365.8 209.9L389.85 215.9L396.6 211.05M221.55,297.45L201.3 311.85L203.6 315.45L221.45 319.9L225 317.35L235.6 320L235.6 324.55L229.7 328.8L239.4 331.2L330.15 342.7L366.4 316.8L361.35 316.1L361.4 313.15L346.2 310.9L331.55 307.25L331.55 305.85L328.35 305.05L328.35 302.2L324.25 301.2L324.25 296.65L327.45 294.4L316.75 291.75L316.75 287.2L318.85 285.7L316.3 285.1L313.9 286.8L308.7 285.5L298.05 293.1L293.65 292L274.7 305.55L236.35 295.9L221.55 297.45M186.45,332.8L214.65 339.85L223.15 333.8L194.95 326.75L186.45 332.8M174.8,341.15L208.4 349.5L215.1 344.75L214.8 344.65L181.5 336.35L174.8 341.15M221.6,324.75L217.55 327.6L224.3 329.3L224.3 327.7L226.65 326L221.6 324.75M203.45,320.2L201.3 321.7L214.35 324.95L216.45 323.45L203.45 320.2M369.7,289.9L386.6 277.85L357.6 270.65L336.95 285.35L368.05 292.4L369.7 291.25L369.7 289.9M340.75,256.95L314.9 250.5L314.9 252.9L332.15 257.2L340.75 256.95M326.5,260.6L311.7 256.9L311.75 254.5L305.45 252.95L302.25 255.2L325.8 261.1L326.5 260.6M329.35,280.55L282.95 269L279.9 271.15L305.35 277.5L307.8 275.75L328.75 281L329.35 280.55M340.7,272.45L299.3 262.15L291.1 263.2L287.9 265.45L334.3 277L340.7 272.45M290.85,286.35L266.95 280.4L263.65 282.75L287.55 288.7L290.85 286.35M298.8,280.7L274.9 274.7L271.95 276.85L295.8 282.8L298.8 280.7M297.9,288.3L308.45 280.7L307.95 280.6L304.45 283.05L302.9 282.65L295.8 287.75L297.9 288.3M255.7,288.45L279.55 294.4L282.55 292.25L258.7 286.3L255.7 288.45M247.95,294L274.65 300.65L277.45 298.65L250.7 292L247.95 294" />
<path style="fill:#999998;fill-opacity:1" d="M523.55,86.3L473.05 122.3L438.5 113.7L412.9 132L412.65 132.15L412.75 132.2L412.7 136.75L410.7 138.15L410.65 141.8L409.8 142.4L414.75 143.65L414.7 148.2L352.5 192.55L316.3 183.55L316.3 185L317.6 184.05L347.8 191.6L347.75 196.1L271.95 250.2L267.75 249.2L267.75 251.65L216.95 287.85L214.6 287.3L214.55 289.55L184.95 310.7L187.7 314.95L187.65 319.5L151.15 345.65L142.2 346.6L85.85 332.5L85.75 332.4L83.5 328.8L83.5 324.25L87.15 321.65L86.1 321.35L86.1 316.85L152.4 269.55L154.8 270.1L154.8 267.85L167 259.15L172.4 260.5L185.7 251L178.9 249.3L178.9 244.75L190.55 236.45L211.8 241.75L211.75 246.3L211.15 246.75L219.9 248.9L231.55 240.55L228 239.7L228.05 235.15L233.95 230.95L242.25 233L244.8 231.15L249.8 232.4L252.45 230.5L252.7 230.35L258.25 226.4L227.95 218.85L228 214.3L261.8 190.2L261.9 190.2L282.9 175.2L279.95 174.5L279.95 171.1L252.45 164.25L252.45 159.7L257.35 127.7L257.5 127.25L257.5 127.2L257.8 126.5L257.85 126.35L258.25 125.75L258.25 125.7Q259.25 124.35 261.35 123.55L262.85 123.2L263.4 123.1L263.5 123.1L264.5 123L265.8 123L265.95 123.05L267.6 123.2L267.65 123.2L268.65 123.4L268.85 123.4L269.25 123.5L269.35 123.5L285.7 127.55L314.05 107.35L285.8 100.3L285.85 95.75L311.7 77.3L385.8 95.75L408.85 79.3L418.2 77.1L445.25 57.85L456.2 61.55L523.6 81.75L523.55 86.3M445.35,62.7L418.55 81.8L409.15 84L390.9 97.05L420.7 104.45L420.7 104.5L472.9 117.45L518.35 85.05L455.85 66.25L445.35 62.7M433.4,112.45L420.4 109.2L418.85 110.3L431.8 113.55L433.4 112.45M415.3,107.9L311.85 82.1L291.2 96.85L412.75 127.15L426.85 117.1L413.4 113.75L413.45 109.2L415.3 107.9M407.75,130.7L319.2 108.6L285.85 132.4L267.5 127.95L267.3 127.95L267.25 127.9L266.4 127.85L266.25 127.8L264.4 127.75L262.75 127.95L262.65 128L261.65 128.25L259.9 129.15L259.85 129.2L259.3 129.65L259.2 129.75L258.7 130.35L258 131.7L257.75 132.5L253.6 159.75L284.2 167.35L284.15 170.75L352.35 187.75L409.3 147.1L404.35 145.85L404.4 141.3L406.25 140L406.25 136.4L407.3 135.65L407.2 135.6L407.25 131.05L407.75 130.7M301.8,191.05L310.9 184.55L285.6 178.2L267 191.45L326.55 206.3L331.3 202.95L301.75 195.55L301.8 191.05M317.15,189.3L341.8 195.45L342.4 195L317.75 188.85L317.15 189.3M311.6,193.25L336.3 199.4L336.85 199L312.2 192.85L311.6 193.25M255.5,199.6L315.1 214.5L321.6 209.85L261.95 195L255.5 199.6M268.35,224.1L293 230.25L293.65 229.8L269 223.65L268.35 224.1M273.95,220.1L298.65 226.25L299.3 225.8L274.6 219.65L273.95 220.1M257.85,231.6L282.5 237.75L282.75 237.55L258.1 231.4L257.85 231.6M242.35,237.8L234.1 235.75L233.45 236.25L236.85 237.1L238.4 237.05L271.8 245.4L272.35 245L269.5 244.3L269.55 239.75L269.95 239.45L252.85 235.15L249.95 237.25L244.95 236L242.35 237.8M263.1,227.85L287.75 234L288 233.8L263.35 227.65L263.1 227.85M274.9,240.85L277.35 241.45L277.5 241.3L275.1 240.7L274.9 240.85M270,213.7L304.25 222.25L310.15 218.05L250.5 203.15Q241.95 209.3 233.35 215.4L258.75 221.75L270 213.7M184.3,245.85L247.05 261.5L248.1 260.7L205.75 250.15L205.8 245.65L206.4 245.2L190.65 241.3L184.3 245.85M225,250.2L253.05 257.15L262.35 250.55L234.35 243.55L225 250.2M236.05,269.3L184.85 256.55L177.55 261.75L228.75 274.55L236.05 269.3M223.75,278.1L167.15 263.95L160.2 268.9L216.8 283.05L223.75 278.1M209.2,288.5L152.55 274.35L147.95 277.65L204.6 291.75L209.2 288.5M189.85,253L241.05 265.75L242.05 265.05L190.85 252.25L189.85 253M199.6,295.3L143 281.2L139 284.05L195.65 298.15L199.6 295.3M190.65,301.7L134 287.6L130 290.45L186.65 304.55L190.65 301.7M182.45,308.3L125.05 294L116 300.45L183.8 317.35L185.15 316.35L182.4 312.1L182.45 308.3M178.8,320.9L111.05 304L100.6 311.45L134.45 319.9L139.5 316.3L173.45 324.75L178.8 320.9M168.45,328.3L139.65 321.1L139.55 321.15L146.5 322.9L146.5 326.15L152.7 327.7L156.1 325.3L168.35 328.35L168.45 328.3M92.55,322.75L86.05 327.4L86.3 327.85L142.35 341.8L150.85 340.9L163.45 331.9L156.25 330.1L152.85 332.5L142.4 329.9L142.45 326.65L95.6 315L91.5 317.95L92.6 318.2L92.55 322.75" />
<path style="fill:#CECFD0;fill-opacity:1" d="M567.45,97.85L616.1 110L619.45 115.35L619.45 119.9L611.55 125.5L617.45 127L617.4 131.55L569.8 165.5L575.65 166.95L575.6 171.5L535.05 200.4L531.45 199.5L527.5 202.3L462.1 186L462.1 181.45L468.3 177.05L460.6 175.15L459.1 176.2L446.75 173.15L438.15 179.3L424.3 175.85L424.25 178.25L423.35 178.9L437.35 182.4L437.35 186.95L425.55 195.35L421.45 194.35L421.4 198.3L382.4 226.15L396.3 229.6L396.25 234.15L392.8 236.6L397.35 237.75L397.3 242.3L362.55 267.1L392 274.45L391.95 278.95L371.75 293.4L371.75 294.7L368.2 297.25L331.45 288.9L331.5 284.35L352.45 269.35L329.25 263.55L327.95 264.5L346.1 269.05L346.05 273.55L328.9 285.8L324.2 284.65L324.2 286.8L322.15 288.3L332.85 290.95L332.8 295.5L329.65 297.75L332 298.35L332 301.15L333.7 301.6L333.7 303L346.45 306.2L364.4 308.85L364.4 311.75L372.45 312.9L372.45 317.45L330.35 347.5L330.15 347.45L330.15 347.4L330.1 347.45L239.15 335.95L228.5 333.3L228.5 334.9L219.75 341.1L220.5 341.3L220.5 345.85L208.55 354.35L169.35 344.6L169.4 340.05L181.1 331.7L181.35 331.55L194.8 321.95L197.4 322.55L197.4 319.55L201.1 316.95L198.7 313.3L198.75 308.75L221.25 292.7L236.25 291.15L240.2 288.3L246.7 289.95L258.3 281.65L258.55 281.5L290.75 258.45L296.85 257.7L296.9 254.1L315.65 240.7L315.9 240.55L339.65 223.6L339.9 223.45L348.1 217.6L349.85 218L349.85 216.3L353.65 213.6L353.9 213.45L372.15 200.4L372.4 200.25L377.55 196.55L377.8 196.4L413.4 171L415.9 171.6L415.9 169.2L437.25 153.95L439.45 154.5L501.85 109.95L503.05 107.05L534.65 84.5L567.5 93.6L567.45 97.85M615.6,114.65L562.35 101.4L562.4 97L534.75 89.3L503.45 111.65L502.25 114.6L439.6 159.35L437.4 158.8L429.9 164.15L458.95 171.4L460.45 170.3L473.7 173.6L473.65 178.15L467.5 182.55L527.35 197.5L531.3 194.65L534.9 195.55L570.2 170.4L564.4 168.95L564.45 164.4L612.05 130.45L606.15 128.95L606.15 124.4L616.95 116.75L615.6 114.65M441.6,171.85L424.9 167.7L421.3 170.3L438 174.45L441.6 171.85M412.9,176.3L418.25 177.6L418.9 177.15L413.55 175.8L412.9 176.3M416.05,197.2L392 191.2L391.55 191.5L415.6 197.5L416.05 197.2M407.65,180.05L431.7 186L431.95 185.85L407.9 179.85L407.65 180.05M426.7,189.55L402.65 183.6L401.35 184.55L425.35 190.5L426.7 189.55M410.65,201.05L386.6 195.05L382.9 197.65L406.95 203.65L410.65 201.05M315.4,245.85L367.3 258.8L367.95 258.3L316.05 245.35L315.4 245.85M377.5,201.5L401.55 207.5L402 207.2L377.95 201.2L377.5 201.5M359,214.7L362.9 215.7L362.85 219.3L379.3 223.4L384.85 219.45L360.8 213.45L359 214.7M345,224.7L387.65 235.35L390.85 233.05L348.25 222.4L345 224.7M331.55,234.35L361.6 241.85L361.55 246.35L355.8 250.5L372.95 254.75L391.95 241.2L340.05 228.25L331.55 234.35M356.2,245.3L326.55 237.9L321.05 241.8L350.65 249.2L356.2 245.3M396.6,211.05L372.55 205.05L365.8 209.9L389.85 215.9L396.6 211.05M221.55,297.45L201.3 311.85L203.6 315.45L221.45 319.9L225 317.35L235.6 320L235.6 324.55L229.7 328.8L239.4 331.2L330.15 342.7L366.4 316.8L361.35 316.1L361.4 313.15L346.2 310.9L331.55 307.25L331.55 305.85L328.35 305.05L328.35 302.2L324.25 301.2L324.25 296.65L327.45 294.4L316.75 291.75L316.75 287.2L318.85 285.7L316.3 285.1L313.9 286.8L308.7 285.5L298.05 293.1L293.65 292L274.7 305.55L236.35 295.9L221.55 297.45M186.45,332.8L214.65 339.85L223.15 333.8L194.95 326.75L186.45 332.8M174.8,341.15L208.4 349.5L215.1 344.75L214.8 344.65L181.5 336.35L174.8 341.15M221.6,324.75L217.55 327.6L224.3 329.3L224.3 327.7L226.65 326L221.6 324.75M203.45,320.2L201.3 321.7L214.35 324.95L216.45 323.45L203.45 320.2M369.7,289.9L386.6 277.85L357.6 270.65L336.95 285.35L368.05 292.4L369.7 291.25L369.7 289.9M340.75,256.95L314.9 250.5L314.9 252.9L332.15 257.2L340.75 256.95M326.5,260.6L311.7 256.9L311.75 254.5L305.45 252.95L302.25 255.2L325.8 261.1L326.5 260.6M329.35,280.55L282.95 269L279.9 271.15L305.35 277.5L307.8 275.75L328.75 281L329.35 280.55M340.7,272.45L299.3 262.15L291.1 263.2L287.9 265.45L334.3 277L340.7 272.45M290.85,286.35L266.95 280.4L263.65 282.75L287.55 288.7L290.85 286.35M298.8,280.7L274.9 274.7L271.95 276.85L295.8 282.8L298.8 280.7M297.9,288.3L308.45 280.7L307.95 280.6L304.45 283.05L302.9 282.65L295.8 287.75L297.9 288.3M255.7,288.45L279.55 294.4L282.55 292.25L258.7 286.3L255.7 288.45M247.95,294L274.65 300.65L277.45 298.65L250.7 292L247.95 294" />
<path style="fill:#CECFD0;fill-opacity:1" d="M523.55,86.3L473.05 122.3L438.5 113.7L412.9 132L412.65 132.15L412.75 132.2L412.7 136.75L410.7 138.15L410.65 141.8L409.8 142.4L414.75 143.65L414.7 148.2L352.5 192.55L316.3 183.55L316.3 185L317.6 184.05L347.8 191.6L347.75 196.1L271.95 250.2L267.75 249.2L267.75 251.65L216.95 287.85L214.6 287.3L214.55 289.55L184.95 310.7L187.7 314.95L187.65 319.5L151.15 345.65L142.2 346.6L85.85 332.5L85.75 332.4L83.5 328.8L83.5 324.25L87.15 321.65L86.1 321.35L86.1 316.85L152.4 269.55L154.8 270.1L154.8 267.85L167 259.15L172.4 260.5L185.7 251L178.9 249.3L178.9 244.75L190.55 236.45L211.8 241.75L211.75 246.3L211.15 246.75L219.9 248.9L231.55 240.55L228 239.7L228.05 235.15L233.95 230.95L242.25 233L244.8 231.15L249.8 232.4L252.45 230.5L252.7 230.35L258.25 226.4L227.95 218.85L228 214.3L261.8 190.2L261.9 190.2L282.9 175.2L279.95 174.5L279.95 171.1L252.45 164.25L252.45 159.7L257.35 127.7L257.5 127.25L257.5 127.2L257.8 126.5L257.85 126.35L258.25 125.75L258.25 125.7Q259.25 124.35 261.35 123.55L262.85 123.2L263.4 123.1L263.5 123.1L264.5 123L265.8 123L265.95 123.05L267.6 123.2L267.65 123.2L268.65 123.4L268.85 123.4L269.25 123.5L269.35 123.5L285.7 127.55L314.05 107.35L285.8 100.3L285.85 95.75L311.7 77.3L385.8 95.75L408.85 79.3L418.2 77.1L445.25 57.85L456.2 61.55L523.6 81.75L523.55 86.3M445.35,62.7L418.55 81.8L409.15 84L390.9 97.05L420.7 104.45L420.7 104.5L472.9 117.45L518.35 85.05L455.85 66.25L445.35 62.7M433.4,112.45L420.4 109.2L418.85 110.3L431.8 113.55L433.4 112.45M415.3,107.9L311.85 82.1L291.2 96.85L412.75 127.15L426.85 117.1L413.4 113.75L413.45 109.2L415.3 107.9M407.75,130.7L319.2 108.6L285.85 132.4L267.5 127.95L267.3 127.95L267.25 127.9L266.4 127.85L266.25 127.8L264.4 127.75L262.75 127.95L262.65 128L261.65 128.25L259.9 129.15L259.85 129.2L259.3 129.65L259.2 129.75L258.7 130.35L258 131.7L257.75 132.5L253.6 159.75L284.2 167.35L284.15 170.75L352.35 187.75L409.3 147.1L404.35 145.85L404.4 141.3L406.25 140L406.25 136.4L407.3 135.65L407.2 135.6L407.25 131.05L407.75 130.7M301.8,191.05L310.9 184.55L285.6 178.2L267 191.45L326.55 206.3L331.3 202.95L301.75 195.55L301.8 191.05M317.15,189.3L341.8 195.45L342.4 195L317.75 188.85L317.15 189.3M311.6,193.25L336.3 199.4L336.85 199L312.2 192.85L311.6 193.25M255.5,199.6L315.1 214.5L321.6 209.85L261.95 195L255.5 199.6M268.35,224.1L293 230.25L293.65 229.8L269 223.65L268.35 224.1M273.95,220.1L298.65 226.25L299.3 225.8L274.6 219.65L273.95 220.1M257.85,231.6L282.5 237.75L282.75 237.55L258.1 231.4L257.85 231.6M242.35,237.8L234.1 235.75L233.45 236.25L236.85 237.1L238.4 237.05L271.8 245.4L272.35 245L269.5 244.3L269.55 239.75L269.95 239.45L252.85 235.15L249.95 237.25L244.95 236L242.35 237.8M263.1,227.85L287.75 234L288 233.8L263.35 227.65L263.1 227.85M274.9,240.85L277.35 241.45L277.5 241.3L275.1 240.7L274.9 240.85M270,213.7L304.25 222.25L310.15 218.05L250.5 203.15Q241.95 209.3 233.35 215.4L258.75 221.75L270 213.7M184.3,245.85L247.05 261.5L248.1 260.7L205.75 250.15L205.8 245.65L206.4 245.2L190.65 241.3L184.3 245.85M225,250.2L253.05 257.15L262.35 250.55L234.35 243.55L225 250.2M236.05,269.3L184.85 256.55L177.55 261.75L228.75 274.55L236.05 269.3M223.75,278.1L167.15 263.95L160.2 268.9L216.8 283.05L223.75 278.1M209.2,288.5L152.55 274.35L147.95 277.65L204.6 291.75L209.2 288.5M189.85,253L241.05 265.75L242.05 265.05L190.85 252.25L189.85 253M199.6,295.3L143 281.2L139 284.05L195.65 298.15L199.6 295.3M190.65,301.7L134 287.6L130 290.45L186.65 304.55L190.65 301.7M182.45,308.3L125.05 294L116 300.45L183.8 317.35L185.15 316.35L182.4 312.1L182.45 308.3M178.8,320.9L111.05 304L100.6 311.45L134.45 319.9L139.5 316.3L173.45 324.75L178.8 320.9M168.45,328.3L139.65 321.1L139.55 321.15L146.5 322.9L146.5 326.15L152.7 327.7L156.1 325.3L168.35 328.35L168.45 328.3M92.55,322.75L86.05 327.4L86.3 327.85L142.35 341.8L150.85 340.9L163.45 331.9L156.25 330.1L152.85 332.5L142.4 329.9L142.45 326.65L95.6 315L91.5 317.95L92.6 318.2L92.55 322.75" />
</g>
</svg>
