<?xml version="1.0" encoding="utf-8"?>
<svg version="1.1" id="Layer_1"
xmlns="http://www.w3.org/2000/svg"
xmlns:xlink="http://www.w3.org/1999/xlink"
xmlns:author="http://www.sothink.com"
width="536px" height="292px"
xml:space="preserve">
<g id="78" transform="matrix(1, 0, 0, 1, -83.9, -58.15)">
<path style="fill:none;stroke-width:0.5;stroke-linecap:butt;stroke-linejoin:round;stroke-miterlimit:3;stroke:#B5B5B5;stroke-opacity:1" d="M313.45,251.3L313 251.9L306.45 256.5" />
<path style="fill:none;stroke-width:0.5;stroke-linecap:butt;stroke-linejoin:round;stroke-miterlimit:3;stroke:#B2B2B2;stroke-opacity:1" d="M204.7,291.95L143.4 276.7L152.7 270.05L214 285.3L204.7 291.95z" />
<path style="fill:none;stroke-width:0.5;stroke-linecap:butt;stroke-linejoin:round;stroke-miterlimit:3;stroke:#B2B2B2;stroke-opacity:1" d="M134.15,283.25L195.5 298.55L186.75 304.8L125.45 289.5L134.15 283.25z" />
<path style="fill:none;stroke-width:0.5;stroke-linecap:butt;stroke-linejoin:round;stroke-miterlimit:3;stroke:#B2B2B2;stroke-opacity:1" d="M195.75,298.35L134.4 283.1L143.1 276.85L204.45 292.15L195.75 298.35z" />
<path style="fill:none;stroke-width:0.5;stroke-linecap:butt;stroke-linejoin:round;stroke-miterlimit:3;stroke:#B2B2B2;stroke-opacity:1" d="M125.15,289.65L186.5 304.95L182.55 307.75L187.25 315.15L183.9 317.55L111.4 299.5L125.15 289.65z" />
<path style="fill:none;stroke-width:0.5;stroke-linecap:butt;stroke-linejoin:round;stroke-miterlimit:3;stroke:#B2B2B2;stroke-opacity:1" d="M134.55,320.1L96 310.5L111.15 299.65L183.65 317.75L173.5 324.95L139.6 316.5L134.55 320.1z" />
<path style="fill:none;stroke-width:0.5;stroke-linecap:butt;stroke-linejoin:round;stroke-miterlimit:3;stroke:#B2B2B2;stroke-opacity:1" d="M139.8,316.8L173.25 325.15L168.45 328.55L156.2 325.5L152.8 327.9L143.2 325.5L146.6 323.1L135 320.2L139.8 316.8z" />
<path style="fill:none;stroke-width:0.5;stroke-linecap:butt;stroke-linejoin:round;stroke-miterlimit:3;stroke:#B2B2B2;stroke-opacity:1" d="M156.35,325.8L168.3 328.75L150.95 341.15L142.4 342.05L86.4 328.05L84.15 324.5L92.65 318.4L86.9 317L95.75 310.65L145.9 323.2L142.55 325.6L153 328.2L156.35 325.8z" />
<path style="fill:none;stroke-width:0.5;stroke-linecap:butt;stroke-linejoin:round;stroke-miterlimit:3;stroke:#B2B2B2;stroke-opacity:1" d="M214.45,325.2L198.4 321.15L199.85 320.15L198.2 319.7L203.55 315.9L221.3 320.3L214.45 325.2z" />
<path style="fill:none;stroke-width:0.5;stroke-linecap:butt;stroke-linejoin:round;stroke-miterlimit:3;stroke:#B2B2B2;stroke-opacity:1" d="M236.45,291.55L274.85 301.2L293.8 287.7L298.15 288.8L308.8 281.2L314 282.5L316.45 280.75L323.65 282.55L316.85 287.4L332.25 291.25L324.35 296.85L331.4 298.6L328.45 300.7L333.15 301.9L331.65 302.95L346.35 306.6L363.85 309.2L361.5 311.8L371.8 313.25L330.2 342.9L239.5 331.4L225.1 327.85L235.7 320.25L225.1 317.6L221.55 320.1L203.7 315.65L199.4 309L221.65 293.1L236.45 291.55z" />
<path style="fill:none;stroke-width:0.1;stroke-linecap:round;stroke-linejoin:round;stroke-miterlimit:3;stroke:#B2B2B2;stroke-opacity:1" d="M222,320.25L225.25 317.9" />
<path style="fill:none;stroke-width:0.1;stroke-linecap:round;stroke-linejoin:round;stroke-miterlimit:3;stroke:#B2B2B2;stroke-opacity:1" d="M225.25,317.9L235.05 320.3L232.4 322.25" />
<path style="fill:none;stroke-width:0.1;stroke-linecap:round;stroke-linejoin:round;stroke-miterlimit:3;stroke:#B2B2B2;stroke-opacity:1" d="M222,320.25L231.75 322.65L232.4 322.25L231.5 322.85L221.75 320.4L222 320.25z" />
<path style="fill:none;stroke-width:0.1;stroke-linecap:butt;stroke-linejoin:round;stroke-miterlimit:3;stroke:#B2B2B2;stroke-opacity:1" d="M221.75,320.4L221.3 320.3" />
<path style="fill:none;stroke-width:0.5;stroke-linecap:butt;stroke-linejoin:round;stroke-miterlimit:3;stroke:#B2B2B2;stroke-opacity:1" d="M208.5,349.75L170.2 340.2L181.6 332.05L219.95 341.6L208.5 349.75z" />
<path style="fill:none;stroke-width:0.5;stroke-linecap:butt;stroke-linejoin:round;stroke-miterlimit:3;stroke:#B2B2B2;stroke-opacity:1" d="M214.75,340.05L181.85 331.85L195.05 322.45L227.95 330.65L214.75 340.05z" />
<path style="fill:none;stroke-width:0.5;stroke-linecap:butt;stroke-linejoin:round;stroke-miterlimit:3;stroke:#B2B2B2;stroke-opacity:1" d="M299.4,257.8L345.5 269.3L334.4 277.25L283.35 264.5L291.2 258.85L299.4 257.8z" />
<path style="fill:none;stroke-width:0.5;stroke-linecap:butt;stroke-linejoin:round;stroke-miterlimit:3;stroke:#B2B2B2;stroke-opacity:1" d="M283.05,264.65L334.15 277.4L328.85 281.2L307.9 275.95L305.45 277.75L275.3 270.2L283.05 264.65z" />
<path style="fill:none;stroke-width:0.5;stroke-linecap:butt;stroke-linejoin:round;stroke-miterlimit:3;stroke:#B2B2B2;stroke-opacity:1" d="M275.05,270.4L305.15 277.9L304.45 278.45L302.85 278.05L295.9 283L267.35 275.9L275.05 270.4z" />
<path style="fill:none;stroke-width:0.5;stroke-linecap:butt;stroke-linejoin:round;stroke-miterlimit:3;stroke:#B2B2B2;stroke-opacity:1" d="M267.1,276.05L295.65 283.2L287.65 288.9L259.05 281.8L267.1 276.05z" />
<path style="fill:none;stroke-width:0.5;stroke-linecap:butt;stroke-linejoin:round;stroke-miterlimit:3;stroke:#B2B2B2;stroke-opacity:1" d="M357.7,266.3L391.4 274.7L369.8 290.1L371.2 290.45L368.15 292.65L332.25 284.5L357.7 266.3z" />
<path style="fill:none;stroke-width:0.5;stroke-linecap:butt;stroke-linejoin:round;stroke-miterlimit:3;stroke:#B2B2B2;stroke-opacity:1" d="M258.8,282L287.35 289.1L279.65 294.6L251.1 287.5L258.8 282z" />
<path style="fill:none;stroke-width:0.5;stroke-linecap:butt;stroke-linejoin:round;stroke-miterlimit:3;stroke:#B2B2B2;stroke-opacity:1" d="M240.45,288.8L246.95 290.45L250.85 287.65L282.25 295.5L274.75 300.85L236.85 291.4L240.45 288.8z" />
<path style="fill:none;stroke-width:0.5;stroke-linecap:butt;stroke-linejoin:round;stroke-miterlimit:3;stroke:#B2B2B2;stroke-opacity:1" d="M415.7,197.7L386.95 190.55L392.1 186.85L420.85 194.05L415.7 197.7z" />
<path style="fill:none;stroke-width:0.5;stroke-linecap:round;stroke-linejoin:round;stroke-miterlimit:3;stroke:#B2B2B2;stroke-opacity:1" d="M392.1,186.85L396.85 183.5" />
<path style="fill:none;stroke-width:0.5;stroke-linecap:round;stroke-linejoin:round;stroke-miterlimit:3;stroke:#B2B2B2;stroke-opacity:1" d="M399.15,188.55L403.45 185.4" />
<path style="fill:none;stroke-width:0.5;stroke-linecap:butt;stroke-linejoin:round;stroke-miterlimit:3;stroke:#B2B2B2;stroke-opacity:1" d="M407.05,203.85L378.3 196.7L386.7 190.7L415.45 197.9L407.05 203.85z" />
<path style="fill:none;stroke-width:0.5;stroke-linecap:butt;stroke-linejoin:round;stroke-miterlimit:3;stroke:#B2B2B2;stroke-opacity:1" d="M378.05,196.9L406.8 204.05L401.65 207.75L372.9 200.55L378.05 196.9z" />
<path style="fill:none;stroke-width:0.5;stroke-linecap:butt;stroke-linejoin:round;stroke-miterlimit:3;stroke:#B2B2B2;stroke-opacity:1" d="M389.95,216.1L361.2 208.95L372.65 200.75L401.4 207.9L389.95 216.1z" />
<path style="fill:none;stroke-width:0.5;stroke-linecap:butt;stroke-linejoin:round;stroke-miterlimit:3;stroke:#B2B2B2;stroke-opacity:1" d="M362.3,215.95L358.75 218.5L350.65 216.45L354.15 213.95L362.3 215.95z" />
<path style="fill:none;stroke-width:0.5;stroke-linecap:butt;stroke-linejoin:round;stroke-miterlimit:3;stroke:#B2B2B2;stroke-opacity:1" d="M379.35,223.65L359.2 218.6L363 215.9L354.45 213.75L360.95 209.1L389.7 216.25L379.35 223.65z" />
<path style="fill:none;stroke-width:0.5;stroke-linecap:butt;stroke-linejoin:round;stroke-miterlimit:3;stroke:#B2B2B2;stroke-opacity:1" d="M361,242.1L350.75 249.4L316.45 240.85L326.7 233.55L361 242.1z" />
<path style="fill:none;stroke-width:0.5;stroke-linecap:butt;stroke-linejoin:round;stroke-miterlimit:3;stroke:#B2B2B2;stroke-opacity:1" d="M387.75,235.55L340.45 223.75L348.35 218.1L395.7 229.9L387.75 235.55z" />
<path style="fill:none;stroke-width:0.5;stroke-linecap:butt;stroke-linejoin:round;stroke-miterlimit:3;stroke:#B2B2B2;stroke-opacity:1" d="M340.15,223.95L396.75 238.05L373.05 254.95L351.2 249.55L361.7 242.05L326.95 233.4L340.15 223.95z" />
<path style="fill:none;stroke-width:0.5;stroke-linecap:butt;stroke-linejoin:round;stroke-miterlimit:3;stroke:#B2B2B2;stroke-opacity:1" d="M310.8,244.9L316.2 241.05L372.8 255.15L367.4 259" />
<path style="fill:none;stroke-width:0.5;stroke-linecap:butt;stroke-linejoin:round;stroke-miterlimit:3;stroke:#B2B2B2;stroke-opacity:1" d="M367.15,259.15L362.45 262.55L340.95 257.2L332.25 257.4L312.55 252.5L315 250.7L305.85 248.4L310.55 245.05" />
<path style="fill:#B2B2B2;fill-opacity:1" d="M357.3,256.5L357.55 256.4L357.8 256.5L357.9 256.75L357.8 257L357.55 257.1L357.3 257L357.2 256.75L357.3 256.5M354.7,255.95L354.6 256.2L354.35 256.3L354.1 256.2L354 255.95L354.1 255.7L354.35 255.6L354.6 255.7L354.7 255.95M356.2,256.1L356.3 256.35L356.2 256.6L355.95 256.7L355.7 256.6L355.6 256.35L355.7 256.1Q355.8 256 355.95 256L356.2 256.1M359.4,256.9L359.5 257.15L359.4 257.4L359.15 257.5L358.9 257.4L358.8 257.15L358.9 256.9L359.15 256.8L359.4 256.9M360.5,257.3L360.75 257.2L361 257.3L361.1 257.55L361 257.8L360.75 257.9L360.5 257.8L360.4 257.55L360.5 257.3M364.2,258.1L364.3 258.35L364.2 258.6L363.95 258.7L363.7 258.6L363.6 258.35L363.7 258.1Q363.8 258 363.95 258L364.2 258.1M362.1,257.7L362.35 257.6L362.6 257.7L362.7 257.95L362.6 258.2L362.35 258.3L362.1 258.2L362 257.95L362.1 257.7M344.5,253.3L344.75 253.2L345 253.3L345.1 253.55L345 253.8L344.75 253.9L344.5 253.8L344.4 253.55L344.5 253.3M348.3,254.35L348.2 254.6L347.95 254.7L347.7 254.6L347.6 254.35L347.7 254.1Q347.8 254 347.95 254L348.2 254.1L348.3 254.35M349.3,254.5L349.55 254.4L349.8 254.5L349.9 254.75L349.8 255L349.55 255.1L349.3 255L349.2 254.75L349.3 254.5M346.1,253.7L346.35 253.6L346.6 253.7L346.7 253.95L346.6 254.2L346.35 254.3L346.1 254.2L346 253.95L346.1 253.7M352.5,255.3L352.75 255.2L353 255.3L353.1 255.55L353 255.8L352.75 255.9L352.5 255.8L352.4 255.55L352.5 255.3M351.4,254.9L351.5 255.15L351.4 255.4L351.15 255.5L350.9 255.4L350.8 255.15L350.9 254.9L351.15 254.8L351.4 254.9M340.2,252.1L340.3 252.35L340.2 252.6L339.95 252.7L339.7 252.6L339.6 252.35L339.7 252.1Q339.8 252 339.95 252L340.2 252.1M341.55,252.4L341.8 252.5L341.9 252.75L341.8 253L341.55 253.1L341.3 253L341.2 252.75L341.3 252.5L341.55 252.4M342.9,252.9L343.15 252.8L343.4 252.9L343.5 253.15L343.4 253.4L343.15 253.5L342.9 253.4L342.8 253.15L342.9 252.9M336.4,251.55L336.5 251.3L336.75 251.2L337 251.3L337.1 251.55L337 251.8L336.75 251.9L336.5 251.8L336.4 251.55M335.4,251.4L335.15 251.5L334.9 251.4L334.8 251.15L334.9 250.9L335.15 250.8L335.4 250.9L335.5 251.15L335.4 251.4M338.1,251.7L338.35 251.6L338.6 251.7L338.7 251.95L338.6 252.2L338.35 252.3L338.1 252.2L338 251.95L338.1 251.7M331.7,250.1Q331.8 250 331.95 250L332.2 250.1L332.3 250.35L332.2 250.6L331.95 250.7L331.7 250.6L331.6 250.35L331.7 250.1M333.55,250.4L333.8 250.5L333.9 250.75L333.8 251L333.55 251.1L333.3 251L333.2 250.75L333.3 250.5L333.55 250.4M330.1,249.7L330.35 249.6L330.6 249.7L330.7 249.95L330.6 250.2L330.35 250.3L330.1 250.2L330 249.95L330.1 249.7M327.05,248.8L327.3 248.9L327.4 249.15L327.3 249.4L327.05 249.5L326.8 249.4L326.7 249.15L326.8 248.9L327.05 248.8M328.5,249.3L328.75 249.2L329 249.3L329.1 249.55L329 249.8L328.75 249.9L328.5 249.8L328.4 249.55L328.5 249.3M325.6,248.5L325.7 248.75L325.6 249L325.35 249.1L325.1 249L325 248.75L325.1 248.5L325.35 248.4L325.6 248.5M324.1,248.35L324 248.6L323.75 248.7L323.5 248.6L323.4 248.35L323.5 248.1L323.75 248L324 248.1L324.1 248.35M365.3,258.5L365.55 258.4L365.8 258.5L365.9 258.75L365.8 259L365.55 259.1L365.3 259L365.2 258.75L365.3 258.5M366.8,259.15L366.9 258.9L367.15 258.8L367.4 258.9L367.5 259.15L367.4 259.4L367.15 259.5L366.9 259.4L366.8 259.15M310.3,244.8L310.55 244.7L310.8 244.8L310.9 245.05L310.8 245.3L310.55 245.4L310.3 245.3L310.2 245.05L310.3 244.8M313.85,245.6L314.1 245.7L314.2 245.95L314.1 246.2L313.85 246.3L313.6 246.2L313.5 245.95L313.6 245.7L313.85 245.6M312,245.3L312.25 245.2L312.5 245.3L312.6 245.55L312.5 245.8L312.25 245.9L312 245.8L311.9 245.55L312 245.3M315.8,246.1L315.9 246.35L315.8 246.6L315.55 246.7L315.3 246.6L315.2 246.35L315.3 246.1L315.55 246L315.8 246.1M316.9,246.5L317.15 246.4L317.4 246.5L317.5 246.75L317.4 247L317.15 247.1L316.9 247L316.8 246.75L316.9 246.5M318.75,246.8L319 246.9L319.1 247.15L319 247.4L318.75 247.5L318.5 247.4L318.4 247.15L318.5 246.9L318.75 246.8M320.7,247.3L320.8 247.55L320.7 247.8L320.45 247.9L320.2 247.8L320.1 247.55L320.2 247.3Q320.3 247.2 320.45 247.2L320.7 247.3M321.9,247.7L322.15 247.6L322.4 247.7L322.5 247.95L322.4 248.2L322.15 248.3L321.9 248.2L321.8 247.95L321.9 247.7" />
<path style="fill:none;stroke-width:0.5;stroke-linecap:butt;stroke-linejoin:round;stroke-miterlimit:3;stroke:#B2B2B2;stroke-opacity:1" d="M306.85,256.55L297.65 254.25L305.6 248.6L314.35 250.8L311.85 252.55L332.1 257.6L340.75 257.35L362.2 262.7" />
<path style="fill:none;stroke-width:0.5;stroke-linecap:butt;stroke-linejoin:round;stroke-miterlimit:3;stroke:#B2B2B2;stroke-opacity:1" d="M446.45,168.7L438.1 174.65L416.7 169.35Q420.9 166.4 425.05 163.4L446.45 168.7z" />
<path style="fill:none;stroke-width:0.5;stroke-linecap:butt;stroke-linejoin:round;stroke-miterlimit:3;stroke:#B2B2B2;stroke-opacity:1" d="M562.5,97.05L615.75 110.35L619 115.55L606.25 124.65L616.85 127.3L564.5 164.6L575.05 167.25L535 195.8L531.4 194.9L527.45 197.7L462.9 181.6L473.8 173.85L460.55 170.55L459.05 171.6L425.3 163.2L437.55 154.45L439.7 155L502.45 110.25L503.55 107.35L534.9 85L566.9 93.9L562.5 97.05z" />
<path style="fill:none;stroke-width:0.5;stroke-linecap:butt;stroke-linejoin:round;stroke-miterlimit:3;stroke:#B2B2B2;stroke-opacity:1" d="M423.7,174L418.35 177.85L408.3 175.35L413.7 171.5L423.7 174z" />
<path style="fill:none;stroke-width:0.5;stroke-linecap:butt;stroke-linejoin:round;stroke-miterlimit:3;stroke:#B2B2B2;stroke-opacity:1" d="M436.75,182.7L431.8 186.25L403.05 179.05L408.05 175.5L436.75 182.7z" />
<path style="fill:none;stroke-width:0.5;stroke-linecap:butt;stroke-linejoin:round;stroke-miterlimit:3;stroke:#B2B2B2;stroke-opacity:1" d="M425.45,190.75L396.75 183.55L402.8 179.25L431.5 186.4L425.45 190.75z" />
<path style="fill:none;stroke-width:0.5;stroke-linecap:butt;stroke-linejoin:round;stroke-miterlimit:3;stroke:#B2B2B2;stroke-opacity:1" d="M414.2,109.35L420.55 104.85L438.2 109.3L431.9 113.8L414.2 109.35z" />
<path style="fill:none;stroke-width:0.5;stroke-linecap:butt;stroke-linejoin:round;stroke-miterlimit:3;stroke:#B2B2B2;stroke-opacity:1" d="M445.45,58.4L456 61.95L523 82L473 117.7L386.35 96.1L409.3 79.65L418.7 77.5L445.45 58.4z" />
<path style="fill:none;stroke-width:0.5;stroke-linecap:butt;stroke-linejoin:round;stroke-miterlimit:3;stroke:#B2B2B2;stroke-opacity:1" d="M312,77.8L420.1 104.75L413.55 109.45L431.65 113.95L412.85 127.35L286.6 95.9L312 77.8z" />
<path style="fill:none;stroke-width:0.5;stroke-linecap:butt;stroke-linejoin:round;stroke-miterlimit:3;stroke:#B2B2B2;stroke-opacity:1" d="M271.05,124.35L286 128.05L319.3 104.3L412.6 127.55L407.35 131.3L412.15 132.5L406.35 136.6L410.1 137.55L404.5 141.55L414.15 143.95L352.45 187.95L280.75 170.1L284.25 167.55L253.1 159.8L257.8 128.85Q258.05 127.05 258.8 126Q259.85 124.65 261.8 123.95L263.65 123.5Q266.3 123.15 271.05 124.35z" />
<path style="fill:none;stroke-width:0.5;stroke-linecap:butt;stroke-linejoin:round;stroke-miterlimit:3;stroke:#B2B2B2;stroke-opacity:1" d="M317.85,184.55L347.2 191.85L341.9 195.65L312.55 188.35L317.85 184.55z" />
<path style="fill:none;stroke-width:0.5;stroke-linecap:butt;stroke-linejoin:round;stroke-miterlimit:3;stroke:#B2B2B2;stroke-opacity:1" d="M315.75,181.4L301.9 191.25L336.1 199.8L326.65 206.55L262.4 190.5L285.7 173.9L315.75 181.4z" />
<path style="fill:none;stroke-width:0.5;stroke-linecap:butt;stroke-linejoin:round;stroke-miterlimit:3;stroke:#B2B2B2;stroke-opacity:1" d="M312.3,188.5L341.65 195.85L336.35 199.6L307.05 192.3L312.3 188.5z" />
<path style="fill:none;stroke-width:0.5;stroke-linecap:butt;stroke-linejoin:round;stroke-miterlimit:3;stroke:#B2B2B2;stroke-opacity:1" d="M262.1,190.7L326.4 206.7L315.2 214.7L250.9 198.65L262.1 190.7z" />
<path style="fill:none;stroke-width:0.5;stroke-linecap:butt;stroke-linejoin:round;stroke-miterlimit:3;stroke:#B2B2B2;stroke-opacity:1" d="M304.35,222.45L270.15 213.9L258.85 221.95L228.75 214.45L250.65 198.85L314.95 214.9L304.35 222.45z" />
<path style="fill:none;stroke-width:0.5;stroke-linecap:butt;stroke-linejoin:round;stroke-miterlimit:3;stroke:#B2B2B2;stroke-opacity:1" d="M298.7,226.45L269.35 219.15L274.75 215.3L304.1 222.65L298.7 226.45z" />
<path style="fill:none;stroke-width:0.5;stroke-linecap:butt;stroke-linejoin:round;stroke-miterlimit:3;stroke:#B2B2B2;stroke-opacity:1" d="M293.1,230.5L263.75 223.15L269.1 219.35L298.45 226.65L293.1 230.5z" />
<path style="fill:none;stroke-width:0.5;stroke-linecap:butt;stroke-linejoin:round;stroke-miterlimit:3;stroke:#B2B2B2;stroke-opacity:1" d="M287.85,234.25L258.5 226.9L263.5 223.35L292.85 230.65L287.85 234.25z" />
<path style="fill:none;stroke-width:0.5;stroke-linecap:butt;stroke-linejoin:round;stroke-miterlimit:3;stroke:#B2B2B2;stroke-opacity:1" d="M253.25,230.65L258.25 227.1L287.6 234.4L282.6 238L253.25 230.65z" />
<path style="fill:none;stroke-width:0.5;stroke-linecap:butt;stroke-linejoin:round;stroke-miterlimit:3;stroke:#B2B2B2;stroke-opacity:1" d="M282.35,238.15L277.45 241.65L270.3 239.9L275.2 236.4L282.35 238.15z" />
<path style="fill:none;stroke-width:0.5;stroke-linecap:butt;stroke-linejoin:round;stroke-miterlimit:3;stroke:#B2B2B2;stroke-opacity:1" d="M242.5,233.5L245.1 231.65L250.1 232.9L253 230.85L274.8 236.3L269.65 239.95L277.2 241.85L271.9 245.6L238.55 237.3L236.95 237.3L228.85 235.3L234.25 231.45L242.5 233.5z" />
<path style="fill:none;stroke-width:0.5;stroke-linecap:butt;stroke-linejoin:round;stroke-miterlimit:3;stroke:#B2B2B2;stroke-opacity:1" d="M234.45,239.2L267.2 247.4L253.15 257.4L220.4 249.25L234.45 239.2z" />
<path style="fill:none;stroke-width:0.5;stroke-linecap:butt;stroke-linejoin:round;stroke-miterlimit:3;stroke:#B2B2B2;stroke-opacity:1" d="M205.9,245.85L252.9 257.55L247.1 261.7L179.7 244.9L190.8 236.95L211.2 242.05L205.9 245.85z" />
<path style="fill:none;stroke-width:0.5;stroke-linecap:butt;stroke-linejoin:round;stroke-miterlimit:3;stroke:#B2B2B2;stroke-opacity:1" d="M190.95,247.95L246.9 261.85L241.15 265.95L185.25 252L190.95 247.95z" />
<path style="fill:none;stroke-width:0.5;stroke-linecap:butt;stroke-linejoin:round;stroke-miterlimit:3;stroke:#B2B2B2;stroke-opacity:1" d="M228.85,274.75L172.95 260.8L185 252.2L240.9 266.15L228.85 274.75z" />
<path style="fill:none;stroke-width:0.5;stroke-linecap:butt;stroke-linejoin:round;stroke-miterlimit:3;stroke:#B2B2B2;stroke-opacity:1" d="M216.9,283.25L155.6 267.95L167.25 259.65L228.6 274.9L216.9 283.25z" />
<path style="fill:#B5B5B5;fill-opacity:1" d="M258.55,200.8L258.75 200.75L258.9 200.8L259 201L258.9 201.15L258.75 201.25L258.55 201.15L258.5 201L258.55 200.8M260.4,201.4L260.3 201.55L260.15 201.65L259.95 201.55L259.9 201.4L259.95 201.2L260.15 201.15L260.3 201.2L260.4 201.4M260.4,202.45L260.55 202.5L260.65 202.7L260.55 202.85L260.4 202.95L260.2 202.85L260.15 202.7L260.2 202.5L260.4 202.45M258.95,203.3L259.15 203.25L259.3 203.3L259.4 203.5L259.3 203.65L259.15 203.75L258.95 203.65L258.9 203.5L258.95 203.3M261.4,201.6L261.6 201.55L261.75 201.6L261.85 201.8L261.75 201.95L261.6 202.05L261.4 201.95L261.35 201.8L261.4 201.6M256.1,200.2L256 200.35L255.85 200.45L255.65 200.35L255.6 200.2L255.65 200L255.85 199.95L256 200L256.1 200.2M257.15,200.4L257.35 200.35L257.5 200.4L257.6 200.6L257.5 200.75L257.35 200.85L257.15 200.75L257.1 200.6L257.15 200.4M254.15,199.6L254.35 199.55L254.5 199.6L254.6 199.8L254.5 199.95L254.35 200.05L254.15 199.95L254.1 199.8L254.15 199.6M257.75,204.2L257.95 204.15L258.1 204.2L258.2 204.4L258.1 204.55L257.95 204.65L257.75 204.55L257.7 204.4L257.75 204.2M256.55,205.1L256.75 205.05L256.9 205.1L257 205.3L256.9 205.45L256.75 205.55L256.55 205.45L256.5 205.3L256.55 205.1M255.7,206.35L255.55 206.45L255.35 206.35L255.3 206.2L255.35 206L255.55 205.95L255.7 206L255.8 206.2L255.7 206.35M254.1,207.1L254.15 206.9L254.35 206.85L254.5 206.9L254.6 207.1L254.5 207.25L254.35 207.35L254.15 207.25L254.1 207.1M253.3,207.8L253.4 208L253.3 208.15L253.15 208.25L252.95 208.15L252.9 208L252.95 207.8L253.15 207.75L253.3 207.8M253,199.2L253.1 199.4L253 199.55L252.85 199.65L252.65 199.55L252.6 199.4L252.65 199.2L252.85 199.15L253 199.2M251.15,198.85L251.35 198.8L251.5 198.85L251.6 199.05L251.5 199.2L251.35 199.3L251.15 199.2L251.1 199.05L251.15 198.85M250.2,199.05L250.3 199.25L250.2 199.4L250.05 199.5L249.85 199.4L249.8 199.25L249.85 199.05L250.05 199L250.2 199.05M248.65,199.95L248.85 199.9L249 199.95L249.1 200.15L249 200.3L248.85 200.4L248.65 200.3L248.6 200.15L248.65 199.95M247.8,200.85L247.9 201.05L247.8 201.2L247.65 201.3L247.45 201.2L247.4 201.05L247.45 200.85L247.65 200.8L247.8 200.85M243.85,203.55L244.05 203.5L244.2 203.55L244.3 203.75L244.2 203.9L244.05 204L243.85 203.9L243.8 203.75L243.85 203.55M245.25,203.1L245.05 203L245 202.85L245.05 202.65L245.25 202.6L245.4 202.65L245.5 202.85L245.4 203L245.25 203.1M246.25,201.75L246.45 201.7L246.6 201.75L246.7 201.95L246.6 202.1L246.45 202.2L246.25 202.1L246.2 201.95L246.25 201.75M243.05,206.95L243.25 206.9L243.4 206.95L243.5 207.15L243.4 207.3L243.25 207.4L243.05 207.3L243 207.15L243.05 206.95M243,204.8L242.85 204.9L242.65 204.8L242.6 204.65L242.65 204.45L242.85 204.4L243 204.45L243.1 204.65L243 204.8M244.45,207.35L244.65 207.3L244.8 207.35L244.9 207.55L244.8 207.7L244.65 207.8L244.45 207.7L244.4 207.55L244.45 207.35M247.45,208.15L247.65 208.1L247.8 208.15L247.9 208.35L247.8 208.5L247.65 208.6L247.45 208.5L247.4 208.35L247.45 208.15M246.3,207.75L246.4 207.95L246.3 208.1L246.15 208.2L245.95 208.1L245.9 207.95L245.95 207.75L246.15 207.7L246.3 207.75M248.95,208.55L249.15 208.5L249.3 208.55L249.4 208.75L249.3 208.9L249.15 209L248.95 208.9L248.9 208.75L248.95 208.55M250.45,208.9L250.65 208.85L250.8 208.9L250.9 209.1L250.8 209.25L250.65 209.35L250.45 209.25L250.4 209.1L250.45 208.9M252.1,208.7L252.2 208.9L252.1 209.05L251.95 209.15L251.75 209.05L251.7 208.9L251.75 208.7L251.95 208.65L252.1 208.7M241.9,205.55L241.8 205.7L241.65 205.8L241.45 205.7L241.4 205.55L241.45 205.35L241.65 205.3L241.8 205.35L241.9 205.55M241.65,206.55L241.85 206.5L242 206.55L242.1 206.75L242 206.9L241.85 207L241.65 206.9L241.6 206.75L241.65 206.55M240.65,206.35L240.55 206.5L240.4 206.6L240.2 206.5L240.15 206.35L240.2 206.15L240.4 206.1L240.55 206.15L240.65 206.35" />
</g>
</svg>
