<?xml version="1.0" encoding="utf-8"?>
<svg version="1.1" id="Layer_1"
xmlns="http://www.w3.org/2000/svg"
xmlns:xlink="http://www.w3.org/1999/xlink"
xmlns:author="http://www.sothink.com"
width="536px" height="297px"
xml:space="preserve">
<g id="76" transform="matrix(1, 0, 0, 1, 0, 0)">
<path style="fill:#2D2D2D;fill-opacity:1" d="M535.95,62.05L528.05 67.65L533.95 69.15L533.9 73.7L486.3 107.65L492.15 109.1L492.1 113.65L451.55 142.55L447.95 141.65L444 144.45L378.6 128.15L378.6 123.6L384.8 119.2L377.1 117.3L375.6 118.35L363.25 115.3L354.65 121.45L340.8 117.95L340.75 120.4L339.85 121.05L353.85 124.55L353.85 129.1L342.05 137.5L337.95 136.5L337.9 140.45L298.9 168.3L312.8 171.75L312.75 176.3L309.3 178.75L313.85 179.9L313.8 184.45L279.05 209.25L308.5 216.55L308.45 221.1L288.25 235.55L288.25 236.85L284.7 239.4L247.95 231.05L248 226.5L265.15 214.2L262.6 213.6L262.55 215.7L245.4 227.95L240.7 226.8L240.7 228.95L238.65 230.45L249.35 233.1L249.3 237.65L246.15 239.9L248.5 240.45L248.5 243.3L250.2 243.75L250.2 245.15L262.95 248.35L280.9 251L280.9 253.9L288.95 255.05L288.95 259.6L246.85 289.65L246.65 289.6L246.65 289.55L246.6 289.6L155.65 278.1L149.55 276.55L137 285.5L137 288L125.05 296.5L85.85 286.75L85.9 284.35L75.9 281.85L67.65 287.8L59.05 288.7L58.7 288.7L2.35 274.65L0 270.95L0 266.4L3.65 263.8L2.6 263.5L2.6 259L68.9 211.65L71.3 212.25L71.3 209.95L83.5 201.3L88.9 202.65L102.2 193.15L95.4 191.45L95.4 186.9L107.05 178.6L128.3 183.9L128.25 188.45L127.65 188.85L136.4 191.05L148.05 182.7L144.5 181.85L144.5 181.75L124.2 176.65L126.55 174.95L144.55 179.45L144.55 177.3L150.45 173.1L158.75 175.15L161.3 173.3L166.3 174.55L168.95 172.65L169.2 172.5L174.75 168.55L144.45 161L144.5 156.45L178.3 132.3L178.4 132.35L199.4 117.35L196.45 116.6L196.45 113.25L168.95 106.4L168.95 101.85L173.85 69.85L174 69.4L174 69.35L174.3 68.65L174.35 68.5L174.75 67.9L174.75 67.85Q175.75 66.5 177.85 65.7L179.35 65.3L179.65 65.3L179.9 65.25L182.3 65.15L182.45 65.2L184.1 65.35L184.15 65.35L185.15 65.55L185.35 65.55L185.75 65.65L185.85 65.65L202.2 69.7L230.55 49.5L202.3 42.45L202.35 37.9L228.2 19.45L302.3 37.9L325.35 21.45L334.7 19.25L361.75 0L372.7 3.7L440.1 23.9L440.05 26.3L448.65 28.4L451.15 26.6L484 35.75L483.95 40L532.6 52.15L535.95 57.5L535.95 62.05" />
</g>
</svg>
