<?xml version="1.0" encoding="utf-8"?>
<svg version="1.1" id="Layer_1"
xmlns="http://www.w3.org/2000/svg"
xmlns:xlink="http://www.w3.org/1999/xlink"
xmlns:author="http://www.sothink.com"
width="497px" height="198px"
xml:space="preserve">
<g id="5" transform="matrix(1, 0, 0, 1, -71, -66.75)">
<path style="fill:none;stroke-width:0.5;stroke-linecap:round;stroke-linejoin:round;stroke-miterlimit:3;stroke:#BEC0C2;stroke-opacity:1" d="M406.6,239.25L416.7 232.1L449.2 240.8L415.6 264.2L383.6 255.75L383.6 255.6L406.65 239.3L406.6 239.25z" />
<path style="fill:none;stroke-width:0.5;stroke-linecap:butt;stroke-linejoin:miter;stroke-miterlimit:4;stroke:#BEC0C2;stroke-opacity:1" d="M195.55,95.4Q196.4 96.7 196.3 97.65L199.2 97.8Q201.55 103.25 195.85 108.75Q192.95 111.55 189.15 113.45L192.4 114.25L193.6 115.65L191.45 117.2L189.25 117.35L184.85 116.25L159.9 134.05L97.45 118.45L101.55 115.55L71.6 108.1L129.2 67L155.6 73.6L142.05 83.25L166.95 89.5L171.95 85.9L189.25 90.25Q193.9 92.75 195.55 95.4z" />
<path style="fill:none;stroke-width:0.5;stroke-linecap:butt;stroke-linejoin:miter;stroke-miterlimit:4;stroke:#BEC0C2;stroke-opacity:1" d="M245.8,123.9L202.6 113.15L222.2 99.25L248.95 105.95L245.8 123.9z" />
<path style="fill:none;stroke-width:0.5;stroke-linecap:butt;stroke-linejoin:miter;stroke-miterlimit:4;stroke:#BEC0C2;stroke-opacity:1" d="M267.8,116.25L296.95 95.45L325.2 102.5L296.1 123.3L267.8 116.25z" />
<path style="fill:none;stroke-width:0.5;stroke-linecap:butt;stroke-linejoin:miter;stroke-miterlimit:4;stroke:#BEC0C2;stroke-opacity:1" d="M319.5,106.65L334.25 110.3L310.9 126.95L296.15 123.3L319.5 106.65z" />
<path style="fill:none;stroke-width:0.5;stroke-linecap:butt;stroke-linejoin:miter;stroke-miterlimit:4;stroke:#BEC0C2;stroke-opacity:1" d="M349.05,114L325.7 130.65L310.9 126.95L334.25 110.3L349.05 114z" />
<path style="fill:none;stroke-width:0.5;stroke-linecap:butt;stroke-linejoin:miter;stroke-miterlimit:4;stroke:#BEC0C2;stroke-opacity:1" d="M353.2,111L370.85 115.4L343.35 135.05L343.45 135.1L325.7 130.65L353.2 111z" />
<path style="fill:none;stroke-width:0.5;stroke-linecap:butt;stroke-linejoin:miter;stroke-miterlimit:4;stroke:#BEC0C2;stroke-opacity:1" d="M388.65,119.85L361.15 139.5L343.45 135.1L343.35 135.05L370.85 115.4L388.65 119.85z" />
<path style="fill:none;stroke-width:0.5;stroke-linecap:butt;stroke-linejoin:miter;stroke-miterlimit:4;stroke:#BEC0C2;stroke-opacity:1" d="M404.2,123.75L376.7 143.35L360.9 139.45L361.15 139.5L388.65 119.85L404.2 123.75z" />
<path style="fill:none;stroke-width:0.5;stroke-linecap:butt;stroke-linejoin:miter;stroke-miterlimit:4;stroke:#BEC0C2;stroke-opacity:1" d="M376.7,143.35L400 126.75L412.7 129.9L389.4 146.55L376.7 143.35z" />
<path style="fill:none;stroke-width:0.5;stroke-linecap:butt;stroke-linejoin:miter;stroke-miterlimit:4;stroke:#BEC0C2;stroke-opacity:1" d="M413.85,152.65L389.4 146.55L412.7 129.9L422.6 132.4L426.6 129.55L441.1 133.2" />
<path style="fill:none;stroke-width:0.5;stroke-linecap:butt;stroke-linejoin:miter;stroke-miterlimit:4;stroke:#BEC0C2;stroke-opacity:1" d="M441,133.4L442.95 131.85L471.25 138.9L442.1 159.7L413.85 152.65" />
<path style="fill:none;stroke-width:0.5;stroke-linecap:round;stroke-linejoin:miter;stroke-miterlimit:4;stroke:#BEC0C2;stroke-opacity:1" d="M512.2,215.3L477 175.25L531.75 171.45L566.95 211.5L547.1 212.9L559.45 226.95L542.15 228.15L518.35 222.3L512.2 215.3L547.1 212.9" />
<path style="fill:none;stroke-width:0.5;stroke-linecap:butt;stroke-linejoin:miter;stroke-miterlimit:4;stroke:#BEC0C2;stroke-opacity:1" d="M373.1,252.6L315.5 238.2L371 198.4L428.85 213.1L373.1 252.6z" />
<path style="fill:none;stroke-width:0.25;stroke-linecap:butt;stroke-linejoin:miter;stroke-miterlimit:4;stroke:#999999;stroke-opacity:1" d="M347,173.15L383.3 182.5L369.05 192.6L333.4 183.65L347 173.15z" />
</g>
</svg>
