<?xml version="1.0" encoding="utf-8"?>
<svg version="1.1" id="Layer_1"
xmlns="http://www.w3.org/2000/svg"
xmlns:xlink="http://www.w3.org/1999/xlink"
xmlns:author="http://www.sothink.com"
width="587px" height="266px"
xml:space="preserve">
<g id="4" transform="matrix(1, 0, 0, 1, -19.75, -42.1)">
<path style="fill:#4D4D4D;fill-opacity:1" d="M472.95,284.65L441.25 307.25L396.85 296.2L396.9 289.35L389.75 294.45L311.4 274.85L311.45 264.95L351.35 236.5L21.75 154.55L21.75 152.55L129.15 75.95L148.4 74.55L499.9 162.15L604.3 245.95L604.3 247.95L567.3 247.45L567.25 251.9L555.7 252.7L559.85 257.4L559.75 267.35L542.4 268.5L518.65 262.7L504.6 246.65L452.35 246.05L452.35 250.1L431.75 264.4L473.1 274.75L472.95 284.65" />
<path style="fill:none;stroke-width:4;stroke-linecap:butt;stroke-linejoin:miter;stroke-miterlimit:10;stroke:#4D4D4E;stroke-opacity:1" d="M427,215.3L504.6 216.3L518.65 232.25L542.4 238.1L559.75 236.9L559.85 227L555.7 222.25L567.25 221.45L567.3 217L604.3 217.5L604.3 215.5L499.9 131.75L148.4 44.1L129.15 45.55L21.75 122.15L21.75 124.1L352.9 206.45L352.8 212.15L411.05 226.7L427 215.3M526.55,224.25L542.5 228.2" />
<path style="fill:none;stroke-width:4;stroke-linecap:round;stroke-linejoin:miter;stroke-miterlimit:10;stroke:#4D4D4E;stroke-opacity:1" d="M337,221.25L315.1 236.65L315 249L372.7 262.05M374,260.6L372.7 262.05" />
<path style="fill:none;stroke-width:4;stroke-linecap:butt;stroke-linejoin:miter;stroke-miterlimit:10;stroke:#4D4D4E;stroke-opacity:1" d="M372.7,262.05L372.25 260.6M372.7,262.05L425.9 222.3" />
<path style="fill:#B5B7BA;fill-opacity:1" d="M148.4,44.1L499.9 131.75L604.3 215.5L604.3 217.5L386.35 214.75L385.25 214.55L385.25 214.75L384.4 214.75L384.5 214.3L21.75 124.1L21.75 122.15L129.15 45.55L148.4 44.1" />
<path style="fill:#CACCCE;fill-opacity:1" d="M377.05,143.25L404.65 123.65L404.55 133.55L387.35 145.8L389.85 146.5L413.15 129.85L413.05 139.75L400.05 149.05L414.25 152.55L441.55 133.1L441.45 143L424.5 155.1L442.55 159.6L471.65 138.8L471.6 148.75L442.45 169.5L296.45 133.1L296.45 133.05L296.4 133.05L268.1 126L268.2 116.1L296.5 123.2L325.6 102.35L325.55 112.25L306.7 125.7L311.3 126.85Q323 118.55 334.65 110.2L334.6 120.1L321.55 129.4L326.1 130.55L349.4 113.9L349.35 123.8L336.3 133.1L343.75 134.95L371.3 115.3L371.25 125.2L354 137.5L361.55 139.45L389.1 119.75L389.05 129.65L371.8 142L377.05 143.25M333.45,183.55L369.05 192.3L383.4 181.9L383.2 191.1L373.35 198.9L371.15 198.3L366.2 201.85L333.45 193.6L333.45 183.55M477.3,175.3L512.55 215.3L567.3 211.55L567.25 221.45L526.55 224.25L542.5 228.2L559.85 227L559.75 236.9L542.4 238.1L518.65 232.25L477.25 185.2L477.3 175.3M428.9,223.1L384.3 254.8L383.85 255.15L373.55 262.5L315.4 248.05L315.45 237.7L373.1 252.3L428.9 212.9L428.9 223.1M449.4,240.3L449.25 249.15L415.6 273.1L383.9 264.4L383.85 255.15L416.05 263.55L449.4 240.3M202.85,113.1L246.05 123.95L249.25 105.95L249.15 115.85L246 133.85L202.8 123L202.85 113.1M199,105.1L199.85 103.05L200.15 100.95L200.05 111.1L199.9 112.4L199.85 112.5L199.75 112.9L199.45 113.65L199.4 113.9L199.3 114.2L197.75 116.7L197.75 116.75L194.8 119.75L194.65 119.8L193.8 120.45L193.75 125.6L191.65 127.1L189.45 127.2L185 126.1L160.1 143.95L97.65 128.35L97.65 124.4L71.75 118L71.8 108.1L101.75 115.55L101.7 119.45L102 119.55L102.05 115.35L118.15 103.8L180.1 119.25L180.1 119.8L185.1 116.2L189.4 117.3L189.4 113.5L190.15 113.05L190.25 113L192.55 111.6L192.7 111.4L196.45 108.45L199 105.1M142.3,83.3L155.85 73.55L155.8 83.45L142.15 93.2L142.3 83.3M160.15,134L167.85 128.55L130.7 126.65L160.15 134M114.95,116L130.25 116.75L118.1 113.75L114.95 116" />
</g>
</svg>
