<?xml version="1.0" encoding="utf-8"?>
<svg version="1.1" id="Layer_1"
xmlns="http://www.w3.org/2000/svg"
xmlns:xlink="http://www.w3.org/1999/xlink"
xmlns:author="http://www.sothink.com"
width="1002px" height="541px"
xml:space="preserve">
<g id="1" transform="matrix(1, 0, 0, 1, -59.15, -50.2)">
<path style="fill:none;stroke-width:8;stroke-linecap:butt;stroke-linejoin:round;stroke-miterlimit:3;stroke:#00C2FF;stroke-opacity:1" d="M1018,157.6L1025.1 152.5M813.25,130L813 130.2L809.65 129.35M908.3,173.25L909.7 172.3M797.5,123.45L803.85 125.05L805.15 124.05L805.2 124.1L803.85 125.1L797.45 123.5L797.5 123.45M768.2,123.9L768.05 124.1M798.25,101.95L805.45 96.85M759.2,92.9L797.55 102.5M735.5,198.5L734.2 199.4M698,225.4L699.75 224.1L699.8 224.15L698 225.4M728.7,300.85L730.2 301.25L728.7 302.4L728.7 300.85M810.45,234.5L808.95 234.15L810.45 233.05L810.45 234.5M793.4,281.15L837.8 249.5M920.05,118.15L1030.35 145.65M477.9,309.75L477.9 309.05L478.6 309.25L477.9 309.75M447.4,320.4L450 321.1M635,235.95L636.2 235.8L636.4 235.85L635 235.95M596.35,276.85L594.7 278M584.75,285.05L586.2 284.05M552.15,243L573.8 248.4L558.55 259.3L551.2 257.45L545.05 261.85L545.05 255.9L539.6 254.55L552.15 245.7L552.15 243M513.75,285.95L515.35 284.85L515.35 286.35L513.75 285.95M544.95,296L545.65 296.15L553.05 295.3L553.15 295.3L545.65 296.25L544.95 296M502.55,343.8L500.9 344.95M588.9,337.5L588.55 339.9M599.2,379.55L596.7 378.85L599.3 377L599.2 379.55M598.2,369.45L599.65 368.45M618.65,360.75L618.65 360.25L619.15 360.3L618.65 360.75M609.45,361.4L608.05 362.45M620.35,383.15L620.35 384.8L618.65 384.35L620.35 383.15M527.75,373.4L575.85 385.4M416.8,333.8L542.95 243.8M449.3,342.85L489.25 352.85M141.05,313.1L172.8 321L172.75 321L140.95 313.15L141.05 313.1M139.85,343.7L126.05 340.25M100.8,331.8L106.8 330.15M296.25,249.55L296.5 249.4M178.3,312.95L181.85 310.4M319.4,412.8L318.8 413.25M273.3,468.35L273.3 468.1L273.5 468.2L273.3 468.35M257.85,519.25L267.2 512.65M196.5,498.75L204.15 493.35M535.45,416.25L528.4 421.25M502.1,433.8L504.45 432.15L504.5 432.2L502.1 433.8M508.1,439.75L506.2 439.3L508.1 438L508.1 439.75M521.85,447.25L521.85 446.95L522.2 446.95L521.85 447.25M446.4,398.7L444.9 399.7L446.4 398.65L446.4 398.7M408,429.5L408.05 427.9L409.6 428.3L408 429.5M426.8,412.65L424.9 414.05M450.95,493.3L451.5 493.45M329.5,482.15L327.4 483.55L329.4 482.1L329.5 482.15M367.5,446.35L375.45 444.75M414.35,516.1L417.5 516.9L405.8 525.3L405.8 529.25L401.65 528.15L414.35 519.1L414.35 516.1M330.6,211.35L305.2 214.3M597.95,406.9L618.3 392.45" />
<path style="fill:none;stroke-width:8;stroke-linecap:round;stroke-linejoin:round;stroke-miterlimit:3;stroke:#00C2FF;stroke-opacity:1" d="M92.65,340.05L148.55 353.95M930.65,149.75L887.65 138.95M805.95,148.15L816 141.05M826.5,133.55L829.55 131.4M826.4,173.35L826 172.9M931.55,149.95L934.6 147.8M915.5,161.4L920.25 158M1007.8,124.8L794.9 71.75M741.9,117.55L722.85 112.85M785.75,158.15L662.85 127.55M824.05,109.05L808.85 105.35M755.2,120.65L763.5 114.75M754.9,120.8L753.85 120.55M759.35,174.5L772.55 165.15M788.5,214.9L772.85 211M806.55,227.45L804.3 229.05L760.15 218.1M802.55,242.1L746.1 228.1M760.45,290.95L769.3 284.7M795.8,251.6L797.75 250.25M686,230.6L683.55 230.85L631.3 217.85M750.4,298.1L726.75 292.25M676.05,328.7L677.7 329.15M649.4,321.9L655.8 317.35M666.7,326.45L661.2 325.05M725.3,383.25L721.8 385.7L668.1 391.05L632.3 382.2M304.9,243.4L324 229.8M362.65,369.8L355.65 368.1M510.95,337.75L468.9 327.25M435.35,374.35L442.85 369.05M604.75,270.8L567.85 261.65M698.65,295.05L646.15 281.95M536.25,293.9L538.05 292.65M511.95,319.2L522.5 318.25M511.6,319.25L510.65 319M588.05,376.75L534.65 363.45M648.9,321.95L641.45 320.1M627.55,354.3L635.5 348.7M239.5,212.55L168.1 194.75L167.6 194.65M118.4,315.2L120.95 315.85M139.9,340.15L141.75 338.85M267.35,270.25L269.9 268.4M258.85,276.25L245.95 285.5L185.35 270.4M211.6,213.75L238.4 220.4M279.3,261.7L218.8 246.55M193.8,225.1L201.35 219.75M190.25,304.4L197.45 299.3M388.6,439.95L297.1 417.15M341.7,464.35L261.6 444.45M244.1,483.6L260.4 472.05M342.6,472.75L337.85 476.15L248.7 453.95M215.85,476.55L212.55 471M220.65,504.85L227.3 500.15M425.45,571.65L319.35 545.15M495.1,544.9L596.7 472.35M544.6,410.35L517.6 403.7M499.4,458.5L500.65 457.65M512.9,426.15L476.35 417M372.55,390.95L433.05 406.05M498.85,458.4L439.4 443.6M402.85,518.9L349.3 505.65M439.2,561.15L332.9 534.65M349.85,578.95L367.4 566.45M436.75,503.2L440.15 500.75M490.8,546.05L417.65 527.8M439.7,561.3L451.75 552.7" />
<path style="fill:none;stroke-width:8;stroke-linecap:round;stroke-linejoin:round;stroke-miterlimit:3;stroke:#00C2FF;stroke-opacity:1" d="M148.55,353.95L154.75 355.5L158.15 353.1L158.15 344.3L148.95 342L151.55 340.25L152.9 340.6L177.55 340.5L178.55 340.75Q189.45 333.05 191.7 331.2L187.2 330.05L182.05 322L177.05 320.75L177.15 320.75L178.55 321.1L190.55 312.25L190.3 312.25L217.1 293.35L217.5 293.3L239 298.55L239.1 298.55L239.45 298.7L247.85 292.75L247.5 292.7L335.8 229.65L335.9 222L327.55 219.95L360.15 216L252 293.1L252 300.85L417.1 342L438.95 326.45L452.3 329.7L458.75 325.15L458.75 327.7L434.45 345.05L422.8 342.15L399.7 358.75L367.5 350.75L346.05 366.1L346 373.75L353.45 375.65L341.95 383.75L341.95 391.5L344.3 392.1L331.6 401.15L331.5 407.7L306.5 401.5L268.05 428.95L267.6 429.2L236.65 451.35L236.6 454.35L226 451.75L207.95 464.5L207.9 468.1L182.95 485.85L177.45 486.35L152.45 504.2L152.4 511.9L163.2 514.6L144.3 528.05L144.25 535.75L350.1 587.1L377.25 567.7L425.25 579.65L461.4 577.2L488.85 557.65L488.85 553.65L493 554.7L608.2 472.5L608.3 464.75L563.45 453.6L612.9 418.35L612.95 410.65L606.6 409.05L627.35 394.3L627.45 389.05L667.95 399.2L722.35 393.7L795.45 341.55L795.55 333.8L780.6 311.15L753.4 304.3L779.45 285.75L793.7 289.3L846.95 251.35L846.95 247.9L909.1 263.35L1034.95 173.55L1034.95 169.85L1038.7 170.85L1057.15 157.75L1057.15 150.05L1048 134.85L1024.25 128.8L1037.45 119.4L1037.45 111.7L806.75 54.2L786.25 69.55L786.2 69.55L785.7 69.45L785.35 69.45L768.5 71.25L752.1 82.9L752.05 86.45L727.45 104L721.75 104.6L713 110.8L713 113.1L679.25 104.7L594.4 165.2L594.4 172.8L616.1 178.2L566.55 213.55L566.55 217.1L555.25 219.9L554.2 219.65L406 185.05L418.25 176.15L417.35 169.45L417.05 169.4L270.25 133.8L155.6 192.05L155.55 199.75L155.95 199.85L151.25 202.15L140.1 203.75L140.1 211.45L144.15 220.85L194.05 233.3L211.55 220.85L211.55 218.85L219 220.7L72.6 325.05L63.25 347.85L63.15 349.35L132.8 366.75L148.55 355.6L148.55 353.95M887.65,138.95L887.05 138.8L887.1 138.8L887.65 138.95M816,141.05L818 139.6L818.1 139.6L816 141.05M829.55,131.4L830.75 130.55L830.8 130.55L829.55 131.4M826,172.9L824.65 171.45L824.7 171.45L826 172.9M934.6,147.8L937.55 145.6L937.6 145.65L934.6 147.8M920.25,158L923.1 155.9L923.15 155.95L920.25 158M794.9,71.75L794.2 71.55L794.25 71.55L794.9 71.75M722.85,112.85L722.15 112.65L722.2 112.65L722.85 112.85M662.85,127.55L659.9 126.8L659.95 126.75L662.85 127.55M720.25,209.55L721.3 208.85L721.35 208.85L720.25 209.55L718.55 210.75L661.9 196.65L658.6 195.85L658.7 195.8L661.9 196.65M808.85,105.35L806.3 104.7L806.35 104.65L808.85 105.35M785.45,120.5L784.95 120.35L785 120.35L785.45 120.5L788.75 121.25L789.1 121.1L790.1 120.35L790.15 120.35L789.1 121.1M763.5,114.75L764.5 114L764.55 114L763.5 114.75M753.85,120.55L750.65 119.75L750.7 119.7L753.85 120.55M772.55,165.15L774.7 163.55L774.8 163.55L772.55 165.15M772.85,211L770.25 210.35L770.3 210.3L772.85 211M760.15,218.1L759.55 217.95L759.6 217.95L760.15 218.1M746.1,228.1L745.55 227.95L745.6 227.95L746.1 228.1M769.3,284.7L770.7 283.6L770.7 283.65L769.3 284.7M797.75,250.25L798.9 249.4L798.95 249.4L797.75 250.25M631.3,217.85L628.7 217.2L628.75 217.15L631.3 217.85M726.75,292.25L726.15 292.1L726.2 292.1L726.75 292.25M638.3,289.45L635.6 288.8L635.65 288.75L638.3 289.45L691.75 302.7L693.1 301.75L693.1 301.8L691.75 302.7M677.7,329.15L682.6 330.3L719.45 304.05L719.55 304.05L682.6 330.4L677.7 329.15M628.45,296.5L625.75 295.85L625.8 295.8L628.45 296.5L681.85 309.8L682.25 309.6L683.25 308.8L683.3 308.8L682.25 309.6M655.8,317.35L658.25 315.55L658.35 315.55L655.8 317.35M661.2,325.05L657.9 324.25L657.95 324.2L661.2 325.05M632.3,382.2L629.5 381.5L629.55 381.45L632.3 382.2M324,229.8L326.7 227.85L326.75 227.9L324 229.8M355.65,368.1L355.1 367.95L355.15 367.95L355.65 368.1M468.9,327.25L466.05 326.6L466.1 326.55L468.9 327.25M472.8,361.75L477.45 361.55L481.2 358.9L481.3 358.95L477.45 361.65L472.8 361.75L452.65 362.35L418.9 353.9L418.75 353.9L418.3 353.8L418.35 353.8L418.75 353.9M442.85,369.05L443.9 368.3L443.95 368.3L442.85 369.05M567.85,261.65L567.25 261.5L567.3 261.5L567.85 261.65M646.15,281.95L645.5 281.75L645.55 281.75L646.15 281.95M538.05,292.65L539.1 291.85L539.15 291.85L538.05 292.65M522.5,318.25L524.9 318L524.95 318.05L522.5 318.25M510.65,319L507.55 318.3L507.65 318.25L510.65 319M534.65,363.45L531.95 362.8L532 362.75L534.65 363.45M641.45,320.1L640.9 319.95L640.95 319.95L641.45 320.1M635.5,348.7L636.6 347.85L636.65 347.85L635.5 348.7M167.6,194.65L166.95 194.5L167 194.5L167.6 194.65M120.95,315.85L124.25 316.65L124.15 316.7L120.95 315.85M141.75,338.85L142.85 338.05L142.9 338.05L141.75 338.85M269.9,268.4L270.9 267.7L270.95 267.7L269.9 268.4M185.35,270.4L182.35 269.65L182.4 269.6L185.35 270.4M238.4,220.4L240.6 220.95L240.4 220.95L238.4 220.4M218.8,246.55L215.75 245.85L215.8 245.8L218.8 246.55M201.35,219.75L202.4 219L202.45 219L201.35 219.75M197.45,299.3L198.4 298.55L198.45 298.55L197.45 299.3M297.1,417.15L296.5 417L296.55 417L297.1 417.15M261.6,444.45L258.95 443.8L259 443.75L261.6 444.45M260.4,472.05L264.1 469.3L264.2 469.35L260.4 472.05M248.7,453.95L245.75 453.2L245.8 453.15L248.7 453.95M212.55,471L212.05 470.05L212.05 470L212.55 471M227.3,500.15L228.35 499.35L228.4 499.35L227.3 500.15M207.6,501.5L205.15 500.95L205.15 500.9L207.6 501.5L208.4 501.7L212.2 499L216 496.25L216.1 496.3L212.2 499M319.35,545.15L315.8 544.35L315.9 544.3L319.35 545.15M519.85,438.3L517.15 437.65L517.2 437.6L519.85 438.3L559.35 448.2L599.6 419.5L603.75 416.45L603.85 416.5L599.6 419.5M596.7,472.35L599.1 470.6L599.15 470.65L596.7 472.35M517.6,403.7L514.75 403L514.8 402.95L517.6 403.7M500.65,457.65L501.8 456.8L501.85 456.8L500.65 457.65M476.35,417L473.5 416.3L473.55 416.25L476.35 417M433.05,406.05L435.25 406.6L436.35 405.8L435.25 406.65L433.05 406.05M439.4,443.6L436.4 442.85L436.45 442.8L439.4 443.6M349.3,505.65L348.6 505.45L348.65 505.45L349.3 505.65M332.9,534.65L330.3 534L330.35 533.95L332.9 534.65M367.4,566.45L368.55 565.6L368.6 565.6L367.4 566.45M440.15,500.75L442.25 499.25L442.35 499.25L440.15 500.75M417.65,527.8L414.9 527.15L414.95 527.1L417.65 527.8M451.75,552.7L455.7 549.8L455.8 549.85L451.75 552.7" />
<path style="fill:#999999;fill-opacity:1" d="M377.45,206.25L366.3 214.25L236.25 230.05L117.8 314.55L123.55 316L140.3 312.4L172.25 320.3L176.6 320.05L181.6 321.35L186.8 329.4L191.3 330.5L178.15 340.15L177.1 339.85L152.4 339.95L134.8 335.55L131.55 329.95L105.35 323.45L94.3 331.3L99.35 332.55L99.35 334.1L91.95 339.45L148.05 353.4L148.05 355L132.25 366.2L62.35 348.8L62.45 347.25L71.9 324.4L218.7 219.7L150.7 202.75L150.7 201.15L155.5 198.75L243.15 220.7L377.55 204.7L377.45 206.25" />
<path style="fill:#999999;fill-opacity:1" d="M871.8,97.7L844.7 91L833.25 99.15L785.45 87.25L785.45 85.7L800.6 74.95L926.2 106.3L926.2 107.8L919.5 112.65L921.1 115.3L921.1 116.85L897.05 134L869.7 135.95L822.2 169.85L827.2 175.65L827.2 177.25L808.75 190.35L790.9 192.25L721.8 241.55L725.6 247.65L725.6 249.2L705.75 263.35L659.65 268.2L608.4 304.75L615.7 316.4L688.55 334.6L688.55 336.15L666.9 351.6L594.05 333.4L563.7 336.75L512.2 373.45L524 391.55L524 393.1L506.4 405.6L481 407.55L411.1 457.45L415.05 463.7L415.05 465.25L396.4 478.4L379 480.4L332.65 513.45L338.7 523.05L338.7 524.6L314.9 541.6L288.7 545.15L169.8 515.5L169.8 513.85L188.5 500.5L239.85 513.25L239.85 514.9L229.9 521.95L257.35 528.75L259.65 527.15L257.8 524.25L257.8 522.6L269.95 513.95L264.05 505.35L198.8 489.05L176.85 491.35L176.85 489.75L207.7 467.8L214.75 479.85L301.45 501.55L308.25 500.5L350.15 470.6L346.85 465.65L346.95 464.15L367.25 449.6L384.15 446.4L449.6 399.65L435.75 378.8L435.75 377.25L452.5 365.35L477.85 364.6L532.6 325.6L526.3 314.65L508.7 310.3L491.85 311.65L464 304.75L464 303.15L495.7 280.65L523.75 287.45L528.4 294.65L545.95 299.05L574.3 295.85L629.05 256.85L624.3 249.5L559.35 233.3L490.35 281.25L287.85 214.5L405.5 185L558 222.75L567.45 216.05L571.25 222.55L635.5 238.65L692.7 232.6L761.25 183.4L760.7 178.35L760.7 176.85L779.4 163.6L791.65 161.8L839 127.95L748.75 105.45L722.9 108.35L722.9 106.8L753.5 84.95L759.85 95L825.15 111.3L847.85 108.95L860.85 99.65L870.65 98.65L871.8 97.7" />
<path style="fill:#7F7F7F;fill-opacity:1" d="M1059.45,149.1L1059.45 156.85L1041 170L1037.2 169L1037.2 172.75L910.95 262.85L848.65 247.3L848.65 250.75L795.2 288.85L780.9 285.3L754.75 303.9L782.1 310.75L797.05 333.45L797 341.2L723.65 393.55L669.05 399.1L628.45 388.9L628.35 394.15L607.5 408.95L613.9 410.55L613.8 418.3L564.25 453.65L609.2 464.85L609.15 472.6L493.55 555.05L489.4 554.05L489.4 558.05L461.85 577.65L425.65 580.15L377.45 568.15L350.25 587.6L143.7 536.1L143.8 528.35L162.75 514.85L151.85 512.15L151.95 504.4L158.9 499.4L159.35 499.15L177 486.55L199.3 484.25L264.9 500.55L271.55 510.45L271.45 518.1L261.15 525.45L261.1 531.35Q260.05 532.1 259.05 532.8L289.15 540.35L302.9 538.15L302.9 538.3L303.25 538.4L303.25 538.15L315.05 536.8L335.3 522.35L333.5 519.6L333.25 519.1L333.15 519.1L331.9 516.95L331.95 509.25L350.85 495.75L354 496.5L354 493.5L378.3 476.2L378.35 475.65L379.15 475.6L379.2 475.5L379.5 475.5L396.55 473.7L411.6 463L410.35 460.95L410.35 453.3L449.85 425.1L453.95 426.1L454 422.1L481.15 402.75L506.55 400.8L520.55 390.85L511.4 377L511.5 369.25L553.9 338.9L557.1 339.75L557.1 336.7L563.85 331.95L594.5 328.6L662.85 345.7L662.75 349.85L680.35 337.3L615.95 321.25L615.75 321.3L615.7 321.25L615 321.05L615 320.1L607.8 308.4L607.5 308.4L607.5 308.05L607.45 307.95L607.5 300.25L608.05 300.3L614.4 295.8L617.55 296.6L617.65 293.5L647.55 272.1L648 271.85L659.8 263.45L705.85 258.6L706.2 258.6L722.2 247.05L721 245.05L721.1 237.35L726.2 233.7L726.6 233.45L748.2 217.95L751.75 218.9L751.85 215.4L791.05 187.45L808.9 185.55L823 175.55L821.2 173.5L821.3 165.85L836.95 154.65L837.35 154.4L847.3 147.25L851.2 148.25L851.2 144.45L869.8 131.2L897.2 129.2L900.15 127.1L900.6 126.85L915.7 115.95L916.15 115.7L918.7 113.85L918.8 109.15L874.4 98.1L874.3 101.15L871.25 103.4L861.5 104.4L848.4 113.75L825.35 116.15L799.35 109.65L798.6 109.4L759.85 99.8L753.35 89.55L753.45 81.8L769.95 70.05L786.85 68.3L787.2 68.3L787.7 68.35L808.3 53L1039.75 110.7L1039.75 118.45L1026.45 127.85L1050.35 133.9L1059.45 149.1M1049.6,141.8L926.75 111.2L922 114.6L921.9 117.15L1036.5 145.7L1036.5 153.45L1028.95 158.8L1040.75 161.8L1055.3 151.4L1049.6 141.8M1030.55,116.55L808.55 61.25L795.7 70.4L1017.7 125.75L1030.55 116.55M1027.3,151.6L916.4 123.85L909.25 128.95L1020.2 156.7L1027.3 151.6M757.7,87.15L760.6 91.8L799.1 101.45L807 95.8L785.25 90.4L785.35 82.65L792.3 77.65L787.05 76.35L770.45 78.05L757.7 87.15M794.45,84.5L833.45 94.3L840.05 89.6L801.05 79.85L794.45 84.5M856.05,99.9L859 97.75L845.15 94.3L842.2 96.4L856.05 99.9M415.85,468.35L398.95 480.35L451.9 493.6L451.8 501.25L415.15 527.45L493.3 546.9L600.05 470.75L526.95 452.45L491 478.2L415 459.25L415.85 460.6L415.85 468.35M373.95,487.65L437.1 503.35L442.7 499.45L379.5 483.65L373.95 487.65M363.05,495.4L419.4 509.4L421.8 507.7L365.45 493.7L363.05 495.4M414.65,516.4L414.65 519.35L401.9 528.45L406.1 529.55L406.1 525.55L417.8 517.15L414.65 516.4M405.5,517.5L351.1 503.95L348.7 505.65L403.1 519.2L405.5 517.5M338.75,512.7L393.15 526.3L394.7 525.2L340.3 511.7L338.75 512.7M330.35,534.3L440.1 561.7L456.25 550.2L451.45 549L444.25 554.1L339.2 527.95L330.35 534.3M302.65,546.3L289.05 548.4L169.3 518.6L152.95 530.25L350 579.35L368.75 566L305.8 550.3L302.65 546.3M315.8,544.7L425.8 572.05L461.4 569.6L480.2 556.15L464.9 552.35L440.35 569.85L321.85 540.35L315.8 544.7M231.65,516.05L189.1 505.4L179.4 512.2L178.7 512.8L228.1 525.05L228.2 518.5L231.65 516.05M224.45,498.6L216.8 504.15L220.35 505.05L228.1 499.55L224.45 498.6M240.15,510L247.8 504.5L236.75 501.65L229.05 507.2L240.15 510M256.55,506.6L237.3 520.35L257.6 525.45L257.7 525.4L257.7 519.5L267.05 512.9L264.15 508.55L256.55 506.6M179.15,504.05L188.85 497.15L196.15 498.95L203.8 493.5L199.05 492.35L177.45 494.55L168 501.25L179.15 504.05M204.8,501.15L208.05 501.95L215.75 496.5L212.55 495.65L204.8 501.15M911.55,171.45L847.55 155.5L846 156.5L910.1 172.5L911.55 171.45M925.05,155.05L868.05 140.85L860.4 146.3L917.35 160.6L925.05 155.05M939.6,144.7L900.85 135L897.7 137.2L888.85 137.9L933.5 149.05L939.6 144.7M910.3,180.75L837.6 162.55L826.3 170.6L828.1 172.65L828 180.4L825.45 182.15L963.8 216.7L1028 170.85L951 151.65L910.3 180.75M955.3,222.7L816.95 188.2L809.4 193.65L791.55 195.45L783.45 201.2L802.5 205.95L802.5 213.7L798.75 216.35L823.9 222.65L823.85 230.35L821.2 232.25L910.7 254.6L955.3 222.7M825.6,108.05L846.95 105.75L815.7 98.05L807.85 103.65L825.6 108.05M746.9,227.3L804.1 241.5L805.65 240.4L748.45 226.2L746.9 227.3M760.95,217.3L805.8 228.4L808.1 226.8L763.25 215.65L760.95 217.3M725.35,242.7L726.5 244.55L726.45 252.3L714.7 260.65L794.95 280.7L839.5 248.9L819.15 243.8L797.55 259.25L726.85 241.6L725.35 242.7M735.25,235.55L797.3 251L800.45 248.8L738.4 233.35L735.25 235.55M774.95,207.25L771.65 209.65L790 214.2L793.3 211.85L774.95 207.25M812,232.4L810.5 233.5L812 233.85L812 232.4M781.35,318.7L734.6 307.05L630.45 381.3L669.25 390.95L723.1 385.55L792.65 335.95L781.35 318.7M761.3,290.9L772.15 283.15L756.2 279.15L756.1 286.7L753.05 288.85L761.3 290.9M752.8,296.9L743.85 294.7L743.95 286.95L747 284.85L683.5 269.05L678.75 269.45L729.85 282.2L729.75 289.95L727.45 291.65L751.75 297.7L752.8 296.9M720.55,288.1L658.6 272.6L656.75 273.95L718.7 289.45L720.55 288.1M713.6,301.75L676.55 328.2L683.75 330.05L720.8 303.65L713.6 301.75M730,300.4L730 301.95L731.55 300.85L730 300.4M552.7,348.15L608.95 362.2L610.4 361.2L554.15 347.15L552.7 348.15M447.65,435.05L510.9 450.85L513.35 449.05L450.1 433.35L447.65 435.05M474,416.25L513.5 426.1L522.6 419.65L529.05 421.2L536.1 416.15L506.7 408.85L481.65 410.8L474 416.25M463.1,424L502.65 433.85L505.1 432.15L465.6 422.3L463.1 424M532.65,362.55L588.9 376.55L590.6 375.3L534.4 361.25L532.65 362.55M528.4,373.15L576.65 385.25L580.3 382.5L524.2 368.55L516 374.45L516.15 374.7L528.4 373.15M520.9,382.15L524.75 388.3L598.85 406.8L619.25 392.3L589.1 384.7L576.9 393.4L528.2 381.25L520.9 382.15M545.2,418.05L517.75 437.65L560.1 448.2L604.7 416.4L524.5 396.35L515.4 402.9L545.3 410.3L545.2 418.05M542.85,355.25L599.1 369.25L600.55 368.25L544.3 354.2L542.85 355.25M684.45,308.4L628.15 294.35L626.75 295.4L683 309.4L684.45 308.4M694.3,301.35L638.05 287.3L636.6 288.35L692.85 302.35L694.3 301.35M646.55,281.3L702.7 295.3L704.5 294.05L648.25 280L646.55 281.3M667.8,326.05L676.95 319.55L668.1 317.3L658.95 323.85L667.8 326.05M650.25,321.65L659.45 315.2L651.05 313.05L641.95 319.6L650.25 321.65M646.35,349.7L609.4 376.15L616.6 377.9L653.6 351.5L646.35 349.7M614.5,310.1L616.35 313.15L623.15 312.2L614.5 310.1M591.7,337.05L590.6 344.6L593.9 345.45L603 338.9L594.25 336.7L591.7 337.05M589.4,339.6L589.75 337.2L569.6 339.35L584.5 343.05L589.4 339.6M611,349.7L620.1 343.15L611.75 341.1L602.6 347.6L611 349.7M628.5,354.05L637.7 347.6L628.85 345.35L619.7 351.85L628.5 354.05M620.1,360.05L619.6 360L619.6 360.5L620.1 360.05M600.2,376.8L597.6 378.7L600.15 379.35L600.2 376.8M621.3,382.95L619.6 384.2L621.3 384.65L621.3 382.95M522.5,447.3L522.85 447L522.5 446.95L522.5 447.3M508.65,439.8L508.65 438L506.8 439.3L508.65 439.8M502.45,456.9L439.25 441.05L436.75 442.85L500 458.6L502.45 456.9M496.45,465.9L428.25 448.9L422.55 452.95L490.75 469.95L496.45 465.9" />
<path style="fill:#7F7F7F;fill-opacity:1" d="M841.5,131.45L793 166.05L793 166.45L792.2 166.55L792.15 166.6L791.9 166.6L780.05 168.3L762.4 180.9L762.4 187.85L762.2 187.95L762.2 188.3L761.85 188.2L735.5 207L731.7 206.05L731.7 209.95L693.3 237.35L635.75 243.45L571.25 227.3L567.3 220.6L567.3 212.85L617.05 177.4L595.3 172L595.3 164.35L667.55 112.75L667.95 112.5L680.35 103.65L714.3 112.05L714.3 109.75L723.05 103.55L749.2 100.65L841.6 123.7L841.5 131.45M818.8,126.15L815.4 125.3L811.15 128.35L814.55 129.2L818.8 126.15M827.6,128.3Q825.45 129.8 823.25 131.35L828.1 132.6L832.4 129.55L827.6 128.3M791.6,119.35L787.8 118.45L786.45 119.35L790.25 120.3L791.6 119.35M798.95,122.5L805.4 124.1L806.75 123.1L800.3 121.5L798.95 122.5M774.7,115.1L765.1 122L769.45 123.1L779.05 116.2L774.7 115.1M799.1,153.3L668.2 120.65L661 125.8L791.9 158.45L799.1 153.3M780.15,128.8L772 134.6L680.6 111.8L676.7 114.6L807.5 147.25L819.65 138.65L780.15 128.8M765.95,113L761.6 111.9L752 118.75L756.35 119.8L765.95 113M749.05,108.75L723.55 111.55L723.45 111.65L743.25 116.55L752.85 109.65L749.05 108.75M760.75,173.7L776.25 162.7L652.55 131.85L604.45 166.1L680.1 185L706.45 166.2L760.75 179.7L760.75 173.7M736.8,197.75L690.3 186.15L688.85 187.2L735.35 198.75L736.8 197.75M722.6,208.1L662.5 193.15L659.7 195.1L719.8 210.05L722.6 208.1M711.4,216.1L651.3 201.15L649.4 202.4L709.5 217.45L711.4 216.1M629.7,216.5L684.7 230.2L687.15 229.95L630.65 215.85L629.7 216.5M620.8,222.9L660.3 232.75L661.65 232.6L621.3 222.55L620.8 222.9M607.35,228.15L636 235.3L637.45 235.2L607.85 227.8L607.35 228.15M598.6,226.05L649.35 189.8L621.2 182.85L571.4 218.4L572 219.4L598.6 226.05M701,223.5L640.9 208.45L639.05 209.8L699.15 224.75L701 223.5" />
<path style="fill:#7F7F7F;fill-opacity:1" d="M251.8,292.65L387.3 196.05L540.95 234.35L540.95 231.75L545.05 228.85L560 228.5L625.1 244.75L630.55 253.25L630.45 260.95L574.95 300.65L546.25 303.9L528.4 299.4L523.7 292.15L516 290.2L516 284.35L509.7 288.85L496.2 285.45L472.95 302L478.5 303.4L478.4 309.35L484.6 304.9L492.35 306.85L509.2 305.4L527.05 309.9L534.1 322.1L534.1 329.8L478.5 369.4L453.15 370.2L440.15 379.45L451.2 396.1L451.15 403.85L415 429.6L408.3 427.9L408.2 434.45L384.75 451.2L367.9 454.35L351.25 466.25L351.7 466.9L351.85 467L351.85 467.25L352 467.4L351.95 475.15L351.45 475L308.95 505.35L301.8 506.35L214.75 484.7L207.55 472.35L207.6 464.6L225.7 451.8L236.35 454.4L236.45 451.35L267.45 429.15L267.9 428.9L275.2 423.65L275.6 423.4L306.45 401.4L331.55 407.6L331.6 401.05L344.35 391.95L342 391.35L342.1 383.6L353.55 375.45L346.05 373.6L346.15 365.85L367.65 350.45L399.95 358.45L423.15 341.9L434.8 344.75L451.7 332.7L452.15 332.45L459.2 327.35L459.2 324.8L452.75 329.4L439.3 326.05L417.4 341.7L251.8 300.4L251.8 292.65M284.3,425.5L367.65 446.35L375.65 444.8L287.95 422.95L284.3 425.5M418.65,353.55L453.1 362.1L478 361.45L481.8 358.7L441.25 348.6L435.05 353L423.4 350.15L418.65 353.55M351.25,385.5L435.65 406.55L436.85 405.65L352.45 384.65L351.25 385.5M351.1,395.5L425.2 413.95L427.15 412.6L353.15 394.05L351.1 395.5M319.4,412.75L306.7 409.55L306.05 410.05L318.8 413.2L319.4 412.75M297.55,416.1L296.45 416.95L388.85 439.95L399.05 432.55L328.15 414.9L318.95 421.45L297.55 416.1M340.7,402.9L414.85 421.35L416.7 420L342.65 401.55L340.7 402.9M400.2,366.7L367.9 358.65L355.25 367.7L362.8 369.6L362.75 377.35L360.95 378.5L445.35 399.6L446.8 398.55L435.65 381.9L435.75 374.2L444.35 368.05L410.15 359.55L400.2 366.7M261,294.55L417.15 333.45L543.7 243.2L387.55 204.25L261 294.55M346.85,460.95L351.25 457.8L268.15 437.1L258.8 443.8L346.85 465.7L346.85 460.95M342.65,472.85L250.3 449.85L245.5 453.25L337.9 476.25L342.65 472.85M319.05,489.7L271.6 477.9L270.35 478.8L317.75 490.65L319.05 489.7M309.25,496.65L256.15 483.4L252.6 485.95L301.95 498.3L308 497.35L308.4 497.35L309.25 496.65M329.5,482.3L282.05 470.5L280.1 471.85L327.45 483.65L329.5 482.3M273.15,468.2L273.15 468.45L273.4 468.25L273.15 468.2M233.7,481.2L243.9 483.75L264.05 469.45L253.75 466.9L233.7 481.2M245.1,464.7L225.95 459.95L211.7 470.15L215.5 476.7L224.95 479.05L245.1 464.7M577.75,253.9L615.45 263.35L626.2 255.6L624.25 252.7L611.45 249.5L603.6 255L583.4 250L577.75 253.9M568,260.95L605.65 270.3L606.95 269.4L569.35 260.05L568 260.95M552.85,245.05L540.3 254L545.75 255.35L545.75 261.3L551.95 256.9L559.35 258.75L574.65 247.8L552.85 242.35L552.85 245.05M531.85,260.05L504.7 279.4L509.45 280.6L536.55 261.2L531.85 260.05M550.5,266.3L595.55 277.55L597.25 276.35L552.2 265.15L550.5 266.3M540.3,273.55L585.35 284.75L587.05 283.6L542 272.35L540.3 273.55M546.4,295.8L553.9 294.9L548.55 293.5L545.65 295.55L546.4 295.8M539.85,291.4L527.05 288.15L529.15 291.5L536.95 293.45L539.85 291.4M560.85,294.05L574.45 292.6L576.9 290.8L531.85 279.6L530.15 280.75L556.7 287.4L560.85 294.05M528.3,325.5L512.05 327L477.55 318.35L475.5 319.8L520.55 331L528.3 325.5M508.15,317.9L512.25 318.85L525.6 317.65L512.9 314.5L508.15 317.9M512.05,337.05L467 325.8L466.5 326.25L511.55 337.45L512.05 337.05M503.15,343.5L462.5 333.4L460.8 334.55L501.45 344.7L503.15 343.5M464.55,308.05L447.8 320.05L452.5 321.25L469.25 309.25L464.55 308.05M449.7,342.55L490.25 352.7L492.95 350.7L452.4 340.6L449.7 342.55" />
<path style="fill:#7F7F7F;fill-opacity:1" d="M416.85,177.25L377.95 205.05L305.1 213.6L335.95 221.35L335.85 229L247.3 292.25L247.65 292.35L239.25 298.3L238.8 298.1L238.7 298.1L217.2 292.85L216.8 292.9L189.95 311.9L190.2 311.9L178.1 320.7L176.7 320.4L172.35 320.65L140.45 312.75L123.7 316.3L115.75 314.35L115.8 306.6L137.3 291.2L137.75 290.95L154 279.35L154.4 279.05L221.9 230.9L222.4 230.6L230.65 224.65L231.05 224.4L236.15 220.75L240.35 220.25L211.25 213.05L211.2 220.15L193.7 232.65L143.6 220.15L139.55 210.75L139.55 203L159.7 200.2L155 199L155.1 191.25L270.1 132.9L416.85 169.5L416.85 177.25M302.05,221L244.85 227.8L304.85 242.8L326.8 227.2L302.05 221M296.45,248.8L231.35 232.6L231.05 232.75L296.2 249L296.45 248.8M407.7,175.4L270.25 141.1L166.5 193.75L243.4 212.85L377.45 196.95L407.7 175.4M202.1,218.3L161.05 208.1L143.7 210.5L144.45 212.25L193.4 224.4L202.1 218.3M180.6,268.8L245.7 285L258.7 275.75L241.35 271.4L234.65 276.2L186.9 264.3L180.6 268.8M195.4,258.25L234.4 267.95L241.1 263.2L267.2 269.7L270.75 267.15L205.65 250.95L195.4 258.25M287.7,255L222.65 238.8L214.05 244.9L279.2 261.15L287.7 255M198.1,298.1L154.65 287.25L146.5 293.1L189.85 303.95L198.1 298.1M215.5,285.6L172.15 274.8L163.15 281.2L206.5 292.05L215.5 285.6M181.45,310L138 299.15L126 307.7L140.55 304.55L172.5 312.55L176.95 312.3L177.85 312.55L181.45 310" />
<path style="fill:#7F7F7F;fill-opacity:1" d="M152.6,338.8L148.45 341.7L157.65 344L157.65 352.85L154.25 355.25L89.9 339.25L90 331.5L92.25 329.8L92.35 323.35L105.45 314L132.15 320.7L135.35 326.35L152.55 330.6L152.6 338.8M100.1,331.5L120.3 325.9L105.7 322.25L100.1 326.25L100.1 331.5M139.35,339.85L143.95 336.6L134.5 334.25L132.5 330.75L111.55 336.45L139.3 343.4L139.35 339.85" />
</g>
</svg>
