<?xml version="1.0" encoding="utf-8"?>
<!-- Generator: Adobe Illustrator 15.0.2, SVG Export Plug-In . SVG Version: 6.00 Build 0)  -->
<!DOCTYPE svg PUBLIC "-//W3C//DTD SVG 1.1//EN" "http://www.w3.org/Graphics/SVG/1.1/DTD/svg11.dtd">
<svg version="1.1" id="Layer_1" xmlns:author="http://www.sothink.com"
	 xmlns="http://www.w3.org/2000/svg" xmlns:xlink="http://www.w3.org/1999/xlink" x="0px" y="0px" width="570px" height="310px"
	 viewBox="0 0 570 310" enable-background="new 0 0 570 310" xml:space="preserve">
<g id="_x38_1" transform="matrix(1, 0, 0, 1, 0.25, 0.15)">
	<path fill="none" stroke="#B2B2B2" stroke-width="0.5" stroke-linejoin="round" stroke-miterlimit="3" d="M71.5,255.6l6.55,1.6
		L68.8,263.8l-6.55-1.601L71.5,255.6z"/>
	<path fill="none" stroke="#B2B2B2" stroke-width="0.5" stroke-linejoin="round" stroke-miterlimit="3" d="M71.15,255.55l-9.25,6.6
		l-4.3-1.05l-5.7,4.05l-11.2-2.8L50.95,255l12.7-1.301L71.15,255.55z"/>
	<path fill="none" stroke="#B2B2B2" stroke-width="0.5" stroke-linejoin="round" stroke-miterlimit="3" d="M96.95,261.9l-9.25,6.65
		l-11.25-2.8l9.3-6.601L96.95,261.9z"/>
	<path fill="none" stroke="#B2B2B2" stroke-width="0.5" stroke-linejoin="round" stroke-miterlimit="3" d="M85.3,259l-9.25,6.649
		l-6.8-1.7l9.25-6.649L85.3,259z"/>
	<path fill="none" stroke="#B2B2B2" stroke-width="0.5" stroke-linejoin="round" stroke-miterlimit="3" d="M51.65,265.3l-5.1,3.7
		l-0.15-0.051l1.25-0.899l-11.1-2.75l3.9-2.8L51.65,265.3z"/>
	<path fill="none" stroke="#B2B2B2" stroke-width="0.5" stroke-linejoin="round" stroke-miterlimit="3" d="M101.9,263.25l3.8,5.6
		l-7.6,5.4l1.5,2.35l-1.55,1.15L81.4,273.6l16.05-11.45L101.9,263.25z"/>
	<path fill="none" stroke="#B2B2B2" stroke-width="0.5" stroke-linejoin="round" stroke-miterlimit="3" d="M211.3,219l41.9,10.449
		l-6.15,4.4l-41.9-10.45L211.3,219z"/>
	<path fill="none" stroke="#B2B2B2" stroke-width="0.5" stroke-linejoin="round" stroke-miterlimit="3" d="M240.65,238.4
		l-41.9-10.45l6.15-4.399L246.8,234L240.65,238.4z"/>
	<path fill="none" stroke="#B2B2B2" stroke-width="0.5" stroke-linejoin="round" stroke-miterlimit="3" d="M243.2,239.2L235.1,245
		l-44.8-11.15l8.1-5.8L243.2,239.2z"/>
	<path fill="none" stroke="#B2B2B2" stroke-width="0.5" stroke-linejoin="round" stroke-miterlimit="3" d="M169.7,248.5
		l41.85,10.449l-8,5.7L161.7,254.25L169.7,248.5z"/>
	<path fill="none" stroke="#B2B2B2" stroke-width="0.5" stroke-linejoin="round" stroke-miterlimit="3" d="M161.55,254.5l37.8,9.449
		l-6.1,4.351l-37.8-9.4L161.55,254.5z"/>
	<path fill="none" stroke="#B2B2B2" stroke-width="0.5" stroke-linejoin="round" stroke-miterlimit="3" d="M183.65,274.05
		l-36.7-9.15l6.15-4.35l36.7,9.149L183.65,274.05z"/>
	<path fill="none" stroke="#B2B2B2" stroke-width="0.5" stroke-linejoin="round" stroke-miterlimit="3" d="M146.7,265.1l36.7,9.15
		l-5.6,4l-34.65-8.65l-0.8-1.35L146.7,265.1z"/>
	<path fill="none" stroke="#B2B2B2" stroke-width="0.5" stroke-linejoin="round" stroke-miterlimit="3" d="M143.25,269.8
		l68.35,17.05l-3.95,2.85l-61.5-15.35L143.25,269.8z"/>
	<path fill="none" stroke="#B2B2B2" stroke-width="0.5" stroke-linejoin="round" stroke-miterlimit="3" d="M190.15,234.1l45.2,11.3
		l21.2-15.1l47.65,11.85l-67.5,48.2l-50.6-12.65L212.35,259l-42-10.5l9.8-1.051l11-7.85l-2.7-4.3L190.15,234.1z"/>
	<path fill="none" stroke="#B2B2B2" stroke-width="0.5" stroke-linejoin="round" stroke-miterlimit="3" d="M146,274.55l61.8,15.399
		l4.25-3l7.45,1.851l-14.2,10.149l-69.25-17.3L146,274.55z"/>
	<path fill="none" stroke="#B2B2B2" stroke-width="0.5" stroke-linejoin="round" stroke-miterlimit="3" d="M135.9,281.95l69.7,17.4
		L220.05,289l13.7,3.449l-15.8,11.25L197,305.15l-70.15-17.5l-1.8-2.25l7.15-0.8L135.9,281.95z"/>
	<path fill="none" stroke="#B2B2B2" stroke-width="0.5" stroke-linejoin="round" stroke-miterlimit="3" d="M126.35,287.7l41.7,10.4
		l-15.75,11.25L31.7,279.3l14.35-10.25l70.4,17.55l8.05-1.25L126.35,287.7z"/>
	<path fill="none" stroke="#B2B2B2" stroke-width="0.5" stroke-linejoin="round" stroke-miterlimit="3" d="M247.75,148.9l-5.5,3.95
		l-12.65-3.15l2.1-1.5l4.3,1.05l9.9-0.8L247.75,148.9z"/>
	<path fill="none" stroke="#B2B2B2" stroke-width="0.5" stroke-linejoin="round" stroke-miterlimit="3" d="M256.05,150.95l2.3,4.2
		l-10.6,0.95l-20.15-5l1.75-1.25l13.05,3.25l5.8-4.1L256.05,150.95z"/>
	<path fill="none" stroke="#B2B2B2" stroke-width="0.5" stroke-linejoin="round" stroke-miterlimit="3" d="M258.55,155.45
		l1.65,2.601l-7.45,5.3l-31.2-7.75l5.9-4.2l20.3,5.05L258.55,155.45z"/>
	<path fill="none" stroke="#B2B2B2" stroke-width="0.5" stroke-linejoin="round" stroke-miterlimit="3" d="M247.45,167.15L218.9,160
		l1.1-0.75l-2.65-0.65l3.95-2.85l31.2,7.8L247.45,167.15z"/>
	<path fill="none" stroke="#B2B2B2" stroke-width="0.5" stroke-linejoin="round" stroke-miterlimit="3" d="M241.5,171.4l-28.55-7.1
		l5.7-4.101l28.55,7.101L241.5,171.4z"/>
	<path fill="none" stroke="#B2B2B2" stroke-width="0.5" stroke-linejoin="round" stroke-miterlimit="3" d="M212.65,164.45l28.6,7.15
		l-6.35,4.5l-28.55-7.15L212.65,164.45z"/>
	<path fill="none" stroke="#B2B2B2" stroke-width="0.5" stroke-linejoin="round" stroke-miterlimit="3" d="M195.65,170.05l6.8,1.7
		l3.65-2.601l28.55,7.101l-6.95,4.949l-14.65,0.45l-24.95-6.25L195.65,170.05z"/>
	<path fill="none" stroke="#B2B2B2" stroke-width="0.5" stroke-linejoin="round" stroke-miterlimit="3" d="M187.85,175.6l24.8,6.15
		l-9.8,7l8.55,12.85l-2.9,2.1l-54.35-13.55l5.8-4.1l-9.15-2.3l12.2-8.7l18.95,4.75L187.85,175.6z"/>
	<path fill="none" stroke="#B2B2B2" stroke-width="0.5" stroke-linejoin="round" stroke-miterlimit="3" d="M153.9,190.35
		l54.35,13.55l-5.45,3.851l-54.35-13.5L153.9,190.35z"/>
	<path fill="none" stroke="#B2B2B2" stroke-width="0.5" stroke-linejoin="round" stroke-miterlimit="3" d="M154.25,195.9l48.3,12.05
		l-5.9,4.2l-48.25-12L154.25,195.9z"/>
	<path fill="none" stroke="#B2B2B2" stroke-width="0.5" stroke-linejoin="round" stroke-miterlimit="3" d="M148.15,200.3
		l48.25,12.05l-5.85,4.15l-48.3-12L148.15,200.3z"/>
	<path fill="none" stroke="#B2B2B2" stroke-width="0.5" stroke-linejoin="round" stroke-miterlimit="3" d="M139.05,207.95l-5.1,3.65
		l-12.2-3l5.1-3.65L139.05,207.95z"/>
	<path fill="none" stroke="#B2B2B2" stroke-width="0.5" stroke-linejoin="round" stroke-miterlimit="3" d="M139.55,208.15
		L186,219.75l-10.75,7.699L116.2,212.7l5.4-3.85l12.6,3.15L139.55,208.15z"/>
	<path fill="none" stroke="#B2B2B2" stroke-width="0.5" stroke-linejoin="round" stroke-miterlimit="3" d="M115.95,212.9L175,227.6
		l-2.4,1.7l-9.8,1.899L109.1,217.8L115.95,212.9z"/>
	<path fill="none" stroke="#B2B2B2" stroke-width="0.5" stroke-linejoin="round" stroke-miterlimit="3" d="M108.8,217.95l53.65,13.4
		l-4.3,3.05l-53.65-13.35L108.8,217.95z"/>
	<path fill="none" stroke="#B2B2B2" stroke-width="0.5" stroke-linejoin="round" stroke-miterlimit="3" d="M152.75,243.15
		L94.05,228.5l10.2-7.301l53.65,13.4l-7.35,5.2L152.75,243.15z"/>
	<path fill="none" stroke="#B2B2B2" stroke-width="0.5" stroke-linejoin="round" stroke-miterlimit="3" d="M145.3,248.8
		l-59.05-14.75l7.55-5.351l59.05,14.7L145.3,248.8z"/>
	<path fill="none" stroke="#B2B2B2" stroke-width="0.5" stroke-linejoin="round" stroke-miterlimit="3" d="M95.3,238.55l-16.55,11.8
		l-5.55-1.4l-4.1-7.05l10.3-7.35L95.3,238.55z"/>
	<path fill="none" stroke="#B2B2B2" stroke-width="0.5" stroke-linejoin="round" stroke-miterlimit="3" d="M124.15,261.75l-33.7-8.4
		l6.8-4.85l35.9,8.949l-5.2,3.75L124.15,261.75z"/>
	<path fill="none" stroke="#B2B2B2" stroke-width="0.5" stroke-linejoin="round" stroke-miterlimit="3" d="M139.15,253.15
		l-32.55-8.1l5.9-4.2l32.55,8.1L139.15,253.15z"/>
	<path fill="none" stroke="#B2B2B2" stroke-width="0.5" stroke-linejoin="round" stroke-miterlimit="3" d="M133.45,257.25
		l-32.6-8.101l5.5-3.95l32.55,8.15L133.45,257.25z"/>
	<path fill="none" stroke="#B2B2B2" stroke-width="0.5" stroke-linejoin="round" stroke-miterlimit="3" d="M106.55,241.4L90,253.2
		l-10.7-2.649l16.55-11.8L106.55,241.4z"/>
	<path fill="none" stroke="#B2B2B2" stroke-width="0.5" stroke-linejoin="round" stroke-miterlimit="3" d="M278.4,163.95L294,162.3
		l-0.85,6l-2.9,2.05l-15.4-3.85L278.4,163.95z"/>
	<path fill="none" stroke="#B2B2B2" stroke-width="0.5" stroke-linejoin="round" stroke-miterlimit="3" d="M305.9,164.55
		l-10.101,7.2l-5.1-1.301l2.899-2.1l0.9-6.1l1.55-0.15L305.9,164.55z"/>
	<path fill="none" stroke="#B2B2B2" stroke-width="0.5" stroke-linejoin="round" stroke-miterlimit="3" d="M315.95,167.05
		l-10.101,7.2l-9.6-2.4l10.1-7.2L315.95,167.05z"/>
	<path fill="none" stroke="#B2B2B2" stroke-width="0.5" stroke-linejoin="round" stroke-miterlimit="3" d="M316.4,167.15l9.85,2.45
		l-10.1,7.2l-9.851-2.45L316.4,167.15z"/>
	<path fill="none" stroke="#B2B2B2" stroke-width="0.5" stroke-linejoin="round" stroke-miterlimit="3" d="M272.55,168.3l37.8,9.399
		l-5.6,4L267,172.3L272.55,168.3z"/>
	<path fill="none" stroke="#B2B2B2" stroke-width="0.5" stroke-linejoin="round" stroke-miterlimit="3" d="M266.75,172.45
		l37.75,9.45l-5.55,3.95l-37.8-9.4L266.75,172.45z"/>
	<path fill="none" stroke="#B2B2B2" stroke-width="0.5" stroke-linejoin="round" stroke-miterlimit="3" d="M260.9,176.6l37.8,9.45
		l-5.75,4.1l-37.8-9.45L260.9,176.6z"/>
	<path fill="none" stroke="#B2B2B2" stroke-width="0.5" stroke-linejoin="round" stroke-miterlimit="3" d="M335.75,172.05
		l-26.5,18.899l-8.95-2.199l26.5-18.95L335.75,172.05z"/>
	<path fill="none" stroke="#B2B2B2" stroke-width="0.5" stroke-linejoin="round" stroke-miterlimit="3" d="M254.9,180.9l37.75,9.4
		l-6.9,4.95l-28.4-7.101l-7.2,0.9l-2.2-3.2L254.9,180.9z"/>
	<path fill="none" stroke="#B2B2B2" stroke-width="0.5" stroke-linejoin="round" stroke-miterlimit="3" d="M414.85,164.8
		L371.9,195.45l-31.7,3.15l-27.45-6.85l65.9-47.05l27.5,6.85L414.85,164.8z"/>
	<path fill="none" stroke="#B2B2B2" stroke-width="0.5" stroke-linejoin="round" stroke-miterlimit="3" d="M257.25,188.35
		l28.65,7.15l7.199-5.101L315.55,196L298.8,207.95l-43.6-10.899l-4.95-7.8L257.25,188.35z"/>
	<path fill="none" stroke="#B2B2B2" stroke-width="0.5" stroke-linejoin="round" stroke-miterlimit="3" d="M229.9,205.75l14.75-1.15
		l21.95,5.5l-8.85,6.3l-3.8-0.899l-5.35,3.8l-27.9-7L229.9,205.75z"/>
	<path fill="none" stroke="#B2B2B2" stroke-width="0.5" stroke-linejoin="round" stroke-miterlimit="3" d="M220.45,212.5l27.9,6.949
		l-6.15,4.4l-27.95-6.95L220.45,212.5z"/>
	<path fill="none" stroke="#B2B2B2" stroke-width="0.5" stroke-linejoin="round" stroke-miterlimit="3" d="M267.3,210L245,204.45
		l10.1-7.149l51.85,12.899L276,232.3l-29.55-7.4L267.3,210z"/>
	<path fill="none" stroke="#B2B2B2" stroke-width="0.5" stroke-linejoin="round" stroke-miterlimit="3" d="M369.95,92.2l-40-10
		l6.3-4.5l40.05,10L369.95,92.2z"/>
	<path fill="none" stroke="#B2B2B2" stroke-width="0.5" stroke-linejoin="round" stroke-miterlimit="3" d="M363.9,96.55l-40.051-10
		l5.851-4.15l40,10L363.9,96.55z"/>
	<path fill="none" stroke="#B2B2B2" stroke-width="0.5" stroke-linejoin="round" stroke-miterlimit="3" d="M323.6,86.75l40.051,9.95
		l-5.851,4.15l-40-9.95L323.6,86.75z"/>
	<path fill="none" stroke="#B2B2B2" stroke-width="0.5" stroke-linejoin="round" stroke-miterlimit="3" d="M280.8,93.9L312,71.65
		l21.2,5.3l-34.55,24.65L283,97.7L280.8,93.9z"/>
	<path fill="none" stroke="#B2B2B2" stroke-width="0.5" stroke-linejoin="round" stroke-miterlimit="3" d="M317.55,91.05l40,10
		l-3.5,2.5l-4.75,0.5l-37-9.25L317.55,91.05z"/>
	<path fill="none" stroke="#B2B2B2" stroke-width="0.5" stroke-linejoin="round" stroke-miterlimit="3" d="M312.05,95l36.55,9.1
		l-13.649,1.45L307,98.6L312.05,95z"/>
	<path fill="none" stroke="#B2B2B2" stroke-width="0.5" stroke-linejoin="round" stroke-miterlimit="3" d="M304.15,98.1l30.1,7.5
		l-13.6,1.45L299.1,101.7L304.15,98.1z"/>
	<path fill="none" stroke="#B2B2B2" stroke-width="0.5" stroke-linejoin="round" stroke-miterlimit="3" d="M289.45,110.75l-24.1-6
		l2-1.4l8.3-0.2l18.1,4.5L289.45,110.75z"/>
	<path fill="none" stroke="#B2B2B2" stroke-width="0.5" stroke-linejoin="round" stroke-miterlimit="3" d="M305.7,110.65l-4.351,3.1
		l-11.5-2.9c1.467-1,2.917-2.017,4.351-3.05L305.7,110.65z"/>
	<path fill="none" stroke="#B2B2B2" stroke-width="0.5" stroke-linejoin="round" stroke-miterlimit="3" d="M313.8,112.75l3.101,4.85
		l-8.351,5.95l-26.85-6.7l8-5.7l11.95,2.95l4.6-3.25L313.8,112.75z"/>
	<path fill="none" stroke="#B2B2B2" stroke-width="0.5" stroke-linejoin="round" stroke-miterlimit="3" d="M308.3,123.75l-5.5,3.9
		l-26.85-6.7l5.5-3.9L308.3,123.75z"/>
	<path fill="none" stroke="#B2B2B2" stroke-width="0.5" stroke-linejoin="round" stroke-miterlimit="3" d="M271.35,120.05l31.2,7.75
		l-5.7,4.1l-31.2-7.75L271.35,120.05z"/>
	<path fill="none" stroke="#B2B2B2" stroke-width="0.5" stroke-linejoin="round" stroke-miterlimit="3" d="M266.9,118.95
		l-20.7,14.75l-7.5-1.85l20.7-14.8L266.9,118.95z"/>
	<path fill="none" stroke="#B2B2B2" stroke-width="0.5" stroke-linejoin="round" stroke-miterlimit="3" d="M290.85,136.15
		L259.7,128.4l5.7-4.1l31.2,7.8L290.85,136.15z"/>
	<path fill="none" stroke="#B2B2B2" stroke-width="0.5" stroke-linejoin="round" stroke-miterlimit="3" d="M268.7,136.55l-6.4,4.6
		l-4.6-1.15l-2.75-4.25l-4.3-1.1l2.7-1.9L268.7,136.55z"/>
	<path fill="none" stroke="#B2B2B2" stroke-width="0.5" stroke-linejoin="round" stroke-miterlimit="3" d="M253.7,132.65l5.75-4.1
		l31.149,7.8l-6.149,4.4l-8,0.85l-2.45-3.9L253.7,132.65z"/>
	<path fill="none" stroke="#B2B2B2" stroke-width="0.5" stroke-linejoin="round" stroke-miterlimit="3" d="M273.6,137.85l2.4,3.8
		l-8.05,0.95l-5.15-1.25l6.45-4.6L273.6,137.85z"/>
	<path fill="none" stroke="#B2B2B2" stroke-width="0.5" stroke-linejoin="round" stroke-miterlimit="3" d="M227.3,147.2l-14.6,10.4
		l-7.45-1.9L219.8,145.3L227.3,147.2z"/>
	<path fill="none" stroke="#B2B2B2" stroke-width="0.5" stroke-linejoin="round" stroke-miterlimit="3" d="M174.55,84.25
		l96.55,24.05l-79.2,56.5l-96.55-24.05L174.55,84.25z"/>
	<path fill="none" stroke="#B2B2B2" stroke-width="0.5" stroke-linejoin="round" stroke-miterlimit="3" d="M460.25,23.7l-1.5,1.05
		l-5.75,0.6l-2.9,2.05l-12.85-3.2l6.5-4.6L460.25,23.7z"/>
	<path fill="none" stroke="#B2B2B2" stroke-width="0.5" stroke-linejoin="round" stroke-miterlimit="3" d="M399.75,10.05l9.8-1.05
		l7.8,1.95l-8.85,6.3l17.45,4.4L416.6,28.3l-22.649-5.65l-3.7-5.85L399.75,10.05z"/>
	<path fill="none" stroke="#B2B2B2" stroke-width="0.5" stroke-linejoin="round" stroke-miterlimit="3" d="M426.4,21.75l23.449,5.85
		l-4.5,3.2L432.2,32.2l-15.15-3.8L426.4,21.75z"/>
	<path fill="none" stroke="#B2B2B2" stroke-width="0.5" stroke-linejoin="round" stroke-miterlimit="3" d="M372.05,29.6l15-1.65
		l7,1.75l-10.399,7.4L367.3,33L372.05,29.6z"/>
	<path fill="none" stroke="#B2B2B2" stroke-width="0.5" stroke-linejoin="round" stroke-miterlimit="3" d="M394.45,29.8l7.3,1.8
		l-10.4,7.4l-7.25-1.8L394.45,29.8z"/>
	<path fill="none" stroke="#B2B2B2" stroke-width="0.5" stroke-linejoin="round" stroke-miterlimit="3" d="M416.8,35.35l-5.5,3.95
		l-6.95-1.75l5.5-3.9L416.8,35.35z"/>
	<path fill="none" stroke="#B2B2B2" stroke-width="0.5" stroke-linejoin="round" stroke-miterlimit="3" d="M425.75,37.6l-5.55,3.9
		l-8.45-2.1l5.5-3.9L425.75,37.6z"/>
	<path fill="none" stroke="#B2B2B2" stroke-width="0.5" stroke-linejoin="round" stroke-miterlimit="3" d="M409.45,33.55l-10.4,7.4
		l-7.25-1.8l10.351-7.45L409.45,33.55z"/>
	<path fill="none" stroke="#B2B2B2" stroke-width="0.5" stroke-linejoin="round" stroke-miterlimit="3" d="M545.2,42.6L409.9,8.85
		l12.3-8.75l135.3,33.75L545.2,42.6z"/>
	<path fill="none" stroke="#B2B2B2" stroke-width="0.5" stroke-linejoin="round" stroke-miterlimit="3" d="M426.15,37.7l6.699,1.65
		l-7.25,5.2l-6.699-1.7L426.15,37.7z"/>
	<path fill="none" stroke="#B2B2B2" stroke-width="0.5" stroke-linejoin="round" stroke-miterlimit="3" d="M440.9,41.45l-7.25,5.2
		l-7.551-1.9l7.25-5.15L440.9,41.45z"/>
	<path fill="none" stroke="#B2B2B2" stroke-width="0.5" stroke-linejoin="round" stroke-miterlimit="3" d="M433.4,46.8l-11.851,8.45
		L339.9,34.9l7.05-5.05l53.7,13.4l4.8-3.4L433.4,46.8z"/>
	<path fill="none" stroke="#B2B2B2" stroke-width="0.5" stroke-linejoin="round" stroke-miterlimit="3" d="M495.55,56.3l-38.2-9.55
		L458.4,46l16.149-1.2l1.8-1.3l27.5,6.85L495.55,56.3z"/>
	<path fill="none" stroke="#B2B2B2" stroke-width="0.5" stroke-linejoin="round" stroke-miterlimit="3" d="M546.55,60.7L476.6,43.25
		l8.95-6.35l69.95,17.4L546.55,60.7z"/>
	<path fill="none" stroke="#B2B2B2" stroke-width="0.5" stroke-linejoin="round" stroke-miterlimit="3" d="M412.35,61.85
		l-81.699-20.4l9-6.4l81.649,20.4L412.35,61.85z"/>
	<path fill="none" stroke="#B2B2B2" stroke-width="0.5" stroke-linejoin="round" stroke-miterlimit="3" d="M486.05,63.1l-38.2-9.55
		l9.25-6.6l38.2,9.5L486.05,63.1z"/>
	<path fill="none" stroke="#B2B2B2" stroke-width="0.5" stroke-linejoin="round" stroke-miterlimit="3" d="M569.25,56.35l-10.5,7.45
		l-11.65-2.9l9.15-6.55L485.9,36.8l3-2.15l-1.4-2.15l4.2-3l72.3,18L569.25,56.35z"/>
	<path fill="none" stroke="#B2B2B2" stroke-width="0.5" stroke-linejoin="round" stroke-miterlimit="3" d="M481.8,70l-42.35-10.55
		l5.6-4L487.4,66L481.8,70z"/>
	<path fill="none" stroke="#B2B2B2" stroke-width="0.5" stroke-linejoin="round" stroke-miterlimit="3" d="M405.05,62.95l-11,7.85
		l0.351,3.65L362.1,66.4l-15.5,11.05L297.4,65.2l33-23.55l81.449,20.3L405.05,62.95z"/>
	<path fill="none" stroke="#B2B2B2" stroke-width="0.5" stroke-linejoin="round" stroke-miterlimit="3" d="M394.35,74.7l-4.75,3.35
		l-32.05-7.95l4.75-3.4L394.35,74.7z"/>
	<path fill="none" stroke="#B2B2B2" stroke-width="0.5" stroke-linejoin="round" stroke-miterlimit="3" d="M384.9,81.4l-32-8
		l4.399-3.15l32.05,8L384.9,81.4z"/>
	<path fill="none" stroke="#B2B2B2" stroke-width="0.5" stroke-linejoin="round" stroke-miterlimit="3" d="M379.1,85.55l-32.05-7.95
		l5.601-4l32,8L379.1,85.55z"/>
	<path fill="none" stroke="#B2B2B2" stroke-width="0.5" stroke-linejoin="round" stroke-miterlimit="3" d="M417.85,89.75l-6.699,4.8
		l-15.45-3.9l6.649-4.75L417.85,89.75z"/>
	<path fill="none" stroke="#B2B2B2" stroke-width="0.5" stroke-linejoin="round" stroke-miterlimit="3" d="M506,53.3l50,12.5
		l-42.5,30.3l-86.1-21.45l6.25-4.45l-3.45-4l9.05-6.45l42.8,10.65L506,53.3z"/>
	<path fill="none" stroke="#B2B2B2" stroke-width="0.5" stroke-linejoin="round" stroke-miterlimit="3" d="M395.5,90.95l31.1,7.75
		l-6.05,4.3l-31.1-7.75L395.5,90.95z"/>
	<path fill="none" stroke="#B2B2B2" stroke-width="0.5" stroke-linejoin="round" stroke-miterlimit="3" d="M482.25,118.4
		l-57.35-14.3l6.3-4.5l-19.5-4.85l6.899-4.95L402.7,85.85l9.5-6.8L422.7,78l4.45-3.2l86.1,21.5L482.25,118.4z"/>
	<path fill="none" stroke="#B2B2B2" stroke-width="0.5" stroke-linejoin="round" stroke-miterlimit="3" d="M386.85,97.15
		l38.351,9.55l-5.65,4l-38.35-9.55L386.85,97.15z"/>
	<path fill="none" stroke="#B2B2B2" stroke-width="0.5" stroke-linejoin="round" stroke-miterlimit="3" d="M380.85,101.25
		l41.2,10.25l-6.6,4.7l-41.2-10.25L380.85,101.25z"/>
	<path fill="none" stroke="#B2B2B2" stroke-width="0.5" stroke-linejoin="round" stroke-miterlimit="3" d="M374.1,106.2l41.65,10.4
		l12.7-9.1l16.649,4.15l-30.949,22.1l-51.9-12.95l11.65-8.3l-2.7-4.2L374.1,106.2z"/>
	<path fill="none" stroke="#B2B2B2" stroke-width="0.5" stroke-linejoin="round" stroke-miterlimit="3" d="M369.2,138.8
		l-41.15-10.25l5.851-4.2l41.149,10.3L369.2,138.8z"/>
	<path fill="none" stroke="#B2B2B2" stroke-width="0.5" stroke-linejoin="round" stroke-miterlimit="3" d="M388.75,143.75l-19-4.75
		l6.1-4.35l-41.6-10.35l0.75-0.55l26.9-2.8l43.6,10.85L388.75,143.75z"/>
	<path fill="none" stroke="#B2B2B2" stroke-width="0.5" stroke-linejoin="round" stroke-miterlimit="3" d="M327.9,128.8l37.75,9.45
		l-5.75,4.1l-37.75-9.45L327.9,128.8z"/>
	<path fill="none" stroke="#B2B2B2" stroke-width="0.5" stroke-linejoin="round" stroke-miterlimit="3" d="M359.65,142.5l-5.551,4
		l-37.8-9.45l5.601-3.95L359.65,142.5z"/>
	<path fill="none" stroke="#B2B2B2" stroke-width="0.5" stroke-linejoin="round" stroke-miterlimit="3" d="M348.3,150.65l-37.8-9.45
		l5.6-3.95l37.75,9.4L348.3,150.65z"/>
	<path fill="none" stroke="#B2B2B2" stroke-width="0.5" stroke-linejoin="round" stroke-miterlimit="3" d="M325.5,150.55
		l-20.95-5.25l3.5-2.5l20.95,5.25L325.5,150.55z"/>
	<path fill="none" stroke="#B2B2B2" stroke-width="0.5" stroke-linejoin="round" stroke-miterlimit="3" d="M304.6,145.55l20.4,5.1
		l-16,2.1L304.6,145.55z"/>
	<path fill="none" stroke="#B2B2B2" stroke-width="0.5" stroke-linejoin="round" stroke-miterlimit="3" d="M309.45,152.9l15.6-2.05
		l-6.149,4.4L309.45,152.9z"/>
	<path fill="none" stroke="#B2B2B2" stroke-width="0.5" stroke-linejoin="round" stroke-miterlimit="3" d="M339.05,150.55l-10.1,7.2
		l-9.601-2.4l10.101-7.2L339.05,150.55z"/>
	<path fill="none" stroke="#B2B2B2" stroke-width="0.5" stroke-linejoin="round" stroke-miterlimit="3" d="M349.35,153.15l-10.1,7.2
		l-9.85-2.5l10.1-7.2L349.35,153.15z"/>
	<path fill="none" stroke="#B2B2B2" stroke-width="0.5" stroke-linejoin="round" stroke-miterlimit="3" d="M375.25,143.85
		l-26.5,18.9l-8.95-2.2l26.5-18.9L375.25,143.85z"/>
	<path fill="none" stroke="#B2B2B2" stroke-width="0.5" stroke-linejoin="round" stroke-miterlimit="3" d="M168.55,84.5L89.7,93.85
		L38.5,81.1l67.05-34l85.55,21.3L168.55,84.5z"/>
	<path fill="none" stroke="#B2B2B2" stroke-width="0.5" stroke-linejoin="round" stroke-miterlimit="3" d="M70.1,93.7l-9.8,6.95
		L31.5,93.5l-2.3-5.3l12.1-1.7L70.1,93.7z"/>
	<path fill="none" stroke="#B2B2B2" stroke-width="0.5" stroke-linejoin="round" stroke-miterlimit="3" d="M143.45,98.9l-17.6,12.55
		l-42.95-10.7l2.85-2.05l38.5-4.6L143.45,98.9z"/>
	<path fill="none" stroke="#B2B2B2" stroke-width="0.5" stroke-linejoin="round" stroke-miterlimit="3" d="M120.75,115.1l-43-10.7
		l4.9-3.5l42.95,10.75L120.75,115.1z"/>
	<path fill="none" stroke="#B2B2B2" stroke-width="0.5" stroke-linejoin="round" stroke-miterlimit="3" d="M77.5,104.55l43,10.75
		l-9.75,6.95L67.8,111.5L77.5,104.55z"/>
	<path fill="none" stroke="#B2B2B2" stroke-width="0.5" stroke-linejoin="round" stroke-miterlimit="3" d="M67.75,140.6l-9.55,6.85
		L28,139.9l9.55-6.8L67.75,140.6z"/>
	<path fill="none" stroke="#B2B2B2" stroke-width="0.5" stroke-linejoin="round" stroke-miterlimit="3" d="M67.55,111.7l42.95,10.7
		l-6.8,4.9l-15.35-3.85l-3.95,2.8l-27.65-6.85L67.55,111.7z"/>
	<path fill="none" stroke="#B2B2B2" stroke-width="0.5" stroke-linejoin="round" stroke-miterlimit="3" d="M56.5,119.55l28.05,7
		l3.95-2.8l14.95,3.7l-12.4,8.85L48.1,125.55L56.5,119.55z"/>
	<path fill="none" stroke="#B2B2B2" stroke-width="0.5" stroke-linejoin="round" stroke-miterlimit="3" d="M86.85,139.3l-12.75-3.2
		l-6.1,4.35l-30.2-7.55l10.05-7.15l42.95,10.7L86.85,139.3z"/>
	<path fill="none" stroke="#B2B2B2" stroke-width="0.5" stroke-linejoin="round" stroke-miterlimit="3" d="M48,152.5l-18.8-4.7
		l-9.85,2.15l-4-1l12.4-8.85l30.2,7.5l-6.8,4.9l-0.55-0.15L48,152.5z"/>
	<path fill="none" stroke="#B2B2B2" stroke-width="0.5" stroke-linejoin="round" stroke-miterlimit="3" d="M2.95,164.2L0,163.45
		l5.35-3.8L1.4,158.7l7.2-5.149l15.1,3.75l0.55,1L2.95,164.2z"/>
	<path fill="none" stroke="#B2B2B2" stroke-width="0.5" stroke-linejoin="round" stroke-miterlimit="3" d="M37.1,172.8l-33.6-8.4
		l21-5.75l1.2,2.05l10.2,2.551l-7.4,5.3l10.75,2.7L37.1,172.8z"/>
</g>
</svg>
