<?xml version="1.0" encoding="utf-8"?>
<svg version="1.1" id="Layer_1"
xmlns="http://www.w3.org/2000/svg"
xmlns:xlink="http://www.w3.org/1999/xlink"
xmlns:author="http://www.sothink.com"
width="458px" height="286px"
xml:space="preserve">
<g id="64" transform="matrix(1, 0, 0, 1, 0, 0)">
<path style="fill:#2D2D2D;fill-opacity:1" d="M433.35,29.5L379.2 68.15L377.3 67.7L360.55 79.65L339.25 74.35L337.35 75.7L325.4 72.7L325.4 70.9L309.7 67L309.7 68.8L305.95 67.9L300.3 71.9L276.65 66L276.7 61.45L277.6 60.8L273.05 59.65L273.1 55.15L281.6 49.05L281.65 44.7L289.1 39.4L283.3 37.95L283.35 33.4L330.15 0L398.95 17.15L399.75 16.6L433.4 24.95L433.35 29.5M337.05,90.45L334.8 92.05L367.4 100.15L375.35 94.5L430.3 108.25L430.3 112.8L413.95 124.4L410.95 123.65L359.6 156.5L356.95 155.9L354.2 157.15L369.3 160.9L369.25 165.45L368.75 165.8L382 169.1L387.55 165.15L448.85 180.45L448.8 185L441.95 189.9L457.7 193.8L457.65 198.35L435.9 213.85L434.05 213.4L416.25 226.1L416.2 227.9L397.1 241.55L393.6 240.65L377.35 252.25L377.2 252.2L373.8 249.85L364.9 256.2L355.95 257.6L355.95 257.5L350.8 258.25L347.2 260.8L356 263L355.95 267.55L339.15 279.55L337.25 279.05L333.9 281.45L304.15 284.6L292.6 281.7L286.7 286L266.55 280.95L261.15 284.8L247.5 281.4L247.55 276.85L251.25 267.55L256.75 267.85L256.75 268.05L256.85 267.85L257.75 265.35L246.9 262.65L240.25 277.9L226.4 281.25L83.7 252.1L82.3 250.65L50.2 244.3L50.2 244.15L21.75 238.35L0 228.45L0 223.9L6.1 168.25L10.8 164.9L29.9 169.65L32.8 167.55L81.5 179.65L88.95 174.35L73.45 170.45L55.9 171L37.45 166.4L37.45 161.85L44.55 156.8L36.15 154.7L36.2 150.15L50.55 139.9L56.05 141.25L56.05 141.2L57.7 140.1L74.35 137.2L76.6 139.25L81.65 138.25L81.65 135.95L93.3 133.75L100.1 135.45L104.3 132.45L106.35 133L106.4 129.35Q109.2 127.4 111.95 125.4L111.95 121.85L126.15 111.7L130.8 112.85L138.85 107.15L142.15 108L151.45 101.35L156.4 102.6L161.05 99.3L166.35 100.6L166.35 105.1L179.45 108.35L179.45 107.9L174.2 106.55L174.25 102.05L179.65 98.15L182 98.75L189.8 93.15L182.55 91.35L182.6 86.8L187.6 83.25L196.55 85.45L204.1 80.1L218.75 83.75L228 77.15L252.6 83.25L259.85 78.1L287.4 84.95L287.4 86.8L296.8 80.05L305.25 82.2L309.6 79.05L337.05 85.9L337.05 90.45M192.1,157.3L193.65 157.7L193.6 162.2L190.55 164.4L190.55 165.1Q194.8 162.1 199 159.05L232.1 168.05L232.1 166.1L194.5 155.6L192.1 157.3M264.5,176.85L266 177.25L278.75 185.45L278.7 190L253.65 247.25L266.6 250.5L268.25 249.3L262 247.75L262 243.2L262.6 242.75L260.8 239.9L260.85 235.4L264.1 233.1L264.1 229.2L276.7 200.55L279.05 198.9L279.1 195L288.95 188L293.95 189.25L298 186.35L300.45 186.95L300.6 186.85L300.65 184.2L306.05 180.35L305.2 180.4L295.35 187.45L284.3 184.7L284.3 180.15L287.1 178.15L269 173.65L264.5 176.85M95.45,175.95L93.65 175.5L93.6 177.25L95.45 175.95M131.2,192L131.15 192L131.15 193.3L133.55 193.9L133.55 195.3L144.6 198.05L147.4 196L131.2 192M169.2,242.95L170.2 243.15L170.2 247.7L169.65 248.2L179.15 250.1L186.35 243.8L169.2 242.95" />
</g>
</svg>
