<?xml version="1.0" encoding="utf-8"?>
<svg version="1.1" id="Layer_1"
xmlns="http://www.w3.org/2000/svg"
xmlns:xlink="http://www.w3.org/1999/xlink"
xmlns:author="http://www.sothink.com"
width="458px" height="282px"
xml:space="preserve">
<g id="66" transform="matrix(1, 0, 0, 1, -146.05, -57.9)">
<path style="fill:none;stroke-width:0.5;stroke-linecap:butt;stroke-linejoin:round;stroke-miterlimit:3;stroke:#B5B5B5;stroke-opacity:1" d="M468.95,106.75L462.9 111.1L452.9 108.6L458.9 104.25L468.95 106.75z" />
<path style="fill:none;stroke-width:0.5;stroke-linecap:butt;stroke-linejoin:round;stroke-miterlimit:3;stroke:#B5B5B5;stroke-opacity:1" d="M431.55,103.7L462.45 111.45L452.8 118.35L421.85 110.65L431.55 103.7z" />
<path style="fill:none;stroke-width:0.5;stroke-linecap:butt;stroke-linejoin:round;stroke-miterlimit:3;stroke:#B5B5B5;stroke-opacity:1" d="M544.9,74.65L578 82.95L524.2 121.3L497.75 114.75L503.85 110.4L474.3 103.05L468.9 106.9L458.45 104.3L452.15 108.8L427.25 102.55L439.35 93.9L428.9 91.25L475.4 58.15L544.1 75.25L544.9 74.65z" />
<path style="fill:none;stroke-width:0.5;stroke-linecap:butt;stroke-linejoin:round;stroke-miterlimit:3;stroke:#B5B5B5;stroke-opacity:1" d="M421.75,111.1L452.8 118.8L454.8 122L451.4 121.15L445.75 125.15L422.6 119.35L428.25 115.4L419 113.1L421.75 111.1z" />
<path style="fill:none;stroke-width:0.5;stroke-linecap:butt;stroke-linejoin:round;stroke-miterlimit:3;stroke:#B5B5B5;stroke-opacity:1" d="M398.55,141.15L405.75 135.95L415.3 138.35L366.25 173.4L364.4 172.9L357.7 173.75L340.7 169.5L339.1 166.6L331.7 164.9L333.45 163.65L328.35 162.35L327.4 163.05L325.8 162.65L327.55 161.45L320.6 159.7L325.75 156L328.05 156.6L340.85 147.45L328.9 144.5L333.7 141.1L342.6 143.35L350.15 138L364.75 141.65Q369.4 138.35 374 135L398.55 141.15z" />
<path style="fill:none;stroke-width:0.5;stroke-linecap:butt;stroke-linejoin:round;stroke-miterlimit:3;stroke:#B5B5B5;stroke-opacity:1" d="M366.4,173.45L415.45 138.4L432.6 142.7L383.55 177.65L366.4 173.45z" />
<path style="fill:none;stroke-width:0.5;stroke-linecap:butt;stroke-linejoin:round;stroke-miterlimit:3;stroke:#B5B5B5;stroke-opacity:1" d="M405.35,176.4L403.6 174.15L455.65 137L482.6 143.75L475.65 148.65L485.05 151L431 189.55L398.35 181.35L405.35 176.4z" />
<path style="fill:none;stroke-width:0.5;stroke-linecap:butt;stroke-linejoin:round;stroke-miterlimit:3;stroke:#B5B5B5;stroke-opacity:1" d="M485.5,151.3L512.9 158.15L458.9 196.7L431.45 189.85L485.5 151.3z" />
<path style="fill:none;stroke-width:0.5;stroke-linecap:butt;stroke-linejoin:round;stroke-miterlimit:3;stroke:#B5B5B5;stroke-opacity:1" d="M548.5,159.4L484.75 204.9L471.35 201.8L470.05 199.4L459.5 196.8L521.4 152.6L548.5 159.4z" />
<path style="fill:none;stroke-width:0.5;stroke-linecap:butt;stroke-linejoin:round;stroke-miterlimit:3;stroke:#B5B5B5;stroke-opacity:1" d="M556.65,176.8L505.35 209.55L485 204.9L548.75 159.4L575.7 166.1L559.65 177.55L556.65 176.8z" />
<path style="fill:none;stroke-width:0.5;stroke-linecap:butt;stroke-linejoin:round;stroke-miterlimit:3;stroke:#B5B5B5;stroke-opacity:1" d="M471.2,126.2L481.4 118.9L492.85 121.8L482.75 129.05L471.2 126.2z" />
<path style="fill:none;stroke-width:0.5;stroke-linecap:butt;stroke-linejoin:round;stroke-miterlimit:3;stroke:#B5B5B5;stroke-opacity:1" d="M514.65,219.1L491.3 235.75L483.65 223.45L496.15 214.5L514.65 219.1z" />
<path style="fill:none;stroke-width:0.5;stroke-linecap:butt;stroke-linejoin:round;stroke-miterlimit:3;stroke:#B5B5B5;stroke-opacity:1" d="M536.3,224.25L527 230.9L521.55 229.55L498 246.3L491.5 236L509.85 222.95L527.75 227.4L533.25 223.5L536.3 224.25z" />
<path style="fill:none;stroke-width:0.5;stroke-linecap:butt;stroke-linejoin:round;stroke-miterlimit:3;stroke:#B5B5B5;stroke-opacity:1" d="M521.7,229.8L527.2 231.2L536.75 224.35L576.6 234.3L543.6 257.85L498.25 246.55L521.7 229.8z" />
<path style="fill:none;stroke-width:0.5;stroke-linecap:butt;stroke-linejoin:round;stroke-miterlimit:3;stroke:#B5B5B5;stroke-opacity:1" d="M594.05,238.6L582.45 246.9L602.85 252L581.4 267.25L544.05 257.95L577 234.45L594.05 238.6z" />
<path style="fill:none;stroke-width:0.5;stroke-linecap:butt;stroke-linejoin:round;stroke-miterlimit:3;stroke:#B5B5B5;stroke-opacity:1" d="M311.65,158.6L309.3 160.35L310.8 162.85L330.85 167.85L299.7 190.1L258.05 179.7L272 169.8L276.65 170.95L284.6 165.25L287.95 166.05L297.2 159.45L302.2 160.7L306.85 157.4L311.65 158.6z" />
<path style="fill:none;stroke-width:0.5;stroke-linecap:butt;stroke-linejoin:round;stroke-miterlimit:3;stroke:#B5B5B5;stroke-opacity:1" d="M261.5,180.7L299.45 190.15L282.5 202.25L246.25 193.2L250.15 190.4L252.75 191.05L256.8 188.2L252.45 187.1L261.5 180.7z" />
<path style="fill:none;stroke-width:0.5;stroke-linecap:butt;stroke-linejoin:round;stroke-miterlimit:3;stroke:#B5B5B5;stroke-opacity:1" d="M356,187.25L364.85 186.3L386.2 191.65L356.15 213.05L339.5 208.35L338.1 209.35L336.05 208.8L333.85 210.35L326.25 208.45L356 187.25z" />
<path style="fill:none;stroke-width:0.5;stroke-linecap:butt;stroke-linejoin:round;stroke-miterlimit:3;stroke:#B5B5B5;stroke-opacity:1" d="M220.05,195.1L222.3 197.15L229.45 195.8L227.8 193.8L239.05 191.65L282.25 202.45L265.1 214.65L202.25 199L203.7 198L220.05 195.1z" />
<path style="fill:none;stroke-width:0.5;stroke-linecap:butt;stroke-linejoin:round;stroke-miterlimit:3;stroke:#B5B5B5;stroke-opacity:1" d="M386.6,191.75L405.6 196.5L374.95 218.35L356.6 213.15L386.6 191.75z" />
<path style="fill:none;stroke-width:0.5;stroke-linecap:butt;stroke-linejoin:round;stroke-miterlimit:3;stroke:#B5B5B5;stroke-opacity:1" d="M375.5,218.5L406.15 196.65L417.8 199.55L419.25 201.85L421.15 202.35L401.9 216.05L384.35 224.65L378.15 223.1L382.05 220.35L375.5 218.5z" />
<path style="fill:none;stroke-width:0.5;stroke-linecap:butt;stroke-linejoin:round;stroke-miterlimit:3;stroke:#B5B5B5;stroke-opacity:1" d="M444.6,208.3L448.6 214.6L427.2 229.95L414.95 226.9L441.9 207.65L444.6 208.3z" />
<path style="fill:none;stroke-width:0.5;stroke-linecap:butt;stroke-linejoin:round;stroke-miterlimit:3;stroke:#B5B5B5;stroke-opacity:1" d="M196.5,197.95L264.85 214.95L244.05 229.8L219.45 223.7L201.8 224.2L183.7 219.65L195.5 211.25L182.4 208L196.5 197.95z" />
<path style="fill:none;stroke-width:0.5;stroke-linecap:butt;stroke-linejoin:round;stroke-miterlimit:3;stroke:#B5B5B5;stroke-opacity:1" d="M454.85,223.7L443.25 224.25L433.4 231.3L428 229.95L449.2 214.8L454.85 223.7z" />
<path style="fill:none;stroke-width:0.5;stroke-linecap:butt;stroke-linejoin:round;stroke-miterlimit:3;stroke:#B5B5B5;stroke-opacity:1" d="M297.15,225.6L310.35 216.2L331.05 215L331.15 215L332.9 213.75L339.05 215.25L332.65 219.85L335.95 220.65L328.55 225.95L323.95 224.8L321.65 226.45L326.3 227.6L320.8 231.55L297.15 225.6z" />
<path style="fill:none;stroke-width:0.5;stroke-linecap:butt;stroke-linejoin:round;stroke-miterlimit:3;stroke:#B5B5B5;stroke-opacity:1" d="M315.55,301.2L310.8 305.4L317.75 306.8L302.45 320.35L229.7 305.45L228.35 304L196.5 297.75Q206.65 292.7 216.75 287.6L246.1 293.25L286.25 295.15L315.55 301.2z" />
<path style="fill:none;stroke-width:0.5;stroke-linecap:butt;stroke-linejoin:round;stroke-miterlimit:3;stroke:#B5B5B5;stroke-opacity:1" d="M329,296.65L246.35 292.65L216.85 286.95L196.4 297.15L167.95 291.35L146.3 281.55L152.35 226.05L156.95 222.75L176 227.5L178.9 225.45L227.3 237.5L235 232.15L239.2 233.2L234.4 236.6L276.65 247.15L272.6 250.05L279.05 251.65L277.6 252.65L290.45 255.9L311.7 240.75L322.25 243.35L317.8 246.5L340.6 247.6L329 296.65z" />
<path style="fill:none;stroke-width:0.5;stroke-linecap:round;stroke-linejoin:round;stroke-miterlimit:3;stroke:#B5B5B5;stroke-opacity:1" d="M290.45,255.9L277.05 265.7L251.5 257.85L269.55 245.3" />
<path style="fill:none;stroke-width:0.5;stroke-linecap:butt;stroke-linejoin:round;stroke-miterlimit:3;stroke:#B5B5B5;stroke-opacity:1" d="M451,233.55L441.25 240.45L430.6 237.8L438.15 232.5L433.8 231.4L443.55 224.45L454.95 223.9L460.4 232.55L451 233.55z" />
<path style="fill:none;stroke-width:0.5;stroke-linecap:butt;stroke-linejoin:round;stroke-miterlimit:3;stroke:#B5B5B5;stroke-opacity:1" d="M461.95,235.3L466.8 242.85L451 238.9L455.15 235.95L461.95 235.3z" />
<path style="fill:none;stroke-width:0.5;stroke-linecap:butt;stroke-linejoin:round;stroke-miterlimit:3;stroke:#B5B5B5;stroke-opacity:1" d="M279,238.75L297 225.9L318.05 231.15L315.85 232.7L318.45 233.35L311.5 238.25L308.6 237.5L306.3 239.2L309.2 239.9L304.45 243.3L301.4 242.55L299.5 243.9" />
<path style="fill:none;stroke-width:0.5;stroke-linecap:butt;stroke-linejoin:round;stroke-miterlimit:3;stroke:#B5B5B5;stroke-opacity:1" d="M470.25,247.95L477.85 259.9L431.45 248.35L434.95 245.85L439.95 247.05L444 244.2L446.5 244.8L449.4 242.75L470.25 247.95z" />
<path style="fill:none;stroke-width:0.5;stroke-linecap:butt;stroke-linejoin:round;stroke-miterlimit:3;stroke:#B5B5B5;stroke-opacity:1" d="M446.75,241.9L469.9 247.7L467 243.1L450.75 239.05L446.75 241.9z" />
<path style="fill:none;stroke-width:0.5;stroke-linecap:round;stroke-linejoin:round;stroke-miterlimit:3;stroke:#B5B5B5;stroke-opacity:1" d="M300.25,243.35L299.05 244.15" />
<path style="fill:none;stroke-width:0.5;stroke-linecap:round;stroke-linejoin:round;stroke-miterlimit:3;stroke:#B5B5B5;stroke-opacity:1" d="M299.05,244.15L298.85 244.25L302.3 245.1L295.7 249.8L276.9 245.1L274.85 246.55L269.85 245.3L278.55 239.1L278.85 238.9L299.05 244.15z" />
<path style="fill:none;stroke-width:0.5;stroke-linecap:butt;stroke-linejoin:round;stroke-miterlimit:3;stroke:#B5B5B5;stroke-opacity:1" d="M278.85,238.9L279.85 238.15" />
<path style="fill:none;stroke-width:0.5;stroke-linecap:butt;stroke-linejoin:round;stroke-miterlimit:3;stroke:#B5B5B5;stroke-opacity:1" d="M484.4,270.15L426.5 255.75L429.35 253.65L425.45 252.7L431.2 248.5L478.05 260.2L484.4 270.15z" />
<path style="fill:none;stroke-width:0.5;stroke-linecap:butt;stroke-linejoin:round;stroke-miterlimit:3;stroke:#B5B5B5;stroke-opacity:1" d="M426.25,255.9L484.55 270.45L491.65 281.6L487.75 284.4L419 267.2L422.9 258.3L426.25 255.9z" />
<path style="fill:none;stroke-width:0.5;stroke-linecap:butt;stroke-linejoin:round;stroke-miterlimit:3;stroke:#B5B5B5;stroke-opacity:1" d="M418.7,267.7L487.35 284.85L472.25 295.6L412.95 280.85L418.7 267.7z" />
<path style="fill:none;stroke-width:0.5;stroke-linecap:butt;stroke-linejoin:round;stroke-miterlimit:3;stroke:#B5B5B5;stroke-opacity:1" d="M413.05,280.85L472.2 295.55L462.3 302.6L411.55 290L414.45 287.9L410.4 286.9L413.05 280.85z" />
<path style="fill:none;stroke-width:0.5;stroke-linecap:butt;stroke-linejoin:round;stroke-miterlimit:3;stroke:#B5B5B5;stroke-opacity:1" d="M311.75,240.55L344.7 217.05L380.45 226.8L402.15 216.3L421.4 202.6L441.35 207.55L405.05 233.45L411.3 235.15L423.95 243.25L385.6 330.9L372 334.25L302.9 320.15L318.2 306.6L324.95 307.95L337.2 297.1L329.45 296.7L341.05 247.55L318.6 246.35L322.8 243.35L311.75 240.55z" />
<path style="fill:none;stroke-width:0.5;stroke-linecap:butt;stroke-linejoin:round;stroke-miterlimit:3;stroke:#B5B5B5;stroke-opacity:1" d="M411.15,290.1L461.9 302.75L454.25 308.25L409.55 297.1L406.95 293.1L411.15 290.1z" />
<path style="fill:none;stroke-width:0.5;stroke-linecap:butt;stroke-linejoin:round;stroke-miterlimit:3;stroke:#B5B5B5;stroke-opacity:1" d="M411.8,298.05L453.65 308.5L443.35 315.85L412.45 308.15L418.8 303.6L407.85 300.85L411.8 298.05z" />
<path style="fill:none;stroke-width:0.5;stroke-linecap:butt;stroke-linejoin:round;stroke-miterlimit:3;stroke:#B5B5B5;stroke-opacity:1" d="M414.6,321.2L392.75 315.75L397.6 304.65L443.1 316.05L434.9 321.9L414.6 321.2z" />
<path style="fill:none;stroke-width:0.5;stroke-linecap:butt;stroke-linejoin:round;stroke-miterlimit:3;stroke:#B5B5B5;stroke-opacity:1" d="M434.9,322.1L438.8 328.35L401.6 328.55L405.05 319L414.5 321.35L434.9 322.1z" />
<path style="fill:none;stroke-width:0.5;stroke-linecap:butt;stroke-linejoin:round;stroke-miterlimit:3;stroke:#B5B5B5;stroke-opacity:1" d="M401.3,328.7L439.15 328.5L441.5 332.3L432.45 338.9L412.35 333.85L406.9 337.7L393.7 334.4L397.35 325.25L402.4 325.55L401.3 328.7z" />
<path style="fill:none;stroke-width:0.5;stroke-linecap:butt;stroke-linejoin:round;stroke-miterlimit:3;stroke:#B5B5B5;stroke-opacity:1" d="M561.65,281.15L553.05 287.25L528.05 281L536.65 274.9L561.65 281.15z" />
<path style="fill:none;stroke-width:0.5;stroke-linecap:butt;stroke-linejoin:round;stroke-miterlimit:3;stroke:#B5B5B5;stroke-opacity:1" d="M552.8,287.45L542.85 294.6L517.75 288.35L527.8 281.2L552.8 287.45z" />
<path style="fill:none;stroke-width:0.5;stroke-linecap:butt;stroke-linejoin:round;stroke-miterlimit:3;stroke:#B5B5B5;stroke-opacity:1" d="M517.4,288.5L539.1 293.9L532.7 298.4L507.6 292.2L512 289.05L517.4 288.5z" />
<path style="fill:none;stroke-width:0.5;stroke-linecap:butt;stroke-linejoin:round;stroke-miterlimit:3;stroke:#B5B5B5;stroke-opacity:1" d="M526.9,302.55L523.15 305.25L519.6 302.8L514.9 306.2L494.9 301.2L501.8 296.3L526.9 302.55z" />
<path style="fill:none;stroke-width:0.5;stroke-linecap:butt;stroke-linejoin:round;stroke-miterlimit:3;stroke:#B5B5B5;stroke-opacity:1" d="M514.65,306.35L510.6 309.25L502.15 310.55L502.1 310.5L497.05 311.25L485.1 308.25L494.65 301.4L514.65 306.35z" />
<path style="fill:none;stroke-width:0.5;stroke-linecap:butt;stroke-linejoin:round;stroke-miterlimit:3;stroke:#B5B5B5;stroke-opacity:1" d="M484.85,308.45L496.5 311.35L488.05 317.4L501.5 320.75L485 332.5L473.5 329.6L467.8 320.6L484.85 308.45z" />
<path style="fill:none;stroke-width:0.5;stroke-linecap:butt;stroke-linejoin:round;stroke-miterlimit:3;stroke:#B5B5B5;stroke-opacity:1" d="M507.5,292.1L532.85 298.55L527.2 302.55L501.75 296.3L507.5 292.1z" />
</g>
</svg>
