<?xml version="1.0" encoding="utf-8"?>
<svg version="1.1" id="Layer_1"
xmlns="http://www.w3.org/2000/svg"
xmlns:xlink="http://www.w3.org/1999/xlink"
xmlns:author="http://www.sothink.com"
width="580px" height="294px"
xml:space="preserve">
<g id="65" transform="matrix(1, 0, 0, 1, -28, -53.25)">
<path style="fill:none;stroke-width:8;stroke-linecap:round;stroke-linejoin:round;stroke-miterlimit:3;stroke:#2F77BB;stroke-opacity:1" d="M544.35,74.4L475.55 57.25L428.75 90.65L428.7 95.2L434.5 96.65L427.05 101.95L427 106.3L418.5 112.4L418.45 116.9L423 118.05L422.1 118.7L422.05 123.25L445.7 129.15L451.35 125.15L455.1 126.05L455.1 124.25L470.8 128.15L470.8 129.95L482.75 132.95L484.65 131.6L505.95 136.9L522.7 124.95L524.6 125.4L578.75 86.75L578.8 82.2L545.15 73.85L544.35 74.4M449.7,121.8L445.75 124.6M455,136.3L450.65 139.45L442.2 137.3L432.8 144.05L432.8 142.2L405.25 135.35L398 140.5L373.4 134.4L364.15 141L349.5 137.35L341.95 142.7L333 140.5L328 144.05L327.95 148.6L335.2 150.4L327.4 156L325.05 155.4L319.65 159.3L319.6 163.8L324.85 165.15L324.85 165.6L311.75 162.35L311.75 157.85L306.45 156.55L301.8 159.85L296.85 158.6L287.55 165.25L284.25 164.4L276.2 170.1L271.55 168.95L257.35 179.1L257.35 182.65L251.8 186.6L251.75 190.25L249.7 189.7L245.5 192.7L238.7 191L227.05 193.2L227.05 195.5L222 196.5L219.75 194.45L203.1 197.35L201.45 198.45L201.45 198.5L195.95 197.15L181.6 207.4L181.55 211.95L189.95 214.05L182.85 219.1L182.85 223.65L201.3 228.25L218.85 227.7L234.35 231.6L226.9 236.9L178.2 224.8L175.3 226.9L156.2 222.15L151.5 225.5L145.4 281.15L145.4 285.7L167.15 295.6L195.6 301.4L195.6 301.55L227.7 307.9L229.1 309.35L371.8 338.5L385.65 335.15L392.3 319.9L403.15 322.6L402.25 325.1L402.15 325.3L402.15 325.1L396.65 324.8L392.95 334.1L392.9 338.65L406.55 342.05L411.95 338.2L432.1 343.25L438 338.95L449.55 341.85L479.3 338.7L482.65 336.3L484.55 336.8L501.35 324.8L501.4 320.25L492.6 318.05L496.2 315.5L501.35 314.75L501.35 314.85L510.3 313.45L519.2 307.1L522.6 309.45L522.75 309.5L539 297.9L542.5 298.8L561.6 285.15L561.65 283.35L579.45 270.65L581.3 271.1L603.05 255.6L603.1 251.05L587.35 247.15L594.2 242.25L594.25 237.7L532.95 222.4L527.4 226.35L514.15 223.05L514.65 222.7L514.7 218.15L499.6 214.4L502.35 213.15L505 213.75L556.35 180.9L559.35 181.65L575.7 170.05L575.7 165.5L520.75 151.75L512.8 157.4L480.2 149.3L482.45 147.7L482.45 143.15L455 136.3M488.95,205.5L505 209.2M339.9,212.85L377.5 223.35L377.5 225.3L344.4 216.3L335.95 222.35L335.95 221.65L339 219.45L339.05 214.95L337.5 214.55L339.9 212.85M332.5,164.85L333.8 165.1M448.75,242.15L446.05 241.45L446 244.1L445.85 244.2L443.4 243.6L439.35 246.5L434.35 245.25L424.5 252.25L424.45 256.15L422.1 257.8L409.5 286.45L409.5 290.35L406.25 292.65L406.2 297.15L408 300L407.4 300.45L407.4 305L413.65 306.55L412 307.75L399.05 304.5L424.1 247.25L424.15 242.7L411.4 234.5L409.9 234.1L414.4 230.9L432.5 235.4L429.7 237.4L429.7 241.95L440.75 244.7L450.6 237.65L451.45 237.6L446.05 241.45M395.2,308.8L392.35 315.35M306.15,241.6L304.05 243.1M315.75,234.75L311.15 238.05M276.6,249.25L292.8 253.25L290 255.3L278.95 252.55L278.95 251.15L276.55 250.55L276.55 249.25L276.6 249.25M315.05,305.45L315.6 304.95L315.6 300.4L314.6 300.2L331.75 301.05L324.55 307.35L315.05 305.45M239,234.5L239.05 232.75L240.85 233.2L239 234.5M533.15,297.6L534.3 296.75M502.8,310.05L509.15 309.1" />
<path style="fill:#ACAEAF;fill-opacity:1" d="M503.8,112.55L498.65 116.2L524.6 122.65L524.6 123.6L505.95 136.9L482.75 131.15L482.75 130.25L492.25 123.45L481.25 120.7L470.8 128.15L455.1 124.25L452.9 120.75L452.9 119.85L474.65 104.35L503.8 111.6L503.8 112.55M452.55,139.9L452.55 140.8L403.15 176.05L404.45 177.7L404.45 178.6L398.25 183L469.1 200.65L470.45 203.05L505 211.05L505 211.95L495.75 216.15L483.4 224.95L497.6 247.5L581.35 268.35L581.35 269.3L561.5 283.45L536.15 277L517 290.6L511.35 291.2L467.4 322.6L472.75 331.1L484.55 334.05L484.55 334.95L479.3 338.7L449.55 341.85L436.1 338.5L436.15 337.6L440.95 334.1L434.95 324.25L434.95 323.35L491.05 283.35L444.65 210.4L419.2 204.05L417.75 201.7L364.7 188.5L355.6 189.45L326.6 210.15L333.7 211.95L335.85 210.4L337.95 210.9L339.3 209.95L341.75 210.6L341.7 211.5L334.65 216.55L332.45 216L330.65 217.35L309.75 218.5L269.05 247.55L234.25 238.8L234.25 237.9L333.8 166.9L338.25 168.05L339.9 170.95L357.1 175.25L363.8 174.4L383.4 179.3L442.2 137.3L452.55 139.9" />
<path style="fill:#C3C4C6;fill-opacity:1" d="M503.75,114.35L474.6 107.1L454.6 121.4L455.1 121.5L455.1 126.05L451.35 125.15L445.7 129.15L422.05 123.25L422.1 118.7L445.75 124.6L449.7 121.8L427.75 116.3L427.7 119.25L418.45 116.9L418.5 112.4L421.5 113.15L421.5 110.2L452.95 118.05L458.2 114.3L427 106.5L427.05 101.95L452.45 108.3L458.75 103.8L469.25 106.4L474.65 102.55L503.8 109.8L503.75 114.35M497.7,114.15L524.65 120.85L578.8 82.2L578.75 86.75L524.6 125.4L497.7 118.7L497.7 114.15M439.15,97.8L428.7 95.2L428.75 90.65L439.2 93.3L439.15 97.8M470.8,125.45L482.8 128.4L493.2 120.95L493.15 125.5L482.75 132.95L470.8 129.95L470.8 125.45M475.9,152.6L475.95 152.35L475.5 152.65L475.5 148.1L482.45 143.15L482.45 143.45L482.9 143.1L482.9 147.65L475.9 152.6M484.85,155L435.25 190.4L458.5 196.2L512.8 157.4L512.8 161.95L463.15 197.35L469.1 198.85L470.45 201.25L484.15 204.4Q516.25 181.55 548.3 158.65L548.3 163.2L488.95 205.5L505 209.2L556.4 176.4L559.4 177.15L575.7 165.5L575.7 170.05L559.35 181.65L556.35 180.9L505 213.75L470.4 205.8L469.1 203.4L397.3 185.5L397.35 180.95L430.55 189.25L484.9 150.45L484.85 155M415.15,142.35L370.5 174.25L383.4 177.45L432.8 142.2L432.75 146.75L383.35 182L363.8 177.15L357.1 177.95L339.9 173.65L338.25 170.75L330.95 169.05L330.95 171.65L243.7 233.9L239.05 232.75L239 237.2L234.2 240.6L234.25 236.1L234.4 235.95L234.45 231.6L218.85 227.7L201.3 228.25L182.85 223.65L182.85 219.1L201.3 223.75L218.9 223.2L243.7 229.35L260.1 217.7L201.4 203L201.45 198.45L264.85 214.3L277.6 205.2L245.5 197.2L245.5 192.7L282.3 201.85L294.75 192.95L257.35 183.65L257.35 179.1L299.5 189.6L330.7 167.35L327.8 166.6L326.85 167.3L324.85 166.8L324.85 165.15L319.6 163.8L319.65 159.3L326.65 161L326.6 162.7L326.9 162.75L327.85 162.05L332.5 163.25L332.5 164.85L338.3 166.2L339.95 169.15L357.1 173.4L363.85 172.6L365.8 173.1L415.2 137.8L415.15 142.35M427.1,229.5L448.75 214.05L448.7 218.6L431.8 230.65L432.95 230.95L442.85 223.85L454.45 223.3L454.55 223.2L454.5 227.75L454.4 227.85L442.8 228.4L437.25 232.4L437.2 236.55L414.4 230.9L405.3 237.4L405.3 232.85L441.65 206.9L441.65 211.45L419.15 227.5L427.1 229.5M421.2,206.35L401.8 220.2L384.1 228.9L377.5 227.25L377.5 223.35L339.3 212.65L337.95 213.6L335.85 213.1L333.7 214.65L325.65 212.65L325.65 208.1L333.7 210.1L335.9 208.55L337.95 209.1L339.3 208.1L356.05 212.8L386.4 191.15L386.35 195.7L360.6 214.1L374.9 218.1L405.8 196L405.8 200.55L379.45 219.35L381.4 219.9L381.4 223.65L384.15 224.35L401.85 215.65L421.25 201.8L421.2 206.35M483,222.5L490.95 235.1L514.7 218.15L514.65 222.7L492.9 238.2L497.6 245.7L521.4 228.75L526.85 230.1L536.4 223.3L536.4 227.8L526.85 234.65L521.35 233.25L502.3 246.85L543.45 257.1L576.8 233.35L576.75 237.9L548.15 258.3L581.35 266.55L603.1 251.05L603.05 255.6L581.3 271.1L497.6 250.2L482.95 227.05L483 222.5M194.65,215.25L181.55 211.95L181.6 207.4L194.7 210.7L194.65 215.25M251.8,186.6L256.1 187.7L256.05 192.25L251.75 191.15L251.8 186.6M228.7,199.75L227.05 197.75L227.05 193.2L228.75 195.2L228.7 199.75M328,144.05L339.95 147.05L339.9 151.6L327.95 148.6L328 144.05M311.75,162.4L309.2 164.2L309.25 159.65L311.75 157.85L311.75 162.4M296.4,225.35L320.55 231.4L321.65 230.6L321.65 226.15L323.75 224.65L328.3 225.8L332.6 222.75L332.65 219.5L339.05 214.95L339 219.45L335.95 221.65L335.95 224.9L328.25 230.35L326.3 229.85L326.3 231.85L320.55 235.9L318.3 235.35L318.3 237.45L313.75 240.7L322.25 242.85L322.2 246.1L340.6 247L340.55 251.55L340.45 251.55L329.95 296.4L336.6 296.75L336.55 301.3L245.7 296.9L216.2 291.2L202.1 298.3L227.75 303.35L229.15 304.8L302.3 319.75L317.85 306L317.8 310.55L306.45 320.6L371.85 334L385.7 330.6L424.15 242.7L424.1 247.25L394.1 315.8L414.4 320.85L435 321.55L438.65 318.9L411.95 312.25L412 307.75L443.4 315.55L449.25 311.4L418.35 303.7L418.35 307.7L407.4 305L407.4 300.45L408.45 300.7L406.2 297.15L406.25 292.65L408.85 296.75L453.95 308L457.2 305.7L410.55 294.05L410.6 291.3L409.5 291L409.5 286.45L413.5 287.45L413.5 290.25L461.9 302.3L467.35 298.45L412.25 284.75L412.3 280.2L472.05 295.1L482.7 287.5L418.1 271.4L418.15 266.85L487.4 284.15L491.45 281.25L491.45 285.8L434.95 326.1L414.4 325.4L392.3 319.9L385.65 335.15L371.8 338.5L229.1 309.35L227.7 307.9L195.6 301.55L195.6 301.4L167.15 295.6L145.4 285.7L145.4 281.15L167.2 291.05L195.9 296.9L216.2 286.65L245.75 292.35L328.9 296.35L339.45 251.5L317.9 250.45L317.95 246.3L311.1 244.6L311.15 242.6L311.1 242.6L309.05 242.1L309.05 244.05L304 247.65L302.35 247.25L302.35 249.05L295.45 253.95L276.6 249.25L276.55 249.25L276.5 251.15L272.45 254.1L272.45 250.15L269.15 249.35L269.2 244.8L274.6 246.15L276.65 244.7L295.5 249.4L297.65 247.85L278.05 243L278.1 238.45L299.1 243.7L301 242.35L304.05 243.1L306.15 241.6L306.15 238.8L308 237.5L308 237.25L311.15 238.05L315.75 234.75L296.4 229.9L296.4 225.35M404.45,175.85L404.4 180.4L402.7 178.15L402.75 173.65L404.45 175.85M402.15,328.25L438.95 328.05L438.95 332.6L401.1 332.8L401.15 328.25L402.15 325.1L402.15 328.25M278.95,251.15L278.9 255.7L277.5 256.75L277.5 252.2L278.95 251.15M310.85,309.15L310.9 304.6L315.6 300.4L315.6 304.95L310.85 309.15M406.55,342.05L392.9 338.65L392.95 334.1L406.55 337.5L411.95 333.65L432.15 338.7L441.4 332L441.35 336.55L432.1 343.25L411.95 338.2L406.55 342.05M594.2,242.25L582.6 250.5L582.65 245.95L594.25 237.7L594.2 242.25M534.3,296.75L517 292.45L517.05 287.9L542.55 294.25L548.1 290.3L527.3 285.1L527.3 280.55L552.8 286.9L561.65 280.6L561.6 285.15L542.5 298.8L539 297.9L522.75 309.5L522.6 309.45L519.2 307.1L510.3 313.45L501.35 314.85L501.35 314.75L496.2 315.5L487.9 321.45L487.95 316.9L491.65 314.25L484.2 312.4L484.25 307.85L496.6 310.9L501.75 310.15L501.75 310.25L509.15 309.1L494.1 305.35L494.15 300.8L514.55 305.9L517 304.15L501.25 300.25L501.25 295.7L526.85 302.1L527.65 301.5L506.8 296.3L506.8 291.75L532.4 298.1L534.3 296.75M501.35,324.8L484.55 336.8L472.75 333.85L467 324.7L467 320.15L472.8 329.3L484.6 332.25L501.4 320.25L501.35 324.8M477.7,264.25L430.55 252.45L430.6 247.95L477.75 259.7L477.7 264.25M484.25,274.5L425.55 259.85L425.55 257.1L424.45 256.8L424.5 252.25L428.5 253.25L428.45 256.05L484.3 269.95L484.25 274.5M466.85,246.65L469.95 247.45L469.9 251.95L446 246L446.05 241.45L450.25 242.5L450.3 238.45L466.85 242.55L466.85 246.65M460.2,236.65L450.6 237.65L440.75 244.7L429.7 241.95L429.7 237.4L440.8 240.15L450.65 233.15L460.25 232.15L460.2 236.65" />
<path style="fill:#58595B;fill-opacity:1" d="M39.2,192L34.6 203L33.9 203L29.3 192L29.25 192L29.25 203L28 203L28 190.25L29.95 190.25L34.25 200.65L38.55 190.25L40.55 190.25L40.55 203L39.25 203L39.25 192L39.2 192M45.25,190.25L45.25 203L44 203L44 190.25L45.25 190.25M55.15,190.65Q56.35 191.05 57.3 191.85Q58.3 192.65 58.85 193.85Q59.45 195.05 59.45 196.65Q59.45 198.2 58.85 199.4Q58.3 200.6 57.3 201.4Q56.35 202.2 55.15 202.6L52.75 203L48.55 203L48.55 190.25L52.75 190.25L55.15 190.65M57.7,194.7Q57.4 193.8 56.65 193.05Q55.95 192.3 54.9 191.9L52.35 191.45L49.85 191.45L49.85 201.8L52.35 201.8L54.9 201.35Q55.95 200.95 56.65 200.2L57.7 198.55L58.05 196.65Q58.05 195.65 57.7 194.7M65.7,191.45L63.2 191.45L63.2 201.8L65.7 201.8L68.25 201.35L70 200.2L71.05 198.55L71.4 196.65Q71.4 195.65 71.05 194.7Q70.75 193.8 70 193.05Q69.3 192.3 68.25 191.9L65.7 191.45M66.1,190.25L68.5 190.65Q69.7 191.05 70.65 191.85Q71.65 192.65 72.2 193.85Q72.8 195.05 72.8 196.65Q72.8 198.2 72.2 199.4Q71.65 200.6 70.65 201.4Q69.7 202.2 68.5 202.6L66.1 203L61.9 203L61.9 190.25L66.1 190.25M76.7,190.25L76.7 201.8L82.65 201.8L82.65 203L75.45 203L75.45 190.25L76.7 190.25M85.7,195.8L91.9 195.8L91.9 196.95L85.7 196.95L85.7 201.8L92.55 201.8L92.55 203L84.45 203L84.45 190.25L92.35 190.25L92.35 191.45L85.7 191.45L85.7 195.8M112.65,190.25L112.65 203L111.35 203L111.35 192L111.3 192L106.7 203L106 203L101.4 192L101.35 192L101.35 203L100.1 203L100.1 190.25L102.05 190.25L106.35 200.65L110.65 190.25L112.65 190.25M121.15,190.25L126.7 203L125.2 203L123.8 199.65L117.25 199.65L115.85 203L114.35 203L119.9 190.25L121.15 190.25M129.7,190.25L129.7 201.8L135.65 201.8L135.65 203L128.45 203L128.45 190.25L129.7 190.25M138.7,190.25L138.7 201.8L144.65 201.8L144.65 203L137.45 203L137.45 190.25L138.7 190.25M123.3,198.45L120.5 191.75L117.75 198.45L123.3 198.45" />
</g>
</svg>
