<?xml version="1.0" encoding="utf-8"?>
<svg version="1.1" id="Layer_1"
xmlns="http://www.w3.org/2000/svg"
xmlns:xlink="http://www.w3.org/1999/xlink"
xmlns:author="http://www.sothink.com"
width="1066px" height="603px"
xml:space="preserve">
<g id="18" transform="matrix(1, 0, 0, 1, -8.4, -40.6)">
<path style="fill:none;stroke-width:8;stroke-linecap:butt;stroke-linejoin:miter;stroke-miterlimit:4;stroke:#FF00FF;stroke-opacity:1" d="M102.85,529.7L101.05 529.35M511.9,160.6L512.75 161.9M506.6,155.8Q509.4 157.65 511.55 160.25L508.5 157.3L506.6 155.8M496.65,169.1Q496.5 167.4 495.7 165.8Q496.6 167.45 496.65 168.95L496.65 169.1M498.05,175.55L497.1 176.55M495.55,177.65L495.2 177.85L495.95 177.3L495.55 177.65M500.05,173.05L500 173.1L499.75 173.4L500.05 173.05M482.6,171L482.6 171.05L482.55 171.1L482.6 171M874.85,103.25L876 103.65M943.25,271.95L943.25 271.85L947.3 268.6L947.4 268.7L943.25 271.95" />
<path style="fill:none;stroke-width:8;stroke-linecap:round;stroke-linejoin:miter;stroke-miterlimit:4;stroke:#FF00FF;stroke-opacity:1" d="M425.85,342.8L433.5 336.75M876.85,103.8L877.25 103.95" />
<path style="fill:none;stroke-width:8;stroke-linecap:round;stroke-linejoin:miter;stroke-miterlimit:4;stroke:#FF00FF;stroke-opacity:1" d="M433.5,336.75L435.25 335.25L383.75 333.5L383.4 335.8L383.35 335.15L314.75 332.55L295.1 338.15L237.95 336.15Q218.5 357.9 197.6 379.9Q155.55 424.4 133.25 443.1Q113.35 459.7 88.9 475.25Q77.05 482.75 58.05 493.35L58.25 495.55L82.15 509L73.4 514.35L47.2 499.7L40.45 505.3L40.6 507.5L101.05 531.55L102.6 531.9L103.25 531.9Q104.25 532.1 105.15 531.9L105.45 531.9L107.35 531.35L107.35 531.25L108.65 530.7L109.3 530.15L117.45 533.85L111.9 538.5L107.8 539.25Q98.7 540.35 91.3 537.4L30.7 513.4L29.3 514.6L29.4 516.8L50.4 525L41.25 532.65L41.45 534.85L191.8 594.25L233.95 595.35L249.75 604.35L423.15 603.5L479.3 623.85L759.15 447.05L830.8 387.15L833.25 382.65L833.25 380.45L832.25 380.25L832 372.35L750.05 355.3L749.95 355.7L749.9 355.2L463.9 336.4L463.2 340.85L435.45 340L435.25 335.3L433.5 336.75M1044.15,192.3L1042.15 193.4L1042.15 193.35L1044.15 192.3L1069.7 177.75Q1020.55 114.95 1009.1 99.5Q1002.15 90.25 987.2 84.8L972.9 80.95L902.95 70.55L895.25 71.35Q883.2 75.45 876.6 81.05Q869.4 87.15 868.6 94.25L868.35 96.05L868.45 97.05L868.35 96.75L868.5 98.95Q868.5 101.3 871 103.3L873.2 104.7L875.4 105.7L878.25 106.35L894.2 106.6L893.35 116L852.25 114.4L850.9 113.65Q839.15 106.25 840.15 95.9L840.4 94.15Q841.65 81.15 822.8 78.35L740.55 75.45L698.8 77.1L687.4 76.55L685.85 78.15Q651.7 81.05 615.25 87.1Q587.6 91.7 562.25 101.95Q547.95 107.75 541 112.1L486.9 142.85L487.05 145.05L508.7 159.5Q513.95 163.85 514.75 169.1Q514.7 175.5 508.15 180.95Q505.15 183.4 502.45 184.65L495.3 188.35L488.25 183.8L495.55 179.85L498.2 177.75L500.15 175.3Q501.25 172.9 501.1 171.05L501 169.75L501.1 168.85Q500.85 164.4 496 161.45L476.2 148.25L473.4 149.45L473.55 151.85L491.9 163.9L493.1 164.85Q495.9 167.25 496.55 170.05Q496.25 173.65 492.7 176.65L484.7 181.35L477.6 176.65L481.7 174.45L482.05 174.1L482.6 173.25Q483.05 172.65 483.05 171.9L482.9 169.7Q482.85 168.15 481.25 167.2L461.05 155.65L400.45 190.3Q387.5 198.1 368.3 210.6Q333.15 233.75 315.15 248.8Q293.75 266.7 252.9 314.8L251.3 316.75L378.95 321.85L381.2 321.9L381.25 321.95L378.95 321.85M251.3,316.75L251.3 319.1L417.6 325.7L667.6 340.1L667.7 340.1L667.7 340.25L756.4 348.9L757.05 348.9L758.45 349.05L812.7 359.15L844.55 367.65L926.9 287.25L1041.2 196.15L1069.8 179.95L1069.7 177.75M676.7,496.95L673.65 498.85L673.6 498.8L676.7 496.95L759 444.85L777.85 429.2L779.05 428.1L779.1 428.1L777.85 429.2M877.25,103.95L878.6 104.15L878.15 104.15L877.25 103.95" />
<path style="fill:none;stroke-width:8;stroke-linecap:butt;stroke-linejoin:miter;stroke-miterlimit:4;stroke:#FF00FF;stroke-opacity:1" d="M41.25,532.65L101.3 556.35M749.9,355.2L747.6 362.85" />
<path style="fill:#CCCCCC;fill-opacity:1" d="M750.85,362.4L833.4 379.8L830.8 384.35L759.6 444.05L481.3 620.3L425.45 599.9L253 600.85L237.25 591.95L195.5 590.85L45.8 531.55L56.6 522.5L33.9 513.6L35.25 512.4L95.5 536.35Q102.9 539.2 111.95 538.15Q120.85 537.05 126.2 532.65L113.3 526.9Q111.65 528.25 109.35 528.7L105.25 528.25L45 504.3L51.7 498.7L77.7 513.35L88.25 506.9L62.5 492.4Q81.15 482 93.2 474.3Q117.3 458.95 137.3 442.25Q159.45 423.65 201.25 379.25Q222.45 356.8 241.35 335.55L487.2 344.35L750.85 362.4" />
<path style="fill:#CCCCCC;fill-opacity:1" d="M986.55,84.95Q1001.45 90.45 1008.3 99.6Q1018.7 113.7 1068.55 177.65L1040.1 193.85L926.4 284.65L844.5 364.9L812.85 356.4L759.05 346.25L668.55 337.35L419.95 322.85L254.65 316.25L256.3 314.35Q297.1 266.15 318.2 248.45Q336.15 233.4 371.05 210.4Q388.6 198.9 402.95 190.15Q433.1 172.85 463.25 155.6L483.35 167.1Q484.85 168.1 485 169.6Q485.15 170.95 483.8 172.05L477.9 175.35L486.8 181.25L494.75 176.55Q498.85 173 498.7 168.9Q498.45 164.65 493.75 161.65L475.55 149.45L478.3 148.2L498 161.35Q502.8 164.4 503.1 168.75Q503.2 172.85 499.1 176.45L495.7 178.6L488.45 182.45L497.35 188.2L504.45 184.5Q507.35 183.15 510.05 180.8Q517.05 175.05 516.65 168.1Q516.35 160.95 508.55 155.75L489 142.9L542.8 112.2Q549.5 107.95 563.9 102.05Q589.1 91.8 616.6 87.3Q684 76.05 741.25 75.65L823 78.5Q841.75 81.25 840.55 94.25L840.25 96.05Q839.3 106.3 850.95 113.7Q862.6 120.95 880 120.95L892.7 121.1L894.2 104.55L881.6 104.55Q875.85 104.4 871.9 102.05Q868.05 99.6 868.35 96.2L868.6 94.4Q869.3 87.3 876.55 81.25Q883.15 75.65 895.05 71.55L902.7 70.7L972.3 81.1L986.55 84.95" />
<path style="fill:#999999;fill-opacity:1" d="M463.95,349.05L448.1 362.45L437.25 376.45L373.45 429.95L363.45 432.05L299.35 485.85L283.9 492L259.9 512.15L256.1 534.45L244.05 545.7L236.65 588.3L194.75 586.75L201.45 544.85L212 532.15L217.05 500.35L277.2 450.1L273.35 444.65L284 435.75L294.15 435.75L322.8 411.6L341.4 419L436.85 339.3L465.35 340.3L463.95 349.05" />
<path style="fill:#999999;fill-opacity:1" d="M374.25,243.2L405.35 227.45L472.85 273.85L484.9 274.25L610.75 211.3L648.7 211.95L690.45 194.45L731.7 186.9L773.6 188.4L777.3 166.1L830.4 168L826.6 191.3L855.05 192.5L849.2 228.65L838.75 228.1L845.35 232.65L844.4 238.65L849.75 238.8L846.6 258L814.65 256.75L812.9 268.5L797.3 267.85L797.7 265.8L770.7 264.3L764.4 303.15L727.7 301.4L737.85 237.85L669.1 235.25L662.65 230.7L639.65 232.25L624.2 234.55L533.1 280.15L530.5 286.85L489.45 307.4L482.7 307.25L469.6 313.85L468.35 321.8L440.55 320.15L444.4 294.55L458.9 287.3L460.15 279.6L448.5 271.55L429.6 281L374.25 243.2" />
<path style="fill:#9F9F9F;fill-opacity:1" d="M893.4,106.65L877.25 106.4L874.4 105.7L872.2 104.75L870 103.35Q867.55 101.3 867.55 99L867.4 96.8Q867.65 99.25 870 101.2Q870.7 101.85 872.05 102.55L874.4 103.5L877.1 104.2L893.3 104.45L893.4 106.65" />
<path style="fill:#9F9F9F;fill-opacity:1" d="M507.65,155.7L509.55 157.2Q515.45 161.85 515.75 168L515.85 169.5Q515.3 163.9 509.7 159.4L488.2 145L488.05 142.8L507.65 155.7" />
<path style="fill:#9F9F9F;fill-opacity:1" d="M494.1,162.4Q497.5 165.25 497.8 168.95L497.95 171Q497.65 167.6 494.25 164.7L493 163.75L474.8 151.7L474.65 149.4L494.1 162.4" />
<path style="fill:#9F9F9F;fill-opacity:1" d="M483.8,170.9L484.1 169.5L484.25 171.7Q484.25 172.5 483.8 173.05L483.25 173.9L482.85 174.3L477.1 177.45L476.95 175.25L482.85 172L483.15 171.7L483.8 170.9" />
<path style="fill:#9F9F9F;fill-opacity:1" d="M502.15,170.9Q502.3 172.8 501.2 175.15L499.3 177.6L496.7 179.65Q492.15 182.1 487.65 184.6L487.5 182.4L496.7 177.45L498.2 176.35L499.15 175.4L501.1 172.95Q502.15 170.75 502.05 168.95L502.15 170.9" />
<path style="fill:#7F7F7F;fill-opacity:1" d="M1009.15,181.3L994.2 193.9L1016.8 202.8L1038.7 185.4L1039.95 184.7L1040.2 193.2L1067.6 177.6L1067.75 179.8L1039.25 195.95L925.6 286.75L843.7 367L812.05 358.5L758.1 348.35L756.75 348.2L756.05 348.2L667.85 339.6L667.85 339.45L667.75 339.45L419.2 325.1L253.75 318.5L253.75 316.2L383.05 321.4L369.75 312.35L360.55 317L347.55 308.1L346.05 308.65L345.65 308.65L344.55 308.9L341 308.9L341 308.8L339.5 308.5L338.4 308.1L338.25 307.95L337.45 307.55L332.25 304L331.4 303.15L331 302.5L331 302.2L330.85 301.5L330.6 296.45L323.3 291.55L322.9 282.65L332.75 289.35L333.05 295.9L337 298.65L338 299.2L338.65 299.45L340.6 300L340.85 300L342.1 300.15L342.65 300.15L345.25 299.9L347.15 299.2L360.15 308.25L369.45 303.6L382.9 312.75L440.4 315.35L443 298.65L413.85 297.55L407.8 293.45L407.4 293.05L371.95 268.8L371.55 259.9L413.55 288.8L444.25 289.9L446.55 288.8L430.15 285.25L429.75 285.5L374.4 247.55L374.25 243.2L429.6 281L429.75 281L429.45 276.35L436.05 277.7L448.5 271.55L459.45 279.05L460.15 274.95L460.4 283.7L459.15 291.55L444.65 298.8L441.5 320.15L468.35 321.8L468.2 317.15L469.05 317.15L469.6 313.85L482.7 307.25L489.55 307.4L489.45 302.75L498.2 303.05L512.45 295.9L512.15 291.4L516.15 294.15L530.5 286.85L530.4 282.2L531.9 283.3L533.1 280.15L544.05 274.55L543.95 270.05L547.9 272.75L562.3 265.5L562.15 260.85L566.1 263.6L580.5 256.35L580.35 251.8L584.35 254.55L598.7 247.3L598.6 242.65L602.55 245.4L616.95 238.1L616.65 233.6L620.75 236.35L624.2 234.55L639.65 232.25L639.8 232.25L639.5 227.55L645.8 231.8L662.65 230.7L668.4 234.7L669.1 230.6L669.25 235.25L691.4 236.05L692.25 231.4L692.4 236.05L737.05 237.85L737.85 233.2L738.1 241.95L729.35 296.75L764.95 299.6L770.7 264.3L770.85 264.3L771.55 260.7L797.55 261L797.7 263.2L812.75 263.75L814.65 252.1L846.6 253.2L849.6 234.15L850 243.05L846.85 262.35L814.95 261.15L813.15 272.65L813.05 272.65L813.05 272.9L797.55 272.35L797.4 270.15L771.95 269.6L765.65 308.5L727.85 305.75L727.85 305.5L659.25 302.9L649.5 307.8L648.95 307.55L636.5 307.15L636.8 311.4L634.3 326.7L667.45 328.65L670.6 309.6L671 318.35L669.25 328.75L684.3 330.4L687.6 310.15L688 319.05L686.1 330.55L718.8 333.85L721.95 313.3L736.35 314.1L736.75 312.05L737.05 320.85L736.75 323L722.35 322.2L720.6 334L738.55 335.75L741.95 314.4L742.35 323.3L739.1 344.25L758.1 346.15L811.95 356.3L843.55 364.8L905.45 304.15L904.1 305.35L874.8 295.75L874.4 286.85L903.7 296.45L918.05 282.65L889.3 273.3L888.9 264.4L924.75 276.05L925.2 275.8L896.15 266.35L895.75 257.55L933.15 269.6L938.45 265.35L918.05 257.15L882.45 250.85L882.05 242.1L917.65 248.4L945.6 259.35L959.15 248.55L933.95 238.55L933.55 230.6L927.25 235.8L849.6 232.9L849.45 233.2L845.5 232.9L845.75 236.75L844.65 243.05L844.5 232.9L838.9 232.65L838.75 228.1L849.2 228.65L849.3 228.1L849.2 224L850 224L851.65 213.6L851.5 209.5L852.35 209.65L854.4 196.65L826.85 195.8L826.6 186.65L827.4 186.65L829.6 172.4L777.55 170.2L775.65 181.7L764 181.3L763.75 183.35L802.05 184.85L803.85 173.9L804.25 182.8L802.5 193.6L762.35 192.25L762.35 192.1L732.1 191L690.75 198.55L648.95 216.2L611.05 215.4L611.05 215.5L517.35 262.35L516.95 261.95L516.95 262.5L485.2 278.5L473.15 277.95L444.65 258.4L440.55 260.6L401.8 233.75L401.4 224.95L440.15 251.7L458.1 242.5L438.9 229.35L438.5 220.45L499.3 262.2L509.7 257L456.55 220.6L456.3 211.7L516.95 253.45L527.5 248.25L474.25 211.7L473.8 202.8L534.65 244.7L545.15 239.5L491.9 202.95L491.5 194L552.3 235.8Q558.4 232.8 564.5 229.75L532.55 207.7L532.15 198.8L571.75 226.05L583.9 220.05L552 198L551.6 189.1L591.2 216.35L603.5 210.2L600.75 208.25L600.65 208.4L516 150.2L515.75 141.45L600.2 199.5L623.35 187.7L648.55 207.3L690.35 189.8L731.7 182.1L761.95 183.35L763.75 172.4L775.25 172.8L777.15 161.3L808.25 162.55L820.95 83.25L821.4 92.15L810 162.65L830.4 163.35L838.25 113.9L838.65 122.8L830.85 172.25L830.55 172.25L830.55 172.5L828.25 186.75L854.95 187.7L921.2 156.65L933.15 157.2L936.4 137.2L936.8 146.1L933.55 165.95L921.6 165.55L855.35 196.65L855.2 196.65L855.2 196.9L853.15 209.65L943.55 213.05L954.65 203.75L970.5 204.3L999.8 215.95L1009.4 208.55L987.2 199.8L986.8 190.85L1008.7 172.4L1009.15 181.3M992.7,221.8L970.9 213.2L954.9 212.65L949 217.6L981.6 230.6L992.7 221.8M800.2,208.55L797.55 218.55L768.55 217.8L768.7 209.8L797.45 210.35L799.95 198.95L800.2 208.55M735.3,209.6L735.15 220.25L733.9 227.45L704.9 226.7L705.05 218.7L733.8 219.25L735.3 209.6M651.7,235.95L666.5 246.2L667.75 238.55L662.8 235.25L651.7 235.95M660.6,294.15L690.6 295.2L696.2 260.15L689.5 259.9L689.1 251L690.75 240.45L669.4 239.65L660.6 293.85L660.6 294.15M658.95,292.75L599.15 251.7L588.15 257.15L649.1 298.9L658.85 294.15L658.95 292.75M662.1,273.3L617.35 242.5L606.4 248L660.35 285.1L662.1 273.3M665.25,253.85L640.35 236.6L639.8 236.75L624.6 238.95L663.35 265.65L665.25 253.85M698.15,260.15L692.4 295.35L727.6 296.6L736.35 242.25L692.5 240.6L690.9 251.15L697.7 251.4L698.15 260.15M946,268.25L941.6 266.45L941.9 271.55L946 268.25M933.4,221.4L851.9 218.4L851.8 218.15L851.8 218.65L850.8 224.15L926.85 226.9L933.4 221.4M621.3,197.85L632.95 206.9L633.35 207.15L637.45 207.3L623.75 196.65L621.3 197.85M484.8,269.6L492.15 265.9L465.6 247.7L451.8 254.85L472.75 269.2L484.8 269.6M448.65,275.9L442.45 279.05L458.1 282.5L448.65 275.9M471.9,317.25L492.05 318.5L493.15 311.8L490.1 311.65L489.55 311.95L482.85 311.8L471.9 317.25M608.05,204.55L608.05 204.7L610.75 206.6L621.85 206.75L614.75 201.15L608.05 204.55M569.95,266.2L615.4 297.4L635.4 298.25L580.9 260.7L569.95 266.2M533.55,284.4L548.85 294.95L569 295.75L544.5 278.95L533.55 284.4M530.65,291.4L519.95 296.75L530.95 304.25L547.1 304.95L547.5 302.6L530.8 291.1L530.65 291.4M551.75,275.35L582.15 296.2L602.25 297L562.7 269.9L551.75 275.35M547.5,313.7L546.15 313.7L546.25 316.2L545.45 321.8L557.9 322.5L561.05 304.25L549.15 303.85L547.5 313.7M561.75,312.05L559.8 322.6L597.35 324.8L600.9 305.75L561.35 304.25L561.75 312.05M544.9,313.7L520.25 312.75L520.4 315.2L519.7 320.3L543.8 321.65L544.9 314.25L544.9 313.7M519.15,312.6L494.9 311.8L494.9 311.95L493.7 319.05L518.2 320.3L519.15 312.6M517.8,303.7L512.7 300.3L506.7 303.3L517.8 303.7M619,310.95L616.65 325.9L632.55 326.7L635.7 307L618.85 306.45L619 310.95M617.9,306.3L602.25 305.9L602.4 309.2L599.4 324.95L614.85 325.9L617.9 306.3" />
<path style="fill:#7F7F7F;fill-opacity:1" d="M750.05,363.3L743.6 384.25L811.65 390.4L828.9 375.75L831.25 371.65L831.5 380.55L829.3 384.5L824.65 388.6L829.85 384.25L832.45 379.7L832.45 381.9L830 386.45L758.8 446.15L480.55 622.4L424.65 602.1L252.25 602.95L236.5 594.05L194.6 592.95L45.05 533.65L44.9 531.45L104.65 555.15L104.35 546.35L124.75 554.45L141.9 540.1L129 535L128.6 526.1L148.85 534.2L149 534.2L199 554.05L199.95 548.3L141.05 525L140.65 516.1L201.3 540.2L206.5 534.05L154.75 513.5L154.35 504.6L212 527.5L213.2 519.8L168.45 502L168.05 493.1L214.45 511.6L215.7 503.9L182 490.5L181.6 481.6L217.05 495.7L218.55 494.35L184.6 480.9L184.2 472L225.25 488.3L227.45 486.4L193.9 473.1L193.5 464.35L234.6 480.65L236.35 479.15L162.4 449.7L162 440.8L243.5 473.1L243.75 473.25L273.6 448.3L273.35 444.65L273.5 444.75L273.5 442.3L204.05 414.75L203.65 405.85L278.4 435.6L283.9 431.05L294 431.05L312.9 415.2L313.35 424.1L294.45 439.95L284.3 439.95L277.05 446L277.45 454.2L277.3 454.35L277.3 454.5L277.2 454.35L244.15 482.15L243.75 482L235 489.4L234.85 489.4L225.95 496.8L226.1 497.35L217.45 504.6L212.25 536.4L201.7 549.1L201.6 549L195.7 586.75L236.65 588.3L236.9 586.35L236.8 583.5L237.45 583.75L240.75 564.2L240.75 561.7L241.3 561.7L242.55 554.45L242.4 551.45L243.1 551.45L244.05 545.7L244.3 545.4L244.05 540.9L248.85 541.15L256.1 534.45L256.2 533.9L255.95 529.8L256.9 529.8L259.9 512.15L283.9 492L299.35 485.85L299.5 485.7L299.2 481.2L303.05 482.7L320.05 468.6L319.75 463.95L323.6 465.45L331.4 458.85L331.25 454.35L335.1 455.85L342.9 449.3L342.65 444.75L346.6 446.25L363.45 432.05L373.45 429.95L391.8 414.65L391.5 410L397 410.25L408.1 400.95L407.8 396.3L413.3 396.55L422.6 388.75L422.35 384.1L427.8 384.35L437.25 376.45L437.4 376.3L437.1 371.75L440.8 371.9L448.1 362.45L448.2 362.35L447.95 357.8L453.4 357.95L463.95 349.05L465.35 340.3L465.6 344.65L464.1 353.55L458.6 358.2L568.05 362.35L568.45 371.1L566.1 385.35L566.1 385.45L620.65 389.3L621.05 398.05L564.6 394.25L553.1 466.4L552.7 457.5L557.9 425.05L392.05 418.9L373.7 434.35L363.6 436.55L350.3 447.8L378.8 459L384.25 458.2L384.55 467.1L378.1 507.2L629.65 516.65L673.35 489L673.75 497.75L758.65 443.95L778.65 427.25L616.5 415.85L616.1 407.1L778.5 418.35L802.2 398.35L741 392.85L740.6 383.95L749.6 354.5L750.05 363.3M437.4,380.8L433 384.5L563.65 389.3L564.35 385.2L437.65 380.55L437.4 380.8M448.2,366.85L444.25 372.05L565.7 376.45L566.55 371.1L448.5 366.55L448.2 366.85M321.1,443.7L331.1 433.95L331 441.35L321 450.7L306.6 444.1L306.75 436.7L321.1 443.7M299.5,490.25L284 496.4L260.05 516.5L257.85 529.8L274.05 530.5L274.45 539.25L274.3 539.25L274.3 539.4L273.5 544.3L301 545.4L301.3 554.2L272.4 553.1L272.4 551.3L264.45 600.6L293.6 600.45L293.35 591.7L424.4 591.15L480 611.4L604.75 532.25L605.15 541.15L629.95 525.4L376.75 515.95L376.3 507.05L378.9 491.05L364.8 490.5L356.35 487.2L335.8 504.35L299.75 490.1L299.5 490.25M306.9,484.2L335.4 495.45L348.8 484.2L320.3 472.85L306.9 484.2M195.55,576.25L137.5 553.1L132.15 557.45L194.6 582.1L195.55 576.25M197.75,562.25L149.4 543.1L149.25 543.1L144.35 547.2L196.8 568L197.75 562.25M242.65,558.95L242.25 561.85L268.7 562.8L268.95 561.3L242.8 560.2L242.65 558.95M238.3,584.3L251.7 592L264.05 592L267.3 571.55L241.15 570.6L241 568.55L238.3 584.3M256.2,539L253.6 541.3L271.95 542L272.5 539.25L256.35 538.7L256.35 538.3L256.2 539M270.6,550.75L244.45 549.8L244.15 550.05L244.05 551.45L270.35 552.4L270.6 550.75M562.15,398.2L423 393L418.5 396.7L561.6 402.05L562.15 398.2M560.25,410.8L408.35 405.2L402.2 410.4L559.3 416.3L560.25 410.8M338.8,457.35L366.6 468.2L382.5 468.85L382.75 467.35L379.2 467.9L343.2 453.65L338.8 457.35M327.3,466.95L364.4 481.6L380.3 482.3L381.1 477.65L366.85 477.1L331.8 463.25L327.3 466.95" />
<path style="fill:#9F9F9F;fill-opacity:1" d="M61.65,492.3L87.35 506.8L87.5 509L61.75 494.45L61.65 492.3" />
<path style="fill:#9F9F9F;fill-opacity:1" d="M55.9,524.6L33.15 515.7L33 513.5L55.75 522.4L55.9 524.6" />
<path style="fill:#9F9F9F;fill-opacity:1" d="M104.35,530.35L44.25 506.4L44.1 504.2L104.35 528.15Q104.9 528.45 106.15 528.55L108.35 528.55L108.6 528.45L110.5 527.9L110.65 527.9L112.45 526.8L125.3 532.55L125.3 534.75L112.55 529L111.9 529.55L110.65 530.1L110.65 530.2L108.75 530.75L108.45 530.75L106.55 530.75L105.85 530.75L104.35 530.35" />
<path style="fill:#9F9F9F;fill-opacity:1" d="M902.05,144.85L901.75 135.95L904.8 116.5L905.2 125.4L902.05 144.85" />
<path style="fill:#9F9F9F;fill-opacity:1" d="M986.25,163.75L985.85 155L988.3 139.25L988.7 148.15L986.25 163.75" />
<path style="fill:#9F9F9F;fill-opacity:1" d="M993.65,175.15L993.25 166.35L995 155.25L995.45 164.15L993.65 175.15" />
<path style="fill:#9F9F9F;fill-opacity:1" d="M332.75,264.3L332.35 255.5L339.6 260.45L340.05 269.2L332.75 264.3" />
<path style="fill:#9F9F9F;fill-opacity:1" d="M323.05,277.7L322.65 268.95L334.3 276.85L334.7 285.8L323.05 277.7" />
<path style="fill:#7F7F7F;fill-opacity:1" d="M476.3,307.95L460.95 297.7L460.55 288.9L475.9 299.05L493.25 290.3L493.55 299.2L476.3 307.95" />
<path style="fill:#7F7F7F;fill-opacity:1" d="M273.35,347.4L373.6 387.25L379.9 382.05Q336.6 364.95 293.35 347.65L292.9 338.75L386.85 376.15L393.15 370.95L317.3 340.85L316.9 331.9L400.15 364.95L406.45 359.7L384.4 350.95L384 342.2L385.1 334.55L385.5 342.2L426.6 342.75L436.7 334.65L437.1 343.55L341.7 423.25L277.2 397.5L276.75 388.75L341.4 414.35L352.35 405.05L295.25 382.3L295.1 378.9L262.4 365.9L262 357.1L297.6 371.25L297.7 374.65L359.5 399.15L366.6 393.15L273.75 356.3L273.35 347.4M416.15,351.5L407.15 351.35L413.45 353.85L416.15 351.5" />
<path style="fill:#9F9F9F;fill-opacity:1" d="M597.75,474.75L600.2 459.3L600.65 468.2L598.15 483.65L597.75 474.75" />
<path style="fill:#FFFFFF;fill-opacity:1" d="M847.8,70.05Q848.05 69.75 849.15 69.75L854.65 70.6L855.85 64.95L865.75 65.5L864.5 71L870.25 70.85Q871.75 70.85 871.5 71.55L871.2 71.95L870.8 72.25L857.65 78.95L847.9 71Q847.5 70.6 847.65 70.3L847.8 70.05M454.75,142.35L448.3 138.5L455.7 134.25L462.15 138.25L465.7 135.5L467.45 135.35L467.9 136.05L467.75 146.05L450.75 145.65Q449.95 145.65 449.65 145.35Q449.25 145.1 449.55 144.55L454.75 142.35M21.95,494.05L24.55 490.9Q25.4 490.2 26.2 490.6Q26.75 490.75 26.9 491.15L30.3 500.9L13.35 502.55Q12.65 502.8 12.25 502.55Q11.15 502.1 12.1 501.45L16.05 499L8.4 495.95L14.3 491.05L21.95 494.05" />
<path style="fill:#FFFFFF;fill-opacity:1" d="M119.55,395.35L120.2 395.05L122.25 395.8L121.75 396.5L121.55 396.55L120.95 397.15L120.95 398.1Q121.05 398.85 121.85 399.25L123.7 400.05L130.35 402.2L129.7 402.45L129.55 402.85L129.05 403.3L128.35 403.8L115.3 399.45L115.85 399.3L116.4 398.4L116.95 398.25L118.95 398.8L118.7 397.2Q118.6 396.4 119.5 395.65L119.55 395.35M117.95,389.95L133.95 394.8L134.7 394.7L135.45 394.45L135.85 394.2L136.55 393.35L138.65 393.9L137.6 395.2L136.55 396.2L135.1 396.45Q134.55 397.15 133.5 396.6L131.7 396.5L116.25 391.65L116.4 391.05L116.9 390.8L117.3 390.3L117.95 389.95M153.2,355.85L153.65 355.7L156.35 356.4L156.15 356.95L155.5 357.2L155.25 357.7L154.4 358.15L152.6 357.5L151.85 357.4L152.3 356.8L152.7 356.55L153.2 355.85M147.4,368.7L148.55 367.7L148.85 367.35L155.85 369.55L158.3 370.05L160.05 369.9L161.4 369.65L162.75 368.65L162.95 368.25L163.75 366.95L152.8 363.5L153.2 363.05L153.75 362.75L154.05 362.2L154.7 361.9L167.25 365.75L166.45 367.45L164.75 369.3L162.95 370.7Q161.8 371.55 160.65 371.7L157.95 372L154.25 371.35L147.05 368.95L147.4 368.7M157.5,360.2L156.85 360.05L156.7 360L159.35 357.05L172.75 361.25L172.15 361.5L171.8 362.1L170.85 362.65L159.6 359.4L158.5 360.55L158.25 360.1L157.5 360.2M139.4,378.7Q139.25 378.05 139.4 376.65L140.8 374.7L141 374.3L144.7 371.7L163.65 377.5L163.15 378L163 378.45L162.35 378.75L161.65 379.35L155.65 377.35L155.35 378.25L154.4 379.1L150 381.75L146.75 382.1L143.3 381.5L140.75 380.35L139.4 378.7M141.7,383.35L135.8 389.4Q137.85 390.05 139.5 389.4Q141.35 389.2 142.6 387.65L142.95 387.65Q144.2 386 144.3 385.05L146.8 385.7L146.05 387L145.2 388.05L142.05 390.55L139.15 391.3L136.25 391.6L130.6 389.95L129.25 388.3Q128.95 387.6 129.05 386.55L130.5 384.8L130.45 384.55L132.55 383.15L135.1 382.35L137.85 382.35L141.7 383.35M135.25,384.05L133.65 384.45Q132.9 384.55 132.5 385.35L132.3 385.35Q131.65 386.3 131.75 387.3Q132.05 388 133.85 388.6L138.25 384.4L136.55 383.9L135.25 384.05M153.6,376.55L144.65 373.9L143.95 374.4L143.6 374.9L143.1 375.3Q142.2 376.35 142.2 376.55Q141.9 377.35 142.35 377.75Q142.4 378.4 143.25 379.05L145.2 379.9L147.4 380.3L149.35 380.1L151.05 379.45L152.15 378.4L152.6 378.35L153.3 377.35L153.6 376.55M247.2,289.2L246.65 289.45L246.55 290.1L245.8 290.4L227.25 284.5L227.9 283.6L228.25 283.4L228.85 282.75L247.6 288.8L247.2 289.2M252.9,283.65L252 284.75L251.55 285L241.3 286.05L237.85 281.4L238.25 280.8L238.75 280.5L239.15 279.85L239.9 279.65L243.1 284.45L253.35 283.4L252.9 283.65M231,287.9L233.25 288.65L232.5 289.6L231.75 290.05L231.85 291L232.6 291.9L241.2 294.8L240.8 295.5L240.35 295.65L239.85 296.35L239.45 296.65L226.2 292.6L226.45 292.2L227.5 291.45L227.75 291.1L229.95 291.65Q229.45 291.05 229.6 290.25L230.2 288.75L231 287.9M228.3,296.6L236.55 298.95L233.85 302.6L232 304L228.2 305.15L225.8 304.85L224.25 303.8L223.7 302.65L224.2 301.2L225 299.9L226.8 298.2L226.4 298.25Q225 297.25 223.85 298.05L221.8 299.25L219.8 301.45L217.65 301.3L218.45 299.8L219.85 298.45Q221.55 296.85 223.65 296.25L228.3 296.6M232.4,301.35L233.3 300.25L228.85 299L227.3 300.3L227.3 300.45Q226.7 300.95 226.25 302Q226.3 302.65 227.55 302.8L229 303.3L231.1 302.45L232.4 301.35M213.55,305.15L211.55 304.95L209.85 305.3L206.95 306.85L205.85 307.9L213.55 310.5L213.9 309.8L214.65 309.4L215.55 308.35L215.95 307.2L215.3 306.25L213.55 305.15M218.9,306.35Q219 307.35 218.35 308.15L217.3 309.9L216.35 310.65L215.55 311.1L222.35 313.2L221.5 314.25L220.55 314.7L202.25 309.1L204 306.95L206.7 304.7L209.4 303.4L212.1 303.1L215.6 303.5Q217.75 304.3 218 304.65L218.9 306.35M203.15,317.6L202.3 319L202.15 319.65L202.8 320.6L205.1 321.8L211.5 323.65L211.15 324.1L210.65 324.4L210.25 325L209.7 325.25L196.75 321.25L196.9 320.75L197.6 320.15Q197.85 320.05 198.05 319.9L199 320L200.35 320.4L199.65 318.95Q199.6 318.3 200.5 317.45L200.45 317L201.1 316.75L201.85 316.65L203.45 317.35L203.15 317.6M202.5,332.55L200.4 333.65L198.35 333.85L196.15 333.45L194.55 332.65L193.95 331.25L194.25 329.95L195.55 328.6L195.65 328.6Q195.95 327.65 196.5 327.55L197.35 327.2L196.7 326.8L194.15 326.65L192.1 327.95L191 329.15L190.2 330.35L188.05 330.15L188.85 328.35L190.15 327.1Q191.85 325.7 193.95 324.9L198.6 325.2L206.85 327.95L204.55 330.8L202.5 332.55M178.5,331.9L180.15 330.95L181.15 331.3L181.9 332L181.15 332.25L180.35 332.9L179.6 333.2L178.75 334.3Q176.95 336.1 177.85 337.3Q178.8 339.05 182.1 340.25L185.75 341L188.85 340.75L191.2 339.75Q193 339.1 193.3 338.3L193.9 338.05L195.4 335.95L197.85 336.1L197 337.75L195.45 339.3L192.4 341.5L188.75 342.65L184.75 343.05Q182.3 342.85 180.35 342.1L176.55 340.7L175 338.45Q174.2 337.4 174.75 336.1L176.45 333.5L178.5 331.9M201.2,331.15L202.3 330.6L203.3 329L199.15 327.55L197.75 328.9L197.6 329.15Q196.7 330.2 196.7 330.65Q196.8 331.2 197.85 331.85L199.3 331.9L200.6 331.75L201.2 331.15M182.75,351.55L182.1 351.85L181.6 352.55L181.2 352.8L173.65 350.55L170.55 350.1Q169.55 350 168.45 350.85L167.75 352.05L167.85 353Q167.95 353.75 168.75 353.85L170.45 354.7L177.05 356.75L176.95 357.2L176 358.05L175.45 358.35L162.45 354.3L162.6 353.9L163.15 353.6L163.3 353L163.7 352.8L164.95 353.3L166.2 353.3L165.45 352.6L165.35 351.85L166.55 349.75Q168.4 348.35 170.25 348.15Q172.4 347.95 174.65 348.7L183.1 350.95L182.75 351.55M122,407.2L117.95 405.85L117.25 406.5L116.65 407.3L116.25 407.35L115.4 408.9Q115.2 409.7 116.55 410.2L118 410.45L119.15 410.15L121.8 408L122 407.2M123.4,409.05L121.1 410.95Q120.3 411.8 119.1 411.9L117.15 412.1L114.95 411.8Q113.7 411.45 113.45 410.95Q112.85 410.6 112.8 409.85L113.15 408.15L114.25 406.8L115.3 405.95L115.9 405.2L115.7 405.15L112.85 405.25Q112.1 405.3 110.55 406.45L109.7 407.55L109.25 408.55L106.8 408.35L108.35 405.9L108.95 405.65Q110.9 403.55 112.65 403.4L117.3 403.75L125.55 406.1L123.4 409.05M115,416.7L114.5 417.2L106.25 414.4L100.55 419.6L109.3 422.35L108.9 422.8L108.35 423L108 423.7L107.5 423.95L89.9 418.35L89.05 418.2L90.3 416.9L90.75 416.7L91.5 416.75L98.3 418.9L103.8 413.7L96.8 411.5L96.35 411.55L96.45 410.9L97.4 410L98.2 409.7L98.3 409.7L116.3 415.35L115.9 416.3L115 416.7M100.75,430.75L99.85 431.5L99.55 431.9L85.3 422L85.95 421.15L86.4 420.9L87 420.25L87.55 420.95L101.1 430.15L100.75 430.75M85.2,430.6L88.05 430.55L91.85 431.4L85.9 437.35Q87.95 438.3 89.75 437.7Q91.5 437.2 92.75 435.85L92.95 435.6Q94.35 434.5 94.5 433.5L96.85 433.6L96.3 435.25L94.8 436.65L92.25 438.4Q90.95 439.45 89.3 439.65L83.25 439.15L80.85 437.9L79.45 436.35Q79.2 435.85 79.3 434.65L80.35 433.1L82.6 431.25L85.2 430.6M83.8,432.7L82.65 433.3L81.85 435.15Q82.15 436.1 83.85 436.75L88.35 432.5L86.75 432.2L83.8 432.7M85.1,443.2L85.65 442.2L88.2 442.5L86.25 444.85Q83.95 447.05 81.15 447.35Q77.9 448.35 74.95 447Q73.8 446.9 72.6 446.05Q71.8 445.6 71.1 444.45Q70.85 443.75 70.95 442.7L72.5 440.75L75.3 438.65L76.1 439.15Q76.9 439.05 76.95 439.45Q75.45 440.15 74.5 441.25Q73.35 442.45 73.75 443.5Q74.9 445 76.75 445.3Q79.3 446.35 81.2 445.6Q82.6 445.45 84.2 444.05L84.6 443.8L85.1 443.2M38.5,468.85L40.45 468.6L43.7 469.3L46.3 470.55Q47.1 471.1 47.2 472.3L46.65 473.9Q45.8 475.4 45.4 475.45L44.65 476.3L43.95 476.8L50.55 478.85L48.95 480.7L30.3 475.05L32.15 472.65L35.1 470.3L37.6 469.1L38.5 468.85M36.65,471.55L35.15 472.7L34.25 473.75L41.7 476.1L42.25 475.75L42.9 475.2L43.65 474L44.1 473L43.55 471.85L41.75 471L40 470.65L38.3 470.8L36.65 471.55M71.6,451L70.65 451.5L69.85 452.1L69.75 452.4Q68.85 453.45 68.95 454.1Q68.95 454.45 70.15 455.15L71.55 455.1L73.7 454.6L75.15 452.8L75.7 452.4L71.6 451M74.7,455.9L70.8 457.1L68.35 456.85L66.8 455.6Q66.25 455.4 66.35 454.55Q66.25 453.7 66.8 453.35L67.8 451.55L69.55 450.2L68.9 450.25L66.45 450L64.2 451.2L62.5 453.8L60.2 453.1L61.05 451.8L62.55 450.4Q63.95 449.05 66.25 448.15L70.85 448.4L78.95 451.15L76.55 454.5L74.7 455.9M62,468.15L60.3 469.55L58.4 470.5L56.3 470.9L54.25 470.35Q52.8 470.1 52.5 469.6L51.8 468.45L52.25 467.2L53.75 465.4L55.2 464.05L54.8 463.9L52.15 463.8Q51.35 463.9 50.05 465.05L48.75 466.15L48.3 467.15L45.9 467L48 464.25Q49.65 462.85 51.95 461.95Q53.9 461.55 56.55 462.4L64.6 464.95L62.55 467.9L62 468.15M61.3,465.8L57.05 464.65L55.75 465.95L55.4 466L54.55 467.7Q54.65 468.7 55.7 468.8L57.25 469.1L58.2 468.75L59.15 468.25L60.85 466.65L61.3 465.8M66.15,461.9L64.25 461.35L52.2 457.8L48.95 456.5L49.55 455.65L50.05 455.4L50.45 455.05L66.7 459.9L68.35 459.7L69.2 458.65L71.4 458.75L71.05 459.7L67.9 461.75L66.15 461.9" />
<path style="fill:#FFFFFF;fill-opacity:1" d="M986.35,381.75L983.5 393.15L980.45 393.15L983.6 380.15L987.05 380.15L988.3 380.4L991.15 380.7L993.75 381.35L995.55 382.75Q995.95 383.85 995.8 384.8L993.75 387L990.45 387.95L990.05 388.2L995.25 393.8L991.7 393.7L986.2 387.25L986.35 387.25L990.05 386.55L991.45 385.6L991.7 385.6L992.4 384.5Q992.8 383.4 991.45 382.45Q990.45 381.75 988.3 381.75L986.35 381.75M1005.8,381.75L1009.9 381.5Q1012.4 381.5 1013.75 382.2Q1015.65 382.75 1016.35 383.85Q1017.05 384.25 1017.45 385.9Q1018.15 387.25 1017.45 388.6L1016.35 391.1L1015.1 392.75L1014 393.4L1010.85 394.5L1006.75 394.8L1002.8 394.1L1000.05 392.3Q999.25 391.35 999.25 390.4Q998.7 388.9 999.25 387.65L1000.35 384.9L1001.7 383.55L1002.65 383.15Q1003.5 382.2 1005.8 381.75M1006.75,383.4L1004.15 384.5L1003.35 385.6L1002.4 387.65L1002.4 390Q1002.4 390.95 1003.05 391.65L1004.45 392.75L1006.9 393.15L1009.65 393.15L1011.95 392.05L1013.35 390.65L1014 388.35L1014.3 386.3L1013.6 384.8Q1013.35 384.1 1012.25 383.55L1009.65 383.15L1006.75 383.4M1032.1,383.15L1035.65 396.4L1034.95 396.4L1034.15 396.15L1032.5 396.15L1031.8 393L1023.35 392.3L1021.3 395.2L1019.1 395.2L1018.4 395.05L1028.4 382.75L1031.15 382.75L1032.1 383.15M1024.7,390.95L1031.4 391.35L1029.5 384.5L1024.7 390.95M1047.55,385.2L1044.85 385.2L1042.5 395.05L1043.75 395.05L1044.85 395.2L1048 395.2L1051 394.5L1053.05 393.15L1054.15 390.65Q1054.7 389.6 1054.15 388.35Q1054 387.5 1052.65 386.85Q1052.1 386.3 1050.6 385.6L1047.55 385.2M1047.55,383.55Q1053.45 384.1 1055.5 385.6Q1058.1 387.65 1057.45 390.95Q1056.75 393.15 1055.1 394.5L1053.3 395.9Q1050.3 397.25 1044.15 396.85L1038.95 396.4L1042.1 383.55L1047.55 383.55M869.55,378.05L868.6 380.15L868.45 382.2L869.15 384.1L870.9 384.9L873.4 385.45L876 385.2Q876.65 385.2 878.05 384.5L878.45 384.25L880.5 380.8L880.8 378.6L880.1 377.25L878.15 375.9L875.7 375.35L872.95 375.6L870.65 377L869.55 378.05M865.45,380Q866.1 378.05 866.55 377.4L867.9 375.9L868.85 375.35Q869.55 374.65 872 374.25L876.1 373.95Q878.7 373.95 880.25 374.65Q881.85 375.2 882.55 376Q883.5 376.7 883.95 378.35L883.65 381.1L882.55 383.55L881.45 384.9L880.25 385.6L877.1 387L872.7 387.25L868.85 386.55L866.4 384.8Q865.45 383.85 865.15 382.45L865.45 380M889.7,374.65L891.05 374.9L892.85 374.9L890.75 382.2L890.5 384.25L891.05 385.45L892.15 386.3L894.45 386.85L896.65 386.55L898.3 385.9L899.4 384.8L900.1 382.75L901.75 375.35L903.5 375.6L904.9 375.6L903.1 383.4Q902.7 384.9 902 385.45L901.05 386.85L900.35 387.25L897.6 388.2L893.9 388.35L890.5 387.65Q889.15 387.5 888.3 386.55Q887.6 385.6 887.6 384.8L887.6 382.45L889.7 374.65M875.3,387.5L882.15 388.6L881.85 389.6L881.2 390.25L874.6 388.9L874.75 388.2L875.3 387.5M910.2,375.9L922 376.7L922 377.4L921.85 377.95L921.85 378.35L912.95 377.65L912 381.35L919.1 381.75L919.1 382.2L918.85 382.45L918.85 383.15L918.55 383.55L911.3 383.15L910.35 387.5L919.55 387.95L919.55 388.6L919.1 389.6L906.95 388.9L910.2 375.9M925,382.05L932.15 382.45L932.15 383.15L931.85 383.4L931.85 383.85L931.6 384.25L924.3 383.85L923.35 388.2L932.55 388.6L932.25 389.6L932.25 390L932.15 390.4L919.95 389.7L923.25 376.7L935 377.4L935 378.05L934.85 378.6L934.85 379.05L925.95 378.35L925 382.05M941.45,377.65L942.15 377.95L949.25 387.95L951.7 378.35L954.05 378.35L954.75 378.6L951.3 391.35L949.25 391.35L948.55 391.1L941.45 381.1L939.1 390.65L936.65 390.65L936.25 390.4L939.4 377.65L941.45 377.65M962.95,380.8L961.55 382.05L961.7 382.75L962.25 383.4L969.25 386.3L970.2 387.25L970.2 388.6Q969.8 390 968.85 390.4L967.2 391.35Q965 392.75 961 392.05L959.25 392.05L955.55 391.35L955.8 390.4L956.5 389.7L958.55 390.25L961.3 390.4L965 390.25L965.8 389.7L966.8 388.6L966.8 387.65L965 386.55L958.95 384.25L958.3 383.4L958.3 382.05L959.25 380.4L960.9 379.45Q962.95 378.75 966.5 378.75L971.3 380L970.2 381.35L968.4 380.8L965.8 380.7L962.95 380.8" />
<path style="fill:#FFFFFF;fill-opacity:1" d="M489.8,92.35Q490.6 92.35 492.65 93.35L494.6 95.1Q494.8 96.05 494.6 97.15L493.4 98.55L490.6 100.55L489.8 100.95L495.15 104.1L492.75 105.75L477.85 96.05L478.6 95.5L479.6 95.1L481.45 93.65L484.05 92.5L486.75 92.15L489.8 92.35M488.4,94.1L486.55 93.65L481.75 95.95L487.75 99.55L488.6 99.35L490.8 98.15L491.55 97.15L491.45 95.95Q491.45 95.3 490.15 94.75Q489.4 94.1 488.4 94.1M505.15,92.5L503.4 94.1Q503 94.75 504.15 95.3Q504.4 95.95 505.35 95.95L506.35 95.95L507.75 95.5L510.15 94.1L510.35 93.65L507 91.5L506.15 92.15L505.15 92.5M504.95,90.3Q503.5 89.55 502.55 89.75Q501.35 89.75 500.15 90.5L497.55 92.35Q496.55 92.35 495.35 91.5L498.65 89.3Q501.15 88.15 503.2 88.15Q505.8 88.15 507.35 89.3L513.95 93.35L512.35 94.75L508 97.15L505.9 97.5L503.5 97.5L502 96.95L500.6 95.5Q500.15 94.75 500.6 94.35L501.55 92.7L505.35 90.5L504.95 90.3M522.8,75.95L523.55 75.75L523.95 75.2L524.75 74.95L525.95 80.3L536.15 81.4L535.05 81.95L534.3 82.6L533.55 82.8L523.75 81.7L522.35 76.6L522.8 75.95M512.75,76.15L513.2 75.95L528.55 85.5L526.9 86.5L526.35 86.7L510.9 77.15L512 76.7L512.75 76.15M508.95,83.8L510.9 84.75L510.9 83.35L512.35 81.7L513 81.5L513.2 81.5L514.75 82.35L514.95 82.8L514.75 82.8L514.2 82.9L513.55 83.55L513.2 83.8L513 84.75Q512.75 84.95 513.2 85.75L519.95 90.3L519.5 90.75L518.55 91.3L517.75 91.5L507 84.95L507.35 84.55L508.95 83.8M401.7,144.05L403.75 142.2L406.15 141.2L411.5 141.45L413.75 142.4L414.75 143.4L406.7 148.05Q409.3 149.05 410.3 149.05Q411.95 149.05 413.9 147.85L415.75 146.85L416.5 145.9L417.7 146L418.65 146.65L417.45 147.85L415.5 149.05L412.35 150.25L409.3 150.7L406.5 150.25L404 149.05L401.9 147.65L401.15 145.9L401.7 144.05M404,145Q404 145.9 405.2 147.1L410.95 143.8L409.75 143.05L408.55 142.85L406.9 142.85L405.5 143.3L404.75 143.8L404 145M360.05,163.85L359.05 164.6L358.4 165.35Q357.95 166.45 358.2 166.8Q358.2 167.45 359.15 168.4L361.55 170.15L364.15 171.35Q365.6 172.2 366.8 172.2Q368.4 172.45 369.6 172.2L371.8 171.35L373.65 170.05Q373.95 169.15 373.65 168.4L372.55 166.55L367.75 163.6L365.05 163.2Q363.65 162.85 362.65 163.2L360.05 163.85M358.2,162.85Q359.8 161.75 361.8 161.45L365.8 161.25L369.6 161.75L373 163.6L375.6 165.8Q376.8 167.2 376.8 168.2Q376.8 169.6 376.35 170.35L375.35 171.35L373.65 172.45Q372 173.4 370.05 173.95Q368.4 174.4 366.25 173.95L362.65 173.2L359.05 171.55Q357 170.35 356.25 169.4Q355.45 168.65 355.05 167.2L355.45 164.8L356.45 163.85L358.2 162.85M401.6,150.25L401.9 150.7L394 155.05Q395.7 156 397.35 156Q399.3 156 401.15 155.05L403.75 153.05L405.7 153.85L402.8 156.45L399.3 157.65L396.35 157.85L393.75 157.4Q392.15 156.75 390.95 156Q389.95 155.8 389.2 154.6L388.3 153.05Q388.3 151.85 388.95 151.2L389.5 150.25L393.3 148.6L395.95 148.3L398.75 148.85L400.95 149.8L401.6 150.25M395.4,150L394 150L392.35 150.7L391.9 151Q391.15 151.85 391.15 152.4Q391.15 153.6 392.35 154.05L398.1 150.8L396.9 150.25L395.4 150M389.2,161.65L389.4 161.45L380.4 155.8L381.35 155.05L382.25 154.8L382.55 154.6L393.1 160.8L391.35 162.45L387.1 164.8L384.6 165.35L381.8 165.25L372.75 159.8L373.75 159.4L374.95 158.6L381.15 162.45L382.75 163.2L384.6 163.6L386.15 163.4L389.2 161.65M375.8,171.35L382.25 169.15L383.55 170.35L377.35 173L375.8 171.35M475.8,104.65L475.65 104.9L475 104.9L474.25 105.3L473.6 106.75L474.05 107.7L480.8 112.05L480.25 112.7L479.25 113.05L478.6 113.7L467.85 106.95L468.8 106.3L469.25 105.85L469.8 105.85L470.8 106.1L471.85 106.75Q471.45 106.1 471.85 105.1L473.6 103.45L474.05 103.35L475.65 104.1L475.8 104.65M471.2,115.65L467.85 113.7L464.8 115.1L464.25 116.1Q464.05 116.75 464.8 117.5L466.2 117.95L467.2 117.95L470.25 116.5L471.2 115.65M471,118.05L468.8 119.15L466.45 119.65L464.45 119.45L462.6 118.7Q462.05 118.5 461.4 117.5Q461.2 116.85 461.4 116.1Q462.05 115.1 462.4 114.9L462.6 114.65L465.25 112.95L466.2 112.7L465.9 112.5Q464.8 111.75 463.5 111.75Q462.3 111.75 461.1 112.5L459.45 113.45L458.5 114.45L456.2 113.7L457.05 112.95L459.45 111.3Q461.65 109.9 463.6 109.9Q466.45 109.9 468.05 111.1L474.8 115.55L471 118.05M446.1,115.65L445.1 116.5Q443.45 117.7 443.9 118.9Q443.9 120.65 446.85 122.5L449.9 123.9L452.6 124.45L455.45 123.9L458.25 122.85L461.1 120.85L463.25 121.5L459.7 124.25Q458.05 125.45 455.85 125.65L451.85 126.3L447.8 125.65L444.45 123.9Q442.5 122.7 441.6 121.65Q440.65 120.45 440.65 119.15L441.5 116.85L444.1 114.65L446.65 113.45L448.7 112.95L449.45 113.45L449.9 114.15L446.1 115.65M421.7,133.5Q424.1 133.5 425.85 135L432.7 139.05L431.5 139.8L431.05 140.25L430.3 140.45L424.35 136.45Q422.25 135.45 421.5 135.45Q420.1 135.45 419.3 136.1L418.55 136.45L418.15 136.85L417.7 137.85L418.35 138.8L419.55 140L425.1 143.4L423.35 144.6L422.7 144.8L411.95 138.05L413.9 137.1L416.15 138.05L415.75 137.1L416.5 135.45L416.7 135.25L417.7 134.45Q419.55 133.5 421.7 133.5M437.7,132.1L436.75 132.1L430.3 133.25Q429.1 133.25 427.9 132.5Q426.3 131.65 426.95 130.45Q426.95 130.1 427.9 129.25Q428.15 128.7 429.35 128.25L431.05 127.3L433.15 126.65L434.1 127.85L430.1 129.7L429.55 130.25Q429.35 130.45 430.1 131.3L430.85 131.4L431.5 131.4L436.3 130.25L437.9 130.25L439.1 130.45L440.65 131.1L441.6 132.1L441.85 133.25L440.85 134.45L440.65 135L435.1 137.4L434.1 136.1L438.25 134.25L438.9 133.5L438.9 133.05L438.25 132.3L437.7 132.1" />
<path style="fill:#FFFFFF;fill-opacity:1" d="M965,46.75L962.5 60.45L960.2 60.45L959.35 60.2L961.7 46.75L965 46.75M903.1,48.8L904.05 48.8L904.05 50.2L903.9 50.45L901.15 50.45L899.8 51L898.4 51.95L897.9 53.6L897.05 58.4L894.45 58.4L893.75 58.25L895.7 48.65L898.3 48.65L898.4 49.5L898.3 50.2L900.2 49.2L903.1 48.8M924.45,45.5L927.2 46.35L928.8 47.85Q929.5 48.65 928.95 50.05Q928.95 51 928 51.95L927.85 52.5L925.65 53.6L919.8 54.3L917.45 54.15L916.65 59.1L913.5 59.1L915.8 45.4L924.45 45.5M923.05,47.05L918.85 46.9L918 52.5L922 52.5L924.85 51.55L925.25 51.15L925.65 50.05L925.65 48.65L924.7 47.7L923.05 47.05M930.75,56.75L931.55 55.1L933.05 54.3L935.4 53.6L939.8 53.6L940.9 53.75L940.9 53.35Q941.15 52.25 940.35 51.8Q939.35 51.15 937.6 51.15L935.4 51.15L933.75 51.55Q933.05 51.15 933.05 50.05L938.4 49.65Q941.7 50.2 942.95 50.85Q944.3 51.8 943.9 53.6L942.95 59.5L937.05 60.05L932.1 59.1L930.75 57.85Q930.35 57.45 930.75 56.75M964.3,55.4L970.2 51L973.9 51L968 55.4L973.05 60.85L969.35 60.85L964.3 55.4M957.7,50.85L957.7 51.8L957.6 52.25L955 52.25L953.45 52.8L952.65 53.35L952.5 53.75Q952.1 54.15 951.7 55.4L950.85 60.05L947.6 60.05L949.35 50.2L950.75 50.2L951.55 50.45L951.95 50.45L952.1 51.15L952.1 51.95L954 51L956.75 50.45L957.45 50.45L957.7 50.85M938.4,55.1L935.25 55.4L934.45 55.95L933.9 56.75L934.3 57.45L934.85 57.85L937.2 58.4L940.2 58.25L940.6 55.1L938.4 55.1M860.75,46.05L861.7 45.4L865.7 44L870.2 43.75L875.55 44.3L874.45 45.95L873.5 45.95L872.8 45.5L870.2 45.4Q866.5 45.4 864.45 46.75L863.8 47.05Q862.4 48.15 861.7 50.45L861.7 52.8L863.1 54.55L865.55 55.65L870.75 55.95L872.95 55.65Q873.5 56.05 873.5 57.05L870.75 57.7L867.9 57.7Q865.55 57.7 863.35 56.9L860.35 55.65Q858.85 54.15 858.45 53.35Q858.05 51.8 858.3 50.45Q858.85 48.4 859.65 47.7L860.75 46.05M889.25,48.8Q890.35 50.05 890.2 51.8L889.25 57.85L886.25 58.25L880.35 57.85L877.05 56.35L876.9 54.95L877.9 53.35L879.4 52.5L881.7 51.95L887.05 51.95L887.05 51.8Q887.45 50.85 886.65 50.2L883.75 49.5L879.8 49.65Q879.4 49.5 879.4 48.4L884.3 47.85L889.25 48.8M822.95,47.85L822.55 48.15L822 49.5Q821.85 50.2 822.55 51L824.75 51.55Q826.95 51.55 827.35 51L827.9 50.85L828.7 49.65Q828.7 48.65 827.9 48.15Q827.9 47.85 825.55 47.45L822.95 47.85M828.45,46.35L830.25 47.05L832 46.75L834.35 46.75L834.35 47.85L834.2 48.15L831.2 48.15L831.85 48.8L831.85 49.65L830.75 51.55L829.4 51.95Q829.4 52.25 827.35 52.8L822.15 52.8L821.45 52.9L820.65 53.75L821.2 54.3L827.1 54.95Q830.25 54.95 831.05 55.65Q832.15 56.75 832 57.7Q832 58.25 831.2 59.1L829.25 60.05L822.85 60.85L817.9 60.05Q816.4 59.5 816.4 57.85L817.1 56.75L817.35 56.75L819.4 55.65L818.45 55.1L818.05 54.15L818.7 52.9L818.85 52.9Q819.15 52.5 820.5 51.95L818.85 51Q818.45 50.05 818.7 49.5L819.15 47.85L819.7 47.7L820.65 46.9L822.95 46.35L826 46.05L828.45 46.35M838.3,47.45Q840.2 46.75 842.85 46.75L845.3 46.9L847.5 47.45L846.5 48.65L842.85 48.15L840.1 48.65L839.4 49.2L840.2 50.2L845.95 51.95L846.65 52.8L846.65 53.75Q846.65 54.95 845.95 55.1L845.95 55.4L842.4 56.75L834.9 56.05L835.15 55.4L836 54.55L837.6 55.1L841.05 55.1L842.4 54.95L843.25 54.55L843.5 53.75L843.35 53.35L842.85 52.8L836.95 50.85Q836.25 50.45 836.25 49.2Q836.25 48.65 837.05 47.85L838.3 47.45M828.7,57.7Q828.85 57.05 828.45 56.75L822.55 56.05L819.8 56.9L819.4 57.7L819.7 58.4L822.95 59.2Q826.1 59.2 827.1 58.65L828.45 58.25L828.7 57.7M811.2,50.05Q811.45 48.8 810.8 47.85L808.85 47.45L807.1 47.45L805.6 47.85L804.6 48.8L803.8 50.45L803 55.4L799.85 55.4L801.45 45.5L804.2 45.5L804.2 47.05L806.4 46.05L809.7 45.5Q812.3 45.5 813.8 46.75Q815.05 47.85 814.6 49.5L813.65 55.65L810.25 55.65L811.2 50.05M881.45,53.6L880.6 54.15L880.2 54.95L880.2 55.95L882.15 56.75L886.25 56.75L886.9 53.6L885.55 53.35L881.45 53.6M777.5,41L775.05 54.3L774.2 54.3L773.4 54.55L772.7 54.3L771.9 54.3L774.2 40.6L775.7 40.6L776.8 41L777.5 41M780.95,47.7L787.75 54.95L785.05 54.95L784.2 54.55L777.1 47.7L785.7 41.3L789.3 41.3L780.95 47.7M796.7,41.85L796.55 42.25L796.55 42.8L796.4 43.35L793 43.35L793 42.25L793.25 41.85L793.25 41.3L795.7 41.3L796.7 41.4L796.7 41.85M791.05,45.5L791.05 45.4L796.4 45.4L794.75 55.1L792.45 55.1L791.6 54.95L793 46.9L790.9 46.75L790.9 46.05L791.05 45.5" />
<path style="fill:#FFFFFF;fill-opacity:1" d="M1013.8,242.4L1015.3 243.2L1012.15 246L1027.15 251.9L1025.3 253.4L1010.2 247.55L1006.95 250.15L1006.5 250.15L1005.95 249.9L1005.3 249.5L1005.1 249.25L1013.15 242.4L1013.8 242.4M1005.3,251.1L1005.75 251.35L1000.65 255.6L1005.5 257.45L1009.65 254.05L1010.2 254.4L1011.6 255.05L1007.7 258.4L1013.55 260.7L1018.9 256.25L1019.65 256.8L1021.1 257.2L1013.8 263.1L996.7 256.25L1003.55 250.45L1005.3 251.1M996.5,259.15L991.4 263.3L996.3 265.25L1000.2 261.9L1000.85 262.1L1001.4 262.1L1002.35 262.65L998.45 266.25L1004.35 268.5L1009.65 264.05L1010.95 264.85L1011.6 265.05L1004.55 270.7L987.45 264.05L994.3 258.2L996.05 258.75L996.5 259.15M981.6,268.75L983.9 267.75L986.5 267.55L989.65 268.4Q990.75 268.95 990.95 269.4Q991.7 269.7 991.7 270.15L991.95 271.15L991.95 272.65L1002.8 272.35L1000.85 274.05L988.65 274.3L988.75 274.05L989.4 273.1L989.65 271.9L989.2 270.9L988 269.95L984.65 269.5Q983.55 269.7 981.7 270.9L980.7 271.9L996.05 278L995.3 278.75L994.85 278.95L994.3 279.6L977 272.65L979.4 270.15L981.6 268.75M977.25,275.25L973.85 277.75L989.2 283.75L987.25 285.5L972.35 279.2L968.95 282.1L966.8 281.15L975.05 274.3L976.25 274.6L977.25 275.25M980.5,289.85Q980.5 291.35 978.45 292.9L977.45 293.85L974.4 295.5L972.65 294.1L974.4 293.55L976.25 292.35Q977.8 291.15 977.45 290.15Q977.45 289.2 976.05 288.85L974.85 288.45L973.45 288.45L967.55 290.6L965.8 290.95L962.45 290.15Q960.15 289.4 960.15 288Q959.95 286.8 961.9 284.85L965.4 282.9Q966.05 283.1 967 284.1L965.6 284.75L964.1 285.8Q963.1 286.7 963.1 287.65Q963.1 288.2 964.3 288.85L965.25 288.95L968.55 288.2L972.15 286.8L973.85 286.45L977.8 287Q980.4 288.2 980.5 289.85M950.5,294.95L950.9 294.75L951.45 294.1L968.55 301.15L967.35 302.35L966.8 302.55L958.75 299.4L953.4 304L961.7 307.15L961.15 307.25L960.15 308.25L959.75 308.45L942.65 301.6L943.4 300.85L943.85 300.6L944.15 300.2L951.45 303L956.55 298.45L949.7 295.7L950.5 294.95M953.85,314L950.7 315.75L947 316.7L942.95 316.5Q940.25 316.15 939.05 315.3L935.8 313.8Q934.6 312.8 933.95 311.6Q933.6 310.4 933.95 309.2Q934.6 308.1 935.8 307.15L937.75 305.5L939.5 304.75L940.25 305.05L940.9 305.95L939.5 306.5L938.1 307.7Q936.9 308.45 936.9 309.45Q936.75 310.1 936.9 310.85L938.1 312.35L940.7 314L947 314.95L949.5 314.2L951.7 313L953.1 311.6L946.15 308.65L947.1 308.1L948.1 307.25L956.35 310.6L956.05 311.6L955.15 312.15L953.85 314M944.6,321.3L943.95 321.85L943.65 322.05L942.95 322.35L925.9 315.5L926.75 314.95L927.1 314.3L927.75 314.2L945.05 321.05Q944.85 321.2 944.6 321.3M938.3,326.5L930.25 323.25L925.15 327.7L933.2 331.05Q932.95 331.2 932.65 331.3L931.65 332.05L931.2 332.5L914.15 325.55L914.35 325.2L915.35 324.35L915.65 324.2L922.95 326.95L928.05 322.35L921.2 319.65L921.45 319.1L922 318.9L922.4 318.45L922.95 318.15L940.05 325.2L938.3 326.5" />
<path style="fill:#FFFFFF;fill-opacity:1" d="M297.1,630.9L297.1 629.85L297.3 629.3L311.35 629.3L311.35 630.6L311.1 630.8L305.8 630.8L305.25 641.9L302.2 641.9L302.85 630.9L297.1 630.9M284.55,630.8L283.8 641.9L283.05 642.1L281.65 642.1L280.85 641.9L281.65 629.5L282.95 629.5L283.8 629.3L286.1 629.3L291.75 630.05L293.5 631.25Q294.25 631.8 294.05 633.1L293.8 634.4L292.6 635.25L289.7 636.7L289.15 636.7L295.35 641.9L291.85 641.9L285.45 636.15L285.75 636.15L289.05 635.25L290.2 634.5L290.2 634.4Q291 633.95 291 633.1Q291 631.8 289.7 631.25L286.5 630.8L284.55 630.8M317.1,640.25L325.9 639.95L325.9 641.7L314.05 641.7L314.7 629.3L326.45 629.2L326.45 630.8L317.65 630.8L317.2 634.4L324.25 634.4L324.5 634.5L324.5 635.05L324.25 635.4L324.25 635.8L317.2 635.9L317.1 640.25M258,629.85L257.35 642.1L256.6 642.45L255 642.45L254.3 642.1L254.85 636.45L245.5 636.7L245.3 642.45L242.25 642.45L243 629.85L246.05 629.85L245.85 635.05L254.85 635.05L255 629.85L258 629.85M271.4,629.5L277.7 642.1L274.65 642.1L273.15 639.2L265.1 639.2L263.7 642.1L260.65 642.1L268.15 629.5L271.4 629.5M269.55,631.25L265.95 637.55L272.5 637.55L269.55 631.25M238.9,630.25L237.9 631.7L237.25 631.45L236.25 631.45L235.2 631.25L233.75 631.25Q230.7 631.25 229 632.55L228.45 632.85Q227.15 633.95 226.8 636.45L227.15 638.55L228.55 639.95L230.6 640.6L233.65 641.15L235.7 641.05L237.8 640.5L238.45 642.1L235.95 642.65L233.1 642.65L229 642.45L225.7 641.05L224.1 639.05Q223.3 638.1 223.3 636.45L224.4 633.65L225.5 632.2L226.35 631.7Q227.45 630.8 229.65 630.25L236.7 629.85L238.9 630.25M418.7,628.65L417.95 630.05L417.3 629.85L416.2 629.85L415.1 629.5L413.8 629.5Q410.1 630.05 408.8 630.9L408.45 631.25Q406.85 632.85 406.85 634.7Q406.85 636.15 407.15 636.9L408.45 638.3L410.55 639.05L413.45 639.6L417.6 639.05L418.35 640.5L415.75 641.05L412.95 641.05L408.8 640.6Q406.3 639.75 405.75 639.2Q404.35 638.3 404.1 637.45Q403.35 636.45 403.35 634.7Q403.35 633.85 404.35 631.8Q405.35 630.95 406.3 630.05Q407.7 629.2 409.55 628.65L413.7 628.1L416.5 628.1L418.7 628.65M422.85,628.1L434.45 628.1L434.45 629.5L425.65 629.85L425.65 633.3L432.75 633.3L432.75 634.4L432.4 634.7L425.55 634.7L425.35 639.05L434.35 639.05L434.35 640.25L434.15 640.6L422.3 640.6L422.85 628.1M367.45,630.8Q368 631.7 368 632.55Q368 633.65 367 634.5L366.5 635.05L365.05 635.9L362.55 636.7L358.75 636.9L357.65 636.7L357.55 641.35L354.5 641.35L355.15 628.75L363.3 628.75L365.6 629.3L367.45 630.8M383.55,641.05L391.4 628.65L392.25 628.4L393.9 628.4L394.55 628.65L400.85 641.05L397.6 641.05L396.6 638.1L388.45 638.1L386.8 641.05L384.3 641.15L383.55 641.05M382.6,641.05L371.05 641.15L371.7 628.65L374.75 628.65L374.1 639.6L382.6 639.6L382.6 641.05M395.85,636.45L392.8 630.25L389.2 636.7L395.85 636.45M342.65,630.8Q343.3 631.45 343.3 632.55L342.75 633.85L341.9 634.5Q340.3 635.35 338.65 636.15L338.3 636.15L344.2 641.35L340.8 641.35L334.5 635.8L334.7 635.8L338.1 634.7L339.15 633.95L339.15 633.85Q339.95 633.65 339.95 632.55Q339.95 631.45 338.65 630.9Q337.75 630.25 335.35 630.25L334.5 630.25L333.4 630.6L332.75 641.35Q332.4 641.55 332 641.7L330.05 641.7L330.7 629.2L331.8 629.2L332.75 628.75L338.1 629.2L340.6 629.5L342.65 630.8M362,630.25L359.85 630.05L358.1 630.25L357.65 635.25L361.45 635.25L364 634.4L364.2 633.85L364.95 632.55L364.4 631.45Q364.2 630.8 363.45 630.8L362 630.25" />
</g>
</svg>
