<?xml version="1.0" encoding="utf-8"?>
<svg version="1.1" id="Layer_1"
xmlns="http://www.w3.org/2000/svg"
xmlns:xlink="http://www.w3.org/1999/xlink"
xmlns:author="http://www.sothink.com"
width="343px" height="196px"
xml:space="preserve">
<g id="19" transform="matrix(1, 0, 0, 1, -46.55, -13.4)">
<path style="fill:none;stroke-width:0.5;stroke-linecap:butt;stroke-linejoin:round;stroke-miterlimit:3;stroke:#B2B2B2;stroke-opacity:1" d="M266,65.4L269.05 62.2L276.75 62.4L276.1 65.6L266 65.4M299.35,62.4L289 62.2L290.15 58L300.15 58.35L299.35 62.4M129.15,144.05L125.5 140.45L120.35 145.05L125.65 147.5L129.15 144.05" />
<path style="fill:none;stroke-width:0.5;stroke-linecap:butt;stroke-linejoin:round;stroke-miterlimit:3;stroke:#B2B2B2;stroke-opacity:1" d="M345.05,42.85L320.85 54.2L310.5 53.8L314.8 27.25L339.05 28.2L337.95 35.3L350.6 35.75L349.4 43.05L345.05 42.85z" />
<path style="fill:none;stroke-width:0.5;stroke-linecap:butt;stroke-linejoin:round;stroke-miterlimit:3;stroke:#B2B2B2;stroke-opacity:1" d="M306.7,27.1L314.75 27.25L311.9 45.3L303.8 45L306.7 27.1z" />
<path style="fill:none;stroke-width:0.5;stroke-linecap:butt;stroke-linejoin:round;stroke-miterlimit:3;stroke:#B2B2B2;stroke-opacity:1" d="M301.55,53.15L286.9 52.6L287.55 48.6L302.2 49.15L301.55 53.15z" />
<path style="fill:none;stroke-width:0.5;stroke-linecap:butt;stroke-linejoin:round;stroke-miterlimit:3;stroke:#B2B2B2;stroke-opacity:1" d="M233,55.9L239.8 61.2L231.7 61.1L227.9 58.5L233 55.9z" />
<path style="fill:none;stroke-width:0.5;stroke-linecap:butt;stroke-linejoin:round;stroke-miterlimit:3;stroke:#B2B2B2;stroke-opacity:1" d="M233,55.9L236.3 54.2L245.5 61.35L239.8 61.2L233 55.9z" />
<path style="fill:none;stroke-width:0.5;stroke-linecap:butt;stroke-linejoin:round;stroke-miterlimit:3;stroke:#B2B2B2;stroke-opacity:1" d="M259.7,13.65L308.45 16.05L303.8 45L292.45 44.55L291.75 48.75L287.55 48.6L286.9 52.6L275.85 52.15L260.75 54.95L245.5 61.35L236.3 54.2L227.85 58.5L197 37.3L236.2 17.8L238.5 18.5L258.25 15.1L259.7 13.65z" />
<path style="fill:none;stroke-width:0.5;stroke-linecap:butt;stroke-linejoin:round;stroke-miterlimit:3;stroke:#B2B2B2;stroke-opacity:1" d="M231.65,61.1L224.55 64.65L210.1 54.7L217.2 51.2L231.65 61.1z" />
<path style="fill:none;stroke-width:0.5;stroke-linecap:butt;stroke-linejoin:round;stroke-miterlimit:3;stroke:#B2B2B2;stroke-opacity:1" d="M379.95,59.7L369 55.35L377.05 48.6L388.4 53.1L387.95 53.35L379.95 59.7z" />
<path style="fill:none;stroke-width:0.5;stroke-linecap:butt;stroke-linejoin:round;stroke-miterlimit:3;stroke:#B2B2B2;stroke-opacity:1" d="M372,42.35L371.35 46.4L377 48.6L369 55.35L379.95 59.7L373.75 64.5L363.05 60.25L357.25 60.05L353.2 63.45L319.6 62.15L320.85 54.2L345.05 42.85L349.4 43.05L350.6 35.75L369.55 36.5L368.65 42.25L372 42.35z" />
<path style="fill:none;stroke-width:0.5;stroke-linecap:butt;stroke-linejoin:round;stroke-miterlimit:3;stroke:#B2B2B2;stroke-opacity:1" d="M347.1,68.5L318.75 67.45L319.6 62.15L353.2 63.45L347.1 68.5z" />
<path style="fill:none;stroke-width:0.5;stroke-linecap:butt;stroke-linejoin:round;stroke-miterlimit:3;stroke:#B2B2B2;stroke-opacity:1" d="M188.15,56.5L210.35 71.75L203.9 75L181.7 59.7L188.15 56.5z" />
<path style="fill:none;stroke-width:0.5;stroke-linecap:butt;stroke-linejoin:round;stroke-miterlimit:3;stroke:#B2B2B2;stroke-opacity:1" d="M164.4,63.1L178.6 72.85L169.4 77.55L155.25 67.8L164.4 63.1z" />
<path style="fill:none;stroke-width:0.5;stroke-linecap:butt;stroke-linejoin:round;stroke-miterlimit:3;stroke:#B2B2B2;stroke-opacity:1" d="M357.25,60.05L363.05 60.25L373.8 64.55L367.1 69.85L352.45 64.05L357.25 60.05z" />
<path style="fill:none;stroke-width:0.5;stroke-linecap:butt;stroke-linejoin:round;stroke-miterlimit:3;stroke:#B2B2B2;stroke-opacity:1" d="M253,69.85L252.05 75.55L242.2 68.75L250.6 68.2L253 69.85z" />
<path style="fill:none;stroke-width:0.5;stroke-linecap:butt;stroke-linejoin:round;stroke-miterlimit:3;stroke:#B2B2B2;stroke-opacity:1" d="M191,81.4L168.8 66.15L175.1 63L197.3 78.25L191 81.4z" />
<path style="fill:none;stroke-width:0.5;stroke-linecap:butt;stroke-linejoin:round;stroke-miterlimit:3;stroke:#B2B2B2;stroke-opacity:1" d="M181.3,83.95L170.9 76.8L178.6 72.85L191 81.4L191.05 81.45L185.7 84.1L181.3 83.95z" />
<path style="fill:none;stroke-width:0.5;stroke-linecap:butt;stroke-linejoin:round;stroke-miterlimit:3;stroke:#B2B2B2;stroke-opacity:1" d="M172.4,83.1L176.7 86.05L176.2 88.85L165.5 86.55L172.4 83.1z" />
<path style="fill:none;stroke-width:0.5;stroke-linecap:butt;stroke-linejoin:round;stroke-miterlimit:3;stroke:#B2B2B2;stroke-opacity:1" d="M349.4,84.1L335.75 79.7L338.25 77.15L352.45 81.65L349.4 84.1z" />
<path style="fill:none;stroke-width:0.5;stroke-linecap:butt;stroke-linejoin:round;stroke-miterlimit:3;stroke:#B2B2B2;stroke-opacity:1" d="M227.25,74.25L233.85 70.95L250.9 82.65L249.8 89.75L227.25 74.25z" />
<path style="fill:none;stroke-width:0.5;stroke-linecap:butt;stroke-linejoin:round;stroke-miterlimit:3;stroke:#B2B2B2;stroke-opacity:1" d="M346.35,86.45L333.25 82.2L335.75 79.7L349.4 84.1L346.35 86.45z" />
<path style="fill:none;stroke-width:0.5;stroke-linecap:butt;stroke-linejoin:round;stroke-miterlimit:3;stroke:#B2B2B2;stroke-opacity:1" d="M176.85,91.15L183.2 87.95L188.8 91.65L182.45 94.85L176.85 91.15z" />
<path style="fill:none;stroke-width:0.5;stroke-linecap:butt;stroke-linejoin:round;stroke-miterlimit:3;stroke:#B2B2B2;stroke-opacity:1" d="M203.3,86.25L207.3 84.25L221.25 93.8L209.1 93.35L202.35 88.7L203.3 86.25z" />
<path style="fill:none;stroke-width:0.5;stroke-linecap:butt;stroke-linejoin:round;stroke-miterlimit:3;stroke:#B2B2B2;stroke-opacity:1" d="M213.95,80.9L233.4 94.3L221.25 93.8L207.3 84.25L213.95 80.9z" />
<path style="fill:none;stroke-width:0.5;stroke-linecap:butt;stroke-linejoin:round;stroke-miterlimit:3;stroke:#B2B2B2;stroke-opacity:1" d="M233.4,94.25L213.95 80.9L220.6 77.6L245.5 94.7L233.4 94.25z" />
<path style="fill:none;stroke-width:0.5;stroke-linecap:butt;stroke-linejoin:round;stroke-miterlimit:3;stroke:#B2B2B2;stroke-opacity:1" d="M260.3,77.3L261.45 70.15L278.1 70.8L274.35 93.95L260.85 93.45L263.45 77.45L260.3 77.3z" />
<path style="fill:none;stroke-width:0.5;stroke-linecap:butt;stroke-linejoin:round;stroke-miterlimit:3;stroke:#B2B2B2;stroke-opacity:1" d="M208.45,97L202.55 96.75L195.7 92.05Q199.05 90.4 202.35 88.7L209.1 93.35L209.05 93.35L208.45 97z" />
<path style="fill:none;stroke-width:0.5;stroke-linecap:butt;stroke-linejoin:round;stroke-miterlimit:3;stroke:#B2B2B2;stroke-opacity:1" d="M278.95,65.7L314.9 67.25L317.35 68.85L317 71.1L318.9 71.15L317.8 78.1L306.15 77.7L305.45 81.95L299.75 81.75L299.9 80.95L290.4 80.85L288.1 95.05L274.35 93.95L278.95 65.7z" />
<path style="fill:none;stroke-width:0.5;stroke-linecap:butt;stroke-linejoin:round;stroke-miterlimit:3;stroke:#B2B2B2;stroke-opacity:1" d="M130.05,78.95L137 75.5L159.7 91.1L170.9 91.5L169.5 100.8L148.5 99.85L143.6 96.5L140.2 98.2L135.45 94.9L133.5 95.25Q132.4 95.2 131.75 94.7L129.95 93.5Q129.35 93.1 129.35 92.55Q129.3 92 129.85 91.55L130.2 91.3L126.6 88.85L130.75 86.75L126.5 83.85L132.7 80.75L130.05 78.95z" />
<path style="fill:none;stroke-width:0.5;stroke-linecap:butt;stroke-linejoin:round;stroke-miterlimit:3;stroke:#B2B2B2;stroke-opacity:1" d="M338.65,93.9L327.95 90.4L335.35 82.9L346.3 86.5L338.65 93.9z" />
<path style="fill:none;stroke-width:0.5;stroke-linecap:butt;stroke-linejoin:round;stroke-miterlimit:3;stroke:#B2B2B2;stroke-opacity:1" d="M189.25,96.3L188.35 101.95L179.65 101.45L180.15 98.55L184.9 96.15L189.25 96.3z" />
<path style="fill:none;stroke-width:0.5;stroke-linecap:butt;stroke-linejoin:round;stroke-miterlimit:3;stroke:#B2B2B2;stroke-opacity:1" d="M207.65,96.95L208.45 97L208.65 96.15L213.65 96.35L212.4 103.4L207.25 103.1L208 97.85L207.55 97.8L207.65 96.95z" />
<path style="fill:none;stroke-width:0.5;stroke-linecap:butt;stroke-linejoin:round;stroke-miterlimit:3;stroke:#B2B2B2;stroke-opacity:1" d="M214,94.75L228.5 95.3L228.45 95.7L226.8 104.25L212.4 103.4L214 94.75z" />
<path style="fill:none;stroke-width:0.5;stroke-linecap:butt;stroke-linejoin:round;stroke-miterlimit:3;stroke:#B2B2B2;stroke-opacity:1" d="M228.45,95.7L234.55 95.95L233.2 104.65L226.8 104.25L228.45 95.7z" />
<path style="fill:none;stroke-width:0.5;stroke-linecap:butt;stroke-linejoin:round;stroke-miterlimit:3;stroke:#B2B2B2;stroke-opacity:1" d="M234.7,95.9L241.05 96.1L239.65 104.95L233.2 104.65L234.7 95.9z" />
<path style="fill:none;stroke-width:0.5;stroke-linecap:butt;stroke-linejoin:round;stroke-miterlimit:3;stroke:#B2B2B2;stroke-opacity:1" d="M240.75,98.2L253.55 98.7L252.4 105.65L239.7 104.9L240.75 98.2z" />
<path style="fill:none;stroke-width:0.5;stroke-linecap:butt;stroke-linejoin:round;stroke-miterlimit:3;stroke:#B2B2B2;stroke-opacity:1" d="M253.55,98.7L259.75 98.9L258.55 106.3L252.4 105.65L253.55 98.7z" />
<path style="fill:none;stroke-width:0.5;stroke-linecap:butt;stroke-linejoin:round;stroke-miterlimit:3;stroke:#B2B2B2;stroke-opacity:1" d="M259.75,98.9L277.7 99.6L277.55 100.35L272.3 100.05L271.15 107.55L258.55 106.3L259.75 98.9z" />
<path style="fill:none;stroke-width:0.5;stroke-linecap:butt;stroke-linejoin:round;stroke-miterlimit:3;stroke:#B2B2B2;stroke-opacity:1" d="M279.6,100.45L278.35 108.25L271.15 107.55L272.3 100.05L279.6 100.45z" />
<path style="fill:none;stroke-width:0.5;stroke-linecap:butt;stroke-linejoin:round;stroke-miterlimit:3;stroke:#B2B2B2;stroke-opacity:1" d="M148.9,110.6L164.45 110.8L159.65 114.85L148.9 110.6z" />
<path style="fill:none;stroke-width:0.5;stroke-linecap:butt;stroke-linejoin:round;stroke-miterlimit:3;stroke:#B2B2B2;stroke-opacity:1" d="M154.8,118.9L124.4 106.85L149.3 107.8L148.9 110.6L159.65 114.85L154.8 118.9z" />
<path style="fill:none;stroke-width:0.5;stroke-linecap:butt;stroke-linejoin:round;stroke-miterlimit:3;stroke:#B2B2B2;stroke-opacity:1" d="M216.1,117.95L215.25 123.1L168.3 121.4L172.25 116.3L216.1 117.95z" />
<path style="fill:none;stroke-width:0.5;stroke-linecap:butt;stroke-linejoin:round;stroke-miterlimit:3;stroke:#B2B2B2;stroke-opacity:1" d="M110.55,110.8L115.65 109.35L149.95 123L145.1 127.05L108.5 112.5L110.55 110.8z" />
<path style="fill:none;stroke-width:0.5;stroke-linecap:butt;stroke-linejoin:round;stroke-miterlimit:3;stroke:#B2B2B2;stroke-opacity:1" d="M214.5,127.8L162.9 125.9L168.3 121.4L215.25 123.1L214.5 127.8z" />
<path style="fill:none;stroke-width:0.5;stroke-linecap:butt;stroke-linejoin:round;stroke-miterlimit:3;stroke:#B2B2B2;stroke-opacity:1" d="M305.05,128.2L279.1 125.85L282.45 115.15L312.2 121.35L311.35 122.85L305.05 128.2z" />
<path style="fill:none;stroke-width:0.5;stroke-linecap:butt;stroke-linejoin:round;stroke-miterlimit:3;stroke:#B2B2B2;stroke-opacity:1" d="M213.75,132.45L157.6 130.35L162.9 125.9L214.5 127.8L213.75 132.45z" />
<path style="fill:none;stroke-width:0.5;stroke-linecap:butt;stroke-linejoin:round;stroke-miterlimit:3;stroke:#B2B2B2;stroke-opacity:1" d="M116.35,122.05L139.95 131.4L133.35 136.95L109.75 127.6L116.35 122.05z" />
<path style="fill:none;stroke-width:0.5;stroke-linecap:butt;stroke-linejoin:round;stroke-miterlimit:3;stroke:#B2B2B2;stroke-opacity:1" d="M110.35,144.7L83.05 133.85L87.05 130.55L92.3 132.65L98.4 127.5L122.95 137.25L116.05 143.05L112.35 143.05L110.35 144.7z" />
<path style="fill:none;stroke-width:0.5;stroke-linecap:butt;stroke-linejoin:round;stroke-miterlimit:3;stroke:#B2B2B2;stroke-opacity:1" d="M97.6,158.4L67.85 146.6L83.05 133.85L110.35 144.7L108.5 146.3L109.85 148.3L97.7 158.45L97.6 158.4z" />
<path style="fill:none;stroke-width:0.5;stroke-linecap:butt;stroke-linejoin:round;stroke-miterlimit:3;stroke:#B2B2B2;stroke-opacity:1" d="M94.35,161.15L79.35 155.2L82.6 152.45L97.6 158.4L94.35 161.15z" />
<path style="fill:none;stroke-width:0.5;stroke-linecap:butt;stroke-linejoin:round;stroke-miterlimit:3;stroke:#B2B2B2;stroke-opacity:1" d="M79.3,155.2L94.3 161.15L90.95 163.95L75.95 158L79.3 155.2z" />
<path style="fill:none;stroke-width:0.5;stroke-linecap:butt;stroke-linejoin:round;stroke-miterlimit:3;stroke:#B2B2B2;stroke-opacity:1" d="M141.75,161.5L125.45 155.05L129.65 151.55L142.55 156.6L148.35 156.85L147.55 161.75L141.75 161.5z" />
<path style="fill:none;stroke-width:0.5;stroke-linecap:butt;stroke-linejoin:round;stroke-miterlimit:3;stroke:#B2B2B2;stroke-opacity:1" d="M91.1,164L87.95 166.65L75 161.5L75.95 158L91.1 164z" />
<path style="fill:none;stroke-width:0.5;stroke-linecap:butt;stroke-linejoin:round;stroke-miterlimit:3;stroke:#B2B2B2;stroke-opacity:1" d="M65.05,169.9L70.05 165.7L87 172.45L86.1 178.25L65.05 169.9z" />
<path style="fill:none;stroke-width:0.5;stroke-linecap:round;stroke-linejoin:round;stroke-miterlimit:3;stroke:#B2B2B2;stroke-opacity:1" d="M226.95,159L243 159.6L254.55 164.2L238.6 174.3L160.1 171.35" />
<path style="fill:none;stroke-width:0.5;stroke-linecap:round;stroke-linejoin:round;stroke-miterlimit:3;stroke:#B2B2B2;stroke-opacity:1" d="M160.1,171.35L146.1 170.8L149 152.95M160.1,171.35L162.15 153.6L149 152.95" />
<path style="fill:none;stroke-width:0.5;stroke-linecap:butt;stroke-linejoin:round;stroke-miterlimit:3;stroke:#B2B2B2;stroke-opacity:1" d="M149,152.95L147 153.25L133.8 148.05L141.35 141.7L145.05 140.9L151.65 135.35L212.9 137.65L210.5 152.7L227.85 153.35L226.95 159" />
<path style="fill:none;stroke-width:0.5;stroke-linecap:butt;stroke-linejoin:round;stroke-miterlimit:3;stroke:#B2B2B2;stroke-opacity:1" d="M65.05,169.9L86.1 178.25L82.2 182.9L60.05 174.1L65.05 169.9z" />
<path style="fill:none;stroke-width:0.5;stroke-linecap:butt;stroke-linejoin:round;stroke-miterlimit:3;stroke:#B2B2B2;stroke-opacity:1" d="M102.15,179.1L108.7 179.35L108 183.55L97.8 183.15L102.15 179.1z" />
<path style="fill:none;stroke-width:0.5;stroke-linecap:butt;stroke-linejoin:round;stroke-miterlimit:3;stroke:#B2B2B2;stroke-opacity:1" d="M63.1,180.7L54.25 188.1L46.8 185.15L55.6 177.75L63.1 180.7z" />
<path style="fill:none;stroke-width:0.5;stroke-linecap:butt;stroke-linejoin:round;stroke-miterlimit:3;stroke:#B2B2B2;stroke-opacity:1" d="M55.65,177.75L60.05 174.1L82.2 182.9L81.35 187.95L55.65 177.75z" />
<path style="fill:none;stroke-width:0.5;stroke-linecap:butt;stroke-linejoin:round;stroke-miterlimit:3;stroke:#B2B2B2;stroke-opacity:1" d="M97.8,183.15L108 183.55L107.4 187.35L97.2 187L97.8 183.15z" />
<path style="fill:none;stroke-width:0.5;stroke-linecap:butt;stroke-linejoin:round;stroke-miterlimit:3;stroke:#B2B2B2;stroke-opacity:1" d="M97.2,187L107.4 187.35L106.8 191.15L96.6 190.75L97.2 187z" />
<path style="fill:none;stroke-width:0.5;stroke-linecap:butt;stroke-linejoin:round;stroke-miterlimit:3;stroke:#B2B2B2;stroke-opacity:1" d="M63.1,180.7L81.35 187.95L80.55 193.05L58.75 184.4L63.1 180.7z" />
<path style="fill:none;stroke-width:0.5;stroke-linecap:butt;stroke-linejoin:round;stroke-miterlimit:3;stroke:#B2B2B2;stroke-opacity:1" d="M58.75,184.4L80.55 193.05L79.75 198.2L54.35 188.15L58.75 184.4z" />
<path style="fill:none;stroke-width:0.5;stroke-linecap:butt;stroke-linejoin:round;stroke-miterlimit:3;stroke:#B2B2B2;stroke-opacity:1" d="M96.6,190.75L106.8 191.15L105.1 201.8L100.6 201.8L95.15 198.7L96.6 190.75z" />
<path style="fill:none;stroke-width:0.5;stroke-linecap:butt;stroke-linejoin:round;stroke-miterlimit:3;stroke:#B2B2B2;stroke-opacity:1" d="M217.45,68.2L203 58.25L210.1 54.7L224.55 64.65L217.45 68.2z" />
<path style="fill:none;stroke-width:0.5;stroke-linecap:butt;stroke-linejoin:round;stroke-miterlimit:3;stroke:#B2B2B2;stroke-opacity:1" d="M195.25,52.95L217.45 68.2L210.35 71.75L188.15 56.5L195.25 52.95z" />
<path style="fill:none;stroke-width:0.5;stroke-linecap:butt;stroke-linejoin:round;stroke-miterlimit:3;stroke:#B2B2B2;stroke-opacity:1" d="M181.7,59.7L203.9 75L197.45 78.2L175.3 62.95L181.7 59.7z" />
<path style="fill:none;stroke-width:0.5;stroke-linecap:butt;stroke-linejoin:round;stroke-miterlimit:3;stroke:#B2B2B2;stroke-opacity:1" d="M242.2,68.75L252.05 75.55L250.9 82.65L233.85 70.95L236.6 69.55L242.2 68.75z" />
<path style="fill:none;stroke-width:0.5;stroke-linecap:butt;stroke-linejoin:round;stroke-miterlimit:3;stroke:#B2B2B2;stroke-opacity:1" d="M343.75,76.35L330.75 74.05L331.8 70.5L345 71.1L352.25 74L355 71.7L361.55 74.25L353.95 80.35L343.75 76.35z" />
<path style="fill:none;stroke-width:0.5;stroke-linecap:butt;stroke-linejoin:round;stroke-miterlimit:3;stroke:#B2B2B2;stroke-opacity:1" d="M144.35,80.55L151.55 76.95L165.5 86.55L176.2 88.85L170.9 91.5L159.7 91.1L144.35 80.55z" />
<path style="fill:none;stroke-width:0.5;stroke-linecap:butt;stroke-linejoin:round;stroke-miterlimit:3;stroke:#B2B2B2;stroke-opacity:1" d="M253,69.85L261.45 70.15L260.3 77.3L263.45 77.45L260.85 93.45L249.25 93.05L253 69.85z" />
<path style="fill:none;stroke-width:0.5;stroke-linecap:butt;stroke-linejoin:round;stroke-miterlimit:3;stroke:#B2B2B2;stroke-opacity:1" d="M220.6,77.6L227.25 74.25L249.8 89.75L249.25 93.05L245.7 94.8L220.6 77.6z" />
<path style="fill:none;stroke-width:0.5;stroke-linecap:butt;stroke-linejoin:round;stroke-miterlimit:3;stroke:#B2B2B2;stroke-opacity:1" d="M187.4,96.2L195.7 92.05L202.55 96.75L187.4 96.2z" />
<path style="fill:none;stroke-width:0.5;stroke-linecap:butt;stroke-linejoin:round;stroke-miterlimit:3;stroke:#B2B2B2;stroke-opacity:1" d="M189.1,97.15L198.55 97.55L197.9 102.6L188.4 102.1L189.1 97.15z" />
<path style="fill:none;stroke-width:0.5;stroke-linecap:butt;stroke-linejoin:round;stroke-miterlimit:3;stroke:#B2B2B2;stroke-opacity:1" d="M198.55,97.55L208 97.9L207.25 103.1L197.9 102.6L198.55 97.55z" />
<path style="fill:none;stroke-width:0.5;stroke-linecap:butt;stroke-linejoin:round;stroke-miterlimit:3;stroke:#B2B2B2;stroke-opacity:1" d="M149.45,107.2L168.15 107.85L164.45 110.8L148.9 110.6L149.45 107.2z" />
<path style="fill:none;stroke-width:0.5;stroke-linecap:butt;stroke-linejoin:round;stroke-miterlimit:3;stroke:#B2B2B2;stroke-opacity:1" d="M124.4,106.85L154.8 118.9L149.95 123L115.65 109.35L124.4 106.85z" />
<path style="fill:none;stroke-width:0.5;stroke-linecap:butt;stroke-linejoin:round;stroke-miterlimit:3;stroke:#B2B2B2;stroke-opacity:1" d="M108.5,112.5L145.15 127.05L139.95 131.4L116.35 122.05L117.35 121.2L104.35 116.05L108.5 112.5z" />
<path style="fill:none;stroke-width:0.5;stroke-linecap:butt;stroke-linejoin:round;stroke-miterlimit:3;stroke:#B2B2B2;stroke-opacity:1" d="M212.9,137.65L151.65 135.35L157.6 130.35L213.75 132.45L212.9 137.65z" />
<path style="fill:none;stroke-width:0.5;stroke-linecap:butt;stroke-linejoin:round;stroke-miterlimit:3;stroke:#B2B2B2;stroke-opacity:1" d="M178.55,108.25L282.4 115.1L279.1 125.85L305.05 128.2L292.95 138.4L233.65 134.3L235.3 127.8L214.75 126.4L216.1 117.95L172.25 116.3L178.05 111.4L178.55 108.25z" />
<path style="fill:none;stroke-width:0.5;stroke-linecap:butt;stroke-linejoin:round;stroke-miterlimit:3;stroke:#B2B2B2;stroke-opacity:1" d="M142.55,156.6L129.65 151.55L133.8 148.05L147 153.25L149 152.95L148.35 156.85L142.55 156.6z" />
<path style="fill:none;stroke-width:0.5;stroke-linecap:butt;stroke-linejoin:round;stroke-miterlimit:3;stroke:#B2B2B2;stroke-opacity:1" d="M125.45,155.05L138.65 160.3L131.15 166.55L117.95 161.35L125.45 155.05z" />
<path style="fill:none;stroke-width:0.5;stroke-linecap:butt;stroke-linejoin:round;stroke-miterlimit:3;stroke:#B2B2B2;stroke-opacity:1" d="M75,161.5L87.95 166.65L87 172.45L70.05 165.7L75 161.5z" />
<path style="fill:none;stroke-width:0.5;stroke-linecap:round;stroke-linejoin:round;stroke-miterlimit:3;stroke:#B2B2B2;stroke-opacity:1" d="M229.5,180L183.95 208.9L163.65 201.5" />
<path style="fill:none;stroke-width:0.5;stroke-linecap:round;stroke-linejoin:round;stroke-miterlimit:3;stroke:#B2B2B2;stroke-opacity:1" d="M163.65,201.5L115.8 201.7L118.6 184.85M163.65,201.5L163.65 184.85L118.6 184.85" />
<path style="fill:none;stroke-width:0.5;stroke-linecap:butt;stroke-linejoin:round;stroke-miterlimit:3;stroke:#B2B2B2;stroke-opacity:1" d="M118.6,184.85L118.6 184.8L108 184.4L108.75 179.35L102.15 179.1L103.55 170.95L112.3 163.6L117.95 161.35L131.15 166.55L138.65 160.3L141.75 161.5L147.55 161.75L146.1 170.8L212.55 173.3L229.5 180" />
<path style="fill:none;stroke-width:0.5;stroke-linecap:butt;stroke-linejoin:round;stroke-miterlimit:3;stroke:#B2B2B2;stroke-opacity:1" d="M355.2,65.1L367.05 69.85L361.5 74.3L349.75 69.65L355.2 65.1z" />
</g>
</svg>
