<?xml version="1.0" encoding="utf-8"?>
<svg version="1.1" id="Layer_1"
xmlns="http://www.w3.org/2000/svg"
xmlns:xlink="http://www.w3.org/1999/xlink"
xmlns:author="http://www.sothink.com"
width="333px" height="155px"
xml:space="preserve">
<g id="61" transform="matrix(1, 0, 0, 1, 0, 0)">
<path style="fill:#2D2D2D;fill-opacity:1" d="M332.25,74.2L277.8 113.05L275.1 113.35L276.25 113.6L276.2 118.15L253.6 134.3L254.05 134.45L254 138.95L232.05 154.65L166.35 138.25L156.9 140.8L58.15 120.6L57.2 119.6L57.25 115.1L58.15 116.1L77.6 120.05L77.65 120.05L58.3 116.1L57.35 115.1L69.6 107.5L69.6 107.45L69.7 107.45L88.15 111.2L88.15 111.25L138.7 121.55L138.7 121.7L138.9 121.55L69.8 107.4L81.05 107.95L81.05 105.05L83.75 103.15L83.75 100.85L84.65 100.25L60.65 99L60.65 100.6L54.05 105.3L54 105.3L54 105.35L50.6 107.75L47.35 108.1L45.3 109.75L40.65 108.55L32.5 114.4L15.1 110.85L13.85 110.3L13.85 105.75L14.9 104.15L37.7 97.85L41.65 97.85L41.65 96.4L77.05 70.25L77.1 70.25L88.4 62.2L76.7 65.4L71.1 69.45L64.95 70.05L61.05 69.1L60.25 69.65L60.25 71.85L55.55 75.2L52.5 75.5L42.2 83.05L41.5 83.15L43.85 85.5L43.8 90.05L41.4 90.3L41.4 91.75L38.6 93.75L36.5 94L36.45 95.45L31.75 98.8L29.25 99.05L29.25 100.1L8.6 105.2L3.7 105.7L0 104L0.05 99.5L1.65 84.65L7.35 86.05L9.35 65.7L26.65 53.35L26.7 50.1L38.95 41.35L80.4 51.75L80.4 53.6L82.45 56.8L82.45 58.25L83.9 57.9L83.75 57.7L83.8 56.8L86.9 56.45L91.2 53.4L90.75 52.65L90.75 51.75L93.75 51.4L96.15 49.7L95.7 48.95L95.7 48.05L98.15 47.75L92.55 42.15L92.55 41.2L94.35 41.05L124.7 19.35L127.85 20.15L129.05 22.05L132.15 22.85L137.15 19.3L134.75 15.45L134.75 14.55L137.75 12.4L144.45 14.05L149.65 10.35L162.5 13.55L162.5 14.45L151.35 22.4L146.85 22.9L144.5 24.55L145.6 24.45L165 29.3L198.25 5.55L196.95 5.25L196.95 4.35L203.1 0L212.45 2.2L212.4 3.1L178.5 27.3L179.25 28.25L179.25 29.2L175.25 32L224 44.15L224.9 45.85L254.6 52L257.45 51L332.25 69.65L332.25 74.2M188.5,45.15L146 34.55L140.1 35.15L120.05 49.45L112.85 47.65L97.35 59.1L102.4 60.35L102.35 62.85L107.05 64L107 68.55L97.5 75.3L102.8 76.65L103.8 75.95L114.15 78.5L116.35 76.95L119.5 77.05L119.5 76.95L112.15 75.1L112.2 70.55L122.55 73.15L122.55 73.3L122.75 73.15L112.4 70.55L135.55 54.05L184.5 67.4L193.15 72.85L216.65 64.85L207.1 51.15L189.5 46.75L188.5 45.15M129.15,80.3L129.15 81.95L128.35 87.2L125.85 88.3L127 89.25L127 93.8L126.35 96.9L111.75 96.45L109.2 105.1L106 106.35L105.7 109.15L127.35 110.2L134.4 80.55L129.15 80.3" />
</g>
</svg>
