<?xml version="1.0" encoding="utf-8"?>
<svg version="1.1" id="Layer_1"
xmlns="http://www.w3.org/2000/svg"
xmlns:xlink="http://www.w3.org/1999/xlink"
xmlns:author="http://www.sothink.com"
width="333px" height="109px"
xml:space="preserve">
<g id="63" transform="matrix(1, 0, 0, 1, -142.5, -98.35)">
<path style="fill:none;stroke-width:0.5;stroke-linecap:butt;stroke-linejoin:round;stroke-miterlimit:3;stroke:#B5B5B5;stroke-opacity:1" d="M181.5,98.6L222.55 108.9L221.8 109.4L224.6 113.9L213.4 121.9L207.45 122.5L203.9 121.6L205.55 120.45L168.4 111.15L170.7 109.5L169.4 107.25L181.5 98.6z" />
<path style="fill:none;stroke-width:0.5;stroke-linecap:butt;stroke-linejoin:round;stroke-miterlimit:3;stroke:#B5B5B5;stroke-opacity:1" d="M239.35,116.15L244.5 117.45L241.9 119.3L249.15 121.1L235.15 131.1L219.9 127.3L234.35 117L238.85 116.5L239.35 116.15z" />
<path style="fill:none;stroke-width:0.5;stroke-linecap:butt;stroke-linejoin:round;stroke-miterlimit:3;stroke:#B5B5B5;stroke-opacity:1" d="M152.05,122.8L168.15 111.35L204.85 120.5L201.5 122.9L202.45 124.4L197.85 127.65L194.85 127.95L184.5 135.55L179.95 136L151.45 128.9L152.05 122.8z" />
<path style="fill:none;stroke-width:0.5;stroke-linecap:butt;stroke-linejoin:round;stroke-miterlimit:3;stroke:#B5B5B5;stroke-opacity:1" d="M183.05,142.8L150.85 134.8L151.4 129.15L179.7 136.2L185.95 142.5L183.05 142.8z" />
<path style="fill:none;stroke-width:0.5;stroke-linecap:butt;stroke-linejoin:round;stroke-miterlimit:3;stroke:#B5B5B5;stroke-opacity:1" d="M178.1,146.5L150.4 139.6L150.85 135.05L182.8 143L183.65 144.3L180.9 146.2L178.1 146.5z" />
<path style="fill:none;stroke-width:0.5;stroke-linecap:butt;stroke-linejoin:round;stroke-miterlimit:3;stroke:#B5B5B5;stroke-opacity:1" d="M171.15,151.55L154.65 147.45L157.95 145.1L150.05 143.1L150.4 139.85L177.85 146.7L178.7 148L174.1 151.25L171.15 151.55z" />
<path style="fill:none;stroke-width:0.5;stroke-linecap:butt;stroke-linejoin:round;stroke-miterlimit:3;stroke:#B5B5B5;stroke-opacity:1" d="M171.45,152.6L151.05 157.65L146.3 158.15L142.75 156.55L144.35 141.9L157.3 145.15L153.95 147.55L170.9 151.75L171.45 152.6z" />
<path style="fill:none;stroke-width:0.5;stroke-linecap:butt;stroke-linejoin:round;stroke-miterlimit:3;stroke:#B5B5B5;stroke-opacity:1" d="M270.6,139.7L268.1 140.8L267.45 144.95L269.25 146.35L268.6 149.35L254 148.9L251.45 157.6L248.25 158.85L247.8 163.15L223.9 162.05L228.9 158.5L226.55 157.9L233.45 153L200.75 151.35L199.35 152.35L202.8 153.2L196.4 157.75L185 154.9L184.4 153.5L219.65 127.45L245.35 133.9L246.35 133.15L256.7 135.75L258.95 134.15L271.35 134.6L270.6 139.7z" />
<path style="fill:none;stroke-width:0.5;stroke-linecap:butt;stroke-linejoin:round;stroke-miterlimit:3;stroke:#B5B5B5;stroke-opacity:1" d="M189.7,160.55L187.7 162.15L183.05 161L174.85 166.8L157.7 163.35L156.6 162.8L157.6 161.3L180.2 155.05L184.7 155.05L196.15 157.9L192.95 160.2L189.7 160.55z" />
<path style="fill:none;stroke-width:0.5;stroke-linecap:round;stroke-linejoin:round;stroke-miterlimit:3;stroke:#B5B5B5;stroke-opacity:1" d="M182.95,160.95L169.25 158.15" />
<path style="fill:none;stroke-width:0.5;stroke-linecap:butt;stroke-linejoin:round;stroke-miterlimit:3;stroke:#B5B5B5;stroke-opacity:1" d="M230.15,168.35L219.95 177L200.85 173.1L200 172.2L212.15 164.65L230.15 168.35z" />
<path style="fill:none;stroke-width:0.5;stroke-linecap:butt;stroke-linejoin:round;stroke-miterlimit:3;stroke:#B5B5B5;stroke-opacity:1" d="M277.9,111.3L326.6 124.6L335.2 130L308.65 190.75L299.4 193.25L271.1 187.45L281.5 178.6L213.45 164.7L269.8 167.4L277.95 133.15L262.4 132.3L265.3 130.2L254.95 127.65L277.9 111.3z" />
<path style="fill:none;stroke-width:0.5;stroke-linecap:butt;stroke-linejoin:round;stroke-miterlimit:3;stroke:#B5B5B5;stroke-opacity:1" d="M230.6,168.45L244.3 171.25L234.25 179.95L220.4 177.1L230.6 168.45z" />
<path style="fill:none;stroke-width:0.5;stroke-linecap:butt;stroke-linejoin:round;stroke-miterlimit:3;stroke:#B5B5B5;stroke-opacity:1" d="M256.85,173.85L246.85 182.5L234.7 180.05L244.75 171.35L256.85 173.85z" />
<path style="fill:none;stroke-width:0.5;stroke-linecap:butt;stroke-linejoin:round;stroke-miterlimit:3;stroke:#B5B5B5;stroke-opacity:1" d="M269.1,176.3L259 185L247.3 182.6L257.3 173.95L269.1 176.3z" />
<path style="fill:none;stroke-width:0.5;stroke-linecap:butt;stroke-linejoin:round;stroke-miterlimit:3;stroke:#B5B5B5;stroke-opacity:1" d="M280.8,178.7L270.7 187.4L259.45 185.1L269.55 176.4L280.8 178.7z" />
<path style="fill:none;stroke-width:0.5;stroke-linecap:butt;stroke-linejoin:round;stroke-miterlimit:3;stroke:#B5B5B5;stroke-opacity:1" d="M399.95,108.25L474.35 126.8L420.1 165.5L416 165.95L411.65 169.05L418.35 170.75L391 190.3L396.15 191.55L374.45 207.05L309.15 190.75L335.7 130.05L399.95 108.25z" />
</g>
</svg>
