<?xml version="1.0" encoding="utf-8"?>
<svg version="1.1" id="Layer_1"
xmlns="http://www.w3.org/2000/svg"
xmlns:xlink="http://www.w3.org/1999/xlink"
xmlns:author="http://www.sothink.com"
width="341px" height="195px"
xml:space="preserve">
<g id="62" transform="matrix(1, 0, 0, 1, -138.35, -53.2)">
<path style="fill:none;stroke-width:8;stroke-linecap:round;stroke-linejoin:round;stroke-miterlimit:3;stroke:#2F77BB;stroke-opacity:1" d="M279.4,178.4L281.25 178.75L281.05 178.9L281.05 178.75L279.4 178.4L278.85 178.3L278.1 178.15L257.3 173.9L233.85 169.1L233.05 168.95L230.5 168.45L230.5 168.4L216.75 165.6L215.6 165.35L212.05 164.65L211.95 164.65L211.95 164.7L199.7 172.3L200.65 173.3L220 177.25L219.95 177.25L200.5 173.3L199.6 172.3L199.55 176.8L200.5 177.8L299.25 198L308.7 195.45L374.4 211.85L396.35 196.15L396.4 191.65L395.95 191.5L418.55 175.35L418.6 170.8L417.45 170.55L420.15 170.25L474.6 131.4L474.6 126.85L399.8 108.2L396.95 109.2L367.25 103.05L366.35 101.35L317.6 89.2L321.6 86.4L321.6 85.45L320.85 84.5L354.75 60.3L354.8 59.4L345.45 57.2L339.3 61.55L339.3 62.45L340.6 62.75L307.35 86.5L287.95 81.65L286.85 81.75L289.2 80.1L293.7 79.6L304.85 71.65L304.85 70.75L292 67.55L286.8 71.25L280.1 69.6L277.1 71.75L277.1 72.65L279.5 76.5L274.5 80.05L271.4 79.25L270.2 77.35L267.05 76.55L236.7 98.25L234.9 98.4L234.9 99.35L240.5 104.95L238.05 105.25L238.05 106.15L238.5 106.9L236.1 108.6L233.1 108.95L233.1 109.85L233.55 110.6L229.25 113.65L226.15 114L226.1 114.9L226.25 115.1L224.8 115.45L224.8 114L222.75 110.8L222.75 108.95L181.3 98.55L169.05 107.3L169 110.55L151.7 122.9L149.7 143.25L144 141.85L142.4 156.7L142.35 161.2L146.05 162.9L150.95 162.4L171.6 157.3L171.6 156.25L174.1 156L178.8 152.65L178.85 151.2L180.95 150.95L183.75 148.95L183.75 147.5L186.15 147.25L186.2 142.7L183.85 140.35L184.55 140.25L189 136.75L194.85 132.7L197.9 132.4L202.6 129.05L202.6 126.85L203.4 126.3L207.3 127.25L213.45 126.65L219.05 122.6L230.75 119.4L219.45 127.45L219.4 127.45L184 153.6L184.7 155.05M262.4,106.65L282.45 92.35L288.35 91.75L330.85 102.35L331.85 103.95L349.45 108.35L359 122.05L335.5 130.05L326.85 124.6L277.9 111.25L254.75 127.75L265.1 130.35L264.9 130.5L264.9 130.35L254.55 127.75L254.5 132.3L261.85 134.15L261.85 134.25L258.7 134.15L256.5 135.7L246.15 133.15L245.15 133.85L239.85 132.5L249.35 125.75L249.4 121.2L244.7 120.05L244.75 117.55L239.7 116.3L255.2 104.85L262.4 106.65M271.5,137.5L276.75 137.75L269.7 167.4L248.05 166.35L248.35 163.55L251.55 162.3L254.1 153.65L268.7 154.1L269.35 151L269.35 146.45L268.2 145.5L270.7 144.4L271.5 139.15L271.5 137.5M264.85,132.6L277.8 133.2L277.6 134.1L277.6 133.25L264.85 132.65L264.85 132.6M275,188.45L299.45 193.45L299.3 193.45L274.95 188.5L275 188.45M267.6,149.55L254.15 149.1M251.1,183.6L259 185.25M184,153.6L184 155.05L180.05 155.05L157.25 161.35L156.2 162.95L156.2 167.5L157.45 168.05L174.85 171.6L183 165.75L187.65 166.95L189.7 165.3L192.95 164.95L196.35 162.55L196.35 162.5L196.4 162.5L203 157.8L203 156.2L227 157.45L226.1 158.05L226.1 160.35L223.4 162.25L223.4 165.15L212.15 164.6L215.6 165.35M196.4,158L199.55 155.75M230.5,168.4L233.05 168.95M247.95,163.35L228.45 162.5M276.75,182.45L270.7 187.6M151,157.85L164.1 154.6M310.5,191.35L374.45 207.3" />
<path style="fill:#9E9F9F;fill-opacity:1" d="M354.75,60.3L320.85 84.5L321.6 85.45L321.6 86.4L317.6 89.2L366.35 101.35L367.25 103.05L392 107.95L399.65 109.85L399.65 110.75L360.35 124.1L349.45 108.35L331.85 103.95L330.85 102.35L288.35 91.75L282.45 92.35L262.4 106.65L255.2 104.85L239.45 116.5L239.8 117.25L239.8 118.15L235.15 118.15L212.35 124.45L211.35 126.05L201.2 121.45L201.25 120.55L206.1 120.05L226.25 115.1L226.1 114.9L226.15 114L229.25 113.65L233.55 110.6L233.1 109.85L233.1 108.95L236.1 108.6L238.5 106.9L238.05 106.15L238.05 105.25L240.5 104.95L234.9 99.35L234.9 98.4L236.7 98.25L267.05 76.55L270.2 77.35L271.4 79.25L274.5 80.05L279.5 76.5L277.1 72.65L277.1 71.75L280.1 69.6L286.8 71.25L292 67.55L304.85 70.75L304.85 71.65L293.7 79.6L289.2 80.1L286.85 81.75L287.95 81.65L307.35 86.5L340.6 62.75L339.3 62.45L339.3 61.55L345.45 57.2L354.8 59.4L354.75 60.3" />
<path style="fill:#B2B4B6;fill-opacity:1" d="M474.6,131.4L420.15 170.25L416.05 170.7L411.85 173.7L411.85 169.15L416.1 166.15L420.2 165.7L474.6 126.85L474.6 131.4M418.55,175.35L391.2 194.9L391.25 190.35L418.6 170.8L418.55 175.35M396.4,191.65L396.35 196.15L374.4 211.85L308.7 195.45L299.25 198L200.5 177.8L199.55 176.8L199.6 172.3L200.5 173.3L219.95 177.25L226.05 172.1L211.9 169.2L211.95 164.65L281.05 178.75L281 183.3L274.95 188.5L299.3 193.45L308.75 190.9L335.35 130.1L335.3 134.6L310.5 191.35L374.45 207.3L396.4 191.65M150,143.35L150.05 139.75L178 146.75L179.05 146.6L150.5 139.5L150.5 134.95L182.9 143.05L186.2 142.7L186.15 147.25L183.75 147.5L183.75 148.95L180.95 150.95L178.85 151.2L178.8 152.65L174.1 156L171.6 156.25L171.6 157.3L150.95 162.4L146.05 162.9L142.35 161.2L142.4 156.7L146.1 158.35L151 157.85L164.1 154.6L154.15 152.15L154.15 148.95L149.65 147.8L149.35 147.7L149.35 143.15L150 143.35M151.1,129.05L179.8 136.2L184.55 135.7L194.9 128.15L197.9 127.85L201.65 125.2L201.7 124.3L167.9 115.85L167.95 111.3L169 111.6L169.05 107.3L170.35 109.6L170.3 111.9L205.1 120.6L205.1 122.15L207.3 122.7L213.45 122.1L224.8 114L224.75 118.55L213.45 126.65L207.3 127.25L203.4 126.3L202.6 126.85L202.6 129.05L197.9 132.4L194.85 132.7L189 136.75L184.55 140.25L179.75 140.75L151.05 133.6L151.1 129.05M222.75,108.95L222.75 113.5L221.95 114.1L221.95 109.55L222.75 108.95M219.4,127.45L219.45 127.45L235.15 131.35L249.4 121.2L249.35 125.75L235.1 135.9L219.4 131.95L219.4 127.45M242.1,123.95L242.15 119.4L244.75 117.55L244.7 122.05L242.1 123.95M261.85,134.15L254.5 132.3L254.55 127.75L264.9 130.35L264.85 132.65L277.6 133.25L277.55 137.8L271.5 137.5L271.5 139.15L270.7 144.4L268.2 145.5L267.6 149.55L267.6 145.05L268.25 140.95L270.75 139.85L271.1 137.5L261.85 137.05L261.85 134.15M268.7,154.1L254.1 153.65L251.55 162.3L248.35 163.55L247.9 167.9L223.35 166.8L223.4 162.25L226.1 162.35L226.1 158.05L228.45 158.65L228.45 162.5L247.95 163.35L248.4 159L251.6 157.75L254.15 149.1L267.6 149.55L268.7 149.55L269.35 146.45L269.35 151L268.7 154.1M232.9,157.75L203 156.2L203 157.8L196.4 162.5L196.35 162.5L196.35 162.55L192.95 164.95L189.7 165.3L187.65 166.95L183 165.75L174.85 171.6L157.45 168.05L156.2 167.5L156.2 162.95L157.45 163.5L174.85 167.05L183 161.25L187.65 162.4L189.65 160.85L184.65 159.6L184 158.15L184 153.6L184.7 155.05L196.4 158L199.55 155.75L199.6 152.4L200.8 151.55L232.95 153.2L232.9 157.75M240.25,175L230.35 172.95L224.25 178.15L234.25 180.2L240.25 175M246.9,182.75L252.85 177.55L244.5 175.85L238.5 181.05L246.9 182.75M263.25,186.1L270.7 187.6L276.75 182.45L269.3 180.9L263.25 186.1M257.05,178.45L251.1 183.6L259 185.25L265.05 180.05L257.05 178.45M175.35,150.6L157.5 146.2L157.5 148.4L171 151.8L174.15 151.45L175.35 150.6" />
<path style="fill:#999999;fill-opacity:1" d="M445.4,191.4L446.15 192L446.85 191.8L447.15 191.2Q447.2 190.75 446.85 190.25L446.05 189.75L445.35 189.95Q445.05 190.15 445.05 190.55Q445 190.95 445.4 191.4M445.1,189.6Q445.6 189.2 446.2 189.25Q446.75 189.35 447.2 189.95Q447.6 190.4 447.65 190.8L447.6 191.5L447.1 192.15L446.05 192.5Q445.45 192.4 444.95 191.75Q444.4 191.1 444.55 190.45Q444.65 189.95 445.1 189.6M443.55,189.35L443.85 189.75L442.7 190.65L445.05 193.65L444.65 194L442.3 191L441.15 191.85L440.85 191.45L443.55 189.35M463.7,176Q463.65 176.4 464.05 176.9Q464.4 177.35 464.8 177.45L465.45 177.25L465.7 176.7L465.35 175.85L464.6 175.25Q464.2 175.2 463.95 175.45Q463.65 175.65 463.7 176M464.05,173.35L466.7 176.75L466.3 177.05L466.05 176.75Q466.1 177.3 465.65 177.65L465 177.9L464.25 177.75L463.6 177.2L463.25 176.45L463.2 175.7L463.65 175.1L464.1 174.9L464.6 174.95L463.65 173.7L464.05 173.35M462.35,177.55L461.9 177.25L461.35 177.5L461 177.95L461.05 178.45L460.65 178.7L460.45 178.15L460.65 177.65L461.15 177.1Q461.45 176.85 461.7 176.75L462.15 176.7L462.5 176.9L462.8 177.25L463.25 177.8L463.85 178.55L464.2 178.75L463.75 179.1L463.4 178.85L463.2 179.45L462.8 179.9Q462.4 180.25 462.05 180.2Q461.65 180.15 461.4 179.85L461.25 179.5L461.25 179.1L461.45 178.7L461.8 178.35L462.45 177.65L462.35 177.55M461.75,179.3L461.85 179.5Q461.95 179.65 462.2 179.65L462.65 179.55L463 179.1L463.05 178.6L462.8 178.1L462.7 177.95L462.1 178.65Q461.9 178.85 461.85 179L461.75 179.3M459.55,178.85L460.55 179.55L461 180.4L460.95 181.1L460.45 181.75L459.4 182.1Q458.8 182 458.3 181.35Q457.75 180.7 457.9 180.05Q458 179.55 458.45 179.2Q458.95 178.8 459.55 178.85M458.75,181L459.5 181.6L460.2 181.4L460.5 180.8Q460.55 180.35 460.2 179.85Q459.85 179.4 459.4 179.35Q459 179.3 458.7 179.55Q458.4 179.75 458.4 180.15Q458.35 180.55 458.75 181M455.9,180.6Q455.6 180.6 455.25 180.85L454.15 181.7L455 182.8L456 182.05L456.4 181.65L456.55 181.25L456.4 180.85Q456.2 180.6 455.9 180.6M456.35,180.1L456.9 180.5L457.1 181.3L456.6 182.15L457.05 182.15L457.75 182.3L459.05 182.75L458.5 183.15L457.5 182.8L456.8 182.6L456.4 182.55L456.15 182.6L455.9 182.8L455.35 183.2L456.5 184.7L456.05 185.05L453.4 181.65L454.9 180.5L455.7 180.05L456.35 180.1M451.75,184.55L452.15 184.55L452.55 184.75L452.85 185.15L454.05 186.65L453.65 187L452.5 185.5L452.15 185.15L451.8 185.1L451.45 185.2L451.1 185.75Q451.1 186.1 451.45 186.55L452.5 187.9L452.05 188.2L450.15 185.75L450.55 185.45L450.8 185.8Q450.75 185.2 451.25 184.8L451.75 184.55M450.6,189.35L449.05 188.2L448.65 187.85L449.6 190.1L449.15 190.45L446.5 188.6L446.95 188.25L449 189.8L448.7 189.2L448 187.45L448.4 187.1L449.9 188.2L450.35 188.6L449.45 186.3L449.9 185.95L451 189L450.6 189.35M364.55,244.6L364.1 245.15L365.8 245.55L365.75 244.9L365.2 244.45L364.55 244.6M364.6,247.2L363.65 246.6Q363.3 246.1 363.5 245.35Q363.65 244.6 364.15 244.25L365.3 244.05Q365.9 244.2 366.2 244.7Q366.45 245.25 366.3 246L366.25 246.1L364 245.55Q363.9 246.05 364.15 246.45L364.7 246.85L365.2 246.8L365.6 246.35L366.15 246.6L365.55 247.15L364.6 247.2M330,234.95L330.35 238.15L330.4 238.8L330.8 238.2L332.45 235.5L333.2 235.65L332.25 239.85L331.7 239.75L332.5 236.25L330.5 239.45L330 239.35L329.55 235.5L328.75 239.05L328.25 238.95L329.2 234.75L330 234.95M333.85,237.35Q334.05 237.2 334.4 237.15L335.05 237.25L335.7 237.45L336 237.75L336.05 238.15L336 238.65L335.85 239.35L335.7 240.25L335.7 240.65L335.15 240.5L335.15 240.15L334.5 240.3L333.95 240.3L333.25 239.9Q333 239.6 333.1 239.2L333.25 238.8L333.65 238.6L334.05 238.5L334.5 238.5L335.45 238.5L335.5 238.4L335.45 237.95Q335.3 237.7 334.9 237.6L334.35 237.65L333.95 238.05L333.5 237.85L333.85 237.35M333.8,239.1L333.65 239.3L333.7 239.7L334.15 239.9L334.7 239.95L335.15 239.65L335.3 239.1L335.35 238.95L334.5 238.95L334.05 238.95Q333.85 239 333.8 239.1M339.75,237.15L339.2 239.55L340.7 238.6L341.4 238.75L340 239.6L340.8 241.8L340.15 241.65L339.5 239.9L339.05 240.15L338.8 241.35L338.3 241.25L339.25 237.05L339.75 237.15M344.05,239.7Q344.3 240.25 344.15 241L344.1 241.1L341.85 240.55Q341.75 241.05 342 241.45L342.55 241.85L343.05 241.8L343.45 241.35L344 241.6L343.4 242.15L342.45 242.2Q341.8 242.05 341.5 241.6Q341.15 241.1 341.35 240.35Q341.5 239.6 342 239.25L343.15 239.05Q343.75 239.2 344.05 239.7M343.6,239.9L343.05 239.45L342.4 239.6Q342.1 239.8 341.95 240.15L343.65 240.55L343.6 239.9M337.5,237.85L337.4 238.3L337.8 237.95L338.15 237.95L338.65 238.2L338.35 238.65L338 238.5L337.65 238.5L337.45 238.7L337.2 239.3L336.85 240.9L336.35 240.8L337.05 237.75L337.5 237.85M350.05,239.95L349.3 239.9L348.95 240.3L349.05 240.75L349.8 241.25L350.7 241.7L351.1 242.2L351.15 242.85L350.8 243.45L350.15 243.8L349.35 243.75L348.4 243.4L347.95 242.75Q347.75 242.35 347.85 241.95L348.4 242.05L348.45 242.6L348.8 243L349.4 243.25L350 243.35L350.45 243.1L350.6 242.8L350.6 242.4L350.25 242.1L349.6 241.7L348.8 241.3L348.45 240.8L348.4 240.25L348.75 239.7L349.4 239.4L350.15 239.45L350.95 239.75L351.4 240.35L351.45 241.05L350.9 240.95L350.75 240.3Q350.55 240.05 350.05 239.95M345.8,239.65L346.3 239.8L346.2 240.2L345.7 240.05L345.3 241.85L345.25 242.15L345.3 242.25L345.5 242.35L345.7 242.4L345.7 242.85L345.3 242.8L344.85 242.6L344.7 242.3L344.8 241.7L345.2 239.95L344.8 239.85L344.9 239.45L345.3 239.55L345.45 238.8L346 238.6L345.8 239.65M354.25,241.65L354.75 241.75L353.8 245.95L353.25 245.8L353.55 244.35L353.2 244.55L352.75 244.55Q352.2 244.4 351.9 243.95Q351.6 243.4 351.75 242.65Q351.85 242.2 352.1 241.9L352.7 241.45L353.4 241.4Q353.95 241.5 354.15 242.05L354.25 241.65M353.35,241.8Q353 241.7 352.7 241.95L352.3 242.75Q352.15 243.35 352.35 243.7Q352.55 244.1 352.85 244.15L353.5 244L353.9 243.2L353.85 242.25L353.35 241.8M359.1,244.15L359.55 244.15L360.5 244.15L360.55 244.05L360.5 243.6L359.95 243.25L359.4 243.3L359 243.7L358.55 243.5L358.9 243L359.45 242.8L360.1 242.9L360.75 243.1L361.05 243.4L361.1 243.8L361.05 244.3L360.9 245L360.75 245.9L360.75 246.3L360.2 246.15L360.2 245.8L359.55 245.95L359 245.95L358.3 245.55Q358.05 245.25 358.15 244.85L358.3 244.45Q358.45 244.3 358.7 244.25L359.1 244.15M357.5,242.3L358.05 242.45L357.35 245.5L356.85 245.4L356.95 244.95L355.9 245.2L355.4 245L355.1 244.7L355.05 244.3L355.1 243.8L355.55 241.9L356.1 242L355.7 243.7L355.6 244.25L355.75 244.6L356.1 244.85L356.55 244.8L356.95 244.55L357.1 243.95L357.5 242.3M359.2,245.55L359.75 245.6L360.2 245.3L360.35 244.75L360.4 244.6L359.55 244.6L359.1 244.6L358.85 244.75L358.7 244.95Q358.65 245.15 358.75 245.35L359.2 245.55M362.55,243.5L362.45 243.95L362.85 243.6L363.2 243.6Q363.45 243.65 363.7 243.85L363.4 244.3L363.05 244.15L362.7 244.15L362.5 244.35L362.25 244.95L361.9 246.55L361.4 246.45L362.1 243.4L362.55 243.5M224.15,220.25L223.6 219.8L222.95 219.95Q222.65 220.15 222.5 220.5L224.2 220.9L224.15 220.25M223,222.55L222.05 221.95Q221.7 221.45 221.9 220.7Q222.05 219.95 222.55 219.6L223.7 219.4Q224.3 219.55 224.6 220.05Q224.85 220.6 224.7 221.35L224.65 221.45L222.4 220.9Q222.3 221.4 222.55 221.8L223.1 222.2L223.6 222.15L224 221.7L224.55 221.95L223.95 222.5L223 222.55M227,220.1L227.9 220.75Q228.15 221.3 228 222.05L227.95 222.15L225.7 221.6Q225.6 222.1 225.85 222.5Q226.05 222.8 226.4 222.9L226.9 222.85L227.3 222.4L227.85 222.65L227.25 223.2L226.3 223.25Q225.65 223.1 225.35 222.65Q225 222.15 225.2 221.4Q225.35 220.65 225.85 220.3L227 220.1M227.5,221.6L227.45 220.95L226.9 220.5L226.25 220.65Q225.95 220.85 225.8 221.2L227.5 221.6M229.25,219.9L229.8 219.7L229.6 220.75L230.1 220.9L230 221.3L229.5 221.15L229.1 222.95L229.05 223.25L229.1 223.35L229.3 223.45L229.5 223.5L229.5 223.95L229.1 223.9L228.65 223.7L228.5 223.4L228.6 222.8L229 221.05L228.6 220.95L228.7 220.55L229.1 220.65L229.25 219.9M210.9,215.35L210.55 216.85Q210.95 216.55 211.5 216.65L211.95 216.85L212.3 217.3L212.45 217.8L212.4 218.5Q212.25 219.25 211.8 219.6L210.75 219.8Q210.2 219.65 210 219.15L209.9 219.55L209.45 219.45L210.4 215.25L210.9 215.35M209.05,216.35Q209.25 216.65 209.1 217.15L208.65 219.25L208.15 219.15L208.6 217.25L208.65 216.8L208.5 216.5L208.2 216.4L207.6 216.45Q207.35 216.6 207.25 217.1L206.85 218.85L206.35 218.75L206.8 216.8L206.75 216.2L206.4 215.95L205.95 216L205.65 216.25L205.4 216.9L205.05 218.45L204.55 218.35L205.25 215.3L205.7 215.4L205.6 215.85Q205.8 215.6 206.05 215.6L206.6 215.55Q206.95 215.6 207.1 215.8L207.35 216.3Q207.85 215.8 208.4 215.95L209.05 216.35M203.25,214.8L203.9 215L204.2 215.3L204.25 215.7L204.2 216.2L204.05 216.9L203.9 217.8L203.9 218.2L203.35 218.05L203.35 217.7L202.7 217.85L202.15 217.85L201.45 217.45Q201.2 217.15 201.3 216.75L201.45 216.35L201.85 216.15L202.25 216.05L202.7 216.05L203.65 216.05L203.7 215.95L203.65 215.5Q203.5 215.25 203.1 215.15L202.55 215.2L202.15 215.6L201.7 215.4L202.05 214.9L202.6 214.7L203.25 214.8M202.7,216.5L202.25 216.5Q202.05 216.55 202 216.65Q201.85 216.7 201.85 216.85Q201.8 217.05 201.9 217.25L202.35 217.45L202.9 217.5L203.35 217.2L203.5 216.65L203.55 216.5L202.7 216.5M210.7,217.2Q210.35 217.45 210.25 218L210.2 218.85L210.8 219.35L211.45 219.2L211.9 218.4Q212.05 217.8 211.85 217.45L211.35 217.05Q211 216.95 210.7 217.2M217.55,216.95L218 217.55L218.05 218.25L217.5 218.15L217.35 217.5Q217.15 217.25 216.65 217.15L215.9 217.1L215.55 217.5L215.65 217.95L216.4 218.45L217.3 218.9L217.7 219.4L217.75 220.05L217.4 220.65L216.75 221L215.95 220.95L215 220.6L214.55 219.95Q214.35 219.55 214.45 219.15L215 219.25L215.05 219.8L215.4 220.2L216 220.45L216.6 220.55L217.05 220.3L217.2 220L217.2 219.6L216.85 219.3L216.2 218.9L215.4 218.5L215.05 218L215 217.45L215.35 216.9Q215.6 216.65 216 216.6L216.75 216.65L217.55 216.95M221.1,219.5L220.9 219.7L220.65 220.3L220.3 221.9L219.8 221.8L220.5 218.75L220.95 218.85L220.85 219.3L221.25 218.95L221.6 218.95Q221.85 219 222.1 219.2L221.8 219.65L221.45 219.5L221.1 219.5M219.7,217.45L219.5 218.5L220 218.65L219.9 219.05L219.4 218.9L219 220.7L218.95 221L219 221.1L219.2 221.2L219.4 221.25L219.4 221.7L219 221.65Q218.7 221.6 218.55 221.45L218.4 221.15L218.5 220.55L218.9 218.8L218.5 218.7L218.6 218.3L219 218.4L219.15 217.65L219.7 217.45M199.55,212.75L198.7 216.45L200.75 216.95L200.65 217.45L198.05 216.85L199 212.65L199.55 212.75" />
</g>
</svg>
