<?xml version="1.0" encoding="utf-8"?>
<svg version="1.1" id="Layer_1"
xmlns="http://www.w3.org/2000/svg"
xmlns:xlink="http://www.w3.org/1999/xlink"
xmlns:author="http://www.sothink.com"
width="520px" height="291px"
xml:space="preserve">
<g id="75" transform="matrix(1, 0, 0, 1, -3.1, 23.5)">
<path style="fill:none;stroke-width:0.5;stroke-linecap:round;stroke-linejoin:round;stroke-miterlimit:3;stroke:#B5B5B5;stroke-opacity:1" d="M314.4,95.5L319.4 91.8L325.8 93.55L320.85 97.25L320.8 97.25L314.4 95.5z" />
<path style="fill:none;stroke-width:0.5;stroke-linecap:butt;stroke-linejoin:round;stroke-miterlimit:3;stroke:#B2B2B2;stroke-opacity:1" d="M322.5,177.45L294.4 170.45L302.25 164.85L330.35 171.85L322.5 177.45z" />
<path style="fill:none;stroke-width:0.5;stroke-linecap:butt;stroke-linejoin:round;stroke-miterlimit:3;stroke:#B2B2B2;stroke-opacity:1" d="M294.9,165.8L289.75 169.5L293.75 170.5L277.75 181.9L264.15 178.55L285.35 163.45L294.9 165.8z" />
<path style="fill:none;stroke-width:0.5;stroke-linecap:butt;stroke-linejoin:round;stroke-miterlimit:3;stroke:#B2B2B2;stroke-opacity:1" d="M294.15,170.6L322.25 177.6Q314.3 183.35 306.3 189.05L278.2 182L294.15 170.6z" />
<path style="fill:none;stroke-width:0.5;stroke-linecap:butt;stroke-linejoin:round;stroke-miterlimit:3;stroke:#B2B2B2;stroke-opacity:1" d="M271.3,159.95L284.9 163.3L263.75 178.4L250.15 175.05L271.3 159.95z" />
<path style="fill:none;stroke-width:0.5;stroke-linecap:butt;stroke-linejoin:round;stroke-miterlimit:3;stroke:#B2B2B2;stroke-opacity:1" d="M214.45,176.45L203.85 184L193.6 181.45L201.7 175.65L207.85 174.8L214.45 176.45z" />
<path style="fill:none;stroke-width:0.5;stroke-linecap:butt;stroke-linejoin:round;stroke-miterlimit:3;stroke:#B2B2B2;stroke-opacity:1" d="M225.8,179.25L215.2 186.85L204.3 184.1L214.9 176.55L225.8 179.25z" />
<path style="fill:none;stroke-width:0.5;stroke-linecap:butt;stroke-linejoin:round;stroke-miterlimit:3;stroke:#B2B2B2;stroke-opacity:1" d="M232.9,181.05L223.6 187.65L216.95 186L226.2 179.35L232.9 181.05z" />
<path style="fill:none;stroke-width:0.5;stroke-linecap:butt;stroke-linejoin:round;stroke-miterlimit:3;stroke:#B2B2B2;stroke-opacity:1" d="M240.65,187.55L235 186.15L230.55 189.35L224.1 187.7L233.3 181.15L239.9 182.8L242.25 186.4L240.65 187.55z" />
<path style="fill:none;stroke-width:0.5;stroke-linecap:butt;stroke-linejoin:round;stroke-miterlimit:3;stroke:#B2B2B2;stroke-opacity:1" d="M193.35,181.6L214.95 187L209.35 191L187.75 185.6L193.35 181.6z" />
<path style="fill:none;stroke-width:0.5;stroke-linecap:butt;stroke-linejoin:round;stroke-miterlimit:3;stroke:#B2B2B2;stroke-opacity:1" d="M210.1,203.9L174.55 195.05L187.5 185.8L209.55 191.3L216.7 186.15L230.3 189.5L210.1 203.9z" />
<path style="fill:none;stroke-width:0.5;stroke-linecap:butt;stroke-linejoin:round;stroke-miterlimit:3;stroke:#B2B2B2;stroke-opacity:1" d="M174.3,195.2L199.8 201.6L192.1 207.05L166.6 200.7L174.3 195.2z" />
<path style="fill:none;stroke-width:0.5;stroke-linecap:butt;stroke-linejoin:round;stroke-miterlimit:3;stroke:#B2B2B2;stroke-opacity:1" d="M210.55,204L235.2 186.45L249.1 189.9L224.45 207.5L210.55 204z" />
<path style="fill:none;stroke-width:0.5;stroke-linecap:butt;stroke-linejoin:round;stroke-miterlimit:3;stroke:#B2B2B2;stroke-opacity:1" d="M263.9,193.6L290.65 200.25L287 202.85L299.45 205.95L278.45 220.95L239.25 211.15L263.9 193.6z" />
<path style="fill:none;stroke-width:0.5;stroke-linecap:butt;stroke-linejoin:round;stroke-miterlimit:3;stroke:#B2B2B2;stroke-opacity:1" d="M184.15,205.3L179.4 208.7L178.55 208.5L177.65 209.15L160.7 204.9L166.35 200.9L184.15 205.3z" />
<path style="fill:none;stroke-width:0.5;stroke-linecap:butt;stroke-linejoin:round;stroke-miterlimit:3;stroke:#B2B2B2;stroke-opacity:1" d="M263.45,193.5L238.8 211.05L224.9 207.6L249.55 190L263.45 193.5z" />
<path style="fill:none;stroke-width:0.5;stroke-linecap:butt;stroke-linejoin:round;stroke-miterlimit:3;stroke:#B2B2B2;stroke-opacity:1" d="M169.65,207.4L162.65 212.4L168.95 213.95L165.15 216.65L159.1 217.3L153.95 209.7L160.45 205.1L169.65 207.4z" />
<path style="fill:none;stroke-width:0.5;stroke-linecap:butt;stroke-linejoin:round;stroke-miterlimit:3;stroke:#B2B2B2;stroke-opacity:1" d="M275.35,237.15L233.8 266.85L143.05 255.35L128.65 251.75L132.6 248.95L128.15 247.8L163.1 222.85L160.55 219.35L168 218.6L174.6 213.85L180.95 215.45L200.25 201.7L225.35 207.95L230.95 216.85L223.75 222L235.4 224.9L229.75 228.95L246.15 233.05L275.35 237.15z" />
<path style="fill:none;stroke-width:0.5;stroke-linecap:butt;stroke-linejoin:round;stroke-miterlimit:3;stroke:#B2B2B2;stroke-opacity:1" d="M218.5,107.35L249.6 115.1L242.95 119.85L211.8 112.1L218.5 107.35z" />
<path style="fill:none;stroke-width:0.5;stroke-linecap:butt;stroke-linejoin:round;stroke-miterlimit:3;stroke:#B2B2B2;stroke-opacity:1" d="M211.55,112.3L242.7 120.05L236.05 124.8L204.9 117.05L211.55 112.3z" />
<path style="fill:none;stroke-width:0.5;stroke-linecap:butt;stroke-linejoin:round;stroke-miterlimit:3;stroke:#B2B2B2;stroke-opacity:1" d="M186.95,99.5L214.75 106.4L200.9 116.3L235.8 125L219.4 136.65L156.75 121.05L186.95 99.5z" />
<path style="fill:none;stroke-width:0.5;stroke-linecap:butt;stroke-linejoin:round;stroke-miterlimit:3;stroke:#B2B2B2;stroke-opacity:1" d="M151.65,120L219.15 136.85L208.2 144.65L140.7 127.8L151.65 120z" />
<path style="fill:none;stroke-width:0.5;stroke-linecap:butt;stroke-linejoin:round;stroke-miterlimit:3;stroke:#B2B2B2;stroke-opacity:1" d="M140.45,128L209.55 145.2L195.65 155.1L126.6 137.9L140.45 128z" />
<path style="fill:none;stroke-width:0.5;stroke-linecap:butt;stroke-linejoin:round;stroke-miterlimit:3;stroke:#B2B2B2;stroke-opacity:1" d="M120.35,142.35L126.3 138.1L195.35 155.3L189.45 159.55" />
<path style="fill:none;stroke-width:0.5;stroke-linecap:butt;stroke-linejoin:round;stroke-miterlimit:3;stroke:#B2B2B2;stroke-opacity:1" d="M189.15,159.75L186.45 161.7L178.7 162.75L176.15 164.6L172.8 163.75L174.75 162.4L113.6 147.15L120.1 142.55" />
<path style="fill:none;stroke-width:0.5;stroke-linecap:butt;stroke-linejoin:round;stroke-miterlimit:3;stroke:#B2B2B2;stroke-opacity:1" d="M172.9,166.95L143.45 159.5L147.95 155.8L174.05 162.45L172.15 163.85L175.9 164.75L172.9 166.95z" />
<path style="fill:none;stroke-width:0.5;stroke-linecap:butt;stroke-linejoin:round;stroke-miterlimit:3;stroke:#B2B2B2;stroke-opacity:1" d="M263,123L256.7 127.5L249.4 125.65L255.7 121.15L263 123z" />
<path style="fill:none;stroke-width:0.5;stroke-linecap:butt;stroke-linejoin:round;stroke-miterlimit:3;stroke:#B2B2B2;stroke-opacity:1" d="M176.05,179.35L150.45 197.6L84 181.05L99.45 170L86.2 166.7L102.85 154.8L170.75 171.75L176.05 179.35z" />
<path style="fill:none;stroke-width:0.5;stroke-linecap:butt;stroke-linejoin:round;stroke-miterlimit:3;stroke:#B2B2B2;stroke-opacity:1" d="M85.55,195.2L69.7 191.25L83.75 181.25L150.2 197.8L140.7 204.6L93.1 192.75L87.25 196.95L84.2 196.15L85.55 195.2z" />
<path style="fill:none;stroke-width:0.5;stroke-linecap:butt;stroke-linejoin:round;stroke-miterlimit:3;stroke:#B2B2B2;stroke-opacity:1" d="M93.3,193.05L140.4 204.75L134.75 208.8L87.65 197.05L93.3 193.05z" />
<path style="fill:none;stroke-width:0.5;stroke-linecap:butt;stroke-linejoin:round;stroke-miterlimit:3;stroke:#B2B2B2;stroke-opacity:1" d="M93,198.65L134.5 209L133.6 209.6L138.95 217.55L79.8 202.8L84.85 199.2L90.25 200.55L93 198.65z" />
<path style="fill:none;stroke-width:0.5;stroke-linecap:butt;stroke-linejoin:round;stroke-miterlimit:3;stroke:#B2B2B2;stroke-opacity:1" d="M52.1,191.05L84.45 199.1L79.15 202.9L139.15 217.85L144.65 226.05L119.5 244L122.55 244.75L111.4 252.75L3.35 225.8L52.1 191.05z" />
<path style="fill:none;stroke-width:0.5;stroke-linecap:butt;stroke-linejoin:round;stroke-miterlimit:3;stroke:#B2B2B2;stroke-opacity:1" d="M322.4,1.3L349.05 -17.7L359.35 -14.2L333.7 4.1L322.4 1.3z" />
<path style="fill:none;stroke-width:0.5;stroke-linecap:butt;stroke-linejoin:round;stroke-miterlimit:3;stroke:#B2B2B2;stroke-opacity:1" d="M415.9,26.6L439.6 9.7L457.95 14.95L441.2 26.9L426.05 23.1L419.8 27.55L415.9 26.6z" />
<path style="fill:none;stroke-width:0.5;stroke-linecap:butt;stroke-linejoin:round;stroke-miterlimit:3;stroke:#B2B2B2;stroke-opacity:1" d="M491.15,30.65L469.95 34.05L441.65 27L458.35 15.05L495.85 27.3L491.15 30.65z" />
<path style="fill:none;stroke-width:0.5;stroke-linecap:butt;stroke-linejoin:round;stroke-miterlimit:3;stroke:#B2B2B2;stroke-opacity:1" d="M442.55,38.6L397.2 27.3L402.55 23.5L454.7 36.5L442.55 38.6z" />
<path style="fill:none;stroke-width:0.5;stroke-linecap:butt;stroke-linejoin:round;stroke-miterlimit:3;stroke:#B2B2B2;stroke-opacity:1" d="M376.6,41.6L289.85 20.05L312.85 3.6L322.05 1.45L333.85 4.4L359.75 -14.05L426.55 5.95L376.6 41.6z" />
<path style="fill:none;stroke-width:0.5;stroke-linecap:butt;stroke-linejoin:round;stroke-miterlimit:3;stroke:#B2B2B2;stroke-opacity:1" d="M427,6.05L439.15 9.6L415.5 26.5L402.8 23.3L427 6.05z" />
<path style="fill:none;stroke-width:0.5;stroke-linecap:butt;stroke-linejoin:round;stroke-miterlimit:3;stroke:#B2B2B2;stroke-opacity:1" d="M426.2,23.4L469.35 34.15L455.25 36.4L420.25 27.65L426.2 23.4z" />
<path style="fill:none;stroke-width:0.5;stroke-linecap:butt;stroke-linejoin:round;stroke-miterlimit:3;stroke:#B2B2B2;stroke-opacity:1" d="M419.9,42.15L395.45 46.3" />
<path style="fill:none;stroke-width:0.5;stroke-linecap:round;stroke-linejoin:round;stroke-miterlimit:3;stroke:#B2B2B2;stroke-opacity:1" d="M395.45,46.3L377 41.7L387.5 34.2" />
<path style="fill:none;stroke-width:0.5;stroke-linecap:butt;stroke-linejoin:round;stroke-miterlimit:3;stroke:#B2B2B2;stroke-opacity:1" d="M387.5,34.2L396.95 27.45L442.45 38.65L423.7 41.7M387.5,34.2L419.9 42.15" />
<path style="fill:none;stroke-width:0.5;stroke-linecap:butt;stroke-linejoin:round;stroke-miterlimit:3;stroke:#B2B2B2;stroke-opacity:1" d="M489.3,43.45L483.1 47.85L465.65 43.55L480.05 41.15L489.3 43.45z" />
<path style="fill:none;stroke-width:0.5;stroke-linecap:butt;stroke-linejoin:round;stroke-miterlimit:3;stroke:#B2B2B2;stroke-opacity:1" d="M476.9,52.15L471 56.35L438.15 48.15L451.9 45.9L476.9 52.15z" />
<path style="fill:none;stroke-width:0.5;stroke-linecap:butt;stroke-linejoin:round;stroke-miterlimit:3;stroke:#B2B2B2;stroke-opacity:1" d="M465.05,43.6L482.75 48.05Q480 50.05 477.2 52L452.45 45.8L465.05 43.6z" />
<path style="fill:none;stroke-width:0.5;stroke-linecap:butt;stroke-linejoin:round;stroke-miterlimit:3;stroke:#B2B2B2;stroke-opacity:1" d="M513.95,55.8L508.4 59.8L479.8 52.65L485.35 48.7L513.95 55.8z" />
<path style="fill:none;stroke-width:0.5;stroke-linecap:butt;stroke-linejoin:round;stroke-miterlimit:3;stroke:#B2B2B2;stroke-opacity:1" d="M519.25,45.75L522.55 49.65L514.2 55.65L485.6 48.5L491.8 44.05L495.4 44.95L509.35 43.3L519.25 45.75z" />
<path style="fill:none;stroke-width:0.5;stroke-linecap:butt;stroke-linejoin:round;stroke-miterlimit:3;stroke:#B2B2B2;stroke-opacity:1" d="M508.15,59.95L502.25 64.15L473.65 57L479.55 52.85L508.15 59.95z" />
<path style="fill:none;stroke-width:0.5;stroke-linecap:round;stroke-linejoin:round;stroke-miterlimit:3;stroke:#B2B2B2;stroke-opacity:1" d="M315.05,63.45L218.2 39.3L235.95 26.65L200.55 17.8L221.1 3.15" />
<path style="fill:none;stroke-width:0.5;stroke-linecap:butt;stroke-linejoin:round;stroke-miterlimit:3;stroke:#B2B2B2;stroke-opacity:1" d="M221.1,3.15L256.6 -23.25L330.3 -4.45M221.1,3.15L340.05 32.8L313.1 52.05" />
<path style="fill:none;stroke-width:0.5;stroke-linecap:butt;stroke-linejoin:round;stroke-miterlimit:3;stroke:#B2B2B2;stroke-opacity:1" d="M217.95,39.45L314.8 63.6L303.45 71.7L206.6 47.55L217.95 39.45z" />
<path style="fill:none;stroke-width:0.5;stroke-linecap:butt;stroke-linejoin:round;stroke-miterlimit:3;stroke:#B2B2B2;stroke-opacity:1" d="M412.25,55.15L417 51.7L437.55 48.25L502 64.35L485.3 76.25L441 65.2L423.85 77.45L420.75 76.7L437.9 64.45L409.2 57.3L409.6 57.05" />
<path style="fill:none;stroke-width:0.5;stroke-linecap:butt;stroke-linejoin:round;stroke-miterlimit:3;stroke:#B2B2B2;stroke-opacity:1" d="M259.25,60.95L303.35 71.9L306.15 76.1L299.35 80.95L248.85 68.35L259.25 60.95z" />
<path style="fill:none;stroke-width:0.5;stroke-linecap:butt;stroke-linejoin:round;stroke-miterlimit:3;stroke:#B2B2B2;stroke-opacity:1" d="M206.35,47.75L258.85 60.8L248.2 68.4L299.1 81.1L274.1 98.95L158.8 70.2L161.35 52.75Q161.55 51.1 162.4 49.95Q163.25 48.7 165.35 47.85L167.25 47.4Q169.8 47.05 174.65 48.25L197.6 54L206.35 47.75z" />
<path style="fill:none;stroke-width:0.5;stroke-linecap:butt;stroke-linejoin:round;stroke-miterlimit:3;stroke:#B2B2B2;stroke-opacity:1" d="M325.1,87.65L354.1 94.85L343.1 102.75L314.05 95.5L325.1 87.65z" />
<path style="fill:none;stroke-width:0.5;stroke-linecap:butt;stroke-linejoin:round;stroke-miterlimit:3;stroke:#B2B2B2;stroke-opacity:1" d="M158.75,70.45L273.85 99.15L265.1 105.4L157.4 78.55L158.75 70.45z" />
<path style="fill:none;stroke-width:0.5;stroke-linecap:round;stroke-linejoin:round;stroke-miterlimit:3;stroke:#B2B2B2;stroke-opacity:1" d="M325.1,115.55L296.05 108.35L307.95 99.9" />
<path style="fill:none;stroke-width:0.5;stroke-linecap:round;stroke-linejoin:round;stroke-miterlimit:3;stroke:#B2B2B2;stroke-opacity:1" d="M307.95,99.9L313.7 95.75L325.6 98.7L319.85 102.85L320.2 102.95M307.95,99.9L320.2 102.95" />
<path style="fill:none;stroke-width:0.5;stroke-linecap:butt;stroke-linejoin:round;stroke-miterlimit:3;stroke:#B2B2B2;stroke-opacity:1" d="M320.2,102.95L337 107.1L325.1 115.55" />
<path style="fill:none;stroke-width:0.5;stroke-linecap:butt;stroke-linejoin:round;stroke-miterlimit:3;stroke:#B2B2B2;stroke-opacity:1" d="M310.9,112.25L305.55 116.1L290.5 112.3L295.8 108.5L310.9 112.25z" />
<path style="fill:none;stroke-width:0.5;stroke-linecap:butt;stroke-linejoin:round;stroke-miterlimit:3;stroke:#B2B2B2;stroke-opacity:1" d="M424.05,77.75L441.2 65.5L485.05 76.45L468.1 88.55L478.6 91.15L434.6 122.55L366.45 105.55L377.35 97.75L328.1 85.5L356.65 65.1L408.85 57.45L437.2 64.5L420.05 76.75L424.05 77.75z" />
<path style="fill:none;stroke-width:0.5;stroke-linecap:butt;stroke-linejoin:round;stroke-miterlimit:3;stroke:#B2B2B2;stroke-opacity:1" d="M290.25,112.5L319.25 119.75L314 123.5L285 116.25L290.25 112.5z" />
<path style="fill:none;stroke-width:0.5;stroke-linecap:butt;stroke-linejoin:round;stroke-miterlimit:3;stroke:#B2B2B2;stroke-opacity:1" d="M313.75,123.65L303.8 130.75L274.8 123.5L284.75 116.4L313.75 123.65z" />
<path style="fill:none;stroke-width:0.5;stroke-linecap:butt;stroke-linejoin:round;stroke-miterlimit:3;stroke:#B2B2B2;stroke-opacity:1" d="M157.35,78.8L264.85 105.55L255.95 111.9L247.1 112.3L155.8 89.55L157.35 78.8z" />
<path style="fill:none;stroke-width:0.5;stroke-linecap:butt;stroke-linejoin:round;stroke-miterlimit:3;stroke:#B2B2B2;stroke-opacity:1" d="M274.5,123.7L303.55 130.95L298 134.9L269 127.65L274.5 123.7z" />
<path style="fill:none;stroke-width:0.5;stroke-linecap:butt;stroke-linejoin:round;stroke-miterlimit:3;stroke:#B2B2B2;stroke-opacity:1" d="M268.75,127.85L297.75 135.05L291.35 139.65L262.3 132.4L268.75 127.85z" />
<path style="fill:none;stroke-width:0.5;stroke-linecap:butt;stroke-linejoin:round;stroke-miterlimit:3;stroke:#B2B2B2;stroke-opacity:1" d="M278.65,148.75L249.6 141.5L262.05 132.6L291.1 139.85L278.65 148.75z" />
<path style="fill:none;stroke-width:0.5;stroke-linecap:butt;stroke-linejoin:round;stroke-miterlimit:3;stroke:#B2B2B2;stroke-opacity:1" d="M248.9,169.95L219.9 162.7L225.5 158.7L254.5 165.95L248.9 169.95z" />
<path style="fill:none;stroke-width:0.5;stroke-linecap:butt;stroke-linejoin:round;stroke-miterlimit:3;stroke:#B2B2B2;stroke-opacity:1" d="M275,150L269.55 153.85L256.75 150.65L251.05 154.75L236.2 151.05L247.35 143.1L275 150z" />
<path style="fill:none;stroke-width:0.5;stroke-linecap:butt;stroke-linejoin:round;stroke-miterlimit:3;stroke:#B2B2B2;stroke-opacity:1" d="M254.75,165.75L225.75 158.5L235.95 151.2L265 158.45L254.75 165.75z" />
<path style="fill:none;stroke-width:0.5;stroke-linecap:butt;stroke-linejoin:round;stroke-miterlimit:3;stroke:#B2B2B2;stroke-opacity:1" d="M243.85,173.55L214.85 166.3L219.65 162.85L248.65 170.1L243.85 173.55z" />
<path style="fill:none;stroke-width:0.5;stroke-linecap:butt;stroke-linejoin:round;stroke-miterlimit:3;stroke:#B2B2B2;stroke-opacity:1" d="M227.3,169.65L221.8 173.55L214.3 171.7L211.55 168.65L214.6 166.45L227.3 169.65z" />
<path style="fill:none;stroke-width:0.5;stroke-linecap:butt;stroke-linejoin:round;stroke-miterlimit:3;stroke:#B2B2B2;stroke-opacity:1" d="M250.95,175.55L245.5 179.45L233.6 176.5L239.05 172.6L250.95 175.55z" />
<path style="fill:none;stroke-width:0.5;stroke-linecap:butt;stroke-linejoin:round;stroke-miterlimit:3;stroke:#B2B2B2;stroke-opacity:1" d="M227.75,169.75L238.65 172.45L233.15 176.4L222.25 173.65L227.75 169.75z" />
<path style="fill:none;stroke-width:0.5;stroke-linecap:butt;stroke-linejoin:round;stroke-miterlimit:3;stroke:#B2B2B2;stroke-opacity:1" d="M298.5,98.25L292.2 102.75L284.9 100.9L291.2 96.4L298.5 98.25z" />
<path style="fill:none;stroke-width:0.5;stroke-linecap:butt;stroke-linejoin:round;stroke-miterlimit:3;stroke:#B5B5B5;stroke-opacity:1" d="M412.15,55.1L443.6 63.2" />
<path style="fill:none;stroke-width:0.5;stroke-linecap:butt;stroke-linejoin:round;stroke-miterlimit:3;stroke:#B5B5B5;stroke-opacity:1" d="M443.6,63.2L441 65.2" />
<path style="fill:none;stroke-width:0.5;stroke-linecap:butt;stroke-linejoin:round;stroke-miterlimit:3;stroke:#B5B5B5;stroke-opacity:1" d="M389.25,32.65L423.6 41.7" />
<path style="fill:none;stroke-width:0.5;stroke-linecap:round;stroke-linejoin:round;stroke-miterlimit:3;stroke:#B2B2B2;stroke-opacity:1" d="M311.95,79.45L318.25 74.95L325.55 76.8L319.25 81.3L311.95 79.45z" />
<path style="fill:none;stroke-width:0.5;stroke-linecap:round;stroke-linejoin:round;stroke-miterlimit:3;stroke:#B2B2B2;stroke-opacity:1" d="M313.05,52.3L325.95 55.55L314.85 63.5L301.95 60.2L313.05 52.3z" />
<path style="fill:#B2B2B2;fill-opacity:1" d="M243.5,66.45L243.75 66.55L243.85 66.8L243.75 67.05L243.5 67.15L243.25 67.05L243.15 66.8L243.25 66.55L243.5 66.45M248.55,68.05L248.65 68.3L248.55 68.55L248.3 68.65L248.05 68.55L247.95 68.3L248.05 68.05L248.3 67.95L248.55 68.05M247.05,67.8L246.95 68.05L246.7 68.15L246.45 68.05L246.35 67.8L246.45 67.55L246.7 67.45L246.95 67.55L247.05 67.8M245.35,67.05L245.45 67.3L245.35 67.55L245.1 67.65L244.85 67.55L244.75 67.3L244.85 67.05L245.1 66.95L245.35 67.05M198.65,54L198.9 54.1L199 54.35L198.9 54.6L198.65 54.7L198.4 54.6L198.3 54.35L198.4 54.1L198.65 54M202.1,55L202.2 55.25L202.1 55.5L201.85 55.6L201.6 55.5L201.5 55.25L201.6 55L201.85 54.9L202.1 55M200.6,54.85L200.5 55.1L200.25 55.2L200 55.1L199.9 54.85L200 54.6L200.25 54.5L200.5 54.6L200.6 54.85M218.25,59.65L218.15 59.9L217.9 60L217.65 59.9L217.55 59.65L217.65 59.4L217.9 59.3L218.15 59.4L218.25 59.65M219.25,59.9L219.5 59.8L219.75 59.9L219.85 60.15L219.75 60.4L219.5 60.5L219.25 60.4L219.15 60.15L219.25 59.9M221.35,60.3L221.45 60.55L221.35 60.8L221.1 60.9L220.85 60.8L220.75 60.55L220.85 60.3L221.1 60.2L221.35 60.3M214.95,58.5L215.05 58.75L214.95 59L214.7 59.1L214.45 59L214.35 58.75L214.45 58.5L214.7 58.4L214.95 58.5M212.85,58.1L213.1 58L213.35 58.1L213.45 58.35L213.35 58.6L213.1 58.7L212.85 58.6L212.75 58.35L212.85 58.1M216.05,59L216.3 58.9L216.55 59L216.65 59.25L216.55 59.5L216.3 59.6L216.05 59.5L215.95 59.25L216.05 59M222.45,60.7L222.7 60.6L222.95 60.7L223.05 60.95L222.95 61.2L222.7 61.3L222.45 61.2L222.35 60.95L222.45 60.7M208.05,56.8L208.3 56.7L208.55 56.8L208.65 57.05L208.55 57.3L208.3 57.4L208.05 57.3L207.95 57.05L208.05 56.8M209.9,57.1L210.15 57.2L210.25 57.45L210.15 57.7L209.9 57.8L209.65 57.7L209.55 57.45L209.65 57.2L209.9 57.1M211.75,57.7L211.85 57.95L211.75 58.2L211.5 58.3L211.25 58.2L211.15 57.95L211.25 57.7L211.5 57.6L211.75 57.7M205.4,56.15L205.3 56.4L205.05 56.5L204.8 56.4L204.7 56.15L204.8 55.9L205.05 55.8L205.3 55.9L205.4 56.15M206.45,56.3L206.7 56.2L206.95 56.3L207.05 56.55L206.95 56.8L206.7 56.9L206.45 56.8L206.35 56.55L206.45 56.3M203.2,55.4Q203.3 55.3 203.45 55.3L203.7 55.4L203.8 55.65L203.7 55.9L203.45 56L203.2 55.9L203.1 55.65L203.2 55.4M235.15,64.45L235.25 64.2L235.5 64.1L235.75 64.2L235.85 64.45L235.75 64.7L235.5 64.8L235.25 64.7L235.15 64.45M234.15,64.3L233.9 64.4L233.65 64.3L233.55 64.05L233.65 63.8L233.9 63.7L234.15 63.8L234.25 64.05L234.15 64.3M236.85,64.7L237.1 64.6L237.35 64.7L237.45 64.95L237.35 65.2L237.1 65.3L236.85 65.2L236.75 64.95L236.85 64.7M238.45,65.1L238.7 65L238.95 65.1L239.05 65.35L238.95 65.6L238.7 65.7L238.45 65.6L238.35 65.35L238.45 65.1M240.3,65.5L240.55 65.6L240.65 65.85L240.55 66.1L240.3 66.2L240.05 66.1L239.95 65.85L240.05 65.6L240.3 65.5M241.65,66.05L241.9 65.95L242.15 66.05L242.25 66.3L242.15 66.55L241.9 66.65L241.65 66.55L241.55 66.3L241.65 66.05M225.65,61.6L225.9 61.5L226.15 61.6L226.25 61.85L226.15 62.1L225.9 62.2L225.65 62.1L225.55 61.85L225.65 61.6M227.25,62.1L227.5 62L227.75 62.1L227.85 62.35L227.75 62.6L227.5 62.7L227.25 62.6L227.15 62.35L227.25 62.1M224.55,61.2L224.65 61.45L224.55 61.7L224.3 61.8L224.05 61.7L223.95 61.45L224.05 61.2L224.3 61.1L224.55 61.2M230.45,62.9L230.7 62.8L230.95 62.9L231.05 63.15L230.95 63.4L230.7 63.5L230.45 63.4L230.35 63.15L230.45 62.9M232.55,63.4L232.65 63.65L232.55 63.9L232.3 64L232.05 63.9L231.95 63.65L232.05 63.4L232.3 63.3L232.55 63.4M228.85,62.5L229.1 62.4L229.35 62.5L229.45 62.75L229.35 63L229.1 63.1L228.85 63L228.75 62.75L228.85 62.5" />
</g>
</svg>
