<?xml version="1.0" encoding="utf-8"?>
<svg version="1.1" id="Layer_1"
xmlns="http://www.w3.org/2000/svg"
xmlns:xlink="http://www.w3.org/1999/xlink"
xmlns:author="http://www.sothink.com"
width="529px" height="304px"
xml:space="preserve">
<g id="74" transform="matrix(1, 0, 0, 1, -99.3, -2.25)">
<path style="fill:none;stroke-width:8;stroke-linecap:round;stroke-linejoin:round;stroke-miterlimit:3;stroke:#6A2A4D;stroke-opacity:1" d="M597.1,57.45L559.2 45.1L559.1 45.05L527.65 36L527.4 35.95L460.45 15.9L449.5 12.2L430.85 25.75L357.35 6.25L321.55 33.05L300.5 48.1L300.45 52.6L300.7 52.7L331.15 60.3L306.85 77.65L306.6 77.8L298.05 83.9L274.1 77.95L274.05 77.95L272.5 77.65L272.45 77.65L272 77.55L270.1 77.35L267.75 77.4L265.65 77.9Q263.55 78.7 262.55 80.05Q261.8 81.05 261.6 82.45L257.6 108.6L257.55 108.75L257.55 108.8L255.9 119.85L255.9 124.4L284.45 131.5L256.95 151.1L252.15 149.9L208.35 181.15L208.3 185.7L236.9 192.8L236.65 193L203.35 184.7L186.15 196.95L186.15 201.5L194.7 203.65L184.2 211.15L183.95 211.3L169.65 221.55L169.6 225.2L152.6 220.95L103.45 256L103.45 256.1L103.35 256.05L103.3 260.6L212.2 287.65L212.3 287.65L214.65 286L219 287.05L228.1 280.6L228.1 282.6L228.6 282.75L228.6 286.55L243.5 290.25L334.4 301.8L334.45 301.75L334.45 301.8L334.65 301.8L376.75 271.8L376.8 267.25L347 263.05L335.75 260.25L336.7 259.55L336.75 255.05L329.8 253.3L332.1 251.65L332.15 247.1L330 243.7L339.2 245.95L339.6 246.1L379.25 255.95L400.7 240.65L400.75 236.1L391.9 233.9L391.9 232.45L393.5 231.35L395.95 231.95L402.85 227.05L402.9 224.65L404.6 223.45L407.05 224.05L431.65 206.5L431.65 201.95L402.7 194.75L396.2 199.4L396.2 195.95L371.8 189.85L350.3 205.15L349.65 205L349.75 204.95L366.3 193.15L366.35 188.6L356.85 186.2L357.55 185.7L370.35 188.9L376.3 184.65L376.35 182.95L379.45 183.75L420.55 154.4L420.55 149.85L411.3 147.55L411.9 147.1L425.85 150.6L438.25 141.75L438.3 137.2L425.85 134.1L426.75 133.5L443.85 137.75L455.35 129.55L455.4 127.1L472.55 131.4L466.35 135.8L466.35 140.35L535.4 157.55L579.85 125.8L579.9 121.25L574.05 119.8L623.7 84.4L623.7 79.9L621.4 77.2L623.45 75.75L610.3 64.2L597.1 59.85L597.1 57.45z" />
<path style="fill:#999998;fill-opacity:1" d="M596.75,59.75L610.3 64.2L623.45 75.75L620.05 78.15L610 75.65L596.05 77.35L580.65 73.5L517.45 84.1L509.45 89.8L457.05 97.5L311.95 201.1L314.75 204.25L346.2 212.05L352 207.95L407.05 221.65L391.6 232.7L341.4 220.2L343.2 218.9L340.75 215.2L308.55 207.15L302.2 208.05L254.35 242.15L263.5 255.3L219 287.05L212.15 285.35L223.55 277.2L220.5 276.45L245.6 258.55L234.55 242.1L277 211.85L271.6 204.15L204.8 188.35L216.2 180.45L243.75 186.95L239 191.45L273.6 199.55L279.5 195.35L287.25 194.25L310.5 177.65L308.95 177.25L350.6 147.55L345.7 146.35L347.7 144.9L356.75 144.5L407.05 108.6L404.15 104.3L423.15 90.75L409.9 87.45L441 65.25L496.05 78.9L591.95 63.2L596.75 59.75" />
<path style="fill:#CECFD0;fill-opacity:1" d="M591.75,60.85L592.05 60.6L558.95 49.8L546.95 58.35L570.55 64.25L591.75 60.85M597.05,62L592.1 65.55L555.9 71.35L555.8 71.35L543.2 73.55L543.1 73.5L543.1 73.55L524.6 76.6L520.75 75.35L520.75 77.25L496 81.3L477.35 76.65L477.1 76.55L441.1 67.6L414.95 86.3L426.65 85.95L426.65 90.75L406.5 105.1L407.3 106.3L407.25 110.85L356.85 146.85L350.95 147.1L350.9 149.8L310.85 178.35L310.85 179.9L287.4 196.6L279.65 197.7L273.65 201.95L238.8 193.4L238.85 188.5L213.6 182.5L213.6 177.4L252.15 149.9L256.95 151.1L284.45 131.5L255.9 124.4L255.9 119.85L257.55 108.8L257.55 108.75L257.6 108.6L261.6 82.45Q261.8 81.05 262.55 80.05Q263.55 78.7 265.65 77.9L267.75 77.4L270.1 77.35L272 77.55L272.45 77.65L272.5 77.65L274.05 77.95L274.1 77.95L298.05 83.9L306.6 77.8L306.85 77.65L331.15 60.3L300.7 52.7L300.45 52.6L300.5 48.1L321.55 33.05L390 50.1L413.1 33.6L422.5 31.45L449.5 12.2L460.45 15.9L527.4 35.95L527.65 36L559.1 45.05L559.2 45.1L597.1 57.45L597.05 62M540.15,44.45L527.45 53.5L541.8 57.1L554 48.4L540.15 44.45M527.55,40.8L508.1 54.7L516.1 56.65L535.25 43L527.55 40.8M520.1,62.45L503.1 58.25L502.5 58.65L543.15 68.8L544.6 68.55L520.55 62.6L520.1 62.45M494.85,64.15L524.6 71.85L531.65 70.7L497.55 62.2L494.85 64.15L482.3 73.1L496.05 76.5L515.9 73.3L492.15 66.15L494.85 64.15M558.85,66.1L526.8 58.15L525.55 59.05L555.9 66.6L558.85 66.1M449.6,17.05L427.7 32.65L434.3 34.3L455.65 19.1L449.6 17.05M422.65,36.2L413.45 38.3L395.15 51.4L477.2 71.8L522.6 39.4L460.3 20.65L434.45 39.15L422.65 36.2M409.5,89.75L409.55 85.2L435.95 66.35L321.7 37.85L305.85 49.2L336.6 56.85L336.55 61.35L323.55 70.65L415.65 93.65L418.1 91.9L409.5 89.75M354.75,94.4L307 82.45L298.2 88.75L273.75 82.65L273.6 82.6L271.7 82.3L271.6 82.25L271.55 82.25L270.7 82.15L270.55 82.15L269.75 82.1L268.7 82.1L267.85 82.15L265.95 82.6L264.2 83.5L264.15 83.55L263.6 84L263 84.65L262.65 85.25L262.3 86.05L261.95 87.5L260.05 100.55L374.8 129.15L395 114.7L348.8 103.15L348.85 98.6L354.75 94.4M369.8,132.7L259.4 105.15L258.75 108.9L365.75 135.6L369.8 132.7M403.9,106.65L359.9 95.65L354.2 99.7L399.95 111.15L404.65 107.8L403.9 106.65M356.6,142.1L360.75 139.15L258 113.5L257.05 119.9L347.75 142.5L356.6 142.1M345.55,148.7L319.1 142.1L317.15 143.45L343.6 150.05L345.55 148.7M338.6,153.6L312.2 147.05L310.25 148.4L336.7 155L338.6 153.6M410.7,97.2L318.55 74.2L311.95 78.9L404.05 101.9L410.7 97.2M225.7,173.7L290.1 189.75L291.3 188.9L226.9 172.85L225.7 173.7M218.95,178.5L275.4 192.55L275.4 194.45L276.8 194.8L279.35 192.95L282.1 192.6L220.7 177.25L218.95 178.5M231.95,169.25L296.3 185.3L305.45 178.8L241.1 162.75L231.95 169.25M287.55,134.2L262.1 152.4L320.1 166.85L331.7 158.55L301.5 151L301.55 146.5L310.65 140L287.55 134.2M246.05,159.2L308.85 174.85L315.1 170.4L252.3 154.75L246.05 159.2" />
<path style="fill:#CECFD0;fill-opacity:1" d="M191.55,198.05L200.15 200.2L200.1 204.75L189.35 212.4L251.1 227.8L274.6 211.1L271.35 206.45L203.5 189.55L191.55 198.05M186.15,201.5L186.15 196.95L203.35 184.7L271.85 201.8L277.25 209.6L277.25 214.1L241.5 239.65L241.5 239.6L241.45 239.6L236.85 242.9L245.85 256.25L245.85 260.8L223.9 276.45L223.85 279.4L212.3 287.65L212.2 287.65L103.3 260.6L103.35 256.05L103.45 256.1L103.45 256L152.6 220.95L169.6 225.2L169.65 221.55L183.95 211.3L184.2 211.15L194.7 203.65L186.15 201.5M246.15,231.35L184.35 215.95L175.05 222.65L186.2 225.4L186.2 226.7L187.9 227.15L193.75 222.95L241.35 234.8L246.15 231.35M236.3,238.35L193.9 227.75L193 228.4L193.45 228.55L235.4 239L236.3 238.35M234.25,243.5L193.6 233.35L190.9 235.3L185.5 233.95L185.15 234.2L235.9 246.85L234.25 244.35L234.25 243.5M220.15,277.15L220.15 274.2L243.25 257.7L239.8 252.6L179.75 237.65L179.8 233.1L180.4 232.65L152.75 225.75L108.75 257.15L212.05 282.95L220.15 277.15" />
<path style="fill:#CECFD0;fill-opacity:1" d="M578.95,88.4L602.85 94.35L604 93.5L580.1 87.55L578.95 88.4M585.1,84L609 89.95L609.8 89.4L585.9 83.4L585.1 84M578.65,81.6L565.6 78.35L563.8 78.7L577.85 82.2L578.65 81.6M572.8,85.7L552.45 80.65L549.7 81.1L571.6 86.55L572.8 85.7M585.15,77L580.6 75.85L577.15 76.45L583.7 78.05L585.15 77M592.4,78.8L590.9 79.85L614.8 85.8L620.75 81.6L619.8 80.5L609.95 78L595.95 79.7L592.4 78.8M590.6,73.55L590.55 75.15L592.25 73.95L596.1 74.95L610 73.25L620.25 75.8L623.7 79.9L623.7 84.4L574.05 119.8L579.9 121.25L579.85 125.8L535.4 157.55L466.35 140.35L466.35 135.8L472.55 131.4L455.4 127.1L455.35 129.55L443.85 137.75L426.75 133.5L425.85 134.1L438.3 137.2L438.25 141.75L425.85 150.6L411.9 147.1L411.3 147.55L420.55 149.85L420.55 154.4L379.45 183.75L376.35 182.95L376.3 184.65L370.35 188.9L357.55 185.7L356.85 186.2L366.35 188.6L366.3 193.15L349.75 204.95L349.65 205L350.3 205.15L371.8 189.85L396.2 195.95L396.2 199.4L402.7 194.75L431.65 201.95L431.65 206.5L407.05 224.05L352.1 210.35L346.3 214.45L341.2 213.2L343.45 216.65L343.45 218.3L391.95 230.4L391.9 233.9L400.75 236.1L400.7 240.65L379.25 255.95L339.6 246.1L339.2 245.95L330 243.7L332.15 247.1L332.1 251.65L329.8 253.3L336.75 255.05L336.7 259.55L335.75 260.25L347 263.05L376.8 267.25L376.75 271.8L334.65 301.8L334.45 301.8L334.45 301.75L334.4 301.8L243.5 290.25L228.6 286.55L228.6 282.75L228.1 282.6L228.1 278.1L261.05 254.6L260.55 253.9L260.55 252.15L259.4 252.3L254.05 244.4L254.1 239.85L266.6 230.95L266.85 230.8L293.55 211.7L293.8 211.55L302 205.7L308.55 204.75L314.15 206.15L311.65 203.35L311.65 198.8L314.8 196.55L315.05 196.4L319.85 192.95L320.1 192.8L336.2 181.3L336.45 181.15L347.85 173L349.55 173.4L349.55 171.75L368.95 157.9L369.2 157.75L425.5 117.55L428 118.15L428 115.75L456.9 95.15L510.15 87.45L517.5 82.1L565.1 73.7L565.3 73.65L580.7 71.1L590.6 73.55M523.05,87.65L538.55 91.75L544.05 93.3L541.6 95.4L585.9 106.45L597.9 97.9L538.15 83L517.6 86.45L523.05 87.65M509.4,92.15L457.2 99.85L433.4 116.85L477.95 127.95L477.9 132.5L471.75 136.9L535.25 152.7L574.5 124.7L568.65 123.25L568.7 118.75L580.9 110L541.75 100.25L524.6 112.5L520.65 111.5L520.65 106.95L533.1 98.05L509.4 92.15M395.8,143.7L406.2 146.25L406.8 145.85L396.4 143.25L395.8 143.7M390.3,147.6L414.65 153.65L415.15 153.3L390.8 147.25L390.3 147.6M354.95,172.85L379.3 178.9L387 173.4L362.7 167.35L354.95 172.85M325.25,194.05L349.6 200.1L350.45 199.5L326.1 193.45L325.25 194.05M331.1,189.9L355.45 195.95L360.9 192L336.6 185.95L331.1 189.9M357.4,180.85L370.2 184.05L370.95 183.55L348 177.8L341.55 182.4L351.7 184.95L357.4 180.85M399.45,164.5L375.15 158.45L374.35 159L398.6 165.1L399.45 164.5M393.65,168.65L369.35 162.55L367.65 163.8L391.95 169.85L393.65 168.65M371.95,194.65L355.5 206.4L364.4 208.6L380.8 196.9L371.95 194.65M404.4,160.95L409.65 157.2L385.3 151.15L380.15 154.9L404.4 160.95M414.3,130.5L401.35 139.7L425.7 145.75L432.85 140.65L420.45 137.55L420.5 133L421.5 132.3L414.3 130.5M443.7,132.95L450 128.45L425.65 122.35L419.35 126.85L443.7 132.95M418.15,211.2L394.75 205.35L383.55 213.4L406.9 219.2L418.15 211.2M426.25,205.4L402.85 199.55L399.7 201.8L423.1 207.65L426.25 205.4M385.9,198.15L369.5 209.9L378.4 212.1L390.3 203.55L390.35 199.7L390.8 199.4L385.9 198.15M387.6,237.6L387.6 234.1L364.5 228.35L344.6 242.55L379.1 251.15L395.35 239.55L387.6 237.6M346.9,209.1L339.7 207.3L338.95 207.85L346.15 209.65L346.9 209.1M327.6,205L333.8 206.55L334.55 206.05L328.35 204.5L327.6 205M329.45,219.1L331.2 219.55L335.65 216.35L340.55 217.55L340.5 217.5L333.95 215.85L329.45 219.1M324.4,222.65L317.35 220.9L310.15 226L288.15 220.55L279.9 226.4L310.75 234.1L326.2 223.1L324.45 222.65L324.4 222.65M326.85,214.1L322.3 217.35L324.3 217.85L328.8 214.6L326.85 214.1M339.45,241.25L359.4 227.05L350.15 224.75L330.25 238.95L339.45 241.25M345,223.45L335.8 221.15L315.9 235.4L325.1 237.7L345 223.45M331.3,258.45L324.35 256.75L324.4 252.2L329.6 248.5L325.95 242.7L300.85 236.4L281.55 250.2L275.2 248.6L268.6 253.3L263.8 253.8L263.75 257.6L233.25 279.35L233.2 282.9L243.7 285.55L334.45 297L370.7 271.15L346.75 267.75L330.35 263.7L330.4 259.15L331.3 258.45M322.45,203.75L323.25 203.2L315.2 201.2L314.7 201.6L314.95 201.9L322.45 203.75M308.45,209.5L302.3 210.4L298.95 212.8L304.5 214.2L310.4 210L308.45 209.5M310.85,220.55L293.95 216.35L293.1 217L310 221.2L310.85 220.55M321.7,212.85L315.5 211.3L309.65 215.45L315.85 217L321.7 212.85M295.75,235.15L274.9 229.95L271.95 232.05L292.75 237.25L295.75 235.15M285.2,240.15L280.2 243.7L279.35 243.5L278.45 244.15L270.7 242.25L268.7 243.65L270.3 244.05L270.25 247.2L275.05 243.75L281.45 245.35L287.8 240.8L285.2 240.15M256.7,242.95L259.75 247.5L263.3 247.1L263.3 242.6L265.6 240.95L261.05 239.85L256.7 242.95M266.05,236.3L278.3 239.35L279.2 238.7L267 235.6L266.05 236.3" />
<path style="fill:#CECFD0;fill-opacity:1" d="M399.25,132.9L393.05 137.3L385.8 135.35L385.85 130.6L391.95 126.25L399.3 128.05L399.25 132.9M393,132.15L394.4 131.15L392.05 130.6L390.65 131.55L393 132.15M356.3,155.9L354.75 157L357.35 157.65L358.9 156.55L356.3 155.9M364.35,153.1L364.3 157.65L357.5 162.5L349.35 160.45L349.4 155.95L356.2 151.1L364.35 153.1M426.4,110.65L420.3 115L412.95 113.15L413 109.1L419.1 104.75L426.45 106.55L426.4 110.65M420.15,110.65L421.55 109.65L419.2 109.1L417.8 110.05L420.15 110.65" />
<path style="fill:#FFFFFF;fill-opacity:1" d="M419.95,146.8L414.9 145.5L419.45 142.25L415.15 145.45L419.95 146.8" />
</g>
</svg>
