<?xml version="1.0" encoding="utf-8"?>
<svg version="1.1" id="Layer_1"
xmlns="http://www.w3.org/2000/svg"
xmlns:xlink="http://www.w3.org/1999/xlink"
xmlns:author="http://www.sothink.com"
width="521px" height="290px"
xml:space="preserve">
<g id="73" transform="matrix(1, 0, 0, 1, 0, 0)">
<path style="fill:#2D2D2D;fill-opacity:1" d="M493.8,47.7L507 52L520.15 63.55L518.1 65L520.4 67.7L520.4 72.25L470.75 107.65L476.6 109.1L476.55 113.65L432.1 145.35L363.05 128.15L363.05 123.6L369.25 119.2L352.1 114.95L352.05 117.35L340.55 125.55L323.45 121.3L322.55 121.95L335 125.05L334.95 129.6L322.55 138.4L308.6 134.95L308 135.35L317.25 137.7L317.25 142.2L276.15 171.55L273.05 170.8L273 172.45L267.05 176.7L254.25 173.5L253.55 174.05L263.05 176.4L263 180.95L246.45 192.75L246.35 192.8L247 193L268.5 177.65L292.9 183.75L292.9 187.2L299.4 182.55L328.35 189.8L328.35 194.3L303.75 211.85L301.3 211.25L299.6 212.45L299.55 214.85L292.65 219.8L290.2 219.15L288.6 220.3L288.6 221.7L297.45 223.9L297.4 228.45L275.95 243.8L226.7 231.5L228.85 234.9L228.8 239.45L226.5 241.1L233.45 242.85L233.4 247.4L232.45 248.05L243.7 250.85L273.5 255.05L273.45 259.6L231.35 289.65L231.15 289.6L231.15 289.55L231.1 289.6L140.2 278.1L125.3 274.4L125.3 270.55L124.8 270.45L124.8 268.4L115.7 274.9L111.35 273.8L109 275.5L108.9 275.45L0 248.45L0.05 243.9L0.15 243.9L0.15 243.8L49.3 208.75L66.3 213L66.35 209.35L91.4 191.45L82.85 189.35L82.85 184.8L100.05 172.55L133.35 180.85L133.6 180.65L105 173.5L105.05 168.95L123.25 155.95L123.45 155.85L148.85 137.75L153.65 138.95L181.15 119.35L152.6 112.2L152.6 107.65L154.25 96.6L154.3 96.45L158.3 70.25Q158.5 68.9 159.25 67.9Q160.2 66.6 162.35 65.75L164.45 65.25L164.55 65.25L165.3 65.15L168.7 65.35L169.15 65.45L169.2 65.45L170.75 65.75L170.8 65.75L194.75 71.7L214.9 57.35L215.15 57.2L227.85 48.1L197.15 40.45L197.2 35.9L218.25 20.85L286.7 37.95L309.8 21.45L319.2 19.25L346.2 0L357.15 3.7L424.1 23.75L424.35 23.85L436.75 27.4L436.95 27.5L455.5 32.8L455.8 32.85L455.9 32.9L493.8 45.25L493.8 47.7" />
</g>
</svg>
