<?xml version="1.0" encoding="utf-8"?>
<svg version="1.1" id="Layer_1"
xmlns="http://www.w3.org/2000/svg"
xmlns:xlink="http://www.w3.org/1999/xlink"
xmlns:author="http://www.sothink.com"
width="163px" height="86px"
xml:space="preserve">
<g id="72" transform="matrix(1, 0, 0, 1, -313.75, -68.1)">
<path style="fill:none;stroke-width:0.5;stroke-linecap:butt;stroke-linejoin:round;stroke-miterlimit:3;stroke:#B5B5B5;stroke-opacity:1" d="M407.4,87L396.55 84.35L390.2 88.35L371.2 83.65L392.75 68.35L429.5 77.5L418.3 86L407.4 87z" />
<path style="fill:none;stroke-width:0.5;stroke-linecap:butt;stroke-linejoin:round;stroke-miterlimit:3;stroke:#B5B5B5;stroke-opacity:1" d="M475.9,89.25L447.8 110.2L436.15 107.5L434.1 108.95L402.2 100.75L403.5 99.6L401.35 98.5L430.7 77.75L475.9 89.25z" />
<path style="fill:none;stroke-width:0.5;stroke-linecap:butt;stroke-linejoin:round;stroke-miterlimit:3;stroke:#B5B5B5;stroke-opacity:1" d="M401.85,101L434.05 109.25L434.3 109.35L436.4 107.85L447.45 110.45Q444.3 112.6 441.1 114.7L421.7 109.95L421.45 109.85L402.15 123.8L400.9 125L397.7 127.2L393.4 130.55L387.65 129.1L397.5 121.65L397.7 121.55L391.55 120L394.9 117.6L388.35 106.6L392.45 103.7L401.55 105.95L399.4 102.55L401.85 101z" />
<path style="fill:none;stroke-width:0.5;stroke-linecap:butt;stroke-linejoin:round;stroke-miterlimit:3;stroke:#B5B5B5;stroke-opacity:1" d="M376,126.2L338.25 116.8L359.6 101.25L371.65 104.25L382.25 121.4L376 126.2z" />
<path style="fill:none;stroke-width:0.5;stroke-linecap:butt;stroke-linejoin:round;stroke-miterlimit:3;stroke:#B5B5B5;stroke-opacity:1" d="M440.75,114.95L422 128.4L403.05 123.7L421.65 110.25L440.75 114.95z" />
<path style="fill:none;stroke-width:0.5;stroke-linecap:butt;stroke-linejoin:round;stroke-miterlimit:3;stroke:#B5B5B5;stroke-opacity:1" d="M401.25,125.25L417.25 129.05L414.15 131.25L398.4 127.25L401.25 125.25z" />
<path style="fill:none;stroke-width:0.5;stroke-linecap:butt;stroke-linejoin:round;stroke-miterlimit:3;stroke:#B5B5B5;stroke-opacity:1" d="M402.75,123.95L421.3 128.9L420.15 129.45L401.55 125L402.75 123.95z" />
<path style="fill:none;stroke-width:0.5;stroke-linecap:butt;stroke-linejoin:round;stroke-miterlimit:3;stroke:#B5B5B5;stroke-opacity:1" d="M395.45,129.55L398.1 127.5L401.6 128.4L398.8 130.5L395.45 129.55z" />
<path style="fill:none;stroke-width:0.5;stroke-linecap:butt;stroke-linejoin:round;stroke-miterlimit:3;stroke:#B5B5B5;stroke-opacity:1" d="M401.4,128.5L413.95 131.65L410 134.65L393.95 130.65L395.15 129.75" />
<path style="fill:none;stroke-width:0.5;stroke-linecap:butt;stroke-linejoin:round;stroke-miterlimit:3;stroke:#B5B5B5;stroke-opacity:1" d="M393.6,130.9L413.65 136.1L400.35 145.1L395 143.8L393.55 144.85L378.6 141.1L393.6 130.9z" />
<path style="fill:none;stroke-width:0.5;stroke-linecap:butt;stroke-linejoin:round;stroke-miterlimit:3;stroke:#B5B5B5;stroke-opacity:1" d="M389.75,129.95L393.05 130.75L377.65 141.2L393.8 145.2L395.25 144.15L400 145.35L389.85 153.35L365.1 147.35L389.75 129.95z" />
<path style="fill:none;stroke-width:0.5;stroke-linecap:butt;stroke-linejoin:round;stroke-miterlimit:3;stroke:#B5B5B5;stroke-opacity:1" d="M374.75,140.2L326.65 128.35L326.4 127.7L321.45 126.45L335.45 116.45L389.2 129.8L374.75 140.2z" />
<path style="fill:none;stroke-width:0.5;stroke-linecap:butt;stroke-linejoin:round;stroke-miterlimit:3;stroke:#B5B5B5;stroke-opacity:1" d="M364.55,147.2L314 133.95L322.5 118.45L349.75 98.95L357 100.45L320.6 126.55L325.85 127.85L326.05 128.5L374.45 140.4L364.55 147.2z" />
</g>
</svg>
