<?xml version="1.0" encoding="utf-8"?>
<svg version="1.1" id="Layer_1"
xmlns="http://www.w3.org/2000/svg"
xmlns:xlink="http://www.w3.org/1999/xlink"
xmlns:author="http://www.sothink.com"
width="170px" height="98px"
xml:space="preserve">
<g id="71" transform="matrix(1, 0, 0, 1, -310.55, -64.6)">
<path style="fill:none;stroke-width:8;stroke-linecap:round;stroke-linejoin:round;stroke-miterlimit:3;stroke:#2F77BB;stroke-opacity:1" d="M476.35,89.6L392.25 68.6L371.05 83.75L371.05 86.6L353.5 99.1L350.6 98.35L323.45 117.7L314.6 133.1L314.55 138.8L366.1 151.55L366.1 151.65L391.45 157.9L415.75 140.6L415.75 137.4L419.8 134.55L420.95 134.8L476.3 95.3L476.35 89.6z" />
<path style="fill:#9E9F9F;fill-opacity:1" d="M415.75,137.75L391.45 155L314.75 135.9L323.45 120.5L392.25 71.45L476.3 92.4L420.9 131.9L419.8 131.65L412.65 136.75L415.75 137.75" />
<path style="fill:#B2B4B6;fill-opacity:1" d="M429.75,77.2L429.5 82.8L418.75 91.7L406.85 92.9L396.1 90.2L390.4 94.3L371.05 89.45L371.05 83.75L390.45 88.6L396.15 84.6L406.9 87.25L418.8 86L429.75 77.2M476.3,95.3L420.95 134.8L419.8 134.55L415.75 137.4L415.75 140.6L390.6 158.6L314.55 138.8L314.6 133.1L366.15 145.85L369.05 143.85L321.35 131.85L321.3 126L357.1 100.45L357.1 106.35L343.55 117.05L377.65 125.6L382.65 121.4L382.6 127.1L377.65 131.3L340.35 121.95L340.35 119.35L328.2 127.95L374.9 139.6L389.35 129.2L393.95 129.6L398.1 126.7L391.35 126.6L391.35 119.95L388.7 114.95L388.35 106.7L400.55 110.45L399.2 108.65L399.25 103.05L400.6 104.75L401.35 104.9L401.35 104.35L401.1 104.3L401.15 98.6L402.95 99.4L402.95 100.9L433.2 108.5L434.8 107.3L447.15 110.45L476.35 89.15L476.3 95.3M375.75,148.3L391.5 152.2L396.6 148.65L395.75 148.45L394.65 149.25L379.6 145.5L375.75 148.3M394.65,143.55L395.85 142.75L401.9 144.2L409.1 139.1L393.9 135.35L385.5 141.3L394.65 143.55M441.2,114.65L434.8 113L434.45 113.2L440.95 114.8L441.2 114.65M422.5,128.05L435.05 119.1L421.45 115.65L408.85 124.65L422.5 128.05" />
</g>
</svg>
