<?xml version="1.0" encoding="utf-8"?>
<svg version="1.1" id="Layer_1"
xmlns="http://www.w3.org/2000/svg"
xmlns:xlink="http://www.w3.org/1999/xlink"
xmlns:author="http://www.sothink.com"
width="581px" height="354px"
xml:space="preserve">
<g id="11" transform="matrix(1, 0, 0, 1, -272.05, -177.75)">
<path style="fill:none;stroke-width:12;stroke-linecap:butt;stroke-linejoin:miter;stroke-miterlimit:10;stroke:#4E85C8;stroke-opacity:1" d="M845.4,254.45L600.1 184.1L539.25 214.55L536.1 235.15L609.7 256.25Q487.45 281.8 422.7 325.7Q398.15 342.3 383.45 360.65Q372.1 374.85 367.7 388.45L350.5 366.95L350.4 366.75L327.5 360.15L281.9 382.95L278.8 403.55L332.05 418.85L368.3 414.5L377.85 417.25L349.6 431.4L346.45 452L499.75 495.95L499.75 496L521 502.1L521 502.05L601.25 525.05L656.85 497.2L656.9 496.75L666.25 492.05L666.8 492.25L716.85 467.2L719.95 446.6L644.7 425L646.75 411.5L565.25 388.15L609.45 366L609.45 365.95L646.8 379.15L686.9 358.45L720.55 341.65L720.8 339.85L800.8 295.9L800.65 295.85L842.25 275.05L845.4 254.45z" />
<path style="fill:#959594;fill-opacity:1" d="M647.1,378.55L562.4 348.6L495.1 388.35L479 396.4L477.35 396.15L477.2 396.1L472.25 395.45L471.9 395.45L467.6 395.05L466.8 395L462.55 394.75L457.5 394.8L454.05 395.05L449.75 395.7L449.7 395.7L447.75 396.25L446.75 396.65Q453.55 402.2 474 408.1L526.2 432.25L582.85 448.1L639.45 473.9L669.3 482.45L668.05 490.7L657.1 496.2L624.35 486.8L565.3 479L522.25 500.5L523.25 494.15L522.35 494.65L521.3 501.5L500.05 495.4L501.3 487.15L502.35 487.45L538.1 468.55L459.95 446.15L450.45 450.85L451.7 442.6L461.2 437.9L456.95 439.25L340.15 405.75L363 405.1L357.2 397.8L358.45 389.55L367.45 389.7Q371.3 376.25 382.2 362.05Q396.45 343.5 420.8 326.6Q485.55 281.65 610 255.65L801.1 295.3L687.2 357.85L647.1 378.55" />
<path style="fill:#7F7F7F;fill-opacity:1" d="M842.75,274.55L781.9 305L536.6 234.65L539.75 214.05L600.6 183.6L845.9 253.95L842.75 274.55M566.8,221.05L784.05 283.35L815.75 267.5L598.5 205.2L566.8 221.05M616.6,316.2L650.25 299.35L724.15 320.55L721.05 341.15L687.4 357.95L613.45 336.75L616.6 316.2M613.1,344.9L609.95 365.5L565.75 387.65L647.25 411L645.2 424.5L720.45 446.1L717.35 466.7L667.3 491.75L658.5 489.2L657.35 496.7L601.75 524.55L519.6 501L522.1 484.55L500.3 495.45L346.95 451.5L350.1 430.9L388 411.95L451.9 430.25L461.35 425.55L550.75 451.15L548.25 467.6L566.55 458.45L589.55 461.5L579.55 456.95L523.25 441.25L470.7 416.95L463.25 414.65L463.05 414.55L450.8 409.85L446.55 407.6L444.25 406.1L442.35 404.5L441.9 404.05L441.15 403.1L440.7 402.2L440.55 401.65L440.45 401.35L440.45 400.5L443.6 379.95L443.6 380.1Q443.75 378.15 446.5 376.75Q452.15 373.95 465 374.4L460.3 373.05L463.45 352.5L527.55 320.4L613.1 344.9M643.65,323.2L689.55 336.35L693.95 334.1L648.1 320.95L643.65 323.2M669.4,470.1L690.3 459.65L625.25 441L610.85 448.25L640.85 461.95L669.4 470.1M589.3,438.45L617.1 424.55L558.3 407.7L531.15 421.25L583.9 436L589.3 438.45M477.85,397.25L509.2 411.75L532.2 400.2L494.35 389.35L478.45 397.35L477.85 397.25M548,376L582.9 358.5L525.45 342L490.5 359.5L548 376M484.6,468.75L502.35 473.85L520.55 464.75L502.8 459.65L484.6 468.75M622.85,487.6L564.8 479.9L549.75 487.4L603.85 502.9L630.25 489.7L622.85 487.6M350.9,366.25L351 366.45L372.5 393.35L369.35 413.95L332.55 418.35L279.3 403.05L282.4 382.45L328 359.65L350.9 366.25M345.95,387.05L325.85 381.25L309.45 389.5L335.35 396.95L352.2 394.9L345.95 387.05M377.15,437.9L414.85 448.75L423.6 444.35L385.85 433.55L377.15 437.9M441.05,456.25L458.3 461.2L476.5 452.1L459.25 447.15L441.05 456.25" />
<path style="fill:none;stroke-width:1.5;stroke-linecap:butt;stroke-linejoin:miter;stroke-miterlimit:10;stroke:#AFAFAF;stroke-opacity:1" d="M480.7,376.7L467.85 375.3Q454.1 374.5 448.35 377.35Q442.6 380.25 448.55 385Q455.25 390.4 475 396.05L509.1 411.8L559.4 386.6L497.4 368.85L481.45 376.8L480.7 376.7M610.1,344.9L528.45 321.5L466.25 352.6L547.9 376.05L610.1 344.9M651.1,300.45L619.4 316.3L689.45 336.4L721.15 320.5L651.1 300.45M783.95,283.4L842.95 253.9L601.55 184.7L542.55 214.2L783.95 283.4M669.3,470.15L717.5 446.05L628.3 420.5L590.85 439.25L640.75 462L669.3 470.15M589.2,438.5L644.25 410.95L561.3 387.15L510.65 412.5L527.55 420.35L583.8 436.05L589.2 438.5M567.8,459.35L525.5 480.55L603.75 502.95L657.45 476.1L625.9 467.05L567.8 459.35M505.85,439.1L460.35 461.85L502.25 473.9L547.75 451.1L505.85 439.1M328.9,360.7L285.25 382.6L335.25 397L369.95 392.85L349 366.55L328.9 360.7M450.8,430.75L388.9 413L352.9 431.05L414.75 448.8L450.8 430.75M458.2,461.25L503.7 438.5L462.25 426.6Q439.55 438 416.8 449.35L458.2 461.25" />
</g>
</svg>
