<?xml version="1.0" encoding="utf-8"?>
<svg version="1.1" id="Layer_1"
xmlns="http://www.w3.org/2000/svg"
xmlns:xlink="http://www.w3.org/1999/xlink"
xmlns:author="http://www.sothink.com"
width="445px" height="173px"
xml:space="preserve">
<g id="1" transform="matrix(1, 0, 0, 1, -67.95, -61.6)">
<path style="fill:none;stroke-width:0.5;stroke-linecap:butt;stroke-linejoin:miter;stroke-miterlimit:4;stroke:#B6B6B6;stroke-opacity:1" d="M398.8,119.4L404.2 114.75" />
<path style="fill:none;stroke-width:0.5;stroke-linecap:round;stroke-linejoin:miter;stroke-miterlimit:4;stroke:#B6B6B6;stroke-opacity:1" d="M378.2,103.45L381.05 105.45L378.95 107.25L381.35 113.55M376.05,114.15L381.35 113.55" />
<path style="fill:none;stroke-width:0.5;stroke-linecap:butt;stroke-linejoin:miter;stroke-miterlimit:4;stroke:#B6B6B6;stroke-opacity:1" d="M381.35,113.55Q386.4 113.35 390.85 114.6" />
<path style="fill:none;stroke-width:0.5;stroke-linecap:butt;stroke-linejoin:miter;stroke-miterlimit:4;stroke:#B6B6B6;stroke-opacity:1" d="M345.6,101.25L345.3 105.05L312.8 128.25L304.8 130.3L295.15 130.3L272.9 124.75L268.1 121.15L268.65 117.15L301 94.05L309.1 92L318.7 91.95L340.95 97.55L345.6 101.25z" />
<path style="fill:none;stroke-width:0.5;stroke-linecap:round;stroke-linejoin:miter;stroke-miterlimit:4;stroke:#B6B6B6;stroke-opacity:1" d="M336.5,99L318.35 94.45L316.3 94.1L312.6 94Q307.5 94.25 304.8 96L276 116.55Q274.4 117.6 273.65 118.4Q273.05 119.15 273.4 120.2Q273.7 121.1 274.6 121.95Q275.2 122.55 276.7 123.1L278.7 123.7L278.95 123.8L292.6 127.15" />
<path style="fill:none;stroke-width:0.5;stroke-linecap:round;stroke-linejoin:miter;stroke-miterlimit:4;stroke:#B6B6B6;stroke-opacity:1" d="M292.6,127.15L292.05 127L293.15 127.3L292.6 127.15z" />
<path style="fill:none;stroke-width:0.5;stroke-linecap:butt;stroke-linejoin:miter;stroke-miterlimit:4;stroke:#B6B6B6;stroke-opacity:1" d="M293.15,127.3L293.7 127.4L294.4 127.55L300.6 128.4L303.8 128.15Q307.25 127.65 309.15 126.25Q323.4 116.1 337.6 105.9L339.75 104.25Q340.95 103.15 340.1 101.35Q339.65 100.4 338.1 99.65L336.5 99" />
<path style="fill:none;stroke-width:0.5;stroke-linecap:round;stroke-linejoin:miter;stroke-miterlimit:4;stroke:#B6B6B6;stroke-opacity:1" d="M337.6,105.9Q323.4 116.1 309.15 126.25Q307.25 127.65 303.8 128.15L300.6 128.4L294.4 127.55L293.7 127.4L293.5 127.35" />
<path style="fill:none;stroke-width:0.5;stroke-linecap:round;stroke-linejoin:miter;stroke-miterlimit:4;stroke:#B6B6B6;stroke-opacity:1" d="M293.5,127.35L292.95 127.25L292.9 127.2M293.5,127.35L292.9 127.2" />
<path style="fill:none;stroke-width:0.5;stroke-linecap:butt;stroke-linejoin:miter;stroke-miterlimit:4;stroke:#B6B6B6;stroke-opacity:1" d="M292.9,127.2L278.95 123.8L278.7 123.7L276.7 123.1Q275.2 122.55 274.6 121.95Q273.7 121.1 273.4 120.2Q273.05 119.15 273.65 118.4Q274.4 117.6 276 116.55L304.8 96Q307.5 94.25 312.6 94L316.3 94.1L336.5 99L338.1 99.65Q339.65 100.4 340.1 101.35Q340.95 103.15 339.75 104.25L337.6 105.9" />
<path style="fill:none;stroke-width:0.5;stroke-linecap:round;stroke-linejoin:miter;stroke-miterlimit:4;stroke:#B6B6B6;stroke-opacity:1" d="M376.2,114.15L370.15 108.55L378.2 103.45L381.15 101.7Q386.35 102.75 390.8 104.55" />
<path style="fill:none;stroke-width:0.5;stroke-linecap:round;stroke-linejoin:miter;stroke-miterlimit:4;stroke:#B6B6B6;stroke-opacity:1" d="M390.8,104.55Q393.8 105.85 395.75 107.05Q397.7 108.25 398.45 109.85L400.1 112.05Q401.85 113.5 404.1 114.6Q406.3 115.65 409.05 116.35L414.35 117.4L418.75 118.15L409.85 125.35L399.35 122.7L398.45 122.25Q399.8 120.05 397.75 117.95Q395.65 115.8 390.85 114.6L387.95 106.9L390.8 104.55z" />
<path style="fill:none;stroke-width:0.5;stroke-linecap:butt;stroke-linejoin:miter;stroke-miterlimit:4;stroke:#B6B6B6;stroke-opacity:1" d="M437.35,126.65L450.15 129.55L449 130.4L449.45 130.5L449.1 130.5L433.5 131.5L431.25 129.35L437.35 126.65z" />
<path style="fill:none;stroke-width:0.5;stroke-linecap:butt;stroke-linejoin:miter;stroke-miterlimit:4;stroke:#B6B6B6;stroke-opacity:1" d="M433.5,131.5L449.1 130.5L449.45 130.5L450.75 130.85L451.7 132.3L448.25 134.65L447.25 134.4L446.25 135.1L445.95 135.15L434.4 134.15L433.55 131.55L433.5 131.5z" />
<path style="fill:none;stroke-width:0.5;stroke-linecap:butt;stroke-linejoin:miter;stroke-miterlimit:4;stroke:#B6B6B6;stroke-opacity:1" d="M434.4,134.15L445.95 135.15L446.25 135.1L446.05 135.25L447.15 135.55L443.5 138.15L442.5 137.9L441.2 138.85L441.1 138.85L432.55 136.7L432.65 136.7L434.4 134.15z" />
<path style="fill:none;stroke-width:0.5;stroke-linecap:butt;stroke-linejoin:miter;stroke-miterlimit:4;stroke:#B6B6B6;stroke-opacity:1" d="M429.75,137.8L432.5 136.75L441.95 139.1L436.15 143.25L435.25 143L434.1 143.8L427.85 142.25L425.1 139L429.75 137.8z" />
<path style="fill:none;stroke-width:0.5;stroke-linecap:butt;stroke-linejoin:miter;stroke-miterlimit:4;stroke:#B6B6B6;stroke-opacity:1" d="M419.9,144.1L413.1 142.4L410 144.6L407.6 144L411.25 141.4L411.1 139.2L421.1 139.3L422.95 141.9L419.9 144.1z" />
<path style="fill:none;stroke-width:0.5;stroke-linecap:butt;stroke-linejoin:miter;stroke-miterlimit:4;stroke:#B6B6B6;stroke-opacity:1" d="M367.05,135.35L368.3 134.3Q369.3 133.7 371.9 133.35Q375.1 132.9 378.7 133.2Q382.75 133.55 386.05 134.4L389.7 135.5Q391.8 136.2 396.95 138.25L411.1 139.2L411.25 141.4L402.65 147.5L395.25 145.65L399.65 142.5L393.1 140.85L395.25 139.35L390.75 138.2L388.4 139.9L384.6 138.95L380.75 141.65L374.65 140.15L375.8 139.35L368.25 137.45Q367.15 137.1 366.8 136.2Q366.7 135.85 367.05 135.35z" />
<path style="fill:none;stroke-width:0.5;stroke-linecap:butt;stroke-linejoin:miter;stroke-miterlimit:4;stroke:#B6B6B6;stroke-opacity:1" d="M422.6,145.85L415.8 150.7L405 148L409.8 144.55L410 144.6L411.95 143.2L422.6 145.85z" />
<path style="fill:none;stroke-width:0.5;stroke-linecap:butt;stroke-linejoin:miter;stroke-miterlimit:4;stroke:#B6B6B6;stroke-opacity:1" d="M187.9,76.2L250.95 91.95L227.95 108.3L227.65 108.95L201.9 127.35L198.2 127.7L173.6 121.6L217.95 89.95L181.4 80.8L187.9 76.2z" />
<path style="fill:none;stroke-width:0.5;stroke-linecap:butt;stroke-linejoin:miter;stroke-miterlimit:4;stroke:#B6B6B6;stroke-opacity:1" d="M156.75,68.7L146.95 75.7L177.8 83.4L181.4 80.8L217.95 89.95L163.7 128.65L68.55 105.05L129.15 61.85L156.75 68.7z" />
<path style="fill:none;stroke-width:0.5;stroke-linecap:butt;stroke-linejoin:miter;stroke-miterlimit:4;stroke:#B6B6B6;stroke-opacity:1" d="M222.5,122.15L230 116.85L239.65 119.25L238.55 120.05L241.55 120.8L240.9 121.3L240.8 121.25L226.15 131.7L226.25 131.7L226.2 131.75L225.7 131.65L218.4 130.5L211.3 128.75L210.75 126.75L218.65 121.15L222.5 122.15z" />
<path style="fill:none;stroke-width:0.5;stroke-linecap:butt;stroke-linejoin:miter;stroke-miterlimit:4;stroke:#B6B6B6;stroke-opacity:1" d="M226.25,131.7L226.15 131.7L240.8 121.25L240.9 121.3L248.4 123.15L233.85 133.55L226.25 131.7z" />
<path style="fill:none;stroke-width:0.5;stroke-linecap:butt;stroke-linejoin:miter;stroke-miterlimit:4;stroke:#B6B6B6;stroke-opacity:1" d="M256.05,125.05L240.8 136.05Q239.15 135.25 237.15 134.6L233.8 133.55L248.4 123.15L256.05 125.05z" />
<path style="fill:none;stroke-width:0.5;stroke-linecap:butt;stroke-linejoin:miter;stroke-miterlimit:4;stroke:#B6B6B6;stroke-opacity:1" d="M275.75,129.3L255.75 143.6L247.75 141.6L247.75 140.8Q247.45 139.9 246.25 139.05Q243.35 137.2 240.8 136.05L256.05 125.05L265.7 127.5L266.4 126.95L275.75 129.3z" />
<path style="fill:none;stroke-width:0.5;stroke-linecap:butt;stroke-linejoin:miter;stroke-miterlimit:4;stroke:#B6B6B6;stroke-opacity:1" d="M283.4,131.2L263.55 145.55L255.7 143.6L275.75 129.3L283.4 131.2z" />
<path style="fill:none;stroke-width:0.5;stroke-linecap:butt;stroke-linejoin:miter;stroke-miterlimit:4;stroke:#B6B6B6;stroke-opacity:1" d="M291.4,133.2L271.35 147.5L263.55 145.55L283.4 131.2L291.4 133.2z" />
<path style="fill:none;stroke-width:0.5;stroke-linecap:butt;stroke-linejoin:miter;stroke-miterlimit:4;stroke:#B6B6B6;stroke-opacity:1" d="M288.7,151.8L271.35 147.5L291.4 133.2L308.7 137.5L288.7 151.8z" />
<path style="fill:none;stroke-width:0.5;stroke-linecap:butt;stroke-linejoin:miter;stroke-miterlimit:4;stroke:#B6B6B6;stroke-opacity:1" d="M354.5,125.65L342.1 134.5L328.05 131L340.45 122.15L354.5 125.65z" />
<path style="fill:none;stroke-width:0.5;stroke-linecap:butt;stroke-linejoin:miter;stroke-miterlimit:4;stroke:#B6B6B6;stroke-opacity:1" d="M332.85,133.2L329.95 135.3L338.15 137.35L334.35 140.05L319.55 136.35L326.25 131.55L332.85 133.2z" />
<path style="fill:none;stroke-width:0.5;stroke-linecap:butt;stroke-linejoin:miter;stroke-miterlimit:4;stroke:#B6B6B6;stroke-opacity:1" d="M334.1,144.35L315 139.65L319.6 136.4L338.65 141.15L334.1 144.35z" />
<path style="fill:none;stroke-width:0.5;stroke-linecap:butt;stroke-linejoin:miter;stroke-miterlimit:4;stroke:#B6B6B6;stroke-opacity:1" d="M314.05,138.85L312.15 140.2L315.6 141.05L297.95 153.75L296.95 153.85L288.7 151.8L308.7 137.5L314.05 138.85z" />
<path style="fill:none;stroke-width:0.5;stroke-linecap:butt;stroke-linejoin:miter;stroke-miterlimit:4;stroke:#B6B6B6;stroke-opacity:1" d="M323.95,143.15L308.05 154.5L303.05 153.25L297.95 153.75L315.6 141.05L323.95 143.15z" />
<path style="fill:none;stroke-width:0.5;stroke-linecap:butt;stroke-linejoin:miter;stroke-miterlimit:4;stroke:#B6B6B6;stroke-opacity:1" d="M334.1,144.35L321.25 153.55L309.3 154.8L308.05 154.5L325.3 142.15L334.1 144.35z" />
<path style="fill:none;stroke-width:0.5;stroke-linecap:butt;stroke-linejoin:miter;stroke-miterlimit:4;stroke:#B6B6B6;stroke-opacity:1" d="M365.1,146.35L358.95 144.8L356.15 146.8L349.65 145.2L354.8 141.55L361.4 140.75L369.85 143L365.1 146.35z" />
<path style="fill:none;stroke-width:0.5;stroke-linecap:round;stroke-linejoin:miter;stroke-miterlimit:4;stroke:#B6B6B6;stroke-opacity:1" d="M362.6,150.65L360.15 152.4L352.4 150.55L351.15 151.45L341 148.9" />
<path style="fill:none;stroke-width:0.5;stroke-linecap:round;stroke-linejoin:miter;stroke-miterlimit:4;stroke:#B6B6B6;stroke-opacity:1" d="M341,148.9L340.85 149L340.95 148.9L341 148.9z" />
<path style="fill:none;stroke-width:0.5;stroke-linecap:butt;stroke-linejoin:miter;stroke-miterlimit:4;stroke:#B6B6B6;stroke-opacity:1" d="M341,148.9L342.9 147.5L348.15 147.05L362.6 150.65" />
<path style="fill:none;stroke-width:0.5;stroke-linecap:butt;stroke-linejoin:miter;stroke-miterlimit:4;stroke:#B6B6B6;stroke-opacity:1" d="M351.15,151.45L349.6 152.55L349.55 152.6L347.95 153.7L347.8 153.7L337.8 151.2L340.85 149L340.95 148.9L351.15 151.45z" />
<path style="fill:none;stroke-width:0.5;stroke-linecap:butt;stroke-linejoin:miter;stroke-miterlimit:4;stroke:#B6B6B6;stroke-opacity:1" d="M384.2,149.65L377.6 154.4L355.65 148.9L357 147.95L359.7 148.6L360.65 147.95L356.15 146.8L358.95 144.8L365.1 146.35L366.65 145.25L384.2 149.65z" />
<path style="fill:none;stroke-width:0.5;stroke-linecap:butt;stroke-linejoin:miter;stroke-miterlimit:4;stroke:#B6B6B6;stroke-opacity:1" d="M351.9,153.2L339.1 162.3L333.3 160.85L330.5 156.45L337.8 151.2L347.8 153.7L347.95 153.7L349.55 152.6L351.9 153.2z" />
<path style="fill:none;stroke-width:0.5;stroke-linecap:butt;stroke-linejoin:miter;stroke-miterlimit:4;stroke:#B6B6B6;stroke-opacity:1" d="M360.75,153.8L344.1 165.7L340.2 164.75L339.1 162.3L353.55 152.05L360.75 153.8z" />
<path style="fill:none;stroke-width:0.5;stroke-linecap:butt;stroke-linejoin:miter;stroke-miterlimit:4;stroke:#B6B6B6;stroke-opacity:1" d="M363.4,151.9L371.25 153.9L351.95 167.65L344.1 165.7L363.4 151.9z" />
<path style="fill:none;stroke-width:0.5;stroke-linecap:butt;stroke-linejoin:miter;stroke-miterlimit:4;stroke:#B6B6B6;stroke-opacity:1" d="M378.75,155.75L359.4 169.5L351.95 167.65L371.25 153.9L378.75 155.75z" />
<path style="fill:none;stroke-width:0.5;stroke-linecap:butt;stroke-linejoin:miter;stroke-miterlimit:4;stroke:#B6B6B6;stroke-opacity:1" d="M218.7,140.85L204.6 150.9L194.45 148.35L206.45 139.8L212.15 139.2L218.7 140.85z" />
<path style="fill:none;stroke-width:0.5;stroke-linecap:butt;stroke-linejoin:miter;stroke-miterlimit:4;stroke:#B6B6B6;stroke-opacity:1" d="M226.1,142.7L213.55 151.65L206.15 149.8L218.7 140.85L226.1 142.7z" />
<path style="fill:none;stroke-width:0.5;stroke-linecap:butt;stroke-linejoin:miter;stroke-miterlimit:4;stroke:#B6B6B6;stroke-opacity:1" d="M198.65,162.25L187.3 170.35L163.3 164.35L174.65 156.25L198.65 162.25z" />
<path style="fill:none;stroke-width:0.5;stroke-linecap:round;stroke-linejoin:miter;stroke-miterlimit:4;stroke:#B6B6B6;stroke-opacity:1" d="M187.3,170.35L163.6 164.45" />
<path style="fill:none;stroke-width:0.5;stroke-linecap:round;stroke-linejoin:miter;stroke-miterlimit:4;stroke:#B6B6B6;stroke-opacity:1" d="M163.6,164.45L137 157.8L165.8 137.05L182.4 135.05L197.75 138.9L201.35 138.5L206.45 139.8L194.45 148.35L212 152.75L198.65 162.25L174.65 156.25L163.3 164.35L163.6 164.45z" />
<path style="fill:none;stroke-width:0.5;stroke-linecap:butt;stroke-linejoin:miter;stroke-miterlimit:4;stroke:#B6B6B6;stroke-opacity:1" d="M234.8,144.85L210.15 162.45L203.35 160.75L215.45 152.15L213.55 151.65L226.1 142.7L234.8 144.85z" />
<path style="fill:none;stroke-width:0.5;stroke-linecap:butt;stroke-linejoin:miter;stroke-miterlimit:4;stroke:#B6B6B6;stroke-opacity:1" d="M218.5,164.55L210.2 162.5L234.8 144.85L243.15 146.95" />
<path style="fill:none;stroke-width:0.5;stroke-linecap:round;stroke-linejoin:miter;stroke-miterlimit:4;stroke:#B6B6B6;stroke-opacity:1" d="M220.65,163.05L218.5 164.55" />
<path style="fill:none;stroke-width:0.5;stroke-linecap:butt;stroke-linejoin:miter;stroke-miterlimit:4;stroke:#B6B6B6;stroke-opacity:1" d="M260.65,151.3L251.7 157.7L244.2 155.85L253.15 149.45" />
<path style="fill:none;stroke-width:0.5;stroke-linecap:butt;stroke-linejoin:miter;stroke-miterlimit:4;stroke:#B6B6B6;stroke-opacity:1" d="M243.15,146.95L253.15 149.45L244.2 155.85L251.7 157.7L237.85 167.6L220.35 163.25" />
<path style="fill:none;stroke-width:0.5;stroke-linecap:butt;stroke-linejoin:miter;stroke-miterlimit:4;stroke:#B6B6B6;stroke-opacity:1" d="M221.8,179.1L260.65 151.3L272.05 154.15L233.1 181.95L221.8 179.1z" />
<path style="fill:none;stroke-width:0.5;stroke-linecap:butt;stroke-linejoin:miter;stroke-miterlimit:4;stroke:#B6B6B6;stroke-opacity:1" d="M245.45,183.95L234.2 181.15L272.1 154.15L283.25 156.95L245.45 183.95z" />
<path style="fill:none;stroke-width:0.5;stroke-linecap:butt;stroke-linejoin:miter;stroke-miterlimit:4;stroke:#B6B6B6;stroke-opacity:1" d="M298,162.2L261.85 188.05L245.55 184L283.25 156.95L292.7 159.3L292.95 160.95L298 162.2z" />
<path style="fill:none;stroke-width:0.5;stroke-linecap:butt;stroke-linejoin:miter;stroke-miterlimit:4;stroke:#B6B6B6;stroke-opacity:1" d="M285.5,181.5L283.95 181.1L283.75 181.1L270.75 190.35L261.75 188.1L297.95 162.3L300.5 166.4L305.1 167.55L285.5 181.5z" />
<path style="fill:none;stroke-width:0.5;stroke-linecap:butt;stroke-linejoin:miter;stroke-miterlimit:4;stroke:#B6B6B6;stroke-opacity:1" d="M285.55,181.55L305.1 167.55L312.85 169.45L317.5 169.1L294.9 185.2L289.05 183.75L277.45 192.05L270.75 190.35L283.75 181.1L285.55 181.55z" />
<path style="fill:none;stroke-width:0.5;stroke-linecap:butt;stroke-linejoin:miter;stroke-miterlimit:4;stroke:#B6B6B6;stroke-opacity:1" d="M346.75,173.3L339.95 178.2L334.05 176.75L340.85 171.85" />
<path style="fill:none;stroke-width:0.5;stroke-linecap:butt;stroke-linejoin:miter;stroke-miterlimit:4;stroke:#B6B6B6;stroke-opacity:1" d="M323.55,168.6L328.15 169.8L308.7 183.65L300.15 181.5L317.5 169.1L323.55 168.6z" />
<path style="fill:none;stroke-width:0.5;stroke-linecap:butt;stroke-linejoin:miter;stroke-miterlimit:4;stroke:#B6B6B6;stroke-opacity:1" d="M339.95,178.2L346.8 173.3L352.2 174.65L336.75 185.7L331.4 184.4L332.7 183.5L332.7 183.45L329.55 182.65L336.85 177.45L339.95 178.2z" />
<path style="fill:none;stroke-width:0.5;stroke-linecap:butt;stroke-linejoin:miter;stroke-miterlimit:4;stroke:#B6B6B6;stroke-opacity:1" d="M352.2,174.65L357.55 176L342.1 187.05L336.8 185.75L352.2 174.65z" />
<path style="fill:none;stroke-width:0.5;stroke-linecap:butt;stroke-linejoin:miter;stroke-miterlimit:4;stroke:#B6B6B6;stroke-opacity:1" d="M340.85,171.85L334.05 176.75L336.85 177.45L329.55 182.65L332.7 183.5L327.45 187.2L321.45 185.7L320.3 186.5L308.8 183.65L328.3 169.7L331.5 169.5L340.85 171.85z" />
<path style="fill:none;stroke-width:0.5;stroke-linecap:butt;stroke-linejoin:miter;stroke-miterlimit:4;stroke:#B6B6B6;stroke-opacity:1" d="M400.85,151.3L389.1 148.4L359.45 169.55L371.1 172.45L400.85 151.3z" />
<path style="fill:none;stroke-width:0.5;stroke-linecap:butt;stroke-linejoin:miter;stroke-miterlimit:4;stroke:#B6B6B6;stroke-opacity:1" d="M382.65,175.3L411.05 155.05L408.9 154.5L410.15 153.6L400.85 151.3L371.1 172.45L382.65 175.3z" />
<path style="fill:none;stroke-width:0.5;stroke-linecap:butt;stroke-linejoin:miter;stroke-miterlimit:4;stroke:#B6B6B6;stroke-opacity:1" d="M401.2,174.3L408.75 173.65L428.65 159.45L411.05 155.05L382.65 175.3L387.5 176.5L401.2 174.3z" />
<path style="fill:none;stroke-width:0.5;stroke-linecap:butt;stroke-linejoin:miter;stroke-miterlimit:4;stroke:#B6B6B6;stroke-opacity:1" d="M437.05,160.3L435.75 161.2L428.65 159.45L408.75 173.65L409.15 173.65L421.65 176.75L425.8 176.3L445.4 162.3L437.05 160.3z" />
<path style="fill:none;stroke-width:0.5;stroke-linecap:butt;stroke-linejoin:miter;stroke-miterlimit:4;stroke:#B6B6B6;stroke-opacity:1" d="M458,170.4L463 166.8L472.3 169.1L451.35 184.05L432.7 179.4L431.75 177.85L448.3 166L454.65 167.6L453.7 168.25L455.45 168.7L454.35 169.5L458 170.4z" />
<path style="fill:none;stroke-width:0.5;stroke-linecap:butt;stroke-linejoin:miter;stroke-miterlimit:4;stroke:#B6B6B6;stroke-opacity:1" d="M483.8,163.25L492.3 165.35L461.7 187.25L454.7 185.5L454.25 184.8L451.35 184.05L472.3 169.1L474.75 169.75L483.8 163.25z" />
<path style="fill:none;stroke-width:0.5;stroke-linecap:butt;stroke-linejoin:miter;stroke-miterlimit:4;stroke:#B6B6B6;stroke-opacity:1" d="M461.7,187.25L492.35 165.35L483.8 163.25L491.6 157.7L509.8 162.25L471.4 189.65L461.7 187.25z" />
<path style="fill:none;stroke-width:0.5;stroke-linecap:butt;stroke-linejoin:miter;stroke-miterlimit:4;stroke:#B6B6B6;stroke-opacity:1" d="M471.4,189.65L509.8 162.25Q510.55 162.9 511.7 165.65Q513.25 169.25 512.35 171.55L510.7 175.5Q509.4 178.15 508.55 179.05L506.8 181.25L510.6 181.7L504.95 186.7L501.2 189.35L498.6 191.05L489.25 192L478.55 189.4L472.65 190L471.4 189.65z" />
<path style="fill:none;stroke-width:0.5;stroke-linecap:butt;stroke-linejoin:miter;stroke-miterlimit:4;stroke:#B6B6B6;stroke-opacity:1" d="M336.9,190.8L357.55 176L375.4 180.45L354.7 195.25L336.9 190.8z" />
<path style="fill:none;stroke-width:0.5;stroke-linecap:butt;stroke-linejoin:miter;stroke-miterlimit:4;stroke:#B6B6B6;stroke-opacity:1" d="M398.9,186.3L388.9 193.45L385.6 192.65L378.75 197.55L370.1 195.35L386.95 183.35L398.9 186.3z" />
<path style="fill:none;stroke-width:0.5;stroke-linecap:butt;stroke-linejoin:miter;stroke-miterlimit:4;stroke:#B6B6B6;stroke-opacity:1" d="M386.95,183.35L370.1 195.35L373.9 196.3L370.05 199.05L354.7 195.25L375.4 180.45L386.95 183.35z" />
<path style="fill:none;stroke-width:0.5;stroke-linecap:butt;stroke-linejoin:miter;stroke-miterlimit:4;stroke:#B6B6B6;stroke-opacity:1" d="M402.4,183.8L414.3 182.5L422.6 184.6L426.55 184.15L467.9 194.5L469.15 196.45L474.4 197.75L478.85 197.15L482.55 198L485.65 202.9L483.05 204.75L479.25 205.15L445.15 229.45L446.2 231.15L443.95 232.75L432.95 233.9L429.45 233.05L428.05 231.05L360 214.1L402.4 183.8z" />
<path style="fill:none;stroke-width:0.5;stroke-linecap:butt;stroke-linejoin:miter;stroke-miterlimit:4;stroke:#B6B6B6;stroke-opacity:1" d="M466.05,135.2L450.85 146.05L440 143.35L455.2 132.5L466.05 135.2z" />
<path style="fill:none;stroke-width:0.5;stroke-linecap:butt;stroke-linejoin:miter;stroke-miterlimit:4;stroke:#B6B6B6;stroke-opacity:1" d="M350.85,119L346.65 117.95L349.2 116.15L353.2 117.3L350.85 119z" />
<path style="fill:none;stroke-width:0.5;stroke-linecap:butt;stroke-linejoin:round;stroke-miterlimit:3;stroke:#B6B6B6;stroke-opacity:1" d="M350.45,138.7L344.25 143.15L341.7 142.5L347.85 138L350.45 138.7z" />
<path style="fill:none;stroke-width:0.5;stroke-linecap:round;stroke-linejoin:round;stroke-miterlimit:3;stroke:#B5B5B5;stroke-opacity:1" d="M395.35,139.25L396.55 138.3" />
<path style="fill:none;stroke-width:0.5;stroke-linecap:round;stroke-linejoin:round;stroke-miterlimit:3;stroke:#B5B5B5;stroke-opacity:1" d="M400,142.3L404.25 139" />
</g>
</svg>
