<?xml version="1.0" encoding="utf-8"?>
<svg version="1.1" id="Layer_1"
xmlns="http://www.w3.org/2000/svg"
xmlns:xlink="http://www.w3.org/1999/xlink"
xmlns:author="http://www.sothink.com"
width="452px" height="199px"
xml:space="preserve">
<g id="0" transform="matrix(1, 0, 0, 1, -66.2, -60.25)">
<path style="fill:none;stroke-width:4;stroke-linecap:butt;stroke-linejoin:miter;stroke-miterlimit:10;stroke:#4D4D4E;stroke-opacity:1" d="M489.45,165.25L492.4 165.95M503.6,188.1L503.75 188L503.7 188.05L503.6 188.1M507.1,181.15L507.3 180.85L508.6 179.3M506.4,185.9L506.45 185.85L506.45 185.9L506.4 185.9M392.7,115.75L393.6 116.05L393.55 116.05L392.7 115.75M392.15,115.55L391.3 115.3M393.85,116.15L394.15 116.3L394.1 116.25L393.85 116.15M389.3,114.85L388.9 114.8M387.4,114.55L387 114.5M398.4,119.45L398.55 119.65L398.45 119.5L398.4 119.45M397.95,118.85L398.15 119.1L398.1 119L397.95 118.85M397.15,118.05L397 117.9L396.95 117.9L397.15 118.05M400.45,123.6L400.2 123.55L400.1 123.55L400.5 123.65L400.45 123.6M395.6,117L396.6 117.6M394.45,116.4L394.9 116.65M383.25,114.2L383.7 114.25M379,114.35L379.85 114.3M378.05,114.45L375.95 114.75M368.6,143.25L368.6 142.8L374.3 144.25L374.3 145.35L374.4 145.35L372.5 146.7L369.85 146.05L369.85 143.6L369.55 143.55L368.65 143.25L368.6 143.25M402.45,148.05L400.1 147.45M401.7,123.95L401.05 123.75L401 123.75L401.7 123.95M344.15,106.3L343.4 106.8M338.8,106.3L339 106.2L338.9 106.2L338.8 106.3M338.6,106.45L338.75 106.35L338.7 106.4L338.6 106.45M341.9,135.05L333.65 133M325.05,138.35L326.15 138.6M356.35,147.1L355.95 147.35M360.65,150.75L362.65 151.25M356.65,169.45L359.2 170.05M338.8,167.5L338.8 167.55L339.65 169.35L338.7 167.45L338.8 167.5M341.6,165.7L343.9 166.25M345.3,158.35L338.9 162.9M392.85,191L388.7 194M401,174.9L387.4 177.1M380.95,188.05L369.75 196M364.15,171.3L382.45 175.85L406.45 158.75M413.3,122.6L411.95 123.55M425.3,132.05L425.25 131.95L425.3 131.85L425.3 132.05M427.1,147.45L427.1 147L425.75 145.3L427.4 147.2L427.1 147.45M439.65,166.85L425.6 176.9M410.15,149.9L415.6 151.25L416.6 150.55M435.25,180.65L451.15 184.6Q458.85 179.15 466.5 173.65M453.9,189.95L453.95 189.95L454.15 190.25L454.1 190.25L453.9 189.95M364.7,215.85L427.95 231.6M359.45,197L369.75 199.55M239.05,135.95L238.2 135.6M231.75,133.6L233.65 134.1L242.6 127.75M224.75,132.1L224.5 132.05L224.4 132.05L224.75 132.1M168.05,166.15L187.1 170.9M225.05,165L237.65 168.15M214.9,164.3L218.25 165.1M227.3,181.1L232.9 182.5M198.45,162.8L206.4 157.1M309.75,127.05L309.45 127.25M274.8,118.7L274.5 119M250.25,129.65L248.3 131.05M247.4,146.05L247.4 146.55L247.3 146.5L247.3 145.9L247.25 145.6L247.4 146.05M277.25,123.8L277.2 123.8L277.25 123.85L277.25 123.8M275.45,192.1L277.3 192.6M261.65,188.6L258 187.7M304.85,183.25L308.5 184.2M288.85,184.3L294.7 185.75L310 174.85M293.4,153.6L296.8 154.45M307.85,155.05L307.3 154.9M292.05,166.9L278.7 176.4M238.95,182.95L245.25 184.5" />
<path style="fill:none;stroke-width:4;stroke-linecap:round;stroke-linejoin:miter;stroke-miterlimit:10;stroke:#4D4D4E;stroke-opacity:1" d="M493.7,141.5L484.1 138.6L480.05 139.75L480.05 139.8L473.05 138.1L474 137.4L474 136.5L450.2 130.6L450.2 130.2L428.5 124.8L428.05 125.1L425.3 124.4L424.3 125.15L418.4 123.65L418.95 123.25L419 118.95L415.9 118.25L413.5 117.85L409.45 117.1L407.15 116.5Q403.35 115.3 401.05 113.6L400.85 113.5L399.3 111.9Q398.3 110.65 397.85 109.7Q397.4 108.7 394.1 106.85L390 104.75Q388.6 104.1 385.8 103.4L380.85 102.35L374.4 105.9L373.45 106.6L370.1 105.75L373.45 103.4L373.45 102.45L316.8 81L313.85 83.1L309.4 82L255.4 120.55L227.8 113.75L227.9 113.5L250.9 97.1L250.95 92.55L187.65 76.8L181.45 81.45L181.45 81.55L181.3 81.55L181.1 81.5L177.6 84L151.65 77.5L156.75 73.9L156.8 69.35L128.95 62.4L68.2 105.75L68.2 110.25L162.75 133.7L155 139.25L155 140.2L160.2 141.5L136.65 158.45L136.6 162.95L187.15 175.55L199.6 166.7L199.6 167.35L228.05 174.45L216.4 182.75L216.4 183.65L221.9 185L222.5 184.55L233 187.15L233.15 187.05L233.15 187.8L282.7 200.15L294.95 191.15L294.95 190.3L298.65 187.65L298.65 188.05L371.6 206.2L359.65 214.7L359.65 219.25L427.75 236.2L429.2 238.25L432.75 239.15L443.9 237.95L446.15 236.3L446.15 233.85L479.1 210.35L483 209.9L485.6 208.05L485.65 203.5L483.7 200.4L487.8 197.5L487.8 196.95L487.85 196.95L489.1 197.2L498.55 196.25L500.85 194.75L501.1 194.55L501.35 194.4L501.75 194.1L501.95 194L503.2 193.1L503.3 193.05L503.75 192.7L503.95 192.6L505.3 191.6L505.4 191.5L505.75 191.25L505.8 191.2L506 191.05L506.1 190.9L506.45 190.6L506.55 190.55L507.4 189.75L507.55 189.65L507.85 189.35L508 189.25L509.2 188.15L509.2 188.1L509.75 187.65L509.85 187.5L509.9 187.5L511.1 187.6L511.9 186.7L512 186.55L512.6 185.8L512.65 185.8L513.35 184.75L513.55 184.5L514.15 183.55L515.35 181.1L515.35 181.05L515.45 180.9L515.6 180.45L515.7 180.25L516 179.2L516.05 178.9L516.1 178.85L516.1 178.7L516.15 178.55L516.15 178.45L516.2 178.35L516.2 177.3L512.2 177.05L511.3 179.25M330.6,162.25L331.7 164M227.7,108.95L244.75 96.8M217.95,90.55L186.65 82.75" />
<path style="fill:none;stroke-width:4;stroke-linecap:round;stroke-linejoin:miter;stroke-miterlimit:10;stroke:#4D4D4E;stroke-opacity:1" d="M511.3,179.25L511.25 179.35L511.25 179.4L511.2 179.4L511.3 179.25M499.55,190.9L498.5 191.6L498.45 191.6L499.55 190.9L500.45 190.25L500.8 190L500.85 190L501.2 189.75L500.95 189.95L500.85 190L500.45 190.25M331.7,164L332.8 165.7L332.75 165.7L331.7 164M244.75,96.8L245.85 95.95L245.9 95.95L244.75 96.8M186.65,82.75L186.1 82.6L186.15 82.6L186.65 82.75" />
<path style="fill:none;stroke-width:4;stroke-linecap:butt;stroke-linejoin:miter;stroke-miterlimit:10;stroke:#4D4D4E;stroke-opacity:1" d="M511.3,179.25L512.3 176.75L512.45 176.15L512.5 176L512.6 175.15L512.65 170.4Q512.2 166.15 509.8 162.7L504.65 161.55Q502.9 160.45 502.5 160.3L489.45 157.05L471.85 169.6L462.8 167.35L460 169.35L445.45 165.7L471.4 147.15L485.9 150.75L494.6 147.95L494.6 147.85L496.8 148.4L501.7 144.9L501.7 144L493.7 141.7L493.7 141.5" />
<path style="fill:#4D4D4D;fill-opacity:1" d="M501.95,164.25L497.05 167.75L494.85 167.2L494.85 167.3L486.15 170.1L473 166.85Q471.9 167.65 471.55 167.65L470.7 167.45L470.45 167.35L445.7 185.05L460.25 188.7L463.05 186.7L472.1 188.95L489.7 176.4L502.75 179.65L504.9 180.9L509.9 182.15L510.05 182.05L510.1 182.15L511.55 184.75Q512.9 187.7 512.85 189.9L512.9 189.75L512.85 194.5L512.75 195.35L512.7 195.5L512.55 196.1L511.55 198.6L512.45 196.4L516.45 196.65L516.45 197.7L516.4 197.8L516.4 197.9L516.35 198.05L516.35 198.2L516.3 198.25L516.25 198.55L515.95 199.6L515.85 199.8L515.7 200.25L515.6 200.4L515.6 200.45L514.4 202.9L513.8 203.85L513.6 204.1L512.9 205.15L512.85 205.15L512.25 205.9L512.15 206.05L511.35 206.95L510.15 206.85L510.1 206.85L510 207L509.45 207.45L509.45 207.5L508.25 208.6L508.1 208.7L507.8 209L507.65 209.1L506.8 209.9L506.7 209.95L506.35 210.25L506.25 210.4L506.05 210.55L506 210.6L505.65 210.85L505.55 210.95L504.2 211.95L504 212.05L503.55 212.4L503.45 212.45L502.2 213.35L502 213.45L501.6 213.75L501.35 213.9L501.1 214.1L498.8 215.6L489.35 216.55L488.1 216.3L488.05 216.3L488.05 216.85L483.95 219.75L485.9 222.85L485.85 227.4L483.25 229.25L479.35 229.7L446.4 253.2L446.4 255.65L444.15 257.3L433 258.5L429.45 257.6L428 255.55L359.9 238.6L359.9 234.05L371.85 225.55L298.9 207.4L298.9 207L295.2 209.65L295.2 210.5L282.95 219.5L233.4 207.15L233.4 206.4L233.25 206.5L222.75 203.9L222.15 204.35L216.65 203L216.65 202.1L228.3 193.8L199.85 186.7L199.85 186.05L187.4 194.9L136.85 182.3L136.9 177.8L160.45 160.85L155.25 159.55L155.25 158.6L163 153.05L68.45 129.6L68.45 125.1L129.2 81.75L157.05 88.7L157 93.25L151.9 96.85L177.85 103.35L181.35 100.85L181.55 100.9L181.7 100.9L181.7 100.8L187.9 96.15L251.2 111.9L251.15 116.45L228.15 132.85L228.05 133.1L255.65 139.9L309.65 101.35L314.1 102.45L317.05 100.35L373.7 121.8L373.7 122.75L370.35 125.1L373.7 125.95L374.65 125.25L376.85 125.8L377.1 125.65L378.25 125.75L380.65 124.05L380.65 123.5L381.1 121.7L381.25 121.7L386.05 122.75Q388.85 123.45 390.25 124.1L394.35 126.2Q397.65 128.05 398.1 129.05L399.55 131.25L401.1 132.85L401.3 132.95Q403.6 134.65 407.4 135.85L409.7 136.45L416.15 137.6L419.25 138.05L419.2 142.6L418.65 143L424.55 144.5L425.55 143.75L428.3 144.45L428.75 144.15L450.45 149.55L450.45 149.95L474.25 155.85L474.25 156.75L473.3 157.45L480.3 159.15L480.3 159.1L484.35 157.95L493.95 160.85L493.95 161.05L501.95 163.35L501.95 164.25M427.65,166.55L426 164.65L427.35 166.35L427.35 166.8L427.65 166.55" />
<path style="fill:#D2D4D5;fill-opacity:1" d="M494.85,147.3L486.15 150.1L471.65 146.5L445.7 165.05L469.3 170.95L489.7 156.4L502.75 159.65Q504.15 160.25 506.4 161.95Q509.85 164.5 510.15 166.6L510.15 167.55L491.8 163.1L475 175.1L463.3 172.1L458.35 175.65L454.6 174.8L454.6 173.9L454.8 173.75L453.95 173.5L453.95 172.6L448.8 171.35L441.45 176.4L435.4 174.9L435.4 174L444.7 167.4L437.55 165.65L436.15 166.6L408.9 159.85L408.9 158.95L409.2 158.75L389.2 153.75L378.9 161.1L363.6 157.3L360.9 159.2L353.7 157.4L352.2 158.5L349.8 157.9L349.8 157L353 154.75L360.6 156.6L363.2 154.75L378.2 158.45L383.35 154.8L366.25 150.55L366.25 149.65L369.55 147.25L367.1 146.65L367.1 145.75L368.2 144.95L372.75 146.05L375.1 144.4L381.2 145.9L385.05 143.15L388.95 144.15L391.35 142.45L395.9 143.55L395.9 144.45L394.75 145.3L400.35 146.7L400.35 147.6L396.9 150.05L402.85 151.6L407.65 148.15L410.45 148.8L410.4 149.7L406.6 152.45L416.1 154.8L427.95 146.35L434.65 148L435.8 147.2L436.1 147.3L442.35 142.1L443.95 142.45L446.45 140.65L446.25 140.6L446.25 139.7L447.75 138.6L448.45 138.75L450.9 136.65L450.6 136.1L449.1 135.75L449.1 134.85L450.35 133.65L454.35 134.65L455.95 136.7L494.85 146.4L494.85 147.3M490.85,142.65L480.25 140.05L480.3 139.1L484.35 137.95L493.95 140.85L493.9 141.75L490.85 142.65M516.45,177.7L516.4 177.8L516.4 177.9L516.35 178.05L516.35 178.2L516.3 178.25L516.25 178.55L515.95 179.6L515.85 179.8L515.7 180.25L515.6 180.4L515.6 180.45L514.4 182.9L513.8 183.85L513.6 184.1L512.9 185.15L512.85 185.15L512.25 185.9L512.15 186.05L511.35 186.95L507 186.5L507 185.6Q511.7 179.35 512.45 176.4L516.45 176.65L516.45 177.7M382,106.15L382 107.05L381.65 107.75L382.05 107.8L382.05 108.7L378.05 111.55L375.05 110.8L371.3 113.45L376.6 118.5L376.6 119.4L372.45 120.65L370.6 121.45L370.05 121.75L369.85 121.8L369.65 121.95L369.05 122.3L368.2 122.95L367.55 123.6L367.25 124.05L367.15 124.15L367 124.55L366.95 124.6L366.85 124.95L366.85 125.05Q366.95 125.75 367.4 126.3L367.4 127.2L365.25 127.55L365.2 128.2L332 120L332 119.1L345.45 109.4L345.5 106.5L340.75 102.85L318.7 97.35L309.75 97.35L301.55 99.35L269.1 122.3L268.85 125.4L273.7 128.9L295.9 134.45L305 134.45L313.35 132.25L326.5 122.85L340.9 126.45L340.9 127.35L329.6 135.45L342.65 138.7L342.65 139.6L338.2 142.75L330 140.7L330 139.8L332.1 138.3L326.4 136.9L316.45 144L326 146.4L326 147.3L324.25 148.55L312.4 145.6L312.45 144.7L313.4 144L266.65 132.35L265.95 132.85L240.9 126.6L240.9 125.95L238.8 125.45L238.8 124.5L238.9 124.45L230.6 122.35L227.6 124.6L216.7 121.95L216.7 121.05L227.7 113L255.65 119.9L309.65 81.35L314.1 82.45L317.05 80.35L373.7 101.8L373.7 102.75L370.35 105.1L375.9 106.5L377.1 105.65L382 106.15M341.6,176.05L347.25 177.55L347.25 178.45L340.55 183.25L334.8 181.8L334.8 180.9L341.6 176.05M338.15,195.25L370.2 203.2L373.9 200.6L378.65 201.8L385.5 196.9L388.85 197.7L388.8 198.6L377.1 207L298.5 187.4L298.5 186.45L299.75 185.55L320.3 190.7L321.45 189.85L327.5 191.35Q329.45 190 331.35 188.6L342.3 191.35L342.3 192.25L338.15 195.25M412.4,128.25L412.45 127.3L418.55 123L425.4 124.7L425.4 125.6L419.35 129.95L412.4 128.25M199.85,165.15L211.3 157L205 155.4L205 154.5L206.7 153.3L216.2 155.7L216.2 156.6L205.1 164.55L218.85 167.95L220.45 166.8L238.15 171.25L238.15 172.15L222.15 183.7L216.65 182.35L216.65 181.45L228.3 173.15L199.85 166.05L199.85 165.15M233.25,185.6L234.55 184.65L277.6 195.4L288.8 187.35L295.05 188.95L295.05 189.85L282.8 198.85L233.25 186.5L233.25 185.6M244.85,160.95L244.9 160L253.65 153.75L261.15 155.6L261.15 156.5L252.5 162.85L244.85 160.95" />
<path style="fill:#AAACAE;fill-opacity:1" d="M502.05,143.25L502.05 144.15L497.15 147.65L494.75 147.05L493.9 147.25L455 137.55L453.4 135.5L431.3 130.1L433.3 135.7Q434.3 137.2 434.2 138.3L434.2 139.3L434.15 139.7L434.15 139.75L434.1 139.8L434.05 140.05L433.75 140.6L433.7 140.6L433.65 140.65L433.55 140.8L433.3 141.05L432.65 141.5L432.35 141.65L432.3 141.7L431.5 142.2L431.45 142.2L431.4 142.25L430.75 142.6L430.7 142.6L430.35 142.75L425.65 143.9L427.45 146.25L427.45 147.15L422.05 151.1L411.25 148.4L411.25 147.45L412.6 146.4L419.4 148.1L421.85 146.3L420.55 144.45L409.35 144.4L409 144.35L408 144.35L407.75 144.3L406.15 144.25L405.9 144.2L404.5 144.15L404.25 144.1L402.95 144.05L402.65 144L401.4 143.95L401.15 143.9L400.85 143.9L399.75 143.8L399.6 143.8L399.05 143.75L398.95 143.7L396.8 143.5L396.6 143.5L396.4 143.45L386.9 139.95L384.7 139.45L384.4 139.35L383.25 139.15L383.15 139.1L381 138.75L380.9 138.75L380.15 138.6L380 138.6L379.25 138.5L379.15 138.5L378.6 138.4L377.8 138.35L376.95 138.3L376.65 138.25L373.9 138.25L372.85 138.35L369 139.1L368.9 139.15L368.55 139.25L368.45 139.3L368.25 139.35L368.2 139.4L368.1 139.45L367.55 139.9L367.5 139.95L367.2 140.35L367.15 140.4L367.05 140.7Q367.25 141 370.45 142L375.1 143.4Q375.45 143.55 375.35 144.4L372.9 146.15L366.65 144.55L367.5 145.7L367.4 145.75L369.95 146.35L369.95 147.25L368.7 148.05L360.95 146L354.5 146.5L350.2 149.6L360.3 152.1L360.25 153.05L359.2 153.8L356.65 153.2L355.2 154.05L347.85 152.2L342.65 152.7L330.7 161.1L333.1 164.95L338.85 166.35L340.05 168.75L387.4 180.55L401.2 178.3L408.7 177.6L421.35 180.75L425.5 180.3L434.75 173.7L440.9 175.25L440.9 176.15L432 182.5L432.6 183.45L454 188.8L454.45 189.5L472.8 194.1L478.6 193.5L488.15 195.85L488.15 196.75L479.9 202.65L478.2 202.25L473.8 202.9L468.65 201.6L467.35 199.6L426.25 189.3L422.3 189.7L413.75 187.7L401.95 188.95L398.2 191.5L330.95 174.7L327.35 174.95L322.85 173.8L312.6 174.65L299.9 171.55L297.35 167.35L292.2 166.1L291.95 164.4L211.55 144.35L206.1 144.95L200.8 143.6L197.25 144.05L182.05 140.25L166.05 142.1L155.35 139.45L155.35 138.5L173.35 125.65L197.8 131.75L201.4 131.25L215.9 120.9L219.7 121.85L219.7 122.75L216.8 124.8L218.25 125.15L218.25 126.1L210.7 131.45L211.1 132.65L218.45 134.5Q224.15 135.1 229.75 136.5Q236.1 138.1 239.95 139.85Q247.65 143.15 247.65 145.15L247.65 145.75L296.55 157.95L302.7 157.3L309.1 158.9L321 157.55L337.5 145.8L334.15 144.95L334.15 144.05L353.15 130.45L326 123.7L326 122.75L331.4 118.9L363.8 127L363.8 126.4L366.2 126.15L366.15 124.35Q366.15 122.55 367.5 121.4Q368.4 120.55 370.45 119.7Q373.3 118.45 377.4 117.9L389.15 118.3L390.5 118.6Q395.05 119.75 397.15 121.6Q398.8 123 398.8 124.55L398.8 125.55L398.75 125.95L398.7 126.15L398.65 126.25Q398.85 126.65 399.6 126.85L409.35 129.3L413.95 126.15L418.4 122.95L424.65 124.35L425.65 123.65L474.35 135.75L474.35 136.65L473.4 137.35L490.2 141.5L492.8 140.6L502.05 143.25" />
<path style="fill:#97999B;fill-opacity:1" d="M510.05,162.05L510.1 162.15L511.55 164.75Q512.9 167.7 512.85 169.9L512.9 169.75L512.85 174.5L512.75 175.35L512.7 175.5L512.55 176.1L511.5 178.7L511.5 178.75L511.25 179.2L511.25 179.3L510.2 181.25L510.15 181.4L510.05 181.55L510.85 181.65L510.85 186.2L510.35 186.65L510.25 186.7L510.1 186.85L510 187L509.45 187.45L509.45 187.5L508.25 188.6L508.1 188.7L507.8 189L507.65 189.1L506.8 189.9L506.7 189.95L506.35 190.25L506.25 190.4L506.05 190.55L506 190.6L505.65 190.85L505.55 190.95L504.2 191.95L504 192.05L503.55 192.4L503.45 192.45L502.2 193.35L502 193.45L501.6 193.75L501.35 193.9L501.1 194.1L498.8 195.6L489.35 196.55L478.55 193.95L472.7 194.55L454.7 190.05L454.2 189.3L432.7 183.95L431.7 182.35L431.7 177.8L448.35 165.9L454.8 167.5L454.8 167.6L454.85 167.6L454.85 168.45L455.6 168.6L455.6 168.7L455.65 168.7L455.65 169.7L458.05 170.3L463.05 166.7L472.45 169.05L472.45 169.1L472.5 169.1L472.5 169.2L474.8 169.65L491.65 157.6L509.9 162.15L510.05 162.05M509.95,166.85L478.45 189.3L478.6 189.3L488.25 191.7L489.4 191.9L498.7 191L498.7 190.95L498.75 190.95L501.05 189.35L501.2 189.3L506.65 185.25L506.7 185.25L506.75 181.25L508.7 178.8L508.85 178.65L509.7 177.3L509.7 177.2L510.85 175.2L510.85 175.15L512.2 171.8Q511.6 169.6 509.95 166.85M488.8,164.35L492.65 165.3L492.6 169.85L466.65 188.4L471.45 189.55L505.05 165.6L491.7 162.3L488.8 164.35M399.55,111.25L401.1 112.85L401.3 112.95Q403.6 114.65 407.4 115.85L409.7 116.45L416.15 117.6L419.25 118.05L419.2 122.6L410.1 129.95L399.45 127.3L399.3 127.3L398.4 126.8L398.4 123.45L398.15 123L397.65 122.4L397.5 122.3L396.9 121.8L396.85 121.75L394.95 120.6L392.2 119.5L389.35 118.85L389.05 118.75L387.5 118.5L387.15 118.5L385.55 118.3L381.7 118.2L380.05 118.3L379.25 118.35L376.15 118.75L370.05 113.05L370.1 108.5L374.65 105.25L377.85 106.05L380.65 104.05L380.65 103.5L381.1 101.7L381.25 101.7L386.05 102.75Q388.85 103.45 390.25 104.1L394.35 106.2Q397.65 108.05 398.1 109.05L399.55 111.25M384.85,107.1L384.7 107.1L381.8 106.5L381.7 106.45L381.5 106.45L381.5 108.15L377.9 110.75L374.7 109.95L373.1 111.1L376.2 114.1L378.3 113.8L378.45 113.75L379.25 113.7L380.1 113.65L380.25 113.6L383.5 113.55L383.95 113.6L385.6 113.65L385.75 113.7L387.65 113.9L387.85 113.9L391.55 114.65L392.55 114.95L392.65 115L393.8 115.4L394 115.5L394.1 115.5L394.35 115.6L394.5 115.7L395.15 116L395.3 116.05L396.85 116.95L396.9 117L397.05 117.1L397.2 117.25L397.25 117.25L398.35 118.35L398.4 118.45L398.5 118.55L398.8 119L398.85 119.1L398.85 119.15L398.95 119.35L399.15 119.9L399.15 120.05L399.2 120.5L399.2 122.5L399.55 122.65L399.55 122.7L400.7 122.95L400.75 123L401.25 123.1L401.3 123.1L409.25 125L413.55 121.95L413.35 121.9L413.3 121.9L413.1 121.85L412.4 121.75L412.1 121.65L411.4 121.55L411.3 121.5L411.25 121.5L409.05 120.95L408.9 120.95L406.05 120.1L405.95 120.05L404.95 119.7L404.9 119.65L404.7 119.55L404.05 119.3L402.45 118.45L402.3 118.4L401.45 117.85L401.35 117.75L401.05 117.55L400.9 117.45Q400.25 117.05 399.3 115.85Q398.3 114.6 397.85 113.6Q397.15 112.05 390.05 108.7L389.35 108.4L384.85 107.1M371.85,133.3Q375.1 132.8 378.85 133.15L386.2 134.35L389.85 135.4L394.25 137.05L397.15 138.2L403.35 138.8L421.3 139.25L423.2 141.9L423.15 146.45L422.85 146.65L422.8 150.35L415.9 155.3L410.4 153.9L410.4 154.8L435.8 161.1L437.1 160.2L445.7 162.3L445.65 166.8L425.95 180.85L421.75 181.3L409.15 178.2L401.3 178.85L387.55 181.1L359.5 174.1L359.35 174.05L340.15 169.25L339.05 166.9L339.05 166.85L333.3 165.45L330.45 160.95L330.45 156.4L342.9 147.45L348.2 146.95L349.55 147.3L349.6 145.2L354.8 141.5L361.55 140.7L361.6 140.7L370.1 142.95L370.1 146.05L384.5 149.6L384.45 151.65L389.15 148.3L395.15 149.75L395.2 145.95L393 145.4L393 143.35L390.85 142.8Q389.7 143.65 388.5 144.45L384.7 143.5L380.85 146.25L374.55 144.7L374.55 143.6L368.25 142L368.2 142L368.15 141.95L368.05 141.95L368.05 141.9L367.4 141.55L367.05 141.2L367 141.1L366.75 140.7L366.75 136L366.8 136.15Q366.7 135.85 367.05 135.35Q367.45 134.75 368.3 134.25Q369.3 133.65 371.85 133.3M372.75,137.8L371.7 137.95L371.55 138L371.15 138.05L376.05 139.3L376.05 140.4L380.8 141.6L384.65 138.85L388.45 139.8L388.6 139.7L388.4 139.6L384.45 138.6L377.05 137.65L375.15 137.65L374.15 137.7L373 137.8L372.75 137.8M399.9,146.7L402.7 147.4L407.95 143.65L399.95 143.1L399.9 146.7M345.5,109.6L313 132.8L313 132.55L312.8 132.75L312.7 132.75L304.95 134.85L298.55 134.85L314.3 138.8L314.3 140.65L314.95 140.8L314.95 139.65L319.45 136.4L319.45 136.35L326.3 131.5L327.95 131.9L327.95 131L340.5 122.05L354.75 125.6L354.7 130.15L342.2 139.1L338.4 138.15L338.4 140.95L338.9 141.1L338.9 145.65L321.4 158.1L309.35 159.35L308.15 159.1L307.95 159L303 157.8L297 158.45L271.5 152.1L271.25 152L255.85 148.2L255.6 148.1L247.65 146.15L247.65 145.4Q247.45 144.45 246.2 143.6Q243.25 141.7 240.8 140.6L235.65 138.7L226.35 136.3L226.3 136.35L225 136.1L224.95 136.1L223.9 135.9L223.3 135.85L218.5 135.1L218.45 135.1L211.2 133.3L210.7 131.3L210.7 126.75L218.7 121.05L222.55 122.05L230.05 116.75L239.95 119.2L239.95 120.3L241.8 120.8L241.8 121.4L265.75 127.4L266.45 126.9L271.2 128.05L268.05 125.7L268.6 117.15L301 94.05L309.1 91.95L319.05 91.9L341.1 97.5L345.8 101.25L345.5 109.6M339.55,104.8L338.75 104.35L338.7 104.3L337.9 103.95L337.8 103.95L337.6 103.85L337.4 103.8L337.35 103.8L337.35 103.75L319.35 99.3L319.3 99.25L317.45 98.95L317.35 98.95L317.2 98.9L317 98.9L316.65 98.85L314 98.75L313.55 98.8L312.9 98.8L312.2 98.9L311.85 98.9L309.85 99.2L307.65 99.85L305.8 100.8L277.05 121.3L277 121.35L276.9 121.4L276.85 121.45L276.65 121.55L276.55 121.65L276.05 122L276 122.05L275.75 122.25L276.5 122.75L277.25 123.1L277.5 123.15L279 123.7L279.9 123.9L279.95 123.95L296.45 128L296.55 128.05L298.05 128.3L298.1 128.3L298.9 128.4L299.05 128.4L299.6 128.45L299.8 128.45L300.25 128.5L301 128.5L301.55 128.5L302.7 128.5L303.05 128.45L303.25 128.45L303.7 128.4L303.8 128.4L304.75 128.25L304.9 128.25L308.45 127.3L309.7 126.6L338.45 106.05L338.95 105.75L339.15 105.55L339.25 105.5L339.8 105.1L339.9 105L339.6 104.85L339.55 104.8M341.55,102.65L341.5 107.7L344.9 105.3L341.5 102.6L341.55 102.65M329.85,137.05L326.35 136.15L324.5 137.5L329.85 138.8L329.85 137.05M325.45,146.75L315.1 154.1L321.3 153.45L329.35 147.75L325.45 146.75M341.9,144.6L341.7 144.55L341.7 144.45L341.75 144.45L341.75 142.95L347.65 138.8L350.65 138.8L350.5 141.1L344.25 145.3L342.85 144.9L341.9 144.6M342.15,134.4L349.7 129L340.55 126.75L333 132.1L342.15 134.4M356.2,146.7L357.45 145.8L354.9 146.1L354.6 146.3L356.2 146.7M360.9,150.1L377.65 154.3L379.4 153L366.75 149.85L365.25 150.95L360.9 149.85L360.9 150.1M352,167.55L366.45 157.25L363.5 156.5L349.05 166.85L352 167.55M359.45,169.4L373.95 159.1L371.35 158.45L356.9 168.8L359.45 169.4M353.65,156.6L341.85 165.05L344.15 165.6L355.95 157.2L353.65 156.6M333.5,160.85L339.15 162.25L345.55 157.7L337.9 155.8L332.7 159.55L333.5 160.85M328.35,169.65L331.55 169.45L398.95 186.2L402.4 183.75L414.4 182.45L422.75 184.5L426.65 184.1L468.05 194.4L469.35 196.4L474.55 197.65L479 197.1L482.8 197.95L485.9 202.85L485.85 207.4L483.25 209.25L479.35 209.7L446.4 233.2L446.4 235.65L444.15 237.3L433 238.5L429.45 237.6L428 235.55L359.9 218.6L359.9 214.05L377.25 201.7L374 200.9L370.15 203.65L336.8 195.3L336.85 190.8L336.9 190.75L337.35 190.45L331.5 188.95L327.55 191.8L321.55 190.3L320.4 191.1L308.85 188.2L308.65 188.2L300.2 186.05L295 189.8L289.15 188.35L277.6 196.6L261.65 192.65L261.65 192.55L245.55 188.55L245.55 188.45L245.5 188.45L234.3 185.75L233.25 186.5L221.7 183.65L221.75 179.1L233.1 171L220.45 167.85L218.6 169.15L210.05 167.05L210.1 167L203.25 165.3L203.25 163.6L187.4 174.9L136.85 162.3L136.9 157.8L165.8 137L182.45 135L186.7 136L197.9 138.85L201.4 138.45L206.6 139.75L212.2 139.15L292.9 159.25L293.15 160.9L298.3 162.2L298.3 162.45L300.75 166.35L313 169.4L323.6 168.55L328.2 169.7L328.35 169.65M342,176.7L341 176.45L339 177.85L340 178.1L342 176.7M336.95,182L333.2 184.7L336.8 185.6L347.4 178.05L346.9 177.9L340.05 182.8L336.95 182M328.4,174.25L313.75 184.75L320.35 186.4L321.5 185.6L327.5 187.1L329.4 185.75L329.45 182.7L333.95 179.45L333.95 176.7L336.05 175.2L331.5 174.05L328.4 174.25M342.15,186.95L352.75 179.35L352.3 179.25L341.75 186.85L342.15 186.95M403.2,151.75L404.9 152.2L404.9 150.55L403.2 151.75M375.5,185.05L359.7 196.35L370 198.9L370 195.35L382.15 186.7L375.5 185.05M378.8,197.45L385.65 192.55L388.95 193.35L394.1 189.7L387.05 187.9L375.05 196.5L378.8 197.45M401.25,174.25L409.2 173.55L421.8 176.7L425.85 176.25L440.6 165.7L437.15 164.9L435.85 165.8L411.15 159.65L387.65 176.45L401.25 174.25M382.7,175.2L407.5 157.55L389.2 152.95L364.4 170.65L382.7 175.2M455.25,132.4L466.35 135.15L466.3 139.7L450.95 150.6L439.9 147.85L439.95 145.2L436.25 147.8L435.4 147.6L434.2 148.4L427.85 146.8L425.05 143.5L425.05 138.95L425.15 138.95L429.75 137.75L432.6 136.65L432.65 136.65L433.2 135.85L431.05 134.2L431.05 129.25L437.3 126.4L450.45 129.55L450.45 130.65L450.9 130.75L451.9 132.25L451.9 134.8L455.25 132.4M455.35,137.05L445 144.45L450.9 145.95L461.3 138.55L455.35 137.05M429.45,142.5L429.35 142.5L434.15 143.7L435.35 142.9L436.2 143.15L437.15 142.45L432.6 141.3L429.9 142.35L429.5 142.45L429.45 142.5M417.8,149.25L412.05 147.8L410.1 149.2L415.85 150.6L417.8 149.25M414.3,187.05L402.5 188.4L364.95 215.2L428.2 230.95L429.65 233L433.1 233.8L444.05 232.7L445.1 231.9L445.15 229.45L479.25 205.05L483.15 204.65L483.65 204.3L482.55 202.55L478.9 201.75L474.45 202.3L469.15 201L467.85 199L426.55 188.7L422.7 189.15L414.3 187.05M453.65,171.9L448.45 170.6L435.3 179.95L451.4 183.95L467.5 172.5L463.1 171.4L458.1 174.95L454.35 174.05L454.35 173.95L454.3 173.95L454.3 172.95L453.7 172.8L453.7 172.75L453.65 172.75L453.65 171.9M461.75,187.15L487.5 168.75L483.95 167.85L474.85 174.3L472.4 173.7L455.65 185.65L461.75 187.15M251.15,96.45L228.15 112.85L227.85 113.45L202.05 131.9L198.25 132.3L173.7 126.2L163.8 133.25L68.45 109.6L68.45 105.1L129.2 61.75L157.05 68.7L157 73.25L151.9 76.85L177.85 83.35L181.35 80.85L181.55 80.9L181.7 80.9L181.7 80.8L187.9 76.15L251.2 91.9L251.15 96.45M301.15,98.65L268.95 121.6L273.1 124.7L274.25 125L274.1 124.2L274.1 119.5L274.15 119.4L274.15 119.2L274.2 119.2L274.2 119.1L274.25 119.05L274.25 119L274.3 118.9L274.3 118.85L274.35 118.85L274.45 118.65L274.5 118.6L274.65 118.4L274.75 118.35L275.2 117.95L275.2 117.9L275.25 117.85L275.8 117.45L275.9 117.4L276.4 117.05L276.4 117L276.7 116.85L276.75 116.8L276.85 116.75L302.8 98.2L301.15 98.65M177.9,88L146.85 80.25L146.9 75.75L151.95 72.1L129.25 66.45L73.5 106.2L163.75 128.6L213.15 93.3L181.55 85.4L177.9 88M186.35,81.95L218.2 89.9L218.2 94.45L178.55 122.7L198.3 127.65L201.95 127.25L227.65 108.9L227.95 108.3L246.15 95.3L188 80.8L186.35 81.95M230.1,121.45L222.6 126.75L218.75 125.75L213.8 129.25L218.55 130.45L218.65 130.45L218.7 130.5L218.95 130.5L224.05 131.3L224.2 131.3L225.5 131.55L225.7 131.55L225.85 131.6L226.15 131.65L237.8 123.35L230.1 121.45M206.55,144.35L199.4 149.5L204.65 150.8L213.9 144.2L212.15 143.75L206.55 144.35M240.9,135.95L251.25 128.45L248.5 127.75L238.45 134.95L240.9 135.95M231.4,132.8L231.65 132.85L231.75 132.9L233.9 133.45L243.6 126.55L240.9 125.85L231.25 132.75L231.4 132.8M226.2,147.3L215.7 154.8L215.65 156.65L208.3 161.9L210.2 162.35L230 148.25L226.2 147.3M185.55,140.4L182.6 139.7L182.5 139.65L182.45 139.65L165.9 141.65L141.9 158.9L163.35 164.25L174.7 156.15L198.7 162.15L207.15 156.1L194.35 152.9L194.4 148.35L201.65 143.15L201.35 143.1L197.85 143.45L197.8 143.45L197.25 143.35L185.7 140.45L185.55 140.4M193.85,165.6L174.75 160.85L168.3 165.5L187.35 170.25L193.85 165.6M237.9,167.5L246.9 161.1L244.05 160.35L244.1 155.85L248.35 152.8L243.25 151.55L225.3 164.35L237.9 167.5M234.85,149.5L215.15 163.65L218.5 164.45L238.35 150.3L234.9 149.45L234.85 149.5M233.15,181.85L267.25 157.5L260.8 155.9L226.75 180.25L233.15 181.85M283.5,135.8L268.45 146.65L271.4 147.4L286.6 136.55L283.5 135.8M312.05,142.9L308.8 142.1L293.65 152.95L297.05 153.8L298 153.7L312.05 143.55L312.05 142.9M315.7,145.65L304.7 153.55L308.1 154.4L319.15 146.5L315.7 145.65M291.5,137.8L276.3 148.6L288.75 151.7L303.9 140.9L291.5 137.8M246.45,139L246.95 139.45L247.1 139.55L247.35 139.85L247.4 139.9L247.45 139.9L247.45 139.95L247.6 140.1L247.7 140.25L247.75 140.3L247.75 140.4L247.8 140.5L247.85 140.55L247.9 140.65L247.9 140.75L247.95 140.9L247.95 140.95L248 141.05L248 141.55L255.75 143.5L270.95 132.65L266.55 131.55L265.8 132.05L256.15 129.65L244.7 137.9L246.15 138.85L246.45 139M275.85,133.9L260.7 144.7L263.6 145.45L278.65 134.6L275.85 133.9M272.2,158.75L239.2 182.3L245.5 183.85L278.5 160.3L272.2 158.75M253.25,154.05L249.15 156.95L251.75 157.6L255.85 154.7L253.25 154.05M261.9,187.95L293.2 165.6L292.9 165.5L292.65 163.85L283.4 161.55L250.5 185.1L261.9 187.95M277.55,191.95L285.65 186.1L283.85 185.65L275.7 191.45L277.55 191.95M270.8,190.25L283.75 181L284 181L285.55 181.4L300.25 170.95L300.4 170.8L297.95 166.95L266.7 189.25L270.8 190.25M294.95,185.1L311.1 173.55L305.2 172.1L289.1 183.65L294.95 185.1M308.75,183.55L323.35 173.2L317.6 173.65L305.1 182.6L308.75 183.55" />
</g>
</svg>
