<?xml version="1.0" encoding="utf-8"?>
<svg version="1.1" id="Layer_1"
xmlns="http://www.w3.org/2000/svg"
xmlns:xlink="http://www.w3.org/1999/xlink"
xmlns:author="http://www.sothink.com"
width="412px" height="263px"
xml:space="preserve">
<g id="12" transform="matrix(1, 0, 0, 1, -166.6, -24.25)">
<path style="fill:#373535;fill-opacity:0.2" d="M397.4,128.5L394.3 130.65L402.4 132.65L402.35 136L414.2 138.95L414.15 143.5L385.55 163.9L435.75 176.4L435.8 174.2L460.8 156.3L494.2 164.65L494.15 166.9L506.85 157.85L476.05 150.2L476.05 145.65L494.95 132.2L499.45 133.3L499.5 128.85L504.1 125.55L489.9 122.05L489.9 117.5L498.75 111.2L477.05 105.8L430.7 138.85L397.4 130.55L397.4 128.5M382.5,123.55L475.45 57.25L491.55 61.25L485.85 65.35Q484.8 66.2 486.85 66.75L495.25 68.75Q573.9 88.4 574.85 113.75Q575.15 121.85 567.25 129.65Q563.2 133.7 558.15 136.65L348.4 286.3L332.3 282.3L355.2 265.95Q356.45 265 354.25 264.45L350 263.4L359.4 256.7L363.65 257.75Q365.85 258.3 367.2 257.35L428.65 213.5L409.9 208.8L409.95 204.3L420.45 196.8L441.6 202.05L441.6 204.3L446.85 200.55L428.05 195.85L428.1 191.35L436.2 185.55L373.5 169.9L367.95 173.9L386.6 178.55L386.6 183.05L365.75 197.95L344.55 192.65L344.55 191.9L343.15 191.6L338.4 195L338.4 197.55L320.05 210.65L344.75 216.8L344.7 221.35L323.15 236.75L323.15 236.7L323.1 236.7L303.75 250.5L241.05 234.9L241.05 232.45L237.8 231.6L235.25 233.45L169.6 217.05L169.65 212.55L233.6 166.9L268.4 175.6L270.45 174.1L261.6 171.9L261.65 167.35L276 157.15L269.9 155.6L269.9 151.05L277.15 145.9L172.35 119.75L181.7 113.1L186 114.15Q188.2 114.75 189.5 113.75L205.65 102.25Q206.45 101.6 206.1 100.45L205.6 99.4L204.5 97.65L222.5 95.75L224.05 98.2Q224.95 99.55 229 100.55L245.45 104.65Q247.6 105.1 248.9 104.25L266.45 91.7L282.6 95.7L279.9 97.65Q278.8 98.5 280.8 99.05L379.5 123.65L382.5 123.55M539.8,134.35L539.35 134.25L539.35 134.65L539.8 134.35M224.65,252.75Q222.6 249.5 226.65 246.6Q230.7 243.75 238.5 242.95Q246.25 242.15 253.2 243.85Q260.15 245.6 262.25 248.85Q264.3 252.1 260.25 255Q256.2 257.9 248.4 258.7Q240.65 259.5 233.7 257.75Q226.75 256.05 224.65 252.75M530.35,141.1L528.25 140.55L528.25 142.6L530.35 141.1" />
<linearGradient
id="LinearGradID_1" gradientUnits="userSpaceOnUse" gradientTransform="matrix(0.251007, 0, 0, 0.143463, 372.2, 141.75)" spreadMethod ="pad" x1="-819.2" y1="0" x2="819.2" y2="0" >
<stop  offset="0" style="stop-color:#2F94C8;stop-opacity:1" />
<stop  offset="0.317647" style="stop-color:#5C4995;stop-opacity:1" />
<stop  offset="0.678431" style="stop-color:#E870A6;stop-opacity:1" />
<stop  offset="1" style="stop-color:#E86E26;stop-opacity:1" />
</linearGradient>
<path style="fill:none;stroke-width:6;stroke-linecap:butt;stroke-linejoin:round;stroke-miterlimit:3;stroke:url(#LinearGradID_1) " d="M486.85,36.75Q484.8 36.2 485.85 35.35L491.55 31.25L475.45 27.25L382.5 93.55L379.5 93.65L280.8 69.05Q278.8 68.5 279.9 67.65L282.6 65.7L266.45 61.7L248.9 74.25Q247.6 75.1 245.45 74.65L229 70.55Q224.95 69.55 224.05 68.2L222.5 65.75L204.5 67.65L205.6 69.4L206.1 70.45Q206.45 71.6 205.65 72.25L189.5 83.75Q188.2 84.75 186 84.15L181.7 83.1L172.35 89.75L277.15 115.9L269.9 121.05L269.9 125.6L276 127.15L261.65 137.35L261.6 141.9L270.45 144.1L268.4 145.6L233.6 136.9L169.65 182.55L169.6 187.05L235.25 203.45L237.8 201.6L241.05 202.45L241.05 204.9L303.75 220.5L323.1 206.7L323.15 206.7L323.15 206.75L344.7 191.35L344.75 186.8L320.05 180.65L338.4 167.55L338.4 165L343.15 161.6L344.55 161.9L344.55 162.65L365.75 167.95L386.6 153.05L386.6 148.55L367.95 143.9L373.5 139.9L436.2 155.55L428.1 161.35L428.05 165.85L446.85 170.55L441.6 174.3L441.6 172.05L420.45 166.8L409.95 174.3L409.9 178.8L428.65 183.5L367.2 227.35Q365.85 228.3 363.65 227.75L359.4 226.7L350 233.4L354.25 234.45Q356.45 235 355.2 235.95L332.3 252.3L348.4 256.3L558.15 106.65Q563.2 103.7 567.25 99.65Q575.15 91.85 574.85 83.75Q573.9 58.4 495.25 38.75L486.85 36.75M499.5,98.85L499.45 103.3L494.95 102.2L476.05 115.65L476.05 120.2L506.85 127.85L494.15 136.9L494.2 134.65L460.8 126.3L435.8 144.2L435.75 146.4L385.55 133.9L414.15 113.5L414.2 108.95L402.35 106L402.4 102.65L394.3 100.65L397.4 98.5L397.4 100.55L430.7 108.85L477.05 75.8L498.75 81.2L489.9 87.5L489.9 92.05L504.1 95.55L499.5 98.85M544.9,97.95L544.7 98.1M555.6,83.55L555.55 83.8L555.6 83.5L555.6 83.55M554.4,85.9L554.25 86.25M555.1,83.45L555.05 83.8M549.65,93.35L549.9 93.1M553.75,87.4L553.9 87.15L553.85 87.15L553.75 87.4M553.2,88.45L552.9 88.95M546.95,96.15L546.65 96.4L546.95 96.1L546.95 96.15M539.35,104.65L539.35 104.25L539.8 104.35L539.35 104.65M530.35,111.1L528.25 112.6L528.25 110.55L530.35 111.1M433.45,162.45L433.45 162.4L435.7 163L449.1 166.3M269.55,169.55L269.05 169.6M260.9,171.65L260.9 171.7L261.6 171.35L260.9 171.65M303.65,160.55L310.15 162.2M253.2,213.85Q246.25 212.15 238.5 212.95Q230.7 213.75 226.65 216.6Q222.6 219.5 224.65 222.75Q226.75 226.05 233.7 227.75Q240.65 229.5 248.4 228.7Q256.2 227.9 260.25 225Q264.3 222.1 262.25 218.85Q260.15 215.6 253.2 213.85" />
<linearGradient
id="LinearGradID_2" gradientUnits="userSpaceOnUse" gradientTransform="matrix(0.251007, 0, 0, 0.143463, 372.2, 141.75)" spreadMethod ="pad" x1="-819.2" y1="0" x2="819.2" y2="0" >
<stop  offset="0" style="stop-color:#2F94C8;stop-opacity:1" />
<stop  offset="0.317647" style="stop-color:#5C4995;stop-opacity:1" />
<stop  offset="0.678431" style="stop-color:#E870A6;stop-opacity:1" />
<stop  offset="1" style="stop-color:#E86E26;stop-opacity:1" />
</linearGradient>
<path style="fill:none;stroke-width:6;stroke-linecap:round;stroke-linejoin:round;stroke-miterlimit:3;stroke:url(#LinearGradID_2) " d="M449.1,166.3L454.4 162.55" />
<linearGradient
id="LinearGradID_3" gradientUnits="userSpaceOnUse" gradientTransform="matrix(0.251007, 0, 0, 0.143463, 372.2, 141.75)" spreadMethod ="pad" x1="-819.2" y1="0" x2="819.2" y2="0" >
<stop  offset="0" style="stop-color:#2F94C8;stop-opacity:1" />
<stop  offset="0.317647" style="stop-color:#5C4995;stop-opacity:1" />
<stop  offset="0.678431" style="stop-color:#E870A6;stop-opacity:1" />
<stop  offset="1" style="stop-color:#E86E26;stop-opacity:1" />
</linearGradient>
<path style="fill:none;stroke-width:6;stroke-linecap:round;stroke-linejoin:round;stroke-miterlimit:3;stroke:url(#LinearGradID_3) " d="M435.7,163L433.45 162.45" />
<path style="fill:#E7E8E9;fill-opacity:1" d="M382.5,93.55L475.45 27.25L491.55 31.25L485.85 35.35Q484.8 36.2 486.85 36.75L495.25 38.75Q573.9 58.4 574.85 83.75Q575.15 91.85 567.25 99.65Q563.2 103.7 558.15 106.65L348.4 256.3L332.3 252.3L355.2 235.95Q356.45 235 354.25 234.45L350 233.4L359.4 226.7L363.65 227.75Q365.85 228.3 367.2 227.35L459.65 161.4L373.5 139.9L344.9 160.35L365.75 165.55L364 166.75L343.15 161.6L337.95 165.3L265.95 147.35L301.5 121.95L172.35 89.75L181.7 83.1L186 84.15Q188.2 84.75 189.5 83.75L205.65 72.25Q206.45 71.6 206.1 70.45L205.6 69.4L204.5 67.65L222.5 65.75L224.05 68.2Q224.95 69.55 229 70.55L245.45 74.65Q247.6 75.1 248.9 74.25L266.45 61.7L282.6 65.7L279.9 67.65Q278.8 68.5 280.8 69.05L379.5 93.65L382.5 93.55M388.2,104.85L269.3 75.2L238.45 97.2L469.15 154.75L542.15 102.7Q569.5 82.2 541.6 64.65Q524.85 54.15 486.2 44.45L476.5 42.1L388.2 104.85M262.25,218.85Q264.3 222.1 260.25 225Q256.2 227.9 248.4 228.7Q240.65 229.5 233.7 227.75Q226.75 226.05 224.65 222.75Q222.6 219.5 226.65 216.6Q230.7 213.75 238.5 212.95Q246.25 212.15 253.2 213.85Q260.15 215.6 262.25 218.85" />
<path style="fill:#AAACAE;fill-opacity:1" d="M343.75,123.55L351 118.35L325.15 111.9L328.7 109.4L289.25 99.6L285.8 102.05L245.65 92.05L252.5 87.2L357.9 113.45L366.4 107.4L357.95 105.25L366.3 99.3L380.95 102.95L349.95 125.1L343.75 123.55M471.05,55.95L448.45 72.1L438.15 69.5L460.75 53.4L471.05 55.95M285.65,171L318.5 179.15L314.85 181.75L282.05 173.55L281.8 173.75Q284.9 175.1 285.45 177Q286.05 178.95 283.7 180.6Q281.4 182.25 277.15 182.95L268.55 183.2L241.45 202.55L235.25 201L262.3 181.7Q258.95 180.3 258.25 178.35Q257.55 176.35 259.95 174.65Q262.4 172.95 266.8 172.25Q271.2 171.55 275.7 172.15L299 155.5L305.15 157.05L285.65 171" />
</g>
</svg>
