<?xml version="1.0" encoding="utf-8"?>
<svg version="1.1" id="Layer_1"
xmlns="http://www.w3.org/2000/svg"
xmlns:xlink="http://www.w3.org/1999/xlink"
xmlns:author="http://www.sothink.com"
width="386px" height="177px"
xml:space="preserve">
<g id="14" transform="matrix(1, 0, 0, 1, -170.05, -39.8)">
<path style="fill:none;stroke-width:0.5;stroke-linecap:butt;stroke-linejoin:round;stroke-miterlimit:3;stroke:#B5B5B5;stroke-opacity:1" d="M476.55,40.05L486.6 42.55L477.75 48.85L467.75 46.35L476.55 40.05z" />
<path style="fill:none;stroke-width:0.5;stroke-linecap:butt;stroke-linejoin:round;stroke-miterlimit:3;stroke:#B5B5B5;stroke-opacity:1" d="M495.7,44.9L486.7 51.4" />
<path style="fill:none;stroke-width:0.5;stroke-linecap:round;stroke-linejoin:round;stroke-miterlimit:3;stroke:#B5B5B5;stroke-opacity:1" d="M477.95,49.15L487 42.65L495.7 44.9M477.95,49.15L486.7 51.4" />
<path style="fill:none;stroke-width:0.5;stroke-linecap:butt;stroke-linejoin:round;stroke-miterlimit:3;stroke:#B5B5B5;stroke-opacity:1" d="M486.7,51.4L480.25 56L460.95 51.15L467.5 46.5L476.35 48.75" />
<path style="fill:none;stroke-width:0.5;stroke-linecap:round;stroke-linejoin:round;stroke-miterlimit:3;stroke:#B5B5B5;stroke-opacity:1" d="M476.35,48.75L477.95 49.15" />
<path style="fill:none;stroke-width:0.5;stroke-linecap:butt;stroke-linejoin:round;stroke-miterlimit:3;stroke:#B5B5B5;stroke-opacity:1" d="M455.6,86.25L423.15 78.15L444.2 63.15L476.65 71.25L455.6 86.25z" />
<path style="fill:none;stroke-width:0.5;stroke-linecap:butt;stroke-linejoin:round;stroke-miterlimit:3;stroke:#B5B5B5;stroke-opacity:1" d="M277.65,75.25L261.15 87L253 85L269.5 73.2L277.65 75.25z" />
<path style="fill:none;stroke-width:0.5;stroke-linecap:butt;stroke-linejoin:round;stroke-miterlimit:3;stroke:#B5B5B5;stroke-opacity:1" d="M317.15,85.05L311.3 89.25L289.5 83.8L295.35 79.65L317.15 85.05z" />
<path style="fill:none;stroke-width:0.5;stroke-linecap:butt;stroke-linejoin:round;stroke-miterlimit:3;stroke:#B5B5B5;stroke-opacity:1" d="M261.6,87.15L278.15 75.35L286.3 77.4L269.75 89.15L261.6 87.15z" />
<path style="fill:none;stroke-width:0.5;stroke-linecap:butt;stroke-linejoin:round;stroke-miterlimit:3;stroke:#B5B5B5;stroke-opacity:1" d="M422.9,78.35L455.35 86.45L449.45 90.65L417 82.55L422.9 78.35z" />
<path style="fill:none;stroke-width:0.5;stroke-linecap:butt;stroke-linejoin:round;stroke-miterlimit:3;stroke:#B5B5B5;stroke-opacity:1" d="M294.9,79.55L278.4 91.3L270.25 89.3L286.75 77.5L294.9 79.55z" />
<path style="fill:none;stroke-width:0.5;stroke-linecap:butt;stroke-linejoin:round;stroke-miterlimit:3;stroke:#B5B5B5;stroke-opacity:1" d="M420.5,89.7L414.4 94.05L404.4 91.55L410.5 87.2L420.5 89.7z" />
<path style="fill:none;stroke-width:0.5;stroke-linecap:butt;stroke-linejoin:round;stroke-miterlimit:3;stroke:#B5B5B5;stroke-opacity:1" d="M410.75,87.05L416.75 82.75L449.2 90.85L443.2 95.15L410.75 87.05z" />
<path style="fill:none;stroke-width:0.5;stroke-linecap:butt;stroke-linejoin:round;stroke-miterlimit:3;stroke:#B5B5B5;stroke-opacity:1" d="M334.15,94.95L311.75 89.35L317.55 85.2L340 90.75L334.15 94.95z" />
<path style="fill:none;stroke-width:0.5;stroke-linecap:butt;stroke-linejoin:round;stroke-miterlimit:3;stroke:#B5B5B5;stroke-opacity:1" d="M293.05,95L278.8 91.45L289.25 84L303.45 87.55L293.05 95z" />
<path style="fill:none;stroke-width:0.5;stroke-linecap:butt;stroke-linejoin:round;stroke-miterlimit:3;stroke:#B5B5B5;stroke-opacity:1" d="M404.15,91.75L414.15 94.25L408.15 98.55L398.15 96.05L404.15 91.75z" />
<path style="fill:none;stroke-width:0.5;stroke-linecap:butt;stroke-linejoin:round;stroke-miterlimit:3;stroke:#B5B5B5;stroke-opacity:1" d="M480.4,56.3L496.1 45Q526.9 53.3 541.7 62.7Q555.3 71.35 555.4 80.8Q555.45 90.25 542 100.35L490.6 87.55L504.15 77.85L444.45 63L460.75 51.35L480.4 56.3z" />
<path style="fill:none;stroke-width:0.5;stroke-linecap:butt;stroke-linejoin:round;stroke-miterlimit:3;stroke:#B5B5B5;stroke-opacity:1" d="M318.15,91.2L307.7 98.65L293.45 95.1L303.9 87.65L318.15 91.2z" />
<path style="fill:none;stroke-width:0.5;stroke-linecap:butt;stroke-linejoin:round;stroke-miterlimit:3;stroke:#B5B5B5;stroke-opacity:1" d="M318.6,91.3L333.9 95.1L323.45 102.55L308.15 98.75L318.6 91.3z" />
<path style="fill:none;stroke-width:0.5;stroke-linecap:round;stroke-linejoin:round;stroke-miterlimit:3;stroke:#B5B5B5;stroke-opacity:1" d="M420.95,89.85L442.95 95.3L436.7 99.8" />
<path style="fill:none;stroke-width:0.5;stroke-linecap:round;stroke-linejoin:round;stroke-miterlimit:3;stroke:#B5B5B5;stroke-opacity:1" d="M436.7,99.8L430.55 104.15L408.6 98.65L414.75 94.3M436.7,99.8L414.75 94.3" />
<path style="fill:none;stroke-width:0.5;stroke-linecap:butt;stroke-linejoin:round;stroke-miterlimit:3;stroke:#B5B5B5;stroke-opacity:1" d="M414.75,94.3L420.95 89.85" />
<path style="fill:none;stroke-width:0.5;stroke-linecap:butt;stroke-linejoin:round;stroke-miterlimit:3;stroke:#B5B5B5;stroke-opacity:1" d="M401.7,102.85L398.5 105.1L388.8 102.7L392 100.4L401.7 102.85z" />
<path style="fill:none;stroke-width:0.5;stroke-linecap:butt;stroke-linejoin:round;stroke-miterlimit:3;stroke:#B5B5B5;stroke-opacity:1" d="M348.6,92.9L332.1 104.7L323.9 102.65L340.45 90.9L348.6 92.9z" />
<path style="fill:none;stroke-width:0.5;stroke-linecap:butt;stroke-linejoin:round;stroke-miterlimit:3;stroke:#B5B5B5;stroke-opacity:1" d="M285.45,99.95L278.45 104.95L238.85 95.1L245.85 90.05L285.45 99.95z" />
<path style="fill:none;stroke-width:0.5;stroke-linecap:butt;stroke-linejoin:round;stroke-miterlimit:3;stroke:#B5B5B5;stroke-opacity:1" d="M506.2,94.6L538.7 102.7L532.7 106.95L500.2 98.85L506.2 94.6z" />
<path style="fill:none;stroke-width:0.5;stroke-linecap:butt;stroke-linejoin:round;stroke-miterlimit:3;stroke:#B5B5B5;stroke-opacity:1" d="M357.25,95.05L340.7 106.85L332.55 104.85L349.05 93.05L357.25 95.05z" />
<path style="fill:none;stroke-width:0.5;stroke-linecap:butt;stroke-linejoin:round;stroke-miterlimit:3;stroke:#B5B5B5;stroke-opacity:1" d="M298.8,99.9L288.35 107.35L278.95 105L289.4 97.55L298.8 99.9z" />
<path style="fill:none;stroke-width:0.5;stroke-linecap:butt;stroke-linejoin:round;stroke-miterlimit:3;stroke:#B5B5B5;stroke-opacity:1" d="M357.65,95.2L365.9 97.25L349.4 109L341.15 107L357.65 95.2z" />
<path style="fill:none;stroke-width:0.5;stroke-linecap:butt;stroke-linejoin:round;stroke-miterlimit:3;stroke:#B5B5B5;stroke-opacity:1" d="M308.6,102.35L298.2 109.8L288.8 107.45L299.2 100L308.6 102.35z" />
<path style="fill:none;stroke-width:0.5;stroke-linecap:butt;stroke-linejoin:round;stroke-miterlimit:3;stroke:#B5B5B5;stroke-opacity:1" d="M358,103.3L366.05 105.3L357.8 111.2L349.75 109.15L358 103.3z" />
<path style="fill:none;stroke-width:0.5;stroke-linecap:butt;stroke-linejoin:round;stroke-miterlimit:3;stroke:#B5B5B5;stroke-opacity:1" d="M318.45,104.8L308 112.25L298.6 109.9L309.05 102.45L318.45 104.8z" />
<path style="fill:none;stroke-width:0.5;stroke-linecap:butt;stroke-linejoin:round;stroke-miterlimit:3;stroke:#B5B5B5;stroke-opacity:1" d="M495.1,102.6L527.55 110.65L521.55 114.95L489.1 106.85L495.1 102.6z" />
<path style="fill:none;stroke-width:0.5;stroke-linecap:butt;stroke-linejoin:round;stroke-miterlimit:3;stroke:#B5B5B5;stroke-opacity:1" d="M318.9,104.9L328.3 107.25L317.85 114.7L308.45 112.35L318.9 104.9z" />
<path style="fill:none;stroke-width:0.5;stroke-linecap:butt;stroke-linejoin:round;stroke-miterlimit:3;stroke:#B5B5B5;stroke-opacity:1" d="M333.4,111.9L326.5 116.85L318.35 114.85L325.25 109.9L333.4 111.9z" />
<path style="fill:none;stroke-width:0.5;stroke-linecap:butt;stroke-linejoin:round;stroke-miterlimit:3;stroke:#B5B5B5;stroke-opacity:1" d="M342.05,114.05L335.1 119L326.95 117L333.9 112.05L342.05 114.05z" />
<path style="fill:none;stroke-width:0.5;stroke-linecap:butt;stroke-linejoin:round;stroke-miterlimit:3;stroke:#B5B5B5;stroke-opacity:1" d="M350.65,116.2L343.75 121.15L335.6 119.15L342.5 114.2L350.65 116.2z" />
<path style="fill:none;stroke-width:0.5;stroke-linecap:butt;stroke-linejoin:round;stroke-miterlimit:3;stroke:#B5B5B5;stroke-opacity:1" d="M521.3,115.15L509.2 123.75L476.75 115.65L488.85 107.05L521.3 115.15z" />
<path style="fill:none;stroke-width:0.5;stroke-linecap:butt;stroke-linejoin:round;stroke-miterlimit:3;stroke:#B5B5B5;stroke-opacity:1" d="M279.8,114.5L290.25 117.1L281.05 123.7L270.6 121.1L279.8 114.5z" />
<path style="fill:none;stroke-width:0.5;stroke-linecap:butt;stroke-linejoin:round;stroke-miterlimit:3;stroke:#B5B5B5;stroke-opacity:1" d="M301.05,119.8L291.85 126.4L281.5 123.8L290.7 117.25L301.05 119.8z" />
<path style="fill:none;stroke-width:0.5;stroke-linecap:butt;stroke-linejoin:round;stroke-miterlimit:3;stroke:#B5B5B5;stroke-opacity:1" d="M381,101L413.5 109.1L383 130.9L350.5 122.8L381 101z" />
<path style="fill:none;stroke-width:0.5;stroke-linecap:butt;stroke-linejoin:round;stroke-miterlimit:3;stroke:#B5B5B5;stroke-opacity:1" d="M281.15,124L291.55 126.6L282.35 133.15L271.9 130.55L281.15 124z" />
<path style="fill:none;stroke-width:0.5;stroke-linecap:butt;stroke-linejoin:round;stroke-miterlimit:3;stroke:#B5B5B5;stroke-opacity:1" d="M282.1,133.35L272.8 140L262.35 137.4L271.7 130.75L282.1 133.35z" />
<path style="fill:none;stroke-width:0.5;stroke-linecap:butt;stroke-linejoin:round;stroke-miterlimit:3;stroke:#B5B5B5;stroke-opacity:1" d="M493.5,134.8L468.95 152.3L436.45 144.2L461 126.7L493.5 134.8z" />
<path style="fill:none;stroke-width:0.5;stroke-linecap:butt;stroke-linejoin:round;stroke-miterlimit:3;stroke:#B5B5B5;stroke-opacity:1" d="M385.95,148.7L375.9 155.85L355.6 150.75L365.6 143.65L385.95 148.7z" />
<path style="fill:none;stroke-width:0.5;stroke-linecap:butt;stroke-linejoin:round;stroke-miterlimit:3;stroke:#B5B5B5;stroke-opacity:1" d="M298.55,153.45L292.35 157.9L281.65 155.2L287.85 150.75L298.55 153.45z" />
<path style="fill:none;stroke-width:0.5;stroke-linecap:butt;stroke-linejoin:round;stroke-miterlimit:3;stroke:#B5B5B5;stroke-opacity:1" d="M285.85,162.5L275.15 159.85L281.4 155.4L292.05 158.05L285.85 162.5z" />
<path style="fill:none;stroke-width:0.5;stroke-linecap:butt;stroke-linejoin:round;stroke-miterlimit:3;stroke:#B5B5B5;stroke-opacity:1" d="M365.6,163.2L345.25 158.15L355.35 150.95L375.65 156L365.6 163.2z" />
<path style="fill:none;stroke-width:0.5;stroke-linecap:butt;stroke-linejoin:round;stroke-miterlimit:3;stroke:#B5B5B5;stroke-opacity:1" d="M309.5,162.35L306.5 164.5L295.8 161.8L298.75 159.7L309.5 162.35z" />
<path style="fill:none;stroke-width:0.5;stroke-linecap:butt;stroke-linejoin:round;stroke-miterlimit:3;stroke:#B5B5B5;stroke-opacity:1" d="M449.1,166.4L428.75 161.35L438.8 154.2L459.1 159.3L449.1 166.4z" />
<path style="fill:none;stroke-width:0.5;stroke-linecap:butt;stroke-linejoin:round;stroke-miterlimit:3;stroke:#B5B5B5;stroke-opacity:1" d="M306.25,164.65L303.25 166.8L292.55 164.1L295.55 162L306.25 164.65z" />
<path style="fill:none;stroke-width:0.5;stroke-linecap:butt;stroke-linejoin:round;stroke-miterlimit:3;stroke:#B5B5B5;stroke-opacity:1" d="M274.45,159.9L285.6 162.7L279.35 167.15L214.55 151L233.75 137.3L287.45 150.65L274.45 159.9z" />
<path style="fill:none;stroke-width:0.5;stroke-linecap:butt;stroke-linejoin:round;stroke-miterlimit:3;stroke:#B5B5B5;stroke-opacity:1" d="M310.15,162.3L298.95 159.5L305.15 155.05L337.7 163.2L325.05 172.2L303.7 166.9L310.15 162.3z" />
<path style="fill:none;stroke-width:0.5;stroke-linecap:butt;stroke-linejoin:round;stroke-miterlimit:3;stroke:#B5B5B5;stroke-opacity:1" d="M292.3,164.3L324.8 172.4L321.8 174.55L289.3 166.45L292.3 164.3z" />
<path style="fill:none;stroke-width:0.5;stroke-linecap:butt;stroke-linejoin:round;stroke-miterlimit:3;stroke:#B5B5B5;stroke-opacity:1" d="M321.55,174.75L318.5 176.9L286 168.8L289.05 166.65L321.55 174.75z" />
<path style="fill:none;stroke-width:0.5;stroke-linecap:butt;stroke-linejoin:round;stroke-miterlimit:3;stroke:#B5B5B5;stroke-opacity:1" d="M440.95,172.25L430.95 179.4L410.6 174.3L420.6 167.15L440.95 172.25z" />
<path style="fill:none;stroke-width:0.5;stroke-linecap:butt;stroke-linejoin:round;stroke-miterlimit:3;stroke:#B5B5B5;stroke-opacity:1" d="M259.9,181L195.15 164.85L214.3 151.2L279.05 167.35L275.6 169.85Q271 169.3 266.6 170Q262.2 170.75 259.8 172.45Q257.4 174.15 258 176.1Q258.65 178.1 262 179.5L259.9 181z" />
<path style="fill:none;stroke-width:0.5;stroke-linecap:butt;stroke-linejoin:round;stroke-miterlimit:3;stroke:#B5B5B5;stroke-opacity:1" d="M194.85,165.05L259.65 181.2L235.1 198.7L170.3 182.55L194.85 165.05z" />
<path style="fill:none;stroke-width:0.5;stroke-linecap:butt;stroke-linejoin:round;stroke-miterlimit:3;stroke:#B5B5B5;stroke-opacity:1" d="M285.8,174.9Q285.3 173 282.2 171.55L344.05 186.95Q333.55 194.5 323 202L261.15 186.55L268.75 181.15L277.45 180.85Q281.7 180.1 284 178.45Q286.3 176.85 285.8 174.9z" />
<path style="fill:none;stroke-width:0.5;stroke-linecap:butt;stroke-linejoin:round;stroke-miterlimit:3;stroke:#B5B5B5;stroke-opacity:1" d="M260.9,186.75L322.7 202.15L318.1 205.45L256.25 190.05L260.9 186.75z" />
<path style="fill:none;stroke-width:0.5;stroke-linecap:butt;stroke-linejoin:round;stroke-miterlimit:3;stroke:#B5B5B5;stroke-opacity:1" d="M276.9,204.65L272.25 208L241.75 200.4L246.45 197.05L276.9 204.65z" />
<path style="fill:none;stroke-width:0.5;stroke-linecap:butt;stroke-linejoin:round;stroke-miterlimit:3;stroke:#B5B5B5;stroke-opacity:1" d="M277.35,204.75L308.25 212.45L303.6 215.8L272.7 208.1L277.35 204.75z" />
<path style="fill:none;stroke-width:0.5;stroke-linecap:butt;stroke-linejoin:round;stroke-miterlimit:3;stroke:#B5B5B5;stroke-opacity:1" d="M256,190.25L317.85 205.65L313.3 208.85L251.5 193.45L256 190.25z" />
<path style="fill:none;stroke-width:0.5;stroke-linecap:butt;stroke-linejoin:round;stroke-miterlimit:3;stroke:#B5B5B5;stroke-opacity:1" d="M251.2,193.65L313 209.05L308.5 212.3L246.7 196.85L251.2 193.65z" />
<path style="fill:#B5B5B5;fill-opacity:1" d="M225.55,145.4L225.65 145.6L225.55 145.75L225.4 145.85L225.2 145.75L225.15 145.6L225.2 145.4L225.4 145.35L225.55 145.4M223.8,145L224 144.95L224.15 145L224.25 145.2L224.15 145.35L224 145.45L223.8 145.35L223.75 145.2L223.8 145M226.7,145.7L226.9 145.65L227.05 145.7L227.15 145.9L227.05 146.05L226.9 146.15L226.7 146.05L226.65 145.9L226.7 145.7M229.7,146.4L229.9 146.35L230.05 146.4L230.15 146.6L230.05 146.75L229.9 146.85L229.7 146.75L229.65 146.6L229.7 146.4M228.2,146.1L228.4 146.05L228.55 146.1L228.65 146.3L228.55 146.45L228.4 146.55L228.2 146.45L228.15 146.3L228.2 146.1M229.45,148.3L229.55 148.5L229.45 148.65L229.3 148.75L229.1 148.65L229.05 148.5L229.1 148.3L229.3 148.25L229.45 148.3M230.25,147.6L230.3 147.4L230.5 147.35L230.65 147.4L230.75 147.6L230.65 147.75L230.5 147.85L230.3 147.75L230.25 147.6M231.2,146.7L231.4 146.65L231.55 146.7L231.65 146.9L231.55 147.05L231.4 147.15L231.2 147.05L231.15 146.9L231.2 146.7M227.9,149.2L228.1 149.15L228.25 149.2L228.35 149.4L228.25 149.55L228.1 149.65L227.9 149.55L227.85 149.4L227.9 149.2M225.85,151L225.95 151.2L225.85 151.35L225.7 151.45L225.5 151.35L225.45 151.2L225.5 151L225.7 150.95L225.85 151M226.7,150.1L226.9 150.05L227.05 150.1L227.15 150.3L227.05 150.45L226.9 150.55L226.7 150.45L226.65 150.3L226.7 150.1M224.3,151.9L224.5 151.85L224.65 151.9L224.75 152.1L224.65 152.25L224.5 152.35L224.3 152.25L224.25 152.1L224.3 151.9M223.45,152.8L223.55 153L223.45 153.15L223.3 153.25L223.1 153.15L223.05 153L223.1 152.8L223.3 152.75L223.45 152.8" />
<path style="fill:#B5B5B5;fill-opacity:1" d="M227.1,143.6L227.3 143.55L227.45 143.6L227.55 143.8L227.45 143.95L227.3 144.05L227.1 143.95L227.05 143.8L227.1 143.6M225.6,143.3L225.8 143.25L225.95 143.3L226.05 143.5L225.95 143.65L225.8 143.75L225.6 143.65L225.55 143.5L225.6 143.3M230.55,144.6L230.45 144.75L230.3 144.85L230.1 144.75L230.05 144.6L230.1 144.4L230.3 144.35L230.45 144.4L230.55 144.6M231.55,145L231.6 144.8L231.8 144.75L231.95 144.8L232.05 145L231.95 145.15L231.8 145.25L231.6 145.15L231.55 145M228.6,144L228.8 143.95L228.95 144L229.05 144.2L228.95 144.35L228.8 144.45L228.6 144.35L228.55 144.2L228.6 144M240.3,140.4L240.35 140.2L240.55 140.15L240.7 140.2L240.8 140.4L240.7 140.55L240.55 140.65L240.35 140.55L240.3 140.4M238.4,142.2L238.3 142.35L238.15 142.45L237.95 142.35L237.9 142.2L237.95 142L238.15 141.95L238.3 142L238.4 142.2M239.15,141.1L239.35 141.05L239.5 141.1L239.6 141.3L239.5 141.45L239.35 141.55L239.15 141.45L239.1 141.3L239.15 141.1M241.9,139.3L242 139.5L241.9 139.65L241.75 139.75L241.55 139.65L241.5 139.5L241.55 139.3L241.75 139.25L241.9 139.3M236.75,142.9L236.95 142.85L237.1 142.9L237.2 143.1L237.1 143.25L236.95 143.35L236.75 143.25L236.7 143.1L236.75 142.9M235.75,143.75L235.9 143.8L236 144L235.9 144.15L235.75 144.25L235.55 144.15L235.5 144L235.55 143.8L235.75 143.75M233.05,145.2L233.25 145.15L233.4 145.2L233.5 145.4L233.4 145.55L233.25 145.65L233.05 145.55L233 145.4L233.05 145.2M234.7,144.7L234.8 144.9L234.7 145.05L234.55 145.15L234.35 145.05L234.3 144.9L234.35 144.7L234.55 144.65L234.7 144.7" />
</g>
</svg>
