<?xml version="1.0" encoding="utf-8"?>
<svg version="1.1" id="Layer_1"
xmlns="http://www.w3.org/2000/svg"
xmlns:xlink="http://www.w3.org/1999/xlink"
xmlns:author="http://www.sothink.com"
width="387px" height="181px"
xml:space="preserve">
<g id="13" transform="matrix(1, 0, 0, 1, -169.6, -39.7)">
<path style="fill:#97999B;fill-opacity:1" d="M496.35,44.7Q527.45 53.15 542.15 62.5Q556.3 71.5 555.85 81.4L555.9 80.9L555.85 85.9L555.8 86.2L555.7 87.45L555.1 89.9L553.45 93.45L551.8 95.9L551.55 96.2L551.55 96.25L548.95 99.25L545.3 102.6L545.15 102.7L542.3 105L539.35 104.25L539.35 107.05L532.85 111.7L528.25 110.55L528.2 115.05L509.35 128.5L476.05 120.2L476.05 115.65L494.95 102.2L499.45 103.3L499.5 98.85L504.1 95.55L489.9 92.05L489.9 87.5L498.75 81.2L477.05 75.8L430.7 108.85L397.4 100.55L397.45 96L410.05 87L410.3 86.85L476.35 39.7L496.3 44.7L496.35 44.7M487,47.1L477.9 53.55L467.45 50.95L465.65 52.25L480.25 55.9L491 48.15L487 47.1M504.1,82.3L495.3 88.6L542 100.25L546.95 96.15L550 92.95L550.9 91.85L552.3 89.95L552.9 88.95L553.7 87.55L555.05 83.8L555.15 83.15Q553.8 74.8 541.7 67.15L532 61.9L516.95 55.85L516.9 55.8L496.1 49.45L480.4 60.7L460.7 55.8L449.15 64.05L504.15 77.75L504.1 82.3M533.95,105.95L506.15 99L504.85 99.95L532.7 106.85L533.95 105.95M522.85,113.95L495.05 107L493.8 107.95L521.55 114.85L522.85 113.95M516.55,118.4L488.8 111.5L481.45 116.75L509.2 123.65L516.55 118.4M494.15,139.15L469.1 157.05L435.75 148.7L435.8 144.2L460.8 126.3L494.2 134.65L494.15 139.15M477.75,48.75L481.85 45.8L476.5 44.5L472.45 47.4L477.75 48.75M409.45,97.5L404.1 96.2L402.8 97.1L408.15 98.45L409.45 97.5M415.4,88.1L443.2 95.05L444.45 94.1L416.7 87.2L415.4 88.1M421.7,83.65L449.45 90.55L450.65 89.7L422.85 82.8L421.7 83.65M409.1,92.65L414.4 93.95L415.8 93L410.45 91.65L409.1 92.65M420.9,94.25L413.25 99.75L430.55 104.05L438.2 98.6L420.9 94.25M427.85,79.25L455.6 86.15L471.9 74.5L444.15 67.6L427.85 79.25M340.4,95.3L328.6 103.75L332.1 104.6L343.9 96.2L340.4 95.3M335.25,94.05L317.55 89.6L316.4 90.4L334.15 94.85L335.25 94.05M357.95,94.95L366.55 97.1L366.55 101.65L362.95 104.2L366.7 105.15L366.7 109.7L357.95 115.9L349 113.7L349 113.65L329 108.65L328.95 110.45L351.35 116.05L351.3 120.6L343.9 125.9L278.65 109.65L278.6 109.7L238.1 99.6L238.15 95.05L245.7 89.7L285.7 99.65L287.6 98.3L252.25 89.5L252.3 84.95L253.35 84.2L250.5 83.5L250.45 79.2L262.05 70.9L357.95 94.9L357.95 94.95M349.05,97.5L337.25 105.9L340.7 106.75L352.5 98.35L349.05 97.5M388.35,102.5L391.8 100L402.4 102.65L402.35 106L414.2 108.95L414.15 113.5L383.1 135.65L349.75 127.3L349.8 122.75L380.85 100.6L388.35 102.5M357.65,99.65L345.85 108.05L349.4 108.9L361.15 100.5L357.65 99.65M357.8,111.1L361.3 108.6L357.95 107.75L354.45 110.25L357.8 111.1M331.65,118.05L335.1 118.9L337.3 117.35L333.85 116.5L331.65 118.05M328.7,115.2L325.25 114.35L323.05 115.9L326.5 116.75L328.7 115.2M343.75,121.05L345.95 119.5L342.5 118.65L340.3 120.2L343.75 121.05M338.4,167.55L320.05 180.65L344.75 186.8L344.7 191.35L323.15 206.75L323.15 206.7L323.1 206.7L303.75 220.5L241.05 204.9L241.05 200.35L255.55 190L255.8 189.85L268.5 180.8Q272.95 181.3 277.15 180.6Q281.35 179.85 283.55 178.25L284.2 177.7Q283.3 176.8 281.65 176.05L281.7 171.55L282 171.15L285.3 171.95L285.3 168.75L304.95 154.65L338.4 163L338.4 167.55M333,166.45L305.15 159.5L303.65 160.55L310.15 162.2L310.15 166.75L308.4 167.95L325.05 172.1L333 166.45M349.95,159.2L365.6 163.1L370.95 159.3L355.3 155.4L349.95 159.2M344.55,158.1L365.4 143.25L386.6 148.55L386.6 153.05L365.75 167.95L344.55 162.65L344.55 158.1M381.2,151.95L365.55 148.05L360.3 151.85L375.9 155.75L381.2 151.95M355.15,123.85L383 130.8L408.8 112.4L381 105.45L355.15 123.85M428.1,161.35L438.6 153.85L459.8 159.1L459.75 163.65L449.25 171.15L428.05 165.85L428.1 161.35M433.45,162.45L449.1 166.3L454.4 162.55L438.75 158.65L433.45 162.45M409.95,174.3L420.45 166.8L441.6 172.05L441.6 176.6L431.1 184.1L409.9 178.8L409.95 174.3M436.2,175.5L420.6 171.6L415.3 175.4L430.95 179.3L436.2 175.5M468.95,152.2L488.75 138.05L460.95 131.15L441.15 145.3L468.95 152.2M261.15,86.9L272.95 78.5L269.5 77.65L257.7 86.05L261.15 86.9M243.5,96.15L278.45 104.85L280.75 103.2L245.85 94.5L243.5 96.15M278.1,79.8L266.3 88.2L269.75 89.05L281.55 80.65L278.1 79.8M294.2,84.9L311.3 89.15L312.4 88.35L295.3 84.1L294.2 84.9M298.75,90.8L289.2 88.45L283.5 92.5L293.05 94.9L298.75 90.8M303.85,92.1L298.15 96.15L307.7 98.55L313.4 94.45L303.85 92.1M169.65,182.55L233.6 136.9L299.25 153.25L299.2 157.8L292.5 162.6L292.45 162.6L275.8 174.5L275.6 174.5L274.3 174.35L266.95 174.6L266.85 174.6L263.35 175.45L263.15 175.55L262.15 175.9L261.9 176.05L261.2 176.35L259.75 177.3L259.55 177.5Q260.6 178.55 262.5 179.35L262.65 179.4L262.6 183.9L235.25 203.45L169.6 187.05L169.65 182.55M175,183.65L235.1 198.6L254.95 184.45L194.85 169.45L175 183.65M199.85,165.95L257.95 180.4L257.9 179.8L257.9 175.1L257.95 175L257.95 174.7L258 174.65L258 174.55L258.05 174.4L258.4 173.7L258.6 173.5L258.6 173.45L258.75 173.3L258.85 173.15L258.95 173.1L258.95 173.05L259.15 172.85L259.3 172.75L259.35 172.65L259.8 172.35L259.8 172.3L259.85 172.3L259.95 172.25L260.6 171.85L260.7 171.75L261.6 171.35L261.75 171.25L261.8 171.25L261.85 171.2L261.9 171.2L262.8 170.85L262.85 170.85L263.05 170.75L264.35 170.35L264.95 170.25L265.2 170.15L265.35 170.15L265.6 170.1L265.7 170.05L266.65 169.9L266.8 169.85L267 169.85L268.05 169.7L268.25 169.7L268.4 169.65L270 169.55L214.25 155.65L199.85 165.95M219.25,152.05L279.35 167.05L280.85 165.95L274.45 164.35L274.45 159.8L282.7 153.95L233.75 141.7L219.25 152.05M313.15,113.45L317.85 114.6L323.6 110.55L318.85 109.35L313.15 113.45M313.75,108.1L309 106.9L303.3 111L308 112.15L313.75 108.1M323.45,102.45L329.15 98.4L318.55 95.75L312.85 99.8L323.45 102.45M290.65,121.65L286.15 124.85L291.85 126.3L296.35 123.1L290.65 121.65M298.2,109.7L303.9 105.65L299.2 104.45L293.45 108.55L298.2 109.7M288.35,107.25L294.05 103.2L289.35 102L283.65 106.1L288.35 107.25M301.7,124.2L272.9 144.75L261.6 141.9L261.65 137.35L276 127.15L269.9 125.6L269.9 121.05L279.65 114.15L301.75 119.65L301.7 124.2M275.3,122.15L281.05 123.6L285.55 120.4L279.8 118.95L275.3 122.15M267.05,138.45L272.8 139.9L277.4 136.6L271.65 135.15L267.05 138.45M276.6,131.6L282.35 133.05L286.85 129.85L281.1 128.4L276.6 131.6M279.85,160.9L285.85 162.4L287.35 161.35L281.35 159.85L279.85 160.9M275.45,185.55L274.05 185.65L273.95 185.7L272.9 185.7L272.7 185.75L271.6 185.75L271.25 185.7L270.15 185.7L269.7 185.65L269.55 185.65L268.7 185.55L265.85 187.65L323 201.9L339.35 190.25L285.85 176.9L285.85 180.1L285.8 180.2L285.8 180.55L285.65 180.85L285.65 180.95L285.5 181.25L285.45 181.4L285.4 181.45L284.95 182.05L284.8 182.15L284.8 182.2L283.95 182.9L283.85 183L283.2 183.35L283.1 183.45L282.95 183.5L282.2 183.9L282.05 183.95L282 183.95L280.95 184.4L280.7 184.45L279.7 184.8L279.5 184.8L279.45 184.85L278.55 185.05L278.5 185.05L275.7 185.55L275.45 185.55M292.35,157.8L293.85 156.7L287.8 155.2L286.35 156.3L292.35 157.8" />
</g>
</svg>
