<?xml version="1.0" encoding="utf-8"?>
<svg version="1.1" id="Layer_1"
xmlns="http://www.w3.org/2000/svg"
xmlns:xlink="http://www.w3.org/1999/xlink"
xmlns:author="http://www.sothink.com"
width="461px" height="175px"
xml:space="preserve">
<g id="3" transform="matrix(1, 0, 0, 1, -52.45, -49.6)">
<path style="fill:none;stroke-width:0.5;stroke-linecap:butt;stroke-linejoin:round;stroke-miterlimit:3;stroke:#B6B6B6;stroke-opacity:1" d="M308.1,60.7L321.3 65.85L316.4 69.35L301.35 65.6L308.1 60.7z" />
<path style="fill:none;stroke-width:0.5;stroke-linecap:butt;stroke-linejoin:round;stroke-miterlimit:3;stroke:#B6B6B6;stroke-opacity:1" d="M339.35,82.05L313 75.5L301.7 75.75L292.7 78.3L257.75 103.25L257.3 107.75L262.15 112L288.5 118.55L300 118.45L309.15 116L344.05 91.1L344.7 86.6L339.35 82.05M352.5,84.85L350.9 90.05L311.55 118.15L298.15 122L252.1 110.5L253.6 103.75L293 75.6L301.5 71.95L315.15 71.85L345.95 79.55L352.5 84.85" />
<path style="fill:none;stroke-width:0.5;stroke-linecap:butt;stroke-linejoin:round;stroke-miterlimit:3;stroke:#B6B6B6;stroke-opacity:1" d="M329.1,84.05L314.25 80.35Q309.9 79.25 305.1 79.75Q300.25 80.2 297.8 81.95L267.65 103.45Q265.2 105.2 266.55 107.2Q267.9 109.2 272.2 110.3L287.1 114.05Q291.45 115.15 296.25 114.65Q301.05 114.15 303.55 112.4L333.7 90.9Q336.15 89.15 334.8 87.15Q333.5 85.15 329.1 84.05M344.7,86.6L344.05 91.1L309.15 116L300 118.45L288.5 118.55L262.15 112L257.3 107.75L257.75 103.25L292.7 78.3L301.7 75.75L313 75.5L339.35 82.05L344.7 86.6" />
<path style="fill:none;stroke-width:0.5;stroke-linecap:butt;stroke-linejoin:round;stroke-miterlimit:3;stroke:#B6B6B6;stroke-opacity:1" d="M333.7,90.9L303.55 112.4Q301.05 114.15 296.25 114.65Q291.45 115.15 287.1 114.05L272.2 110.3Q267.9 109.2 266.55 107.2Q265.2 105.2 267.65 103.45L297.8 81.95Q300.25 80.2 305.1 79.75Q309.9 79.25 314.25 80.35L329.1 84.05Q333.5 85.15 334.8 87.15Q336.15 89.15 333.7 90.9z" />
<path style="fill:none;stroke-width:0.5;stroke-linecap:butt;stroke-linejoin:round;stroke-miterlimit:3;stroke:#B6B6B6;stroke-opacity:1" d="M410.05,106.6Q408.35 106.2 404.5 107.45L400.75 108.85L399.8 108.6Q400.1 107.85 399.05 107.3L397.75 106.8L369.6 99.75L368.8 98.45L373.2 95.35Q374.45 94.2 372.6 92.55L370.35 91.05L374.95 92.2L378.4 89.75L375.55 89L375.85 88.45L378.8 89.1Q383.1 90.15 387 92.35Q389.8 93.95 391 96.15Q392.2 98.3 394.5 99.65Q398.35 101.9 403.25 103.1L406.2 103.75L413.6 104.75L410.65 106.85L410.05 106.6z" />
<path style="fill:none;stroke-width:0.5;stroke-linecap:butt;stroke-linejoin:round;stroke-miterlimit:3;stroke:#B6B6B6;stroke-opacity:1" d="M423.6,106.75L468.3 117.9L463.65 121.2L418.9 110.05L423.6 106.75z" />
<path style="fill:none;stroke-width:0.5;stroke-linecap:butt;stroke-linejoin:round;stroke-miterlimit:3;stroke:#B6B6B6;stroke-opacity:1" d="M351.1,100.15Q348.95 101.65 347.8 103.7Q345.6 107.65 349.6 110.95L342.1 116.3L327.25 112.6L346.35 98.95L351.1 100.15z" />
<path style="fill:none;stroke-width:0.5;stroke-linecap:butt;stroke-linejoin:round;stroke-miterlimit:3;stroke:#B6B6B6;stroke-opacity:1" d="M342.1,116.3L327.15 126.95L322.9 125.9L324.5 124.75L313.75 122.1L318.35 118.8L319.45 119.05L323.4 116.25L322.5 116L327.25 112.6L342.1 116.3z" />
<path style="fill:none;stroke-width:0.5;stroke-linecap:butt;stroke-linejoin:round;stroke-miterlimit:3;stroke:#B6B6B6;stroke-opacity:1" d="M325.45,128.15L321.2 127.1L317.85 129.5L308.3 127.15M314.95,122.4L324.5 124.75L322.9 125.9L327.15 126.95" />
<path style="fill:none;stroke-width:0.5;stroke-linecap:round;stroke-linejoin:round;stroke-miterlimit:3;stroke:#B5B5B5;stroke-opacity:1" d="M322.05,130.7L325.45 128.15" />
<path style="fill:none;stroke-width:0.5;stroke-linecap:round;stroke-linejoin:round;stroke-miterlimit:3;stroke:#B5B5B5;stroke-opacity:1" d="M341.95,134.5L338.9 136.55L357 141.15L359.9 138.9L341.95 134.5z" />
<path style="fill:none;stroke-width:0.5;stroke-linecap:butt;stroke-linejoin:round;stroke-miterlimit:3;stroke:#B6B6B6;stroke-opacity:1" d="M404.9,117.45L398.7 121.9L396.6 121.35L391.45 125.05L387.35 124L376.4 131.85L370.3 130.35L372.05 129.1L359.05 125.9L362.65 123.35L371.25 118.9Q374.95 119.35 381 119.05Q391.35 118.6 397.75 115.7L404.9 117.45z" />
<path style="fill:none;stroke-width:0.5;stroke-linecap:butt;stroke-linejoin:round;stroke-miterlimit:3;stroke:#B6B6B6;stroke-opacity:1" d="M431,144.7L386.25 133.55L417.6 111.1L462.4 122.3L431 144.7z" />
<path style="fill:none;stroke-width:0.5;stroke-linecap:butt;stroke-linejoin:round;stroke-miterlimit:3;stroke:#B6B6B6;stroke-opacity:1" d="M347.5,133.1L350.35 131.05L352.45 131.6L353.9 130.55" />
<path style="fill:none;stroke-width:0.5;stroke-linecap:round;stroke-linejoin:round;stroke-miterlimit:3;stroke:#B5B5B5;stroke-opacity:1" d="M347.5,133.1L344.55 132.35L348.95 129.15L353.9 130.55" />
<path style="fill:none;stroke-width:0.5;stroke-linecap:butt;stroke-linejoin:round;stroke-miterlimit:3;stroke:#B6B6B6;stroke-opacity:1" d="M357.1,141.35L353.4 144.05L347.5 142.55L347.3 142.65L334.95 139.6L338.8 136.8L357.1 141.35z" />
<path style="fill:none;stroke-width:0.5;stroke-linecap:butt;stroke-linejoin:round;stroke-miterlimit:3;stroke:#B6B6B6;stroke-opacity:1" d="M347.3,142.65L337.05 150L331.8 148.7L328.75 144L334.95 139.6L347.3 142.65z" />
<path style="fill:none;stroke-width:0.5;stroke-linecap:butt;stroke-linejoin:round;stroke-miterlimit:3;stroke:#B6B6B6;stroke-opacity:1" d="M354,145.25L342.85 153.2L341.65 151.15L337.1 150L346.4 143.4L354 145.25z" />
<path style="fill:none;stroke-width:0.5;stroke-linecap:butt;stroke-linejoin:round;stroke-miterlimit:3;stroke:#B6B6B6;stroke-opacity:1" d="M372.6,143.3L354.7 156.1L342.95 153.15L358.2 142.35L368.05 144.8L370.8 142.85L372.6 143.3z" />
<path style="fill:none;stroke-width:0.5;stroke-linecap:butt;stroke-linejoin:round;stroke-miterlimit:3;stroke:#B6B6B6;stroke-opacity:1" d="M366.85,159.1L354.7 156.1L382.3 136.35L394.45 139.45L366.85 159.1z" />
<path style="fill:none;stroke-width:0.5;stroke-linecap:butt;stroke-linejoin:round;stroke-miterlimit:3;stroke:#B6B6B6;stroke-opacity:1" d="M394.55,139.35L406.5 142.35L378.95 162.15L366.85 159.1L394.55 139.35z" />
<path style="fill:none;stroke-width:0.5;stroke-linecap:butt;stroke-linejoin:round;stroke-miterlimit:3;stroke:#B6B6B6;stroke-opacity:1" d="M378.9,162.15L405.05 143.5L417.2 146.55L395.8 161.85L383.6 163.35L378.9 162.15z" />
<path style="fill:none;stroke-width:0.5;stroke-linecap:butt;stroke-linejoin:round;stroke-miterlimit:3;stroke:#B6B6B6;stroke-opacity:1" d="M427,150.45L411.55 161.5L407.55 160.5L395.8 161.85L417.2 146.55L428.4 149.35L431.9 146.85L445.9 150.3L440.85 153.9L427 150.45z" />
<path style="fill:none;stroke-width:0.5;stroke-linecap:butt;stroke-linejoin:round;stroke-miterlimit:3;stroke:#B6B6B6;stroke-opacity:1" d="M437.05,152.95L432.95 155.9L431.35 155.5L421.65 162.4L423.1 162.8L421.45 164L411.5 161.55L427 150.45L437.05 152.95z" />
<path style="fill:none;stroke-width:0.5;stroke-linecap:butt;stroke-linejoin:round;stroke-miterlimit:3;stroke:#B6B6B6;stroke-opacity:1" d="M308.4,162.25L306.65 157.85L310.9 157.4L318.8 159.4L313.15 163.4L308.4 162.25z" />
<path style="fill:none;stroke-width:0.5;stroke-linecap:butt;stroke-linejoin:round;stroke-miterlimit:3;stroke:#B6B6B6;stroke-opacity:1" d="M306.65,157.85L308.4 162.25L311.75 163.05L308.8 165.15L297.35 162.3L303.1 158.2L306.65 157.85z" />
<path style="fill:none;stroke-width:0.5;stroke-linecap:butt;stroke-linejoin:round;stroke-miterlimit:3;stroke:#B6B6B6;stroke-opacity:1" d="M326.55,159.7L317.45 166.2L311.4 164.65L318.8 159.4L318.85 159.35L322.3 158.55L326.6 159.65L326.55 159.7z" />
<path style="fill:none;stroke-width:0.5;stroke-linecap:butt;stroke-linejoin:round;stroke-miterlimit:3;stroke:#B6B6B6;stroke-opacity:1" d="M331.1,160.8L331.8 161.45L323.15 167.6L317.45 166.2L326.55 159.7L331.1 160.8z" />
<path style="fill:none;stroke-width:0.5;stroke-linecap:butt;stroke-linejoin:round;stroke-miterlimit:3;stroke:#B6B6B6;stroke-opacity:1" d="M344.05,164.15L330.4 173.9L324.8 172.5L337.65 163.1L339.4 163L344.05 164.15z" />
<path style="fill:none;stroke-width:0.5;stroke-linecap:butt;stroke-linejoin:round;stroke-miterlimit:3;stroke:#B6B6B6;stroke-opacity:1" d="M349.45,165.5L335.8 175.25L330.4 173.9L344.05 164.15L349.45 165.5z" />
<path style="fill:none;stroke-width:0.5;stroke-linecap:butt;stroke-linejoin:round;stroke-miterlimit:3;stroke:#B6B6B6;stroke-opacity:1" d="M356.05,167.15L338.4 179.75L331.8 178.1L349.55 165.55L356.05 167.15z" />
<path style="fill:none;stroke-width:0.5;stroke-linecap:butt;stroke-linejoin:round;stroke-miterlimit:3;stroke:#B6B6B6;stroke-opacity:1" d="M338.4,179.75L356.05 167.15L363.7 169.05L343.4 183.55L336.7 181.85L339.3 180.05L338.4 179.75z" />
<path style="fill:none;stroke-width:0.5;stroke-linecap:butt;stroke-linejoin:round;stroke-miterlimit:3;stroke:#B6B6B6;stroke-opacity:1" d="M363.7,169.05L371.5 171L348.1 187.7L333.65 184.05L336.7 181.85L343.4 183.55L363.7 169.05z" />
<path style="fill:none;stroke-width:0.5;stroke-linecap:round;stroke-linejoin:round;stroke-miterlimit:3;stroke:#B6B6B6;stroke-opacity:1" d="M501.15,142.9L506.55 147.05Q511.7 152.15 512.25 158.25L496.05 154.2L496 154.25L493.4 156.1L470.9 150.45" />
<path style="fill:none;stroke-width:0.5;stroke-linecap:round;stroke-linejoin:round;stroke-miterlimit:3;stroke:#B6B6B6;stroke-opacity:1" d="M470.9,150.45L470.8 150.5L470.85 150.45L470.9 150.45z" />
<path style="fill:none;stroke-width:0.5;stroke-linecap:butt;stroke-linejoin:round;stroke-miterlimit:3;stroke:#B6B6B6;stroke-opacity:1" d="M470.9,150.45L486.55 139.25L501.15 142.9" />
<path style="fill:none;stroke-width:0.5;stroke-linecap:butt;stroke-linejoin:round;stroke-miterlimit:3;stroke:#B6B6B6;stroke-opacity:1" d="M443.85,154L454.1 156.6L438.45 167.75L428.2 165.2L443.85 154z" />
<path style="fill:none;stroke-width:0.5;stroke-linecap:butt;stroke-linejoin:round;stroke-miterlimit:3;stroke:#B6B6B6;stroke-opacity:1" d="M512.25,158.25Q512.3 166.1 504.9 173.1Q502.55 175.3 499.65 177.25L496.95 178.9L485.45 179.7L466.85 175.05L458.85 180.75L430.25 173.6L459.3 152.85L465.4 154.35L470.8 150.5L493.4 156.1L496 154.25L512.25 158.25z" />
<path style="fill:none;stroke-width:0.5;stroke-linecap:butt;stroke-linejoin:round;stroke-miterlimit:3;stroke:#B6B6B6;stroke-opacity:1" d="M485.65,179.75L479.3 184.3L473.4 186L467.05 184.45L465.8 182.5L458.85 180.75L466.85 175.05L485.65 179.75z" />
<path style="fill:none;stroke-width:0.5;stroke-linecap:butt;stroke-linejoin:round;stroke-miterlimit:3;stroke:#B6B6B6;stroke-opacity:1" d="M390.5,175.75L382.3 181.6L382.15 181.6L380.85 181.25L378.1 183.25L376.4 182.8L364 191.65L367.05 192.4L365.45 193.5L346.7 188.8L371.6 171.05L390.4 175.7L390.5 175.75z" />
<path style="fill:none;stroke-width:0.5;stroke-linecap:butt;stroke-linejoin:round;stroke-miterlimit:3;stroke:#B6B6B6;stroke-opacity:1" d="M356.3,200.05L390.5 175.75L422.15 171.6L465.8 182.5L467.05 184.45L473.35 186.05L477.75 192.8L441 219L442.25 220.7L439.75 222.4L428.45 223.7L424.8 222.65L423.6 220.7L359.6 204.75L356.05 205L349.15 203.3L353.4 200.25L356.3 200.05z" />
<path style="fill:none;stroke-width:0.5;stroke-linecap:butt;stroke-linejoin:round;stroke-miterlimit:3;stroke:#B6B6B6;stroke-opacity:1" d="M170.75,64.7L235.75 80.9L215.5 95.35L206.75 93.2L195.4 101.3L176.2 96.5L177.7 95.4L165.8 92.45L158.3 97.8L170.25 100.8L171.8 99.7L199.65 106.65L188.15 114.85L161.35 117.75L52.7 90.65L109.85 49.85L138.1 56.9L133.3 60.35L165.6 68.4L170.75 64.7z" />
<path style="fill:none;stroke-width:0.5;stroke-linecap:butt;stroke-linejoin:round;stroke-miterlimit:3;stroke:#B6B6B6;stroke-opacity:1" d="M200.2,114.35L221.2 99.5L234.85 102.9L229.45 106.75L231.4 107.25L215.35 118.7Q208.6 117.25 204.6 117.15L200.2 116.05L200.2 114.35z" />
<path style="fill:none;stroke-width:0.5;stroke-linecap:butt;stroke-linejoin:round;stroke-miterlimit:3;stroke:#B6B6B6;stroke-opacity:1" d="M235.4,108.25L234.75 108.7L242.4 110.65L226.55 121.85Q223.45 120.65 217.7 119.25L215.35 118.7L231.35 107.25L235.4 108.25z" />
<path style="fill:none;stroke-width:0.5;stroke-linecap:butt;stroke-linejoin:round;stroke-miterlimit:3;stroke:#B6B6B6;stroke-opacity:1" d="M226.65,121.9L242.4 110.65L250.05 112.55L233.25 124.5Q230.85 123.4 228.55 122.55L226.65 121.9z" />
<path style="fill:none;stroke-width:0.5;stroke-linecap:butt;stroke-linejoin:round;stroke-miterlimit:3;stroke:#B6B6B6;stroke-opacity:1" d="M257.9,114.5L239.55 127.8L237.05 127.15Q235.7 125.85 234.4 125.1L233.25 124.5L250.05 112.55L257.9 114.5z" />
<path style="fill:none;stroke-width:0.5;stroke-linecap:butt;stroke-linejoin:round;stroke-miterlimit:3;stroke:#B6B6B6;stroke-opacity:1" d="M266.65,116.3L247.8 129.75L239.65 127.7L258.5 114.25L266.65 116.3z" />
<path style="fill:none;stroke-width:0.5;stroke-linecap:butt;stroke-linejoin:round;stroke-miterlimit:3;stroke:#B6B6B6;stroke-opacity:1" d="M201.25,128.75L208.45 130.55L198.5 137.6L191.4 135.8L201.25 128.75z" />
<path style="fill:none;stroke-width:0.5;stroke-linecap:butt;stroke-linejoin:round;stroke-miterlimit:3;stroke:#B6B6B6;stroke-opacity:1" d="M214.9,132.1L214.9 132.15L206.15 138.4L199.7 136.8L208.45 130.55L208.5 130.5L214.9 132.1z" />
<path style="fill:none;stroke-width:0.5;stroke-linecap:butt;stroke-linejoin:round;stroke-miterlimit:3;stroke:#B6B6B6;stroke-opacity:1" d="M223.65,134.35L204.35 148.1L195.65 145.95L214.9 132.15L223.65 134.35z" />
<path style="fill:none;stroke-width:0.5;stroke-linecap:butt;stroke-linejoin:round;stroke-miterlimit:3;stroke:#B6B6B6;stroke-opacity:1" d="M232.55,136.6L213.3 150.35L204.3 148.1L223.6 134.35L232.55 136.6z" />
<path style="fill:none;stroke-width:0.5;stroke-linecap:butt;stroke-linejoin:round;stroke-miterlimit:3;stroke:#B6B6B6;stroke-opacity:1" d="M171,157.85L131.55 148.05L127 142.3L161.35 117.75L184.15 115.35L188.1 125.45L201.25 128.75L191.4 135.8L203.2 138.8L177.65 157.1L171 157.85z" />
<path style="fill:none;stroke-width:0.5;stroke-linecap:butt;stroke-linejoin:round;stroke-miterlimit:3;stroke:#B6B6B6;stroke-opacity:1" d="M232.55,136.6L242.85 139.1L222.2 153.9L211.9 151.35L232.55 136.6z" />
<path style="fill:none;stroke-width:0.5;stroke-linecap:butt;stroke-linejoin:round;stroke-miterlimit:3;stroke:#B6B6B6;stroke-opacity:1" d="M225.55,157.55L249.15 140.8L261.2 143.8L237.65 160.55L225.55 157.55z" />
<path style="fill:none;stroke-width:0.5;stroke-linecap:butt;stroke-linejoin:round;stroke-miterlimit:3;stroke:#B6B6B6;stroke-opacity:1" d="M278.6,148.1L270.35 154L265.15 152.7L273.35 146.8L278.6 148.1z" />
<path style="fill:none;stroke-width:0.5;stroke-linecap:butt;stroke-linejoin:round;stroke-miterlimit:3;stroke:#B6B6B6;stroke-opacity:1" d="M273.3,146.85L249.8 163.6L237.75 160.6L261.15 143.8L273.3 146.85z" />
<path style="fill:none;stroke-width:0.5;stroke-linecap:butt;stroke-linejoin:round;stroke-miterlimit:3;stroke:#B6B6B6;stroke-opacity:1" d="M279.3,148.3L283.75 150.25L276.25 155.5L276.15 155.5L270.35 154L278.55 148.15L279.3 148.3z" />
<path style="fill:none;stroke-width:0.5;stroke-linecap:butt;stroke-linejoin:round;stroke-miterlimit:3;stroke:#B6B6B6;stroke-opacity:1" d="M291.4,152.2L292.4 156.2L287.8 159.45L275.05 156.25L276.15 155.5L276.25 155.5L283.75 150.25L291.4 152.2z" />
<path style="fill:none;stroke-width:0.5;stroke-linecap:butt;stroke-linejoin:round;stroke-miterlimit:3;stroke:#B6B6B6;stroke-opacity:1" d="M284.75,161.5L268.65 157.5L271.1 155.75L274.55 156.65L275.05 156.25L287.7 159.4L284.75 161.5z" />
<path style="fill:none;stroke-width:0.5;stroke-linecap:butt;stroke-linejoin:round;stroke-miterlimit:3;stroke:#B6B6B6;stroke-opacity:1" d="M262.6,156.05L284.65 161.55L281.85 163.7L261.5 167.6L250.35 164.8L262.6 156.05z" />
<path style="fill:none;stroke-width:0.5;stroke-linecap:butt;stroke-linejoin:round;stroke-miterlimit:3;stroke:#B6B6B6;stroke-opacity:1" d="M314.55,166.65L312.7 168L317.65 169.25L304.95 178.3L293.85 175.55L291.85 166.2L297.25 162.35L314.55 166.65z" />
<path style="fill:none;stroke-width:0.5;stroke-linecap:butt;stroke-linejoin:round;stroke-miterlimit:3;stroke:#B6B6B6;stroke-opacity:1" d="M274.75,118.3L255.85 131.75L256 131.8L247.8 129.75L266.65 116.25L274.75 118.3z" />
<path style="fill:none;stroke-width:0.5;stroke-linecap:butt;stroke-linejoin:round;stroke-miterlimit:3;stroke:#B6B6B6;stroke-opacity:1" d="M255.85,131.75L274.75 118.3L282.95 120.35L264.05 133.8L264.2 133.85L256 131.8L255.85 131.75z" />
<path style="fill:none;stroke-width:0.5;stroke-linecap:butt;stroke-linejoin:round;stroke-miterlimit:3;stroke:#B6B6B6;stroke-opacity:1" d="M282.9,120.35L291 122.35L272.15 135.8L264.2 133.85L264.05 133.8L282.9 120.35z" />
<path style="fill:none;stroke-width:0.5;stroke-linecap:round;stroke-linejoin:round;stroke-miterlimit:3;stroke:#B6B6B6;stroke-opacity:1" d="M298.75,124.3L280.05 137.8" />
<path style="fill:none;stroke-width:0.5;stroke-linecap:round;stroke-linejoin:round;stroke-miterlimit:3;stroke:#B6B6B6;stroke-opacity:1" d="M280.05,137.8L280.15 137.8L280 137.8L280.05 137.8z" />
<path style="fill:none;stroke-width:0.5;stroke-linecap:butt;stroke-linejoin:round;stroke-miterlimit:3;stroke:#B6B6B6;stroke-opacity:1" d="M280.05,137.8L272.2 135.85L291 122.35L298.75 124.3" />
<path style="fill:none;stroke-width:0.5;stroke-linecap:butt;stroke-linejoin:round;stroke-miterlimit:3;stroke:#B6B6B6;stroke-opacity:1" d="M306.5,126.2L289.1 138.7L284.95 139L280.15 137.8L280 137.8L296.95 125.7L301.8 126.9L303.7 125.5L306.5 126.2z" />
<path style="fill:none;stroke-width:0.5;stroke-linecap:butt;stroke-linejoin:round;stroke-miterlimit:3;stroke:#B6B6B6;stroke-opacity:1" d="M322,130.7L319.5 132.45L305.6 128.95L308.05 127.2L322 130.7z" />
<path style="fill:none;stroke-width:0.5;stroke-linecap:butt;stroke-linejoin:round;stroke-miterlimit:3;stroke:#B6B6B6;stroke-opacity:1" d="M319.5,132.45L315.95 134.85L310.15 133.4L311.3 132.55L303.4 130.6L305.65 129L319.5 132.45z" />
<path style="fill:none;stroke-width:0.5;stroke-linecap:butt;stroke-linejoin:round;stroke-miterlimit:3;stroke:#B6B6B6;stroke-opacity:1" d="M315.95,134.9L310.9 138.45L302.9 136.5L302.8 136.45L302.75 136.45L307.8 132.85L315.95 134.9z" />
<path style="fill:none;stroke-width:0.5;stroke-linecap:butt;stroke-linejoin:round;stroke-miterlimit:3;stroke:#B6B6B6;stroke-opacity:1" d="M296.95,140.65L289.15 138.75L300.1 130.95L307.8 132.85L296.95 140.65z" />
<path style="fill:none;stroke-width:0.5;stroke-linecap:butt;stroke-linejoin:round;stroke-miterlimit:3;stroke:#B6B6B6;stroke-opacity:1" d="M311.05,138.5L307.05 141.4L299.25 141.25L296.95 140.65L302.9 136.5L310.9 138.45L311.05 138.5z" />
<path style="fill:none;stroke-width:0.5;stroke-linecap:butt;stroke-linejoin:miter;stroke-miterlimit:4;stroke:#B6B6B6;stroke-opacity:1" d="M358.9,94.55L354.75 93.55L357.25 91.7L361.3 92.9L358.9 94.55z" />
<path style="fill:none;stroke-width:0.5;stroke-linecap:butt;stroke-linejoin:miter;stroke-miterlimit:4;stroke:#B6B6B6;stroke-opacity:1" d="M469.1,126.05L464.9 125.05L467.45 123.2L471.5 124.4L469.1 126.05z" />
<path style="fill:#B5B5B5;fill-opacity:1" d="M374.5,147.9L374.7 147.85L374.85 147.9L374.95 148.1L374.85 148.25L374.7 148.35L374.5 148.25L374.45 148.1L374.5 147.9M384.3,140.65L384.45 140.7L384.55 140.9L384.45 141.05L384.3 141.15L384.1 141.05L384.05 140.9L384.1 140.7L384.3 140.65M382.9,141.6L383.1 141.55L383.25 141.6L383.35 141.8L383.25 141.95L383.1 142.05L382.9 141.95L382.85 141.8L382.9 141.6M378.1,145.2L378.3 145.15L378.45 145.2L378.55 145.4L378.45 145.55L378.3 145.65L378.1 145.55L378.05 145.4L378.1 145.2M379.3,144.3L379.5 144.25L379.65 144.3L379.75 144.5L379.65 144.65L379.5 144.75L379.3 144.65L379.25 144.5L379.3 144.3M377.1,146.05L377.25 146.1L377.35 146.3L377.25 146.45L377.1 146.55L376.9 146.45L376.85 146.3L376.9 146.1L377.1 146.05M375.7,147L375.9 146.95L376.05 147L376.15 147.2L376.05 147.35L375.9 147.45L375.7 147.35L375.65 147.2L375.7 147M381.7,142.5L381.9 142.45L382.05 142.5L382.15 142.7L382.05 142.85L381.9 142.95L381.7 142.85L381.65 142.7L381.7 142.5M380.5,143.4L380.7 143.35L380.85 143.4L380.95 143.6L380.85 143.75L380.7 143.85L380.5 143.75L380.45 143.6L380.5 143.4M387.7,138L387.9 137.95L388.05 138L388.15 138.2L388.05 138.35L387.9 138.45L387.7 138.35L387.65 138.2L387.7 138M386.5,138.9L386.7 138.85L386.85 138.9L386.95 139.1L386.85 139.25L386.7 139.35L386.5 139.25L386.45 139.1L386.5 138.9M385.3,139.8L385.5 139.75L385.65 139.8L385.75 140L385.65 140.15L385.5 140.25L385.3 140.15L385.25 140L385.3 139.8M364.05,155.9L364.15 156.1L364.05 156.25L363.9 156.35L363.7 156.25L363.65 156.1L363.7 155.9L363.9 155.85L364.05 155.9M362.5,156.7L362.7 156.65L362.85 156.7L362.95 156.9L362.85 157.05L362.7 157.15L362.5 157.05L362.45 156.9L362.5 156.7M373.65,148.8L373.75 149L373.65 149.15L373.5 149.25L373.3 149.15L373.25 149L373.3 148.8L373.5 148.75L373.65 148.8M372.55,149.9L372.45 150.05L372.3 150.15L372.1 150.05L372.05 149.9L372.1 149.7L372.3 149.65L372.45 149.7L372.55 149.9M369.9,151.45L370.05 151.5L370.15 151.7L370.05 151.85L369.9 151.95L369.7 151.85L369.65 151.7L369.7 151.5L369.9 151.45M371.25,150.6L371.35 150.8L371.25 150.95L371.1 151.05L370.9 150.95L370.85 150.8L370.9 150.6L371.1 150.55L371.25 150.6M366.1,154.2L366.3 154.15L366.45 154.2L366.55 154.4L366.45 154.55L366.3 154.65L366.1 154.55L366.05 154.4L366.1 154.2M368.5,152.4L368.7 152.35L368.85 152.4L368.95 152.6L368.85 152.75L368.7 152.85L368.5 152.75L368.45 152.6L368.5 152.4M367.3,153.3L367.5 153.25L367.65 153.3L367.75 153.5L367.65 153.65L367.5 153.75L367.3 153.65L367.25 153.5L367.3 153.3M364.9,155.1L365.1 155.05L365.25 155.1L365.35 155.3L365.25 155.45L365.1 155.55L364.9 155.45L364.85 155.3L364.9 155.1" />
</g>
</svg>
