<?xml version="1.0" encoding="utf-8"?>
<svg version="1.1" id="Layer_1"
xmlns="http://www.w3.org/2000/svg"
xmlns:xlink="http://www.w3.org/1999/xlink"
xmlns:author="http://www.sothink.com"
width="464px" height="201px"
xml:space="preserve">
<g id="2" transform="matrix(1, 0, 0, 1, -50.3, -47.85)">
<path style="fill:#4D4D4D;fill-opacity:1" d="M278.1,83L273.55 86.3L297 92.15L301 89.25L301 85.8L307.9 80.8L321.3 86.05L321.25 89.35L321.35 89.3L366.45 106.35L366.45 107.3L363.05 109.7L369.35 111.3L370.15 110.75L375.25 111.4L375.25 109.25L375.6 108.55L375.75 108.6L378.7 109.25Q383.2 110.3 386.95 112.5Q388.8 113.6 389.8 114.65L391 116.4L392.1 118Q392.9 118.9 394.45 119.8Q398.35 122.05 403.2 123.2L406.1 123.9L413.5 124.85L413.65 124.85L413.65 128L413.8 128L413.8 128.9L413.65 129L418.6 130.25L423.45 126.85L468.3 138.05L468.3 141.25L471.3 142L471.3 142.9L470.55 143.4L477.45 145.15L479.85 144.15L489.8 147L490.55 146.8L499.8 149.45L499.8 150.35L495 153.8L492.05 153.1L492.05 153.55L482.5 156.5L467.55 152.75L443.5 169.85L445.9 170.45L445.85 173.45L455.2 175.75L459.15 172.95L465.2 174.45L486.35 159.35L501.05 163.05L506.35 167.15Q511.65 172.4 512.25 178.4L512.2 183.55L512.15 183.75L512.1 184.7L511.8 186.35L511.8 186.4L511.5 187.55L511.05 188.8L510.95 189L510.9 189.2L509.75 191.55L509.65 191.65L509.55 191.85L507.95 194.2L507.9 194.25L507.8 194.4L505.75 196.75L502.8 199.5L502.65 199.6L501.2 200.75L501.1 200.85L498.9 202.4L498.75 202.45L498.4 202.7L498.3 202.75L497.95 203L497.3 203.35L497.25 203.4L497.1 203.5L497.05 203.55L497 203.55L496.85 203.6L485.6 204.45L479.25 209L475.8 210L477.75 212.95L477.7 217.5L442.25 242.8L442.2 245.4L439.7 247.1L428.25 248.45L424.55 247.4L423.3 245.45L359.35 229.5L355.9 229.75L348.75 228L348.8 223.5L353.25 220.35L356.05 220.15L358.2 218.65L294.45 202.75L294.15 200.45L294.15 200.4L293.55 200.25L291.7 191.6L286.1 192.8L280.15 191.35L280.2 188.75L261.3 192.35L259.3 191.85L259.3 191.9L254.85 192.9L186.1 175.75L177.6 181.85L170.75 182.6L131.3 172.8L126.65 167L126.7 162.45L148 147.25L142.4 145.85L142.45 144.95L146.15 142.35L134.15 139.35L134.2 138.45L136.9 136.5L52.35 115.4L52.4 110.85L109.65 70L138.15 77.1L138.1 81.6L138 81.7L165.35 88.5L170.55 84.8L235.75 101.05L235.75 104.2L249.45 94.4L226.7 88.7L226.7 87.8L245.9 74.05L278.1 82.1L278.1 83M299.35,101.15L292.6 103.05L257.65 128L257.65 128.25L262.1 132.15L268.2 133.65L268.15 133.6L267.35 133.1L266.25 132L265.95 131.35L265.85 131.2L265.8 130.6L265.8 126.05L265.85 126.15Q265.8 124.8 267.4 123.6L297.55 102.1Q298.35 101.55 299.35 101.15M333.6,115.65L303.45 137.15L303.35 137.25L301.85 138.05L308.9 136.15L343.8 111.25L343.85 110.85L339.05 106.8L331.1 104.8Q335.3 106.45 335.2 108.7L335.2 113.3L335.15 113.65L335.1 113.8L335 114L334.85 114.35L334.8 114.4L334.65 114.7L334.25 115.1L333.6 115.65" />
<path style="fill:none;stroke-width:4;stroke-linecap:butt;stroke-linejoin:miter;stroke-miterlimit:10;stroke:#4D4D4E;stroke-opacity:1" d="M468.3,118.05L423.45 106.85L418.6 110.25L413.65 109L413.8 108.9L413.8 108L413.65 108L413.65 104.85L413.5 104.85L406.1 103.9L403.2 103.2Q398.35 102.05 394.45 99.8Q392.9 98.9 392.1 98L391 96.4L389.8 94.65Q388.8 93.6 386.95 92.5Q383.2 90.3 378.7 89.25L375.75 88.6L375.6 88.55L375.25 89.25L375.25 91.4L370.15 90.75L369.35 91.3L363.05 89.7L366.45 87.3L366.45 86.35L321.35 69.3L321.25 69.35L321.3 66.05L307.9 60.8L301 65.8L301 69.25L297 72.15L273.55 66.3L278.1 63L278.1 62.1L245.9 54.05L226.7 67.8L226.7 68.7L249.45 74.4L235.75 84.2L235.75 81.05L170.55 64.8L165.35 68.5L138 61.7L138.1 61.6L138.15 57.1L109.65 50L52.4 90.85L52.35 95.4L136.9 116.5L134.2 118.45L134.15 119.35L146.15 122.35L142.45 124.95L142.4 125.85L148 127.25L126.7 142.45L126.65 147L131.3 152.8L170.75 162.6L177.6 161.85L186.1 155.75L254.85 172.9L259.3 171.9L259.3 171.85L261.3 172.35L280.2 168.75L280.15 171.35L286.1 172.8L291.7 171.6L293.55 180.25L294.15 180.4L294.15 180.45L294.45 182.75L358.2 198.65L356.05 200.15L353.25 200.35L348.8 203.5L348.75 208L355.9 209.75L359.35 209.5L423.3 225.45L424.55 227.4L428.25 228.45L439.7 227.1L442.2 225.4L442.25 222.8L477.7 197.5L477.75 192.95L475.8 190L479.25 189L485.6 184.45L496.85 183.6L497 183.55L497.05 183.55L497.1 183.5L497.25 183.4L497.3 183.35L497.95 183L498.3 182.75L498.4 182.7L498.75 182.45L498.9 182.4L501.1 180.85L501.2 180.75L502.65 179.6L502.8 179.5L506.9 175.5L507.8 174.4L507.9 174.25L507.95 174.2L509.55 171.85L509.65 171.65L509.75 171.55L510.9 169.2L510.95 169L511.05 168.8L511.8 166.4L511.8 166.35L512.1 164.7L512.15 163.75L512.2 163.55L512.25 158.4Q511.65 152.4 506.35 147.15L501.05 143.05L486.35 139.35L465.2 154.45L459.15 152.95L455.2 155.75L445.85 153.45L445.9 150.45L443.5 149.85L467.55 132.75L482.5 136.5L492.05 133.55L492.05 133.1L495 133.8L499.8 130.35L499.8 129.45L490.55 126.8L489.8 127L479.85 124.15L477.45 125.15L470.55 123.4L471.3 122.9L471.3 122L468.3 121.25L468.3 118.05M297.55,82.1L267.4 103.6Q265.8 104.8 265.85 106.15L265.8 106.05L265.8 110.6L265.85 111.2L265.95 111.35L266.25 112L267.35 113.1L268.15 113.6L268.2 113.65L262.1 112.15L257.65 108.25L257.65 108L292.6 83.05L299.35 81.15Q298.35 81.55 297.55 82.1M301.45,113.5L301.7 113.45L301.5 113.5L301.45 113.5M300.6,113.85L300.8 113.75L300.8 113.8L300.6 113.85M302.4,113.1L302.35 113.1L302.6 113L302.4 113.1M303.35,117.25L303.45 117.15L333.6 95.65L334.25 95.1L334.65 94.7L334.8 94.4L334.85 94.35L335 94L335.1 93.8L335.15 93.65L335.2 93.3L335.2 88.7Q335.3 86.45 331.1 84.8L339.05 86.8L343.85 90.85L343.8 91.25L308.9 116.15L301.85 118.05L303.35 117.25M335.1,89.3L335.1 89.35L335.05 89.4L335.1 89.3M340.1,82.9L344.65 86.75M358.95,95.75L358.9 95.75L359 95.8L358.95 95.75M358.3,95.45L358.4 95.5L358.35 95.5L358.3 95.45M359.35,96.05L359.5 96.1L359.45 96.1L359.35 96.05M360.2,97.05L360.15 97.05L360.15 97L360.2 97.05M364.1,127.3L372.05 129.25M398.9,107.35L398.85 107.35L398.75 107.3L398.9 107.35M398.6,107.25L398.55 107.2L398.65 107.25L398.6 107.25M402.5,108.2L402.85 108.05M364.85,148.8L363.4 149.85M359.4,157.4L366.65 159.2M378.75,162.25L401.45 145.95M354.5,156.2L347.65 154.5M329.4,173.8L330.2 174M317.25,166.25L321.05 163.55M340.45,182.95L343.2 183.65M310.7,138.6L307.45 137.75M304.75,178.4L312.6 172.8M345.05,187.05L347.95 187.75M502.55,174.95L502.75 174.8L502.7 174.8L502.55 174.95M501.85,175.5L501.9 175.45L501.9 175.5L501.85 175.5M499,177.6L498.85 177.7L499.05 177.6L499 177.6M497.3,178.7L497.2 178.75L497.35 178.65L497.3 178.7M498.55,177.9L498.35 178.05M431.6,151.75L437.05 153.1M203.1,116.95L204.15 117.2M206.9,117.45L205.8 117.35M265.9,106.65L265.9 106.6L265.95 106.7L265.9 106.65M267.75,108.6L267.55 108.45M244.35,129.05L247.6 129.85M260.55,133.1L263.85 133.9M252.5,131.1L255.65 131.85M187.95,115L194.6 110.25M242.4,161.9L249.6 163.7L268.25 150.4M268.8,135.15L271.95 135.9M196.1,137.15L198.3 137.7M204.4,138.1L205.9 138.5M227.5,140.15L213.1 150.45M216.6,152.65L222 154M57.4,92L161.2 117.85" />
<path style="fill:none;stroke-width:4;stroke-linecap:round;stroke-linejoin:miter;stroke-miterlimit:10;stroke:#4D4D4E;stroke-opacity:1" d="M347.5,104.15L347.4 104.4L347.35 104.45M348.9,148.85L343.2 152.95" />
<path style="fill:none;stroke-width:4;stroke-linecap:round;stroke-linejoin:miter;stroke-miterlimit:10;stroke:#4D4D4E;stroke-opacity:1" d="M347.35,104.45L347.3 104.6L347.25 104.6L347.35 104.45M343.2,152.95L342.75 153.25L342.8 153.2L343.2 152.95" />
<path style="fill:none;stroke-width:4;stroke-linecap:butt;stroke-linejoin:miter;stroke-miterlimit:10;stroke:#4D4D4E;stroke-opacity:1" d="M347.35,104.45L347.5 104.15" />
<path style="fill:#D2D4D5;fill-opacity:1" d="M464.75,124.85L464.75 123.95L466.95 122.35L423.2 111.45L420.05 113.7L410.4 111.3L410.4 110.35L411.85 109.35L411.6 109.3L411.25 109.3L411 109.25L408.9 109L408.7 108.95L408.5 108.95L407.5 108.8L406.8 108.65L406.7 108.65L405.15 108.35L405.1 108.35L405 108.3L403.4 107.95L396.55 105.65L396.25 105.5L395.8 105.35L394.3 104.55L394 104.3L393.65 104.1L392.8 103.45L391.9 102.55L391.5 102.1L391.15 101.65L390.95 101.45L389.6 99.35Q388.35 97.65 383.65 95.55L381.8 94.8L379.6 94.1L379.35 94.05L377.9 93.65L377.85 94.45L374.45 96.9L368.9 95.55L368.9 94.6L371.45 92.8L369.25 92.25L369.25 91.35L370.15 90.75L380.7 92.4L384.15 93.6L387.45 95.25Q390.1 96.55 392.35 99.5Q394.8 102.65 395.8 103.25Q398.65 105 404.25 106.45L406.35 106.9L411.2 107.7L413.8 108L413.8 108.9L413.65 109L419.95 110.55L421.35 109.55L471.3 122L471.3 122.9L469.8 123.95L468.4 123.6L466.1 125.2L464.75 124.85M473.35,127.95L492.1 132.65L492.05 133.55L482.5 136.5L467.55 132.75L440.4 152.1L458.85 156.7L458.85 157.6L453.6 161.35L443.45 158.8L436.9 163.5L429 161.55L429 160.65L430.9 159.25L432.65 159.7L436.65 156.85L440.35 157.75L444.4 154.85L431.5 151.65L428.1 154.1L404.6 148.2L404.6 147.3L405.2 146.9L381.85 141.05L372.15 148L370.35 147.55L367.75 149.45L357.85 146.95L353.6 150L345.95 148.1L345.95 147.2L347.15 146.35L353.05 147.8L360.1 142.8L370.4 145.35L376.5 141L350.7 134.6L350.7 133.65L355.4 130.35L357.05 130.75L358.6 129.65L371.65 132.9L371.65 133.8L370.85 134.4L376.1 135.7L387.15 127.8L391.1 128.8L396.2 125.15L398.35 125.7L403.7 121.85L397.45 120.3L397.45 119.4Q402.35 116.65 407.8 112.5L417.25 114.9L417.25 115.8L386.75 137.6L430.5 148.5L462 126L472.45 128.6L473.35 127.95M487.8,128.95L476.9 126.25L476.9 125.35L479.85 124.15L490.65 127.25L490.65 128.2L487.8 128.95M292.95,79.3L292.95 80.2L253.15 108.55L251.75 115.25L241.55 112.7L241.55 111.8L243.75 105.75L283.95 77.05L292.95 79.3M282.85,122.15L297.65 125.85L311 121.9L350.6 93.9L357.05 95.45Q360.2 96.25 360.15 97.6L360.15 98.55L360.1 98.75L360.1 98.85L359.95 99.15L359.95 99.2L360.4 99.3L360.35 100.2L359 101.2L357.85 100.9L351.95 105.15L345.8 103.6L322.85 120L323 120.05L323 120.95L319.05 123.75L318.2 123.55L314.5 126.15L314.55 126.2L314.55 127.1L304.05 134.6L310.95 136.3L310.95 137.2L309.65 138.15L299.65 135.65L299.65 134.75L305.3 130.7L303.5 130.25L301.6 131.6L296.4 130.35L296.4 129.45L297.3 128.8L280.7 124.6L280.7 123.7L282.85 122.15M381.9,186.25L366.65 197.15L363.65 196.4L363.65 195.5L376.05 186.65L377.7 187.05L380.5 185.05L381.9 185.35L381.9 186.25M362.75,199.8L294.45 182.75L294.15 180.45L294.15 179.55L304.55 182.1L316.35 173.65L312.4 172.7L312.4 171.8L313.15 171.2L308.05 169.95L308.05 169.05L311.1 166.85L312.75 167.25L312.75 168.2L312.1 168.65L322.8 171.35L331.25 165.3L337.55 166.9L337.5 167.8L325.3 176.5L335.55 179.05L335.55 179.95L332.5 182.1L339.05 183.75L339.05 184.65L334.2 188.15L347.95 191.5L347.95 192.4L347.35 192.8L365 197.3L365 198.2L362.75 199.8M274.25,161.3L270.85 160.5L268.25 162.35L262.15 160.8L250.85 168.85L259.3 171L259.3 171.9L254.85 172.9L185.8 155.7L185.8 154.8L201.95 143.25L198.05 142.3L198.05 141.4L199.2 140.55L205.75 142.2L205.75 143.1L196.3 149.9L213.05 154.05L213.05 154.95L212.5 155.4L221.85 157.7L239.9 144.85L246.25 146.4L246.25 147.3L226.25 161.6L249.6 167.4L264.85 156.55L275.85 159.3L275.85 160.2L274.25 161.3M138,115.7L161.3 121.55L161.3 122.45L152.95 128.5L142.4 125.85L142.45 124.95L146.15 122.35L134.15 119.35L134.2 118.45L138 115.7" />
<path style="fill:#AAACAE;fill-opacity:1" d="M472.75,129.15L408 113.05L403.7 116.25L400.3 118.55L399 119.3L398.9 119.4L398.8 119.4L398.35 119.7L398.3 119.7L398 119.85L397.95 119.85L397.9 119.9L397.7 119.95L397.6 120L397.55 120.05Q397 120.35 396.4 120.6L396.25 120.65L396.2 120.7L392.7 121.85L392.6 121.9L392.45 121.9L391.65 122.1L391.6 122.1L389.05 122.6L388.9 122.6L386.3 122.95L386.2 122.95L382.65 123.25L371.25 123.25L362.65 127.55L357.35 131.35L355.65 130.9L351.05 134.2L350 133.9L348.55 134L345.2 135.75L345.6 136L351.6 137.5L351.6 138.4L349.8 139.7L345.75 138.65L344.75 139.4L342.3 138.8L329.25 148.1L331.75 152.15L341.5 154.55L342.75 156.65L383.5 166.8L407.45 164L421.35 167.45L422.05 166.95L421.45 166.8L421.45 165.9L429.45 160.2L437.3 162.15L437.3 163.05L429.1 168.9L438.25 171.2L438.25 172.1L430.05 177.95L422.05 175.95L390.2 180.05L339.15 167.3L337.75 167.45L331.85 165.95L330.95 165.15L322.1 162.95L318.4 163.6L310.7 161.7L302.85 162.55L292 170.25L292.2 170.6L292.2 171.5L286.1 172.8L280.15 171.35L280.25 167.35L281.8 167.05L292.1 159.75L291.15 156.45L283.65 154.6L279.25 152.65L249.1 145.1L246.5 146.95L239.9 145.3L239.9 144.4L241.65 143.15L188.05 129.8L183.95 119.7L183.95 118.75L188.1 118.25L198.6 110.8L171.65 104.1Q170.9 104.65 170.1 105.15L158 102.15L158.05 101.25L165.7 95.75L177.7 98.75L177.7 99.65L177.05 100.1L195.35 104.65L206.65 96.65L215.25 98.8L249.45 74.4L226.7 68.7L226.7 67.8L245.9 54.05L278.1 62.1L278.1 63L273.55 66.3L297 72.15L301.3 69.05L316.4 72.85L321.35 69.3L366.45 86.35L366.45 87.3L363.05 89.7L369.55 91.35L370 91L372.65 91.7L372.65 92.6L370.05 94.45L370.4 94.55Q373.55 96.55 373.65 97.85L373.65 98.8L373.6 98.95L373.6 99L373.55 99.1L373.55 99.15L373.5 99.2L373.5 99.25L373.45 99.35L373.4 99.35L373.35 99.45L373.3 99.45L373.3 99.5L373.25 99.5L373.2 99.55L373.2 99.6L373.15 99.6L373.1 99.65L373.05 99.65L372.95 99.7L369.2 102.6L369.55 103.2L397 110.05Q399.75 110.7 399.8 111.65L399.8 112.1L400.8 112.2Q404.55 110.5 408.6 109.9L409.85 109.95Q410.3 110.05 410.55 110.25L420.3 112.4L420.3 113.3L419.75 113.7L463.55 124.65L465 123.6L466.4 123.95L468.7 122.3L469.7 122.55L469.7 123.2L488 127.55L490.55 126.8L499.8 129.45L499.8 130.35L495 133.8L473.7 128.5L472.75 129.15M314.95,76.15L301.3 76.35L293.05 79.85L284.25 77.65L244.1 106.35L242.25 111.5L283.35 121.75L283.35 122.65L281.15 124.2L258.55 118.6L258.2 118.85L234.65 113L234.65 112.45L229.2 111.1L229.2 110.2L233.8 106.95L221.1 103.8L200.35 118.6L200.15 119.5L204.4 120.55L208.8 121Q213.8 121.6 218.15 122.7L221 123.5Q227.55 125.5 230.9 126.9Q235.05 128.6 237.15 130.5L285 142.4L289.05 142.2L299.2 144.7L306.95 144.75L348.95 114.8Q347 112.95 347.05 110.7L347.05 109.8Q347.1 106.75 351.15 103.55L351.95 103.75L358 99.5L359.35 99.85L359.6 99.65L359.55 99.65L359.55 98.75L360.15 97.9L360.1 97.75L360.05 97.65L359.9 97.45L359.85 97.35L359.55 97.05L359.45 97L358.95 96.65L358.55 96.5L357.55 96.1Q357.1 95.9 356.65 95.85L350.8 94.4L350.8 93.5L352.25 89.05L345.85 83.85L314.95 76.15" />
<path style="fill:#97999B;fill-opacity:1" d="M468.3,122.6L463.5 126L462.4 125.7L462.4 127L433.75 147.45L445.9 150.45L445.85 154.65L453.9 156.7L459.15 152.95L465.2 154.45L486.35 139.35L501.05 143.05L506.35 147.15Q511.65 152.4 512.25 158.4L512.2 163.55L512.15 163.75L512.1 164.7L511.8 166.35L511.8 166.4L511.5 167.55L511.05 168.8L510.95 169L510.9 169.2L509.75 171.55L509.65 171.65L509.55 171.85L507.95 174.2L507.9 174.25L507.8 174.4L506.9 175.5L502.8 179.5L502.65 179.6L501.2 180.75L501.1 180.85L498.9 182.4L498.75 182.45L498.4 182.7L498.3 182.75L497.95 183L497.3 183.35L497.25 183.4L497.1 183.5L497.05 183.55L497 183.55L496.85 183.6L485.6 184.45L479.25 189L475.8 190L477.75 192.95L477.7 197.5L442.25 222.8L442.2 225.4L439.7 227.1L428.25 228.45L424.55 227.4L423.3 225.45L359.35 209.5L355.9 209.75L348.75 208L348.8 203.5L353.25 200.35L356.05 200.15L360.45 197.05L346.35 193.5L346.35 192.05L333.3 188.8L333.3 184.25L334.3 183.55L331.45 182.85L331.45 178.95L324.45 177.2L324.45 172.65L337.4 163.25L339.2 163.1L343.75 164.25L344.05 164.3L390.55 175.9L422 171.7L430.05 173.7L433.4 171.3L427.85 169.9L427.9 165.35L438.15 158.05L436.9 157.75L432.8 160.65L431.2 160.25L423.1 166.05L423.1 167.5L421.3 168.8L407.3 165.3L383.4 168.1L378.55 166.9L378.55 166.85L342.8 157.95L342.6 158.05L341.35 155.85L336.9 154.8L336.75 154.75L331.55 153.45L328.4 148.75L328.45 144.2L342.05 134.55L344.2 135.05L344.25 132L348.55 129.85L349.8 129.7L353.7 130.65L353.8 130.7L369.95 134.7L370 133.45L358.7 130.6L358.75 126.1L362.35 123.5L371.05 119.05L380.65 119.15Q391.3 118.65 397.5 115.85L404.9 117.65L404.9 120.15L417.4 111.25L418.55 111.5L418.6 110.25L423.45 106.85L468.3 118.05L468.3 122.6M316.85,69L307.9 65.5L306 66.9L316.2 69.45L316.85 69M318.2,72.75L345.9 79.65L352.45 85L352.45 89.55L350.8 94.8L311.5 122.85L299.25 126.4L301.6 127L303.5 125.6L306.55 126.35L306.5 128.25L307.85 127.3L308 127.35L313.4 123.45L313.4 122.3L318.15 118.9L319.25 119.15L322.15 117.1L322.15 116.2L346.15 99.05L351.1 100.3L351.1 104.85L351 104.9L350.9 105L350.65 105.2L350.6 105.25L350.35 105.4L350.15 105.65L349.85 105.9L348.55 107.35L347.95 108.25L347.65 108.85Q348.3 110.05 349.55 111.1L349.5 115.65L322 135.4L321.95 135.4L321.95 135.45L321.9 135.45L311.05 143.05L311.05 143.2L306.9 146.15L299 146L288.85 143.5L284.75 143.8L239.5 132.5L239.4 132.55L236.8 131.9Q235.1 130.3 233.1 129.3L233 129.25L232.9 129.25L229.45 127.75L229.35 127.7L226.4 126.65L226.25 126.65L220.95 124.9L215.15 123.45L215.1 123.45L214.5 123.3L214.4 123.3L213.9 123.2L209.2 122.4L205.75 122L205.45 122L204.4 121.95L199.85 120.8L199.9 114.5L221 99.6L234.9 103.05L234.85 107.6L234.15 108.1L235.4 108.45L235.4 109.05L251.8 113.1L251.8 110.7L253.3 103.9L292.75 75.75L301.25 72.1L307.8 72.05L300.95 70.35L301 65.8L307.9 60.8L321.3 66.05L321.25 70.55L318.2 72.75M340.1,82.9L344.65 86.75L344.6 91.3L344.1 94.85L350.6 90.2L351.1 88.65L345.65 84.3L340.1 82.9M301.65,85.05L300.55 85.35L299.55 85.75L299.2 85.85L298.4 86.25L267.4 108.35L268.7 109.2L269.35 109.5L269.65 109.6L270.4 109.95L288.85 114.55L290.35 114.75L295.85 114.8L298.45 114.4L300.5 113.9L300.8 113.8L300.85 113.75L301.5 113.5L301.7 113.45L302.6 113L302.8 112.85L302.85 112.85L333.45 91.05L333.6 90.9L332.6 90.25L331.65 89.75L330.15 89.15L310.7 84.5L309.65 84.45L309.3 84.4L308.55 84.4L308.25 84.35L305.95 84.4L303.55 84.65L301.65 85.05M299.35,81.15L292.6 83.05L257.65 108L257.65 108.25L262.1 112.15L268.2 113.65L268.15 113.6L267.35 113.1L266.25 112L265.95 111.35L265.85 111.2L265.8 110.6L265.8 106.05L265.85 106.15Q265.8 104.8 267.4 103.6L297.55 82.1Q298.35 81.55 299.35 81.15M274.6,123.1L260.55 133.1L263.85 133.9L277.9 123.9L274.6 123.1M290.85,127.15L276.85 137.15L279.8 137.9L293.75 127.9L290.85 127.15M282.75,125.15L268.8 135.15L271.95 135.9L285.95 125.95L282.75 125.15M301.85,118.05L308.9 116.15L343.8 91.25L343.85 90.85L339.05 86.8L331.1 84.8Q335.3 86.45 335.2 88.7L335.2 93.3L335.15 93.65L335.1 93.8L335 94L334.85 94.35L334.8 94.4L334.65 94.7Q334.15 95.2 333.6 95.65L303.45 117.15L303.35 117.25L301.85 118.05M296.8,130.45L284.7 139.1L284.85 139.15L288.85 138.85L299.55 131.15L296.8 130.45M347.35,104.45L347.4 104.4L347.5 104.1L346.2 103.75L331.95 113.9L341.9 116.4L347.05 112.7L346.8 111.2L346.85 106.45L346.9 105.95L346.9 105.8L346.95 105.6L347 105.55L347.05 105.15L347.25 104.7L347.25 104.65L347.3 104.6L347.35 104.45M323.4,120.95L319.55 123.7L324.5 124.9L324.5 126.45L326.95 127.05L337.05 119.85L327.1 117.4L323.4 120L323.4 120.95M314.85,127.2L313.05 128.45L317.6 129.6L319.45 128.35L314.85 127.2M389.8,94.65L391 96.4L392.1 98Q392.9 98.9 394.45 99.8Q398.35 102.05 403.2 103.2L406.1 103.9L413.5 104.85L413.65 104.85L413.65 109.4L410.45 111.65L410.1 111.45L409.3 111.3L408.65 111.3L406.8 111.55L406.65 111.6L405.75 111.8L401.95 113.05L400.7 113.6L400.65 113.6L399.45 113.35L399.5 112.7L399.45 112.65L399.25 112.4L399 112.2L398.95 112.15L398.65 111.95L398.55 111.95L398.15 111.75L397.55 111.55L397.5 111.55L369.35 104.55L368.5 103.2L368.55 98.65L371.4 96.6L370.05 95.8L370.1 91.3L370.25 91.2L374.75 92.35L375.25 92L375.25 89.25L375.6 88.55L375.75 88.6L378.7 89.25Q383.2 90.3 386.95 92.5Q388.8 93.6 389.8 94.65M378.4,94.45L374.8 97L373.65 96.7L373.6 99.35L373.55 99.5L373.5 99.55L373.5 99.6L373.45 99.7L373.35 99.85L373.2 100L373.15 100.1L372.35 100.6L397.65 106.9L397.75 106.95L397.8 106.95L398 107L398.05 107.05L398.25 107.1L398.3 107.1L398.4 107.15L398.45 107.15L398.55 107.2L398.6 107.25L398.65 107.25L398.85 107.35L398.9 107.4L399 107.4L399.1 107.5L399.3 107.6L399.45 107.75L399.55 107.8L399.55 107.85L399.7 108L399.7 108.05L399.75 108.1L399.8 108.2L399.8 108.3L399.85 108.3L399.85 108.8L400.55 108.95L401.55 108.55L401.6 108.55L401.8 108.45L402.45 108.2L402.5 108.2L403.05 108L403.1 107.95L403.3 107.9L403.05 107.85L398 106.25L394.2 104.4L391.8 102.55L390.75 100.95L389.55 99.2Q388.55 98.15 386.7 97.1L382.8 95.2L378.4 93.8L378.4 94.45M371.15,123.7L364.1 127.3L372.05 129.25L372.05 130.95L376.2 131.95L387.15 124.15L391.25 125.15L396.4 121.5L398.5 122Q399.2 121.55 399.85 121.05L397.6 120.5L397.25 120.65L395.35 121.35L395.15 121.45L393.05 122.05L392.95 122.1L391.3 122.5L391.15 122.5L391 122.55L388.1 123.1L385.35 123.45L385.25 123.45L383.6 123.6L383.4 123.6L381.8 123.75L371.7 123.75L371.65 123.75L371.4 123.7L371.15 123.7M387.2,128.8L376.65 136.35L377.95 136.65L377.9 139.45L382.1 136.45L385.9 137.4L385.95 133.75L396.5 126.15L396.45 126.15L391.3 129.85L387.2 128.8M428.8,149L406.5 143.4L406.5 144.05L428.2 149.45L428.8 149M417.1,151.35L403.4 161.1L407.4 160.65L411.35 161.6L423.45 152.9L417.1 151.35M431.6,151.75L440.65 154L440.85 153.9L431.75 151.6L431.6 151.75M426.9,155.25L416.2 162.85L421.25 164.1L421.3 164.05L421.3 162.6L430.4 156.1L426.9 155.25M404.9,148.3L383.7 163.4L395.55 162L412.15 150.1L404.9 148.3M382.2,141.15L359.4 157.4L366.65 159.2L389.4 142.95L382.2 141.15M360.55,139.25L370.55 141.7L372.85 140.1L353.75 135.35L352.3 136.35L351.7 136.2L351.7 136.95L360.55 139.15L360.55 139.25M358.05,147.1L347.65 154.5L354.5 156.2L364.85 148.8L358.05 147.1M363.55,173.85L345.05 187.05L347.95 187.75L366.45 174.55L363.55 173.85M355.9,171.95L340.45 182.95L343.2 183.65L358.65 172.6L355.9 171.95M385.45,179.3L371.45 175.8L351.4 190.1L363.65 193.2L363.7 191.8L376.2 182.9L377.9 183.35L380.65 181.35L382.1 181.7L385.45 179.3M378.75,162.25L401.45 145.9L394.4 144.15L371.55 160.45L378.75 162.25M382,186.35L365.3 198.3L365.1 198.25L356.2 204.8L354.95 204.9L355.95 205.15L359.45 204.85L423.5 220.85L424.8 222.8L428.35 223.8L439.6 222.5L440.75 221.7L440.75 219.15L475.45 194.4L473.05 190.75L466.8 189.2L465.5 187.2L421.95 176.35L390.5 180.45L382.15 186.4L382 186.35M430.8,144.8L457.35 125.85L417.45 115.9L390.95 134.85L430.8 144.8M334.8,144.35L330.7 147.25L331.75 148.85L336.85 150.1L342.25 146.25L334.8 144.35M342.75,153.25L342.8 153.2L348.95 148.85L346.3 148.15L341.7 151.45L342.75 153.25M331.75,166.2L323.05 172.4L317.65 171.05L317.65 173.95L304.8 183.1L293.55 180.25L291.55 170.9L291.6 166.4L297 162.5L297.1 162.45L302.85 158.35L310.75 157.55L318.6 159.5L322.15 158.65L326.65 159.8L326.65 159.85L331 160.95L331.75 161.65L331.75 166.2M326.4,164.45L322.15 167.5L322.95 167.7L327.25 164.65L326.4 164.45M321.05,163.55L318.75 164.1L316.1 166L317.25 166.25L321.05 163.55M330.2,174L338.9 167.75L337.55 167.85L329.4 173.8L330.2 174M349.4,170.3L336.55 179.45L338.2 179.85L351 170.7L349.4 170.3M343.9,168.95L335.15 175.2L335.6 175.35L344.4 169.05L343.9 168.95M310.9,138.45L307.65 137.65L307.45 137.75L310.7 138.6L310.9 138.45M302.75,136.4L299.95 135.7L293.85 140.05L296.75 140.8L302.45 136.65L302.75 136.4M303.5,141.45L302.75 141.25L302.55 141.45L303.5 141.45M283.65,150.4L291.4 152.3L291.4 152.35L292.35 156.35L292.3 160.9L287.65 164.25L287.55 164.2L281.75 168.45L261.3 172.35L250 169.55L250 168.1L249.65 168.4L225.2 162.3L225.2 157.75L225.3 157.7L248.95 140.9L273.1 146.95L273.15 146.9L278.6 148.25L278.6 148.3L279.25 148.45L283.65 150.4M276.05,155.6L279.45 153.25L279.05 153.05L278.4 152.9L275 155.35L276.05 155.6M279.9,157.65L287.6 159.55L291.1 157L291.1 156.9L283.6 155.05L279.9 157.65M293.8,175.65L304.75 178.4L312.6 172.8L312.35 172.75L312.35 170.95L297.15 167.15L292.65 170.35L293.8 175.65M313.75,162.95L310.65 162.15L308.5 162.4L312.95 163.5L313.75 162.95M306.35,162.65L302.95 162.95L302 163.6L307.3 164.95L306.35 162.65M504.65,150.4L500.85 147.65L486.4 144.05L475.55 151.8L493.25 156.2L495.65 154.5L495.85 154.3L510.6 158Q508.7 153.9 504.65 150.4M511.35,162.85L495.9 159L493.3 160.9L470.7 155.25L465.25 159.15L459.2 157.65L434.95 174.95L458.7 180.85L466.65 175.15L485.35 179.8L496.75 179L496.8 178.95L497.3 178.7L497.35 178.65L497.55 178.55L497.9 178.3L498.35 178.05L500.2 176.75L500.9 176.25L500.95 176.2L501.7 175.65L501.8 175.6L501.9 175.5L502.55 174.95L502.7 174.8L503.95 173.75L506.1 171.6L508.55 168.55L509.55 166.95L510.15 165.85L510.25 165.65L511.3 163.05L511.35 162.85M449.05,160.15L443.7 158.8L432.9 166.5L438.25 167.85L449.05 160.15M465.7,182.6L467 184.6L473.25 186.1L479.1 184.4L480.6 183.3L466.7 179.85L463.6 182.1L465.7 182.6M170.55,64.8L235.75 81.05L235.75 85.6L215.35 100.15L206.6 98L195.65 105.8L199.65 106.8L199.65 111.35L188.05 119.6L185.8 119.85L188.05 125.6L208.25 130.65L208.3 130.6L214.9 132.25L214.9 132.3L223.7 134.5L223.7 134.55L242.85 139.25L242.8 143.8L242.75 143.85L222.05 158.7L211.55 156.05L211.55 154.75L195.3 150.65L195.3 149.15L177.6 161.85L170.75 162.6L131.3 152.8L126.65 147L126.7 142.45L156.3 121.3L52.35 95.4L52.4 90.85L109.65 50L138.15 57.1L138.1 61.6L138 61.7L165.35 68.5L170.55 64.8M165.45,73.2L132.95 65.1L132.95 60.55L133.05 60.5L109.75 54.65L57.4 92L161.2 117.85L187.95 115L194.6 110.25L171.6 104.5L170.1 105.55L157.95 102.55L158 98L165.6 92.55L177.7 95.55L177.7 97.05L195.2 101.4L206.55 93.3L215.3 95.45L230.7 84.45L170.6 69.5L165.45 73.2M175.8,99.8L165.65 97.25L163 99.15L170.05 100.9L171.55 99.8L175.8 100.85L175.8 99.8M183.85,120.15L161.2 122.5L129.25 145.35L131.55 148.2L170.85 157.95L177.5 157.25L198.2 142.35L190.95 140.55L191 136.05L196.2 132.3L187.75 130.2L183.85 120.15M229.15,106.95L229.8 106.45L221.05 104.3L203.1 116.95L204.45 117.3L205.8 117.35L206.9 117.45L206.95 117.45L207 117.5L207.15 117.5L208.9 117.7L209 117.75L209.15 117.75L210 117.9L210.85 118L213.7 118.5L213.8 118.55L214.05 118.55L215.15 118.8L229.1 108.85L229.15 106.95M201.1,133.55L196.1 137.15L198.3 137.7L203.35 134.1L201.1 133.55M226.35,121.95L237.35 114.2L234.4 113.45L234.4 112.85L231.25 112.05L220.1 120L223.6 121.05L223.9 121.1L226.35 121.95M233.05,124.6L245 116.1L242.25 115.4L230.8 123.6L233.05 124.6M257.25,105.8L253.5 108.5L253 110.85L257 111.85L257 107.95L257.25 105.8M249.9,117.3L236.5 126.85L237 127.3L239.35 127.9L252.9 118.05L249.9 117.3M247.6,129.85L261.6 119.85L258.35 119.05L244.35 129.05L247.6 129.85M266.55,121.05L252.5 131.1L255.65 131.85L269.7 121.85L266.55 121.05M273.2,151.6L269.8 154L270.15 154.1L273.55 151.7L273.2 151.6M261,148.6L242.4 161.9L249.6 163.7L268.25 150.4L261 148.6M261.35,167.7L277.5 164.6L262.5 160.85L255.1 166.15L261.35 167.7M249,145.55L230.25 158.9L237.45 160.65L256.15 147.35L249 145.55M214.75,136.95L200.35 147.25L204.15 148.2L218.6 137.9L214.75 136.95M222,154L237.8 142.7L232.45 141.35L216.6 152.65L222 154M223.5,139.15L209.05 149.45L213.1 150.45L227.5 140.15L223.5 139.15M208.3,135.35L204.4 138.1L205.9 138.5L209.85 135.7L208.35 135.3L208.3 135.35" />
</g>
</svg>
