<?xml version="1.0" encoding="utf-8"?>
<svg version="1.1" id="Layer_1"
xmlns="http://www.w3.org/2000/svg"
xmlns:xlink="http://www.w3.org/1999/xlink"
xmlns:author="http://www.sothink.com"
width="942px" height="502px"
xml:space="preserve">
<g id="59" transform="matrix(1, 0, 0, 1, -123.25, -74.8)">
<path style="fill:#C4C4C4;fill-opacity:1" d="M760.05,90.3L778.55 74.8L779.2 89.4L760.7 104.9L760.05 90.3" />
<path style="fill:#FFFFFF;fill-opacity:1" d="M816.7,104.1L817.45 118.7L816.2 113.95L815.45 99.35L816.7 104.1" />
<path style="fill:#FFFFFF;fill-opacity:1" d="M762.65,121L763.4 135.6L735.25 124.4L734.6 109.8L762.65 121" />
<path style="fill:#FFFFFF;fill-opacity:1" d="M787.3,115.5L763.4 135.6L762.65 121L786.65 100.85L787.3 115.5" />
<path style="fill:#FFFFFF;fill-opacity:1" d="M907.3,120.55L907.95 135.15L905.75 127L905.15 112.4L907.3 120.55" />
<path style="fill:#FFFFFF;fill-opacity:1" d="M746,135.05L762.65 121L763.4 135.6L746.6 149.65L746 135.05" />
<path style="fill:#FFFFFF;fill-opacity:1" d="M761.15,133.15L761.75 147.8L746.6 149.65L746 135.05L761.15 133.15" />
<path style="fill:#FFFFFF;fill-opacity:1" d="M746,135.05L746.6 149.65L732.1 161.85L731.45 147.25L746 135.05" />
<path style="fill:#FFFFFF;fill-opacity:1" d="M829.1,97.7L843.6 149.95L844.25 164.55L829.8 112.3L829.1 97.7" />
<path style="fill:#FFFFFF;fill-opacity:1" d="M844.15,149.85L844.8 164.45L844.25 164.55L843.6 149.95L844.15 149.85" />
<path style="fill:#FFFFFF;fill-opacity:1" d="M742.2,155.8L742.85 170.4L734.8 171.4L734.05 156.8L742.2 155.8" />
<path style="fill:#FFFFFF;fill-opacity:1" d="M734.05,156.8L734.8 171.4L732.1 161.85L731.45 147.25L734.05 156.8" />
<path style="fill:#8E8E8E;fill-opacity:1" d="M850.3,152.3L850.9 166.9L844.8 164.45L844.15 149.85L850.3 152.3" />
<path style="fill:#FFFFFF;fill-opacity:1" d="M907.95,135.15L907.3 120.55L914.95 149.75L915.6 164.4L907.95 135.15" />
<path style="fill:#FFFFFF;fill-opacity:1" d="M787.05,101.05L802 154.9L802.65 169.5L787.65 115.65L787.05 101.05" />
<path style="fill:#B8B8B8;fill-opacity:1" d="M844.25,164.55L802.65 169.5L802 154.9L843.6 149.95L844.25 164.55" />
<path style="fill:#FFFFFF;fill-opacity:1" d="M802,154.9L802.65 169.5L801.85 169.6L801.2 155L802 154.9" />
<path style="fill:#FFFFFF;fill-opacity:1" d="M869.7,152.1L907.3 120.55L907.95 135.15L870.3 166.7L869.7 152.1" />
<path style="fill:#B8B8B8;fill-opacity:1" d="M801.65,156.7L802.3 171.35L793.1 172.4L792.45 157.8L801.65 156.7" />
<path style="fill:#8E8E8E;fill-opacity:1" d="M579.8,171.05L580.4 185.65L564.2 179.15L563.55 164.55L579.8 171.05" />
<path style="fill:#C4C4C4;fill-opacity:1" d="M914.95,149.75L915.6 164.4L900.8 176.85L900.1 162.2L914.95 149.75" />
<path style="fill:#C4C4C4;fill-opacity:1" d="M906.75,156.6L907.4 171.25L900.8 176.85L900.2 162.2L906.75 156.6" />
<path style="fill:#808080;fill-opacity:1" d="M854,164.45L854.6 179.1L850.9 166.9L850.3 152.3L854 164.45" />
<path style="fill:#FFFFFF;fill-opacity:1" d="M873.2,165.35L873.85 180L870.3 166.7L869.7 152.1L873.2 165.35" />
<path style="fill:#B8B8B8;fill-opacity:1" d="M900.1,162.2L900.8 176.85L873.85 180L873.2 165.35L900.1 162.2" />
<path style="fill:#8E8E8E;fill-opacity:1" d="M860.3,166.9L860.95 181.6L854.6 179.1L854 164.45L860.3 166.9" />
<path style="fill:#B8B8B8;fill-opacity:1" d="M873.2,165.35L873.85 180L860.95 181.6L860.3 166.9L873.2 165.35" />
<path style="fill:#808080;fill-opacity:1" d="M582.85,182.6L583.5 197.2L580.4 185.65L579.8 171.05L582.85 182.6" />
<path style="fill:#BDBDBD;fill-opacity:1" d="M1064.4,172.7L1060.05 177.8L1059.4 163.2L1063.75 158.05L1064.4 172.7" />
<path style="fill:#FFFFFF;fill-opacity:1" d="M773.7,190.8L761.75 147.8L761.15 133.15L773.05 176.2L773.7 190.8" />
<path style="fill:#B8B8B8;fill-opacity:1" d="M796.5,173.4L797.15 188L773.7 190.8L773.05 176.2L796.5 173.4" />
<path style="fill:#FFFFFF;fill-opacity:1" d="M735.25,124.4L648.9 196.85L648.25 182.25L734.6 109.8L735.25 124.4" />
<path style="fill:#B6B6B6;fill-opacity:1" d="M648.25,182.25L648.9 196.85L632.1 198.4L631.4 183.8L648.25 182.25" />
<path style="fill:#FFFFFF;fill-opacity:1" d="M748.7,179.1L749.3 193.7L742.85 170.4L742.2 155.8L748.7 179.1" />
<path style="fill:#B8B8B8;fill-opacity:1" d="M773.7,190.8L749.3 193.7L748.7 179.1L773.05 176.2L773.7 190.8" />
<path style="fill:#B8B8B8;fill-opacity:1" d="M748.7,179.1L749.3 193.7L748.6 193.8L747.95 179.15L748.7 179.1" />
<path style="fill:#FFFFFF;fill-opacity:1" d="M732.1,161.85L688.05 198.75L687.45 184.15L731.45 147.25L732.1 161.85" />
<path style="fill:#C4C4C4;fill-opacity:1" d="M747.95,179.15L748.6 193.8L738.15 202.55L737.5 187.95L747.95 179.15" />
<path style="fill:#FFFFFF;fill-opacity:1" d="M551.8,206.6L544.7 212.55L544.05 197.95L551.2 192L551.8 206.6" />
<path style="fill:#8E8E8E;fill-opacity:1" d="M616.8,196.05L617.4 210.65L583.5 197.2L582.85 182.6L616.8 196.05" />
<path style="fill:#C4C4C4;fill-opacity:1" d="M632.1,198.4L617.4 210.65L616.8 196.05L631.4 183.8L632.1 198.4" />
<path style="fill:#808080;fill-opacity:1" d="M907.05,183.25L907.65 197.85L904.6 186.95L903.95 172.3L907.05 183.25" />
<path style="fill:#B8B8B8;fill-opacity:1" d="M738.15,202.55L689.25 208.3L688.6 193.7L737.5 187.95L738.15 202.55" />
<path style="fill:#FFFFFF;fill-opacity:1" d="M688.6,193.7L689.25 208.3L688.05 198.75L687.45 184.15L688.6 193.7" />
<path style="fill:#FFFFFF;fill-opacity:1" d="M908.85,183.95L909.45 198.55L907.65 197.85L907.05 183.25L908.85 183.95" />
<path style="fill:#B8B8B8;fill-opacity:1" d="M688.6,193.7L689.25 208.3L680.4 209.3L679.75 194.7L688.6 193.7" />
<path style="fill:#8E8E8E;fill-opacity:1" d="M679.75,194.7L680.4 209.3L649 196.85L648.35 182.25L679.75 194.7" />
<path style="fill:#FFFFFF;fill-opacity:1" d="M544.05,197.95L595.5 218.35L596.1 232.95L544.7 212.55L544.05 197.95" />
<path style="fill:#C4C4C4;fill-opacity:1" d="M595.5,218.35L603.15 211.95L603.8 226.55L596.1 232.95L595.5 218.35" />
<path style="fill:#C4C4C4;fill-opacity:1" d="M595.5,218.35L596.1 232.95L595.4 233.65L594.7 219.05L595.5 218.35" />
<path style="fill:#FFFFFF;fill-opacity:1" d="M599.8,248.75L521.5 217.6L520.85 203L599.2 234.1L599.8 248.75" />
<path style="fill:#FFFFFF;fill-opacity:1" d="M531.9,207.4L532.5 222.05L521.5 217.6L520.85 203L531.9 207.4" />
<path style="fill:#FFFFFF;fill-opacity:1" d="M979.3,185.15L979.95 199.75L976.05 203L975.4 188.4L979.3 185.15" />
<path style="fill:#A2A2A2;fill-opacity:1" d="M1059.4,163.2L1060.05 177.8L1055.25 202.25L1054.55 187.65L1059.4 163.2" />
<path style="fill:#FFFFFF;fill-opacity:1" d="M908.85,183.95L932.95 193.5L933.55 208.15L909.45 198.55L908.85 183.95" />
<path style="fill:#FFFFFF;fill-opacity:1" d="M975.4,188.4L976.05 203L933.55 208.15L932.95 193.5L975.4 188.4" />
<path style="fill:#FFFFFF;fill-opacity:1" d="M979.3,185.15L1028.95 204.8L1029.55 219.4L979.95 199.75L979.3 185.15" />
<path style="fill:#FFFFFF;fill-opacity:1" d="M1031.8,202.45L1032.45 217.05L1029.55 219.4L1028.95 204.8L1031.8 202.45" />
<path style="fill:#FFFFFF;fill-opacity:1" d="M699,221.65L698.25 207.05L702.2 221.05L702.85 235.65L699 221.65" />
<path style="fill:#C4C4C4;fill-opacity:1" d="M1058.8,191.7L1059.4 206.35L1042.1 220.85L1041.45 206.25L1058.8 191.7" />
<path style="fill:#FFFFFF;fill-opacity:1" d="M1041.45,206.25L1042.1 220.85L1032.45 217.05L1031.8 202.45L1041.45 206.25" />
<path style="fill:#FFFFFF;fill-opacity:1" d="M719.65,228L720.25 242.6L702.85 235.65L702.2 221.05L719.65 228" />
<path style="fill:#8E8E8E;fill-opacity:1" d="M692.85,257.85L693.45 272.45L649 254.8L648.35 240.15L692.85 257.85" />
<path style="fill:#FFFFFF;fill-opacity:1" d="M650.7,241.25L651.35 255.85L648.9 254.85L648.2 240.25L650.7 241.25" />
<path style="fill:#C4C4C4;fill-opacity:1" d="M599.65,235.55L600.25 250.2L588.35 260.1L587.75 245.5L599.65 235.55" />
<path style="fill:#FFFFFF;fill-opacity:1" d="M519.05,218.25L587.75 245.5L588.35 260.1L519.7 232.85L519.05 218.25" />
<path style="fill:#FFFFFF;fill-opacity:1" d="M859.95,217.35L859.3 202.7L870.4 241.45L871.05 256.05L859.95 217.35" />
<path style="fill:#FFFFFF;fill-opacity:1" d="M844.15,259.4L833.5 223.2L832.85 208.6L843.5 244.75L844.15 259.4" />
<path style="fill:#FFFFFF;fill-opacity:1" d="M865.35,242.05L866.05 256.7L844.15 259.4L843.5 244.75L865.35 242.05" />
<path style="fill:#C4C4C4;fill-opacity:1" d="M587.75,245.5L588.35 260.1L573.55 272.55L572.85 257.95L587.75 245.5" />
<path style="fill:#FFFFFF;fill-opacity:1" d="M494.35,226.8L572.85 257.95L573.55 272.55L495 241.45L494.35 226.8" />
<path style="fill:#FFFFFF;fill-opacity:1" d="M881.6,221.95L880.95 207.3L892.35 245.2L892.95 259.85L881.6 221.95" />
<path style="fill:#FFFFFF;fill-opacity:1" d="M728.55,253.45L729.2 268.05L720.25 242.6L719.65 228L728.55 253.45" />
<path style="fill:#FFFFFF;fill-opacity:1" d="M663.35,227.65L728.55 253.45L729.2 268.05L663.95 242.25L663.35 227.65" />
<path style="fill:#FFFFFF;fill-opacity:1" d="M692.85,257.85L728.4 253.45L729 268.05L693.45 272.45L692.85 257.85" />
<path style="fill:#B8B8B8;fill-opacity:1" d="M692.85,257.85L769.35 248.4L770.05 263L693.45 272.45L692.85 257.85" />
<path style="fill:#FFFFFF;fill-opacity:1" d="M845.95,252.8L846.6 267.4L844.15 259.4L843.5 244.75L845.95 252.8" />
<path style="fill:#C4C4C4;fill-opacity:1" d="M572.85,257.95L573.55 272.55L561.95 282.3L561.3 267.7L572.85 257.95" />
<path style="fill:#FFFFFF;fill-opacity:1" d="M482.7,236.45L561.3 267.7L561.95 282.3L483.45 251.1L482.7 236.45" />
<path style="fill:#FFFFFF;fill-opacity:1" d="M856.85,257.15L857.5 271.75L846.6 267.4L845.95 252.8L856.85 257.15" />
<path style="fill:#C4C4C4;fill-opacity:1" d="M561.3,267.7L561.95 282.3L557.7 285.9L557.05 271.3L561.3 267.7" />
<path style="fill:#B8B8B8;fill-opacity:1" d="M542.25,273.1L557.05 271.3L557.7 285.9L542.9 287.7L542.25 273.1" />
<path style="fill:#FFFFFF;fill-opacity:1" d="M662.6,283.45L610.65 262.8L609.9 248.2L662 268.85L662.6 283.45" />
<path style="fill:#C4C4C4;fill-opacity:1" d="M542.25,273.1L542.9 287.7L534.7 294.55L534.05 279.95L542.25 273.1" />
<path style="fill:#FFFFFF;fill-opacity:1" d="M534.7,294.55L464.75 266.8L464.1 252.15L534.05 279.95L534.7 294.55" />
<path style="fill:#FFFFFF;fill-opacity:1" d="M641.05,295L594.3 276.45L593.7 261.8L640.35 280.4L641.05 295" />
<path style="fill:#C4C4C4;fill-opacity:1" d="M662,268.85L662.6 283.45L646.2 297.3L645.55 282.65L662 268.85" />
<path style="fill:#FFFFFF;fill-opacity:1" d="M645.55,282.65L646.2 297.3L640.85 295.1L640.25 280.5L645.55 282.65" />
<path style="fill:#8F8F8F;fill-opacity:1" d="M770.05,263L769.35 248.4L836.1 274.65L836.75 289.15L770.05 263" />
<path style="fill:#FFFFFF;fill-opacity:1" d="M836.1,274.65L856.85 257.15L857.5 271.75L836.75 289.15L836.1 274.65" />
<path style="fill:#C4C4C4;fill-opacity:1" d="M534.05,279.95L534.7 294.55L521.95 305.2L521.3 290.6L534.05 279.95" />
<path style="fill:#FFFFFF;fill-opacity:1" d="M451.4,262.8L521.3 290.6L521.95 305.2L452.05 277.45L451.4 262.8" />
<path style="fill:#C4C4C4;fill-opacity:1" d="M962.05,272.9L1041.45 206.25L1042.1 220.85L962.7 287.55L962.05 272.9" />
<path style="fill:#8E8E8E;fill-opacity:1" d="M892.35,245.2L962.05 272.9L962.7 287.55L892.95 259.85L892.35 245.2" />
<path style="fill:#C4C4C4;fill-opacity:1" d="M892.35,245.2L892.95 259.85L851.1 294.95L850.45 280.3L892.35 245.2" />
<path style="fill:#8E8E8E;fill-opacity:1" d="M836.1,274.65L850.45 280.3L851.1 294.95L836.75 289.15L836.1 274.65" />
<path style="fill:#C4C4C4;fill-opacity:1" d="M640.25,280.5L640.85 295.1L625.1 308.4L624.45 293.75L640.25 280.5" />
<path style="fill:#FFFFFF;fill-opacity:1" d="M625.1,308.4L578.45 289.8L577.7 275.15L624.45 293.75L625.1 308.4" />
<path style="fill:#C4C4C4;fill-opacity:1" d="M850.45,280.3L851.1 294.95L844.8 300.25L844.15 285.65L850.45 280.3" />
<path style="fill:#FFFFFF;fill-opacity:1" d="M638,299.15L638.6 313.8L625.1 308.4L624.45 293.75L638 299.15" />
<path style="fill:#C4C4C4;fill-opacity:1" d="M503.1,305.85L521.3 290.6L521.95 305.2L503.8 320.45L503.1 305.85" />
<path style="fill:#FFFFFF;fill-opacity:1" d="M433.15,278.05L503.1 305.85L503.8 320.45L433.8 292.7L433.15 278.05" />
<path style="fill:#C4C4C4;fill-opacity:1" d="M503.1,305.85L503.8 320.45L500.95 322.9L500.3 308.3L503.1 305.85" />
<path style="fill:#FFFFFF;fill-opacity:1" d="M416.4,307.3L415.75 292.7L471.9 314.95L472.6 329.6L416.4 307.3" />
<path style="fill:#FFFFFF;fill-opacity:1" d="M432.45,308.85L433.1 323.45L428.1 327.6L427.5 313L432.45 308.85" />
<path style="fill:#B8B8B8;fill-opacity:1" d="M477.3,325.7L476.55 311.1L500.3 308.3L500.95 322.9L477.3 325.7" />
<path style="fill:#C4C4C4;fill-opacity:1" d="M476.55,311.1L477.3 325.7L472.6 329.6L471.9 314.95L476.55 311.1" />
<path style="fill:#8E8E8E;fill-opacity:1" d="M464.2,321.45L464.85 336.05L433.1 323.45L432.45 308.85L464.2 321.45" />
<path style="fill:#C4C4C4;fill-opacity:1" d="M471.9,314.95L472.6 329.6Q468.7 332.85 464.85 336.05L464.2 321.45L471.9 314.95" />
<path style="fill:#8E8E8E;fill-opacity:1" d="M792.1,313.5L791.35 298.9L816.45 308.85L817.1 323.45L792.1 313.5" />
<path style="fill:#C4C4C4;fill-opacity:1" d="M844.8,300.25L817.1 323.45L816.45 308.85L844.15 285.65L844.8 300.25" />
<path style="fill:#FFFFFF;fill-opacity:1" d="M455.45,328.75L456.1 343.4L455.8 343.65L455.2 329.05L455.45 328.75" />
<path style="fill:#C4C4C4;fill-opacity:1" d="M638.6,313.8L608.1 339.3L607.5 324.7L638 299.15L638.6 313.8" />
<path style="fill:#8E8E8E;fill-opacity:1" d="M607.5,324.7L608.1 339.3L557.6 319.3L556.95 304.7L607.5 324.7" />
<path style="fill:#FFFFFF;fill-opacity:1" d="M533.7,330.3L534.3 344.9L532.8 340.05L532.15 325.45L533.7 330.3" />
<path style="fill:#C4C4C4;fill-opacity:1" d="M761.3,324.15L791.35 298.9L792.1 313.5L761.95 338.8L761.3 324.15" />
<path style="fill:#8E8E8E;fill-opacity:1" d="M761.3,324.15L761.95 338.8L753 335.25L752.4 320.65L761.3 324.15" />
<path style="fill:#C4C4C4;fill-opacity:1" d="M752.4,320.65L753 335.25L744 342.85L743.35 328.25L752.4 320.65" />
<path style="fill:#FFFFFF;fill-opacity:1" d="M454,362.25L384.1 334.45L383.35 319.85L453.4 347.6L454 362.25" />
<path style="fill:#C4C4C4;fill-opacity:1" d="M460.6,341.6L461.3 356.2L454 362.25L453.4 347.6L460.6 341.6" />
<path style="fill:#C4C4C4;fill-opacity:1" d="M755.3,332.9L755.9 347.55L750.4 352.15L749.75 337.5L755.3 332.9" />
<path style="fill:#FFFFFF;fill-opacity:1" d="M344.95,360L345.65 374.6L339.25 372.05L338.6 357.45L344.95 360" />
<path style="fill:#FFFFFF;fill-opacity:1" d="M590,367L534.3 344.9L533.7 330.3L589.35 352.4L590 367" />
<path style="fill:#FFFFFF;fill-opacity:1" d="M590.25,351.6L590.9 366.2L590 367L589.35 352.4L590.25 351.6" />
<path style="fill:#FFFFFF;fill-opacity:1" d="M420.55,390.4L350.55 362.6L349.9 348L419.9 375.75L420.55 390.4" />
<path style="fill:#FFFFFF;fill-opacity:1" d="M357.65,365.2L358.3 379.85L345.5 374.7L344.85 360.05L357.65 365.2" />
<path style="fill:#FFFFFF;fill-opacity:1" d="M357.65,365.2L358.3 379.85L356.65 381.2L356.05 366.55L357.65 365.2" />
<path style="fill:#C4C4C4;fill-opacity:1" d="M453.4,347.6L454 362.25L433.65 379.4L433 364.75L453.4 347.6" />
<path style="fill:#FFFFFF;fill-opacity:1" d="M433.65,379.4L363.6 351.6L363 337L433 364.75L433.65 379.4" />
<path style="fill:#FFFFFF;fill-opacity:1" d="M342.7,370.9L343.4 385.5L336.1 382.55L335.45 367.9L342.7 370.9" />
<path style="fill:#FFFFFF;fill-opacity:1" d="M356.05,366.55L356.65 381.2L348.9 387.7L348.25 373.05L356.05 366.55" />
<path style="fill:#FFFFFF;fill-opacity:1" d="M348.25,373.05L348.9 387.7L343.4 385.5L342.7 370.9L348.25 373.05" />
<path style="fill:#C4C4C4;fill-opacity:1" d="M433,364.75L433.65 379.4L420.55 390.4L419.9 375.75L433 364.75" />
<path style="fill:#8E8E8E;fill-opacity:1" d="M630.15,381.8L590.9 366.2L590.25 351.6L629.5 367.2L630.15 381.8" />
<path style="fill:#C4C4C4;fill-opacity:1" d="M633.55,363.85L634.2 378.5L630.15 381.8L629.5 367.2L633.55 363.85" />
<path style="fill:#C4C4C4;fill-opacity:1" d="M419.9,375.75L420.55 390.4L418 392.45L417.4 377.85L419.9 375.75" />
<path style="fill:#FFFFFF;fill-opacity:1" d="M577.1,385.45L514.65 360.6L513.95 346L576.45 370.8L577.1 385.45" />
<path style="fill:#C4C4C4;fill-opacity:1" d="M591.95,357.75L592.6 372.35L577.1 385.45L576.45 370.8L591.95 357.75" />
<path style="fill:#FFFFFF;fill-opacity:1" d="M324.7,386.35L325.35 400.95L324.2 396.7L323.45 382.1L324.7 386.35" />
<path style="fill:#C4C4C4;fill-opacity:1" d="M576.45,370.8L577.1 385.45L564.1 396.35L563.45 381.75L576.45 370.8" />
<path style="fill:#FFFFFF;fill-opacity:1" d="M498.7,356L563.45 381.75L564.1 396.35L499.3 370.65L498.7 356" />
<path style="fill:#FFFFFF;fill-opacity:1" d="M285.05,403.55L284.4 388.85L298.75 394.65L299.45 409.25L285.05 403.55" />
<path style="fill:#FFFFFF;fill-opacity:1" d="M298.75,394.65L311.8 383.6L312.55 398.25L299.45 409.25L298.75 394.65" />
<path style="fill:#C4C4C4;fill-opacity:1" d="M420.65,389.3L421.25 403.9L418.9 405.9L418.3 391.3L420.65 389.3" />
<path style="fill:#FFFFFF;fill-opacity:1" d="M356.05,366.55L418.3 391.3L418.9 405.9L356.65 381.2L356.05 366.55" />
<path style="fill:#FFFFFF;fill-opacity:1" d="M271.2,399.95L284.4 388.85L285.05 403.55L271.95 414.55L271.2 399.95" />
<path style="fill:#FFFFFF;fill-opacity:1" d="M271.95,414.55L241.55 402.5L240.9 387.85L271.2 399.95L271.95 414.55" />
<path style="fill:#C4C4C4;fill-opacity:1" d="M672.25,378.1L672.9 392.75L667.75 397L667.15 382.35L672.25 378.1" />
<path style="fill:#878787;fill-opacity:1" d="M667.15,382.35L667.75 397L634.2 378.5L633.55 363.85L667.15 382.35" />
<path style="fill:#C4C4C4;fill-opacity:1" d="M548.65,394.1L563.45 381.75L564.1 396.35L549.3 408.7L548.65 394.1" />
<path style="fill:#FFFFFF;fill-opacity:1" d="M483.8,368.45L548.65 394.1L549.3 408.7L484.4 383.1L483.8 368.45" />
<path style="fill:#C4C4C4;fill-opacity:1" d="M704.1,379.2L704.75 393.8L692.95 403.85L692.3 389.2L704.1 379.2" />
<path style="fill:#878787;fill-opacity:1" d="M692.3,389.2L692.95 403.85L672.9 392.75L672.25 378.1L692.3 389.2" />
<path style="fill:#C4C4C4;fill-opacity:1" d="M405.2,402.3L418.3 391.3L418.9 405.9L405.85 416.9L405.2 402.3" />
<path style="fill:#FFFFFF;fill-opacity:1" d="M335.9,374.85L405.2 402.3L405.85 416.9L336.55 389.5L335.9 374.85" />
<path style="fill:#C4C4C4;fill-opacity:1" d="M548.55,394.2L549.2 408.8L535.15 420.6L534.4 406L548.55 394.2" />
<path style="fill:#FFFFFF;fill-opacity:1" d="M469.65,380.3L534.4 406L535.15 420.6L470.25 394.9L469.65 380.3" />
<path style="fill:#C4C4C4;fill-opacity:1" d="M392.2,413.15L405.2 402.3L405.85 416.9L392.95 427.75L392.2 413.15" />
<path style="fill:#FFFFFF;fill-opacity:1" d="M324.7,386.35L392.2 413.15L392.95 427.75L325.35 400.95L324.7 386.35" />
<path style="fill:#C4C4C4;fill-opacity:1" d="M392.2,413.15L392.95 427.75L389.7 430.55L388.95 415.9L392.2 413.15" />
<path style="fill:#B8B8B8;fill-opacity:1" d="M363.25,414.75L363.9 429.35L334.3 433L333.65 418.35L363.25 414.75" />
<path style="fill:#FFFFFF;fill-opacity:1" d="M324.7,386.35L333.65 418.35L334.3 433L325.35 400.95L324.7 386.35" />
<path style="fill:#B9B9B9;fill-opacity:1" d="M388.95,415.9L389.7 430.55L372.35 432.7L371.75 418.1L388.95 415.9" />
<path style="fill:#8E8E8E;fill-opacity:1" d="M371.75,418.1L372.35 432.7L363.9 429.35L363.25 414.75L371.75 418.1" />
<path style="fill:#C4C4C4;fill-opacity:1" d="M534.4,406L535.15 420.6L520.7 432.8L520.05 418.2L534.4 406" />
<path style="fill:#FFFFFF;fill-opacity:1" d="M455.2,392.4L520.05 418.2L520.7 432.8L455.8 407L455.2 392.4" />
<path style="fill:#FFFFFF;fill-opacity:1" d="M520.05,418.2L520.7 432.8L520.15 433.15L519.5 418.55L520.05 418.2" />
<path style="fill:#878787;fill-opacity:1" d="M704.75,393.8L704.1 379.2L763.05 411.25L763.65 425.85L704.75 393.8" />
<path style="fill:#C7C7C7;fill-opacity:1" d="M763.05,411.25L819.8 372.15L820.5 386.8L763.65 425.85L763.05 411.25" />
<path style="fill:#C4C4C4;fill-opacity:1" d="M519.5,418.55L520.15 433.15L505.45 445.7L504.8 431.1L519.5 418.55" />
<path style="fill:#FFFFFF;fill-opacity:1" d="M433.55,402.75L504.8 431.1L505.45 445.7L434.15 417.35L433.55 402.75" />
<path style="fill:#C4C4C4;fill-opacity:1" d="M326.1,439.2L335.65 431.15L336.25 445.8L326.7 453.8L326.1 439.2" />
<path style="fill:#B5B5B5;fill-opacity:1" d="M326.1,439.2L326.7 453.8L275.65 457.5L275 442.9L326.1 439.2" />
<path style="fill:#FFFFFF;fill-opacity:1" d="M397.55,451.9L398.15 466.55L393.65 451.4L393 436.75L397.55 451.9" />
<path style="fill:#8E8E8E;fill-opacity:1" d="M172.35,433.5L239.1 460.05L239.75 474.65L173.05 448.15L172.35 433.5" />
<path style="fill:#FFFFFF;fill-opacity:1" d="M239.1,460.05L275 442.9L275.65 457.5L239.75 474.65L239.1 460.05" />
<path style="fill:#FFFFFF;fill-opacity:1" d="M410.15,422.4L481.35 450.55L482 465.2L410.8 437.05L410.15 422.4" />
<path style="fill:#C4C4C4;fill-opacity:1" d="M535.6,424.95L536.2 439.55L498.05 471.6L497.4 457L535.6 424.95" />
<path style="fill:#8E8E8E;fill-opacity:1" d="M497.4,457L498.05 471.6L482 465.2L481.35 450.55L497.4 457" />
<path style="fill:#FFFFFF;fill-opacity:1" d="M388.25,459.75L439.95 480.25L440.55 494.85L388.85 474.4L388.25 459.75" />
<path style="fill:#8E8E8E;fill-opacity:1" d="M444.2,481.8L444.9 496.4L440.75 494.7L440.05 480.05L444.2 481.8" />
<path style="fill:#C4C4C4;fill-opacity:1" d="M482,465.3L444.9 496.4L444.2 481.8L481.25 450.65L482 465.3" />
<path style="fill:#FFFFFF;fill-opacity:1" d="M312.55,476.35L232.05 512.55L231.45 497.95L311.9 461.75L312.55 476.35" />
<path style="fill:#FFFFFF;fill-opacity:1" d="M190.9,496.2L190.3 481.6L231.45 497.95L232.05 512.55L190.9 496.2" />
<path style="fill:#FFFFFF;fill-opacity:1" d="M428.85,504.6L379.85 485.2L379.2 470.6L428.2 490L428.85 504.6" />
<path style="fill:#C4C4C4;fill-opacity:1" d="M428.2,490L439.95 480.25L440.55 494.85L428.85 504.6L428.2 490" />
<path style="fill:#FFFFFF;fill-opacity:1" d="M296.65,498.05L345.4 475.1L346 489.75L297.3 512.65L296.65 498.05" />
<path style="fill:#C4C4C4;fill-opacity:1" d="M428.2,490L428.85 504.6L422.6 509.95L422 495.3L428.2 490" />
<path style="fill:#858585;fill-opacity:1" d="M401.7,496.5L402.3 511.1L378.25 496.5L377.5 481.9L401.7 496.5" />
<path style="fill:#B3B3B3;fill-opacity:1" d="M422.6,509.95L402.3 511.1L401.7 496.5L422 495.3L422.6 509.95" />
<path style="fill:#FFFFFF;fill-opacity:1" d="M364.05,500.45Q344.95 509.05 325.8 517.6L325.1 503L363.45 485.85L364.05 500.45" />
<path style="fill:#818181;fill-opacity:1" d="M325.1,503L325.8 517.6L324 516.05L323.35 501.45L325.1 503" />
<path style="fill:#C7C7C7;fill-opacity:1" d="M323.35,501.45L324 516.05L310.4 522.5L309.75 507.85L323.35 501.45" />
<path style="fill:#FFFFFF;fill-opacity:1" d="M309.75,507.85L310.4 522.5L297.3 512.65L296.65 498.05L309.75 507.85" />
<path style="fill:#818181;fill-opacity:1" d="M334.65,525.1L325.8 517.6L325.1 503L333.95 510.5L334.65 525.1" />
<path style="fill:#C6C6C6;fill-opacity:1" d="M339.6,508.2L340.25 522.85L334.65 525.1L333.95 510.5L339.6 508.2" />
<path style="fill:#868686;fill-opacity:1" d="M349.2,513.9L349.8 528.5L340.25 522.85L339.6 508.2L349.2 513.9" />
<path style="fill:#FFFFFF;fill-opacity:1" d="M378.15,495.5L378.85 510.1L349.8 528.5L349.2 513.9L378.15 495.5" />
<path style="fill:#FFFFFF;fill-opacity:1" d="M232.05,512.55L165.55 542.5L164.95 527.9L231.45 497.95L232.05 512.55" />
<path style="fill:#868686;fill-opacity:1" d="M366.05,523.85L366.7 538.55L349.8 528.5L349.2 513.9L366.05 523.85" />
<path style="fill:#C7C7C7;fill-opacity:1" d="M393.95,504.8L394.55 519.4L366.7 538.55L366.05 523.85L393.95 504.8" />
<path style="fill:#FFFFFF;fill-opacity:1" d="M164.95,527.9L165.55 542.5L148.05 557.2L147.35 542.6L164.95 527.9" />
<path style="fill:#8E8E8E;fill-opacity:1" d="M147.35,542.6L148.05 557.2L123.9 547.65L123.25 533.05L147.35 542.6" />
<path style="fill:#8E8E8E;fill-opacity:1" d="M211.65,553.8L212.3 568.4L206.6 566.15L206 551.55L211.65 553.8" />
<path style="fill:#C7C7C7;fill-opacity:1" d="M310.4,522.5L212.3 568.4L211.65 553.8L309.75 507.85L310.4 522.5" />
<path style="fill:#C4C4C4;fill-opacity:1" d="M206,551.55L206.6 566.15L195.05 575.9L194.35 561.3L206 551.55" />
<path style="fill:#8E8E8E;fill-opacity:1" d="M195.05,575.9L148.05 557.2L147.35 542.6L194.35 561.3L195.05 575.9" />
</g>
</svg>
