<?xml version="1.0" encoding="utf-8"?>
<svg version="1.1" id="Layer_1"
xmlns="http://www.w3.org/2000/svg"
xmlns:xlink="http://www.w3.org/1999/xlink"
xmlns:author="http://www.sothink.com"
width="583px" height="391px"
xml:space="preserve">
<g id="56" transform="matrix(1, 0, 0, 1, 4.65, 35.9)">
<path style="fill:#000000;fill-opacity:1" d="M577.7,92.95L575.35 95.8L573.95 102.85L574.6 103.5L574.95 111.6L521.35 156.6L514.65 153.9L459.65 195.4L462.6 196.6L445.7 209.2L442.35 207.55L442.55 211.6L411.05 233.25L378.4 215.5L371.85 221L360.75 214.85L357.9 217.25L339.3 206.95L337.1 208.85L316.15 200.5L316.25 203.6L292.25 223.75L292.2 223.7L292.2 223.8L282.55 231.9L284.65 232.75L284.85 236.8L297.65 226.05L356.05 264.8L299.25 292.8L302.5 294.25L289.45 299.2L274.75 300.2L262.25 298.85L231.65 284.85L229.95 278.65L234.6 274.75L245.6 273.4L262.05 259.55L259 258.35L260.2 257.25L254.45 255.05L253.95 255.05L233.9 272.3L232.1 271.4L232 271.5L222.05 279.8L210.8 280.5L207.45 278.45L206.25 279.2L206.5 284.3L243.1 300.8L213.55 321.75L217.8 327.65L203.3 339.8L184.75 351.15L152.85 355.05L106.35 332.05L105.2 327.75L124.75 315.3L163.15 338.55L165.3 337.5L163.95 336L168.6 333.7L150.85 320.7L161.5 315.2L185.85 331.55L188.35 330.25L174.45 320.35Q176.4 319.05 178.3 317.7L174.95 315.8L178.55 313L175.05 311.45L169.45 315.15L148.65 304.95L174.1 287.9L173.3 288.2L167.4 283.25L105.55 312.25L102.35 311L95.95 316.4L56.5 300.7L56.35 296.7L52.6 299.8L45.2 296.9L44.4 293.9L45.75 292.7L34.05 288.05L32.85 289.1L26.95 289.85L1.25 279.6L0 275.1L8.65 267.85L22.95 266.1L31 259.4L28.65 258.45L35.75 252.5L60 262.15L68.15 255.25L51.55 248.7L54.35 246.35L95.15 262.55L98.4 259.85L100.9 260.85L111.55 256.65L83.75 245.6L83.55 241.6L77.45 246.75L63.35 241.15Q61.8 240.45 61.9 239.5Q61.95 238.9 62.6 238.4L62.75 238.25L71.25 231.15L68.25 229.95Q66.65 229.4 66.75 228.45Q66.85 227.6 68.4 226.25Q70.1 224.85 74.2 222.45L82.5 217.8Q94.6 211.05 99.6 206.8Q104.6 202.6 105.7 199.05Q106.2 197.5 107.25 196.7Q109.4 194.85 113.75 195.4Q116.25 195.75 117.9 196.45L127.25 200.15L131.4 196.65L158 207.25L156.75 208.3L160.7 209.85L161.55 213.85L167.3 212.95L167.15 209L173.9 205L173.75 201.15L175.7 199.5L175.5 195.3L270.05 115.55L275.55 117.25L273.95 117.25L273.95 118.2L275.95 117.05L275.95 109.75L274.95 109.75L283.35 103.3L287.5 104.65L303.85 101.75L309.2 103.9L310.25 103L309.5 100.1L300.5 96.55L300.35 92.5L298.2 94.3L213.15 60.55L223.6 51.75L229.15 53.95L248.9 37.35L246.55 36.45L270.35 16.75L272.7 17.65L285.05 7.3Q295.6 -1.55 309.05 0.3Q315.9 1.25 321.2 4.3L324.15 1.85L356.45 14.65L354 16.75L359.3 18.85L367.15 12.25L370.1 13.45L372.3 11.65L417.55 31.25L417.75 35.05L417.85 35.65L418 38.2L419.3 38.7L419.65 46.8L415.85 50L423.8 53.15L424 53.25L426.95 54.4L430.85 53.95L431.4 56L439.9 55L439.8 52.3L457.2 50.2L457.25 50.4L457.35 50.25L577.35 84.85L577.7 92.95" />
<path style="fill:#000000;fill-opacity:1" d="M246.9,83.6L243.55 86.45L246.3 87.5L245.9 87.9L242.45 86.5L246.2 83.35L246.9 83.6" />
<path style="fill:#000000;fill-opacity:1" d="M254.5,86.6L250.8 87.05L250.8 89.85L249.95 89.5L249.95 87.15L248.5 87.3L247.2 88.4L246.5 88.1L250.25 84.95L250.95 85.2L249.05 86.8L253.6 86.25L254.5 86.6" />
<path style="fill:#000000;fill-opacity:1" d="M266.85,91.55L266.65 93.65L269.95 92.75L270.75 93.05L266.5 94.15L264.95 95.45L264.3 95.2L265.85 93.9L266.05 91.2L266.85 91.55" />
<path style="fill:#000000;fill-opacity:1" d="M215.75,122.6L216.75 122.55L217.9 121.95Q219.55 121.15 220.6 121.55Q221.35 121.85 221.3 122.4Q221.25 122.9 220.65 123.4Q219.05 124.7 217.25 124L217.75 123.6Q219.05 124.15 220.1 123.15Q221.05 122.3 220.1 121.95Q219.4 121.7 217.9 122.6L216.65 123.15L215.3 123.05Q214.55 122.75 214.55 122.25Q214.6 121.8 215.15 121.3Q216.5 120.15 218.2 120.8L217.7 121.2Q216.5 120.85 215.7 121.55Q214.85 122.3 215.75 122.6" />
<path style="fill:#000000;fill-opacity:1" d="M226.3,123.45Q225.5 124.15 226.35 124.55L227.35 124.45L228.5 123.9Q230.1 123 231.2 123.45Q231.95 123.75 231.9 124.35L231.3 125.3Q229.75 126.65 227.9 125.9L228.35 125.5Q229.65 126 230.7 125.05Q231.7 124.3 230.7 123.9Q230.25 123.7 229.65 123.9L228.5 124.5Q226.95 125.4 225.9 124.95Q225.15 124.65 225.15 124.15Q225.2 123.7 225.75 123.2Q227.15 122.1 228.8 122.7L228.3 123.1Q227.25 122.75 226.3 123.45" />
<path style="fill:#000000;fill-opacity:1" d="M221.3,127.1L227.55 127.1L223.3 125.4L223.8 125L229 127.1L228.45 127.55L222.3 127.55L226.45 129.2L226 129.6L220.8 127.55L221.3 127.1" />
<path style="fill:#000000;fill-opacity:1" d="M213.3,129.45L210.7 131.65L205.5 129.55L208.1 127.35L208.65 127.6L206.55 129.35L208.2 130.05L210.2 128.4L210.75 128.6L208.8 130.25L210.6 131L212.7 129.2L213.3 129.45" />
<path style="fill:#000000;fill-opacity:1" d="M214.9,133.2L218.95 134.8L219.8 134.1Q221.1 133 219 132.2Q217.05 131.4 215.75 132.45L214.9 133.2M215.15,132.3Q216.9 130.75 219.4 131.75Q222.15 132.85 220.35 134.35L219.05 135.45L213.85 133.35L215.15 132.3" />
<path style="fill:#000000;fill-opacity:1" d="M210.9,140.3L212.05 141.3L211.55 141.75L207.8 138.4L208.35 137.95L215.05 138.8L214.5 139.25L212.5 138.95L210.9 140.3M211.75,138.9L208.7 138.45L210.5 139.95L211.75 138.9" />
<path style="fill:#000000;fill-opacity:1" d="M237.1,84.4L242.9 82L243.65 82.3L241.9 86.3L241.15 86L241.7 84.8L239.5 83.95L237.8 84.65L237.1 84.4M241.95,84.35L242.85 82.55L242.8 82.55L240.15 83.65L241.95 84.35" />
<path style="fill:#000000;fill-opacity:1" d="M252.2,90.4L254.65 86.7L255.35 86.95L253.25 90L257.55 87.85L258.3 88.15L256.3 91.25L260.55 89L261.2 89.3L256.05 91.9L255.35 91.65L257.3 88.5L252.9 90.65L252.2 90.4" />
<path style="fill:#000000;fill-opacity:1" d="M261.55,94.1L262.1 92.9L259.9 92.05L258.2 92.75L257.45 92.5L263.3 90.1L264.05 90.4L262.3 94.4L261.55 94.1M260.55,91.75L262.3 92.45L263.2 90.65L260.55 91.75" />
<path style="fill:#000000;fill-opacity:1" d="M212.55,123.65L213.15 123.15L213.95 123.45Q215 123.95 214.45 124.35L214.05 124.25Q214.4 123.9 213.65 123.7L213.35 123.95L212.55 123.65" />
<path style="fill:#000000;fill-opacity:1" d="M216.35,126.85L210.2 126.85L214.4 128.5L213.9 128.9L208.7 126.85L209.25 126.4L215.45 126.4L211.25 124.75L211.7 124.35L216.9 126.4L216.35 126.85" />
<path style="fill:#000000;fill-opacity:1" d="M220.15,128.05L220.75 128.3L218.65 130.05L220.3 130.7L222.25 129.05L222.85 129.3L220.9 130.95L222.7 131.65L224.8 129.9L225.4 130.1L222.75 132.3L217.55 130.25L220.15 128.05" />
<path style="fill:#000000;fill-opacity:1" d="M205.45,130.3L203.35 132.1L205 132.75L206.95 131.1L207.55 131.3L205.55 133L207.35 133.7L209.5 131.9L210.1 132.15L207.45 134.35L202.25 132.3L204.85 130.1L205.45 130.3" />
<path style="fill:#000000;fill-opacity:1" d="M204.25,134.7L200.95 133.35L201.45 132.95L204.75 134.25Q206.75 135.05 205.3 136.3Q203.75 137.6 201.75 136.8L198.4 135.5L198.9 135.1L202.25 136.4Q203.7 136.95 204.7 136.1Q205.7 135.25 204.25 134.7" />
<path style="fill:#000000;fill-opacity:1" d="M215.15,135.55L216.8 135.5L218.45 135.9L217.9 136.4L216.5 136L214.9 136.15L213.7 137.15L215.9 138.05L215.4 138.5L210.2 136.4L212 134.9Q213.15 133.95 214.5 134.5Q215.6 134.9 215.15 135.55M214.1,134.95Q213.2 134.6 212.55 135.15L211.3 136.2L213.1 136.95L214.15 136.05Q215.05 135.35 214.1 134.95" />
<path style="fill:#000000;fill-opacity:1" d="M203.15,138.5L201.95 138.75Q201.85 139.25 201.35 139.6Q200.5 140.35 199.15 140.45L196.8 140.05Q195.7 139.6 195.4 138.9Q195.05 138.15 195.9 137.45Q196.75 136.75 198.1 136.65Q199.3 136.55 200.4 137Q201.75 137.6 201.9 138.35L202.95 138.1L203.15 138.5M200.25,139.05L200.1 138.7L201.15 138.5Q201 137.9 199.9 137.45Q197.75 136.6 196.45 137.7Q195.8 138.25 196.15 138.8Q196.45 139.3 197.3 139.65Q199.45 140.5 200.75 139.4L201.15 138.9L200.25 139.05" />
<path style="fill:#000000;fill-opacity:1" d="M210.95,142.25L210.15 142.1Q210.5 142.75 209.7 143.4Q208.9 144.1 207.6 144.2L205.3 143.9Q204.1 143.45 203.75 142.75Q203.4 141.95 204.25 141.25Q205.7 140.05 207.6 140.55L207.1 141Q205.8 140.65 204.85 141.5Q204.2 142.05 204.55 142.6Q204.85 143.1 205.75 143.45L207.55 143.75Q208.55 143.7 209.15 143.2Q209.7 142.75 209.55 142.25Q209.4 141.75 208.65 141.5L207.45 142.5L206.85 142.25L208.5 140.9L211.25 141.95L210.95 142.25" />
<path style="fill:#FFFFFF;fill-opacity:1" d="M570.7,59.9L569.3 66.95L569.95 67.6L570.3 75.7L516.7 120.7L510 118L455 159.5L457.95 160.7L441.05 173.3L437.7 171.65L437.9 175.7L406.4 197.35L373.75 179.6L367.2 185.1L356.1 178.95L353.25 181.35L334.65 171.05L332.45 172.95L311.5 164.6L311.6 167.7L287.6 187.85L287.55 187.8L287.55 187.9L277.9 196L280 196.85L280.2 200.9L293 190.15L351.4 228.9L294.6 256.9L297.85 258.35L284.8 263.3L270.1 264.3L257.6 262.95L227 248.95L225.3 242.75L229.95 238.85L240.95 237.5L257.4 223.65L254.35 222.45L255.55 221.35L249.8 219.15L249.3 219.15L229.25 236.4L227.45 235.5L227.35 235.6L217.4 243.9L206.15 244.6L202.8 242.55L201.6 243.3L201.85 248.4L238.45 264.9L208.9 285.85L213.15 291.75L198.65 303.9L180.1 315.25L148.2 319.15L101.7 296.15L100.55 291.85Q110.35 285.65 120.1 279.4L158.5 302.65L160.65 301.6L159.3 300.1L163.95 297.8L146.2 284.8L156.85 279.3L181.2 295.65L183.7 294.35L169.8 284.45L173.65 281.8L170.3 279.9L173.9 277.1L170.4 275.55L164.8 279.25L144 269.05L169.45 252L168.65 252.3L162.75 247.35L100.9 276.35L97.7 275.1L91.3 280.5L51.85 264.8L51.7 260.8L47.95 263.9L40.55 261L39.75 258L41.1 256.8L29.4 252.15L28.2 253.2L22.3 253.95L-3.4 243.7L-4.65 239.2L4 231.95L18.3 230.2L26.35 223.5L24 222.55L31.1 216.6L55.35 226.25L63.5 219.35L46.9 212.8L49.7 210.45L90.5 226.65L93.75 223.95L96.25 224.95L106.9 220.75L79.1 209.7L78.9 205.7L72.8 210.85L58.7 205.25Q57.15 204.55 57.25 203.6Q57.3 203 57.95 202.5L58.1 202.35L66.6 195.25L63.6 194.05Q62 193.5 62.1 192.55Q62.2 191.7 63.75 190.35Q65.45 188.95 69.55 186.55L77.85 181.9Q89.95 175.15 94.95 170.9Q99.95 166.7 101.05 163.15Q101.55 161.6 102.6 160.8Q104.75 158.95 109.1 159.5Q111.6 159.85 113.25 160.55L122.6 164.25L126.75 160.75L153.35 171.35L152.1 172.4L156.05 173.95L156.9 177.95L162.65 177.05L162.5 173.1L169.25 169.1L169.1 165.25L171.05 163.6L170.85 159.4L265.4 79.65L270.9 81.35L269.3 81.35L269.3 82.3L271.3 81.15L271.3 73.85L270.3 73.85L278.7 67.4L282.85 68.75L299.2 65.85L304.55 68L305.6 67.1L304.85 64.2L295.85 60.65L295.7 56.6L293.55 58.4L208.5 24.65L218.95 15.85L224.5 18.05L244.25 1.45L241.9 0.55L265.7 -19.15L268.05 -18.25L280.4 -28.6Q290.95 -37.45 304.4 -35.6Q311.25 -34.65 316.55 -31.6L319.5 -34.05L351.8 -21.25L349.35 -19.15L354.65 -17.05L362.5 -23.65L365.45 -22.45L367.65 -24.25L412.9 -4.65L413.1 -0.85L413.2 -0.25L413.35 2.3L414.65 2.8L415 10.9L411.2 14.1L419.15 17.25L419.35 17.35L422.3 18.5L426.2 18.05L426.75 20.1L435.25 19.1L435.15 16.4L452.55 14.3L452.6 14.5L452.7 14.35L572.7 48.95L573.05 57.05L570.7 59.9" />
</g>
</svg>
