<?xml version="1.0" encoding="utf-8"?>
<svg version="1.1" id="Layer_1"
xmlns="http://www.w3.org/2000/svg"
xmlns:xlink="http://www.w3.org/1999/xlink"
xmlns:author="http://www.sothink.com"
width="357px" height="196px"
xml:space="preserve">
<g id="58" transform="matrix(1, 0, 0, 1, 0, 0)">
<path style="fill:#D8D8D8;fill-opacity:1" d="M182.5,112.95L183.65 113.25L181.05 115.4L146.45 101.7L132.25 113.6L129.35 114.45L104.7 135.1L98.7 135.8L70.95 159.1L73.4 167.55L63.55 175.8L62.35 184.1L75.75 192.2L69.6 195.9L55.25 187.45L51.5 183.25L23.3 172.05L22.1 165.7L3 167.1L0 164.85L5.35 162.45L33.6 160.4L38.85 156L38.75 154.15L30.25 150.75L25.7 129.7L32.35 128.7L37.95 148.85L54.3 146.8L59 148.65L68.45 147.45L85.95 132.8L84.15 126.45L108.1 106.3L105.1 99.4L97.05 96.05L96.15 93.1L89.7 90.5L92.6 88.1L110.2 95.1L117.05 89.4L130.15 87.8L153.4 68.3L161.6 67.3L185.15 47.6L182.4 38.4L187.1 34.5L185.35 28.2L170.85 22.4L175.95 18.15L194.75 25.6L202.85 18.8L212.3 18L229.7 24.9L261.6 21.15L267.4 16.3L294.25 13.05L291.95 4.45L297.05 3.85L296.8 2.9L320.8 0L324.3 1.4L326.35 8.15L329.75 9.5L351.75 6.85L355.6 3.65L356.15 10.8L354.05 12.55L355.7 18.6L356.8 19L341.1 32.15L340.05 28.05L337.8 27.15L331.05 27.95L329.3 29.45L335.45 50.9L332.45 51.25L326.75 31.05L314.2 32.65L313.5 30.35L302.6 31.9L297.9 30.05L261.65 34.55L251.3 30.45L233.15 32.75L212.4 50.15L213.9 50.8L200.75 51.8L196.5 50.1L173.2 69.65L173.2 76.3L148 97.4L148.8 100.05L157.35 103.45L148.6 100.15L147.75 97.4L172.95 76.25L172.95 69.6L196.45 49.9L200.8 51.65L213.2 50.7L212 50.2L233 32.6L251.35 30.3L261.7 34.4L297.95 29.9L302.65 31.75L313.7 30.15L314.4 32.45L326.95 30.85L332.65 51.1L335.2 50.8L329.05 29.4L330.9 27.8L337.85 27L340.3 27.95L341.3 31.75L356.45 19.05L355.5 18.65L353.8 12.55L355.9 10.75L355.35 4.1L351.9 7L329.7 9.65L326.1 8.25L324.05 1.5L320.75 0.2L297.1 3L297.35 3.95L292.25 4.55L294.55 13.2L267.55 16.4L261.75 21.3L229.6 25.05L212.25 18.15L202.95 18.95L194.8 25.8L176 18.35L171.2 22.35L185.6 28.1L187.35 34.5L182.7 38.45L185.4 47.6L161.75 67.45L153.55 68.45L130.3 87.95L117.15 89.5L110.25 95.3L92.65 88.3L90.05 90.5L96.4 93L97.25 95.95L105.55 99.25L108.4 106.35L84.4 126.45L86.2 132.85L68.6 147.6L58.95 148.8L54.25 146.95L37.75 149L32.15 128.9L25.95 129.7L30.5 150.65L39 154.05L39.1 156L33.75 160.5L5.4 162.6L0.35 164.9L3.1 166.95L22.3 165.55L23.5 171.95L51.7 183.15L55.45 187.35L69.6 195.7L75.4 192.2L62.05 184.15L63.3 175.75L73.15 167.5L70.65 159.05L98.55 135.7L104.55 134.95L129.15 114.3L132.1 113.5L146.4 101.45L181 115.2L183.3 113.3L182.5 112.95L179.55 112.25L162.9 105.6L182.5 112.95" />
<path style="fill:#DADADA;fill-opacity:1" d="M355.35,4.1L355.9 10.75L353.8 12.55L355.5 18.65L356.45 19.05L341.3 31.75L340.3 28L337.85 27L330.95 27.8L329.05 29.4L335.2 50.8L332.65 51.1L327 30.95L314.4 32.45L313.7 30.25L302.65 31.75L298 29.9L261.7 34.4L251.35 30.3L233.05 32.6L212 50.2L213.2 50.7L200.8 51.65L196.45 49.9L172.95 69.6L172.95 76.25L147.75 97.4L148.6 100.1L179.6 112.45L183.3 113.3L181 115.2L146.4 101.45L132.1 113.5L129.3 114.3L104.55 134.95L98.6 135.65L70.65 159.05L73.15 167.5L63.3 175.75L62.05 184.1L75.4 192.2L69.6 195.7L55.45 187.35L51.7 183.15L23.5 171.95L22.35 165.65L3.1 166.95L0.35 164.9L5.4 162.6L33.7 160.5L39.1 156L39 154.1L30.5 150.65L25.95 129.7L32.15 128.9L37.75 148.95L54.25 146.95L58.95 148.8L68.55 147.6L86.2 132.85L84.4 126.45L108.4 106.35L105.4 99.4L97.25 95.95L96.4 93L90.05 90.5L92.65 88.3L110.25 95.3L117.15 89.5L130.25 87.95L153.55 68.45L161.75 67.45L185.4 47.6L182.7 38.45L187.35 34.5L185.6 28.1L171.2 22.35L176 18.35L194.8 25.8L202.95 18.95L212.25 18.15L229.6 25.05L261.7 21.3L267.55 16.4L294.55 13.2L292.25 4.55L297.35 3.95L297.1 3L320.75 0.2L324.05 1.5L326.1 8.2L329.7 9.65L351.85 7L355.35 4.1" />
</g>
</svg>
