<?xml version="1.0" encoding="utf-8"?>
<svg version="1.1" id="Layer_1"
xmlns="http://www.w3.org/2000/svg"
xmlns:xlink="http://www.w3.org/1999/xlink"
xmlns:author="http://www.sothink.com"
width="1048px" height="646px"
xml:space="preserve">
<g id="57" transform="matrix(1, 0, 0, 1, -19.05, -2.4)">
<path style="fill:none;stroke-width:5;stroke-linecap:butt;stroke-linejoin:miter;stroke-miterlimit:4;stroke:#00FEB5;stroke-opacity:1" d="M665.15,31.5L606.85 8.3L601.55 12.7Q591.95 7.2 579.6 5.5Q555.35 2.15 536.3 18.1L514 36.8L509.8 35.2L466.85 70.7L471.05 72.45L435.45 102.3L425.4 98.35L406.55 114.2L560.05 175.2L563.9 171.95L564.2 179.15L580.4 185.65L581.75 190.8L579.9 192.45L570.25 188.55L540.7 193.8L531.25 192.7L519.15 200.75L520.5 218.15L506 214.35L463.65 252.15L338.6 357.45L339 365.05L335.45 367.9L335.75 374.95L323.45 382.1L323.8 389.2L323.65 389.3L313.45 390.85L311.8 383.6L304.8 380.85L307.05 378.95L259.05 359.9L251.55 366.2L234.7 359.45Q231.15 358.2 227.2 357.65Q219.35 356.55 215.35 359.9Q213.5 361.5 212.65 364.15Q210.7 370.55 201.65 378.1Q192.65 385.8 170.8 397.95L155.8 406.35Q148.45 410.7 145.35 413.3Q139.65 418 145.1 419.9L150.5 422.05L135.15 434.85L134.9 435.15Q133.7 436.15 133.55 437.15Q133.35 438.85 136.25 440.2L161.7 450.2L172.7 441L173.05 448.15L223.2 468.05L204 475.65L199.5 473.95L193.65 478.7L120 449.5L114.95 453.75L144.9 465.65L130.1 478L86.45 460.6L73.65 471.3L77.85 473.05L63.35 485.2L37.55 488.35L21.95 501.45L24.2 509.6L70.55 528L81.2 526.65L83.35 524.8L104.5 533.2L102.05 535.3L103.5 540.7L116.85 546.05L123.6 540.35L123.9 547.65L195.05 575.9L206.6 566.15L212.3 568.4L324 516.05L334.65 525.1L336.1 524.45L290.15 555.3L327.6 573.65L337.8 566.95L344.05 569.85L337.55 574.8L343.65 578.25L336.7 583.1L361.8 600.95L357.3 603.3L313.35 573.8L294.15 583.75L326.15 607.1L317.8 611.35L320.2 614.05L316.25 615.85L247.05 573.9L211.75 596.35L213.85 604.15L297.75 645.75L355.3 638.6L388.8 618.2L414.95 596.2L407.2 585.65L460.6 547.75L394.45 518.05L394.1 508.75L396.25 507.5L402.3 511.1L422.6 509.95L440.55 494.85L440.75 494.7L437.6 496.4L467.45 465.3L467.45 465.2L474.7 465.2L488.3 469.15L487.75 471.15L494 473.3L464.65 498.3L445 500.75L436.8 507.75L439.95 518.95L495.05 544.3L517.7 546.75L544.25 544.85L567.8 535.9L561.95 533.3L664.4 482.85L559.05 412.85L535.95 432.25L535.6 424.95L531.8 423.4L549.2 408.8L549.2 408.7L549.3 408.7L592.6 372.35L592.35 366.85L630.15 381.8L634.2 378.5L667.75 397L672.9 392.75L692.95 403.85L704.75 393.8L763.65 425.85L820.5 386.8L820.15 379.45L826.2 382.45L856.7 359.7L851.35 357.65L950.5 282.75L962.7 287.55L1059.4 206.35L1058.8 191.7L1057.55 190.55L1060.05 177.8L1064.4 172.7L1063.75 158.05L847.2 95.7L847.05 95.9L846.95 95.65L815.45 99.35L815.75 104.2L800.4 106.1L799.4 102.3L792.35 103.2L787.05 101.05L786.65 100.85L772.35 95.2L779.2 89.4L778.55 74.8L776.1 73.9L775.95 69.35L775.75 68.2L775.4 61.35L693.65 25.95L689.75 29.2L684.45 27.15L670.3 38.95L660.65 35.2L665.15 31.5z" />
</g>
</svg>
