<?xml version="1.0" encoding="utf-8"?>
<svg version="1.1" id="Layer_1"
xmlns="http://www.w3.org/2000/svg"
xmlns:xlink="http://www.w3.org/1999/xlink"
xmlns:author="http://www.sothink.com"
width="521px" height="297px"
xml:space="preserve">
<g id="60" transform="matrix(1, 0, 0, 1, -332.7, -63)">
<path style="fill:none;stroke-width:0.5;stroke-linecap:butt;stroke-linejoin:round;stroke-miterlimit:3;stroke:#B2B2B2;stroke-opacity:1" d="M501.3,222.1L507.7 224.65L508.55 227.6L516.8 230.85L516.65 231L519.65 237.9L515.65 241.25L476.9 225.9L494.8 210.9L525.85 223.2L521.6 226.8L504 219.8L501.3 222.1z" />
<path style="fill:none;stroke-width:0.5;stroke-linecap:butt;stroke-linejoin:round;stroke-miterlimit:3;stroke:#B2B2B2;stroke-opacity:1" d="M476.9,225.9L515.65 241.25L504.35 250.75L465.6 235.35L476.9 225.9z" />
<path style="fill:none;stroke-width:0.5;stroke-linecap:butt;stroke-linejoin:round;stroke-miterlimit:3;stroke:#B2B2B2;stroke-opacity:1" d="M457.45,255.35L450.35 252.5L455.55 248.15L462.65 251L457.45 255.35z" />
<path style="fill:none;stroke-width:0.5;stroke-linecap:butt;stroke-linejoin:round;stroke-miterlimit:3;stroke:#B2B2B2;stroke-opacity:1" d="M465.6,235.35L504.35 250.75L497.1 256.85L458.35 241.45L465.6 235.35z" />
<path style="fill:none;stroke-width:0.5;stroke-linecap:butt;stroke-linejoin:round;stroke-miterlimit:3;stroke:#B2B2B2;stroke-opacity:1" d="M449.35,280.45L444.4 262.7L481.8 277.55L480 279.05L470.4 280.25L465.75 278.4L449.35 280.45z" />
<path style="fill:none;stroke-width:0.5;stroke-linecap:butt;stroke-linejoin:round;stroke-miterlimit:3;stroke:#B2B2B2;stroke-opacity:1" d="M375.1,311.15L377.6 312.15L393.65 305.8L396.7 307L414.6 298.5L433.7 297.15L434.9 303.45L437.3 304.45L392.8 324.45L370 315.4L375.1 311.15z" />
<path style="fill:none;stroke-width:0.5;stroke-linecap:butt;stroke-linejoin:round;stroke-miterlimit:3;stroke:#B2B2B2;stroke-opacity:1" d="M458.35,241.45L497.1 256.85L495.7 258L497.5 264.35L496.2 265.45L461.75 251.75L462.65 251L455.55 248.15L455.6 248.1L452.1 246.7L458.35 241.45z" />
<path style="fill:none;stroke-width:0.5;stroke-linecap:butt;stroke-linejoin:round;stroke-miterlimit:3;stroke:#B2B2B2;stroke-opacity:1" d="M414.85,270.2L398.05 263.55L412.55 251.35L437.3 261.2L430.05 267.25L422.1 264.1L414.85 270.2z" />
<path style="fill:none;stroke-width:0.5;stroke-linecap:butt;stroke-linejoin:round;stroke-miterlimit:3;stroke:#B2B2B2;stroke-opacity:1" d="M461.75,251.75L496.2 265.45L488.95 271.55L450.6 256.35L454.35 254.15L457.45 255.35L461.75 251.75z" />
<path style="fill:none;stroke-width:0.5;stroke-linecap:butt;stroke-linejoin:round;stroke-miterlimit:3;stroke:#B2B2B2;stroke-opacity:1" d="M443.75,260.35L450.6 256.35L488.95 271.55L481.8 277.55L444.4 262.7L443.75 260.35z" />
<path style="fill:none;stroke-width:0.5;stroke-linecap:butt;stroke-linejoin:round;stroke-miterlimit:3;stroke:#B2B2B2;stroke-opacity:1" d="M416.9,294L397.05 303.5L360.1 288.8L375.05 276.3L377.8 277.4L395.5 262.55L414.85 270.2L422.1 264.1L430.05 267.25L437.3 261.2L441.85 282.2L450.35 285.6L450.45 287.5L445.15 291.95L416.9 294z" />
<path style="fill:none;stroke-width:0.5;stroke-linecap:butt;stroke-linejoin:round;stroke-miterlimit:3;stroke:#B2B2B2;stroke-opacity:1" d="M465.8,317.75L444.65 327.25L443.65 326.4L436.1 329.95L428.85 324.5L455.85 311.8L463.05 314.65L465.8 317.75z" />
<path style="fill:none;stroke-width:0.5;stroke-linecap:butt;stroke-linejoin:round;stroke-miterlimit:3;stroke:#B2B2B2;stroke-opacity:1" d="M449.55,331.35L444.65 327.25L465.8 317.75L466.8 318.85L474 323.1L457.95 333.25L452.65 330.1L449.55 331.35z" />
<path style="fill:none;stroke-width:0.5;stroke-linecap:butt;stroke-linejoin:round;stroke-miterlimit:3;stroke:#B2B2B2;stroke-opacity:1" d="M457.95,333.25L474 323.1L482.7 328.25L467.25 338.8L457.95 333.25z" />
<path style="fill:none;stroke-width:0.5;stroke-linecap:butt;stroke-linejoin:round;stroke-miterlimit:3;stroke:#B2B2B2;stroke-opacity:1" d="M392.8,324.45L356 341L346.3 349.15L332.95 343.85L346.6 332.35L348.8 333.25L370 315.4L392.8 324.45z" />
<path style="fill:none;stroke-width:0.5;stroke-linecap:butt;stroke-linejoin:round;stroke-miterlimit:3;stroke:#B2B2B2;stroke-opacity:1" d="M372.3,359.5L346.3 349.15L356 341L437.3 304.45L455.85 311.8L428.85 324.5L436.1 329.95L381.85 355.35L378.75 354.1L372.3 359.5z" />
<path style="fill:none;stroke-width:0.5;stroke-linecap:round;stroke-linejoin:round;stroke-miterlimit:3;stroke:#B2B2B2;stroke-opacity:1" d="M552.95,161.25L558.1 163.3" />
<path style="fill:none;stroke-width:0.5;stroke-linecap:round;stroke-linejoin:round;stroke-miterlimit:3;stroke:#B2B2B2;stroke-opacity:1" d="M558.1,163.3L596.3 178.45L596.55 179.25L589.95 184.75L551.95 169.65L559.05 163.7L558.1 163.3z" />
<path style="fill:none;stroke-width:0.5;stroke-linecap:butt;stroke-linejoin:round;stroke-miterlimit:3;stroke:#B2B2B2;stroke-opacity:1" d="M546.5,167.5L589.95 184.75L581.75 191.65L538.25 174.4L546.5 167.5z" />
<path style="fill:none;stroke-width:0.5;stroke-linecap:butt;stroke-linejoin:round;stroke-miterlimit:3;stroke:#B2B2B2;stroke-opacity:1" d="M538.25,174.4L581.75 191.65L575.35 197.05L531.85 179.75L538.25 174.4z" />
<path style="fill:none;stroke-width:0.5;stroke-linecap:butt;stroke-linejoin:round;stroke-miterlimit:3;stroke:#B2B2B2;stroke-opacity:1" d="M583.7,254.1L549.15 240.4L557.75 233.15L592.3 246.9L583.7 254.1z" />
<path style="fill:none;stroke-width:0.5;stroke-linecap:butt;stroke-linejoin:round;stroke-miterlimit:3;stroke:#B2B2B2;stroke-opacity:1" d="M510,267.25L516 266.55L516.65 266.05L552.5 280.3L544.1 287.45L504.65 271.8L510 267.25z" />
<path style="fill:none;stroke-width:0.5;stroke-linecap:butt;stroke-linejoin:round;stroke-miterlimit:3;stroke:#B2B2B2;stroke-opacity:1" d="M479.55,303.3L508.15 314.65L501.7 320.1L474.6 309.3L474.9 307.25L479.55 303.3z" />
<path style="fill:none;stroke-width:0.5;stroke-linecap:butt;stroke-linejoin:round;stroke-miterlimit:3;stroke:#B2B2B2;stroke-opacity:1" d="M474.6,309.3L501.7 320.1L498.25 323L487 323.65L473.65 315.55L474.6 309.3z" />
<path style="fill:none;stroke-width:0.5;stroke-linecap:butt;stroke-linejoin:round;stroke-miterlimit:3;stroke:#B2B2B2;stroke-opacity:1" d="M594.25,169.75L565.8 158.4L569.7 155.15L580.25 153.25L596.75 159.8L598.5 166.2L594.25 169.75z" />
<path style="fill:none;stroke-width:0.5;stroke-linecap:butt;stroke-linejoin:round;stroke-miterlimit:3;stroke:#B2B2B2;stroke-opacity:1" d="M560.6,154.8L563.95 156.15L569.7 155.15L565.8 158.4L594.25 169.75L593.8 170.1L596.3 178.45L552.95 161.25L560.6 154.8z" />
<path style="fill:none;stroke-width:0.5;stroke-linecap:butt;stroke-linejoin:round;stroke-miterlimit:3;stroke:#B2B2B2;stroke-opacity:1" d="M531.85,179.75L575.35 197.05L573 199L564.8 200L560.25 203.8L521.55 188.45L531.85 179.75z" />
<path style="fill:none;stroke-width:0.5;stroke-linecap:butt;stroke-linejoin:round;stroke-miterlimit:3;stroke:#B2B2B2;stroke-opacity:1" d="M521.55,188.45L560.25 203.8L553.25 209.7L514.5 194.35L521.55 188.45z" />
<path style="fill:none;stroke-width:0.5;stroke-linecap:butt;stroke-linejoin:round;stroke-miterlimit:3;stroke:#B2B2B2;stroke-opacity:1" d="M543.15,218.15L504.45 202.8L514.5 194.35L553.25 209.7L543.15 218.15z" />
<path style="fill:none;stroke-width:0.5;stroke-linecap:butt;stroke-linejoin:round;stroke-miterlimit:3;stroke:#B2B2B2;stroke-opacity:1" d="M528.45,221.05L525.85 223.2L494.8 210.9L504.45 202.8L543.15 218.15L541.6 219.5L528.45 221.05z" />
<path style="fill:none;stroke-width:0.5;stroke-linecap:butt;stroke-linejoin:round;stroke-miterlimit:3;stroke:#B2B2B2;stroke-opacity:1" d="M576.5,260.15L540.7 245.9L543.5 245.1L549.15 240.4L583.7 254.1L576.5 260.15z" />
<path style="fill:none;stroke-width:0.5;stroke-linecap:butt;stroke-linejoin:round;stroke-miterlimit:3;stroke:#B2B2B2;stroke-opacity:1" d="M568.35,267L532.45 252.8L540.6 245.95L576.5 260.15L568.35 267z" />
<path style="fill:none;stroke-width:0.5;stroke-linecap:butt;stroke-linejoin:round;stroke-miterlimit:3;stroke:#B2B2B2;stroke-opacity:1" d="M532.45,252.8L568.3 267.05L560.45 273.6L524.6 259.35L532.45 252.8z" />
<path style="fill:none;stroke-width:0.5;stroke-linecap:butt;stroke-linejoin:round;stroke-miterlimit:3;stroke:#B2B2B2;stroke-opacity:1" d="M524.6,259.35L560.45 273.6L552.5 280.3L516.65 266.05L524.6 259.35z" />
<path style="fill:none;stroke-width:0.5;stroke-linecap:butt;stroke-linejoin:round;stroke-miterlimit:3;stroke:#B2B2B2;stroke-opacity:1" d="M504.65,271.8L544.1 287.45L552.3 280.55L561.1 284.05L540 301.8L491.7 282.65L504.65 271.8z" />
<path style="fill:none;stroke-width:0.5;stroke-linecap:butt;stroke-linejoin:round;stroke-miterlimit:3;stroke:#B2B2B2;stroke-opacity:1" d="M484.7,299L482.25 290.6L491.7 282.65L531.05 298.25L510.55 315.5L508.25 314.6L508.15 314.65L479.55 303.3L484.7 299z" />
<path style="fill:none;stroke-width:0.5;stroke-linecap:butt;stroke-linejoin:round;stroke-miterlimit:3;stroke:#B2B2B2;stroke-opacity:1" d="M667.9,189.15L631.8 174.85L644.3 164.35L651.15 163.5L653.3 171.25L662.95 175.05L667.9 189.15z" />
<path style="fill:none;stroke-width:0.5;stroke-linecap:butt;stroke-linejoin:round;stroke-miterlimit:3;stroke:#B2B2B2;stroke-opacity:1" d="M731.5,184.35L725.6 164.35L737.95 162.65L743.6 182.85L731.5 184.35z" />
<path style="fill:none;stroke-width:0.5;stroke-linecap:butt;stroke-linejoin:round;stroke-miterlimit:3;stroke:#B2B2B2;stroke-opacity:1" d="M648.1,191.6L623.5 181.8L631.8 174.85L667.8 189.15L648.1 191.6z" />
<path style="fill:none;stroke-width:0.5;stroke-linecap:butt;stroke-linejoin:round;stroke-miterlimit:3;stroke:#B2B2B2;stroke-opacity:1" d="M602.25,186.25L631.05 197.65L621.95 205.3L619 204.15L619.1 204.05L593.25 193.8L602.25 186.25z" />
<path style="fill:none;stroke-width:0.5;stroke-linecap:round;stroke-linejoin:round;stroke-miterlimit:3;stroke:#B2B2B2;stroke-opacity:1" d="M648.1,191.6L667.9 189.15" />
<path style="fill:none;stroke-width:0.5;stroke-linecap:round;stroke-linejoin:round;stroke-miterlimit:3;stroke:#B2B2B2;stroke-opacity:1" d="M667.9,189.15L662.95 175.05L653.3 171.25L651.15 163.5L662.5 162.05L672.8 166.15L709.05 161.65L709.1 161.9L709.3 161.75L713.75 163.5L724.65 161.9L732.85 188.8L738.9 191.2L727.4 200.85L690.5 186.35L667.9 189.15z" />
<path style="fill:none;stroke-width:0.5;stroke-linecap:butt;stroke-linejoin:round;stroke-miterlimit:3;stroke:#B2B2B2;stroke-opacity:1" d="M748.85,158.75L751.2 159.7L758.5 184.6L735.35 204L727.4 200.85L738.9 191.2L732.85 188.8L731.5 184.35L746.4 182.5L740.25 161.1L742.05 159.55L748.85 158.75z" />
<path style="fill:none;stroke-width:0.5;stroke-linecap:butt;stroke-linejoin:round;stroke-miterlimit:3;stroke:#B2B2B2;stroke-opacity:1" d="M610.3,211.45L584.45 201.2L593.25 193.8L619.1 204.05L619 204.15L610.3 211.45z" />
<path style="fill:none;stroke-width:0.5;stroke-linecap:butt;stroke-linejoin:round;stroke-miterlimit:3;stroke:#B2B2B2;stroke-opacity:1" d="M584.45,201.2L617.75 214.45L600.9 228.6L572.9 217.5L584.35 207.9L584.35 201.25L584.45 201.2z" />
<path style="fill:none;stroke-width:0.5;stroke-linecap:round;stroke-linejoin:round;stroke-miterlimit:3;stroke:#B2B2B2;stroke-opacity:1" d="M623.45,181.85L624.4 182.25L624.5 182.3L624.8 182.4" />
<path style="fill:none;stroke-width:0.5;stroke-linecap:round;stroke-linejoin:round;stroke-miterlimit:3;stroke:#B2B2B2;stroke-opacity:1" d="M624.8,182.4L648.1 191.6L690.5 186.35L735.35 204L716.5 219.85L702.65 214.3L686 228.3L681.1 226.35L676.1 230.55L682.65 233.15L679.65 235.7L718.4 254.85L686.95 276.5L654.35 258.75L647.8 264.25L636.7 258.15L633.9 260.5L615.35 250.25L613.1 252.1L591.35 243.5L590.85 243.9L560.05 231.65L559.2 229L572.9 217.5L600.9 228.6L617.75 214.45L610.3 211.45L619 204.15L621.95 205.3L631.05 197.65L602.25 186.25L607.7 181.65L612 183.35L624.8 182.4z" />
<path style="fill:none;stroke-width:0.5;stroke-linecap:butt;stroke-linejoin:round;stroke-miterlimit:3;stroke:#B2B2B2;stroke-opacity:1" d="M766.8,115.6L771.05 131.75L762.8 138.65L747.95 140.45L746 133.05L766.8 115.6z" />
<path style="fill:none;stroke-width:0.5;stroke-linecap:butt;stroke-linejoin:round;stroke-miterlimit:3;stroke:#B2B2B2;stroke-opacity:1" d="M766.8,115.6L746 133.05L747.95 140.45L740.8 141.3L737.3 139.9L735.25 133.15L731.85 131.8L731.55 131.85L723.55 102.95L733.4 101.8L733.45 101.95L733.55 101.85L765.6 111.1L766.8 115.6z" />
<path style="fill:none;stroke-width:0.5;stroke-linecap:butt;stroke-linejoin:round;stroke-miterlimit:3;stroke:#B2B2B2;stroke-opacity:1" d="M678.6,148.05L672.85 152.9L645.75 156.05L645.1 150.8L669.5 130.35L670.95 135.65L675.45 135.1L679 148L678.6 148.05z" />
<path style="fill:none;stroke-width:0.5;stroke-linecap:butt;stroke-linejoin:round;stroke-miterlimit:3;stroke:#B2B2B2;stroke-opacity:1" d="M686.8,115.85L645.1 150.8L645.75 156.05L640.85 156.65L623.5 149.75L671.25 109.65L686.8 115.85z" />
<path style="fill:none;stroke-width:0.5;stroke-linecap:round;stroke-linejoin:round;stroke-miterlimit:3;stroke:#B2B2B2;stroke-opacity:1" d="M762.85,138.65L765.6 136.35" />
<path style="fill:none;stroke-width:0.5;stroke-linecap:round;stroke-linejoin:round;stroke-miterlimit:3;stroke:#B2B2B2;stroke-opacity:1" d="M765.6,136.35L771.05 131.75L765.6 111.1L853.35 136.35L851 139.2L848.3 152.75L850.65 155L841.05 163.05L835.7 160.95L834.1 162.25L806.65 151.35L804.5 153.15L781 156L766.65 150.3L764.95 144.25L767.05 142.5L766.5 135.6L765.6 136.35z" />
<path style="fill:none;stroke-width:0.5;stroke-linecap:butt;stroke-linejoin:round;stroke-miterlimit:3;stroke:#B2B2B2;stroke-opacity:1" d="M841.05,163.05L797.1 199.95L758.5 184.6L752.25 163.65L767.65 150.7L781 156L804.5 153.15L806.65 151.35L834.1 162.25L835.7 160.95L841.05 163.05z" />
<path style="fill:none;stroke-width:0.5;stroke-linecap:butt;stroke-linejoin:round;stroke-miterlimit:3;stroke:#B2B2B2;stroke-opacity:1" d="M700.25,104.8L703.2 106L707.1 105.55L707.65 107.6L716.7 106.5L716 103.9L723.55 102.95L731.55 131.85L708.5 134.6L700.25 104.8z" />
<path style="fill:none;stroke-width:0.5;stroke-linecap:butt;stroke-linejoin:round;stroke-miterlimit:3;stroke:#B2B2B2;stroke-opacity:1" d="M692.5,146.4L685.9 122.6L677.5 123.6L700.05 104.75L700.25 104.8L708.5 134.6L708.05 134.65L708.3 135.6L703.2 136.2L705.5 144.85L692.5 146.4z" />
<path style="fill:none;stroke-width:0.5;stroke-linecap:butt;stroke-linejoin:round;stroke-miterlimit:3;stroke:#B2B2B2;stroke-opacity:1" d="M677.5,123.6L685.9 122.6L692.5 146.4L679 148L675.45 135.1L670.95 135.65L669.5 130.35L677.5 123.6z" />
<path style="fill:none;stroke-width:0.5;stroke-linecap:butt;stroke-linejoin:round;stroke-miterlimit:3;stroke:#B2B2B2;stroke-opacity:1" d="M695.55,90.3L685.3 98.9L700.05 104.75L686.8 115.85L671.25 109.65L623.45 149.75L614.15 150.6L606.05 157.4L587.25 149.95L585.55 143.55L576.6 140L609.65 112.25L609.9 112Q616.35 106.6 616.35 100.95Q616.35 95.3 609.85 92.7L609.35 92.55L643.45 63.9L646.45 65.1L648.6 63.25L693.8 82.85L691.5 84.8L692.05 84.95Q693.75 85.65 694.05 86.8Q694.4 88 693.15 89.05L692.9 89.25L695.55 90.3z" />
</g>
</svg>
