<?xml version="1.0" encoding="utf-8"?>
<svg version="1.1" id="Layer_1"
xmlns="http://www.w3.org/2000/svg"
xmlns:xlink="http://www.w3.org/1999/xlink"
xmlns:author="http://www.sothink.com"
width="557px" height="396px"
xml:space="preserve">
<g id="39" transform="matrix(1, 0, 0, 1, -16.25, -51)">
<path style="fill:none;stroke-width:3;stroke-linecap:round;stroke-linejoin:round;stroke-miterlimit:3;stroke:#D74949;stroke-opacity:1" d="M448.6,330.25L454.65 325.9L454.7 317.5L419.45 308.7L483.55 263L532.65 275.25L545.1 266.4L545.1 266.25L571.55 247.45L571.6 239L501.3 206.5L505.05 203.75L505.05 202.1L496.2 198.75L496.35 198.7L506.05 202.35L536.35 180.75L544.75 155.25L544.75 153.3L545.8 153.35L563.05 126.15L563.1 117.75L549.95 106.05L548.45 106L548.45 104.6L478.75 54.1L478.7 62.5L482.25 105.35L453.75 104.1L453.75 90.1L445.8 88.1L452 83.65L452.05 79.9L455.9 80.85L466.4 73.35L466.45 64.95L437.1 57.6L436.45 57.45L425.95 64.95L425.95 68.7L422.05 67.7M436.45,57.45L416.15 52.5L153.65 244.7L153.05 245.1L17.75 340.1L95.9 364.45L66.25 388.6L258 445.5L351.75 383.5L356.25 383L437.95 342.05L438.05 333.75L399 324.05L403.65 320.75L403.65 319.05L404.6 319.3L406.5 318L406.45 319.55L447.55 329.9M403.2,83.7L393.15 90.9L393.15 92.85L388.55 91.65L342.35 124.6L342.25 133L341.3 132.8L340.25 133.55L332.55 131.6M396.6,138.15L381.55 134.45L381 134.3L381.05 134.3L381.55 134.45M411.8,104L410.7 104.75M425.15,194.5L424.15 195.2M426.9,176.85L427.05 176.3M427.4,175.5L427.65 175L427.5 175.25L427.4 175.5M426.6,178.45L426.6 178.15L426.75 177.3L426.75 177.45L426.6 178.15M425.6,186.2L405.8 181.25M480.9,164.1L481.85 164.3L481.85 164.25L480.9 164.1M477.3,163.5L476.85 163.45M432.6,154.6L451.8 163.65L491.9 149.9M391.2,127.05L433.95 137.7M454.2,275.55L456.65 273.75M448.65,321.85L413.35 313.05M404.7,310.9L434.55 289.55M268.65,177.2L268.65 180.7L265 179.8M72.45,317.15L72.4 322.55L69.2 321.8L59.45 328.8L59.4 337.25L101.25 347.7L142.25 352.65L134.7 358L128.55 356.5L121.35 361.7L121.2 370.1L131.1 372.55L130.1 373.3L130 381.75L198 398.65L195.1 400.75L195.05 409.15L224.6 416.5L230.7 412.15L230.65 416.3L258.3 423.15L297.05 395.5L297.15 387.05L257.95 377.25L267.3 370.9L267.35 362.9L349.45 383.4M133.95,316.45L133.55 316.75M261.05,225.55L252.45 231.7M305.5,265.5L300.2 266.9M207.85,220.6L207.8 226.8L201.4 225.2M225,387.75L250.1 394.05M235.1,408.95L258.35 414.75M325.25,260.25L321.85 261.15" />
<path style="fill:none;stroke-width:3;stroke-linecap:round;stroke-linejoin:round;stroke-miterlimit:3;stroke:#A0A0A0;stroke-opacity:1" d="M289.9,216.65L229.35 259.8" />
<path style="fill:#757473;fill-opacity:1" d="M504.4,187.1L504.4 188.9L504.2 190L504.2 190.15L503.85 191.3L503.45 192.2L502.6 193.6L501.6 194.65L501.5 194.8L500.45 195.85L500.35 195.9L499.1 196.85L498.95 197L497.05 198.15L497 198.2L496.85 198.3L505.7 201.65L505.7 203.3L496.6 209.9L482.75 203.15L482.4 203.25L471.85 204.6L461.5 204.7L365.25 273.3L362.65 291.95L345.75 304L402.75 319.25L397.25 324.5L395.85 326.3L389.1 331.1L341.4 319.15L341.4 317.5L345.1 314.9L199.45 278.3L193.8 282.4L193.3 282.55L193.25 282.6L192.85 282.75L192.7 282.75L192.25 282.9L192.15 282.95L191.3 283.15L191.15 283.2L190.25 283.4L190.15 283.4L187.65 283.8L187.4 283.8L187.1 283.85L186.1 283.9L185.75 283.95L179.45 283.8L179.3 283.75L177.85 283.6L172.85 282.65L171.3 283.7L142.25 276.45L142.25 274.8Q146.8 271.6 151.3 268.35L144.6 267.35L73.2 318.5L72.95 324.35L112.85 335.45L127.6 339.25L132.2 336L157.2 339.6L157.35 344.35L187.45 348.25L193.35 344.1L274.95 364.25L349.35 383.1L257.5 444.5L68.25 387.85L97 364L20 340L129 262.5L416 52.75L438.45 58L428.35 65.3L435.05 67.15L412.3 83.3L435.1 89.25L427 96L402.35 90.3L343 132.6L396.2 145.85L451.4 171.35L468.15 170.45Q477.1 170.8 484.9 172.75L485.95 173Q494.9 175.4 499.8 179.35Q504.6 183.2 504.3 187.5L504.4 187.1M332,140.15L181.55 247.15L223.6 257.6L243.25 238.5L284.45 215.2L304.75 200.75L294.95 197.95L303.85 191.1L313.9 194.25L342.65 173.85L348.95 175.4L304.1 215.95L378.75 234.7L431.8 196.55Q426 192.55 426.05 187.95L426.05 186.2Q426.15 181.9 431.35 178.1Q432.25 177.45 433.6 176.7L384.3 153.8L332 140.75L332 140.15M364.8,244.7L289.25 225.85L289.3 224.15L297.5 218.2L292.5 217.05L232.45 259.85L237.55 261.1L237.5 262.75L222.9 273.2L281.05 287.7L299.65 274.4L337.1 264.45L364.8 244.7" />
<path style="fill:#D0D1D3;fill-opacity:1" d="M548.7,112.95L483 110.75L479 62.45L479.05 54.05L548.75 104.55L548.7 112.95M563.4,117.7L563.35 126.1L546.1 153.3L545.05 153.25L545.05 155.2L536.65 180.7L506.35 202.3L495.6 198.2L495.65 189.8L506.4 193.9L536.7 172.3L542 156.15L498.2 170L498.4 170.1L500.15 171.25L500.3 171.4L502.15 173L503.3 174.4L503.4 174.6L504.25 175.85L504.35 176.1L504.9 177.55L504.95 177.85L505.1 179.3L505.05 187.75L504.9 186.25L504.8 185.95L504.3 184.5L504.2 184.25L503.35 183L503.25 182.8L501.8 181.15L500.2 179.8L500.1 179.75L495.8 177.1L495.35 176.9Q494.1 176.25 493.05 175.85L492.75 175.7L489.05 174.4L476.95 171.8L469.15 171.1L461.1 171.15L460.15 171.2L458.55 171.3L452.05 172.05L452.05 172L398.7 147.35L398.7 145.85L396.85 146.5L342.55 133L342.65 124.55L381.3 134.25L396.9 138.1L399.05 137.3L386.05 134.1L386.1 130.85L381.3 134.25L381.35 125.85L387.25 121.6L366 116.3L366.05 107.85L373.65 109.8L373.7 102.4L380.95 104.2L381 97.2L411 104.7L412.1 103.95L393.4 99.3L393.45 90.85L432 100.45L454.05 101.5L454 109.9L431.95 108.85L418.8 105.6L418.8 107.5L391.5 127L434.25 137.65L546.2 144.9L563.4 117.7M508.65,152.6L477.1 163.4L477.65 163.45L485.65 164.95L485.75 165L486.6 165.25L528.05 152.1L508.7 150.9L508.65 152.6M426.25,64.9L456.3 72.4L466.75 64.9L466.7 73.3L456.2 80.8L452.35 79.85L452.3 83.6L441.85 91.05L411.85 83.55L411.9 75.15L441.95 82.65L447.55 78.65L426.2 73.3L426.25 64.9M347.05,175.85L424.45 195.15L425.45 194.45L344.8 174.35L313.5 196.7L309.9 195.8L309.85 199.3L252.7 240.05L246.25 238.45L246.2 244.7L226.25 258.95L181.7 247.8L181.75 239.4L226.3 250.5L244 237.9L208.1 228.95L208.15 220.55L252.75 231.65L261.35 225.5L225.5 216.55L225.55 208.15L233.55 210.15L233.6 202.4L278.15 213.5L285.3 208.45L249.4 199.5L249.45 191.1L294.05 202.2L304.8 194.5L268.9 185.6L268.95 177.15L313.55 188.3L315.5 186.85L279.6 177.95L279.65 169.5L324.25 180.65L326.55 178.95L290.7 170.05L290.4 170.25L290.45 161.8L290.75 161.6L335.3 172.75L336.1 172.2L300.2 163.25L300.25 154.8L426.85 186.35L426.9 178.15L427.05 177.4L427.05 177.2L427.35 176.25L427.4 176L427.95 174.9L428.75 173.75L428.85 173.65L429.7 172.65L429.75 172.6L432.15 170.55L436.25 168.2L436.15 176.65L434.2 177.7L430.9 179.95L429.7 181L429.4 181.35L428.8 182.05L428 183.15L427.25 184.65L426.95 185.8L426.9 186.4L433.9 188.15L433.9 188.45L434.2 188.2L434.15 196.65L367.35 244.2L367.35 244.25L337.85 265.3L300.45 275.3L281.85 288.6L222 273.6L222.05 265.2L281.95 280.15L300.5 266.85L305.8 265.45L252.2 252.05L252.25 243.65L288.95 252.85L299.5 245.3L340.05 255.35L347.8 249.85L333.8 246.35L333.9 237.95L341 232.9L302.15 216.25L302.2 207.85L351.75 220.25L359.45 214.7L387.3 221.65L393.5 217.25L324.75 200.1L324.8 191.7L402.25 211L404.65 209.25L335.95 192.15L336 183.75L413.4 203.05L415.7 201.45L347 184.25L347.05 175.85M410.25,141.45L407 142.7L411.5 144.75L419.3 142.35L410.25 140.1L410.25 141.45M431.75,145.45L431.75 146.55L433.65 145.9L431.75 145.45M432.9,154.55L452.1 163.6L492.2 149.85L450.5 147.15L450.5 148.5L432.9 154.55M406.25,235.15L533.05 266.8L536.7 264.2L418.6 234.75L418.7 226.3L545.35 257.85L571.9 238.95L571.85 247.4L545.4 266.2L545.4 266.35L532.95 275.2L483.85 262.95L413.65 313L448.95 321.8L455 317.45L454.95 325.85L448.9 330.2L406.75 319.7L406.8 317.95L404.9 319.25L344.7 304.2L344.75 295.8L405 310.85L434.85 289.5L365.95 272.35L366 263.9L443.6 283.25L445.75 281.75L376.85 264.55L376.9 256.15L454.5 275.5L456.95 273.7L388.05 256.55L388.15 248.15L465.7 267.5L475.15 260.75L406.2 243.6L406.25 235.15M344.7,234.5L344.7 235.4L349.85 236.7L344.7 234.5M342.15,309.75L347.6 305.85L347.5 314.25L342.1 318.15L342.15 309.75M438.25,342.1L349.75 383.35L268.25 363L267.7 362.85L267.15 362.75L193.05 344.25L187.35 348.35L157.25 344.55L157.35 336.15L187.4 339.9L193.1 335.85L349.8 374.9L438.35 333.7L438.25 342.1M497.3,200.45L497.25 208.85L493.45 211.15L493.5 202.75L497.3 200.45M72.75,317.1L127.6 330.8L143.9 319.15L143.85 327.6L127.55 339.2L72.7 325.55L72.75 317.1M134.05,324.8L134.1 316.4L134.5 316.1L102.8 307.95L101.2 306.15L101.2 297.85L103.2 299.85L138.6 308.8L155.65 312.7L180.85 319.2L180.8 327.65L143.2 318.3L134.05 324.8M130.4,373.25L207.05 392.4L206.95 400.8L130.3 381.7L130.4 373.25M297.65,254.95L322.15 261.1L325.55 260.2L299.45 253.7L297.65 254.95M220.7,387.25L250.4 394L250.35 402.4L243.5 400.7L243.45 403.2L235.4 408.9L258.65 414.7L297.45 387L297.35 395.45L258.6 423.1L230.95 416.25L231 412.1L224.9 416.45L195.35 409.1L195.4 400.7L224.95 408.05L237.35 399.2L220.8 395.05L220.7 387.25" />
<path style="fill:#E8E8E9;fill-opacity:1" d="M72.6,326.5L127 340L156.85 345.25L187 349L268.8 368.45L252 379.2L240.35 376.5L224.6 389.4L218.6 388.15L138.5 368.15L134.85 370.5L123.85 368L130.85 362.1L137.6 363.65L152.85 352.25L121.25 347L65.1 332.5L72.6 326.5" />
<path style="fill:#FFFFFF;fill-opacity:1" d="M367.95,235.45L291.15 216.45L302.35 207.95L379.7 227.2L367.95 235.45" />
</g>
</svg>
