<?xml version="1.0" encoding="utf-8"?>
<svg version="1.1" id="Layer_1"
xmlns="http://www.w3.org/2000/svg"
xmlns:xlink="http://www.w3.org/1999/xlink"
xmlns:author="http://www.sothink.com"
width="300px" height="208px"
xml:space="preserve">
<g id="38" transform="matrix(1, 0, 0, 1, 23.25, 0)">
<path style="fill:#292929;fill-opacity:1" d="M159.35,179.55L118.05 207.25L-23.25 162.35L10.05 136.7L113.5 165.2L159.35 179.55" />
<path style="fill:#292929;fill-opacity:1" d="M263.75,28L264.55 28.05L271.7 34.3L271.65 38.85L262.35 53.55L261.75 53.5L261.75 54.55L257.25 68.3L240.9 79.95L235.65 77.95L235.6 78L240.35 79.8L240.35 80.7L238.3 82.2L276.25 99.75L276.2 104.25L261.95 114.45L261.95 114.5L255.25 119.25L228.75 112.65L194.2 137.3L213.2 142.05L213.2 146.6L204.1 155.5L204.05 155.45L159.2 179.65L112.15 166.55L112.15 170.85L107.1 174.3L128.25 179.55L128.2 184.1L112.2 195.5L106.5 194.05L94.25 193.45L93.9 193.5Q92.75 192.6 90.1 192.35Q83.35 191.7 80.85 190.4Q76.95 188.05 74.5 187.15L73.4 186.85L74.75 185.85L38.1 176.7L38.1 172.15L38.7 171.75L33.35 170.4L33.4 165.85L37.3 163.1L40.65 163.9L44.7 161.05L22.6 158.3L0 152.7L0 148.15L5.3 144.35L7.05 144.8L7.05 141.9L44.9 114.85L49.05 115.9L65.25 104.35L65.8 104.5L65.8 99.95L76.6 92.25L80.05 93.15L80.1 89.8L110.9 67.8L112.85 68.25L112.85 66.4L147.35 41.8L151.5 42.85L152.05 42.45L152.55 42.55L152.6 38.05L177.5 20.25L180 20.85L180 19.85L185.45 15.95L201 19.85L202.2 19L189.9 15.9L189.95 11.4L195.6 7.35L197.7 7.85L197.7 5.85L203.35 1.8L219.55 5.85L219.5 10.4L213.85 14.45L211.8 13.9L211.75 15.9L208.4 18.35L212.7 19.4L212.7 26.45L228 26.9L226.15 4.55L226.2 0L263.75 27.25L263.75 28M181.35,49.75L211.1 63.45L211.25 63.45L182.85 50.3L182.85 49.5L181.85 49.9L181.35 49.75M231.35,64.85Q237.6 66.85 239.2 70.2L239.45 69.85L239.3 69.55L239.2 69.45L238.6 68.7L238.4 68.55L237.55 67.75L236.6 67.1L236.35 67L233.75 65.7L233.6 65.6L231.55 64.9L231.35 64.85M153.75,64.9L136.9 76.9L134.95 76.45L134.95 78.3L104.1 100.3L100.65 99.45L100.6 102.8L89.85 110.5L91.65 110.95L124.3 87.65L128.4 88.7L130.2 87.35L130.75 87.5L130.8 82.95L155.5 65.3L153.75 64.9M44.7,142.8L45.4 143L45.4 147.5L39.7 151.6L52.65 153.3L52.65 152.15L60.5 146.55L44.9 142.65L44.7 142.8" />
</g>
</svg>
