<?xml version="1.0" encoding="utf-8"?>
<svg version="1.1" id="Layer_1"
xmlns="http://www.w3.org/2000/svg"
xmlns:xlink="http://www.w3.org/1999/xlink"
xmlns:author="http://www.sothink.com"
width="500px" height="361px"
xml:space="preserve">
<g id="40" transform="matrix(1, 0, 0, 1, -72.95, -54.4)">
<path style="fill:none;stroke-width:0.5;stroke-linecap:butt;stroke-linejoin:round;stroke-miterlimit:3;stroke:#D74949;stroke-opacity:1" d="M438.65,86.45L454.3 90.65L454.25 102.15L432.15 100.75L393.3 91.4L403.55 83.9L432.25 91.05L438.65 86.45z" />
<path style="fill:none;stroke-width:0.5;stroke-linecap:butt;stroke-linejoin:round;stroke-miterlimit:3;stroke:#B2B2B2;stroke-opacity:1" d="M479.3,54.65L549.25 105.15L483.65 102.6L479.3 54.65z" />
<path style="fill:none;stroke-width:0.5;stroke-linecap:butt;stroke-linejoin:round;stroke-miterlimit:3;stroke:#D74949;stroke-opacity:1" d="M389,92.1L419.5 99.85L410.65 105.5L381.15 97.65L389 92.1z" />
<path style="fill:none;stroke-width:0.5;stroke-linecap:butt;stroke-linejoin:round;stroke-miterlimit:3;stroke:#D74949;stroke-opacity:1" d="M373.8,103L381 97.85L410.45 105.4L403.7 110.2L373.8 103z" />
<path style="fill:none;stroke-width:0.5;stroke-linecap:butt;stroke-linejoin:round;stroke-miterlimit:3;stroke:#D74949;stroke-opacity:1" d="M396.05,115.65L366.25 108.25L373.65 103.1L403.25 110.55L396.05 115.65z" />
<path style="fill:none;stroke-width:0.5;stroke-linecap:butt;stroke-linejoin:round;stroke-miterlimit:3;stroke:#B2B2B2;stroke-opacity:1" d="M412.5,145.45L398.7 139.45L413 134.35L432.25 139.2L412.5 145.45z" />
<path style="fill:none;stroke-width:0.5;stroke-linecap:butt;stroke-linejoin:round;stroke-miterlimit:3;stroke:#D74949;stroke-opacity:1" d="M381,126.4L410.9 133.5L397.15 138.75L342.65 125.1L366.25 108.4L395.6 116L381 126.4z" />
<path style="fill:none;stroke-width:0.5;stroke-linecap:butt;stroke-linejoin:round;stroke-miterlimit:3;stroke:#B2B2B2;stroke-opacity:1" d="M563.45,118.55L545.95 145.55L434.55 138.1L387.2 126.3L422.5 101.1L431.9 103.45L550 106.7L563.45 118.55z" />
<path style="fill:none;stroke-width:0.5;stroke-linecap:butt;stroke-linejoin:round;stroke-miterlimit:3;stroke:#B2B2B2;stroke-opacity:1" d="M432.3,139.25L450.75 140.8L422.7 150.45L412.5 145.35L432.3 139.25z" />
<path style="fill:none;stroke-width:0.5;stroke-linecap:butt;stroke-linejoin:round;stroke-miterlimit:3;stroke:#B2B2B2;stroke-opacity:1" d="M434,169.65Q432.25 170.25 431.65 170.7Q426.35 174.5 427.2 179.5Q428.05 184.2 433.95 188.25L300.8 155.1L333.3 131.85L385.45 144.85L436.65 168.6L434 169.65z" />
<path style="fill:none;stroke-width:0.5;stroke-linecap:butt;stroke-linejoin:round;stroke-miterlimit:3;stroke:#B2B2B2;stroke-opacity:1" d="M508.45,144.8L452.25 164.2L422.7 150.45L450.75 140.9L508.45 144.8z" />
<path style="fill:none;stroke-width:0.5;stroke-linecap:butt;stroke-linejoin:round;stroke-miterlimit:3;stroke:#B2B2B2;stroke-opacity:1" d="M485.75,165.3Q478.8 163.55 469.35 163.25L452.25 164.05L508.6 144.95L544.7 147.2L486.25 165.7L485.75 165.3z" />
<path style="fill:none;stroke-width:0.5;stroke-linecap:butt;stroke-linejoin:round;stroke-miterlimit:3;stroke:#D74949;stroke-opacity:1" d="M279.9,169.5L323.9 180.6L313.95 188.25L269.15 177.1L279.9 169.5z" />
<path style="fill:none;stroke-width:0.5;stroke-linecap:round;stroke-linejoin:round;stroke-miterlimit:3;stroke:#D74949;stroke-opacity:1" d="M335.35,172.45L291.05 161.6L297.2 157.2" />
<path style="fill:none;stroke-width:0.5;stroke-linecap:round;stroke-linejoin:round;stroke-miterlimit:3;stroke:#D74949;stroke-opacity:1" d="M297.2,157.2L300.45 154.9L305.55 156.2M297.2,157.2L302.45 158.45L305.55 156.2" />
<path style="fill:none;stroke-width:0.5;stroke-linecap:butt;stroke-linejoin:round;stroke-miterlimit:3;stroke:#D74949;stroke-opacity:1" d="M305.55,156.2L344.35 166L335.35 172.45" />
<path style="fill:none;stroke-width:0.5;stroke-linecap:butt;stroke-linejoin:round;stroke-miterlimit:3;stroke:#D74949;stroke-opacity:1" d="M334.9,172.75L324.35 180.3L280.3 169.35L291.05 161.65L334.9 172.75z" />
<path style="fill:none;stroke-width:0.5;stroke-linecap:butt;stroke-linejoin:round;stroke-miterlimit:3;stroke:#B2B2B2;stroke-opacity:1" d="M494.95,190.2Q497.45 188.95 499.45 187.5Q507.4 181.85 503.65 175.6Q499.95 169.45 486.55 165.75L545.6 147L536.6 172.7L506.45 194.25L494.95 190.2z" />
<path style="fill:none;stroke-width:0.5;stroke-linecap:butt;stroke-linejoin:round;stroke-miterlimit:3;stroke:#B2B2B2;stroke-opacity:1" d="M357.5,169.5L434.4 188.5L424.45 195.05L347.65 175.95L357.5 169.5z" />
<path style="fill:none;stroke-width:0.5;stroke-linecap:butt;stroke-linejoin:round;stroke-miterlimit:3;stroke:#B2B2B2;stroke-opacity:1" d="M347.5,176.2L423.95 195.4L413.45 202.9L336.75 183.7L347.5 176.2z" />
<path style="fill:none;stroke-width:0.5;stroke-linecap:butt;stroke-linejoin:round;stroke-miterlimit:3;stroke:#D74949;stroke-opacity:1" d="M436.65,57.6L466.9 65.25L456.35 72.6L426.25 65.1L436.65 57.6z" />
<path style="fill:none;stroke-width:0.5;stroke-linecap:butt;stroke-linejoin:round;stroke-miterlimit:3;stroke:#D74949;stroke-opacity:1" d="M411.55,75.9L422.15 68.25L451.6 75.9L441.65 83L411.55 75.9z" />
<path style="fill:none;stroke-width:0.5;stroke-linecap:round;stroke-linejoin:round;stroke-miterlimit:3;stroke:#D74949;stroke-opacity:1" d="M258,185.3L265.85 179.75L309.7 191.1L302.25 196.55L294.35 202.05L250.1 191.1L258 185.3L302.25 196.55" />
<path style="fill:none;stroke-width:0.5;stroke-linecap:butt;stroke-linejoin:round;stroke-miterlimit:3;stroke:#D74949;stroke-opacity:1" d="M278.6,213.3L234.55 202.25L249.95 191.25L293.9 202.4L278.6 213.3z" />
<path style="fill:none;stroke-width:0.5;stroke-linecap:butt;stroke-linejoin:round;stroke-miterlimit:3;stroke:#D74949;stroke-opacity:1" d="M234.2,202.5L278.15 213.65L270.6 219.05L226.45 207.9L234.2 202.5z" />
<path style="fill:none;stroke-width:0.5;stroke-linecap:butt;stroke-linejoin:round;stroke-miterlimit:3;stroke:#D74949;stroke-opacity:1" d="M226,208.35L269.95 219.45L253.1 231.45L208.5 220.85L226 208.35z" />
<path style="fill:none;stroke-width:0.5;stroke-linecap:butt;stroke-linejoin:round;stroke-miterlimit:3;stroke:#B2B2B2;stroke-opacity:1" d="M336.65,183.75L413 203.25L402.35 210.85L325.6 191.7L336.65 183.75z" />
<path style="fill:none;stroke-width:0.5;stroke-linecap:butt;stroke-linejoin:round;stroke-miterlimit:3;stroke:#B2B2B2;stroke-opacity:1" d="M352.15,220L302.5 208.1L325.4 191.75L401.9 211.15L387.5 221.45L359.8 214.55L352.15 220z" />
<path style="fill:none;stroke-width:0.5;stroke-linecap:butt;stroke-linejoin:round;stroke-miterlimit:3;stroke:#B2B2B2;stroke-opacity:1" d="M360,214.8L387.15 221.85L379.95 227L352.45 220.3L360 214.8z" />
<path style="fill:none;stroke-width:0.5;stroke-linecap:butt;stroke-linejoin:round;stroke-miterlimit:3;stroke:#D74949;stroke-opacity:1" d="M201.85,225.1L246.7 236.7L226.85 250.35L181.85 239.6L201.85 225.1z" />
<path style="fill:none;stroke-width:0.5;stroke-linecap:butt;stroke-linejoin:round;stroke-miterlimit:3;stroke:#B2B2B2;stroke-opacity:1" d="M362.5,239.85L340.65 234.05L345.95 230.2L368.5 235.85L362.5 239.85z" />
<path style="fill:none;stroke-width:0.5;stroke-linecap:butt;stroke-linejoin:round;stroke-miterlimit:3;stroke:#B2B2B2;stroke-opacity:1" d="M338.35,256.7L323 260.75L290.6 252.7L300.65 245.5L340.15 255.35L338.35 256.7z" />
<path style="fill:none;stroke-width:0.5;stroke-linecap:butt;stroke-linejoin:round;stroke-miterlimit:3;stroke:#B2B2B2;stroke-opacity:1" d="M356.75,243.8L335.25 237.9L340.2 234.4L362.45 239.95L356.75 243.8z" />
<path style="fill:none;stroke-width:0.5;stroke-linecap:butt;stroke-linejoin:round;stroke-miterlimit:3;stroke:#B2B2B2;stroke-opacity:1" d="M334.95,238.2L356.95 243.8L340.65 255.05L300.75 245.2L290.25 252.7L253.25 243.55L291.1 216.55L346 230.3L334.95 238.2z" />
<path style="fill:none;stroke-width:0.5;stroke-linecap:butt;stroke-linejoin:round;stroke-miterlimit:3;stroke:#B2B2B2;stroke-opacity:1" d="M300.85,266.65L282.4 279.75L222.55 265.4L252.8 243.8L322.1 261.15L300.85 266.65z" />
<path style="fill:none;stroke-width:0.5;stroke-linecap:butt;stroke-linejoin:round;stroke-miterlimit:3;stroke:#B2B2B2;stroke-opacity:1" d="M483.4,193.95L498 200.8L493.5 203.05L572.25 239.1L545 257.55L418.9 226.3L462.4 195.45Q473.3 195.9 483.4 193.95z" />
<path style="fill:none;stroke-width:0.5;stroke-linecap:butt;stroke-linejoin:round;stroke-miterlimit:3;stroke:#B2B2B2;stroke-opacity:1" d="M532.7,266.8L406.35 235.05L418.95 226.1L544.75 257.8L532.7 266.8z" />
<path style="fill:none;stroke-width:0.5;stroke-linecap:butt;stroke-linejoin:round;stroke-miterlimit:3;stroke:#B2B2B2;stroke-opacity:1" d="M465.8,267.3L388.7 248.1L406.5 235.45L483.4 254.75L465.8 267.3z" />
<path style="fill:none;stroke-width:0.5;stroke-linecap:butt;stroke-linejoin:round;stroke-miterlimit:3;stroke:#B2B2B2;stroke-opacity:1" d="M454.6,275.3L377.5 256.1L388.45 248.35L465.35 267.65L454.6 275.3z" />
<path style="fill:none;stroke-width:0.5;stroke-linecap:butt;stroke-linejoin:round;stroke-miterlimit:3;stroke:#B2B2B2;stroke-opacity:1" d="M366.6,263.85L377.5 256.2L454.15 275.6L443.85 283L366.6 263.85z" />
<path style="fill:none;stroke-width:0.5;stroke-linecap:butt;stroke-linejoin:round;stroke-miterlimit:3;stroke:#B2B2B2;stroke-opacity:1" d="M405.6,310.7L344.95 295.6L363.6 282.35L366.25 263.7L443.5 283.05L405.6 310.7z" />
<path style="fill:none;stroke-width:0.5;stroke-linecap:butt;stroke-linejoin:round;stroke-miterlimit:3;stroke:#B2B2B2;stroke-opacity:1" d="M406.6,311.05L413 306.35L455.6 316.95L449.1 321.45L406.6 311.05z" />
<path style="fill:none;stroke-width:0.5;stroke-linecap:butt;stroke-linejoin:round;stroke-miterlimit:3;stroke:#D74949;stroke-opacity:1" d="M102.8,300L144.05 310.35L133.7 316.8L144.8 319.1L127.9 330.5L73.2 317.1L100.55 297.75L102.8 300z" />
<path style="fill:none;stroke-width:0.5;stroke-linecap:butt;stroke-linejoin:round;stroke-miterlimit:3;stroke:#D74949;stroke-opacity:1" d="M130.6,373.45L207.15 392.4L195.55 400.6L225.55 407.95L244.1 394.45L138.1 367.95L130.6 373.45z" />
<path style="fill:none;stroke-width:0.5;stroke-linecap:butt;stroke-linejoin:round;stroke-miterlimit:3;stroke:#D74949;stroke-opacity:1" d="M241.55,371.85L297.5 386.75L258.65 414.75L231.7 408.15Q241.1 401.35 250.45 394.5L220.95 387.6L241.55 371.85z" />
<path style="fill:none;stroke-width:0.5;stroke-linecap:butt;stroke-linejoin:round;stroke-miterlimit:3;stroke:#B2B2B2;stroke-opacity:1" d="M101.5,297.6L144.8 266.75L173.8 273.9L175.1 273Q183.25 275.15 190.35 274.1Q193.95 273.6 195.95 272.6L201.5 268.6L348.55 305.7L343.35 309.4L439 333.2L349.85 375L194.4 335.95L188.3 339.95L157.65 336.05L181 319.35L103.15 299.4L101.5 297.6z" />
<path style="fill:none;stroke-width:0.5;stroke-linecap:butt;stroke-linejoin:round;stroke-miterlimit:3;stroke:#B2B2B2;stroke-opacity:1" d="M380.05,226.95L368.4 235.8M291.1,216.5L302.55 208" />
</g>
</svg>
