<?xml version="1.0" encoding="utf-8"?>
<svg version="1.1" id="Layer_1"
xmlns="http://www.w3.org/2000/svg"
xmlns:xlink="http://www.w3.org/1999/xlink"
xmlns:author="http://www.sothink.com"
width="484px" height="259px"
xml:space="preserve">
<g id="68" transform="matrix(1, 0, 0, 1, -142.2, -47.8)">
<path style="fill:none;stroke-width:8;stroke-linecap:round;stroke-linejoin:round;stroke-miterlimit:3;stroke:#2F77BB;stroke-opacity:1" d="M562.95,77.25L546.65 73.2L553.5 68.3L553.5 67.4L490.95 51.8L474.15 63.75L472.3 63.25L468.35 66.1L428.15 56.05L421.1 61.1L416.65 60L364.9 96.9L350.3 93.25L342.75 98.65L333.8 96.4L328.75 100L328.75 104.5L336 106.35L325.95 113.5L325.9 118.05L337.3 120.9L331.75 124.85L331.75 123.05L302.3 115.7L309.3 110.7L309.35 106.15L301.3 104.15L296.05 107.5L294.85 107.2L259.35 132.5L259.35 135.3L259.3 135.3L256.45 134.6L253.95 136.35L252.55 142.55L252.55 146.15L250.45 145.6L246.3 148.6L239.5 146.9L227.85 149.1L227.85 151.45L222.8 152.4L220.5 150.35L203.9 153.25L202.25 154.4L202.25 154.45L196.75 153.05L182.4 163.3L182.4 167.85L190.75 169.95L183.7 175L183.65 179.55L202.05 184.2L219.65 183.65L235.15 187.5L227.7 192.8L179.05 180.75L176.15 182.8L157.05 178.05L152.3 181.4L146.25 237.1L146.2 241.6L168 251.5L228.5 263.8L229.9 265.25L372.6 294.45L386.45 291.05L391 280.55L398.25 281.2L394.9 288.35L394.9 292.85L409.1 296.4L413.9 293L434.1 298.05L438.45 294.95L466.15 301.85L473.6 301.05L534 258L534 253.45L524.1 250.95L522.75 248.85L525.6 248.65L544.95 253.45L572.2 234L572.25 232.15L580.2 226.5L582.1 226.95L621.95 198.5L621.95 193.95L558.95 178.25L556.75 179.85L538 175.2L528.15 182.25L510.05 177.7L508.15 179.05L501.35 177.35L510.3 170.95L510.3 170.05L508.15 169.5L571.4 124.4L571.4 119.85L521.6 107.45L511.85 114.35L477.4 105.8L517.4 77.25L534.85 81.6L542.25 76.35L559.45 80.65L562.95 78.15L562.95 77.25M309.85,138.65L283.1 157.75M468.65,149.7L474.15 158.4M485.7,163.9L489.1 169.3M457.05,184.55L456.9 184.65L456.9 184.25L457.05 184.55M428.95,191.95L431.95 192.7M429.85,196.7L427.95 202.2L427.9 205.3L426.1 206.6L410.3 242.45L410.25 246.25L407 248.6L404.05 253.45L404.05 258L410 259.5L412.35 257.85L418.65 259.4L412.6 263.7L399.8 260.5L424.9 203.15L424.9 198.6L416.6 193.25L429.85 196.7M372.25,179.5L372.25 179.55L370.15 179L372.25 179.5M362.95,172.65L374.25 175.45M322.4,186.55L321.35 187.3M322.9,198.7L314.55 196.6M344.6,172.65L336.75 178.25L336.75 177.55L339.8 175.4L339.85 171.45L344.6 172.65M279.75,208.45L279.75 207.05L277.3 206.45L277.35 205.2L277.4 205.15L293.6 209.2L290.75 211.2L279.75 208.45M299.85,202.75L296.3 205.3M306.95,197.5L304.85 199M308.75,193.4L306.95 194.7M241.65,189.1L239.8 190.4L239.8 188.65L241.65 189.1M232.65,261.25L303.05 275.65" />
<path style="fill:#9E9F9F;fill-opacity:1" d="M562.95,78.15L559.45 80.65L542.25 76.35L534.85 81.6L517.4 77.25L442.05 131L447.5 139.65L463.7 143.7L474.1 160.2L483.7 162.6L489.1 171.1L498.75 173.5L505.35 168.8L510.3 170.05L510.3 170.95L501.35 177.35L510 179.5L510 180.4L508.05 181.8L483.75 175.75L481.25 177.5L498.35 203.35L582.1 224.2L582.1 225.15L572.25 232.15L547.3 225.95L519.6 245.7L521.25 248.3L521.25 249.2L485.15 253L484.65 251.2L484.65 250.3L494.45 243.3L451.9 176.6L448.95 175.85L433.45 151.8L395.1 142.2L373.45 144.5L367.6 148.65L348.05 150.7L327.25 165.55L337.35 168.1L337.35 169L331.4 173.25L310.6 174.45L269.95 203.4L235 194.7L235 193.8L340.1 118.9L367.6 125.75L390.2 123.65L411.25 128.9L428.4 127.1L503.2 73.7L472.3 66L472.3 65.1L490.95 51.8L553.5 67.4L553.5 68.3L546.65 73.2L562.95 77.25L562.95 78.15" />
<path style="fill:#B2B4B6;fill-opacity:1" d="M571.4,124.4L498.75 176.25L489.05 173.85L483.7 165.35L474.1 162.95L463.7 146.45L447.45 142.4L441.6 133.1L441.65 128.55L447.5 137.85L463.75 141.9L466.7 146.6L511.85 114.35L511.85 118.9L468.65 149.7L474.15 158.4L483.75 160.8L548.95 114.25L548.9 118.8L485.7 163.9L489.1 169.3L498.75 171.7L571.4 119.85L571.4 124.4M309.3,110.7L297.6 119.05L297.6 114.5L309.35 106.15L309.3 110.7M270.75,124.35L314.6 135.3L331.75 123.05L331.7 127.6L244.45 189.8L239.8 188.65L239.8 193.1L235 196.55L235.05 192L235.2 191.85L235.25 187.5L219.65 183.65L202.05 184.2L183.65 179.55L183.7 175L202.1 179.65L219.7 179.1L244.5 185.3L260.9 173.6L202.2 158.9L202.25 154.4L265.6 170.25L309.85 138.65L270.75 128.9L270.75 124.35M259.35,132.5L262.2 133.2L262.2 137.75L259.3 137.05L259.35 132.5M252.55,142.55L256.9 143.6L256.85 148.15L252.55 147.05L252.55 142.55M340.7,107.5L328.75 104.5L328.75 100L340.7 102.95L340.7 107.5M335.75,134.7L354.45 139.35L365.95 131.15L365.95 135.7L354.4 143.9L335.7 139.25L335.75 134.7M367.6,145.95L369.1 149L369.05 153.55L347.6 168.85L358.3 171.5L401.05 141L401 145.5L362.95 172.65L374.25 175.45L417 144.95L416.95 149.5L376.85 178.1L386.25 180.6L431.25 148.5L431.2 153.05L390.85 181.85L405.35 185.7L410.4 182.1L413.35 182.85L442.05 162.35L442 166.9L413.3 187.4L410.35 186.65L409.95 186.95L424.25 190.75L448.95 173.15L448.95 177.7L428.95 191.95L431.95 192.7L431.9 197.25L372.2 181.45L372.25 179.5L339.85 171.45L339.8 175.4L336.75 177.55L336.7 180.8L329.05 186.25L327.1 185.75L327.05 187.75L321.3 191.85L319.1 191.3L319.1 193.35L314.55 196.6L322.9 198.7L322.85 202L341.25 202.9L341.25 207.45L329.55 256.8L246.5 252.8L232.65 261.25L372.65 289.9L386.45 286.5L424.9 198.6L424.9 203.15L392.95 276.2L400.3 276.8L400.25 281.35L391 280.55L386.45 291.05L372.6 294.45L229.9 265.25L228.5 263.8L168 251.5L146.2 241.6L146.25 237.1L168.05 246.95L228.55 259.25L246.5 248.3L329.6 252.25L340.2 207.4L318.7 206.35L318.7 206.2L318.55 206.35L318.55 202.15L311.9 200.5L311.9 198.5L309.85 198L309.8 200L304.8 203.55L303.15 203.15L303.1 204.95L296.25 209.85L277.4 205.15L277.35 205.2L277.3 207.1L273.25 210L273.25 206.05L269.95 205.25L269.95 200.7L275.35 202.05L277.4 200.6L296.3 205.3L299.85 202.75L299.9 199.6L301.75 198.25L304.85 199L306.95 197.5L306.95 194.7L308.75 193.4L308.75 193.2L311.9 193.95L316.55 190.7L316.55 190.65L297.2 185.8L297.2 181.25L321.35 187.3L322.4 186.55L322.45 182.05L324.5 180.55L329.1 181.75L333.4 178.65L333.45 175.4L339.2 171.3L326.3 168.05L326.3 163.5L342.9 167.65L367.6 150.05L367.6 145.95M367.6,128.5L325.9 118.05L325.95 113.5L367.65 123.95L390.25 121.85L468.35 66.1L468.3 70.65L394.9 123L411.25 127.05L428.4 125.25L504.15 71.2L504.15 75.75L428.4 129.8L411.2 131.6L390.2 126.35L367.6 128.5M508.05,183.65L493.45 194.05L498.4 201.55L582.1 222.4L621.95 193.95L621.95 198.5L582.1 226.95L498.35 206.05L480.85 179.65L480.85 175.1L491.4 190.95L508.1 179.1L508.05 183.65M494.9,241.2L494.85 245.75L485.4 252.5L485.4 254.8L451.85 258.25L413.25 248.65L413.25 247.7L410.25 247L410.3 242.45L414.25 243.4L414.2 244.3L433.2 249.05L451.9 235.7L446.55 227.1L446.6 222.55L471.6 204.7L471.6 209.2L448.5 225.65L453.9 234.3L453.85 238.85L437.9 250.25L451.85 253.7L486.8 228.8L494.9 241.2M540.35,228.2L565.3 234.4L572.25 229.45L572.2 234L544.95 253.45L525.6 248.65L520 249.05L519.2 247.8L519.25 243.25L520 244.5L525.65 244.1L544.95 248.9L554 242.5L533.75 237.45L533.75 232.9L558.7 239.1L560.55 237.8L540.3 232.75L540.35 228.2M534,258L473.6 301.05L466.15 301.85L438.45 294.95L434.1 298.05L413.9 293L409.1 296.4L394.9 292.85L394.9 288.35L409.15 291.9L413.95 288.45L434.15 293.5L438.5 290.4L466.2 297.3L473.65 296.55L534 253.45L534 258M456.85,186.1L427.9 206.75L427.95 202.2L456.9 181.55L456.85 186.1M412.35,253.3L423.35 256L423.3 260.55L412.35 257.85L410 259.5L404.05 258L404.05 253.45L410.05 254.95L412.35 253.3M278.25,212.65L278.3 208.1L279.75 207.05L279.7 211.6L278.25 212.65M229.5,155.65L227.8 153.65L227.85 149.1L229.55 151.1L229.5 155.65M195.45,171.15L182.4 167.85L182.4 163.3L195.5 166.6L195.45 171.15" />
</g>
</svg>
