<?xml version="1.0" encoding="utf-8"?>
<svg version="1.1" id="Layer_1"
xmlns="http://www.w3.org/2000/svg"
xmlns:xlink="http://www.w3.org/1999/xlink"
xmlns:author="http://www.sothink.com"
width="476px" height="251px"
xml:space="preserve">
<g id="67" transform="matrix(1, 0, 0, 1, 0, 0)">
<path style="fill:#2D2D2D;fill-opacity:1" d="M407.3,16.5L400.45 21.4L416.75 25.45L416.75 26.35L413.25 28.85L396.05 24.55L388.65 29.8L371.2 25.45L331.2 54L365.65 62.55L375.4 55.65L425.2 68.05L425.2 72.6L361.95 117.7L364.1 118.25L364.1 119.15L355.15 125.55L361.95 127.25L363.85 125.9L381.95 130.45L391.8 123.4L410.55 128.05L412.75 126.45L475.75 142.15L475.75 146.7L435.9 175.15L434 174.7L426.05 180.35L426 182.2L398.75 201.65L379.4 196.85L376.55 197.05L377.9 199.15L387.8 201.65L387.8 206.2L327.4 249.25L319.95 250.05L292.25 243.15L287.9 246.25L267.7 241.2L262.9 244.6L248.7 241.05L248.7 236.55L252.05 229.4L244.8 228.75L240.25 239.25L226.4 242.65L83.7 213.45L82.3 212L21.8 199.7L0 189.8L0.05 185.3L6.1 129.6L10.85 126.25L29.95 131L32.85 128.95L81.5 141L88.95 135.7L73.45 131.85L55.85 132.4L37.45 127.75L37.5 123.2L44.55 118.15L36.2 116.05L36.2 111.5L50.55 101.25L56.05 102.65L56.05 102.6L57.7 101.45L74.3 98.55L76.6 100.6L81.65 99.65L81.65 97.3L93.3 95.1L100.1 96.8L104.25 93.8L106.35 94.35L106.35 90.75L107.75 84.55L110.25 82.8L113.1 83.5L113.15 83.5L113.15 80.7L148.65 55.4L149.85 55.7L155.1 52.35L163.15 54.35L163.1 58.9L156.1 63.9L185.55 71.25L185.55 73.05L191.1 69.1L179.7 66.25L179.75 61.7L189.8 54.55L182.55 52.7L182.55 48.2L187.6 44.6L196.55 46.85L204.1 41.45L218.7 45.1L270.45 8.2L274.9 9.3L281.95 4.25L322.15 14.3L326.1 11.45L327.95 11.95L344.75 0L407.3 15.6L407.3 16.5M193.65,119.65L193.6 123.6L190.55 125.75L190.55 126.45L198.4 120.85L193.65 119.65M310.7,132.45L310.7 132.85L310.85 132.75L310.7 132.45M278.7,146.8L278.7 151.35L253.6 208.7L266.4 211.9L272.45 207.6L266.15 206.05L263.8 207.7L257.85 206.2L257.85 201.65L260.8 196.8L264.05 194.45L264.1 190.65L279.9 154.8L281.7 153.5L281.75 150.4L283.65 144.9L270.4 141.45L278.7 146.8M93.6,136.85L93.6 138.6L95.45 137.3L93.6 136.85M133.55,156.65L144.55 159.4L147.4 157.4L131.2 153.35L131.15 153.4L131.1 154.65L133.55 155.25L133.55 156.65" />
</g>
</svg>
