<?xml version="1.0" encoding="utf-8"?>
<svg version="1.1" id="Layer_1"
xmlns="http://www.w3.org/2000/svg"
xmlns:xlink="http://www.w3.org/1999/xlink"
xmlns:author="http://www.sothink.com"
width="972px" height="512px"
xml:space="preserve">
<g id="8" transform="matrix(1, 0, 0, 1, -73.3, -70.1)">
<path style="fill:none;stroke-width:0.5;stroke-linecap:butt;stroke-linejoin:miter;stroke-miterlimit:10;stroke:#AFAFAF;stroke-opacity:1" d="M663.1,281.9L869.45 341.15L925.05 312.7L754.3 263.65L715.45 283.55L679.9 273.3L663.1 281.9M680.3,272.95L715.8 283.3L754.3 263.55L718.75 253.45L680.3 272.95M849.85,351.15L643.5 291.95L625 301.4L831.3 360.65L849.85 351.15M868.35,341.7L662 282.45L644.5 291.4L850.85 350.65L868.35 341.7M755.4,399.45L549.1 340.25L531.35 349.3L737.65 408.5L755.4 399.45M718,418.6L511.7 359.35L493.75 368.55L700.05 427.75L718 418.6M684.55,435.65L478.4 376.45L460.6 385.55L666.75 444.75L684.55 435.65M736.65,409.05L530.35 349.8L512.65 358.85L719 418.05L736.65 409.05M799.5,376.9L593.2 317.7L550.1 339.7L756.4 398.95L799.5 376.9M361.65,357.95L157.75 299.4L139.45 308.75L353.4 370.15Q353.1 362.85 361.65 357.95M356.85,380Q353.95 374.95 353.5 371L138.45 309.25L73.95 342.25L218.25 383.7L244.05 370.45L371.45 407.05Q371.4 400 364.1 390.6Q359.2 384.2 356.85 380M377.15,368.95L423.45 382.25L439.1 374.25L392.75 360.95L377.15 368.95M387.15,350.15L176.65 289.7L158.75 298.9L362.6 357.4Q370.95 353.05 387.15 350.15M478.8,316.35L251.95 251.2L234 260.4L460.85 325.5L478.8 316.35M422.2,345.3L195.35 280.2L177.65 289.2L388.85 349.85Q401.65 347.7 420.3 346.25L422.2 345.3M441,335.7L214.15 270.55L196.4 279.65L423.2 344.75L441 335.7M459.85,326.05L233 260.9L215.2 270L442.05 335.15L459.85 326.05M587.8,260.6L536.65 245.9L518.2 255.35L569.4 270.05L587.8 260.6M498.75,265.3L549.95 280L568.4 270.55L517.2 255.85L498.75 265.3M495.6,265.2L534.4 245.35L360.9 195.5L271.4 241.3L498.25 306.4L548.95 280.5L495.6 265.2M497.25,306.9L270.4 241.8L252.95 250.7L479.8 315.85Q488.55 311.4 497.25 306.9M220.35,384.3L361.55 424.8Q366.55 420.1 368.95 416.05Q371.35 411.95 371.45 407.85L245.2 371.6L220.35 384.3M291.75,419.8L347.75 435.85Q355.85 430.1 360.9 425.45L309.55 410.7L291.75 419.8M253.95,439.1L315.25 456.7Q323.15 452.55 328.6 448.9L331.25 447.15L271.7 430.05Q262.85 434.6 253.95 439.1M271.55,475.25L215 459L197.55 467.95L249.15 482.75Q261.25 478.95 271.55 475.25M314.25,457.2L252.95 439.6L234.75 448.9L294.9 466.2Q306 461.45 314.25 457.2M293.8,466.65L233.8 449.45L216.05 458.5L272.8 474.8Q283.75 470.85 293.8 466.65M272.7,429.5L332.1 446.55L346.9 436.45L290.75 420.3L272.7 429.5M265.55,507.9L329.45 526.25L347.25 517.15L291.05 501.05L265.55 507.9M247.85,483.2L196.55 468.45L153.7 490.35L187.1 499.95Q223.55 490.85 247.85 483.2M238.2,514.6L311.2 535.6L328.45 526.8L264.05 508.3L238.2 514.6M292.45,500.6L348.25 516.65L366.05 507.55L316.3 493.25L292.45 500.6M592.75,482.6L419.15 432.75L410.6 444.5L574.95 491.7L592.75 482.6M555.05,501.9L397.4 456.65Q390.3 461.5 381.65 466.2L537.4 510.9L555.05 501.9M517.6,521.05L361.25 476.15Q352.15 480.2 340.95 484.55L499.75 530.15L517.6 521.05M536.4,511.4L380.65 466.7Q371.95 471.35 362.35 475.65L518.6 520.55L536.4 511.4M573.95,492.2L410.15 445.15L407.9 448.1Q405.15 451.2 398.35 456L556.2 501.3L573.95 492.2M460.25,427.7L428.45 419.8L419.6 432.05L593.8 482.1L665.7 445.3L459.55 386.1L432.3 400L483.35 422.7L460.25 427.7M384.85,497.95L339.7 485Q328.95 489.1 317.55 492.85L367.05 507.05L384.85 497.95" />
<path style="fill:none;stroke-width:0.5;stroke-linecap:round;stroke-linejoin:miter;stroke-miterlimit:10;stroke:#AFAFAF;stroke-opacity:1" d="M1044.7,251.55L536.65 105.65L418 166.3L644.3 231.3M417.75,166L361.95 195L588.8 260.1L644.3 231.3" />
<path style="fill:none;stroke-width:0.5;stroke-linecap:butt;stroke-linejoin:miter;stroke-miterlimit:10;stroke:#AFAFAF;stroke-opacity:1" d="M644.3,231.3L926.05 312.2L1044.7 251.55" />
<path style="fill:#4E85C8;fill-opacity:1" d="M325.05,81.6Q323.6 79.85 321.4 79.85Q319.3 79.85 317.9 81.55Q316.5 83.25 316.5 87Q316.5 90.55 318 92.35Q319.5 94.1 321.55 94.1Q323.65 94.1 325.1 92.45Q326.55 90.75 326.55 87.25Q326.55 83.4 325.05 81.6M326.5,96.3L326.5 93.95Q324.7 96.7 321.25 96.7Q319.05 96.7 317.15 95.5Q315.3 94.25 314.25 92.05Q313.25 89.85 313.25 87Q313.25 84.2 314.15 81.9Q315.1 79.65 316.95 78.4Q318.8 77.2 321.1 77.2Q322.8 77.2 324.15 77.95Q325.45 78.65 326.25 79.8L326.25 70.55L329.4 70.55L329.4 96.3L326.5 96.3M261.95,77.2Q265.8 77.2 268.25 79.75Q270.7 82.25 270.7 86.7Q270.7 90.3 269.6 92.4Q268.5 94.45 266.45 95.6Q264.4 96.7 261.95 96.7Q258.05 96.7 255.6 94.2Q253.2 91.7 253.2 86.95Q253.2 81.8 256.1 79.3Q258.5 77.2 261.95 77.2M258,81.6Q256.45 83.4 256.45 86.95Q256.45 90.55 258 92.35Q259.6 94.1 261.95 94.1Q264.3 94.1 265.85 92.35Q267.45 90.55 267.45 86.85Q267.45 83.4 265.85 81.6Q264.3 79.85 261.95 79.85Q259.6 79.85 258 81.6M252.5,78.25L251.4 81.15Q250.25 80.5 249.05 80.5Q248.05 80.5 247.2 81.1Q246.4 81.75 246.05 82.85Q245.5 84.5 245.5 86.55L245.5 96.3L242.35 96.3L242.35 77.65L245.2 77.65L245.2 80.45Q246.3 78.5 247.2 77.85Q248.1 77.2 249.25 77.2Q250.85 77.2 252.5 78.25M277.45,77.65L277.45 88L277.65 91.35Q277.95 92.55 278.95 93.3Q279.9 94 281.3 94Q282.75 94 284 93.3Q285.25 92.55 285.75 91.3Q286.25 90 286.25 87.65L286.25 77.65L289.45 77.65L289.45 96.3L286.6 96.3L286.6 93.55Q284.45 96.7 280.7 96.7Q279.05 96.7 277.6 96.1Q276.15 95.45 275.5 94.5Q274.8 93.55 274.5 92.15L274.3 89.2L274.3 77.65L277.45 77.65M303.15,77.2Q304.85 77.2 306.25 77.85Q307.7 78.4 308.4 79.4Q309.1 80.4 309.35 81.75L309.55 84.8L309.55 96.3L306.4 96.3L306.4 84.95Q306.4 83 306 82.05Q305.65 81.1 304.7 80.55Q303.75 79.95 302.5 79.95Q300.45 79.95 299 81.25Q297.55 82.5 297.55 86.1L297.55 96.3L294.35 96.3L294.35 77.65L297.2 77.65L297.2 80.3Q299.3 77.2 303.15 77.2M180.05,77.2Q183.8 77.2 186.15 79.75Q188.55 82.3 188.55 86.95L188.5 87.75L174.6 87.75Q174.75 90.85 176.35 92.5Q177.9 94.1 180.25 94.1Q181.95 94.1 183.2 93.2Q184.45 92.3 185.15 90.3L188.4 90.7Q187.65 93.55 185.55 95.15Q183.45 96.7 180.2 96.7Q176.1 96.7 173.75 94.2Q171.3 91.7 171.3 87.1Q171.3 82.4 173.75 79.8Q176.15 77.2 180.05 77.2M174.75,85.15L185.2 85.15Q185 82.8 184 81.65Q182.5 79.8 180.05 79.8Q177.9 79.8 176.4 81.25Q174.9 82.75 174.75 85.15M169.7,77.65L163.9 96.3L160.6 96.3L156.9 81.95L153.1 96.3L149.8 96.3L144.1 77.65L147.4 77.65L151.45 92.4L152.4 88.55L155.4 77.65L158.65 77.65L162.35 92.05L166.65 77.65L169.7 77.65M195.5,86.55L195.5 96.3L192.35 96.3L192.35 77.65L195.2 77.65L195.2 80.45Q196.3 78.5 197.2 77.85Q198.1 77.2 199.25 77.2Q200.85 77.2 202.5 78.25L201.4 81.15Q200.25 80.5 199.05 80.5Q198.05 80.5 197.2 81.1Q196.4 81.75 196.05 82.85Q195.5 84.5 195.5 86.55M222.8,73.75Q221.1 74.45 220.05 75.6Q219 76.75 218.4 78.15Q217.45 80.55 217.45 83.35Q217.45 86.75 218.65 89.1Q219.8 91.4 222.05 92.55Q224.35 93.65 226.9 93.65Q229.1 93.65 231.2 92.8Q233.3 91.95 234.4 91L234.4 86.2L226.85 86.2L226.85 83.15L237.75 83.15L237.75 92.7Q235.25 94.7 232.55 95.75Q229.9 96.75 227.1 96.75Q223.3 96.75 220.2 95.1Q217.1 93.5 215.5 90.4Q213.9 87.35 213.9 83.55Q213.9 79.8 215.5 76.5Q217.05 73.25 220 71.65Q222.95 70.1 226.8 70.1Q229.6 70.1 231.9 71Q234.15 71.9 235.4 73.5Q236.7 75.15 237.35 77.75L234.3 78.6Q233.7 76.6 232.85 75.5Q232 74.35 230.4 73.7Q228.8 73 226.85 73Q224.5 73 222.8 73.75M110.05,93.25L122.75 93.25L122.75 96.3L106.65 96.3L106.65 70.55L110.05 70.55L110.05 93.25M133.95,79.85Q131.6 79.85 130 81.6Q128.45 83.4 128.45 86.95Q128.45 90.55 130 92.35Q131.6 94.1 133.95 94.1Q136.3 94.1 137.85 92.35Q139.45 90.55 139.45 86.85Q139.45 83.4 137.85 81.6Q136.3 79.85 133.95 79.85M140.25,79.75Q142.7 82.25 142.7 86.7Q142.7 90.3 141.6 92.4Q140.5 94.45 138.45 95.6Q136.4 96.7 133.95 96.7Q130.05 96.7 127.6 94.2Q125.2 91.7 125.2 86.95Q125.2 81.8 128.1 79.3Q130.5 77.2 133.95 77.2Q137.8 77.2 140.25 79.75" />
<path style="fill:#666666;fill-opacity:1" d="M170.7,537.15Q171.7 538 171.85 538.85Q172.1 539.65 171.8 540.8L170.1 540.45Q170.45 539.3 169.9 538.6Q169.25 537.75 167.9 537.35L165.4 537.3Q164.5 537.5 164.2 538.3Q163.9 538.9 164.25 539.5Q164.65 540.05 166.55 541L169.05 542.6Q170.05 543.35 170.25 544.2Q170.5 545.1 170.1 546Q169.8 547 168.8 547.5Q168 548.15 166.6 548.4L164 548.15Q162.45 547.7 161.2 546.9Q160.2 546.1 159.9 545Q159.6 543.9 160.05 542.7L161.7 543.05Q161.5 543.65 161.6 544.6Q161.8 545.25 162.55 545.85Q163.3 546.45 164.45 546.75L166.2 546.95L167.65 546.6L168.4 545.7Q168.7 545.15 168.45 544.6L167.6 543.6L165.5 542.45L163.3 541Q162.55 540.25 162.4 539.6Q162.2 538.8 162.55 537.95Q162.95 537.05 163.75 536.5Q164.6 535.9 165.85 535.75L168.35 536Q169.75 536.35 170.7 537.15M173.45,541.25L174.6 541.55L175.45 539.45L177.35 539L176.15 541.95L177.75 542.4L177.3 543.45L175.7 543L173.7 547.95L173.5 548.8L173.7 549.15L174.15 549.35L174.85 549.5L174.6 550.85L173.35 550.6L172.1 550.05L171.7 549.2Q171.65 548.85 172.2 547.45L174.15 542.6L173 542.3L173.45 541.25M183.2,543.7Q185.15 544.25 185.8 545.7Q186.55 547.15 185.7 549.25L185.55 549.65L178.55 547.7Q178.1 549.1 178.6 550.05Q179.05 551.05 180.25 551.35Q181.1 551.6 181.9 551.35Q182.75 551.05 183.4 550.25L184.95 550.95Q184.2 552 182.7 552.55L179.8 552.5Q177.65 551.9 177 550.45Q176.2 549.05 177.05 547Q177.9 544.9 179.6 544Q181.3 543.2 183.2 543.7M202.25,545.6L200.55 549.75Q202.1 548.9 203.8 549.35Q204.9 549.65 205.5 550.2Q206.05 550.75 206.2 551.5L205.7 553.5L203.55 558.8L202 558.4L204.15 553.1Q204.55 552.05 204.25 551.4Q204.05 550.75 203 550.5L201.55 550.45Q200.9 550.6 200.3 551.1L199.4 552.55L197.55 557.15L195.95 556.7L200.65 545.15L202.25 545.6M196.15,549.6Q196.2 550.75 195.7 551.95Q195.2 553.3 194.3 554.1Q193.45 554.95 192.15 555.35L189.9 555.3Q189.4 555.15 188.6 554.6Q188.05 554.15 187.85 553.55L186.2 557.6L184.6 557.15L189.3 545.6L190.75 546L190.3 547.05Q191.3 546.5 191.85 546.45L193.5 546.55Q194.7 546.85 195.4 547.7Q196.15 548.45 196.15 549.6M192.95,547.6Q191.9 547.35 190.8 547.95Q189.65 548.65 189.05 550.2Q188.35 551.9 188.75 552.8Q189.2 553.8 190.25 554.1L192.35 553.8Q193.45 553.25 194.1 551.5Q194.8 549.9 194.35 548.9Q194 547.9 192.95 547.6M182.75,544.85L180.7 545.05Q179.6 545.55 179.15 546.55L184.35 547.95Q184.65 546.95 184.35 546.25Q184 545.25 182.75 544.85M223,556L221.05 556.1Q220.15 556.4 219.4 558.1L217.55 562.65L215.95 562.2L219.35 553.85L220.8 554.25L220.35 555.4Q221.9 554.35 223.8 554.85Q224.55 555.05 225.25 555.55Q225.95 556.1 226 556.6L226.1 557.75L223.55 564.3L221.95 563.85L224 558.75L224.4 557.4L224 556.6Q223.6 556.15 223 556M230.45,558.35Q229.85 558.6 229.65 559L229.65 559.55L230.1 560.05L233.45 562.15L234.2 563.15Q234.4 563.85 234.1 564.5L233.05 565.7Q232.3 566.25 231.35 566.3L229.25 566.1Q227.4 565.55 226.75 564.7Q226.05 563.8 226.35 562.35L228 562.55Q227.85 563.4 228.2 564.05L229.7 564.95L231.5 565Q232.15 564.8 232.4 564.2Q232.55 563.7 232.25 563.3L228.65 561Q228.1 560.5 228 559.9Q227.85 559.3 228.1 558.7Q228.35 558.1 228.85 557.75Q229.25 557.35 229.9 557.2L231.05 557.05L232.5 557.25Q233.55 557.55 234.3 558.05Q235.05 558.55 235.25 559.2Q235.5 559.75 235.25 560.65L233.65 560.35Q233.75 559.6 233.4 559.25L232.15 558.45L230.45 558.35M242.75,565.3Q242.55 565.9 242.65 566.85Q242.85 567.5 243.6 568.1Q244.35 568.7 245.5 569L247.25 569.2L248.7 568.85L249.45 567.95Q249.75 567.4 249.5 566.85L248.65 565.85L246.55 564.7L244.35 563.25Q243.6 562.5 243.45 561.85Q243.25 561.05 243.6 560.2Q244 559.3 244.8 558.75Q245.65 558.15 246.9 558L249.4 558.25Q250.8 558.6 251.75 559.4Q252.75 560.25 252.9 561.1Q253.15 561.9 252.85 563.05L251.15 562.7Q251.5 561.55 250.95 560.85Q250.3 560 248.95 559.6L246.45 559.55Q245.55 559.75 245.25 560.55Q244.95 561.15 245.3 561.75Q245.7 562.3 247.6 563.25L250.1 564.85Q251.1 565.6 251.3 566.45Q251.55 567.35 251.15 568.25Q250.85 569.25 249.85 569.75Q249.05 570.4 247.65 570.65L245.05 570.4Q243.5 569.95 242.25 569.15Q241.25 568.35 240.95 567.25Q240.65 566.15 241.1 564.95L242.75 565.3M215.85,553.95Q216.6 555.4 215.75 557.5L215.6 557.9L208.6 555.95Q208.15 557.35 208.65 558.3Q209.1 559.3 210.3 559.6Q211.15 559.85 211.95 559.6L213.45 558.5L215 559.2Q214.25 560.25 212.75 560.8L209.85 560.75Q207.7 560.15 207.05 558.7Q206.25 557.3 207.1 555.25Q207.95 553.15 209.65 552.25Q211.35 551.45 213.25 551.95Q215.2 552.5 215.85 553.95M212.8,553.1L210.75 553.3Q209.65 553.8 209.2 554.8L214.4 556.2Q214.7 555.2 214.4 554.5Q214.05 553.5 212.8 553.1M270.25,567.6Q272.2 568.15 272.85 569.6Q273.6 571.05 272.75 573.15L272.6 573.55L265.6 571.6Q265.15 573 265.65 573.95Q266.1 574.95 267.3 575.25Q268.15 575.5 268.95 575.25Q269.8 574.95 270.45 574.15L272 574.85Q271.25 575.9 269.75 576.45L266.85 576.4Q264.7 575.8 264.05 574.35Q263.25 572.95 264.1 570.9Q264.95 568.8 266.65 567.9Q268.35 567.1 270.25 567.6M267.75,568.95Q266.65 569.45 266.2 570.45L271.4 571.85Q271.7 570.85 271.4 570.15Q271.05 569.15 269.8 568.75L267.75 568.95M265.3,566.75L264.2 567.9Q263.75 567.45 263.2 567.3L262.15 567.35Q261.55 567.5 261.25 567.9L260.3 569.55L258.55 573.9L256.95 573.45L260.35 565.1L261.75 565.5L261.25 566.75L262.7 565.8L263.85 565.85Q264.65 566.1 265.3 566.75M254.05,564.55L254.5 563.5L255.65 563.8L256.5 561.7L258.4 561.25L257.2 564.2L258.8 564.65L258.35 565.7L256.75 565.25L254.75 570.2L254.55 571.05L254.75 571.4L255.2 571.6L255.9 571.75L255.65 573.1L254.4 572.85Q253.7 572.7 253.15 572.3Q252.75 571.9 252.75 571.45L253.25 569.7L255.2 564.85L254.05 564.55M281.4,572.9Q281.05 571.9 279.8 571.5L277.75 571.7Q276.65 572.2 276.2 573.2L281.4 574.6Q281.7 573.6 281.4 572.9M282.85,572.35Q283.6 573.8 282.75 575.9L282.6 576.3L275.6 574.35Q275.15 575.75 275.65 576.7Q276.1 577.7 277.3 578Q278.15 578.25 278.95 578Q279.8 577.7 280.45 576.9L282 577.6Q281.25 578.65 279.75 579.2L276.85 579.15Q274.7 578.55 274.05 577.1Q273.25 575.7 274.1 573.65Q274.95 571.55 276.65 570.65Q278.35 569.85 280.25 570.35Q282.2 570.9 282.85 572.35M289.35,574.2L287.75 573.75L285.75 578.7L285.55 579.55L285.75 579.9L286.2 580.1L286.9 580.25L286.65 581.6L285.4 581.35Q284.7 581.2 284.15 580.8L283.75 579.95L284.25 578.2L286.2 573.35L285.05 573.05L285.5 572L286.65 572.3L287.5 570.2L289.4 569.75L288.2 572.7L289.8 573.15L289.35 574.2M138.1,536.7L139.75 537.05Q139.55 537.65 139.65 538.6Q139.85 539.25 140.6 539.85Q141.35 540.45 142.5 540.75L144.25 540.95L145.7 540.6L146.45 539.7Q146.75 539.15 146.5 538.6L145.65 537.6L143.55 536.45L141.35 535Q140.6 534.25 140.45 533.6Q140.25 532.8 140.6 531.95Q141 531.05 141.8 530.5Q142.65 529.9 143.9 529.75L146.4 530Q147.8 530.35 148.75 531.15Q149.75 532 149.9 532.85Q150.15 533.65 149.85 534.8L148.15 534.45Q148.5 533.3 147.95 532.6Q147.3 531.75 145.95 531.35L143.45 531.3Q142.55 531.5 142.25 532.3Q141.95 532.9 142.3 533.5L144.6 535L147.1 536.6Q148.1 537.35 148.3 538.2Q148.55 539.1 148.15 540Q147.85 541 146.85 541.5Q146.05 542.15 144.65 542.4L142.05 542.15Q140.5 541.7 139.25 540.9Q138.25 540.1 137.95 539Q137.65 537.9 138.1 536.7M151.45,535.25L152.6 535.55L153.45 533.45L155.35 533L154.15 535.95L155.75 536.4L155.3 537.45L153.7 537L151.7 541.95L151.5 542.8L151.7 543.15L152.15 543.35L152.85 543.5L152.6 544.85L151.35 544.6Q150.65 544.45 150.1 544.05L149.7 543.2Q149.65 542.85 150.2 541.45L152.15 536.6L151 536.3L151.45 535.25" />
</g>
</svg>
