<?xml version="1.0" encoding="utf-8"?>
<svg version="1.1" id="Layer_1"
xmlns="http://www.w3.org/2000/svg"
xmlns:xlink="http://www.w3.org/1999/xlink"
xmlns:author="http://www.sothink.com"
width="994px" height="565px"
xml:space="preserve">
<g id="6" transform="matrix(1, 0, 0, 1, -60.6, -98.45)">
<path style="fill:#040504;fill-opacity:0.2" d="M1043.4,378.2L828 488.35L827.8 488.3L798.2 503.4L798.15 503.6L696.7 555.45L696.6 555.4L683.3 562.1L683.25 562.35L496.45 657.85L382.55 625.15L344.9 644.3L344.9 644.35L344.85 644.35L327.15 653.45L327.1 653.45L307.9 663.3L230.1 640.9L230.05 640.9L203.05 633.5L146.15 616.85L149.65 594.5L277.25 529.25L66.4 468.75L69.85 446.4L534.6 208.8L1046.85 355.9L1043.4 378.2" />
<path style="fill:none;stroke-width:12;stroke-linecap:butt;stroke-linejoin:miter;stroke-miterlimit:10;stroke:#4E85C8;stroke-opacity:1" d="M1047.85,251.85L535.6 104.8L70.85 342.4L67.4 364.7L278.25 425.25L150.65 490.5L147.15 512.85L204.05 529.5L231.05 536.9L231.1 536.9L308.9 559.25L383.55 521.1L497.45 553.85L684.25 458.35L684.3 458.1L697.6 451.4L697.7 451.45L799.15 399.55L799.2 399.4L828.8 384.25L829 384.35L1044.4 274.2L1047.85 251.85M724.45,299.75L869.5 341.4L895.9 327.9M471.3,447.15L593.85 482.35" />
<path style="fill:none;stroke-width:12;stroke-linecap:round;stroke-linejoin:miter;stroke-miterlimit:10;stroke:#4E85C8;stroke-opacity:1" d="M756.45,399.2L577.3 347.75L576.6 347.55" />
<path style="fill:none;stroke-width:12;stroke-linecap:round;stroke-linejoin:miter;stroke-miterlimit:10;stroke:#4E85C8;stroke-opacity:1" d="M576.6,347.55L575.85 347.35L575.9 347.35L576.6 347.55z" />
</g>
</svg>
