<?xml version="1.0" encoding="utf-8"?>
<svg version="1.1" id="Layer_1"
xmlns="http://www.w3.org/2000/svg"
xmlns:xlink="http://www.w3.org/1999/xlink"
xmlns:author="http://www.sothink.com"
width="981px" height="455px"
xml:space="preserve">
<g id="7" transform="matrix(1, 0, 0, 1, -67.4, -104.8)">
<path style="fill:none;stroke-width:12;stroke-linecap:butt;stroke-linejoin:miter;stroke-miterlimit:10;stroke:#4E85C8;stroke-opacity:1" d="M215.95,459.5L215.05 459.25M187.15,500.2L190.5 499.35M206.65,495.2L205.9 495.4M192.7,498.8L193.4 498.65L193.55 498.6L198.3 497.35" />
<path style="fill:#999999;fill-opacity:1" d="M721.3,268.1L624.9 316.4L829.05 384.15L797.55 400.2L593.6 332.1L491.45 383.25L698.45 451L683.7 458.35L476.8 390.6L429.05 414.5L479.6 437.05L457.45 441.75L425.25 433.7L406.2 458.95L403.55 462.25Q400.55 465.5 393.45 470.35Q386.1 475.35 376.35 480.45Q367.65 485.05 356.7 489.9Q346.45 494.35 334.9 498.7Q324.1 502.75 311.2 506.95Q298 511.2 285.65 514.7L258.45 521.95Q254.25 523 245.15 529.45Q236.15 535.8 231.05 536.9L204.05 529.5L174.05 520.45L197.35 512.85Q225.05 503.7 244.9 497.55L268.85 489.6Q281.55 485.1 291.4 481Q301.75 476.8 312.05 471.6Q320.1 467.5 326.2 463.55L329.35 461.55L345.3 450.9Q354.3 444.65 359.55 439.95Q364.85 435.15 367.5 430.95Q370.2 426.65 370.4 422.35Q370.6 418.55 368.8 414.35Q367.1 410.3 363.4 405.3Q358.7 399.1 356.45 394.95Q353.55 389.7 353.25 385.65Q352.75 377.85 362.15 372.8Q370.7 368.2 388.3 365.15Q401.85 362.9 420.7 361.45L648.7 247.35L721.3 268.1" />
<path style="fill:#7F7F7F;fill-opacity:1" d="M895.9,327.9L750.85 286.25L724.45 299.75L869.5 341.4L895.9 327.9M1044.4,274.2L829 384.35L618.4 323.85L621.9 301.55L687.45 268.05L642.55 255.15L421.4 368.2L442.7 374.35L438.85 376.3L438.85 376.35L442.25 374.6L439.05 395.15L477.3 375.6L489.1 378.95L490.7 368.7L529.25 348.9L529.3 348.95L592.15 316.8L802.65 377.25L799.15 399.55L697.7 451.45L685.85 448.05L684.25 458.35L497.45 553.85L383.55 521.1L345.9 540.3L345.9 540.35L345.85 540.35L328.15 549.4L328.1 549.4L328.1 549.45L308.9 559.25L231.1 536.9L234.55 514.6L238.15 515.6L238.25 514.85L261.75 509.15L261.95 507.9L262.85 507.7Q277.6 503.95 289.75 500.4L290.3 500.25L290.35 500.25Q303.2 496.6 314.95 492.65L315.5 492.45Q327.15 488.65 338.3 484.35Q348.65 480.45 359.2 475.8L359.8 475.55Q370.95 470.5 378.6 466.35Q378.85 466.25 379.05 466.1L379.1 466.1L379.55 465.85Q388.65 460.9 395.65 456.05L395.8 455.95Q402.4 451.4 405.65 447.85L408 444.8L408.15 444.55L417.35 431.9L417.45 431.7L417.45 431.75L417.5 431.7L426.5 419.2L426.55 419.15L429.25 401.8L421.2 405.9L370.65 391.4L373 376.2Q368.5 377.45 365.35 378.75Q362.8 379.75 360.9 380.85L359.8 381.5Q362.15 385.45 366.45 391Q374 400.75 373.85 407.95L373.85 408.75L373.75 409.5L373.6 410.6L373.7 410.3L370.2 432.65Q369.6 436.3 367.15 440.2Q364.7 443.9 360.05 448.3L359.65 448.65L359.6 448.6Q355.25 452.7 346.45 459.05L346.15 459.25L346.55 456.8L346.45 456.85L346.1 459.3L345.65 459.6L334.7 467.15L327.4 472.05Q320.7 476.35 314.05 479.8L313.45 480.1L313.4 480.1L312.9 480.4L292.5 489.85L292.45 489.85L287.4 491.9Q280.35 494.8 271.5 497.95L271.5 498L270.25 498.45L247.9 505.95L246.95 506.25Q224 513.5 192.75 521.4L184.35 523.5L147.15 512.85L150.65 490.5L278.25 425.25L67.4 364.7L70.85 342.4L535.6 104.8L1047.85 251.85L1044.4 274.2M1015.55,266.7L533.25 128.25L443.8 173.95L926.1 312.45L1015.55 266.7M505.25,260.55L357.5 218.1L297.15 248.95L498.3 306.65L519.8 295.7L492.2 287.75L495.65 265.45L505.25 260.55M526.15,221.75L413.6 189.4L406.55 193L525.3 227.1L526.15 221.75M575.85,347.35L756.45 399.2L770.3 392.1L589.75 340.25L575.85 347.35M479.95,445.3L471.3 447.15L593.85 482.35L636.55 460.5L456.1 408.7L453.85 409.85L483.4 422.95L479.95 445.3M99.7,349.9L218.3 383.95L244.1 370.7L353.1 402Q350.55 397.35 350.05 393.55L135.05 331.8L99.7 349.9M179.5,498L187.15 500.2L207.15 495.05L193.1 491.05L179.5 498" />
</g>
</svg>
