<?xml version="1.0" encoding="utf-8"?>
<svg version="1.1" id="Layer_1"
xmlns="http://www.w3.org/2000/svg"
xmlns:xlink="http://www.w3.org/1999/xlink"
xmlns:author="http://www.sothink.com"
width="203px" height="103px"
xml:space="preserve">
<g id="44" transform="matrix(1, 0, 0, 1, -11.25, -94.7)">
<path style="fill:#292929;fill-opacity:1" d="M213.65,114.75L199 160.75L128.65 143.05L154.3 107.7L196 138.45L213.65 114.75" />
<path style="fill:#292929;fill-opacity:1" d="M182.3,122.6Q179.75 128.05 179.75 134.75L179.6 137.8L149.95 130.4L150 126.1L139.9 133.3L144.1 138.65L199.35 152.45L199.25 160.75L191.55 194.15L191.7 194.05L191.65 194.4L191.45 195.2L191.05 196.85L188.4 196.4L188.45 196.35L112.75 177.45L111 181.45L68.25 179L68.3 170.7L70 166.45L11.25 151.8L11.35 143.5L79.75 94.7L155.85 113.7L155.8 117.95L160.25 114.8L183.45 120.6L182.3 122.6" />
</g>
</svg>
